<?xml version="1.0" encoding="UTF-8" standalone="no"?>
<svg
   xmlns:dc="http://purl.org/dc/elements/1.1/"
   xmlns:cc="http://creativecommons.org/ns#"
   xmlns:rdf="http://www.w3.org/1999/02/22-rdf-syntax-ns#"
   xmlns:svg="http://www.w3.org/2000/svg"
   xmlns="http://www.w3.org/2000/svg"
   viewBox="0 0 85.333336 85.333336"
   height="85.333336"
   width="85.333336"
   xml:space="preserve"
   id="svg2"
   version="1.1"><metadata
     id="metadata8"><rdf:RDF><cc:Work
         rdf:about=""><dc:format>image/svg+xml</dc:format><dc:type
           rdf:resource="http://purl.org/dc/dcmitype/StillImage" /></cc:Work></rdf:RDF></metadata><defs
     id="defs6" /><g
     transform="matrix(1.3333333,0,0,-1.3333333,0,85.333333)"
     id="g10"><g
       transform="scale(0.1)"
       id="g12"><path
         id="path14"
         style="fill:#495672;fill-opacity:1;fill-rule:nonzero;stroke:none"
         d="M 640,320 C 640,143.27 496.73,0 320,0 143.27,0 0,143.27 0,320 0,496.73 143.27,640 320,640 496.73,640 640,496.73 640,320" /><path
         id="path16"
         style="fill:#404a5f;fill-opacity:1;fill-rule:nonzero;stroke:none"
         d="m 551.129,260 h -32.121 c 0.656,6.582 0.992,13.25 0.992,20 v 0 h 31.129 c 0.258,0 0.512,0.004 0.758,0.016 l 4.875,-6.2 C 562.738,266.219 560.203,260 551.129,260 m -76.191,0 h -29.399 c -9.074,0 -11.609,6.219 -5.637,13.816 l 4.875,6.2 c 0.25,-0.012 0.504,-0.016 0.762,-0.016 h 33.219 c -0.856,-6.805 -2.137,-13.484 -3.82,-20" /><path
         id="path18"
         style="fill:#404a5f;fill-opacity:1;fill-rule:nonzero;stroke:none"
         d="m 194.461,260 h -29.398 c -1.684,6.516 -2.965,13.195 -3.821,20 h 33.219 c 0.258,0 0.512,0.004 0.762,0.016 l 4.875,-6.2 C 206.07,266.219 203.535,260 194.461,260 m -73.469,0 H 88.8711 c -9.0742,0 -11.6094,6.219 -5.6328,13.816 l 4.875,6.2 c 0.2461,-0.012 0.5,-0.016 0.7578,-0.016 H 120 v 0 c 0,-6.75 0.336,-13.418 0.992,-20" /><path
         id="path20"
         style="fill:#e1e3cc;fill-opacity:1;fill-rule:nonzero;stroke:none"
         d="m 445.539,280 c -9.074,0 -11.609,6.219 -5.637,13.816 l 47.567,60.485 c 5.976,7.597 15.754,7.597 21.73,0 l 47.563,-60.485 C 562.738,286.219 560.203,280 551.129,280 h -105.59" /><path
         id="path22"
         style="fill:#e1e3cc;fill-opacity:1;fill-rule:nonzero;stroke:none"
         d="m 88.8711,280 c -9.0742,0 -11.6094,6.219 -5.6328,13.816 l 47.5627,60.485 c 5.976,7.597 15.754,7.597 21.73,0 l 47.567,-60.485 C 206.07,286.219 203.535,280 194.461,280 H 88.8711" /><path
         id="path24"
         style="fill:#404a5f;fill-opacity:1;fill-rule:nonzero;stroke:none"
         d="M 320,80 C 216.473,80 131.063,159.078 120.992,260 h 3.028 C 142.602,168.824 223.418,100 320,100 c 96.582,0 177.398,68.824 195.98,160 h 3.028 C 508.938,159.078 423.527,80 320,80" /><path
         id="path26"
         style="fill:#394051;fill-opacity:1;fill-rule:nonzero;stroke:none"
         d="m 519.008,260 h -3.028 c 1.34,6.559 2.352,13.227 3.028,20 H 520 v 0 c 0,-6.75 -0.336,-13.418 -0.992,-20" /><path
         id="path28"
         style="fill:#394051;fill-opacity:1;fill-rule:nonzero;stroke:none"
         d="m 124.02,260 h -3.028 C 120.336,266.582 120,273.25 120,280 v 0 h 0.992 c 0.676,-6.773 1.688,-13.441 3.028,-20" /><path
         id="path30"
         style="fill:#b7b7a7;fill-opacity:1;fill-rule:nonzero;stroke:none"
         d="m 520,280 h -0.992 c 0.16,1.59 0.297,3.176 0.418,4.773 C 519.801,283.246 520,281.645 520,280" /><path
         id="path32"
         style="fill:#b7b7a7;fill-opacity:1;fill-rule:nonzero;stroke:none"
         d="M 120.992,280 H 120 c 0,1.645 0.199,3.246 0.574,4.773 0.121,-1.597 0.262,-3.183 0.418,-4.773" /><path
         id="path34"
         style="fill:#e1e3cc;fill-opacity:1;fill-rule:nonzero;stroke:none"
         d="m 320,100 c -110.277,0 -200,89.719 -200,200 0,11.047 8.953,20 20,20 11.047,0 20,-8.953 20,-20 0,-88.223 71.777,-160 160,-160 88.223,0 160,71.777 160,160 0,11.047 8.953,20 20,20 11.047,0 20,-8.953 20,-20 0,-110.281 -89.723,-200 -200,-200" /><path
         id="path36"
         style="fill:#e1e3cc;fill-opacity:1;fill-rule:nonzero;stroke:none"
         d="m 300,120 h 40 v 320 h -40 z" /><path
         id="path38"
         style="fill:#404a5f;fill-opacity:1;fill-rule:nonzero;stroke:none"
         d="m 300,403.426 c -23.281,8.254 -40,30.496 -40,56.574 0,33.086 26.914,60 60,60 33.086,0 60,-26.914 60,-60 0,-26.078 -16.719,-48.32 -40,-56.574 V 440 h -20 c 11.031,0 20,8.969 20,20 0,11.031 -8.969,20 -20,20 -11.031,0 -20,-8.969 -20,-20 0,-11.031 8.969,-20 20,-20 h -20 v -36.574" /><path
         id="path40"
         style="fill:#b7b7a7;fill-opacity:1;fill-rule:nonzero;stroke:none"
         d="m 320,400 c -7.008,0 -13.742,1.207 -20,3.426 V 440 h 20 v 0 0 h 20 V 403.426 C 333.742,401.207 327.008,400 320,400" /><path
         id="path42"
         style="fill:#404a5f;fill-opacity:1;fill-rule:nonzero;stroke:none"
         d="m 380,310 h -40 v 40 h 40 c 11.047,0 20,-8.953 20,-20 0,-11.047 -8.953,-20 -20,-20 m -80,0 h -40 c -11.047,0 -20,8.953 -20,20 0,11.047 8.953,20 20,20 h 40 v -40" /><path
         id="path44"
         style="fill:#b7b7a7;fill-opacity:1;fill-rule:nonzero;stroke:none"
         d="m 300,310 h 40 v 40 h -40 z" /><path
         id="path46"
         style="fill:#e1e3cc;fill-opacity:1;fill-rule:nonzero;stroke:none"
         d="m 320,500 c -11.031,0 -20,-8.977 -20,-20 0,-11.023 8.969,-20 20,-20 11.031,0 20,8.977 20,20 0,11.023 -8.969,20 -20,20 z m 0,-80 c -33.086,0 -60,26.914 -60,60 0,33.086 26.914,60 60,60 33.086,0 60,-26.914 60,-60 0,-33.086 -26.914,-60 -60,-60" /><path
         id="path48"
         style="fill:#e1e3cc;fill-opacity:1;fill-rule:nonzero;stroke:none"
         d="m 400,350 c 0,-11.047 -8.953,-20 -20,-20 H 260 c -11.047,0 -20,8.953 -20,20 0,11.047 8.953,20 20,20 h 120 c 11.047,0 20,-8.953 20,-20" /></g></g></svg>