<?xml version="1.0" encoding="UTF-8" standalone="no"?>
<svg
   xmlns:dc="http://purl.org/dc/elements/1.1/"
   xmlns:cc="http://creativecommons.org/ns#"
   xmlns:rdf="http://www.w3.org/1999/02/22-rdf-syntax-ns#"
   xmlns:svg="http://www.w3.org/2000/svg"
   xmlns="http://www.w3.org/2000/svg"
   viewBox="0 0 85.333336 85.333336"
   height="85.333336"
   width="85.333336"
   xml:space="preserve"
   id="svg2"
   version="1.1"><metadata
     id="metadata8"><rdf:RDF><cc:Work
         rdf:about=""><dc:format>image/svg+xml</dc:format><dc:type
           rdf:resource="http://purl.org/dc/dcmitype/StillImage" /></cc:Work></rdf:RDF></metadata><defs
     id="defs6" /><g
     transform="matrix(1.3333333,0,0,-1.3333333,0,85.333333)"
     id="g10"><g
       transform="scale(0.1)"
       id="g12"><path
         id="path14"
         style="fill:#e1e3cc;fill-opacity:1;fill-rule:nonzero;stroke:none"
         d="M 640,320 C 640,143.27 496.73,0 320,0 143.27,0 0,143.27 0,320 0,496.73 143.27,640 320,640 496.73,640 640,496.73 640,320" /><path
         id="path16"
         style="fill:#b7b7a7;fill-opacity:1;fill-rule:nonzero;stroke:none"
         d="M 190,281.504 93.1523,378.352 C 110.824,429.52 145.297,472.82 190,501.695 V 281.504" /><path
         id="path18"
         style="fill:#b7b7a7;fill-opacity:1;fill-rule:nonzero;stroke:none"
         d="M 229.082,200 H 101.836 C 87.8555,230.449 80,264.301 80,300 c 0,15.332 1.5,30.305 4.2461,44.836 L 229.082,200" /><path
         id="path20"
         style="fill:#b7b7a7;fill-opacity:1;fill-rule:nonzero;stroke:none"
         d="m 320,60 c -15.332,0 -30.305,1.4961 -44.836,4.2461 L 420,209.082 V 81.8359 C 389.551,67.8555 355.699,60 320,60" /><path
         id="path22"
         style="fill:#b7b7a7;fill-opacity:1;fill-rule:nonzero;stroke:none"
         d="M 241.648,73.1523 C 190.48,90.8242 147.18,125.297 118.305,170 H 338.496 L 241.648,73.1523" /><path
         id="path24"
         style="fill:#b7b7a7;fill-opacity:1;fill-rule:nonzero;stroke:none"
         d="M 555.754,255.164 410.918,400 H 538.164 C 552.145,369.551 560,335.699 560,300 c 0,-15.332 -1.496,-30.305 -4.246,-44.836" /><path
         id="path26"
         style="fill:#b7b7a7;fill-opacity:1;fill-rule:nonzero;stroke:none"
         d="M 450,98.3047 V 318.496 l 96.848,-96.848 C 529.176,170.48 494.703,127.18 450,98.3047" /><path
         id="path28"
         style="fill:#b7b7a7;fill-opacity:1;fill-rule:nonzero;stroke:none"
         d="M 521.695,430 H 301.504 l 96.848,96.848 C 449.52,509.176 492.82,474.703 521.695,430" /><path
         id="path30"
         style="fill:#b7b7a7;fill-opacity:1;fill-rule:nonzero;stroke:none"
         d="M 220,390.918 V 518.164 C 250.449,532.145 284.301,540 320,540 c 15.332,0 30.305,-1.496 44.836,-4.246 L 220,390.918" /><path
         id="path32"
         style="fill:#495672;fill-opacity:1;fill-rule:nonzero;stroke:none"
         d="M 190,521.695 C 145.297,492.82 110.824,449.52 93.1523,398.352 L 190,301.504 v 220.191" /><path
         id="path34"
         style="fill:#495672;fill-opacity:1;fill-rule:nonzero;stroke:none"
         d="M 84.2461,364.836 C 81.4961,350.305 80,335.332 80,320 80,284.301 87.8555,250.449 101.836,220 H 229.082 L 84.2461,364.836" /><path
         id="path36"
         style="fill:#495672;fill-opacity:1;fill-rule:nonzero;stroke:none"
         d="M 275.164,84.2461 C 289.695,81.4961 304.668,80 320,80 c 35.699,0 69.551,7.8555 100,21.836 V 229.082 L 275.164,84.2461" /><path
         id="path38"
         style="fill:#495672;fill-opacity:1;fill-rule:nonzero;stroke:none"
         d="M 118.305,190 C 147.18,145.297 190.48,110.824 241.648,93.1523 L 338.496,190 H 118.305" /><path
         id="path40"
         style="fill:#495672;fill-opacity:1;fill-rule:nonzero;stroke:none"
         d="m 555.754,275.164 c 2.75,14.531 4.246,29.504 4.246,44.836 0,35.699 -7.855,69.551 -21.836,100 H 410.918 L 555.754,275.164" /><path
         id="path42"
         style="fill:#495672;fill-opacity:1;fill-rule:nonzero;stroke:none"
         d="m 450,118.305 c 44.703,28.875 79.176,72.175 96.848,123.343 L 450,338.496 V 118.305" /><path
         id="path44"
         style="fill:#495672;fill-opacity:1;fill-rule:nonzero;stroke:none"
         d="M 521.695,450 C 492.82,494.703 449.52,529.176 398.352,546.848 L 301.504,450 h 220.191" /><path
         id="path46"
         style="fill:#495672;fill-opacity:1;fill-rule:nonzero;stroke:none"
         d="M 364.836,555.754 C 350.305,558.504 335.332,560 320,560 284.301,560 250.449,552.145 220,538.164 V 410.918 l 144.836,144.836" /></g></g></svg>