<?xml version="1.0" encoding="UTF-8" standalone="no"?>
<svg
   xmlns:dc="http://purl.org/dc/elements/1.1/"
   xmlns:cc="http://creativecommons.org/ns#"
   xmlns:rdf="http://www.w3.org/1999/02/22-rdf-syntax-ns#"
   xmlns:svg="http://www.w3.org/2000/svg"
   xmlns="http://www.w3.org/2000/svg"
   viewBox="0 0 85.333336 85.333336"
   height="85.333336"
   width="85.333336"
   xml:space="preserve"
   id="svg2"
   version="1.1"><metadata
     id="metadata8"><rdf:RDF><cc:Work
         rdf:about=""><dc:format>image/svg+xml</dc:format><dc:type
           rdf:resource="http://purl.org/dc/dcmitype/StillImage" /></cc:Work></rdf:RDF></metadata><defs
     id="defs6" /><g
     transform="matrix(1.3333333,0,0,-1.3333333,0,85.333333)"
     id="g10"><g
       transform="scale(0.1)"
       id="g12"><path
         id="path14"
         style="fill:#77caa9;fill-opacity:1;fill-rule:nonzero;stroke:none"
         d="M 0,320 C 0,496.73 143.27,640 320,640 496.73,640 640,496.73 640,320 640,143.27 496.73,0 320,0 143.27,0 0,143.27 0,320" /><path
         id="path16"
         style="fill:#62a48d;fill-opacity:1;fill-rule:nonzero;stroke:none"
         d="m 320,100 c -11.816,0 -23.629,5.699 -32.594,17.098 L 144.711,298.555 C 126.785,321.352 134.391,340 161.613,340 H 240 v 120 c 0,22.094 17.906,40 40,40 h 80 c 22.094,0 40,-17.906 40,-40 V 340 h 78.387 c 27.222,0 34.828,-18.648 16.898,-41.445 L 352.594,117.098 C 343.629,105.699 331.816,100 320,100" /><path
         id="path18"
         style="fill:#ffffff;fill-opacity:1;fill-rule:nonzero;stroke:none"
         d="m 240,480 c 0,22.09 17.91,40 40,40 h 80 c 22.09,0 40,-17.91 40,-40 V 240 c 0,-22.09 -17.91,-40 -40,-40 h -80 c -22.09,0 -40,17.91 -40,40 v 240" /><path
         id="path20"
         style="fill:#ffffff;fill-opacity:1;fill-rule:nonzero;stroke:none"
         d="m 478.387,360 c 27.222,0 34.828,-18.652 16.902,-41.445 L 352.594,137.098 c -17.926,-22.797 -47.262,-22.797 -65.188,0 L 144.711,318.555 C 126.785,341.348 134.391,360 161.613,360 h 316.774" /></g></g></svg>