<?xml version="1.0" encoding="UTF-8" standalone="no"?>
<svg
   xmlns:dc="http://purl.org/dc/elements/1.1/"
   xmlns:cc="http://creativecommons.org/ns#"
   xmlns:rdf="http://www.w3.org/1999/02/22-rdf-syntax-ns#"
   xmlns:svg="http://www.w3.org/2000/svg"
   xmlns="http://www.w3.org/2000/svg"
   viewBox="0 0 85.333336 85.333336"
   height="85.333336"
   width="85.333336"
   xml:space="preserve"
   id="svg2"
   version="1.1"><metadata
     id="metadata8"><rdf:RDF><cc:Work
         rdf:about=""><dc:format>image/svg+xml</dc:format><dc:type
           rdf:resource="http://purl.org/dc/dcmitype/StillImage" /></cc:Work></rdf:RDF></metadata><defs
     id="defs6" /><g
     transform="matrix(1.3333333,0,0,-1.3333333,0,85.333333)"
     id="g10"><g
       transform="scale(0.1)"
       id="g12"><path
         id="path14"
         style="fill:#7db6d8;fill-opacity:1;fill-rule:nonzero;stroke:none"
         d="M 640,320 C 640,143.27 496.73,0 320,0 143.27,0 0,143.27 0,320 0,496.73 143.27,640 320,640 496.73,640 640,496.73 640,320" /><path
         id="path16"
         style="fill:#6594b2;fill-opacity:1;fill-rule:nonzero;stroke:none"
         d="m 360,100 h -80 c -22.094,0 -40,17.91 -40,40 v 120 h -78.387 c -27.222,0 -34.828,18.652 -16.902,41.445 L 287.406,482.902 C 296.371,494.301 308.184,500 320,500 c 11.816,0 23.629,-5.699 32.594,-17.098 L 495.289,301.445 C 513.215,278.652 505.609,260 478.387,260 H 400 V 140 c 0,-22.09 -17.906,-40 -40,-40" /><path
         id="path18"
         style="fill:#ffffff;fill-opacity:1;fill-rule:nonzero;stroke:none"
         d="m 400,160 c 0,-22.09 -17.91,-40 -40,-40 h -80 c -22.09,0 -40,17.91 -40,40 v 240 c 0,22.09 17.91,40 40,40 h 80 c 22.09,0 40,-17.91 40,-40 V 160" /><path
         id="path20"
         style="fill:#ffffff;fill-opacity:1;fill-rule:nonzero;stroke:none"
         d="m 161.613,280 c -27.222,0 -34.828,18.652 -16.902,41.445 l 142.695,181.457 c 17.926,22.797 47.262,22.797 65.188,0 L 495.289,321.445 C 513.215,298.652 505.609,280 478.387,280 H 161.613" /></g></g></svg>