<?xml version="1.0" encoding="UTF-8" standalone="no"?>
<svg
   xmlns:dc="http://purl.org/dc/elements/1.1/"
   xmlns:cc="http://creativecommons.org/ns#"
   xmlns:rdf="http://www.w3.org/1999/02/22-rdf-syntax-ns#"
   xmlns:svg="http://www.w3.org/2000/svg"
   xmlns="http://www.w3.org/2000/svg"
   viewBox="0 0 85.333336 85.333336"
   height="85.333336"
   width="85.333336"
   xml:space="preserve"
   id="svg2"
   version="1.1"><metadata
     id="metadata8"><rdf:RDF><cc:Work
         rdf:about=""><dc:format>image/svg+xml</dc:format><dc:type
           rdf:resource="http://purl.org/dc/dcmitype/StillImage" /></cc:Work></rdf:RDF></metadata><defs
     id="defs6" /><g
     transform="matrix(1.3333333,0,0,-1.3333333,0,85.333333)"
     id="g10"><g
       transform="scale(0.1)"
       id="g12"><path
         id="path14"
         style="fill:#e1e3cc;fill-opacity:1;fill-rule:nonzero;stroke:none"
         d="M 638.332,320 C 638.332,143.27 495.063,0 318.332,0 141.602,0 -1.66797,143.27 -1.66797,320 c 0,176.73 143.26997,320 319.99997,320 176.731,0 320,-143.27 320,-320" /><path
         id="path16"
         style="fill:#b7b7a7;fill-opacity:1;fill-rule:nonzero;stroke:none"
         d="m 316.012,79.8711 c -81.571,0 -169.004,57.5939 -164.762,96.3789 0.316,2.879 0.738,5.637 1.246,8.309 11.34,-37.676 89.82,-84.6879 163.516,-84.6879 2.551,0 5.097,0.0586 7.633,0.1719 119.378,5.414 211.609,92.094 216.593,209.875 0.145,-3.285 0.215,-6.594 0.215,-9.918 0,-122.883 -94.051,-214.3906 -216.808,-219.957 -2.536,-0.1133 -5.082,-0.1719 -7.633,-0.1719 M 278.738,210 c -4.437,17.254 -20.101,30 -38.738,30 -18.641,0 -34.301,-12.746 -38.738,-30 -0.824,3.195 -1.262,6.547 -1.262,10 0,22.094 17.906,40 40,40 22.094,0 40,-17.906 40,-40 0,-3.453 -0.437,-6.805 -1.262,-10 m -112.793,56.887 c -0.086,1.625 -0.191,3.285 -0.32,4.988 -4.496,59.199 -69.4141,40.406 -57.277,88.598 8.836,-23.989 53.574,-19.813 57.277,-68.598 0.715,-9.414 0.754,-17.641 0.32,-24.988" /><path
         id="path18"
         style="fill:#e08e4c;fill-opacity:1;fill-rule:nonzero;stroke:none"
         d="m 240,180 c -22.094,0 -40,17.91 -40,40 0,22.094 17.906,40 40,40 22.094,0 40,-17.906 40,-40 0,-22.09 -17.906,-40 -40,-40 m 80,360 c -85.453,0 -180,-53.75 -210.832,-156.555 -15.5742,-51.941 51.871,-31.187 56.457,-91.57 3.75,-49.375 -11.133,-65.992 -14.375,-95.625 -4.375,-40 88.75,-100 172.395,-96.207 122.757,5.566 216.808,97.074 216.808,219.957 0,122.883 -97.57,220 -220.453,220" /><path
         id="path20"
         style="fill:#b77744;fill-opacity:1;fill-rule:nonzero;stroke:none"
         d="m 207.152,350 c -22.093,0 -40,17.91 -40,40 0,22.09 17.907,40 40,40 22.09,0 40,-17.91 40,-40 0,-22.09 -17.91,-40 -40,-40" /><path
         id="path22"
         style="fill:#b77744;fill-opacity:1;fill-rule:nonzero;stroke:none"
         d="m 320,403.871 c -22.094,0 -40,17.91 -40,40 0,22.094 17.906,40 40,40 22.09,0 40,-17.906 40,-40 0,-22.09 -17.91,-40 -40,-40" /><path
         id="path24"
         style="fill:#b77744;fill-opacity:1;fill-rule:nonzero;stroke:none"
         d="m 432.109,352.719 c -22.089,0 -40,17.91 -40,40 0,22.094 17.911,40 40,40 22.09,0 40,-17.906 40,-40 0,-22.09 -17.91,-40 -40,-40" /><path
         id="path26"
         style="fill:#b77744;fill-opacity:1;fill-rule:nonzero;stroke:none"
         d="m 461.875,227.289 c -22.094,0 -40,17.91 -40,40 0,22.094 17.906,40 40,40 22.09,0 40,-17.906 40,-40 0,-22.09 -17.91,-40 -40,-40" /><path
         id="path28"
         style="fill:#b77744;fill-opacity:1;fill-rule:nonzero;stroke:none"
         d="m 371.043,128.961 c -22.094,0 -40,17.906 -40,40 0,22.09 17.906,40 40,40 22.09,0 40,-17.91 40,-40 0,-22.094 -17.91,-40 -40,-40" /><path
         id="path30"
         style="fill:#c84755;fill-opacity:1;fill-rule:nonzero;stroke:none"
         d="m 247.152,410 c 0,-22.09 -17.91,-40 -40,-40 -22.093,0 -40,17.91 -40,40 0,22.09 17.907,40 40,40 22.09,0 40,-17.91 40,-40" /><path
         id="path32"
         style="fill:#f3cc70;fill-opacity:1;fill-rule:nonzero;stroke:none"
         d="m 360,463.871 c 0,-22.09 -17.91,-40 -40,-40 -22.094,0 -40,17.91 -40,40 0,22.094 17.906,40 40,40 22.09,0 40,-17.906 40,-40" /><path
         id="path34"
         style="fill:#77caa9;fill-opacity:1;fill-rule:nonzero;stroke:none"
         d="m 472.109,412.719 c 0,-22.09 -17.91,-40 -40,-40 -22.089,0 -40,17.91 -40,40 0,22.094 17.911,40 40,40 22.09,0 40,-17.906 40,-40" /><path
         id="path36"
         style="fill:#ffffff;fill-opacity:1;fill-rule:nonzero;stroke:none"
         d="m 501.875,287.289 c 0,-22.09 -17.91,-40 -40,-40 -22.094,0 -40,17.91 -40,40 0,22.094 17.906,40 40,40 22.09,0 40,-17.906 40,-40" /><path
         id="path38"
         style="fill:#495672;fill-opacity:1;fill-rule:nonzero;stroke:none"
         d="m 411.043,188.961 c 0,-22.094 -17.91,-40 -40,-40 -22.094,0 -40,17.906 -40,40 0,22.09 17.906,40 40,40 22.09,0 40,-17.91 40,-40" /></g></g></svg>