<?xml version="1.0" encoding="UTF-8" standalone="no"?>
<svg
   xmlns:dc="http://purl.org/dc/elements/1.1/"
   xmlns:cc="http://creativecommons.org/ns#"
   xmlns:rdf="http://www.w3.org/1999/02/22-rdf-syntax-ns#"
   xmlns:svg="http://www.w3.org/2000/svg"
   xmlns="http://www.w3.org/2000/svg"
   viewBox="0 0 85.333336 85.333336"
   height="85.333336"
   width="85.333336"
   xml:space="preserve"
   id="svg2"
   version="1.1"><metadata
     id="metadata8"><rdf:RDF><cc:Work
         rdf:about=""><dc:format>image/svg+xml</dc:format><dc:type
           rdf:resource="http://purl.org/dc/dcmitype/StillImage" /></cc:Work></rdf:RDF></metadata><defs
     id="defs6" /><g
     transform="matrix(1.3333333,0,0,-1.3333333,0,85.333333)"
     id="g10"><g
       transform="scale(0.1)"
       id="g12"><path
         id="path14"
         style="fill:#495672;fill-opacity:1;fill-rule:nonzero;stroke:none"
         d="M 640,320 C 640,143.27 496.73,0 320,0 143.27,0 0,143.27 0,320 0,496.73 143.27,640 320,640 496.73,640 640,496.73 640,320" /><path
         id="path16"
         style="fill:#404a5f;fill-opacity:1;fill-rule:nonzero;stroke:none"
         d="m 220,150 h -80 c -22.094,0 -40,17.91 -40,40 v 130 c 0,22.094 17.906,40 40,40 h 40 c 22.094,0 40,-17.906 40,-40 V 150" /><path
         id="path18"
         style="fill:#404a5f;fill-opacity:1;fill-rule:nonzero;stroke:none"
         d="M 380,150 H 260 v 320 c 0,22.094 17.906,40 40,40 h 40 c 22.094,0 40,-17.906 40,-40 V 150" /><path
         id="path20"
         style="fill:#404a5f;fill-opacity:1;fill-rule:nonzero;stroke:none"
         d="m 500,150 h -80 v 120 c 0,22.094 17.906,40 40,40 h 40 c 22.094,0 40,-17.906 40,-40 v -80 c 0,-22.09 -17.906,-40 -40,-40" /><path
         id="path22"
         style="fill:#e1e3cc;fill-opacity:1;fill-rule:nonzero;stroke:none"
         d="m 180,380 h -40 c -22.094,0 -40,-17.906 -40,-40 V 210 c 0,-22.09 17.906,-40 40,-40 h 80 v 170 c 0,22.094 -17.906,40 -40,40" /><path
         id="path24"
         style="fill:#77caa9;fill-opacity:1;fill-rule:nonzero;stroke:none"
         d="m 340,530 h -40 c -22.094,0 -40,-17.906 -40,-40 V 170 h 120 v 320 c 0,22.094 -17.906,40 -40,40" /><path
         id="path26"
         style="fill:#ffffff;fill-opacity:1;fill-rule:nonzero;stroke:none"
         d="m 500,330 h -40 c -22.094,0 -40,-17.906 -40,-40 V 170 h 80 c 22.094,0 40,17.91 40,40 v 80 c 0,22.094 -17.906,40 -40,40" /></g></g></svg>