<?xml version="1.0" encoding="UTF-8" standalone="no"?>
<svg
   xmlns:dc="http://purl.org/dc/elements/1.1/"
   xmlns:cc="http://creativecommons.org/ns#"
   xmlns:rdf="http://www.w3.org/1999/02/22-rdf-syntax-ns#"
   xmlns:svg="http://www.w3.org/2000/svg"
   xmlns="http://www.w3.org/2000/svg"
   viewBox="0 0 85.333336 85.333336"
   height="85.333336"
   width="85.333336"
   xml:space="preserve"
   id="svg2"
   version="1.1"><metadata
     id="metadata8"><rdf:RDF><cc:Work
         rdf:about=""><dc:format>image/svg+xml</dc:format><dc:type
           rdf:resource="http://purl.org/dc/dcmitype/StillImage" /></cc:Work></rdf:RDF></metadata><defs
     id="defs6" /><g
     transform="matrix(1.3333333,0,0,-1.3333333,0,85.333333)"
     id="g10"><g
       transform="scale(0.1)"
       id="g12"><path
         id="path14"
         style="fill:#7db6d8;fill-opacity:1;fill-rule:nonzero;stroke:none"
         d="M 640,320 C 640,143.27 496.73,0 320,0 143.27,0 0,143.27 0,320 0,496.73 143.27,640 320,640 496.73,640 640,496.73 640,320" /><path
         id="path16"
         style="fill:#6594b2;fill-opacity:1;fill-rule:nonzero;stroke:none"
         d="m 500,240 h -20 v 120 h 20 c 11.047,0 20,-8.953 20,-20 v -80 c 0,-11.047 -8.953,-20 -20,-20" /><path
         id="path18"
         style="fill:#6594b2;fill-opacity:1;fill-rule:nonzero;stroke:none"
         d="M 460,190 H 140 c -11.047,0 -20,8.953 -20,20 v 50 80 50 c 0,11.047 8.953,20 20,20 h 320 c 11.047,0 20,-8.953 20,-20 V 360 240 210 c 0,-11.047 -8.953,-20 -20,-20 M 150,380 V 220 H 450.004 V 380 H 150" /><path
         id="path20"
         style="fill:#6594b2;fill-opacity:1;fill-rule:nonzero;stroke:none"
         d="M 170,240 H 430.004 V 360 H 170 Z" /><path
         id="path22"
         style="fill:#495672;fill-opacity:1;fill-rule:nonzero;stroke:none"
         d="M 500,380 H 480 V 260 h 20 c 11.047,0 20,8.953 20,20 v 80 c 0,11.047 -8.953,20 -20,20" /><path
         id="path24"
         style="fill:#ffffff;fill-opacity:1;fill-rule:nonzero;stroke:none"
         d="M 150,240 H 450.004 V 400 H 150 V 240" /><path
         id="path26"
         style="fill:#495672;fill-opacity:1;fill-rule:nonzero;stroke:none"
         d="M 450.004,240 H 150 V 400 H 450.004 Z M 460,430 H 140 c -11.047,0 -20,-8.953 -20,-20 v -50 -80 -50 c 0,-11.047 8.953,-20 20,-20 h 320 c 11.047,0 20,8.953 20,20 v 30 120 30 c 0,11.047 -8.953,20 -20,20" /><path
         id="path28"
         style="fill:#77caa9;fill-opacity:1;fill-rule:nonzero;stroke:none"
         d="M 170,260 H 430.004 V 380 H 170 V 260" /></g></g></svg>