<?xml version="1.0" encoding="UTF-8" standalone="no"?>
<svg
   xmlns:dc="http://purl.org/dc/elements/1.1/"
   xmlns:cc="http://creativecommons.org/ns#"
   xmlns:rdf="http://www.w3.org/1999/02/22-rdf-syntax-ns#"
   xmlns:svg="http://www.w3.org/2000/svg"
   xmlns="http://www.w3.org/2000/svg"
   viewBox="0 0 85.333336 85.333336"
   height="85.333336"
   width="85.333336"
   xml:space="preserve"
   id="svg2"
   version="1.1"><metadata
     id="metadata8"><rdf:RDF><cc:Work
         rdf:about=""><dc:format>image/svg+xml</dc:format><dc:type
           rdf:resource="http://purl.org/dc/dcmitype/StillImage" /></cc:Work></rdf:RDF></metadata><defs
     id="defs6" /><g
     transform="matrix(1.3333333,0,0,-1.3333333,0,85.333333)"
     id="g10"><g
       transform="scale(0.1)"
       id="g12"><path
         id="path14"
         style="fill:#77caa9;fill-opacity:1;fill-rule:nonzero;stroke:none"
         d="M 640,320 C 640,143.27 496.73,0 320,0 143.27,0 0,143.27 0,320 0,496.73 143.27,640 320,640 496.73,640 640,496.73 640,320" /><path
         id="path16"
         style="fill:#62a48d;fill-opacity:1;fill-rule:nonzero;stroke:none"
         d="m 190,140 c -49.707,0 -90,40.293 -90,90 0,49.707 40.293,90 90,90 49.703,0 90,-40.293 90,-90 0,-49.707 -40.297,-90 -90,-90 m 0,150 c -33.086,0 -60,-26.918 -60,-60 0,-33.082 26.914,-60 60,-60 33.086,0 60,26.918 60,60 0,33.082 -26.914,60 -60,60" /><path
         id="path18"
         style="fill:#62a48d;fill-opacity:1;fill-rule:nonzero;stroke:none"
         d="m 460,140 c -49.707,0 -90,40.293 -90,90 0,49.707 40.293,90 90,90 49.703,0 90,-40.293 90,-90 0,-49.707 -40.297,-90 -90,-90 m 0,150 c -33.082,0 -60,-26.918 -60,-60 0,-33.082 26.918,-60 60,-60 33.086,0 60,26.918 60,60 0,33.082 -26.914,60 -60,60" /><path
         id="path20"
         style="fill:#62a48d;fill-opacity:1;fill-rule:nonzero;stroke:none"
         d="m 325,195.02 c -8.281,0 -15,6.714 -15,15 v 72.976 l -82.285,79.328 c -2.902,2.797 -4.551,6.637 -4.59,10.664 -0.039,4.024 1.543,7.895 4.395,10.742 l 51.875,51.875 c 2.914,2.926 6.753,4.399 10.601,4.399 3.645,0 7.297,-1.32 10.18,-3.984 L 360.867,380 H 390 c 8.281,0 15,-6.715 15,-15 0,-8.285 -6.719,-15 -15,-15 h -35 c -3.77,0 -7.402,1.422 -10.176,3.98 l -54.402,50.223 -30.891,-30.883 75.879,-73.144 c 2.93,-2.828 4.59,-6.731 4.59,-10.801 V 210.02 c 0,-8.286 -6.719,-15 -15,-15" /><path
         id="path22"
         style="fill:#62a48d;fill-opacity:1;fill-rule:nonzero;stroke:none"
         d="m 345,440 c -19.328,0 -35,15.672 -35,35 0,19.328 15.672,35 35,35 19.328,0 35,-15.672 35,-35 0,-19.328 -15.672,-35 -35,-35" /><path
         id="path24"
         style="fill:#ffffff;fill-opacity:1;fill-rule:nonzero;stroke:none"
         d="m 190,340 c -49.707,0 -90,-40.293 -90,-90 0,-49.707 40.293,-90 90,-90 49.707,0 90,40.293 90,90 0,49.707 -40.293,90 -90,90 z m 0,-30 c 33.086,0 60,-26.918 60,-60 0,-33.082 -26.914,-60 -60,-60 -33.086,0 -60,26.918 -60,60 0,33.082 26.914,60 60,60" /><path
         id="path26"
         style="fill:#ffffff;fill-opacity:1;fill-rule:nonzero;stroke:none"
         d="m 460,340 c -49.707,0 -90,-40.293 -90,-90 0,-49.707 40.293,-90 90,-90 49.707,0 90,40.293 90,90 0,49.707 -40.293,90 -90,90 z m 0,-30 c 33.086,0 60,-26.918 60,-60 0,-33.082 -26.914,-60 -60,-60 -33.082,0 -60,26.918 -60,60 0,33.082 26.918,60 60,60" /><path
         id="path28"
         style="fill:#ffffff;fill-opacity:1;fill-rule:nonzero;stroke:none"
         d="m 340,230.016 v 79.359 c 0,4.066 -1.664,7.98 -4.59,10.801 l -75.879,73.148 30.883,30.879 54.41,-50.226 C 347.598,371.418 351.227,370 355,370 h 35 c 8.281,0 15,6.719 15,15 0,8.285 -6.719,15 -15,15 h -29.137 l -60.687,56.023 c -5.922,5.465 -15.086,5.282 -20.781,-0.418 L 227.52,403.73 c -2.836,-2.832 -4.43,-6.734 -4.395,-10.742 0.035,-4.008 1.703,-7.879 4.59,-10.66 L 310,303.004 v -72.988 c 0,-8.282 6.715,-15 15,-15 8.285,0 15,6.718 15,15" /><path
         id="path30"
         style="fill:#ffffff;fill-opacity:1;fill-rule:nonzero;stroke:none"
         d="m 380,495 c 0,-19.328 -15.672,-35 -35,-35 -19.328,0 -35,15.672 -35,35 0,19.328 15.672,35 35,35 19.328,0 35,-15.672 35,-35" /></g></g></svg>