<?xml version="1.0" encoding="UTF-8" standalone="no"?>
<svg
   xmlns:dc="http://purl.org/dc/elements/1.1/"
   xmlns:cc="http://creativecommons.org/ns#"
   xmlns:rdf="http://www.w3.org/1999/02/22-rdf-syntax-ns#"
   xmlns:svg="http://www.w3.org/2000/svg"
   xmlns="http://www.w3.org/2000/svg"
   viewBox="0 0 85.333336 85.333336"
   height="85.333336"
   width="85.333336"
   xml:space="preserve"
   id="svg2"
   version="1.1"><metadata
     id="metadata8"><rdf:RDF><cc:Work
         rdf:about=""><dc:format>image/svg+xml</dc:format><dc:type
           rdf:resource="http://purl.org/dc/dcmitype/StillImage" /></cc:Work></rdf:RDF></metadata><defs
     id="defs6" /><g
     transform="matrix(1.3333333,0,0,-1.3333333,0,85.333333)"
     id="g10"><g
       transform="scale(0.1)"
       id="g12"><path
         id="path14"
         style="fill:#77caa9;fill-opacity:1;fill-rule:nonzero;stroke:none"
         d="M 640,320 C 640,143.27 496.73,0 320,0 143.27,0 0,143.27 0,320 0,496.73 143.27,640 320,640 496.73,640 640,496.73 640,320" /><path
         id="path16"
         style="fill:#62a48d;fill-opacity:1;fill-rule:nonzero;stroke:none"
         d="m 460,160 c -55.23,0 -100,44.773 -100,100 0,3.375 0.168,6.711 0.492,10 5.02,-50.535 47.653,-90 99.508,-90 51.855,0 94.488,39.465 99.508,90 0.324,-3.289 0.492,-6.625 0.492,-10 0,-55.227 -44.773,-100 -100,-100 m -55.66,77.598 C 395.348,249.371 390,264.074 390,280 c 0,11.148 2.621,21.703 7.281,31.07 l 12.934,12.934 9.887,-19.227 C 407.773,293.781 400,277.781 400,260 c 0,-7.914 1.539,-15.477 4.34,-22.402 m 111.32,0 c 2.801,6.925 4.34,14.488 4.34,22.402 0,33.086 -26.914,60 -60,60 -4.547,0 -8.973,-0.508 -13.234,-1.469 l -13.461,26.18 c 8.23,3.406 17.246,5.289 26.695,5.289 38.598,0 70,-31.402 70,-70 0,-15.926 -5.348,-30.629 -14.34,-42.402" /><path
         id="path18"
         style="fill:#62a48d;fill-opacity:1;fill-rule:nonzero;stroke:none"
         d="m 180,160 c -55.227,0 -100,44.773 -100,100 0,3.375 0.168,6.711 0.4922,10 5.0195,-50.535 47.6528,-90 99.5078,-90 41.008,0 76.246,24.68 91.68,60 H 278 c -9.266,-45.645 -49.621,-80 -98,-80 m 69.289,110 c -0.91,6.34 -2.676,12.406 -5.168,18.078 l 4.844,3.965 C 249.645,288.129 250,284.105 250,280 c 0,-3.395 -0.242,-6.734 -0.711,-10 m -138.578,0 c -0.469,3.266 -0.711,6.605 -0.711,10 0,38.598 31.402,70 70,70 23.359,0 44.086,-11.5 56.809,-29.141 l -10.395,-8.504 C 214.051,323.328 197.789,330 180,330 c -35.203,0 -64.422,-26.121 -69.289,-60" /><path
         id="path20"
         style="fill:#495672;fill-opacity:1;fill-rule:nonzero;stroke:none"
         d="M 180,380 C 124.77,380 80,335.227 80,280 c 0,-55.227 44.77,-100 100,-100 55.23,0 100,44.773 100,100 0,55.227 -44.77,100 -100,100 m 0,-30 c 38.598,0 70,-31.402 70,-70 0,-38.598 -31.402,-70 -70,-70 -38.598,0 -70,31.402 -70,70 0,38.598 31.402,70 70,70" /><path
         id="path22"
         style="fill:#495672;fill-opacity:1;fill-rule:nonzero;stroke:none"
         d="m 460,380 c -55.23,0 -100,-44.773 -100,-100 0,-55.227 44.77,-100 100,-100 55.227,0 100,44.773 100,100 0,55.227 -44.773,100 -100,100 m 0,-30 c 38.598,0 70,-31.402 70,-70 0,-38.598 -31.402,-70 -70,-70 -38.598,0 -70,31.402 -70,70 0,38.598 31.402,70 70,70" /><path
         id="path24"
         style="fill:#62a48d;fill-opacity:1;fill-rule:nonzero;stroke:none"
         d="m 320,240 h -42 c 1.313,6.461 2,13.148 2,20 0,3.375 -0.168,6.711 -0.492,10 v 0 h 34.281 l 1.293,1.293 -26.559,53.117 -14.062,-11.508 c -3.406,9.782 -8.289,18.871 -14.379,27 L 274.77,351.918 260.727,380 H 220 c -8.285,0 -15,6.715 -15,15 0,8.285 6.715,15 15,15 h 50 c 5.684,0 10.875,-3.207 13.418,-8.289 L 304.273,360 h 87.43 l -30.859,60 H 320 c -8.285,0 -15,6.715 -15,15 0,8.285 6.715,15 15,15 h 50 c 5.621,0 10.766,-3.141 13.34,-8.141 l 36.199,-70.382 C 400.109,362.871 383.941,348.262 373.379,330 h -54.106 l 18.172,-36.344 35.387,35.387 C 364.66,314.551 360,297.82 360,280 c 0,-2.027 0.059,-4.035 0.18,-6.031 L 330.605,244.395 C 327.793,241.582 323.98,240 320,240 m -82.582,0 H 180 c -6.34,0 -11.996,3.984 -14.125,9.957 -2.137,5.973 -0.277,12.637 4.629,16.652 l 55.91,45.746 c 7.524,-6.675 13.606,-14.949 17.707,-24.277 L 222.02,270 h 27.269 c -1.586,-11.035 -5.754,-21.246 -11.871,-30 m 222.598,4.996 c -5.446,0 -10.696,2.973 -13.356,8.145 l -26.558,51.636 c 7.461,6.653 16.586,11.477 26.664,13.754 l 26.574,-51.672 c 3.789,-7.367 0.89,-16.41 -6.481,-20.199 -2.195,-1.129 -4.539,-1.664 -6.843,-1.664" /><path
         id="path26"
         style="fill:#538777;fill-opacity:1;fill-rule:nonzero;stroke:none"
         d="m 420.102,304.777 -9.887,19.227 -12.934,-12.934 c 7.516,15.118 20.344,27.149 36.024,33.641 l 13.461,-26.18 c -10.078,-2.277 -19.203,-7.101 -26.664,-13.754" /><path
         id="path28"
         style="fill:#538777;fill-opacity:1;fill-rule:nonzero;stroke:none"
         d="m 278,240 h -6.32 c 4.082,9.344 6.777,19.43 7.828,30 0.324,-3.289 0.492,-6.625 0.492,-10 0,-6.852 -0.687,-13.539 -2,-20 m -33.879,48.078 c -4.101,9.328 -10.183,17.602 -17.707,24.277 l 10.395,8.504 c 6.058,-8.406 10.308,-18.207 12.156,-28.816 l -4.844,-3.965" /><path
         id="path30"
         style="fill:#404a5f;fill-opacity:1;fill-rule:nonzero;stroke:none"
         d="m 271.68,240 h -34.262 c 6.117,8.754 10.285,18.965 11.871,30 h 30.219 v 0 c -1.051,-10.57 -3.746,-20.656 -7.828,-30 m -22.715,52.043 c -1.848,10.609 -6.098,20.41 -12.156,28.816 l 23.273,19.043 c 6.09,-8.129 10.973,-17.218 14.379,-27 l -25.496,-20.859" /><path
         id="path32"
         style="fill:#404a5f;fill-opacity:1;fill-rule:nonzero;stroke:none"
         d="m 360.18,273.969 c -0.121,1.996 -0.18,4.004 -0.18,6.031 0,17.82 4.66,34.551 12.832,49.043 l 0.957,0.957 h -0.41 c 10.562,18.262 26.73,32.871 46.16,41.477 l 13.766,-26.766 c -15.68,-6.492 -28.508,-18.523 -36.024,-33.641 L 360.18,273.969" /><path
         id="path34"
         style="fill:#ffffff;fill-opacity:1;fill-rule:nonzero;stroke:none"
         d="m 473.34,286.859 -90,175 C 380.777,466.84 375.598,470 370,470 h -50 c -8.285,0 -15,-6.715 -15,-15 0,-8.285 6.715,-15 15,-15 h 40.848 L 446.66,273.141 c 3.789,-7.368 12.832,-10.266 20.199,-6.481 7.368,3.789 10.27,12.832 6.481,20.199" /><path
         id="path36"
         style="fill:#ffffff;fill-opacity:1;fill-rule:nonzero;stroke:none"
         d="m 343.301,306.941 -60,115 C 280.711,426.902 275.598,430 270,430 h -50 c -8.285,0 -15,-6.715 -15,-15 0,-8.285 6.715,-15 15,-15 h 40.906 l 55.793,-106.937 c 3.832,-7.344 12.895,-10.192 20.239,-6.36 7.343,3.828 10.195,12.891 6.363,20.235" /><path
         id="path38"
         style="fill:#ffffff;fill-opacity:1;fill-rule:nonzero;stroke:none"
         d="m 180,275 v -15 h 140 c 4.008,0 7.773,1.563 10.605,4.395 l 90,90 c 4.29,4.289 5.575,10.742 3.254,16.347 C 421.535,376.344 416.066,380 410,380 H 290 c -3.469,0 -6.816,-1.195 -9.5,-3.391 l -110,-90 c -4.906,-4.015 -6.758,-10.679 -4.629,-16.652 C 168.004,263.984 173.66,260 180,260 v 15 L 189.5,263.391 295.352,350 h 78.433 L 313.789,290 H 180 V 275 L 189.5,263.391 180,275" /></g></g></svg>