<?xml version="1.0" encoding="UTF-8" standalone="no"?>
<svg
   xmlns:dc="http://purl.org/dc/elements/1.1/"
   xmlns:cc="http://creativecommons.org/ns#"
   xmlns:rdf="http://www.w3.org/1999/02/22-rdf-syntax-ns#"
   xmlns:svg="http://www.w3.org/2000/svg"
   xmlns="http://www.w3.org/2000/svg"
   viewBox="0 0 85.333336 85.333336"
   height="85.333336"
   width="85.333336"
   xml:space="preserve"
   id="svg2"
   version="1.1"><metadata
     id="metadata8"><rdf:RDF><cc:Work
         rdf:about=""><dc:format>image/svg+xml</dc:format><dc:type
           rdf:resource="http://purl.org/dc/dcmitype/StillImage" /></cc:Work></rdf:RDF></metadata><defs
     id="defs6" /><g
     transform="matrix(1.3333333,0,0,-1.3333333,0,85.333333)"
     id="g10"><g
       transform="scale(0.1)"
       id="g12"><path
         id="path14"
         style="fill:#77caa9;fill-opacity:1;fill-rule:nonzero;stroke:none"
         d="M 640,320 C 640,143.27 496.73,0 320,0 143.27,0 0,143.27 0,320 0,496.73 143.27,640 320,640 496.73,640 640,496.73 640,320" /><path
         id="path16"
         style="fill:#62a48d;fill-opacity:1;fill-rule:nonzero;stroke:none"
         d="M 499.727,290 H 371.215 l -17.805,17.805 2.195,2.195 h 144.122 c 0.179,-3.312 0.273,-6.645 0.273,-10 0,-3.355 -0.094,-6.687 -0.273,-10 m -230.942,0 H 140.273 c -0.179,3.313 -0.273,6.645 -0.273,10 0,3.355 0.094,6.688 0.273,10 h 142.911 l 2.8,-2.801 L 268.785,290" /><path
         id="path18"
         style="fill:#62a48d;fill-opacity:1;fill-rule:nonzero;stroke:none"
         d="M 433.109,160.074 335,258.184 v 25.605 L 446.613,172.176 c -4.293,-4.25 -8.804,-8.293 -13.504,-12.102 m -147.125,147.125 -2.8,2.801 h 5.601 l -2.801,-2.801 M 278.789,340 h -25.605 l -73.11,73.109 c 3.809,4.7 7.852,9.211 12.102,13.504 L 278.789,340" /><path
         id="path20"
         style="fill:#62a48d;fill-opacity:1;fill-rule:nonzero;stroke:none"
         d="m 206.223,160.617 c -4.461,3.649 -8.746,7.508 -12.836,11.559 L 305,283.789 V 259.395 L 206.223,160.617 M 353.41,307.805 351.215,310 h 4.39 l -2.195,-2.195 M 385.605,340 h -24.394 l 86.613,86.613 c 4.051,-4.09 7.91,-8.375 11.559,-12.836 L 385.605,340 m 102.016,102.496 c -3.914,4.598 -8.019,9.039 -12.293,13.301 1.262,3.117 1.43,6.574 0.508,9.785 3.555,-0.195 7.055,-1.652 9.769,-4.371 5.086,-5.082 5.758,-12.91 2.016,-18.715" /><path
         id="path22"
         style="fill:#ffffff;fill-opacity:1;fill-rule:nonzero;stroke:none"
         d="m 305,520.004 v -400 c 0,-8.285 6.715,-15 15,-15 8.285,0 15,6.715 15,15 v 400 c 0,8.281 -6.715,15 -15,15 -8.285,0 -15,-6.719 -15,-15" /><path
         id="path24"
         style="fill:#ffffff;fill-opacity:1;fill-rule:nonzero;stroke:none"
         d="M 520,340 H 120 c -8.285,0 -15,-6.715 -15,-15 0,-8.285 6.715,-15 15,-15 h 400 c 8.285,0 15,6.715 15,15 0,8.285 -6.715,15 -15,15" /><path
         id="path26"
         style="fill:#ffffff;fill-opacity:1;fill-rule:nonzero;stroke:none"
         d="M 472.027,189.188 189.184,472.031 c -5.856,5.856 -15.356,5.856 -21.211,0 -5.86,-5.859 -5.86,-15.355 0,-21.215 L 450.816,167.977 c 5.856,-5.86 15.356,-5.86 21.211,0 5.86,5.855 5.86,15.351 0,21.211" /><path
         id="path28"
         style="fill:#ffffff;fill-opacity:1;fill-rule:nonzero;stroke:none"
         d="m 189.184,167.977 282.843,282.839 c 5.86,5.86 5.86,15.356 0,21.215 -5.855,5.856 -15.355,5.856 -21.211,0 L 167.973,189.188 c -5.86,-5.86 -5.86,-15.356 0,-21.211 5.855,-5.86 15.355,-5.86 21.211,0" /><path
         id="path30"
         style="fill:#d4d3d1;fill-opacity:1;fill-rule:nonzero;stroke:none"
         d="m 320,290 c -2.609,0 -5.098,0.5 -7.383,1.406 l 7.383,7.383 7.383,-7.383 C 325.098,290.5 322.609,290 320,290" /><path
         id="path32"
         style="fill:#d4d3d1;fill-opacity:1;fill-rule:nonzero;stroke:none"
         d="m 327.383,291.406 -7.383,7.383 18.594,18.594 C 339.5,315.098 340,312.609 340,310 c 0,-8.437 -5.227,-15.656 -12.617,-18.594" /><path
         id="path34"
         style="fill:#d4d3d1;fill-opacity:1;fill-rule:nonzero;stroke:none"
         d="M 312.617,291.406 C 305.227,294.344 300,301.563 300,310 c 0,11.047 8.953,20 20,20 8.438,0 15.656,-5.227 18.594,-12.617 L 320,298.789 l -7.383,-7.383" /><path
         id="path36"
         style="fill:#77caa9;fill-opacity:1;fill-rule:nonzero;stroke:none"
         d="m 340,320 c 0,-11.047 -8.953,-20 -20,-20 -11.047,0 -20,8.953 -20,20 0,11.047 8.953,20 20,20 11.047,0 20,-8.953 20,-20" /><path
         id="path38"
         style="fill:#62a48d;fill-opacity:1;fill-rule:nonzero;stroke:none"
         d="m 320,80 c -121.504,0 -220,98.496 -220,220 0,60.871 24.723,115.965 64.672,155.797 0.73,-1.813 1.832,-3.512 3.301,-4.981 l 3.242,-3.242 c -0.86,-0.558 -1.672,-1.215 -2.426,-1.969 -5.859,-5.855 -5.859,-15.355 0,-21.21 l 11.285,-11.286 C 163.066,392.109 150.68,367.215 144.48,340 H 120 c -8.285,0 -15,-6.715 -15,-15 0,-8.285 6.715,-15 15,-15 h 1.102 c -0.715,-1.562 -1.102,-3.246 -1.102,-5 0,-8.285 8.664,-15 19.355,-15 h 0.918 c 1.946,-35.297 14.106,-67.922 33.567,-94.945 l -5.867,-5.867 c -5.86,-5.86 -5.86,-15.356 0,-21.211 1.859,-1.864 4.086,-3.129 6.445,-3.809 0.195,-3.559 1.652,-7.059 4.371,-9.773 2.93,-2.93 6.77,-4.395 10.606,-4.395 3.835,0 7.675,1.465 10.605,4.395 l 6.223,6.222 c 27.394,-22.402 61.496,-36.906 98.777,-40 v -0.613 c 0,-8.285 6.715,-15 15,-15 8.285,0 15,6.715 15,15 v 0.613 c 36.98,3.067 70.828,17.363 98.109,39.457 l 1.286,-1.285 c 2.929,-2.93 6.765,-4.394 10.605,-4.394 3.84,0 7.676,1.464 10.605,4.394 1.477,1.477 2.579,3.18 3.313,5.004 0.828,-0.141 1.664,-0.211 2.504,-0.211 3.84,0 7.676,1.465 10.605,4.395 5.86,5.855 5.86,15.351 0,21.211 l -5.867,5.867 c 19.461,27.023 31.621,59.648 33.567,94.945 h 0.918 c 10.691,0 19.355,6.715 19.355,15 0,1.754 -0.387,3.438 -1.102,5 H 520 c 8.285,0 15,6.715 15,15 0,8.285 -6.715,15 -15,15 h -24.48 c -6.266,27.504 -18.848,52.637 -36.137,73.777 L 485.605,440 c 0.774,0.773 1.446,1.609 2.016,2.496 C 520.293,404.105 540,354.359 540,300 540,178.496 441.504,80 320,80" /><path
         id="path40"
         style="fill:#538777;fill-opacity:1;fill-rule:nonzero;stroke:none"
         d="m 500.645,290 h -0.918 c 0.179,3.313 0.273,6.645 0.273,10 0,3.355 -0.094,6.688 -0.273,10 h 19.171 c 0.715,-1.562 1.102,-3.246 1.102,-5 0,-8.285 -8.664,-15 -19.355,-15 m -360.372,0 h -0.918 C 128.664,290 120,296.715 120,305 c 0,1.754 0.387,3.438 1.102,5 h 19.171 C 140.094,306.688 140,303.355 140,300 c 0,-3.355 0.094,-6.687 0.273,-10" /><path
         id="path42"
         style="fill:#538777;fill-opacity:1;fill-rule:nonzero;stroke:none"
         d="m 445,154.395 c -3.84,0 -7.676,1.464 -10.605,4.394 l -1.286,1.285 c 4.7,3.809 9.211,7.852 13.504,12.102 l 4.203,-4.199 c 2.289,-2.293 5.133,-3.688 8.102,-4.184 -0.734,-1.824 -1.836,-3.527 -3.313,-5.004 -2.929,-2.93 -6.765,-4.394 -10.605,-4.394 m -264.926,258.714 -11.285,11.286 c -5.859,5.855 -5.859,15.355 0,21.21 0.754,0.754 1.566,1.411 2.426,1.969 l 20.961,-20.961 c -4.25,-4.293 -8.293,-8.804 -12.102,-13.504" /><path
         id="path44"
         style="fill:#538777;fill-opacity:1;fill-rule:nonzero;stroke:none"
         d="m 189.395,150 c -3.836,0 -7.676,1.465 -10.606,4.395 -2.719,2.714 -4.176,6.214 -4.371,9.773 1.355,-0.391 2.758,-0.586 4.16,-0.586 3.84,0 7.68,1.465 10.606,4.395 l 4.203,4.199 c 4.09,-4.051 8.375,-7.91 12.836,-11.559 L 200,154.395 C 197.07,151.465 193.23,150 189.395,150 m 269.988,263.777 c -3.649,4.461 -7.508,8.746 -11.559,12.836 l 24.203,24.203 c 1.469,1.469 2.571,3.168 3.301,4.981 4.274,-4.262 8.379,-8.703 12.293,-13.301 -0.57,-0.887 -1.242,-1.723 -2.016,-2.496 l -26.222,-26.223" /><path
         id="path46"
         style="fill:#62a48d;fill-opacity:1;fill-rule:nonzero;stroke:none"
         d="m 215.055,446.16 -25.871,25.871 c -0.977,0.977 -2.059,1.793 -3.207,2.446 33.402,25.699 74.386,42.011 119.023,45.019 v -9.336 0 -30.777 c -33.371,-2.77 -64.199,-14.684 -89.945,-33.223" /><path
         id="path48"
         style="fill:#62a48d;fill-opacity:1;fill-rule:nonzero;stroke:none"
         d="M 424.945,446.16 C 399.199,464.699 368.371,476.613 335,479.383 v 40.113 c 44.637,-3.008 85.621,-19.32 119.023,-45.019 -1.148,-0.653 -2.23,-1.465 -3.207,-2.446 L 424.945,446.16" /><path
         id="path50"
         style="fill:#d4d3d1;fill-opacity:1;fill-rule:nonzero;stroke:none"
         d="m 320,105.004 c -8.285,0 -15,6.715 -15,15 v 0.613 c 4.949,-0.406 9.949,-0.617 15,-0.617 5.051,0 10.051,0.211 15,0.617 v -0.613 c 0,-8.285 -6.715,-15 -15,-15 m -15,374.379 v 30.777 9.336 c 4.957,0.336 9.957,0.504 15,0.504 5.043,0 10.043,-0.168 15,-0.504 v -40.113 c -4.949,0.406 -9.949,0.617 -15,0.617 -5.051,0 -10.051,-0.211 -15,-0.617" /><path
         id="path52"
         style="fill:#d4d3d1;fill-opacity:1;fill-rule:nonzero;stroke:none"
         d="m 520,310 h -20.273 c -0.567,10.25 -1.989,20.273 -4.207,30 H 520 c 8.285,0 15,-6.715 15,-15 0,-8.285 -6.715,-15 -15,-15 m -379.727,0 H 121.102 120 c -8.285,0 -15,6.715 -15,15 0,8.285 6.715,15 15,15 h 24.48 c -2.218,-9.727 -3.64,-19.75 -4.207,-30" /><path
         id="path54"
         style="fill:#d4d3d1;fill-opacity:1;fill-rule:nonzero;stroke:none"
         d="m 461.422,163.582 c -0.84,0 -1.676,0.07 -2.504,0.211 -2.969,0.496 -5.813,1.891 -8.102,4.184 l -4.203,4.199 c 7.133,7.066 13.668,14.711 19.547,22.879 l 5.867,-5.867 c 5.86,-5.86 5.86,-15.356 0,-21.211 -2.929,-2.93 -6.765,-4.395 -10.605,-4.395 m -269.246,263.031 -20.961,20.961 -3.242,3.242 c -1.469,1.469 -2.571,3.168 -3.301,4.981 6.683,6.668 13.808,12.914 21.305,18.68 1.148,-0.653 2.23,-1.469 3.207,-2.446 l 25.871,-25.871 c -8.168,-5.879 -15.813,-12.414 -22.879,-19.547" /><path
         id="path56"
         style="fill:#d4d3d1;fill-opacity:1;fill-rule:nonzero;stroke:none"
         d="m 178.578,163.582 c -1.402,0 -2.805,0.195 -4.16,0.586 -2.359,0.68 -4.586,1.945 -6.445,3.809 -5.86,5.855 -5.86,15.351 0,21.211 l 5.867,5.867 c 5.879,-8.168 12.414,-15.813 19.547,-22.879 l -4.203,-4.199 c -2.926,-2.93 -6.766,-4.395 -10.606,-4.395 m 269.246,263.031 c -7.066,7.133 -14.711,13.668 -22.879,19.547 l 25.871,25.871 c 0.977,0.981 2.059,1.793 3.207,2.446 7.497,-5.766 14.618,-12.012 21.305,-18.68 -0.73,-1.813 -1.832,-3.512 -3.301,-4.981 l -24.203,-24.203" /><path
         id="path58"
         style="fill:#495672;fill-opacity:1;fill-rule:nonzero;stroke:none"
         d="m 320,540 c -121.504,0 -220,-98.496 -220,-220 0,-121.504 98.496,-220 220,-220 121.504,0 220,98.496 220,220 0,121.504 -98.496,220 -220,220 z m 0,-40 c 99.254,0 180,-80.746 180,-180 0,-99.254 -80.746,-180 -180,-180 -99.254,0 -180,80.746 -180,180 0,99.254 80.746,180 180,180" /></g></g></svg>