<?xml version="1.0" encoding="UTF-8" standalone="no"?>
<svg
   xmlns:dc="http://purl.org/dc/elements/1.1/"
   xmlns:cc="http://creativecommons.org/ns#"
   xmlns:rdf="http://www.w3.org/1999/02/22-rdf-syntax-ns#"
   xmlns:svg="http://www.w3.org/2000/svg"
   xmlns="http://www.w3.org/2000/svg"
   viewBox="0 0 85.333336 85.333336"
   height="85.333336"
   width="85.333336"
   xml:space="preserve"
   id="svg2"
   version="1.1"><metadata
     id="metadata8"><rdf:RDF><cc:Work
         rdf:about=""><dc:format>image/svg+xml</dc:format><dc:type
           rdf:resource="http://purl.org/dc/dcmitype/StillImage" /></cc:Work></rdf:RDF></metadata><defs
     id="defs6" /><g
     transform="matrix(1.3333333,0,0,-1.3333333,0,85.333333)"
     id="g10"><g
       transform="scale(0.1)"
       id="g12"><path
         id="path14"
         style="fill:#7db6d8;fill-opacity:1;fill-rule:nonzero;stroke:none"
         d="M 640,320 C 640,143.27 496.73,0 320,0 143.27,0 0,143.27 0,320 0,496.73 143.27,640 320,640 496.73,640 640,496.73 640,320" /><path
         id="path16"
         style="fill:#6594b2;fill-opacity:1;fill-rule:nonzero;stroke:none"
         d="m 369.973,160.016 h -60 c -11.043,0 -30,8.953 -30,19.996 0,11.039 -1.043,19.988 10,19.988 h 100 c 11.047,0 10,-8.949 10,-19.988 0,-11.043 -18.953,-19.996 -30,-19.996" /><path
         id="path18"
         style="fill:#6594b2;fill-opacity:1;fill-rule:nonzero;stroke:none"
         d="m 340,220 c -57.223,0 -109.328,9.938 -148.461,26.211 C 165.449,232.559 137.68,220 131.824,220 l -50.3513,1.188 c -12.3164,0 -16.8047,7.398 -9.9727,16.441 L 71.8242,240 c 0.7578,0.773 1.5039,1.563 2.25,2.359 1.9922,-0.757 4.4727,-1.175 7.3985,-1.175 L 131.824,240 c 5.852,0 33.625,12.555 59.707,26.203 C 230.664,249.93 282.777,240 340,240 c 114.078,0 207.879,39.465 218.914,90 0.719,-3.289 1.086,-6.625 1.086,-10 0,-55.227 -98.496,-100 -220,-100 m -219.445,92.914 c -0.125,0.805 -0.231,1.606 -0.313,2.41 l 3.625,-0.453 c -1.121,-0.605 -2.226,-1.258 -3.312,-1.957 m 1.066,39.281 C 97.0352,373.758 59.918,416.707 70,420 h 58.137 c 15.672,0 34.851,-3.941 53.105,-10.77 -32.101,-15.207 -53.73,-35.015 -59.621,-57.035" /><path
         id="path20"
         style="fill:#495672;fill-opacity:1;fill-rule:nonzero;stroke:none"
         d="m 399.973,200.008 c 0,-11.039 -18.953,-19.992 -30,-19.992 h -60 c -11.043,0 -30,8.953 -30,19.992 0,11.043 -1.043,19.992 10,19.992 h 100 c 11.047,0 10,-8.949 10,-19.992" /><path
         id="path22"
         style="fill:#c84755;fill-opacity:1;fill-rule:nonzero;stroke:none"
         d="m 140,360 c -12.316,0 -83.5039,75.59 -70,80 h 58.137 C 160,440 206.621,423.93 230,400 l -29.676,-2.375 c 6.832,-9.039 2.344,-16.441 -9.972,-16.441 L 140,360" /><path
         id="path24"
         style="fill:#c84755;fill-opacity:1;fill-rule:nonzero;stroke:none"
         d="m 131.824,240 c 12.317,0 121.68,55.59 108.176,60 l -96.312,20 C 111.824,320 95.2031,283.93 71.8242,260 L 71.5,257.625 c -6.832,-9.039 -2.3437,-16.441 9.9727,-16.441 L 131.824,240" /><path
         id="path26"
         style="fill:#ffffff;fill-opacity:1;fill-rule:nonzero;stroke:none"
         d="m 560,340 c 0,-55.227 -98.496,-100 -220,-100 -121.504,0 -220,44.773 -220,100 0,55.227 98.496,100 220,100 121.504,0 220,-44.773 220,-100" /><path
         id="path28"
         style="fill:#6594b2;fill-opacity:1;fill-rule:nonzero;stroke:none"
         d="m 120.242,315.324 -45.7654,5.723 c -1.2735,0 -2.5078,-0.02 -3.6836,-0.02 -6.211,0 -10.793,0.536 -10.793,7.258 0,6.723 4.582,7.258 10.7969,7.258 1.1758,0 2.4062,-0.02 3.6797,-0.02 l 45.5394,5.692 C 120.004,340.813 120,340.402 120,340 c 0,-3.391 0.371,-6.738 1.098,-10.043 C 120.371,326.684 120,323.363 120,320 c 0,-1.566 0.082,-3.125 0.242,-4.676" /><path
         id="path30"
         style="fill:#567a95;fill-opacity:1;fill-rule:nonzero;stroke:none"
         d="m 123.867,314.871 -3.625,0.453 c -0.16,1.551 -0.242,3.11 -0.242,4.676 0,3.363 0.371,6.684 1.098,9.957 1.035,-4.719 2.793,-9.352 5.222,-13.855 -0.828,-0.383 -1.644,-0.797 -2.453,-1.231" /><path
         id="path32"
         style="fill:#a43f4a;fill-opacity:1;fill-rule:nonzero;stroke:none"
         d="m 127.246,314.449 -3.379,0.422 c 0.809,0.434 1.625,0.848 2.453,1.231 0.301,-0.555 0.61,-1.102 0.926,-1.653" /><path
         id="path34"
         style="fill:#d4d3d1;fill-opacity:1;fill-rule:nonzero;stroke:none"
         d="m 190.301,306.566 -63.055,7.883 c -0.316,0.551 -0.625,1.098 -0.926,1.653 -2.429,4.503 -4.187,9.136 -5.222,13.855 -0.727,3.305 -1.098,6.652 -1.098,10.043 0,0.402 0.004,0.813 0.016,1.215 L 190.301,350 c 7.996,0 28.953,-13.723 28.953,-21.715 0,-7.996 -20.957,-21.719 -28.953,-21.719" /><path
         id="path36"
         style="fill:#c84755;fill-opacity:1;fill-rule:nonzero;stroke:none"
         d="m 70,330 c -7.9961,0 -10,3.723 -10,11.715 0,7.996 2.0039,8.285 10,8.285 l 120.301,10 C 198.297,360 220,347.996 220,340 h -0.746 c 0,-7.996 -20.957,-20 -28.953,-20 L 70,330" /></g></g></svg>