<?xml version="1.0" encoding="UTF-8" standalone="no"?>
<svg
   xmlns:dc="http://purl.org/dc/elements/1.1/"
   xmlns:cc="http://creativecommons.org/ns#"
   xmlns:rdf="http://www.w3.org/1999/02/22-rdf-syntax-ns#"
   xmlns:svg="http://www.w3.org/2000/svg"
   xmlns="http://www.w3.org/2000/svg"
   viewBox="0 0 85.333336 85.333336"
   height="85.333336"
   width="85.333336"
   xml:space="preserve"
   id="svg2"
   version="1.1"><metadata
     id="metadata8"><rdf:RDF><cc:Work
         rdf:about=""><dc:format>image/svg+xml</dc:format><dc:type
           rdf:resource="http://purl.org/dc/dcmitype/StillImage" /></cc:Work></rdf:RDF></metadata><defs
     id="defs6" /><g
     transform="matrix(1.3333333,0,0,-1.3333333,0,85.333333)"
     id="g10"><g
       transform="scale(0.1)"
       id="g12"><path
         id="path14"
         style="fill:#495672;fill-opacity:1;fill-rule:nonzero;stroke:none"
         d="M 640,320 C 640,143.27 496.73,0 320,0 143.27,0 0,143.27 0,320 0,496.73 143.27,640 320,640 496.73,640 640,496.73 640,320" /><path
         id="path16"
         style="fill:#404a5f;fill-opacity:1;fill-rule:nonzero;stroke:none"
         d="m 190,90 c -2.129,0 -4.258,0.6758 -6.047,2.0352 -3.711,2.8203 -4.988,7.8242 -3.074,12.0668 L 264.531,290 H 210 c -3.469,0 -6.68,1.797 -8.508,4.742 -1.824,2.949 -1.988,6.629 -0.437,9.731 l 80,160 c 1.699,3.386 5.156,5.527 8.945,5.527 h 170 c 3.711,0 7.117,-2.055 8.848,-5.348 1.726,-3.285 1.496,-7.257 -0.606,-10.316 L 369.016,310 H 430 c 4.211,0 7.969,-2.637 9.402,-6.598 1.438,-3.961 0.239,-8.386 -2.996,-11.082 l -240,-199.9997 C 194.551,90.7773 192.273,90 190,90" /><path
         id="path18"
         style="fill:#f3cc70;fill-opacity:1;fill-rule:nonzero;stroke:none"
         d="M 468.848,484.652 C 467.117,487.945 463.711,490 460,490 H 290 c -3.789,0 -7.246,-2.141 -8.945,-5.527 l -80,-160 c -1.551,-3.102 -1.387,-6.782 0.437,-9.731 C 203.32,311.797 206.531,310 210,310 h 54.531 L 180.879,124.102 c -1.914,-4.243 -0.637,-9.247 3.074,-12.067 1.789,-1.359 3.918,-2.035 6.047,-2.035 2.273,0 4.551,0.777 6.406,2.32 l 240,200 c 3.235,2.696 4.434,7.121 2.996,11.082 C 437.969,327.363 434.211,330 430,330 h -60.984 l 99.226,144.336 c 2.102,3.059 2.332,7.031 0.606,10.316" /></g></g></svg>