<?xml version="1.0" encoding="UTF-8" standalone="no"?>
<svg
   xmlns:dc="http://purl.org/dc/elements/1.1/"
   xmlns:cc="http://creativecommons.org/ns#"
   xmlns:rdf="http://www.w3.org/1999/02/22-rdf-syntax-ns#"
   xmlns:svg="http://www.w3.org/2000/svg"
   xmlns="http://www.w3.org/2000/svg"
   viewBox="0 0 85.333336 85.333336"
   height="85.333336"
   width="85.333336"
   xml:space="preserve"
   id="svg2"
   version="1.1"><metadata
     id="metadata8"><rdf:RDF><cc:Work
         rdf:about=""><dc:format>image/svg+xml</dc:format><dc:type
           rdf:resource="http://purl.org/dc/dcmitype/StillImage" /></cc:Work></rdf:RDF></metadata><defs
     id="defs6" /><g
     transform="matrix(1.3333333,0,0,-1.3333333,0,85.333333)"
     id="g10"><g
       transform="scale(0.1)"
       id="g12"><path
         id="path14"
         style="fill:#e08e4c;fill-opacity:1;fill-rule:nonzero;stroke:none"
         d="m 638.332,310 c 0,-176.73 -143.269,-320 -320,-320 -176.73,0 -319.99997,143.27 -319.99997,320 0,176.73 143.26997,320 319.99997,320 176.731,0 320,-143.27 320,-320" /><path
         id="path16"
         style="fill:#b77744;fill-opacity:1;fill-rule:nonzero;stroke:none"
         d="m 416.406,395.855 -10.66,9.719 c 9.367,9.164 20.738,19.957 32.402,30.223 3.114,-4.09 7,-7.563 11.438,-10.203 -11.328,-9.414 -22.914,-19.985 -33.18,-29.739" /><path
         id="path18"
         style="fill:#e1e3cc;fill-opacity:1;fill-rule:nonzero;stroke:none"
         d="m 375.625,389.375 c 0,0 66.875,70.625 103.75,89.375 l -103.75,-89.375" /><path
         id="path20"
         style="fill:#e1e3cc;fill-opacity:1;fill-rule:nonzero;stroke:none"
         d="m 375.625,379.375 c -2.473,0 -4.941,0.906 -6.875,2.734 -4.008,3.797 -4.184,10.125 -0.387,14.141 2.782,2.938 68.5,72.102 106.481,91.418 4.937,2.477 10.941,0.547 13.449,-4.387 2.5,-4.922 0.535,-10.937 -4.387,-13.445 C 449,452.09 383.547,383.191 382.887,382.5 c -1.969,-2.078 -4.61,-3.125 -7.262,-3.125" /><path
         id="path22"
         style="fill:#b77744;fill-opacity:1;fill-rule:nonzero;stroke:none"
         d="m 279.953,100 c -38.48,0 -77.07,13.797 -107.75,41.762 -65.301,59.535 -69.973,160.734 -10.441,226.035 31.566,34.625 74.851,52.203 118.285,52.203 20.769,0 41.566,-4.016 61.144,-12.117 l -32.484,-35.629 c -11.164,-12.246 -13.504,-28.285 -5.23,-35.828 l 49.933,-45.524 c 2.879,-2.625 6.66,-3.875 10.836,-3.875 7.84,0 17.074,4.399 24.356,12.387 l 32.656,35.816 C 452.172,277.188 445.078,203.582 398.238,152.203 366.672,117.578 323.387,100 279.953,100" /><path
         id="path24"
         style="fill:#b77744;fill-opacity:1;fill-rule:nonzero;stroke:none"
         d="m 421.258,335.23 c -7.266,13.645 -16.625,26.422 -28.067,37.856 5.95,6.016 14.055,14.066 23.215,22.769 l 17.852,-16.277 c 8.273,-7.543 5.93,-23.582 -5.231,-35.828 l -7.769,-8.52 m -54.313,59.114 c -8.254,5.355 -16.875,9.867 -25.754,13.539 l 7.938,8.711 c 7.281,7.984 16.519,12.383 24.355,12.383 4.18,0 7.961,-1.25 10.84,-3.872 l 6.598,-6.019 c -12.719,-12.473 -21.574,-21.797 -22.559,-22.836 -0.558,-0.59 -1.031,-1.23 -1.418,-1.906" /><path
         id="path26"
         style="fill:#97633d;fill-opacity:1;fill-rule:nonzero;stroke:none"
         d="m 393.191,373.086 c -1.746,1.75 -3.55,3.469 -5.394,5.152 -1.609,1.465 -3.238,2.895 -4.891,4.282 0.535,0.566 9.719,10.214 22.84,23.054 l 10.66,-9.719 c -9.16,-8.703 -17.265,-16.753 -23.215,-22.769" /><path
         id="path28"
         style="fill:#b7b7a7;fill-opacity:1;fill-rule:nonzero;stroke:none"
         d="m 382.906,382.52 c -5.129,4.316 -10.468,8.261 -15.961,11.824 0.387,0.676 0.86,1.316 1.418,1.906 0.985,1.039 9.84,10.363 22.559,22.836 l 14.824,-13.512 c -13.121,-12.84 -22.305,-22.488 -22.84,-23.054" /><path
         id="path30"
         style="fill:#97633d;fill-opacity:1;fill-rule:nonzero;stroke:none"
         d="m 364.246,287.027 c -4.176,0 -7.957,1.25 -10.836,3.875 l -49.933,45.524 c -8.274,7.543 -5.934,23.582 5.23,35.828 l 32.484,35.629 c 8.879,-3.672 17.5,-8.184 25.754,-13.539 -2.246,-3.914 -1.613,-8.992 1.805,-12.235 0.973,-0.918 2.082,-1.605 3.258,-2.058 -2.035,-2.11 -3.305,-3.446 -3.645,-3.801 -3.797,-4.008 -3.621,-10.336 0.387,-14.137 1.934,-1.832 4.402,-2.738 6.875,-2.738 2.652,0 5.293,1.051 7.262,3.125 0.156,0.164 4.031,4.242 10.304,10.586 11.442,-11.434 20.801,-24.211 28.067,-37.856 l -32.656,-35.816 c -7.282,-7.988 -16.516,-12.387 -24.356,-12.387" /><path
         id="path32"
         style="fill:#7e5337;fill-opacity:1;fill-rule:nonzero;stroke:none"
         d="m 375.625,359.375 c -2.473,0 -4.941,0.906 -6.875,2.738 -4.008,3.801 -4.184,10.129 -0.387,14.137 0.34,0.355 1.61,1.691 3.645,3.801 1.16,-0.453 2.39,-0.676 3.617,-0.676 2.652,0 5.293,1.047 7.262,3.125 0.004,0.004 0.008,0.012 0.019,0.02 1.653,-1.387 3.282,-2.817 4.891,-4.282 1.844,-1.683 3.648,-3.402 5.394,-5.152 -6.273,-6.344 -10.148,-10.422 -10.304,-10.586 -1.969,-2.074 -4.61,-3.125 -7.262,-3.125" /><path
         id="path34"
         style="fill:#97978c;fill-opacity:1;fill-rule:nonzero;stroke:none"
         d="m 375.625,379.375 c -1.227,0 -2.457,0.223 -3.617,0.676 -1.176,0.453 -2.285,1.14 -3.258,2.058 -3.418,3.243 -4.051,8.321 -1.805,12.235 5.493,-3.563 10.832,-7.508 15.961,-11.824 -0.011,-0.008 -0.015,-0.016 -0.019,-0.02 -1.969,-2.078 -4.61,-3.125 -7.262,-3.125" /><path
         id="path36"
         style="fill:#495672;fill-opacity:1;fill-rule:nonzero;stroke:none"
         d="M 398.238,172.203 C 338.703,106.902 237.504,102.23 172.203,161.762 c -65.301,59.535 -69.973,160.734 -10.441,226.035 59.535,65.301 160.734,69.973 226.035,10.441 65.301,-59.535 69.973,-160.734 10.441,-226.035" /><path
         id="path38"
         style="fill:#495672;fill-opacity:1;fill-rule:nonzero;stroke:none"
         d="m 388.602,319.414 c -11.161,-12.246 -26.918,-16.055 -35.192,-8.512 l -49.933,45.524 c -8.274,7.543 -5.934,23.582 5.23,35.828 l 40.422,44.34 c 11.164,12.242 26.922,16.051 35.195,8.511 l 49.934,-45.527 c 8.273,-7.543 5.93,-23.582 -5.231,-35.828 l -40.425,-44.336" /><path
         id="path40"
         style="fill:#b77744;fill-opacity:1;fill-rule:nonzero;stroke:none"
         d="m 470,420 c -7.457,0 -14.437,2.039 -20.414,5.594 12.437,10.336 24.57,19.285 34.32,24.242 4.922,2.504 6.887,8.523 4.387,13.445 -1.426,2.801 -3.988,4.645 -6.84,5.25 0.832,0.461 1.652,0.895 2.453,1.305 4.922,2.508 6.887,8.523 4.387,13.445 -1.77,3.477 -5.273,5.465 -8.922,5.465 -1.523,0 -3.07,-0.348 -4.527,-1.078 -12.856,-6.539 -28.887,-18.789 -44.586,-32.246 -0.168,1.504 -0.258,3.027 -0.258,4.578 0,22.094 17.91,40 40,40 22.09,0 40,-17.906 40,-40 0,-22.09 -17.91,-40 -40,-40" /><path
         id="path42"
         style="fill:#97633d;fill-opacity:1;fill-rule:nonzero;stroke:none"
         d="m 449.586,425.594 c -4.438,2.64 -8.324,6.113 -11.438,10.203 15.211,13.391 30.915,25.891 43.305,32.734 2.852,-0.605 5.414,-2.449 6.84,-5.25 2.5,-4.922 0.535,-10.941 -4.387,-13.445 -9.75,-4.957 -21.883,-13.906 -34.32,-24.242" /><path
         id="path44"
         style="fill:#b7b7a7;fill-opacity:1;fill-rule:nonzero;stroke:none"
         d="m 438.148,435.797 c -4.242,5.578 -7.054,12.301 -7.89,19.625 15.699,13.457 31.73,25.707 44.586,32.246 1.457,0.73 3.004,1.078 4.527,1.078 3.649,0 7.152,-1.988 8.922,-5.465 2.5,-4.922 0.535,-10.937 -4.387,-13.445 -0.801,-0.41 -1.621,-0.844 -2.453,-1.305 -12.39,-6.843 -28.094,-19.343 -43.305,-32.734" /><path
         id="path46"
         style="fill:#c84755;fill-opacity:1;fill-rule:nonzero;stroke:none"
         d="m 510,470 c 0,-22.09 -17.91,-40 -40,-40 -22.09,0 -40,17.91 -40,40 0,22.094 17.91,40 40,40 22.09,0 40,-17.906 40,-40" /><path
         id="path48"
         style="fill:#f3cc70;fill-opacity:1;fill-rule:nonzero;stroke:none"
         d="m 490,470 c 0,-11.047 -8.953,-20 -20,-20 -11.047,0 -20,8.953 -20,20 0,11.047 8.953,20 20,20 11.047,0 20,-8.953 20,-20" /></g></g></svg>