<?xml version="1.0" encoding="UTF-8" standalone="no"?>
<svg
   xmlns:dc="http://purl.org/dc/elements/1.1/"
   xmlns:cc="http://creativecommons.org/ns#"
   xmlns:rdf="http://www.w3.org/1999/02/22-rdf-syntax-ns#"
   xmlns:svg="http://www.w3.org/2000/svg"
   xmlns="http://www.w3.org/2000/svg"
   viewBox="0 0 85.333336 85.333336"
   height="85.333336"
   width="85.333336"
   xml:space="preserve"
   id="svg2"
   version="1.1"><metadata
     id="metadata8"><rdf:RDF><cc:Work
         rdf:about=""><dc:format>image/svg+xml</dc:format><dc:type
           rdf:resource="http://purl.org/dc/dcmitype/StillImage" /></cc:Work></rdf:RDF></metadata><defs
     id="defs6" /><g
     transform="matrix(1.3333333,0,0,-1.3333333,0,85.333333)"
     id="g10"><g
       transform="scale(0.1)"
       id="g12"><path
         id="path14"
         style="fill:#7db6d8;fill-opacity:1;fill-rule:nonzero;stroke:none"
         d="M 638.332,320 C 638.332,143.27 495.063,0 318.332,0 141.602,0 -1.66797,143.27 -1.66797,320 c 0,176.73 143.26997,320 319.99997,320 176.731,0 320,-143.27 320,-320" /><path
         id="path16"
         style="fill:#6594b2;fill-opacity:1;fill-rule:nonzero;stroke:none"
         d="M 500,140 H 140 c -11.047,0 -20,8.953 -20,20 0,3.645 0.973,7.059 2.676,10 3.457,-5.977 9.922,-10 17.324,-10 h 360 c 7.402,0 13.867,4.023 17.324,10 1.703,-2.941 2.676,-6.355 2.676,-10 0,-11.047 -8.953,-20 -20,-20" /><path
         id="path18"
         style="fill:#e08e4c;fill-opacity:1;fill-rule:nonzero;stroke:none"
         d="m 520,180 c 0,-11.047 -8.953,-20 -20,-20 H 140 c -11.047,0 -20,8.953 -20,20 0,11.047 8.953,20 20,20 h 360 c 11.047,0 20,-8.953 20,-20" /><path
         id="path20"
         style="fill:#c84755;fill-opacity:1;fill-rule:nonzero;stroke:none"
         d="m 230,440 h -40 c -16.57,0 -30,-13.43 -30,-30 V 240 230 200 h 30 40 30 v 30 10 170 c 0,16.57 -13.43,30 -30,30" /><path
         id="path22"
         style="fill:#e1e3cc;fill-opacity:1;fill-rule:nonzero;stroke:none"
         d="m 450,480 h -40 c -16.57,0 -30,-13.43 -30,-30 V 240 230 200 h 30 40 30 v 30 10 210 c 0,16.57 -13.43,30 -30,30" /><path
         id="path24"
         style="fill:#e08e4c;fill-opacity:1;fill-rule:nonzero;stroke:none"
         d="m 160,370 h 100 v 30 H 160 Z" /><path
         id="path26"
         style="fill:#e08e4c;fill-opacity:1;fill-rule:nonzero;stroke:none"
         d="m 160,240 h 100 v 30 H 160 Z" /><path
         id="path28"
         style="fill:#ffffff;fill-opacity:1;fill-rule:nonzero;stroke:none"
         d="m 380,240 h 100 v 30 H 380 Z" /><path
         id="path30"
         style="fill:#ffffff;fill-opacity:1;fill-rule:nonzero;stroke:none"
         d="m 380,410 h 100 v 30 H 380 Z" /><path
         id="path32"
         style="fill:#b7b7a7;fill-opacity:1;fill-rule:nonzero;stroke:none"
         d="m 400,200 h -20 v 40 h 20 v -10 -30 m 0,70 h -20 v 140 h 20 V 270" /><path
         id="path34"
         style="fill:#d4d3d1;fill-opacity:1;fill-rule:nonzero;stroke:none"
         d="m 380,240 h 20 v 30 h -20 z" /><path
         id="path36"
         style="fill:#6594b2;fill-opacity:1;fill-rule:nonzero;stroke:none"
         d="m 380,450 c 0,0.016 0,0.031 0,0.043 0,-0.012 0,-0.027 0,-0.043 m 0,0.059 c 0,0.007 0,0.019 0,0.031 0,-0.012 0,-0.02 0,-0.031 m 0,0.046 c 0,0.008 0,0.016 0,0.028 0,-0.008 0,-0.02 0,-0.028 m 0,0.047 c 0,0.008 0,0.016 0,0.028 0,-0.012 0,-0.02 0,-0.028 m 0,0.067 c 0,0.004 0,0.008 0,0.011 0,-0.003 0,-0.007 0,-0.011 m 0,0.043 c 0,0.004 0,0.008 0,0.008 0,-0.004 0,-0.004 0,-0.008" /><path
         id="path38"
         style="fill:#b7b7a7;fill-opacity:1;fill-rule:nonzero;stroke:none"
         d="m 400,440 h -20 v 10 c 0,0.016 0,0.031 0,0.043 0,0.008 0,0.012 0,0.016 0,0.011 0,0.019 0,0.031 0,0.004 0,0.012 0,0.015 0,0.008 0,0.02 0,0.028 0,0.004 0,0.012 0,0.019 0,0.008 0,0.016 0,0.028 0,0.011 0,0.023 0,0.039 0,0.004 0,0.008 0,0.011 0,0.012 0,0.02 0,0.032 0,0.004 0,0.004 0,0.008 0.117,12.925 8.457,23.789 20,27.894 V 440" /><path
         id="path40"
         style="fill:#d4d3d1;fill-opacity:1;fill-rule:nonzero;stroke:none"
         d="m 380,410 h 20 v 30 h -20 z" /><path
         id="path42"
         style="fill:#6594b2;fill-opacity:1;fill-rule:nonzero;stroke:none"
         d="m 260,410 c 0,0.016 0,0.031 0,0.043 0,-0.012 0,-0.027 0,-0.043 m 0,0.059 c 0,0.011 0,0.019 0,0.031 0,-0.012 0,-0.024 0,-0.031 m 0,0.046 c 0,0.008 0,0.016 0,0.028 0,-0.008 0,-0.02 0,-0.028 m 0,0.043 c 0,0.008 0,0.02 0,0.028 0,-0.008 0,-0.02 0,-0.028 m 0,0.071 c 0,0.004 0,0.008 0,0.011 0,-0.003 0,-0.007 0,-0.011 m 0,0.043 c 0,0.004 0,0.008 0,0.008 0,0 0,-0.004 0,-0.008" /><path
         id="path44"
         style="fill:#a43f4a;fill-opacity:1;fill-rule:nonzero;stroke:none"
         d="m 260,200 h -20 v 40 h 20 v -10 -30 m 0,70 h -20 v 100 h 20 V 270 m 0,130 h -20 v 38.164 c 11.543,-4.105 19.883,-14.969 20,-27.894 0,0 0,-0.004 0,-0.008 0,-0.008 0,-0.02 0,-0.032 0,-0.003 0,-0.007 0,-0.011 0,-0.016 0,-0.028 0,-0.043 0,-0.008 0,-0.02 0,-0.028 0,-0.003 0,-0.007 0,-0.015 0,-0.012 0,-0.02 0,-0.028 0,-0.003 0,-0.011 0,-0.015 0,-0.012 0,-0.02 0,-0.031 0,-0.004 0,-0.008 0,-0.016 0,-0.012 0,-0.027 0,-0.043 v 0 -10" /><path
         id="path46"
         style="fill:#b77744;fill-opacity:1;fill-rule:nonzero;stroke:none"
         d="m 240,370 h 20 v 30 h -20 z" /><path
         id="path48"
         style="fill:#b77744;fill-opacity:1;fill-rule:nonzero;stroke:none"
         d="m 240,240 h 20 v 30 h -20 z" /><path
         id="path50"
         style="fill:#495672;fill-opacity:1;fill-rule:nonzero;stroke:none"
         d="m 350,520 h -60 c -16.57,0 -30,-13.43 -30,-30 V 240 230 200 h 30 60 30 v 30 10 250 c 0,16.57 -13.43,30 -30,30" /><path
         id="path52"
         style="fill:#77caa9;fill-opacity:1;fill-rule:nonzero;stroke:none"
         d="M 380,450 H 260 v 30 h 120 v -30" /><path
         id="path54"
         style="fill:#77caa9;fill-opacity:1;fill-rule:nonzero;stroke:none"
         d="M 380,240 H 260 v 30 h 120 v -30" /></g></g></svg>