<?xml version="1.0" encoding="UTF-8" standalone="no"?>
<svg
   xmlns:dc="http://purl.org/dc/elements/1.1/"
   xmlns:cc="http://creativecommons.org/ns#"
   xmlns:rdf="http://www.w3.org/1999/02/22-rdf-syntax-ns#"
   xmlns:svg="http://www.w3.org/2000/svg"
   xmlns="http://www.w3.org/2000/svg"
   viewBox="0 0 85.333336 85.333336"
   height="85.333336"
   width="85.333336"
   xml:space="preserve"
   id="svg2"
   version="1.1"><metadata
     id="metadata8"><rdf:RDF><cc:Work
         rdf:about=""><dc:format>image/svg+xml</dc:format><dc:type
           rdf:resource="http://purl.org/dc/dcmitype/StillImage" /></cc:Work></rdf:RDF></metadata><defs
     id="defs6" /><g
     transform="matrix(1.3333333,0,0,-1.3333333,0,85.333333)"
     id="g10"><g
       transform="scale(0.1)"
       id="g12"><path
         id="path14"
         style="fill:#7db6d8;fill-opacity:1;fill-rule:nonzero;stroke:none"
         d="M 640,320 C 640,143.27 496.73,0 320,0 143.27,0 0,143.27 0,320 0,496.73 143.27,640 320,640 496.73,640 640,496.73 640,320" /><path
         id="path16"
         style="fill:#6594b2;fill-opacity:1;fill-rule:nonzero;stroke:none"
         d="M 440,100 H 200 c -22.09,0 -40,17.906 -40,40 v 320 0 -300 c 0,-22.094 17.91,-40 40,-40 h 240 c 22.09,0 40,17.906 40,40 v -20 c 0,-22.094 -17.91,-40 -40,-40" /><path
         id="path18"
         style="fill:#495672;fill-opacity:1;fill-rule:nonzero;stroke:none"
         d="m 480,160 c 0,-22.094 -17.91,-40 -40,-40 H 200 c -22.09,0 -40,17.906 -40,40 v 320 c 0,22.094 17.91,40 40,40 h 240 c 22.09,0 40,-17.906 40,-40 V 160" /><path
         id="path20"
         style="fill:#404a5f;fill-opacity:1;fill-rule:nonzero;stroke:none"
         d="m 423.332,415 c -1.73,0 -3.437,0.668 -4.711,1.918 L 390,444.984 361.379,416.918 C 360.105,415.668 358.398,415 356.668,415 l -2.555,0.496 c -2.484,1.016 -4.113,3.402 -4.113,6.043 V 500 h 80 v -78.461 c 0,-2.641 -1.629,-5.027 -4.121,-6.043 L 423.332,415" /><path
         id="path22"
         style="fill:#c84755;fill-opacity:1;fill-rule:nonzero;stroke:none"
         d="m 350,520 v -78.461 c 0,-2.641 1.629,-5.027 4.113,-6.043 L 356.668,435 c 1.73,0 3.437,0.668 4.711,1.918 L 390,464.984 418.621,436.918 c 1.274,-1.25 2.981,-1.918 4.711,-1.918 l 2.547,0.496 c 2.492,1.016 4.121,3.402 4.121,6.043 V 520 h -80" /><path
         id="path24"
         style="fill:#e1e3cc;fill-opacity:1;fill-rule:nonzero;stroke:none"
         d="m 230,120 h -30 v 400 h 30 V 120" /></g></g></svg>