<?xml version="1.0" encoding="UTF-8" standalone="no"?>
<svg
   xmlns:dc="http://purl.org/dc/elements/1.1/"
   xmlns:cc="http://creativecommons.org/ns#"
   xmlns:rdf="http://www.w3.org/1999/02/22-rdf-syntax-ns#"
   xmlns:svg="http://www.w3.org/2000/svg"
   xmlns="http://www.w3.org/2000/svg"
   viewBox="0 0 85.333336 85.333336"
   height="85.333336"
   width="85.333336"
   xml:space="preserve"
   id="svg2"
   version="1.1"><metadata
     id="metadata8"><rdf:RDF><cc:Work
         rdf:about=""><dc:format>image/svg+xml</dc:format><dc:type
           rdf:resource="http://purl.org/dc/dcmitype/StillImage" /></cc:Work></rdf:RDF></metadata><defs
     id="defs6" /><g
     transform="matrix(1.3333333,0,0,-1.3333333,0,85.333333)"
     id="g10"><g
       transform="scale(0.1)"
       id="g12"><path
         id="path14"
         style="fill:#c84755;fill-opacity:1;fill-rule:nonzero;stroke:none"
         d="M 640,320 C 640,143.27 496.73,0 320,0 143.27,0 0,143.27 0,320 0,496.73 143.27,640 320,640 496.73,640 640,496.73 640,320" /><path
         id="path16"
         style="fill:#a43f4a;fill-opacity:1;fill-rule:nonzero;stroke:none"
         d="m 320,80 c -2.746,0 -5.492,0.6016 -7.578,1.8047 L 259.801,112.188 C 255.633,114.594 250,122.855 250,127.672 v 40.41 0 -20.41 c 0,-4.817 5.633,-13.078 9.801,-15.484 l 52.621,-30.383 C 314.508,100.602 317.254,100 320,100 c 2.746,0 5.492,0.602 7.578,1.805 l 52.621,30.383 c 4.168,2.406 9.801,10.667 9.801,15.484 v -20 c 0,-4.817 -5.633,-13.078 -9.801,-15.484 L 327.578,81.8047 C 325.492,80.6016 322.746,80 320,80" /><path
         id="path18"
         style="fill:#e1e3cc;fill-opacity:1;fill-rule:nonzero;stroke:none"
         d="m 250,226.617 v -78.945 c 0,-4.817 5.633,-13.078 9.801,-15.484 l 52.621,-30.383 c 4.168,-2.4066 10.988,-2.4066 15.156,0 l 52.621,30.383 c 4.168,2.406 9.801,10.667 9.801,15.484 v 78.945 C 368.879,216.082 345.164,210 320,210 c -25.164,0 -48.879,6.082 -70,16.617" /><path
         id="path20"
         style="fill:#a43f4a;fill-opacity:1;fill-rule:nonzero;stroke:none"
         d="m 250,168.082 c -44.332,24.633 -74.332,71.941 -74.332,126.254 0,4.324 0.187,8.602 0.562,12.832 4.305,-48.867 32.969,-90.75 73.77,-113.422 v -25.664 m 140,0 v 25.664 c 40.801,22.672 69.465,64.555 73.77,113.422 0.375,-4.23 0.566,-8.508 0.566,-12.832 0,-54.313 -30.004,-101.621 -74.336,-126.254" /><path
         id="path22"
         style="fill:#b7b7a7;fill-opacity:1;fill-rule:nonzero;stroke:none"
         d="m 320,150 c -25.402,0 -49.266,6.559 -70,18.082 v 25.664 c 20.734,-11.519 44.598,-18.078 70,-18.078 25.402,0 49.266,6.559 70,18.078 V 168.082 C 369.266,156.559 345.402,150 320,150" /><path
         id="path24"
         style="fill:#ffffff;fill-opacity:1;fill-rule:nonzero;stroke:none"
         d="m 320,464.336 c -79.715,0 -144.332,-64.621 -144.332,-144.336 0,-79.715 64.617,-144.332 144.332,-144.332 79.715,0 144.336,64.617 144.336,144.332 0,79.715 -64.621,144.336 -144.336,144.336" /><path
         id="path26"
         style="fill:#a43f4a;fill-opacity:1;fill-rule:nonzero;stroke:none"
         d="m 320,470.004 c -8.285,0 -15,6.715 -15,15 v 20 c 0,8.281 6.715,15 15,15 8.285,0 15,-6.719 15,-15 v -20 c 0,-8.285 -6.715,-15 -15,-15" /><path
         id="path28"
         style="fill:#a43f4a;fill-opacity:1;fill-rule:nonzero;stroke:none"
         d="m 525,285.004 h -20 c -8.285,0 -15,6.715 -15,15 0,8.281 6.715,15 15,15 h 20 c 8.285,0 15,-6.719 15,-15 0,-8.285 -6.715,-15 -15,-15" /><path
         id="path30"
         style="fill:#a43f4a;fill-opacity:1;fill-rule:nonzero;stroke:none"
         d="m 135,285.004 h -20 c -8.285,0 -15,6.715 -15,15 0,8.281 6.715,15 15,15 h 20 c 8.285,0 15,-6.719 15,-15 0,-8.285 -6.715,-15 -15,-15" /><path
         id="path32"
         style="fill:#a43f4a;fill-opacity:1;fill-rule:nonzero;stroke:none"
         d="m 227.516,445.215 c -5.188,0 -10.227,2.691 -13.004,7.504 l -10,17.32 c -4.145,7.172 -1.688,16.348 5.488,20.488 2.363,1.364 4.941,2.012 7.484,2.012 5.188,0 10.227,-2.687 13.004,-7.5 l 10,-17.32 c 4.145,-7.176 1.688,-16.352 -5.488,-20.492 -2.363,-1.364 -4.941,-2.012 -7.484,-2.012" /><path
         id="path34"
         style="fill:#a43f4a;fill-opacity:1;fill-rule:nonzero;stroke:none"
         d="m 480.23,377.5 c -5.187,0 -10.226,2.691 -13.007,7.504 -4.141,7.172 -1.684,16.348 5.492,20.488 l 17.32,10 c 2.363,1.363 4.942,2.012 7.485,2.012 5.187,0 10.226,-2.688 13.007,-7.5 4.141,-7.176 1.684,-16.352 -5.492,-20.492 l -17.32,-10 c -2.363,-1.364 -4.942,-2.012 -7.485,-2.012" /><path
         id="path36"
         style="fill:#a43f4a;fill-opacity:1;fill-rule:nonzero;stroke:none"
         d="m 142.48,182.5 c -5.183,0 -10.226,2.691 -13.007,7.504 -4.141,7.172 -1.684,16.348 5.492,20.488 l 17.32,10 c 2.363,1.363 4.942,2.012 7.488,2.012 5.184,0 10.223,-2.688 13.004,-7.5 4.141,-7.176 1.684,-16.352 -5.492,-20.492 l -17.32,-10 c -2.363,-1.364 -4.942,-2.012 -7.485,-2.012" /><path
         id="path38"
         style="fill:#a43f4a;fill-opacity:1;fill-rule:nonzero;stroke:none"
         d="m 159.77,377.5 c -2.543,0 -5.122,0.648 -7.485,2.012 l -17.32,10 c -7.176,4.14 -9.633,13.316 -5.492,20.492 2.781,4.812 7.824,7.5 13.004,7.5 2.546,0 5.125,-0.649 7.488,-2.012 l 17.32,-10 c 7.176,-4.14 9.633,-13.316 5.492,-20.488 -2.781,-4.813 -7.824,-7.504 -13.007,-7.504" /><path
         id="path40"
         style="fill:#a43f4a;fill-opacity:1;fill-rule:nonzero;stroke:none"
         d="m 497.52,182.5 c -2.543,0 -5.122,0.648 -7.485,2.012 l -17.32,10 c -7.176,4.14 -9.633,13.316 -5.492,20.492 2.781,4.812 7.82,7.5 13.004,7.5 2.546,0 5.125,-0.649 7.488,-2.012 l 17.32,-10 c 7.176,-4.14 9.633,-13.316 5.492,-20.488 -2.781,-4.813 -7.824,-7.504 -13.007,-7.504" /><path
         id="path42"
         style="fill:#a43f4a;fill-opacity:1;fill-rule:nonzero;stroke:none"
         d="m 412.484,445.215 c -2.543,0 -5.121,0.648 -7.484,2.012 -7.176,4.14 -9.633,13.316 -5.488,20.492 l 10,17.32 c 2.777,4.813 7.816,7.5 13.004,7.5 2.543,0 5.121,-0.648 7.484,-2.012 7.176,-4.14 9.633,-13.316 5.488,-20.488 l -10,-17.32 c -2.777,-4.813 -7.82,-7.504 -13.004,-7.504" /><path
         id="path44"
         style="fill:#ffffff;fill-opacity:1;fill-rule:nonzero;stroke:none"
         d="m 320,464.336 c -79.715,0 -144.332,-64.621 -144.332,-144.336 0,-79.715 64.617,-144.332 144.332,-144.332 79.715,0 144.336,64.617 144.336,144.332 0,79.715 -64.621,144.336 -144.336,144.336" /><path
         id="path46"
         style="fill:#e1e3cc;fill-opacity:1;fill-rule:nonzero;stroke:none"
         d="m 335,505 c 0,-8.285 -6.715,-15 -15,-15 -8.285,0 -15,6.715 -15,15 v 20 c 0,8.285 6.715,15 15,15 8.285,0 15,-6.715 15,-15 v -20" /><path
         id="path48"
         style="fill:#e1e3cc;fill-opacity:1;fill-rule:nonzero;stroke:none"
         d="m 505,305 c -8.285,0 -15,6.715 -15,15 0,8.285 6.715,15 15,15 h 20 c 8.285,0 15,-6.715 15,-15 0,-8.285 -6.715,-15 -15,-15 h -20" /><path
         id="path50"
         style="fill:#e1e3cc;fill-opacity:1;fill-rule:nonzero;stroke:none"
         d="m 135,335 c 8.285,0 15,-6.715 15,-15 0,-8.285 -6.715,-15 -15,-15 h -20 c -8.285,0 -15,6.715 -15,15 0,8.285 6.715,15 15,15 h 20" /><path
         id="path52"
         style="fill:#e1e3cc;fill-opacity:1;fill-rule:nonzero;stroke:none"
         d="m 240.488,487.715 c 4.145,-7.176 1.688,-16.348 -5.488,-20.492 -7.176,-4.141 -16.348,-1.684 -20.488,5.492 l -10,17.32 c -4.145,7.176 -1.688,16.348 5.488,20.492 7.176,4.141 16.348,1.684 20.488,-5.492 l 10,-17.32" /><path
         id="path54"
         style="fill:#e1e3cc;fill-opacity:1;fill-rule:nonzero;stroke:none"
         d="m 487.715,399.512 c -7.176,-4.145 -16.348,-1.688 -20.492,5.488 -4.141,7.176 -1.684,16.348 5.492,20.488 l 17.32,10 c 7.176,4.145 16.348,1.688 20.492,-5.488 4.141,-7.176 1.684,-16.348 -5.492,-20.488 l -17.32,-10" /><path
         id="path56"
         style="fill:#e1e3cc;fill-opacity:1;fill-rule:nonzero;stroke:none"
         d="m 152.285,240.488 c 7.176,4.145 16.348,1.688 20.492,-5.488 4.141,-7.176 1.684,-16.348 -5.492,-20.488 l -17.32,-10 c -7.176,-4.145 -16.348,-1.688 -20.492,5.488 -4.141,7.176 -1.684,16.348 5.492,20.488 l 17.32,10" /><path
         id="path58"
         style="fill:#e1e3cc;fill-opacity:1;fill-rule:nonzero;stroke:none"
         d="m 167.285,425.488 c 7.176,-4.14 9.633,-13.312 5.492,-20.488 -4.144,-7.176 -13.316,-9.633 -20.492,-5.488 l -17.32,10 c -7.176,4.14 -9.633,13.312 -5.492,20.488 4.144,7.176 13.316,9.633 20.492,5.488 l 17.32,-10" /><path
         id="path60"
         style="fill:#e1e3cc;fill-opacity:1;fill-rule:nonzero;stroke:none"
         d="m 472.715,214.512 c -7.176,4.14 -9.633,13.312 -5.492,20.488 4.144,7.176 13.316,9.633 20.492,5.488 l 17.32,-10 c 7.176,-4.14 9.633,-13.312 5.492,-20.488 -4.144,-7.176 -13.316,-9.633 -20.492,-5.488 l -17.32,10" /><path
         id="path62"
         style="fill:#e1e3cc;fill-opacity:1;fill-rule:nonzero;stroke:none"
         d="m 425.488,472.715 c -4.14,-7.176 -13.312,-9.633 -20.488,-5.492 -7.176,4.144 -9.633,13.316 -5.488,20.492 l 10,17.32 c 4.14,7.176 13.312,9.633 20.488,5.492 7.176,-4.144 9.633,-13.316 5.488,-20.492 l -10,-17.32" /></g></g></svg>