<?xml version="1.0" encoding="UTF-8" standalone="no"?>
<svg
   xmlns:dc="http://purl.org/dc/elements/1.1/"
   xmlns:cc="http://creativecommons.org/ns#"
   xmlns:rdf="http://www.w3.org/1999/02/22-rdf-syntax-ns#"
   xmlns:svg="http://www.w3.org/2000/svg"
   xmlns="http://www.w3.org/2000/svg"
   viewBox="0 0 85.333336 85.333336"
   height="85.333336"
   width="85.333336"
   xml:space="preserve"
   id="svg2"
   version="1.1"><metadata
     id="metadata8"><rdf:RDF><cc:Work
         rdf:about=""><dc:format>image/svg+xml</dc:format><dc:type
           rdf:resource="http://purl.org/dc/dcmitype/StillImage" /></cc:Work></rdf:RDF></metadata><defs
     id="defs6" /><g
     transform="matrix(1.3333333,0,0,-1.3333333,0,85.333333)"
     id="g10"><g
       transform="scale(0.1)"
       id="g12"><path
         id="path14"
         style="fill:#77caa9;fill-opacity:1;fill-rule:nonzero;stroke:none"
         d="M 640,320 C 640,143.27 496.73,0 320,0 143.27,0 0,143.27 0,320 0,496.73 143.27,640 320,640 496.73,640 640,496.73 640,320" /><path
         id="path16"
         style="fill:#62a48d;fill-opacity:1;fill-rule:nonzero;stroke:none"
         d="m 439.598,120 c -7.723,0 -16.453,3.719 -23.473,10.738 l -35.355,35.356 -7.071,7.07 -59.918,59.914 c 4.422,2.711 9.098,5.891 14.055,9.586 l 52.934,-52.934 20.785,20.786 -50.977,50.972 v 0 l 50.977,-50.972 41.566,41.57 -51.043,51.039 v 0 l 51.043,-51.039 8.965,8.965 4.75,-4.75 7.07,-7.071 35.356,-35.355 c 11.715,-11.715 14.234,-28.191 5.625,-36.801 L 452.926,125.113 C 449.477,121.66 444.762,120 439.598,120 m -186.516,173.781 -67.98,67.977 -28.856,84.281 -14.426,42.141 42.141,-14.426 45.602,-15.613 -37.817,-37.817 89.742,-89.746 v 0 l -75.601,75.606 -20.785,-20.786 77.562,-77.562 c -3.691,-4.957 -6.875,-9.637 -9.582,-14.055 m 70.043,78.301 -82.152,82.148 9.66,-3.304 -3.176,-3.176 75.668,-75.668 v 0" /><path
         id="path18"
         style="fill:#c84755;fill-opacity:1;fill-rule:nonzero;stroke:none"
         d="m 373.699,196.801 c -11.719,11.719 -14.234,28.191 -5.625,36.801 l 51.961,51.961 c 8.61,8.609 25.086,6.093 36.801,-5.625 l 42.426,-42.426 c 11.715,-11.715 14.234,-28.192 5.625,-36.801 L 452.926,148.75 c -8.61,-8.609 -25.086,-6.09 -36.801,5.625 l -42.426,42.426" /><path
         id="path20"
         style="fill:#e08e4c;fill-opacity:1;fill-rule:nonzero;stroke:none"
         d="M 247.457,447.75 268.238,468.535 463.906,272.867 443.121,252.086 247.457,447.75" /><path
         id="path22"
         style="fill:#e08e4c;fill-opacity:1;fill-rule:nonzero;stroke:none"
         d="m 191.746,420.324 41.567,41.567 209.808,-209.805 -41.566,-41.57 -209.809,209.808" /><path
         id="path24"
         style="fill:#e08e4c;fill-opacity:1;fill-rule:nonzero;stroke:none"
         d="M 185.102,385.398 205.887,406.184 401.555,210.516 380.77,189.73 185.102,385.398" /><path
         id="path26"
         style="fill:#495672;fill-opacity:1;fill-rule:nonzero;stroke:none"
         d="m 141.82,511.82 14.426,-42.14 27.715,27.711 z" /><path
         id="path28"
         style="fill:#f3cc70;fill-opacity:1;fill-rule:nonzero;stroke:none"
         d="m 268.238,468.535 -84.277,28.856 -27.715,-27.711 28.856,-84.282 10.394,10.391 24.531,-3.75 -7.5,49.07 49.071,-7.5 -3.75,24.532 10.39,10.394" /><path
         id="path30"
         style="fill:#62a48d;fill-opacity:1;fill-rule:nonzero;stroke:none"
         d="m 183.359,132.613 c -27.882,0 -52.836,6.965 -63.359,17.489 30,19.898 37.332,47.836 44.945,70.148 3.961,11.605 9.258,22.344 18.938,32.02 13.512,13.511 33.289,21.148 52.398,21.148 2.258,0 4.508,-0.109 6.739,-0.324 2.101,6.199 5.378,13.054 10.062,20.687 l 60.699,-60.703 c -7.683,-4.715 -14.59,-8.012 -20.82,-10.109 1.426,-14.813 -1.844,-30.512 -9.246,-43.797 -3.133,-5.617 -6.957,-10.805 -11.445,-15.289 -22.461,-22.461 -57.543,-31.27 -88.911,-31.27" /><path
         id="path32"
         style="fill:#538777;fill-opacity:1;fill-rule:nonzero;stroke:none"
         d="m 313.781,233.078 -60.699,60.703 c 2.707,4.418 5.891,9.098 9.582,14.055 l 65.172,-65.172 c -4.957,-3.695 -9.633,-6.875 -14.055,-9.586" /><path
         id="path34"
         style="fill:#62a48d;fill-opacity:1;fill-rule:nonzero;stroke:none"
         d="m 411.586,325.188 -66.398,66.398 c 55.703,47.617 119.007,90.012 144.66,90.012 3.82,0 6.804,-0.942 8.804,-2.942 15.45,-15.449 -32.359,-89.476 -87.066,-153.468" /><path
         id="path36"
         style="fill:#538777;fill-opacity:1;fill-rule:nonzero;stroke:none"
         d="m 350.578,261.488 -69.09,69.09 v 0 l 69.09,-69.09 v 0 m 41.5,41.637 -68.953,68.957 v 0 l 68.953,-68.957 v 0" /><path
         id="path38"
         style="fill:#b77744;fill-opacity:1;fill-rule:nonzero;stroke:none"
         d="m 392.078,303.125 -68.953,68.957 c 7.145,6.535 14.531,13.066 22.063,19.504 l 66.398,-66.398 c -6.438,-7.532 -12.969,-14.918 -19.508,-22.063" /><path
         id="path40"
         style="fill:#b77744;fill-opacity:1;fill-rule:nonzero;stroke:none"
         d="m 350.578,261.488 -69.09,69.09 c 5.492,6.094 11.614,12.524 18.422,19.332 7.305,7.305 15.098,14.742 23.215,22.172 l 68.953,-68.957 c -7.426,-8.113 -14.863,-15.91 -22.168,-23.215 -6.805,-6.805 -13.238,-12.93 -19.332,-18.422" /><path
         id="path42"
         style="fill:#b77744;fill-opacity:1;fill-rule:nonzero;stroke:none"
         d="m 327.836,242.664 -65.172,65.172 c 5.215,6.996 11.449,14.559 18.824,22.742 l 69.09,-69.09 c -8.18,-7.375 -15.742,-13.609 -22.742,-18.824" /><path
         id="path44"
         style="fill:#f3cc70;fill-opacity:1;fill-rule:nonzero;stroke:none"
         d="M 299.91,369.91 C 231.57,301.57 231.836,270.496 251.168,251.168 270.496,231.836 301.57,231.57 369.91,299.91 438.254,368.254 517.984,479.324 498.652,498.652 479.324,517.984 368.254,438.254 299.91,369.91" /><path
         id="path46"
         style="fill:#c84755;fill-opacity:1;fill-rule:nonzero;stroke:none"
         d="m 120,170.102 c 22.363,-22.368 109.844,-28.645 152.27,13.781 4.488,4.484 8.312,9.672 11.445,15.289 -66.375,1.98 -101.453,24.078 -118.77,41.078 C 157.332,217.938 150,190 120,170.102" /><path
         id="path48"
         style="fill:#495672;fill-opacity:1;fill-rule:nonzero;stroke:none"
         d="m 277.574,277.574 c -24.406,24.406 -69.285,19.106 -93.691,-5.304 -9.68,-9.676 -14.977,-20.415 -18.938,-32.02 17.317,-17 51.305,-69.418 118.77,-41.078 13.894,24.933 13.781,58.48 -6.141,78.402" /><path
         id="path50"
         style="fill:#c84755;fill-opacity:1;fill-rule:nonzero;stroke:none"
         d="m 164.945,240.25 c 0,0 40.219,7.641 59.383,-20.59 19.168,-28.226 59.387,-20.488 59.387,-20.488 l -52.047,-28.754 -52.086,37.914 -14.637,31.918" /></g></g></svg>