<?xml version="1.0" encoding="UTF-8" standalone="no"?>
<svg
   xmlns:dc="http://purl.org/dc/elements/1.1/"
   xmlns:cc="http://creativecommons.org/ns#"
   xmlns:rdf="http://www.w3.org/1999/02/22-rdf-syntax-ns#"
   xmlns:svg="http://www.w3.org/2000/svg"
   xmlns="http://www.w3.org/2000/svg"
   viewBox="0 0 85.333336 85.333336"
   height="85.333336"
   width="85.333336"
   xml:space="preserve"
   id="svg2"
   version="1.1"><metadata
     id="metadata8"><rdf:RDF><cc:Work
         rdf:about=""><dc:format>image/svg+xml</dc:format><dc:type
           rdf:resource="http://purl.org/dc/dcmitype/StillImage" /></cc:Work></rdf:RDF></metadata><defs
     id="defs6" /><g
     transform="matrix(1.3333333,0,0,-1.3333333,0,85.333333)"
     id="g10"><g
       transform="scale(0.1)"
       id="g12"><path
         id="path14"
         style="fill:#495672;fill-opacity:1;fill-rule:nonzero;stroke:none"
         d="M 638.332,320 C 638.332,143.27 495.066,0 318.332,0 141.602,0 -1.66797,143.27 -1.66797,320 c 0,176.73 143.26997,320 319.99997,320 176.734,0 320,-143.27 320,-320" /><path
         id="path16"
         style="fill:#404a5f;fill-opacity:1;fill-rule:nonzero;stroke:none"
         d="m 440,230 c -11.047,0 -20,8.953 -20,20 0,11.047 8.953,20 20,20 11.047,0 20,-8.953 20,-20 0,-11.047 -8.953,-20 -20,-20" /><path
         id="path18"
         style="fill:#404a5f;fill-opacity:1;fill-rule:nonzero;stroke:none"
         d="m 440,110 c -11.047,0 -20,8.953 -20,20 0,11.047 8.953,20 20,20 11.047,0 20,-8.953 20,-20 0,-11.047 -8.953,-20 -20,-20" /><path
         id="path20"
         style="fill:#404a5f;fill-opacity:1;fill-rule:nonzero;stroke:none"
         d="m 200,320 c -11.047,0 -20,8.953 -20,20 v 40 h -40 c -11.047,0 -20,8.953 -20,20 0,11.047 8.953,20 20,20 h 40 v 40 c 0,11.047 8.953,20 20,20 11.047,0 20,-8.953 20,-20 v -40 h 40 c 11.047,0 20,-8.953 20,-20 0,-11.047 -8.953,-20 -20,-20 h -40 v -40 c 0,-11.047 -8.953,-20 -20,-20" /><path
         id="path22"
         style="fill:#404a5f;fill-opacity:1;fill-rule:nonzero;stroke:none"
         d="M 500,380 H 380 c -11.047,0 -20,8.953 -20,20 0,11.047 8.953,20 20,20 h 120 c 11.047,0 20,-8.953 20,-20 0,-11.047 -8.953,-20 -20,-20" /><path
         id="path24"
         style="fill:#404a5f;fill-opacity:1;fill-rule:nonzero;stroke:none"
         d="M 500,170 H 380 c -11.047,0 -20,8.953 -20,20 0,11.047 8.953,20 20,20 h 120 c 11.047,0 20,-8.953 20,-20 0,-11.047 -8.953,-20 -20,-20" /><path
         id="path26"
         style="fill:#404a5f;fill-opacity:1;fill-rule:nonzero;stroke:none"
         d="m 254.141,105.859 c -5.118,0 -10.235,1.954 -14.141,5.856 l -40,40 -40,-40 c -3.906,-3.902 -9.023,-5.856 -14.141,-5.856 -5.121,0 -10.238,1.954 -14.144,5.856 -7.809,7.812 -7.809,20.476 0,28.285 l 40,40 -40,40 c -7.809,7.809 -7.809,20.473 0,28.285 3.906,3.903 9.023,5.856 14.144,5.856 5.118,0 10.235,-1.953 14.141,-5.856 l 40,-40 40,40 c 3.906,3.903 9.023,5.856 14.141,5.856 5.121,0 10.238,-1.953 14.144,-5.856 7.809,-7.812 7.809,-20.476 0,-28.285 l -40,-40 40,-40 c 7.809,-7.809 7.809,-20.473 0,-28.285 -3.906,-3.902 -9.023,-5.856 -14.144,-5.856" /><path
         id="path28"
         style="fill:#e1e3cc;fill-opacity:1;fill-rule:nonzero;stroke:none"
         d="m 460,270 c 0,11.047 -8.953,20 -20,20 -11.047,0 -20,-8.953 -20,-20 0,-11.047 8.953,-20 20,-20 11.047,0 20,8.953 20,20" /><path
         id="path30"
         style="fill:#e1e3cc;fill-opacity:1;fill-rule:nonzero;stroke:none"
         d="m 460,150 c 0,11.047 -8.953,20 -20,20 -11.047,0 -20,-8.953 -20,-20 0,-11.047 8.953,-20 20,-20 11.047,0 20,8.953 20,20" /><path
         id="path32"
         style="fill:#f3cc70;fill-opacity:1;fill-rule:nonzero;stroke:none"
         d="m 280,420 c 0,-11.047 -8.953,-20 -20,-20 H 140 c -11.047,0 -20,8.953 -20,20 0,11.047 8.953,20 20,20 h 120 c 11.047,0 20,-8.953 20,-20" /><path
         id="path34"
         style="fill:#e08e4c;fill-opacity:1;fill-rule:nonzero;stroke:none"
         d="m 520,420 c 0,-11.047 -8.953,-20 -20,-20 H 380 c -11.047,0 -20,8.953 -20,20 0,11.047 8.953,20 20,20 h 120 c 11.047,0 20,-8.953 20,-20" /><path
         id="path36"
         style="fill:#f3cc70;fill-opacity:1;fill-rule:nonzero;stroke:none"
         d="m 200,340 c -11.047,0 -20,8.953 -20,20 v 120 c 0,11.047 8.953,20 20,20 11.047,0 20,-8.953 20,-20 V 360 c 0,-11.047 -8.953,-20 -20,-20" /><path
         id="path38"
         style="fill:#e1e3cc;fill-opacity:1;fill-rule:nonzero;stroke:none"
         d="m 520,210 c 0,-11.047 -8.953,-20 -20,-20 H 380 c -11.047,0 -20,8.953 -20,20 0,11.047 8.953,20 20,20 h 120 c 11.047,0 20,-8.953 20,-20" /><path
         id="path40"
         style="fill:#77caa9;fill-opacity:1;fill-rule:nonzero;stroke:none"
         d="m 268.285,131.715 c -7.812,-7.809 -20.472,-7.809 -28.285,0 L 131.715,240 c -7.809,7.809 -7.809,20.473 0,28.285 7.812,7.809 20.476,7.809 28.285,0 L 268.285,160 c 7.809,-7.809 7.809,-20.473 0,-28.285" /><path
         id="path42"
         style="fill:#77caa9;fill-opacity:1;fill-rule:nonzero;stroke:none"
         d="m 131.715,131.715 c -7.809,7.812 -7.809,20.476 0,28.285 L 240,268.285 c 7.813,7.809 20.473,7.809 28.285,0 7.809,-7.812 7.809,-20.476 0,-28.285 L 160,131.715 c -7.809,-7.809 -20.473,-7.809 -28.285,0" /></g></g></svg>