<?xml version="1.0" encoding="UTF-8" standalone="no"?>
<svg
   xmlns:dc="http://purl.org/dc/elements/1.1/"
   xmlns:cc="http://creativecommons.org/ns#"
   xmlns:rdf="http://www.w3.org/1999/02/22-rdf-syntax-ns#"
   xmlns:svg="http://www.w3.org/2000/svg"
   xmlns="http://www.w3.org/2000/svg"
   viewBox="0 0 85.333336 85.333336"
   height="85.333336"
   width="85.333336"
   xml:space="preserve"
   id="svg2"
   version="1.1"><metadata
     id="metadata8"><rdf:RDF><cc:Work
         rdf:about=""><dc:format>image/svg+xml</dc:format><dc:type
           rdf:resource="http://purl.org/dc/dcmitype/StillImage" /></cc:Work></rdf:RDF></metadata><defs
     id="defs6" /><g
     transform="matrix(1.3333333,0,0,-1.3333333,0,85.333333)"
     id="g10"><g
       transform="scale(0.1)"
       id="g12"><path
         id="path14"
         style="fill:#7db6d8;fill-opacity:1;fill-rule:nonzero;stroke:none"
         d="M 640,320 C 640,143.27 496.73,0 320,0 143.27,0 0,143.27 0,320 0,496.73 143.27,640 320,640 496.73,640 640,496.73 640,320" /><path
         id="path16"
         style="fill:#6594b2;fill-opacity:1;fill-rule:nonzero;stroke:none"
         d="M 480,100 H 160 c -22.094,0 -40,17.91 -40,40 V 390 160 c 0,-22.09 17.906,-40 40,-40 h 320 c 22.094,0 40,17.91 40,40 v -20 c 0,-22.09 -17.906,-40 -40,-40" /><path
         id="path18"
         style="fill:#ffffff;fill-opacity:1;fill-rule:nonzero;stroke:none"
         d="M 120,410 V 160 c 0,-22.09 17.906,-40 40,-40 h 320 c 22.094,0 40,17.91 40,40 V 410 H 120" /><path
         id="path20"
         style="fill:#d4d3d1;fill-opacity:1;fill-rule:nonzero;stroke:none"
         d="m 120,390 h 400 v 20 H 120 Z" /><path
         id="path22"
         style="fill:#c84755;fill-opacity:1;fill-rule:nonzero;stroke:none"
         d="M 480,520 H 160 c -22.094,0 -40,-17.906 -40,-40 v -70 h 400 v 70 c 0,22.094 -17.906,40 -40,40" /><path
         id="path24"
         style="fill:#495672;fill-opacity:1;fill-rule:nonzero;stroke:none"
         d="m 320,160 c -11.047,0 -20,8.953 -20,20 0,55.145 17.566,94.551 34.91,120 H 270 c -11.047,0 -20,8.953 -20,20 0,11.047 8.953,20 20,20 h 110 c 8.711,0 16.418,-5.637 19.059,-13.937 2.64,-8.297 -0.391,-17.352 -7.496,-22.379 C 389.566,302.219 340,265.066 340,180 c 0,-11.047 -8.953,-20 -20,-20" /><path
         id="path26"
         style="fill:#6594b2;fill-opacity:1;fill-rule:nonzero;stroke:none"
         d="m 220,520 h -40 c 0,11.047 8.953,20 20,20 11.047,0 20,-8.953 20,-20" /><path
         id="path28"
         style="fill:#a43f4a;fill-opacity:1;fill-rule:nonzero;stroke:none"
         d="m 200,430 c -11.047,0 -20,8.953 -20,20 v 70 0 h 40 v 0 -70 c 0,-11.047 -8.953,-20 -20,-20" /><path
         id="path30"
         style="fill:#6594b2;fill-opacity:1;fill-rule:nonzero;stroke:none"
         d="m 470,520 h -40 c 0,11.047 8.953,20 20,20 11.047,0 20,-8.953 20,-20" /><path
         id="path32"
         style="fill:#a43f4a;fill-opacity:1;fill-rule:nonzero;stroke:none"
         d="m 450,430 c -11.047,0 -20,8.953 -20,20 v 70 0 h 40 v 0 -70 c 0,-11.047 -8.953,-20 -20,-20" /><path
         id="path34"
         style="fill:#e1e3cc;fill-opacity:1;fill-rule:nonzero;stroke:none"
         d="m 200,450 c -11.047,0 -20,8.953 -20,20 v 70 c 0,11.047 8.953,20 20,20 11.047,0 20,-8.953 20,-20 v -70 c 0,-11.047 -8.953,-20 -20,-20" /><path
         id="path36"
         style="fill:#e1e3cc;fill-opacity:1;fill-rule:nonzero;stroke:none"
         d="m 450,450 c -11.047,0 -20,8.953 -20,20 v 70 c 0,11.047 8.953,20 20,20 11.047,0 20,-8.953 20,-20 v -70 c 0,-11.047 -8.953,-20 -20,-20" /></g></g></svg>