<?xml version="1.0" encoding="UTF-8" standalone="no"?>
<svg
   xmlns:dc="http://purl.org/dc/elements/1.1/"
   xmlns:cc="http://creativecommons.org/ns#"
   xmlns:rdf="http://www.w3.org/1999/02/22-rdf-syntax-ns#"
   xmlns:svg="http://www.w3.org/2000/svg"
   xmlns="http://www.w3.org/2000/svg"
   viewBox="0 0 85.333336 85.333336"
   height="85.333336"
   width="85.333336"
   xml:space="preserve"
   id="svg2"
   version="1.1"><metadata
     id="metadata8"><rdf:RDF><cc:Work
         rdf:about=""><dc:format>image/svg+xml</dc:format><dc:type
           rdf:resource="http://purl.org/dc/dcmitype/StillImage" /></cc:Work></rdf:RDF></metadata><defs
     id="defs6" /><g
     transform="matrix(1.3333333,0,0,-1.3333333,0,85.333333)"
     id="g10"><g
       transform="scale(0.1)"
       id="g12"><path
         id="path14"
         style="fill:#e08e4c;fill-opacity:1;fill-rule:nonzero;stroke:none"
         d="M 640,320 C 640,143.27 496.73,0 320,0 143.27,0 0,143.27 0,320 0,496.73 143.27,640 320,640 496.73,640 640,496.73 640,320" /><path
         id="path16"
         style="fill:#b77744;fill-opacity:1;fill-rule:nonzero;stroke:none"
         d="M 495,150 H 145 c -13.801,0 -25,11.945 -25,26.668 V 390 390 196.668 C 120,181.945 131.199,170 145,170 h 350 c 13.801,0 25,11.945 25,26.668 v -20 C 520,161.945 508.801,150 495,150" /><path
         id="path18"
         style="fill:#495672;fill-opacity:1;fill-rule:nonzero;stroke:none"
         d="m 495,440 h -50 c 0,0 -14.449,-3.332 -25,23.336 C 414.625,476.906 408.801,490 395,490 H 295 C 281.199,490 275.199,476.988 270,463.336 259.852,436.668 245,440 245,440 h -25 c 0,14.719 -11.199,20 -25,20 h -25 c -13.801,0 -25,-5.281 -25,-20 -13.801,0 -25,-15.281 -25,-30 V 196.668 C 120,181.945 131.199,170 145,170 h 350 c 13.801,0 25,11.945 25,26.668 V 410 c 0,14.719 -11.199,30 -25,30" /><path
         id="path20"
         style="fill:#7db6d8;fill-opacity:1;fill-rule:nonzero;stroke:none"
         d="m 430,310 c 0,-49.703 -40.293,-90 -90,-90 -49.703,0 -90,40.297 -90,90 0,49.707 40.297,90 90,90 49.707,0 90,-40.293 90,-90" /><path
         id="path22"
         style="fill:#404a5f;fill-opacity:1;fill-rule:nonzero;stroke:none"
         d="m 340,180 c -60.652,0 -110,49.348 -110,110 0,60.629 49.309,109.957 109.926,110 C 290.254,399.961 250,359.68 250,310 c 0,-49.687 40.262,-89.969 89.941,-90 0.02,0 0.039,0 0.059,0 0.02,0 0.039,0 0.059,0 49.679,0.031 89.941,40.313 89.941,90 0,49.68 -40.254,89.961 -89.926,90 C 400.691,399.957 450,350.629 450,290 450,229.348 400.652,180 340,180" /><path
         id="path24"
         style="fill:#6594b2;fill-opacity:1;fill-rule:nonzero;stroke:none"
         d="m 340.059,220 c 38.566,0.031 69.941,31.426 69.941,70 0,38.594 -31.406,70 -70,70 -38.594,0 -70,-31.406 -70,-70 0,-38.574 31.375,-69.969 69.941,-70 -49.679,0.031 -89.941,40.313 -89.941,90 0,49.68 40.254,89.961 89.926,90 0.027,0 0.047,0 0.074,0 0.027,0 0.047,0 0.074,0 49.672,-0.039 89.926,-40.32 89.926,-90 0,-49.687 -40.262,-89.969 -89.941,-90" /><path
         id="path26"
         style="fill:#ffffff;fill-opacity:1;fill-rule:nonzero;stroke:none"
         d="m 340,385 c -41.355,0 -75,-33.645 -75,-75 0,-41.355 33.645,-75 75,-75 41.355,0 75,33.645 75,75 0,41.355 -33.645,75 -75,75 z m 0,-180 c -57.898,0 -105,47.102 -105,105 0,57.898 47.102,105 105,105 57.898,0 105,-47.102 105,-105 0,-57.898 -47.102,-105 -105,-105" /></g></g></svg>