<?xml version="1.0" encoding="UTF-8" standalone="no"?>
<svg
   xmlns:dc="http://purl.org/dc/elements/1.1/"
   xmlns:cc="http://creativecommons.org/ns#"
   xmlns:rdf="http://www.w3.org/1999/02/22-rdf-syntax-ns#"
   xmlns:svg="http://www.w3.org/2000/svg"
   xmlns="http://www.w3.org/2000/svg"
   viewBox="0 0 85.333336 85.333336"
   height="85.333336"
   width="85.333336"
   xml:space="preserve"
   id="svg2"
   version="1.1"><metadata
     id="metadata8"><rdf:RDF><cc:Work
         rdf:about=""><dc:format>image/svg+xml</dc:format><dc:type
           rdf:resource="http://purl.org/dc/dcmitype/StillImage" /></cc:Work></rdf:RDF></metadata><defs
     id="defs6" /><g
     transform="matrix(1.3333333,0,0,-1.3333333,0,85.333333)"
     id="g10"><g
       transform="scale(0.1)"
       id="g12"><path
         id="path14"
         style="fill:#e1e3cc;fill-opacity:1;fill-rule:nonzero;stroke:none"
         d="M 640,320 C 640,143.27 496.73,0 320,0 143.27,0 0,143.27 0,320 0,496.73 143.27,640 320,640 496.73,640 640,496.73 640,320" /><path
         id="path16"
         style="fill:#b7b7a7;fill-opacity:1;fill-rule:nonzero;stroke:none"
         d="m 180,120 h -20 c -11.047,0 -20,8.953 -20,20 v 23.426 0 V 160 c 0,-11.047 8.953,-20 20,-20 h 20 c 11.047,0 20,8.953 20,20 v 0 -20 c 0,-11.047 -8.953,-20 -20,-20" /><path
         id="path18"
         style="fill:#b7b7a7;fill-opacity:1;fill-rule:nonzero;stroke:none"
         d="m 480,120 h -20 c -11.047,0 -20,8.953 -20,20 v 20 c 0,-11.047 8.953,-20 20,-20 h 20 c 11.047,0 20,8.953 20,20 v -20 c 0,-11.047 -8.953,-20 -20,-20" /><path
         id="path20"
         style="fill:#495672;fill-opacity:1;fill-rule:nonzero;stroke:none"
         d="m 200,160 c 0,-11.047 -8.953,-20 -20,-20 h -20 c -11.047,0 -20,8.953 -20,20 v 110 c 0,11.047 8.953,20 20,20 h 20 c 11.047,0 20,-8.953 20,-20 V 160" /><path
         id="path22"
         style="fill:#495672;fill-opacity:1;fill-rule:nonzero;stroke:none"
         d="m 500,160 c 0,-11.047 -8.953,-20 -20,-20 h -20 c -11.047,0 -20,8.953 -20,20 v 110 c 0,11.047 8.953,20 20,20 h 20 c 11.047,0 20,-8.953 20,-20 V 160" /><path
         id="path24"
         style="fill:#b7b7a7;fill-opacity:1;fill-rule:nonzero;stroke:none"
         d="M 140.094,326.605 C 140.031,327.73 140,328.859 140,330 l 0.391,3.922 0.816,4.066 c 0.707,-3.484 1.719,-6.859 3,-10.097 -1.391,-0.379 -2.762,-0.809 -4.113,-1.286 m 359.812,0 c -1.351,0.477 -2.722,0.907 -4.113,1.286 1.172,2.961 2.117,6.039 2.812,9.211 L 500,330 c 0,-1.141 -0.031,-2.27 -0.094,-3.395 m -317.437,13.754 c -1.328,2.399 -2.168,5.09 -2.403,7.996 l 19.418,97.083 c 2.106,7.656 5.637,14.8 9.305,18.89 1.879,2.141 3.672,3.508 5.363,4.356 1.715,0.836 3.344,1.293 5.848,1.316 h 200 c 2.504,-0.023 4.133,-0.48 5.848,-1.316 2.504,-1.235 5.39,-3.801 8.14,-8.075 2.641,-4.062 4.957,-9.515 6.535,-15.203 l 19.411,-97.051 c -0.235,-2.906 -1.075,-5.597 -2.403,-7.996 l -17.004,85.032 C 438.328,433.258 432.219,450 420,450 H 220 c -12.219,0 -18.328,-16.742 -20.527,-24.609 l -17.004,-85.032" /><path
         id="path26"
         style="fill:#c84755;fill-opacity:1;fill-rule:nonzero;stroke:none"
         d="m 480,350 h -20 c -0.012,-5.586 -2.207,-10.461 -5.859,-14.141 C 450.461,332.207 445.586,330.012 440,330 H 200 c -5.586,0.012 -10.461,2.207 -14.141,5.859 -3.652,3.68 -5.847,8.555 -5.859,14.141 h -20 l 19.609,-3.922 20.004,100 L 180,450 l 19.309,-5.211 c 2.082,7.902 5.711,15.336 9.48,19.539 1.879,2.141 3.672,3.508 5.363,4.356 1.715,0.836 3.344,1.293 5.848,1.316 h 200 c 2.504,-0.023 4.133,-0.48 5.848,-1.316 2.504,-1.235 5.39,-3.801 8.14,-8.075 2.735,-4.211 5.121,-9.914 6.703,-15.82 L 460,450 l -19.613,-3.922 20,-100 L 480,350 h -20 20 l 19.609,3.922 -20.129,100.652 -0.171,0.637 c -3.317,12.102 -8.641,24.668 -18,35.465 -4.688,5.355 -10.496,10.242 -17.536,13.765 -7.011,3.543 -15.23,5.582 -23.773,5.559 H 220 c -8.543,0.023 -16.762,-2.016 -23.773,-5.559 -10.59,-5.328 -18.274,-13.539 -23.832,-22.156 -5.579,-8.68 -9.239,-17.98 -11.704,-27.074 L 160.52,454.578 140,351.98 V 350 c 0.012,-33.145 26.855,-59.988 60,-60 h 240 c 33.145,0.012 59.984,26.855 60,60 v 1.98 l -0.391,1.942 L 480,350" /><path
         id="path28"
         style="fill:#b7b7a7;fill-opacity:1;fill-rule:nonzero;stroke:none"
         d="M 440,200 H 200 v 70 h 240 v -20 0 -50" /><path
         id="path30"
         style="fill:#404a5f;fill-opacity:1;fill-rule:nonzero;stroke:none"
         d="m 200,200 h -40 c -11.031,0 -20,8.969 -20,20 v 50 c 0,9.566 6.746,17.578 15.73,19.543 C 166.707,277.539 182.488,270 200,270 v -70" /><path
         id="path32"
         style="fill:#404a5f;fill-opacity:1;fill-rule:nonzero;stroke:none"
         d="m 480,200 h -40 v 70 c 17.512,0 33.293,7.539 44.27,19.543 C 493.254,287.578 500,279.566 500,270 v -50 c 0,-11.031 -8.969,-20 -20,-20" /><path
         id="path34"
         style="fill:#97978c;fill-opacity:1;fill-rule:nonzero;stroke:none"
         d="M 440,270 H 200 v 0 c 0,11.047 -8.953,20 -20,20 h 280 c -11.047,0 -20,-8.953 -20,-20 v 0" /><path
         id="path36"
         style="fill:#394051;fill-opacity:1;fill-rule:nonzero;stroke:none"
         d="m 200,270 c -17.512,0 -33.293,7.539 -44.27,19.543 1.375,0.301 2.805,0.457 4.27,0.457 h 20 c 11.047,0 20,-8.953 20,-20 v 0" /><path
         id="path38"
         style="fill:#394051;fill-opacity:1;fill-rule:nonzero;stroke:none"
         d="m 440,270 v 0 c 0,11.047 8.953,20 20,20 h 20 c 1.465,0 2.895,-0.156 4.27,-0.457 C 473.293,277.539 457.512,270 440,270" /><path
         id="path40"
         style="fill:#b7b7a7;fill-opacity:1;fill-rule:nonzero;stroke:none"
         d="M 440,160 H 200 v 0 40 h 240 v -40 m 60,3.426 V 220 v 0 50 0 c 0,9.578 -6.734,17.586 -15.727,19.543 9.047,9.895 14.832,22.824 15.633,37.062 C 523.234,318.379 540,296.109 540,270 v -50 c 0,-26.078 -16.719,-48.32 -40,-56.574 m -360,0 C 116.719,171.68 100,193.922 100,220 v 50 c 0,26.109 16.766,48.379 40.094,56.605 0.797,-14.238 6.586,-27.167 15.633,-37.062 C 146.734,287.586 140,279.578 140,270 v -20 0 -86.574" /><path
         id="path42"
         style="fill:#404a5f;fill-opacity:1;fill-rule:nonzero;stroke:none"
         d="m 200,160 h -40 c -7.008,0 -13.742,1.207 -20,3.426 V 250 270 c 0,9.578 6.734,17.586 15.727,19.543 0.003,0 0,0 0.003,0 C 146.746,287.578 140,279.566 140,270 v -50 c 0,-11.031 8.969,-20 20,-20 h 40 v -40 0 0" /><path
         id="path44"
         style="fill:#404a5f;fill-opacity:1;fill-rule:nonzero;stroke:none"
         d="m 480,160 h -40 v 0 40 h 40 c 11.031,0 20,8.969 20,20 V 163.426 C 493.742,161.207 487.008,160 480,160 m 20,110 c 0,9.566 -6.746,17.578 -15.73,19.543 0.003,0 0,0 0.003,0 C 493.266,287.586 500,279.578 500,270 v 0" /><path
         id="path46"
         style="fill:#97978c;fill-opacity:1;fill-rule:nonzero;stroke:none"
         d="m 155.727,289.543 c -9.047,9.895 -14.836,22.824 -15.633,37.062 1.351,0.477 2.722,0.907 4.113,1.286 C 153.012,305.695 174.664,290.012 200,290 h 240 c 25.336,0.012 46.988,15.695 55.793,37.891 1.391,-0.379 2.762,-0.809 4.113,-1.286 -0.801,-14.238 -6.586,-27.167 -15.633,-37.062 C 482.895,289.844 481.465,290 480,290 h -20 v 0 H 180 v 0 h -20 c -1.465,0 -2.895,-0.156 -4.273,-0.457" /><path
         id="path48"
         style="fill:#394051;fill-opacity:1;fill-rule:nonzero;stroke:none"
         d="m 155.73,289.543 c -0.003,0 0,0 -0.003,0 1.378,0.301 2.808,0.457 4.273,0.457 h 20 v 0 h -20 c -1.465,0 -2.895,-0.156 -4.27,-0.457" /><path
         id="path50"
         style="fill:#394051;fill-opacity:1;fill-rule:nonzero;stroke:none"
         d="M 484.27,289.543 C 482.895,289.844 481.465,290 480,290 h -20 v 0 h 20 c 1.465,0 2.895,-0.156 4.273,-0.457 -0.003,0 0,0 -0.003,0" /><path
         id="path52"
         style="fill:#a43f4a;fill-opacity:1;fill-rule:nonzero;stroke:none"
         d="M 440,290 H 200 c -25.336,0.012 -46.988,15.695 -55.793,37.891 5.035,1.375 10.332,2.109 15.793,2.109 h 320 c 5.461,0 10.758,-0.734 15.793,-2.109 C 486.988,305.695 465.336,290.012 440,290" /><path
         id="path54"
         style="fill:#c84755;fill-opacity:1;fill-rule:nonzero;stroke:none"
         d="m 520,240 c 0,-22.09 -17.91,-40 -40,-40 H 160 c -22.09,0 -40,17.91 -40,40 v 50 c 0,22.09 17.91,40 40,40 h 320 c 22.09,0 40,-17.91 40,-40 v -50" /><path
         id="path56"
         style="fill:#c84755;fill-opacity:1;fill-rule:nonzero;stroke:none"
         d="m 520,240 h -20 c -0.012,-5.586 -2.207,-10.457 -5.859,-14.141 C 490.461,222.207 485.586,220.012 480,220 H 160 c -5.586,0.012 -10.461,2.207 -14.141,5.859 -3.652,3.684 -5.847,8.555 -5.859,14.141 v 50 c 0.012,5.586 2.207,10.461 5.859,14.145 3.68,3.648 8.555,5.843 14.141,5.855 h 320 c 5.586,-0.012 10.461,-2.207 14.141,-5.855 3.652,-3.684 5.847,-8.559 5.859,-14.145 v -50 h 20 20 v 50 c -0.012,33.145 -26.855,59.988 -60,60 H 160 c -33.145,-0.012 -59.988,-26.855 -60,-60 v -50 c 0.012,-33.145 26.855,-59.988 60,-60 h 320 c 33.145,0.012 59.988,26.855 60,60 h -20" /><path
         id="path58"
         style="fill:#f3cc70;fill-opacity:1;fill-rule:nonzero;stroke:none"
         d="m 210,260 c 0,-22.09 -17.91,-40 -40,-40 -22.09,0 -40,17.91 -40,40 0,22.09 17.91,40 40,40 22.09,0 40,-17.91 40,-40" /><path
         id="path60"
         style="fill:#c84755;fill-opacity:1;fill-rule:nonzero;stroke:none"
         d="m 210,260 h -10 c -0.031,-16.562 -13.437,-29.969 -30,-30 -16.566,0.031 -29.969,13.438 -30,30 0.031,16.566 13.434,29.973 30,30 16.563,-0.027 29.969,-13.434 30,-30 h 10 10 c -0.008,27.617 -22.383,49.992 -50,50 -27.617,-0.008 -49.992,-22.383 -50,-50 0.008,-27.617 22.383,-49.992 50,-50 27.617,0.008 49.992,22.383 50,50 h -10" /><path
         id="path62"
         style="fill:#f3cc70;fill-opacity:1;fill-rule:nonzero;stroke:none"
         d="m 510,260 c 0,-22.09 -17.91,-40 -40,-40 -22.09,0 -40,17.91 -40,40 0,22.09 17.91,40 40,40 22.09,0 40,-17.91 40,-40" /><path
         id="path64"
         style="fill:#c84755;fill-opacity:1;fill-rule:nonzero;stroke:none"
         d="m 510,260 h -10 c -0.031,-16.562 -13.437,-29.969 -30,-30 -16.566,0.031 -29.969,13.438 -30,30 0.031,16.566 13.434,29.973 30,30 16.563,-0.027 29.969,-13.434 30,-30 h 10 10 c -0.008,27.617 -22.383,49.992 -50,50 -27.617,-0.008 -49.992,-22.383 -50,-50 0.008,-27.617 22.383,-49.992 50,-50 27.617,0.008 49.992,22.383 50,50 h -10" /></g></g></svg>