<?xml version="1.0" encoding="UTF-8" standalone="no"?>
<svg
   xmlns:dc="http://purl.org/dc/elements/1.1/"
   xmlns:cc="http://creativecommons.org/ns#"
   xmlns:rdf="http://www.w3.org/1999/02/22-rdf-syntax-ns#"
   xmlns:svg="http://www.w3.org/2000/svg"
   xmlns="http://www.w3.org/2000/svg"
   viewBox="0 0 85.333336 85.333336"
   height="85.333336"
   width="85.333336"
   xml:space="preserve"
   id="svg2"
   version="1.1"><metadata
     id="metadata8"><rdf:RDF><cc:Work
         rdf:about=""><dc:format>image/svg+xml</dc:format><dc:type
           rdf:resource="http://purl.org/dc/dcmitype/StillImage" /></cc:Work></rdf:RDF></metadata><defs
     id="defs6" /><g
     transform="matrix(1.3333333,0,0,-1.3333333,0,85.333333)"
     id="g10"><g
       transform="scale(0.1)"
       id="g12"><path
         id="path14"
         style="fill:#e1e3cc;fill-opacity:1;fill-rule:nonzero;stroke:none"
         d="M 640,320 C 640,143.27 496.73,0 320,0 143.27,0 0,143.27 0,320 0,496.73 143.27,640 320,640 496.73,640 640,496.73 640,320" /><path
         id="path16"
         style="fill:#b7b7a7;fill-opacity:1;fill-rule:nonzero;stroke:none"
         d="M 450,140 H 190 c -16.57,0 -30,13.43 -30,30 l -37.777,170 h 4.445 L 160,190 c 0,-16.57 13.43,-30 30,-30 h 260 c 16.57,0 30,13.43 30,30 l 33.332,150 h 4.445 L 480,170 c 0,-16.57 -13.43,-30 -30,-30 m -10,70 v 40 c 0,11.047 -8.953,20 -20,20 -11.047,0 -20,-8.953 -20,-20 v 20 c 0,11.047 8.953,20 20,20 11.047,0 20,-8.953 20,-20 v -60 0 m -100,0 v 40 c 0,11.047 -8.953,20 -20,20 -11.047,0 -20,-8.953 -20,-20 v 20 c 0,11.047 8.953,20 20,20 11.047,0 20,-8.953 20,-20 v -60 0 m -100,0 v 40 c 0,11.047 -8.953,20 -20,20 -11.047,0 -20,-8.953 -20,-20 v 20 c 0,11.047 8.953,20 20,20 11.047,0 20,-8.953 20,-20 v -60 0" /><path
         id="path18"
         style="fill:#e08e4c;fill-opacity:1;fill-rule:nonzero;stroke:none"
         d="m 440,210 c 0,-11.047 -8.953,-20 -20,-20 -11.047,0 -20,8.953 -20,20 v 60 c 0,11.047 8.953,20 20,20 11.047,0 20,-8.953 20,-20 v -60 m -100,0 c 0,-11.047 -8.953,-20 -20,-20 -11.047,0 -20,8.953 -20,20 v 60 c 0,11.047 8.953,20 20,20 11.047,0 20,-8.953 20,-20 v -60 m -100,0 c 0,-11.047 -8.953,-20 -20,-20 -11.047,0 -20,8.953 -20,20 v 60 c 0,11.047 8.953,20 20,20 11.047,0 20,-8.953 20,-20 V 210 M 490,400 H 150 c -16.57,0 -30,-13.43 -30,-30 l 40,-180 c 0,-16.57 13.43,-30 30,-30 h 260 c 16.57,0 30,13.43 30,30 l 40,180 c 0,16.57 -13.43,30 -30,30" /><path
         id="path20"
         style="fill:#b7b7a7;fill-opacity:1;fill-rule:nonzero;stroke:none"
         d="M 540,340 H 517.777 L 520,350 c 0,3.508 -0.602,6.871 -1.707,10 H 540 c 7.402,0 13.867,4.023 17.324,10 1.703,-2.941 2.676,-6.355 2.676,-10 0,-11.047 -8.953,-20 -20,-20" /><path
         id="path22"
         style="fill:#97978c;fill-opacity:1;fill-rule:nonzero;stroke:none"
         d="m 517.777,340 h -4.445 l 4.445,20 h 0.516 c 1.105,-3.129 1.707,-6.492 1.707,-10 l -2.223,-10" /><path
         id="path24"
         style="fill:#b77744;fill-opacity:1;fill-rule:nonzero;stroke:none"
         d="M 513.332,340 H 339.426 l 14.808,20 h 163.543 l -4.445,-20" /><path
         id="path26"
         style="fill:#b7b7a7;fill-opacity:1;fill-rule:nonzero;stroke:none"
         d="M 122.223,340 H 100 c -11.0469,0 -20,8.953 -20,20 0,3.645 0.9727,7.059 2.6758,10 3.457,-5.977 9.9219,-10 17.3242,-10 h 21.707 C 120.602,356.871 120,353.508 120,350 l 2.223,-10" /><path
         id="path28"
         style="fill:#97978c;fill-opacity:1;fill-rule:nonzero;stroke:none"
         d="m 126.668,340 h -4.445 L 120,350 c 0,3.508 0.602,6.871 1.707,10 h 0.516 l 4.445,-20" /><path
         id="path30"
         style="fill:#b77744;fill-opacity:1;fill-rule:nonzero;stroke:none"
         d="M 290.195,340 H 126.668 l -4.445,20 h 182.785 l -14.813,-20" /><path
         id="path32"
         style="fill:#e08e4c;fill-opacity:1;fill-rule:nonzero;stroke:none"
         d="m 560,380 c 0,-11.047 -8.953,-20 -20,-20 H 100 c -11.0469,0 -20,8.953 -20,20 0,11.047 8.9531,20 20,20 h 440 c 11.047,0 20,-8.953 20,-20" /><path
         id="path34"
         style="fill:#b77744;fill-opacity:1;fill-rule:nonzero;stroke:none"
         d="m 300,300 c -5.117,0 -10.238,1.953 -14.141,5.859 -7.812,7.809 -7.812,20.473 0,28.282 l 4.336,5.859 h 49.231 L 314.141,305.859 C 310.238,301.953 305.117,300 300,300" /><path
         id="path36"
         style="fill:#b7b7a7;fill-opacity:1;fill-rule:nonzero;stroke:none"
         d="m 383.855,400 h -49.23 L 400,488.285 c 3.906,3.906 9.023,5.856 14.141,5.856 5.121,0 10.238,-1.95 14.144,-5.856 7.809,-7.812 7.809,-20.472 0,-28.285 l -44.43,-60" /><path
         id="path38"
         style="fill:#97633d;fill-opacity:1;fill-rule:nonzero;stroke:none"
         d="m 339.426,340 h -49.231 l 14.813,20 h 49.226 l -14.808,-20" /><path
         id="path40"
         style="fill:#b77744;fill-opacity:1;fill-rule:nonzero;stroke:none"
         d="m 354.234,360 h -49.226 l 29.617,40 h 49.23 l -29.621,-40" /><path
         id="path42"
         style="fill:#495672;fill-opacity:1;fill-rule:nonzero;stroke:none"
         d="m 428.285,508.285 c 7.809,-7.812 7.809,-20.472 0,-28.285 L 314.141,325.859 c -7.809,-7.812 -20.473,-7.812 -28.282,0 -7.812,7.809 -7.812,20.473 0,28.282 L 400,508.285 c 7.809,7.809 20.473,7.809 28.285,0" /></g></g></svg>