<?xml version="1.0" encoding="UTF-8" standalone="no"?>
<svg
   xmlns:dc="http://purl.org/dc/elements/1.1/"
   xmlns:cc="http://creativecommons.org/ns#"
   xmlns:rdf="http://www.w3.org/1999/02/22-rdf-syntax-ns#"
   xmlns:svg="http://www.w3.org/2000/svg"
   xmlns="http://www.w3.org/2000/svg"
   viewBox="0 0 85.333336 85.333336"
   height="85.333336"
   width="85.333336"
   xml:space="preserve"
   id="svg2"
   version="1.1"><metadata
     id="metadata8"><rdf:RDF><cc:Work
         rdf:about=""><dc:format>image/svg+xml</dc:format><dc:type
           rdf:resource="http://purl.org/dc/dcmitype/StillImage" /></cc:Work></rdf:RDF></metadata><defs
     id="defs6" /><g
     transform="matrix(1.3333333,0,0,-1.3333333,0,85.333333)"
     id="g10"><g
       transform="scale(0.1)"
       id="g12"><path
         id="path14"
         style="fill:#f3cc70;fill-opacity:1;fill-rule:nonzero;stroke:none"
         d="M 640,320 C 640,143.27 496.73,0 320,0 143.27,0 0,143.27 0,320 0,496.73 143.27,640 320,640 496.73,640 640,496.73 640,320" /><path
         id="path16"
         style="fill:#e1e3cc;fill-opacity:1;fill-rule:nonzero;stroke:none"
         d="m 540,320 c 0,-121.504 -98.496,-220 -220,-220 -121.504,0 -220,98.496 -220,220 0,121.504 98.496,220 220,220 121.504,0 220,-98.496 220,-220" /><path
         id="path18"
         style="fill:#c7a85f;fill-opacity:1;fill-rule:nonzero;stroke:none"
         d="m 320,80 c -121.504,0 -220,98.496 -220,220 0,3.352 0.074,6.684 0.223,10 C 105.453,193.141 201.848,100 320,100 438.152,100 534.547,193.141 539.777,310 539.926,306.684 540,303.352 540,300 540,178.496 441.504,80 320,80" /><path
         id="path20"
         style="fill:#b7b7a7;fill-opacity:1;fill-rule:nonzero;stroke:none"
         d="M 469.672,310 C 464.504,388.063 399.348,450 320,450 240.652,450 175.496,388.063 170.328,310 c -0.219,3.309 -0.328,6.637 -0.328,10 0,82.711 67.289,150 150,150 82.711,0 150,-67.289 150,-150 0,-3.363 -0.109,-6.691 -0.328,-10" /><path
         id="path22"
         style="fill:#495672;fill-opacity:1;fill-rule:nonzero;stroke:none"
         d="m 320,540 c -121.504,0 -220,-98.496 -220,-220 0,-121.504 98.496,-220 220,-220 121.504,0 220,98.496 220,220 0,121.504 -98.496,220 -220,220 m 0,-70 c 82.711,0 150,-67.289 150,-150 0,-82.711 -67.289,-150 -150,-150 -82.711,0 -150,67.289 -150,150 0,82.711 67.289,150 150,150" /><path
         id="path24"
         style="fill:#b7b7a7;fill-opacity:1;fill-rule:nonzero;stroke:none"
         d="m 420,310.129 c -11.047,0 -20,8.953 -20,20 0,11.043 8.953,20 20,20 11.047,0 20,-8.957 20,-20 0,-11.047 -8.953,-20 -20,-20" /><path
         id="path26"
         style="fill:#b7b7a7;fill-opacity:1;fill-rule:nonzero;stroke:none"
         d="m 320,390 c -11.047,0 -20,8.953 -20,20 0,11.047 8.953,20 20,20 11.047,0 20,-8.953 20,-20 0,-11.047 -8.953,-20 -20,-20" /><path
         id="path28"
         style="fill:#b7b7a7;fill-opacity:1;fill-rule:nonzero;stroke:none"
         d="m 220,310.129 c -11.047,0 -20,8.953 -20,20 0,11.043 8.953,20 20,20 11.047,0 20,-8.957 20,-20 0,-11.047 -8.953,-20 -20,-20" /><path
         id="path30"
         style="fill:#b7b7a7;fill-opacity:1;fill-rule:nonzero;stroke:none"
         d="m 260,200 c -11.047,0 -20,8.953 -20,20 0,11.047 8.953,20 20,20 11.047,0 20,-8.953 20,-20 0,-11.047 -8.953,-20 -20,-20" /><path
         id="path32"
         style="fill:#b7b7a7;fill-opacity:1;fill-rule:nonzero;stroke:none"
         d="m 380,200 c -11.047,0 -20,8.953 -20,20 0,11.047 8.953,20 20,20 11.047,0 20,-8.953 20,-20 0,-11.047 -8.953,-20 -20,-20" /><path
         id="path34"
         style="fill:#c84755;fill-opacity:1;fill-rule:nonzero;stroke:none"
         d="m 440,340.129 c 0,-11.047 -8.953,-20 -20,-20 -11.047,0 -20,8.953 -20,20 0,11.043 8.953,20 20,20 11.047,0 20,-8.957 20,-20" /><path
         id="path36"
         style="fill:#c84755;fill-opacity:1;fill-rule:nonzero;stroke:none"
         d="m 340,420 c 0,-11.047 -8.953,-20 -20,-20 -11.047,0 -20,8.953 -20,20 0,11.047 8.953,20 20,20 11.047,0 20,-8.953 20,-20" /><path
         id="path38"
         style="fill:#b7b7a7;fill-opacity:1;fill-rule:nonzero;stroke:none"
         d="m 320,250 c -27.613,0 -50,22.387 -50,50 0,27.613 22.387,50 50,50 27.613,0 50,-22.387 50,-50 0,-27.613 -22.387,-50 -50,-50" /><path
         id="path40"
         style="fill:#495672;fill-opacity:1;fill-rule:nonzero;stroke:none"
         d="m 370,320 c 0,-27.613 -22.387,-50 -50,-50 -27.613,0 -50,22.387 -50,50 0,27.613 22.387,50 50,50 27.613,0 50,-22.387 50,-50" /><path
         id="path42"
         style="fill:#c84755;fill-opacity:1;fill-rule:nonzero;stroke:none"
         d="m 240,340.129 c 0,-11.047 -8.953,-20 -20,-20 -11.047,0 -20,8.953 -20,20 0,11.043 8.953,20 20,20 11.047,0 20,-8.957 20,-20" /><path
         id="path44"
         style="fill:#c84755;fill-opacity:1;fill-rule:nonzero;stroke:none"
         d="m 280,230 c 0,-11.047 -8.953,-20 -20,-20 -11.047,0 -20,8.953 -20,20 0,11.047 8.953,20 20,20 11.047,0 20,-8.953 20,-20" /><path
         id="path46"
         style="fill:#c84755;fill-opacity:1;fill-rule:nonzero;stroke:none"
         d="m 400,230 c 0,-11.047 -8.953,-20 -20,-20 -11.047,0 -20,8.953 -20,20 0,11.047 8.953,20 20,20 11.047,0 20,-8.953 20,-20" /></g></g></svg>