<?xml version="1.0" encoding="UTF-8" standalone="no"?>
<svg
   xmlns:dc="http://purl.org/dc/elements/1.1/"
   xmlns:cc="http://creativecommons.org/ns#"
   xmlns:rdf="http://www.w3.org/1999/02/22-rdf-syntax-ns#"
   xmlns:svg="http://www.w3.org/2000/svg"
   xmlns="http://www.w3.org/2000/svg"
   viewBox="0 0 85.333336 85.333336"
   height="85.333336"
   width="85.333336"
   xml:space="preserve"
   id="svg2"
   version="1.1"><metadata
     id="metadata8"><rdf:RDF><cc:Work
         rdf:about=""><dc:format>image/svg+xml</dc:format><dc:type
           rdf:resource="http://purl.org/dc/dcmitype/StillImage" /></cc:Work></rdf:RDF></metadata><defs
     id="defs6" /><g
     transform="matrix(1.3333333,0,0,-1.3333333,0,85.333333)"
     id="g10"><g
       transform="scale(0.1)"
       id="g12"><path
         id="path14"
         style="fill:#c84755;fill-opacity:1;fill-rule:nonzero;stroke:none"
         d="M 640,320 C 640,143.27 496.73,0 320,0 143.27,0 0,143.27 0,320 0,496.73 143.27,640 320,640 496.73,640 640,496.73 640,320" /><path
         id="path16"
         style="fill:#a43f4a;fill-opacity:1;fill-rule:nonzero;stroke:none"
         d="M 470.461,140 H 169.539 c -44,0 -62,31.176 -40,69.281 L 280,469.883 c 11,19.055 25.5,28.582 40,28.582 14.5,0 29,-9.527 40,-28.582 L 510.461,209.281 c 22,-38.105 4,-69.281 -40,-69.281" /><path
         id="path18"
         style="fill:#f3cc70;fill-opacity:1;fill-rule:nonzero;stroke:none"
         d="m 169.539,160 c -44,0 -62,31.176 -40,69.281 L 280,489.883 c 22,38.105 58,38.105 80,0 L 510.461,229.281 c 22,-38.105 4,-69.281 -40,-69.281 H 169.539" /><path
         id="path20"
         style="fill:#495672;fill-opacity:1;fill-rule:nonzero;stroke:none"
         d="m 340,320 c 0,-11.047 -8.953,-20 -20,-20 -11.047,0 -20,8.953 -20,20 v 80 c 0,11.047 8.953,20 20,20 11.047,0 20,-8.953 20,-20 v -80" /><path
         id="path22"
         style="fill:#495672;fill-opacity:1;fill-rule:nonzero;stroke:none"
         d="m 340,240 c 0,-11.047 -8.953,-20 -20,-20 -11.047,0 -20,8.953 -20,20 0,11.047 8.953,20 20,20 11.047,0 20,-8.953 20,-20" /></g></g></svg>