<?xml version="1.0" encoding="UTF-8" standalone="no"?>
<svg
   xmlns:dc="http://purl.org/dc/elements/1.1/"
   xmlns:cc="http://creativecommons.org/ns#"
   xmlns:rdf="http://www.w3.org/1999/02/22-rdf-syntax-ns#"
   xmlns:svg="http://www.w3.org/2000/svg"
   xmlns="http://www.w3.org/2000/svg"
   viewBox="0 0 85.333336 85.333336"
   height="85.333336"
   width="85.333336"
   xml:space="preserve"
   id="svg2"
   version="1.1"><metadata
     id="metadata8"><rdf:RDF><cc:Work
         rdf:about=""><dc:format>image/svg+xml</dc:format><dc:type
           rdf:resource="http://purl.org/dc/dcmitype/StillImage" /></cc:Work></rdf:RDF></metadata><defs
     id="defs6" /><g
     transform="matrix(1.3333333,0,0,-1.3333333,0,85.333333)"
     id="g10"><g
       transform="scale(0.1)"
       id="g12"><path
         id="path14"
         style="fill:#77caa9;fill-opacity:1;fill-rule:nonzero;stroke:none"
         d="M 640,320 C 640,143.27 496.73,0 320,0 143.27,0 0,143.27 0,320 0,496.73 143.27,640 320,640 496.73,640 640,496.73 640,320" /><path
         id="path16"
         style="fill:#62a48d;fill-opacity:1;fill-rule:nonzero;stroke:none"
         d="M 420,150 H 220 c -22.09,0 -40,17.906 -40,40 v 200 0 -180 c 0,-22.094 17.91,-40 40,-40 h 200 c 22.09,0 40,17.906 40,40 v -20 c 0,-22.094 -17.91,-40 -40,-40" /><path
         id="path18"
         style="fill:#ffffff;fill-opacity:1;fill-rule:nonzero;stroke:none"
         d="m 220,190 c -11.023,0 -20,8.977 -20,20 v 200 c 0,11.023 8.977,20 20,20 h 200 c 11.023,0 20,-8.977 20,-20 V 210 c 0,-11.023 -8.977,-20 -20,-20 H 220" /><path
         id="path20"
         style="fill:#495672;fill-opacity:1;fill-rule:nonzero;stroke:none"
         d="M 420,450 H 220 c -22.09,0 -40,-17.906 -40,-40 V 210 c 0,-22.094 17.91,-40 40,-40 h 200 c 22.09,0 40,17.906 40,40 v 200 c 0,22.094 -17.91,40 -40,40 m 0,-40 V 210 H 220 v 200 h 200" /><path
         id="path22"
         style="fill:#62a48d;fill-opacity:1;fill-rule:nonzero;stroke:none"
         d="M 460,396.531 V 410 c 0,11.109 -4.527,21.16 -11.84,28.406 8.285,6.391 16.945,12.551 25.985,18.391 3.355,2.172 7.117,3.207 10.835,3.207 6.567,0 12.997,-3.227 16.817,-9.149 5.996,-9.277 3.336,-21.66 -5.942,-27.652 C 483.094,414.957 471.148,405.969 460,396.531" /><path
         id="path24"
         style="fill:#d4d3d1;fill-opacity:1;fill-rule:nonzero;stroke:none"
         d="m 324.516,230 c -6.18,0 -12.071,2.867 -15.879,7.852 l -61.192,80 c -6.707,8.769 -5.035,21.324 3.743,28.031 3.625,2.769 7.898,4.109 12.136,4.109 6.016,0 11.957,-2.695 15.895,-7.844 l 41.871,-54.742 c 16.758,30.149 47.773,78.586 94.012,122.594 H 420 v -52.437 c -51.281,-57.012 -76.781,-114.719 -77.133,-115.532 -2.828,-6.504 -8.883,-11.023 -15.926,-11.886 L 324.516,230" /><path
         id="path26"
         style="fill:#404a5f;fill-opacity:1;fill-rule:nonzero;stroke:none"
         d="M 420,357.563 V 410 h -4.898 c 10.265,9.773 21.277,19.32 33.058,28.406 C 455.473,431.16 460,421.109 460,410 v -13.469 c -14.73,-12.465 -28.066,-25.703 -40,-38.968" /><path
         id="path28"
         style="fill:#c84755;fill-opacity:1;fill-rule:nonzero;stroke:none"
         d="m 324.52,250 c -6.18,0 -12.071,2.871 -15.887,7.852 l -61.192,80 c -6.711,8.769 -5.039,21.328 3.743,28.039 8.765,6.699 21.336,5.027 28.035,-3.743 l 41.875,-54.746 c 23.086,41.551 73.254,117.832 153.047,169.395 9.289,5.984 21.66,3.332 27.656,-5.938 5.996,-9.277 3.34,-21.66 -5.938,-27.656 -102.082,-65.957 -152.5,-180.027 -153,-181.172 -2.82,-6.504 -8.875,-11.023 -15.918,-11.886 L 324.52,250" /></g></g></svg>