<?xml version="1.0" encoding="UTF-8" standalone="no"?>
<svg
   xmlns:dc="http://purl.org/dc/elements/1.1/"
   xmlns:cc="http://creativecommons.org/ns#"
   xmlns:rdf="http://www.w3.org/1999/02/22-rdf-syntax-ns#"
   xmlns:svg="http://www.w3.org/2000/svg"
   xmlns="http://www.w3.org/2000/svg"
   viewBox="0 0 85.333336 85.333336"
   height="85.333336"
   width="85.333336"
   xml:space="preserve"
   id="svg2"
   version="1.1"><metadata
     id="metadata8"><rdf:RDF><cc:Work
         rdf:about=""><dc:format>image/svg+xml</dc:format><dc:type
           rdf:resource="http://purl.org/dc/dcmitype/StillImage" /></cc:Work></rdf:RDF></metadata><defs
     id="defs6" /><g
     transform="matrix(1.3333333,0,0,-1.3333333,0,85.333333)"
     id="g10"><g
       transform="scale(0.1)"
       id="g12"><path
         id="path14"
         style="fill:#c84755;fill-opacity:1;fill-rule:nonzero;stroke:none"
         d="M 640,320 C 640,143.27 496.73,0 320,0 143.27,0 0,143.27 0,320 0,496.73 143.27,640 320,640 496.73,640 640,496.73 640,320" /><path
         id="path16"
         style="fill:#e1e3cc;fill-opacity:1;fill-rule:nonzero;stroke:none"
         d="M 427.082,309.809 C 399.625,277.254 360.02,260.891 320,260.863 c -40.02,0.028 -79.629,16.391 -107.082,48.946 -7.121,8.445 -19.738,9.515 -28.184,2.394 -8.441,-7.121 -9.515,-19.738 -2.39,-28.183 35.578,-42.18 86.824,-63.188 137.656,-63.157 50.832,-0.031 102.078,20.977 137.656,63.157 7.121,8.445 6.051,21.062 -2.39,28.183 -8.446,7.121 -21.063,6.051 -28.184,-2.394 v 0" /><path
         id="path18"
         style="fill:#e1e3cc;fill-opacity:1;fill-rule:nonzero;stroke:none"
         d="m 340,470 v 50 c 0,11.047 -8.953,20 -20,20 -11.047,0 -20,-8.953 -20,-20 v -50 c 0,-11.047 8.953,-20 20,-20 11.047,0 20,8.953 20,20" /><path
         id="path20"
         style="fill:#a43f4a;fill-opacity:1;fill-rule:nonzero;stroke:none"
         d="m 179.984,99.9922 c -3.199,0 -6.449,0.7738 -9.464,2.4028 -9.731,5.234 -13.368,17.363 -8.125,27.085 l 0.281,0.524 c 1.793,-3.113 4.445,-5.785 7.844,-7.613 3.015,-1.625 6.261,-2.395 9.46,-2.395 7.125,0 14.016,3.813 17.629,10.524 v 0 c 0,0 25.903,48.097 55.422,102.921 2.981,-1.168 5.985,-2.253 9.012,-3.257 L 197.605,110.52 c -3.609,-6.707 -10.496,-10.5278 -17.621,-10.5278 m 280.036,0.0039 c -7.125,0 -14.02,3.8129 -17.625,10.5239 l -64.438,119.664 c 3.027,1.004 6.035,2.089 9.012,3.257 29.519,-54.82 55.422,-102.921 55.422,-102.921 3.613,-6.711 10.504,-10.524 17.625,-10.524 3.203,0 6.449,0.77 9.464,2.395 3.399,1.828 6.051,4.5 7.844,7.613 l 0.281,-0.524 c 5.243,-9.722 1.606,-21.851 -8.125,-27.085 -3.015,-1.629 -6.261,-2.3989 -9.46,-2.3989 M 281.383,266.098 c -3.102,0.859 -6.168,1.824 -9.211,2.894 6.629,12.313 13.207,24.528 19.488,36.192 2.992,-1.137 6.07,-2.098 9.223,-2.875 l -19.5,-36.211 m 77.234,0 -19.5,36.211 c 3.153,0.777 6.231,1.738 9.223,2.875 6.281,-11.664 12.855,-23.879 19.488,-36.192 -3.043,-1.07 -6.109,-2.035 -9.211,-2.894 M 320,340 c -3.637,0 -7.156,0.488 -10.508,1.398 0.098,0.903 0.133,1.805 0.106,2.704 5.504,-2.247 10.699,-3.457 15.632,-3.762 C 323.52,340.117 321.773,340 320,340" /><path
         id="path22"
         style="fill:#b7b7a7;fill-opacity:1;fill-rule:nonzero;stroke:none"
         d="m 377.957,230.184 -19.34,35.914 c 3.102,0.859 6.168,1.824 9.211,2.894 6.402,-11.89 12.852,-23.871 19.141,-35.551 -2.977,-1.168 -5.985,-2.253 -9.012,-3.257 m -115.914,0 c -3.027,1.004 -6.031,2.089 -9.012,3.257 6.285,11.676 12.739,23.664 19.141,35.551 3.043,-1.07 6.109,-2.035 9.211,-2.894 l -19.34,-35.914" /><path
         id="path24"
         style="fill:#e1e3cc;fill-opacity:1;fill-rule:nonzero;stroke:none"
         d="m 333.832,332.129 c 41.277,-76.66 108.559,-201.609 108.559,-201.609 5.238,-9.727 17.367,-13.368 27.089,-8.129 9.727,5.238 13.368,17.367 8.129,27.089 0,0 -67.281,124.95 -108.558,201.61 -5.238,9.726 -17.367,13.367 -27.094,8.129 -9.723,-5.239 -13.363,-17.367 -8.125,-27.094 v 0.004" /><path
         id="path26"
         style="fill:#e1e3cc;fill-opacity:1;fill-rule:nonzero;stroke:none"
         d="m 197.609,130.52 c 0,0 68.426,127.074 109.602,203.546 5.238,9.727 1.598,21.856 -8.125,27.09 -9.727,5.239 -21.856,1.598 -27.094,-8.125 C 230.816,276.559 162.391,149.48 162.391,149.48 c -5.239,-9.722 -1.598,-21.851 8.129,-27.089 9.722,-5.239 21.851,-1.598 27.089,8.129 v 0" /><path
         id="path28"
         style="fill:#a43f4a;fill-opacity:1;fill-rule:nonzero;stroke:none"
         d="m 320,300 c -6.586,0 -12.992,0.801 -19.117,2.309 L 320,337.813 339.117,302.309 C 332.992,300.801 326.586,300 320,300 m 7.742,40.262 c -0.828,0 -1.668,0.027 -2.512,0.078 2.125,0.277 4.2,0.726 6.208,1.324 -0.004,-0.406 0.007,-0.816 0.031,-1.226 -1.227,-0.118 -2.465,-0.176 -3.727,-0.176" /><path
         id="path30"
         style="fill:#883840;fill-opacity:1;fill-rule:nonzero;stroke:none"
         d="M 339.117,302.309 320,337.813 300.883,302.309 c -3.153,0.777 -6.231,1.738 -9.223,2.875 5.461,10.14 10.695,19.859 15.551,28.882 1.266,2.348 2.012,4.836 2.281,7.332 3.352,-0.91 6.871,-1.398 10.508,-1.398 1.773,0 3.52,0.117 5.23,0.34 0.844,-0.051 1.684,-0.078 2.512,-0.078 1.262,0 2.5,0.058 3.727,0.176 0.164,-2.825 0.933,-5.657 2.363,-8.313 v 0.004 c 4.559,-8.473 9.438,-17.531 14.508,-26.945 -2.992,-1.137 -6.07,-2.098 -9.223,-2.875" /><path
         id="path32"
         style="fill:#a43f4a;fill-opacity:1;fill-rule:nonzero;stroke:none"
         d="M 258.801,328.531 C 247.074,342.453 240,360.414 240,380 c 0,38.543 27.402,70.809 63.746,78.34 3.633,-5.051 9.559,-8.34 16.254,-8.34 6.695,0 12.621,3.289 16.254,8.34 C 372.598,450.809 400,418.543 400,380 c 0,-19.586 -7.074,-37.547 -18.801,-51.469 -4.226,7.848 -8.301,15.41 -12.148,22.559 -2.949,5.473 -8.078,9.019 -13.735,10.14 2.989,5.598 4.684,11.993 4.684,18.77 0,22.055 -17.945,40 -40,40 -22.055,0 -40,-17.945 -40,-40 0,-6.184 1.41,-12.043 3.926,-17.273 -4.934,-1.461 -9.301,-4.813 -11.934,-9.696 -4.148,-7.711 -8.582,-15.941 -13.191,-24.5" /><path
         id="path34"
         style="fill:#b7b7a7;fill-opacity:1;fill-rule:nonzero;stroke:none"
         d="m 320,450 c -6.695,0 -12.621,3.289 -16.254,8.34 5.25,1.09 10.688,1.66 16.254,1.66 5.566,0 11.004,-0.57 16.254,-1.66 C 332.621,453.289 326.695,450 320,450" /><path
         id="path36"
         style="fill:#b7b7a7;fill-opacity:1;fill-rule:nonzero;stroke:none"
         d="m 348.34,305.184 c -5.07,9.414 -9.949,18.472 -14.508,26.945 v -0.004 c -1.43,2.656 -2.199,5.488 -2.363,8.313 -0.024,0.41 -0.035,0.82 -0.031,1.226 10.316,3.086 18.894,10.227 23.878,19.566 5.657,-1.121 10.786,-4.667 13.735,-10.14 3.847,-7.149 7.922,-14.711 12.148,-22.559 -8.715,-10.347 -20,-18.461 -32.859,-23.347" /><path
         id="path38"
         style="fill:#b7b7a7;fill-opacity:1;fill-rule:nonzero;stroke:none"
         d="m 291.66,305.184 c -12.859,4.886 -24.144,13 -32.859,23.347 4.609,8.559 9.043,16.789 13.191,24.5 2.633,4.883 7,8.235 11.934,9.696 4.98,-10.36 14.289,-18.254 25.566,-21.329 -0.269,-2.496 -1.015,-4.984 -2.281,-7.332 -4.856,-9.023 -10.09,-18.742 -15.551,-28.882" /><path
         id="path40"
         style="fill:#e1e3cc;fill-opacity:1;fill-rule:nonzero;stroke:none"
         d="M 380,400 H 360 C 359.988,388.891 355.555,379.02 348.285,371.715 340.98,364.445 331.109,360.012 320,360 c -11.109,0.012 -20.984,4.445 -28.285,11.715 -7.27,7.305 -11.703,17.176 -11.715,28.285 0.012,11.109 4.445,20.984 11.715,28.285 7.301,7.27 17.176,11.703 28.285,11.715 11.109,-0.012 20.98,-4.445 28.285,-11.715 7.27,-7.301 11.703,-17.176 11.715,-28.285 h 20 20 c -0.012,44.191 -35.809,79.988 -80,80 -44.191,-0.012 -79.988,-35.809 -80,-80 0.012,-44.191 35.809,-79.988 80,-80 44.191,0.012 79.988,35.809 80,80 h -20" /></g></g></svg>