<?xml version="1.0" encoding="UTF-8" standalone="no"?>
<svg
   xmlns:dc="http://purl.org/dc/elements/1.1/"
   xmlns:cc="http://creativecommons.org/ns#"
   xmlns:rdf="http://www.w3.org/1999/02/22-rdf-syntax-ns#"
   xmlns:svg="http://www.w3.org/2000/svg"
   xmlns="http://www.w3.org/2000/svg"
   viewBox="0 0 85.333336 85.333336"
   height="85.333336"
   width="85.333336"
   xml:space="preserve"
   id="svg2"
   version="1.1"><metadata
     id="metadata8"><rdf:RDF><cc:Work
         rdf:about=""><dc:format>image/svg+xml</dc:format><dc:type
           rdf:resource="http://purl.org/dc/dcmitype/StillImage" /></cc:Work></rdf:RDF></metadata><defs
     id="defs6" /><g
     transform="matrix(1.3333333,0,0,-1.3333333,0,85.333333)"
     id="g10"><g
       transform="scale(0.1)"
       id="g12"><path
         id="path14"
         style="fill:#7db6d8;fill-opacity:1;fill-rule:nonzero;stroke:none"
         d="M 640,320 C 640,143.27 496.73,0 320,0 143.27,0 0,143.27 0,320 0,496.73 143.27,640 320,640 496.73,640 640,496.73 640,320" /><path
         id="path16"
         style="fill:#6594b2;fill-opacity:1;fill-rule:nonzero;stroke:none"
         d="M 500,110 H 140 c -11.047,0 -20,8.953 -20,20 v 150 41.707 0 V 300 h 16.719 l 50,50 -50,-50 h 56.562 l 50,50 h 20 63.438 56.562 63.438 56.562 H 520 V 280 130 c 0,-11.047 -8.953,-20 -20,-20" /><path
         id="path18"
         style="fill:#6594b2;fill-opacity:1;fill-rule:nonzero;stroke:none"
         d="m 204.305,367.586 2.414,2.414 h -54.36 c -1.867,2.09 -4.023,3.914 -6.41,5.414 l 34.68,7.234 44.531,71.012 14.434,3.008 60.918,12.711 54.312,11.328 60.918,12.711 54.317,11.328 5.597,1.168 c 1.375,0.289 2.75,0.426 4.102,0.426 9.273,0 17.59,-6.485 19.558,-15.918 L 511.57,431.684 411.094,410.727 356.777,399.395 295.863,386.684 241.547,375.355 215.879,370 h -9.16 l -2.414,-2.414 m -89.68,8.18 -6.879,32.968 c -0.93,4.457 -0.297,8.879 1.527,12.692 l 9.125,-43.75 c -1.304,-0.551 -2.57,-1.188 -3.773,-1.91" /><path
         id="path20"
         style="fill:#495672;fill-opacity:1;fill-rule:nonzero;stroke:none"
         d="M 120,300 V 150 c 0,-11.047 8.953,-20 20,-20 h 360 c 11.047,0 20,8.953 20,20 V 300 H 120" /><path
         id="path22"
         style="fill:#495672;fill-opacity:1;fill-rule:nonzero;stroke:none"
         d="m 120,370 v -70 h 16.719 l 70,70 H 120" /><path
         id="path24"
         style="fill:#495672;fill-opacity:1;fill-rule:nonzero;stroke:none"
         d="m 383.281,370 -70,-70 h 63.438 l 70,70 h -63.438" /><path
         id="path26"
         style="fill:#495672;fill-opacity:1;fill-rule:nonzero;stroke:none"
         d="m 263.281,370 -70,-70 h 63.438 l 70,70 h -63.438" /><path
         id="path28"
         style="fill:#ffffff;fill-opacity:1;fill-rule:nonzero;stroke:none"
         d="m 206.719,370 -70,-70 h 56.562 l 70,70 h -56.562" /><path
         id="path30"
         style="fill:#ffffff;fill-opacity:1;fill-rule:nonzero;stroke:none"
         d="m 326.719,370 -70,-70 h 56.562 l 70,70 h -56.562" /><path
         id="path32"
         style="fill:#ffffff;fill-opacity:1;fill-rule:nonzero;stroke:none"
         d="m 446.719,370 -70,-70 h 56.562 l 70,70 h -56.562" /><path
         id="path34"
         style="fill:#495672;fill-opacity:1;fill-rule:nonzero;stroke:none"
         d="m 520,370 h -16.719 l -70,-70 h 60.157 L 520,326.563 V 370" /><path
         id="path36"
         style="fill:#ffffff;fill-opacity:1;fill-rule:nonzero;stroke:none"
         d="M 493.438,300 H 520 v 26.563 z" /><path
         id="path38"
         style="fill:#495672;fill-opacity:1;fill-rule:nonzero;stroke:none"
         d="m 239.594,476.672 -58.965,-94.024 60.918,12.707 58.965,94.024 -60.918,-12.707" /><path
         id="path40"
         style="fill:#495672;fill-opacity:1;fill-rule:nonzero;stroke:none"
         d="m 354.824,500.711 -58.961,-94.023 60.914,12.707 58.965,94.023 -60.918,-12.707" /><path
         id="path42"
         style="fill:#495672;fill-opacity:1;fill-rule:nonzero;stroke:none"
         d="m 123.242,452.398 c -10.812,-2.257 -17.75,-12.851 -15.496,-23.664 L 120,370 l 6.313,1.316 58.964,94.024 -62.035,-12.942" /><path
         id="path44"
         style="fill:#ffffff;fill-opacity:1;fill-rule:nonzero;stroke:none"
         d="m 185.277,465.34 -58.964,-94.024 54.316,11.332 58.965,94.024 -54.317,-11.332" /><path
         id="path46"
         style="fill:#ffffff;fill-opacity:1;fill-rule:nonzero;stroke:none"
         d="m 300.512,489.379 -58.965,-94.024 54.316,11.333 58.961,94.023 -54.312,-11.332" /><path
         id="path48"
         style="fill:#ffffff;fill-opacity:1;fill-rule:nonzero;stroke:none"
         d="m 470.059,524.746 -54.317,-11.328 -58.965,-94.023 54.317,11.332 58.965,94.019" /><path
         id="path50"
         style="fill:#495672;fill-opacity:1;fill-rule:nonzero;stroke:none"
         d="m 499.316,510.422 c -2.253,10.812 -12.847,17.75 -23.66,15.496 l -5.597,-1.168 -58.965,-94.023 61.082,12.742 30.847,49.191 -3.707,17.762" /><path
         id="path52"
         style="fill:#ffffff;fill-opacity:1;fill-rule:nonzero;stroke:none"
         d="m 503.023,492.66 -30.847,-49.191 39.394,8.219 z" /><path
         id="path54"
         style="fill:#6594b2;fill-opacity:1;fill-rule:nonzero;stroke:none"
         d="m 120,321.707 c -11.652,4.117 -20,15.231 -20,28.293 0,10.949 5.863,20.527 14.625,25.766 L 120,350 v -28.293" /><path
         id="path56"
         style="fill:#567a95;fill-opacity:1;fill-rule:nonzero;stroke:none"
         d="m 120,350 v 0 l -5.375,25.766 c 1.203,0.722 2.469,1.359 3.773,1.91 L 120,370 v -20 m 32.359,20 H 120 l 6.313,1.316 5.414,8.633 v 0 l -5.414,-8.633 19.636,4.098 c 2.387,-1.5 4.543,-3.324 6.41,-5.414" /><path
         id="path58"
         style="fill:#404a5f;fill-opacity:1;fill-rule:nonzero;stroke:none"
         d="m 130,320 c -3.508,0 -6.871,0.602 -10,1.707 V 350 370 h 32.359 c 4.75,-5.309 7.641,-12.316 7.641,-20 0,-16.57 -13.43,-30 -30,-30" /><path
         id="path60"
         style="fill:#404a5f;fill-opacity:1;fill-rule:nonzero;stroke:none"
         d="m 120,370 v 0 l -1.602,7.676 c 3.571,1.496 7.489,2.324 11.602,2.324 0.578,0 1.156,-0.016 1.727,-0.051 L 126.313,371.316 120,370" /><path
         id="path62"
         style="fill:#d4d3d1;fill-opacity:1;fill-rule:nonzero;stroke:none"
         d="m 126.313,371.316 5.414,8.633 c 5.207,-0.293 10.058,-1.918 14.222,-4.535 l -19.636,-4.098" /><path
         id="path64"
         style="fill:#495672;fill-opacity:1;fill-rule:nonzero;stroke:none"
         d="m 160,370 c 0,-16.57 -13.43,-30 -30,-30 -16.57,0 -30,13.43 -30,30 0,16.566 13.43,30 30,30 16.57,0 30,-13.434 30,-30" /></g></g></svg>