<?xml version="1.0" encoding="UTF-8" standalone="no"?>
<svg
   xmlns:dc="http://purl.org/dc/elements/1.1/"
   xmlns:cc="http://creativecommons.org/ns#"
   xmlns:rdf="http://www.w3.org/1999/02/22-rdf-syntax-ns#"
   xmlns:svg="http://www.w3.org/2000/svg"
   xmlns="http://www.w3.org/2000/svg"
   viewBox="0 0 85.333336 85.333336"
   height="85.333336"
   width="85.333336"
   xml:space="preserve"
   id="svg2"
   version="1.1"><metadata
     id="metadata8"><rdf:RDF><cc:Work
         rdf:about=""><dc:format>image/svg+xml</dc:format><dc:type
           rdf:resource="http://purl.org/dc/dcmitype/StillImage" /></cc:Work></rdf:RDF></metadata><defs
     id="defs6" /><g
     transform="matrix(1.3333333,0,0,-1.3333333,0,85.333333)"
     id="g10"><g
       transform="scale(0.1)"
       id="g12"><path
         id="path14"
         style="fill:#7db6d8;fill-opacity:1;fill-rule:nonzero;stroke:none"
         d="M 640,320 C 640,143.27 496.73,0 320,0 143.27,0 0,143.27 0,320 0,496.73 143.27,640 320,640 496.73,640 640,496.73 640,320" /><path
         id="path16"
         style="fill:#6594b2;fill-opacity:1;fill-rule:nonzero;stroke:none"
         d="M 480,100 H 160 c -22.094,0 -40,17.91 -40,40 v 265 55 0 -35 -265 c 0,-22.09 17.906,-40 40,-40 h 320 c 22.094,0 40,17.91 40,40 v -20 c 0,-22.09 -17.906,-40 -40,-40" /><path
         id="path18"
         style="fill:#e08e4c;fill-opacity:1;fill-rule:nonzero;stroke:none"
         d="M 480,520 H 160 c -22.094,0 -40,-17.906 -40,-40 V 425 160 c 0,-22.09 17.906,-40 40,-40 h 320 c 22.094,0 40,17.91 40,40 v 265 55 c 0,22.094 -17.906,40 -40,40" /><path
         id="path20"
         style="fill:#b77744;fill-opacity:1;fill-rule:nonzero;stroke:none"
         d="M 480,140 H 160 V 460 160 h 320 v -20" /><path
         id="path22"
         style="fill:#ffffff;fill-opacity:1;fill-rule:nonzero;stroke:none"
         d="M 160,160 H 480 V 480 H 160 Z" /><path
         id="path24"
         style="fill:#e1e3cc;fill-opacity:1;fill-rule:nonzero;stroke:none"
         d="M 420,380 H 220 v 20 h 200 v -20" /><path
         id="path26"
         style="fill:#e1e3cc;fill-opacity:1;fill-rule:nonzero;stroke:none"
         d="M 420,340 H 220 v 20 h 200 v -20" /><path
         id="path28"
         style="fill:#e1e3cc;fill-opacity:1;fill-rule:nonzero;stroke:none"
         d="M 420,300 H 220 v 20 h 200 v -20" /><path
         id="path30"
         style="fill:#e1e3cc;fill-opacity:1;fill-rule:nonzero;stroke:none"
         d="M 420,260 H 220 v 20 h 200 v -20" /><path
         id="path32"
         style="fill:#e1e3cc;fill-opacity:1;fill-rule:nonzero;stroke:none"
         d="M 420,220 H 220 v 20 h 200 v -20" /><path
         id="path34"
         style="fill:#b77744;fill-opacity:1;fill-rule:nonzero;stroke:none"
         d="M 400,480 H 240 v 40 h 160 v -30 -10" /><path
         id="path36"
         style="fill:#d4d3d1;fill-opacity:1;fill-rule:nonzero;stroke:none"
         d="M 370,440 H 270 c -16.57,0 -30,13.43 -30,30 v 10 h 160 v -10 c 0,-16.57 -13.43,-30 -30,-30" /><path
         id="path38"
         style="fill:#495672;fill-opacity:1;fill-rule:nonzero;stroke:none"
         d="M 370,540 H 240 v -50 c 0,-16.57 13.43,-30 30,-30 h 100 c 16.57,0 30,13.43 30,30 v 10 10 30 h -30" /></g></g></svg>