<?xml version="1.0" encoding="UTF-8" standalone="no"?>
<svg
   xmlns:dc="http://purl.org/dc/elements/1.1/"
   xmlns:cc="http://creativecommons.org/ns#"
   xmlns:rdf="http://www.w3.org/1999/02/22-rdf-syntax-ns#"
   xmlns:svg="http://www.w3.org/2000/svg"
   xmlns="http://www.w3.org/2000/svg"
   viewBox="0 0 85.333336 85.333336"
   height="85.333336"
   width="85.333336"
   xml:space="preserve"
   id="svg2"
   version="1.1"><metadata
     id="metadata8"><rdf:RDF><cc:Work
         rdf:about=""><dc:format>image/svg+xml</dc:format><dc:type
           rdf:resource="http://purl.org/dc/dcmitype/StillImage" /></cc:Work></rdf:RDF></metadata><defs
     id="defs6" /><g
     transform="matrix(1.3333333,0,0,-1.3333333,0,85.333333)"
     id="g10"><g
       transform="scale(0.1)"
       id="g12"><path
         id="path14"
         style="fill:#e1e3cc;fill-opacity:1;fill-rule:nonzero;stroke:none"
         d="M 640,320 C 640,143.27 496.73,0 320,0 143.27,0 0,143.27 0,320 0,496.73 143.27,640 320,640 496.73,640 640,496.73 640,320" /><path
         id="path16"
         style="fill:#b7b7a7;fill-opacity:1;fill-rule:nonzero;stroke:none"
         d="m 320,80 c -121.504,0 -220,98.496 -220,220 0,3.352 0.074,6.684 0.223,10 C 105.453,193.141 201.848,100 320,100 438.152,100 534.547,193.141 539.777,310 539.926,306.684 540,303.352 540,300 540,178.496 441.504,80 320,80 M 499.727,310 C 494.52,404.617 415.895,480 320,480 224.105,480 145.48,404.617 140.273,310 c -0.179,3.313 -0.273,6.645 -0.273,10 0,99.254 80.746,180 180,180 99.254,0 180,-80.746 180,-180 0,-3.355 -0.094,-6.687 -0.273,-10" /><path
         id="path18"
         style="fill:#c84755;fill-opacity:1;fill-rule:nonzero;stroke:none"
         d="m 320,540 c -121.504,0 -220,-98.496 -220,-220 0,-121.504 98.496,-220 220,-220 121.504,0 220,98.496 220,220 0,121.504 -98.496,220 -220,220 m 0,-40 c 99.254,0 180,-80.746 180,-180 0,-99.254 -80.746,-180 -180,-180 -99.254,0 -180,80.746 -180,180 0,99.254 80.746,180 180,180" /><path
         id="path20"
         style="fill:#b7b7a7;fill-opacity:1;fill-rule:nonzero;stroke:none"
         d="m 400,200 c -5.117,0 -10.234,1.953 -14.141,5.859 L 300,291.715 V 380 c 0,11.047 8.953,20 20,20 11.047,0 20,-8.953 20,-20 v -71.715 l 74.141,-74.144 c 7.812,-7.809 7.812,-20.473 0,-28.282 C 410.234,201.953 405.117,200 400,200" /><path
         id="path22"
         style="fill:#495672;fill-opacity:1;fill-rule:nonzero;stroke:none"
         d="m 400,220 c -5.117,0 -10.234,1.953 -14.141,5.859 L 300,311.715 V 400 c 0,11.047 8.953,20 20,20 11.047,0 20,-8.953 20,-20 v -71.715 l 74.141,-74.144 c 7.812,-7.809 7.812,-20.473 0,-28.282 C 410.234,221.953 405.117,220 400,220" /></g></g></svg>