<?xml version="1.0" encoding="UTF-8" standalone="no"?>
<svg
   xmlns:dc="http://purl.org/dc/elements/1.1/"
   xmlns:cc="http://creativecommons.org/ns#"
   xmlns:rdf="http://www.w3.org/1999/02/22-rdf-syntax-ns#"
   xmlns:svg="http://www.w3.org/2000/svg"
   xmlns="http://www.w3.org/2000/svg"
   viewBox="0 0 85.333336 85.333336"
   height="85.333336"
   width="85.333336"
   xml:space="preserve"
   id="svg2"
   version="1.1"><metadata
     id="metadata8"><rdf:RDF><cc:Work
         rdf:about=""><dc:format>image/svg+xml</dc:format><dc:type
           rdf:resource="http://purl.org/dc/dcmitype/StillImage" /></cc:Work></rdf:RDF></metadata><defs
     id="defs6" /><g
     transform="matrix(1.3333333,0,0,-1.3333333,0,85.333333)"
     id="g10"><g
       transform="scale(0.1)"
       id="g12"><path
         id="path14"
         style="fill:#495672;fill-opacity:1;fill-rule:nonzero;stroke:none"
         d="M 640,320 C 640,143.27 496.73,0 320,0 143.27,0 0,143.27 0,320 0,496.73 143.27,640 320,640 496.73,640 640,496.73 640,320" /><path
         id="path16"
         style="fill:#404a5f;fill-opacity:1;fill-rule:nonzero;stroke:none"
         d="m 440,140 c -49.199,0 -90.098,35.531 -98.445,82.328 1.773,0.391 3.527,0.828 5.261,1.309 C 361.363,186.391 397.602,160 440,160 c 52.195,0 95.051,39.988 99.602,91 0.261,-3.637 0.398,-7.309 0.398,-11 0,-55.227 -44.773,-100 -100,-100" /><path
         id="path18"
         style="fill:#c84755;fill-opacity:1;fill-rule:nonzero;stroke:none"
         d="m 540,260 c 0,-55.227 -44.773,-100 -100,-100 -55.227,0 -100,44.773 -100,100 0,100 100,180 100,180 0,0 100,-80 100,-180" /><path
         id="path20"
         style="fill:#404a5f;fill-opacity:1;fill-rule:nonzero;stroke:none"
         d="m 320,220 c -7.402,0 -14.613,0.805 -21.555,2.328 1.024,5.738 1.555,11.641 1.555,17.672 0,0.672 -0.004,1.336 -0.012,2.004 6.465,-1.313 13.16,-2.004 20.012,-2.004 6.852,0 13.547,0.691 20.012,2.004 C 340.004,241.336 340,240.672 340,240 c 0,-6.031 0.531,-11.934 1.555,-17.672 C 334.613,220.805 327.402,220 320,220" /><path
         id="path22"
         style="fill:#394051;fill-opacity:1;fill-rule:nonzero;stroke:none"
         d="M 341.555,222.328 C 340.531,228.066 340,233.969 340,240 c 0,0.672 0.004,1.336 0.012,2.004 0.519,0.105 1.027,0.211 1.543,0.324 1.156,-6.465 2.929,-12.719 5.261,-18.691 -1.734,-0.481 -3.488,-0.918 -5.261,-1.309" /><path
         id="path24"
         style="fill:#a43f4a;fill-opacity:1;fill-rule:nonzero;stroke:none"
         d="m 346.816,223.637 c -2.332,5.972 -4.105,12.226 -5.261,18.691 42.019,9.235 74.14,44.895 78.047,88.672 0.261,-3.637 0.398,-7.309 0.398,-11 0,-45.937 -30.98,-84.641 -73.184,-96.363" /><path
         id="path26"
         style="fill:#7db6d8;fill-opacity:1;fill-rule:nonzero;stroke:none"
         d="m 420,340 c 0,-55.227 -44.773,-100 -100,-100 -55.227,0 -100,44.773 -100,100 0,100 100,180 100,180 0,0 100,-80 100,-180" /><path
         id="path28"
         style="fill:#404a5f;fill-opacity:1;fill-rule:nonzero;stroke:none"
         d="m 200,140 c -55.227,0 -100,44.773 -100,100 0,100 100,180 100,180 0,0 12.578,-10.062 28.813,-27.508 C 223.348,375.91 220,358.285 220,340 c 0,-3.035 0.137,-6.035 0.398,-9 -0.261,-3.637 -0.398,-7.309 -0.398,-11 0,-47.824 33.578,-87.812 78.445,-97.672 C 290.098,175.531 249.199,140 200,140" /><path
         id="path30"
         style="fill:#394051;fill-opacity:1;fill-rule:nonzero;stroke:none"
         d="M 298.445,222.328 C 253.578,232.188 220,272.176 220,320 c 0,3.691 0.137,7.363 0.398,11 3.954,-44.312 36.813,-80.309 79.59,-88.996 0.008,-0.668 0.012,-1.332 0.012,-2.004 0,-6.031 -0.531,-11.934 -1.555,-17.672" /><path
         id="path32"
         style="fill:#6594b2;fill-opacity:1;fill-rule:nonzero;stroke:none"
         d="m 299.988,242.004 c -42.777,8.687 -75.636,44.684 -79.59,88.996 -0.261,2.965 -0.398,5.965 -0.398,9 0,18.285 3.348,35.91 8.813,52.492 29.23,-31.418 70.324,-86.797 71.175,-150.488" /><path
         id="path34"
         style="fill:#f3cc70;fill-opacity:1;fill-rule:nonzero;stroke:none"
         d="m 300,260 c 0,-55.227 -44.773,-100 -100,-100 -55.227,0 -100,44.773 -100,100 0,100 100,180 100,180 0,0 100,-80 100,-180" /></g></g></svg>