<?xml version="1.0" encoding="UTF-8" standalone="no"?>
<svg
   xmlns:dc="http://purl.org/dc/elements/1.1/"
   xmlns:cc="http://creativecommons.org/ns#"
   xmlns:rdf="http://www.w3.org/1999/02/22-rdf-syntax-ns#"
   xmlns:svg="http://www.w3.org/2000/svg"
   xmlns="http://www.w3.org/2000/svg"
   viewBox="0 0 85.333336 85.333336"
   height="85.333336"
   width="85.333336"
   xml:space="preserve"
   id="svg2"
   version="1.1"><metadata
     id="metadata8"><rdf:RDF><cc:Work
         rdf:about=""><dc:format>image/svg+xml</dc:format><dc:type
           rdf:resource="http://purl.org/dc/dcmitype/StillImage" /></cc:Work></rdf:RDF></metadata><defs
     id="defs6" /><g
     transform="matrix(1.3333333,0,0,-1.3333333,0,85.333333)"
     id="g10"><g
       transform="scale(0.1)"
       id="g12"><path
         id="path14"
         style="fill:#e1e3cc;fill-opacity:1;fill-rule:nonzero;stroke:none"
         d="M 640,320 C 640,143.27 496.73,0 320,0 143.27,0 0,143.27 0,320 0,496.73 143.27,640 320,640 496.73,640 640,496.73 640,320" /><path
         id="path16"
         style="fill:#b7b7a7;fill-opacity:1;fill-rule:nonzero;stroke:none"
         d="m 182.984,134.316 c -5.062,0 -9.976,1.922 -13.714,5.442 -33.29,31.359 -55.7,71.558 -64.805,116.25 -1.199,5.883 0.308,11.996 4.109,16.644 3.797,4.649 9.485,7.348 15.489,7.348 h 51.511 c 8.989,0 16.875,-5.996 19.274,-14.656 5.386,-19.43 15.398,-37.61 28.957,-52.578 5.828,-6.438 6.84,-15.903 2.496,-23.426 l -25.996,-45.024 c -3.059,-5.293 -8.367,-8.898 -14.414,-9.789 -0.969,-0.14 -1.942,-0.211 -2.907,-0.211" /><path
         id="path18"
         style="fill:#b7b7a7;fill-opacity:1;fill-rule:nonzero;stroke:none"
         d="m 320,80 c -26.156,0 -51.684,4.5273 -75.871,13.4609 -5.531,2.043 -9.879,6.418 -11.883,11.9651 -2.004,5.543 -1.461,11.687 1.488,16.797 l 25.528,44.218 c 3.644,6.313 10.32,10 17.32,10 1.934,0 3.898,-0.281 5.824,-0.867 C 294.559,171.875 307.203,170 320,170 c 9.152,0 18.387,1.004 27.441,2.98 1.422,0.313 2.856,0.465 4.274,0.465 7.031,0 13.691,-3.726 17.316,-10.004 l 25.977,-44.988 c 3.051,-5.289 3.523,-11.687 1.273,-17.367 -2.25,-5.6797 -6.972,-10.0196 -12.82,-11.7813 C 362.992,83.1289 341.641,80 320,80" /><path
         id="path20"
         style="fill:#b7b7a7;fill-opacity:1;fill-rule:nonzero;stroke:none"
         d="m 515.961,320 h -51.512 c -9.008,0 -16.902,6.02 -19.289,14.707 -6.293,22.938 -18.832,43.676 -36.254,59.973 -6.793,6.355 -8.308,16.55 -3.66,24.605 l 25.563,44.278 c 2.949,5.109 8.004,8.656 13.812,9.691 1.168,0.211 2.34,0.309 3.508,0.309 4.641,0 9.18,-1.614 12.801,-4.629 38.289,-31.883 64.797,-76.266 74.636,-124.973 1.188,-5.879 -0.328,-11.984 -4.125,-16.625 -3.796,-4.645 -9.48,-7.336 -15.48,-7.336" /><path
         id="path22"
         style="fill:#b7b7a7;fill-opacity:1;fill-rule:nonzero;stroke:none"
         d="m 276.582,423.559 c -7,0 -13.676,3.691 -17.32,10 l -25.528,44.218 c -2.949,5.11 -3.492,11.254 -1.488,16.797 2.004,5.547 6.352,9.922 11.883,11.969 24.187,8.93 49.715,13.457 75.871,13.457 21.641,0 42.992,-3.129 63.461,-9.305 5.848,-1.761 10.57,-6.101 12.82,-11.781 2.25,-5.68 1.778,-12.074 -1.273,-17.367 l -25.977,-44.988 c -3.625,-6.278 -10.285,-10.004 -17.316,-10.004 -1.418,0 -2.852,0.152 -4.274,0.465 -9.054,1.976 -18.289,2.98 -27.441,2.98 -12.797,0 -25.441,-1.875 -37.594,-5.574 -1.929,-0.586 -3.886,-0.867 -5.824,-0.867" /><path
         id="path24"
         style="fill:#b7b7a7;fill-opacity:1;fill-rule:nonzero;stroke:none"
         d="m 448.129,126.438 c -1.168,0 -2.344,0.101 -3.508,0.308 -5.808,1.035 -10.863,4.582 -13.812,9.692 l -25.563,44.277 c -4.648,8.055 -3.133,18.25 3.66,24.605 17.422,16.297 29.961,37.035 36.254,59.973 2.387,8.687 10.281,14.707 19.289,14.707 h 51.512 c 6,0 11.684,-2.691 15.48,-7.336 3.797,-4.641 5.313,-10.746 4.125,-16.625 -9.839,-48.703 -36.347,-93.09 -74.636,-124.973 -3.621,-3.015 -8.16,-4.628 -12.801,-4.628" /><path
         id="path26"
         style="fill:#b7b7a7;fill-opacity:1;fill-rule:nonzero;stroke:none"
         d="m 175.574,320 h -51.511 c -6.004,0 -11.692,2.699 -15.489,7.348 -3.801,4.652 -5.308,10.761 -4.109,16.644 9.105,44.692 31.515,84.891 64.805,116.25 3.738,3.52 8.652,5.442 13.714,5.442 0.965,0 1.938,-0.071 2.907,-0.211 6.047,-0.891 11.355,-4.496 14.414,-9.789 l 25.996,-45.024 c 4.344,-7.523 3.332,-16.988 -2.496,-23.426 C 210.246,372.266 200.234,354.086 194.848,334.656 192.449,325.996 184.563,320 175.574,320" /><path
         id="path28"
         style="fill:#7db6d8;fill-opacity:1;fill-rule:nonzero;stroke:none"
         d="M 194.848,285.344 C 192.449,294.004 184.563,300 175.574,300 h -51.511 c -6.004,0 -11.692,-2.699 -15.489,-7.348 -3.801,-4.648 -5.308,-10.761 -4.109,-16.644 9.105,-44.692 31.515,-84.891 64.805,-116.25 3.738,-3.52 8.652,-5.442 13.714,-5.442 0.965,0 1.938,0.071 2.907,0.211 6.047,0.891 11.355,4.496 14.414,9.789 l 25.996,45.024 c 4.344,7.523 3.332,16.988 -2.496,23.426 -13.559,14.968 -23.571,33.148 -28.957,52.578" /><path
         id="path30"
         style="fill:#77caa9;fill-opacity:1;fill-rule:nonzero;stroke:none"
         d="m 369.031,183.441 c -3.625,6.278 -10.285,10.004 -17.316,10.004 -1.418,0 -2.852,-0.152 -4.274,-0.465 C 338.387,191.004 329.152,190 320,190 c -12.797,0 -25.441,1.875 -37.594,5.574 -1.926,0.586 -3.89,0.867 -5.824,0.867 -7,0 -13.676,-3.687 -17.32,-10 l -25.528,-44.218 c -2.949,-5.11 -3.492,-11.254 -1.488,-16.797 2.004,-5.547 6.352,-9.922 11.883,-11.965 C 268.316,104.527 293.844,100 320,100 c 21.641,0 42.992,3.129 63.461,9.305 5.848,1.761 10.57,6.101 12.82,11.781 2.25,5.68 1.778,12.078 -1.273,17.367 l -25.977,44.988" /><path
         id="path32"
         style="fill:#e08e4c;fill-opacity:1;fill-rule:nonzero;stroke:none"
         d="M 445.16,354.707 C 447.547,346.02 455.441,340 464.449,340 h 51.512 c 6,0 11.684,2.691 15.48,7.336 3.797,4.641 5.313,10.746 4.125,16.625 -9.839,48.707 -36.347,93.09 -74.636,124.973 -3.621,3.015 -8.16,4.629 -12.801,4.629 -1.168,0 -2.34,-0.098 -3.508,-0.309 -5.808,-1.035 -10.863,-4.582 -13.812,-9.691 l -25.563,-44.278 c -4.648,-8.055 -3.133,-18.25 3.66,-24.605 17.422,-16.297 29.961,-37.035 36.254,-59.973" /><path
         id="path34"
         style="fill:#c84755;fill-opacity:1;fill-rule:nonzero;stroke:none"
         d="M 383.461,530.695 C 362.992,536.871 341.641,540 320,540 c -26.156,0 -51.684,-4.527 -75.871,-13.457 -5.531,-2.047 -9.879,-6.422 -11.883,-11.969 -2.004,-5.543 -1.461,-11.687 1.488,-16.797 l 25.528,-44.218 c 3.644,-6.309 10.32,-10 17.32,-10 1.938,0 3.895,0.281 5.824,0.867 12.153,3.699 24.797,5.574 37.594,5.574 9.152,0 18.387,-1.004 27.441,-2.98 1.422,-0.313 2.856,-0.465 4.274,-0.465 7.031,0 13.691,3.726 17.316,10.004 l 25.977,44.988 c 3.051,5.293 3.523,11.687 1.273,17.367 -2.25,5.68 -6.972,10.02 -12.82,11.781" /><path
         id="path36"
         style="fill:#f3cc70;fill-opacity:1;fill-rule:nonzero;stroke:none"
         d="m 515.961,300 h -51.512 c -9.008,0 -16.902,-6.02 -19.289,-14.707 -6.293,-22.938 -18.832,-43.676 -36.254,-59.973 -6.793,-6.355 -8.308,-16.55 -3.66,-24.605 l 25.563,-44.277 c 2.949,-5.11 8.004,-8.657 13.812,-9.692 1.164,-0.207 2.34,-0.308 3.508,-0.308 4.641,0 9.18,1.613 12.801,4.628 38.289,31.883 64.797,76.27 74.636,124.973 1.188,5.879 -0.328,11.984 -4.125,16.625 -3.796,4.645 -9.48,7.336 -15.48,7.336" /><path
         id="path38"
         style="fill:#495672;fill-opacity:1;fill-rule:nonzero;stroke:none"
         d="m 200.305,475.684 c -3.059,5.293 -8.367,8.898 -14.414,9.789 -0.969,0.14 -1.942,0.211 -2.907,0.211 -5.062,0 -9.976,-1.922 -13.714,-5.442 -33.29,-31.359 -55.7,-71.558 -64.805,-116.25 -1.199,-5.883 0.308,-11.992 4.109,-16.644 3.797,-4.649 9.485,-7.348 15.489,-7.348 h 51.511 c 8.989,0 16.875,5.996 19.274,14.656 5.386,19.43 15.398,37.61 28.957,52.578 5.828,6.438 6.84,15.903 2.496,23.426 l -25.996,45.024" /></g></g></svg>