<?xml version="1.0" encoding="UTF-8" standalone="no"?>
<svg
   xmlns:dc="http://purl.org/dc/elements/1.1/"
   xmlns:cc="http://creativecommons.org/ns#"
   xmlns:rdf="http://www.w3.org/1999/02/22-rdf-syntax-ns#"
   xmlns:svg="http://www.w3.org/2000/svg"
   xmlns="http://www.w3.org/2000/svg"
   viewBox="0 0 85.333336 85.333336"
   height="85.333336"
   width="85.333336"
   xml:space="preserve"
   id="svg2"
   version="1.1"><metadata
     id="metadata8"><rdf:RDF><cc:Work
         rdf:about=""><dc:format>image/svg+xml</dc:format><dc:type
           rdf:resource="http://purl.org/dc/dcmitype/StillImage" /></cc:Work></rdf:RDF></metadata><defs
     id="defs6" /><g
     transform="matrix(1.3333333,0,0,-1.3333333,0,85.333333)"
     id="g10"><g
       transform="scale(0.1)"
       id="g12"><path
         id="path14"
         style="fill:#77caa9;fill-opacity:1;fill-rule:nonzero;stroke:none"
         d="M 638.332,320 C 638.332,143.27 495.066,0 318.332,0 141.602,0 -1.66797,143.27 -1.66797,320 c 0,176.73 143.26997,320 319.99997,320 176.734,0 320,-143.27 320,-320" /><path
         id="path16"
         style="fill:#62a48d;fill-opacity:1;fill-rule:nonzero;stroke:none"
         d="M 370,100 H 150 c -16.57,0 -30,13.43 -30,30 v 340 0 -230 -90 c 0,-16.57 13.43,-30 30,-30 h 90 130 c 16.57,0 30,13.43 30,30 v -20 c 0,-16.57 -13.43,-30 -30,-30" /><path
         id="path18"
         style="fill:#e1e3cc;fill-opacity:1;fill-rule:nonzero;stroke:none"
         d="M 370,520 H 150 c -16.57,0 -30,-13.43 -30,-30 V 240 150 c 0,-16.57 13.43,-30 30,-30 h 90 130 c 16.57,0 30,13.43 30,30 v 250 90 c 0,16.57 -13.43,30 -30,30" /><path
         id="path20"
         style="fill:#b7b7a7;fill-opacity:1;fill-rule:nonzero;stroke:none"
         d="m 160,430 h 100 v 20 H 160 Z" /><path
         id="path22"
         style="fill:#b7b7a7;fill-opacity:1;fill-rule:nonzero;stroke:none"
         d="M 229.613,270 H 160 v 20 h 76.004 L 233.016,287.012 229.613,270" /><path
         id="path24"
         style="fill:#b7b7a7;fill-opacity:1;fill-rule:nonzero;stroke:none"
         d="M 266.004,320 H 160 v 20 h 126.004 l -20,-20" /><path
         id="path26"
         style="fill:#b7b7a7;fill-opacity:1;fill-rule:nonzero;stroke:none"
         d="M 316.004,370 H 160 v 20 h 176.004 l -20,-20" /><path
         id="path28"
         style="fill:#b7b7a7;fill-opacity:1;fill-rule:nonzero;stroke:none"
         d="M 219.613,220 H 160 v 20 h 63.613 l -4,-20" /><path
         id="path30"
         style="fill:#b7b7a7;fill-opacity:1;fill-rule:nonzero;stroke:none"
         d="m 360,170 h -33.215 l 19.367,3.871 L 360,187.723 V 170 m -150.387,0 H 160 v 20 h 53.613 l -4,-20" /><path
         id="path32"
         style="fill:#b7b7a7;fill-opacity:1;fill-rule:nonzero;stroke:none"
         d="M 204.73,145.59 209.613,170 H 326.785 L 251.871,155.016 204.73,145.59" /><path
         id="path34"
         style="fill:#62a48d;fill-opacity:1;fill-rule:nonzero;stroke:none"
         d="m 400,227.723 v 226.273 l 2.723,2.719 35.351,35.355 c 5.86,5.86 13.539,8.789 21.215,8.789 7.68,0 15.356,-2.929 21.215,-8.789 l 70.711,-70.711 c 11.715,-11.714 11.715,-30.711 0,-42.425 l -35.356,-35.356 -7.074,-7.07 L 400,227.723" /><path
         id="path36"
         style="fill:#b7b7a7;fill-opacity:1;fill-rule:nonzero;stroke:none"
         d="M 360,187.723 V 190 H 213.613 l 0.547,2.73 5.453,27.27 H 360 v 20 H 223.613 l 6,30 H 360 v 20 H 236.004 l 30,30 H 360 v 20 h -73.996 l 30,30 H 360 v 20 h -23.996 l 59.644,59.645 4.352,4.351 V 400 227.723 l -40,-40" /><path
         id="path38"
         style="fill:#97978c;fill-opacity:1;fill-rule:nonzero;stroke:none"
         d="M 360,270 H 229.613 l 3.403,17.012 2.988,2.988 H 360 v -20" /><path
         id="path40"
         style="fill:#97978c;fill-opacity:1;fill-rule:nonzero;stroke:none"
         d="m 360,320 h -93.996 l 20,20 H 360 v -20" /><path
         id="path42"
         style="fill:#97978c;fill-opacity:1;fill-rule:nonzero;stroke:none"
         d="m 360,370 h -43.996 l 20,20 H 360 v -20" /><path
         id="path44"
         style="fill:#97978c;fill-opacity:1;fill-rule:nonzero;stroke:none"
         d="M 360,220 H 219.613 l 4,20 H 360 v -20" /><path
         id="path46"
         style="fill:#97978c;fill-opacity:1;fill-rule:nonzero;stroke:none"
         d="M 326.785,170 H 209.613 l 4,20 H 360 v -2.277 L 346.152,173.871 326.785,170" /><path
         id="path48"
         style="fill:#c84755;fill-opacity:1;fill-rule:nonzero;stroke:none"
         d="m 508.785,355.648 c -11.715,-11.714 -30.711,-11.714 -42.426,0 l -70.711,70.711 c -11.714,11.715 -11.714,30.711 0,42.426 l 42.426,42.43 c 11.719,11.715 30.711,11.715 42.43,0 l 70.711,-70.711 c 11.715,-11.719 11.715,-30.715 0,-42.43 l -42.43,-42.426" /><path
         id="path50"
         style="fill:#e08e4c;fill-opacity:1;fill-rule:nonzero;stroke:none"
         d="M 261.301,277.867 233.016,306.152 402.723,475.859 431.004,447.574 261.301,277.867" /><path
         id="path52"
         style="fill:#f3cc70;fill-opacity:1;fill-rule:nonzero;stroke:none"
         d="m 303.727,207.156 -56.571,56.571 183.848,183.847 56.57,-56.57 -183.847,-183.848" /><path
         id="path54"
         style="fill:#e08e4c;fill-opacity:1;fill-rule:nonzero;stroke:none"
         d="M 346.152,193.016 317.867,221.301 487.574,391.004 515.859,362.723 346.152,193.016" /><path
         id="path56"
         style="fill:#495672;fill-opacity:1;fill-rule:nonzero;stroke:none"
         d="m 204.73,164.73 47.141,9.43 -37.711,37.711 z" /><path
         id="path58"
         style="fill:#ffffff;fill-opacity:1;fill-rule:nonzero;stroke:none"
         d="m 233.016,306.152 -18.856,-94.281 37.711,-37.711 94.281,18.856 -14.14,14.14 v 28.285 h -56.571 v 56.567 h -28.285 l -14.14,14.144" /></g></g></svg>