<?xml version="1.0" encoding="UTF-8" standalone="no"?>
<svg
   xmlns:dc="http://purl.org/dc/elements/1.1/"
   xmlns:cc="http://creativecommons.org/ns#"
   xmlns:rdf="http://www.w3.org/1999/02/22-rdf-syntax-ns#"
   xmlns:svg="http://www.w3.org/2000/svg"
   xmlns="http://www.w3.org/2000/svg"
   viewBox="0 0 85.333336 85.333336"
   height="85.333336"
   width="85.333336"
   xml:space="preserve"
   id="svg2"
   version="1.1"><metadata
     id="metadata8"><rdf:RDF><cc:Work
         rdf:about=""><dc:format>image/svg+xml</dc:format><dc:type
           rdf:resource="http://purl.org/dc/dcmitype/StillImage" /></cc:Work></rdf:RDF></metadata><defs
     id="defs6" /><g
     transform="matrix(1.3333333,0,0,-1.3333333,0,85.333333)"
     id="g10"><g
       transform="scale(0.1)"
       id="g12"><path
         id="path14"
         style="fill:#77caa9;fill-opacity:1;fill-rule:nonzero;stroke:none"
         d="M 640,320 C 640,143.27 496.73,0 320,0 143.27,0 0,143.27 0,320 0,496.73 143.27,640 320,640 496.73,640 640,496.73 640,320" /><path
         id="path16"
         style="fill:#62a48d;fill-opacity:1;fill-rule:nonzero;stroke:none"
         d="M 420,100 H 220 c -11.047,0 -20,8.953 -20,20 0,11.047 8.953,20 20,20 h 200 c 11.047,0 20,-8.953 20,-20 0,-11.047 -8.953,-20 -20,-20" /><path
         id="path18"
         style="fill:#ffffff;fill-opacity:1;fill-rule:nonzero;stroke:none"
         d="m 440,140 c 0,-11.047 -8.953,-20 -20,-20 H 220 c -11.047,0 -20,8.953 -20,20 0,11.047 8.953,20 20,20 h 200 c 11.047,0 20,-8.953 20,-20" /><path
         id="path20"
         style="fill:#e1e3cc;fill-opacity:1;fill-rule:nonzero;stroke:none"
         d="m 370,220 c 0,0 -10,-60 30,-60 0,0 -200,0 -160,0 40,0 30,60 30,60 h 100" /><path
         id="path22"
         style="fill:#62a48d;fill-opacity:1;fill-rule:nonzero;stroke:none"
         d="M 480,200 H 368.984 c -0.48,11.016 1.016,20 1.016,20 h 110 c 22.09,0 40,17.91 40,40 v -20 c 0,-22.09 -17.91,-40 -40,-40 m -208.984,0 H 160 c -22.09,0 -40,17.91 -40,40 v 220 0 -200 c 0,-22.09 17.91,-40 40,-40 h 110 c 0,0 1.496,-8.984 1.016,-20" /><path
         id="path24"
         style="fill:#b7b7a7;fill-opacity:1;fill-rule:nonzero;stroke:none"
         d="m 368.984,200 h -97.968 c 0.48,11.016 -1.016,20 -1.016,20 h 100 c 0,0 -1.496,-8.984 -1.016,-20" /><path
         id="path26"
         style="fill:#495672;fill-opacity:1;fill-rule:nonzero;stroke:none"
         d="m 160,235 c -13.789,0 -25,11.211 -25,25 v 220 c 0,13.789 11.211,25 25,25 h 320 c 13.789,0 25,-11.211 25,-25 V 260 c 0,-13.789 -11.211,-25 -25,-25 H 160" /><path
         id="path28"
         style="fill:#ffffff;fill-opacity:1;fill-rule:nonzero;stroke:none"
         d="M 480,520 H 160 c -22.09,0 -40,-17.91 -40,-40 V 260 c 0,-22.09 17.91,-40 40,-40 h 320 c 22.09,0 40,17.91 40,40 v 220 c 0,22.09 -17.91,40 -40,40 m 0,-30 c 5.516,0 10,-4.484 10,-10 V 260 c 0,-5.516 -4.484,-10 -10,-10 H 160 c -5.516,0 -10,4.484 -10,10 v 220 c 0,5.516 4.484,10 10,10 h 320" /><path
         id="path30"
         style="fill:#6c7990;fill-opacity:1;fill-rule:nonzero;stroke:none"
         d="M 480,250 H 406.973 L 268.941,490 H 480 c 5.516,0 10,-4.484 10,-10 V 260 c 0,-5.516 -4.484,-10 -10,-10" /><path
         id="path32"
         style="fill:#ffffff;fill-opacity:1;fill-rule:nonzero;stroke:none"
         d="M 500.012,241.215 H 412.027 L 406.973,250 H 480 c 5.516,0 10,4.484 10,10 v 220 c 0,5.516 -4.484,10 -10,10 H 268.941 l -6.441,11.195 h 237.512 v -259.98" /></g></g></svg>