<?xml version="1.0" encoding="UTF-8" standalone="no"?>
<svg
   xmlns:dc="http://purl.org/dc/elements/1.1/"
   xmlns:cc="http://creativecommons.org/ns#"
   xmlns:rdf="http://www.w3.org/1999/02/22-rdf-syntax-ns#"
   xmlns:svg="http://www.w3.org/2000/svg"
   xmlns="http://www.w3.org/2000/svg"
   viewBox="0 0 85.333336 85.333336"
   height="85.333336"
   width="85.333336"
   xml:space="preserve"
   id="svg2"
   version="1.1"><metadata
     id="metadata8"><rdf:RDF><cc:Work
         rdf:about=""><dc:format>image/svg+xml</dc:format><dc:type
           rdf:resource="http://purl.org/dc/dcmitype/StillImage" /></cc:Work></rdf:RDF></metadata><defs
     id="defs6" /><g
     transform="matrix(1.3333333,0,0,-1.3333333,0,85.333333)"
     id="g10"><g
       transform="scale(0.1)"
       id="g12"><path
         id="path14"
         style="fill:#495672;fill-opacity:1;fill-rule:nonzero;stroke:none"
         d="M 640,320 C 640,143.27 496.73,0 320,0 143.27,0 0,143.27 0,320 0,496.73 143.27,640 320,640 496.73,640 640,496.73 640,320" /><path
         id="path16"
         style="fill:#7db6d8;fill-opacity:1;fill-rule:nonzero;stroke:none"
         d="m 540,320 c 0,-121.504 -98.496,-220 -220,-220 -121.504,0 -220,98.496 -220,220 0,121.504 98.496,220 220,220 121.504,0 220,-98.496 220,-220" /><path
         id="path18"
         style="fill:#404a5f;fill-opacity:1;fill-rule:nonzero;stroke:none"
         d="m 320,80 c -121.504,0 -220,98.496 -220,220 0,3.352 0.074,6.684 0.223,10 C 105.453,193.141 201.848,100 320,100 438.152,100 534.547,193.141 539.777,310 539.926,306.684 540,303.352 540,300 540,178.496 441.504,80 320,80" /><path
         id="path20"
         style="fill:#6594b2;fill-opacity:1;fill-rule:nonzero;stroke:none"
         d="M 499.727,310 C 494.52,404.617 415.895,480 320,480 224.105,480 145.48,404.617 140.273,310 c -0.179,3.313 -0.273,6.645 -0.273,10 0,99.254 80.746,180 180,180 99.254,0 180,-80.746 180,-180 0,-3.355 -0.094,-6.687 -0.273,-10" /><path
         id="path22"
         style="fill:#ffffff;fill-opacity:1;fill-rule:nonzero;stroke:none"
         d="m 320,540 c -121.504,0 -220,-98.496 -220,-220 0,-121.504 98.496,-220 220,-220 121.504,0 220,98.496 220,220 0,121.504 -98.496,220 -220,220 m 0,-40 c 99.254,0 180,-80.746 180,-180 0,-99.254 -80.746,-180 -180,-180 -99.254,0 -180,80.746 -180,180 0,99.254 80.746,180 180,180" /><path
         id="path24"
         style="fill:#6594b2;fill-opacity:1;fill-rule:nonzero;stroke:none"
         d="m 232.5,200 c -3.227,0 -6.426,1.25 -8.852,3.648 -4.125,4.125 -4.847,10.528 -1.75,15.454 l 2.446,3.914 c 2.324,-1.985 5.23,-3.016 8.156,-3.016 2.301,0 4.602,0.625 6.625,1.898 l 46.523,29.051 9.278,5.785 c 6.394,-3.714 13.691,-6.054 21.48,-6.605 l -30.758,-19.18 -46.523,-29.051 C 237.102,200.625 234.801,200 232.5,200 m 137.371,103.594 c -0.391,5.523 -1.68,10.801 -3.723,15.683 2.223,2.348 3.54,3.821 3.528,3.996 l 19.375,31.051 26.601,42.625 c 0.231,-0.195 0.453,-0.406 0.672,-0.625 4.153,-4.097 4.875,-10.5 1.778,-15.449 l -29.051,-46.551 -19.18,-30.73" /><path
         id="path26"
         style="fill:#c84755;fill-opacity:1;fill-rule:nonzero;stroke:none"
         d="m 295,320 c 0,-13.809 11.191,-25 25,-25 13.809,0 25,11.191 25,25 0,13.809 -11.191,25 -25,25 -13.809,0 -25,-11.191 -25,-25 m 123.102,80.875 -29.051,-46.551 -19.375,-31.051 c 0.074,-1.097 -51.852,-53.023 -52.949,-52.949 L 285.648,250.949 239.125,221.898 C 237.102,220.625 234.801,220 232.5,220 c -3.227,0 -6.426,1.25 -8.852,3.648 -4.125,4.125 -4.847,10.528 -1.75,15.454 l 29.051,46.546 19.375,31.051 c -0.074,1.125 51.852,53.051 52.949,52.977 l 31.079,19.375 46.523,29.051 c 4.852,3.074 11.324,2.347 15.449,-1.778 4.153,-4.097 4.875,-10.5 1.778,-15.449" /><path
         id="path28"
         style="fill:#6594b2;fill-opacity:1;fill-rule:nonzero;stroke:none"
         d="m 320,250 c -1.207,0 -2.406,0.043 -3.594,0.129 l 0.321,0.195 v 0 c 1.175,0 53.023,51.852 52.949,52.949 l 0.195,0.321 C 369.957,302.406 370,301.207 370,300 c 0,-27.613 -22.387,-50 -50,-50 m 2.016,25.078 c 5.433,5.192 14.269,13.914 22.871,22.527 -1.141,-12.019 -10.797,-21.562 -22.871,-22.527" /><path
         id="path30"
         style="fill:#567a95;fill-opacity:1;fill-rule:nonzero;stroke:none"
         d="m 316.406,250.129 c -7.789,0.551 -15.086,2.891 -21.48,6.605 l 21.801,13.59 v 0 c 0.218,0 2.207,1.809 5.289,4.754 12.074,0.965 21.73,10.508 22.871,22.527 8.492,8.504 16.75,16.899 21.261,21.672 2.043,-4.882 3.332,-10.16 3.723,-15.683 l -0.195,-0.321 c 0.074,-1.097 -51.774,-52.949 -52.949,-52.949 v 0 l -0.321,-0.195" /><path
         id="path32"
         style="fill:#6594b2;fill-opacity:1;fill-rule:nonzero;stroke:none"
         d="m 320,295 c -10.254,0 -19.062,6.172 -22.922,15 3.86,8.828 12.668,15 22.922,15 10.254,0 19.063,-6.172 22.922,-15 -3.859,-8.828 -12.668,-15 -22.922,-15 m -24.887,27.391 c 1.141,12.023 10.797,21.566 22.871,22.531 -5.433,-5.192 -14.273,-13.918 -22.871,-22.531" /><path
         id="path34"
         style="fill:#567a95;fill-opacity:1;fill-rule:nonzero;stroke:none"
         d="m 342.922,310 c -3.859,8.828 -12.668,15 -22.922,15 -10.254,0 -19.062,-6.172 -22.922,-15 -1.336,3.063 -2.078,6.445 -2.078,10 0,0.809 0.039,1.602 0.113,2.391 8.598,8.613 17.438,17.339 22.871,22.531 0.664,0.051 1.336,0.078 2.016,0.078 13.809,0 25,-11.191 25,-25 0,-3.555 -0.742,-6.937 -2.078,-10" /><path
         id="path36"
         style="fill:#6594b2;fill-opacity:1;fill-rule:nonzero;stroke:none"
         d="m 275.098,322.023 c 4.761,9.688 12.566,17.614 22.168,22.524 -8.489,-8.484 -17.043,-17.156 -22.168,-22.524" /><path
         id="path38"
         style="fill:#a43f4a;fill-opacity:1;fill-rule:nonzero;stroke:none"
         d="M 294.926,256.734 C 280.02,265.391 270,281.523 270,300 c 0,7.902 1.836,15.379 5.098,22.023 5.125,5.368 13.679,14.04 22.168,22.524 6.82,3.484 14.547,5.453 22.734,5.453 20.781,0 38.602,-12.68 46.148,-30.723 -4.511,-4.773 -12.769,-13.168 -21.261,-21.672 -8.602,-8.613 -17.438,-17.335 -22.871,-22.527 -3.082,-2.945 -5.071,-4.754 -5.289,-4.754 v 0 l -21.801,-13.59 M 297.078,310 c 3.86,-8.828 12.668,-15 22.922,-15 10.254,0 19.063,6.172 22.922,15 1.336,3.063 2.078,6.445 2.078,10 0,13.809 -11.191,25 -25,25 -0.68,0 -1.352,-0.027 -2.016,-0.078 -12.074,-0.965 -21.73,-10.508 -22.871,-22.531 C 295.039,321.602 295,320.809 295,320 c 0,-3.555 0.742,-6.937 2.078,-10" /><path
         id="path40"
         style="fill:#ffffff;fill-opacity:1;fill-rule:nonzero;stroke:none"
         d="m 370,320 c 0,-27.613 -22.387,-50 -50,-50 -27.613,0 -50,22.387 -50,50 0,27.613 22.387,50 50,50 27.613,0 50,-22.387 50,-50" /></g></g></svg>