<?xml version="1.0" encoding="UTF-8" standalone="no"?>
<svg
   xmlns:dc="http://purl.org/dc/elements/1.1/"
   xmlns:cc="http://creativecommons.org/ns#"
   xmlns:rdf="http://www.w3.org/1999/02/22-rdf-syntax-ns#"
   xmlns:svg="http://www.w3.org/2000/svg"
   xmlns="http://www.w3.org/2000/svg"
   viewBox="0 0 85.333336 85.333336"
   height="85.333336"
   width="85.333336"
   xml:space="preserve"
   id="svg2"
   version="1.1"><metadata
     id="metadata8"><rdf:RDF><cc:Work
         rdf:about=""><dc:format>image/svg+xml</dc:format><dc:type
           rdf:resource="http://purl.org/dc/dcmitype/StillImage" /></cc:Work></rdf:RDF></metadata><defs
     id="defs6" /><g
     transform="matrix(1.3333333,0,0,-1.3333333,0,85.333333)"
     id="g10"><g
       transform="scale(0.1)"
       id="g12"><path
         id="path14"
         style="fill:#495672;fill-opacity:1;fill-rule:nonzero;stroke:none"
         d="M 640,320 C 640,143.27 496.73,0 320,0 143.27,0 0,143.27 0,320 0,496.73 143.27,640 320,640 496.73,640 640,496.73 640,320" /><path
         id="path16"
         style="fill:#404a5f;fill-opacity:1;fill-rule:nonzero;stroke:none"
         d="m 320,60 c -8.285,0 -15,6.7148 -15,15 v 25.758 c -16.859,1.254 -33.121,4.551 -48.559,9.73 l -9.972,-23.6677 c -2.414,-5.7305 -7.977,-9.1797 -13.828,-9.1797 -1.942,0 -3.914,0.3828 -5.821,1.1836 -7.632,3.2188 -11.215,12.0117 -7.996,19.6485 l 9.973,23.6753 c -14.098,7.247 -27.203,16.082 -39.106,26.332 l -18.183,-18.183 c -2.93,-2.93 -6.766,-4.395 -10.606,-4.395 -3.836,0 -7.675,1.465 -10.605,4.395 -5.859,5.855 -5.859,15.355 0,21.211 l 18.183,18.183 c -10.765,12.504 -19.933,26.36 -27.371,41.27 l -23.836,-9.707 c -1.851,-0.758 -3.765,-1.113 -5.652,-1.113 -5.918,0 -11.527,3.527 -13.8944,9.347 -3.125,7.676 0.5586,16.426 8.2304,19.551 l 23.707,9.652 c -4.75,14.758 -7.715,30.278 -8.906,46.309 H 95 c -8.2852,0 -15,6.715 -15,15 0,8.285 6.7148,15 15,15 h 25.758 c 1.254,16.859 4.551,33.121 9.73,48.559 l -23.668,9.972 c -7.6325,3.215 -11.2145,12.012 -7.9958,19.649 2.4138,5.734 7.9768,9.175 13.8278,9.175 1.942,0 3.918,-0.378 5.821,-1.179 l 23.675,-9.973 c 7.247,14.098 16.082,27.203 26.332,39.106 l -18.183,18.183 c -5.859,5.856 -5.859,15.356 0,21.211 2.93,2.93 6.769,4.395 10.605,4.395 3.84,0 7.676,-1.465 10.606,-4.395 l 18.183,-18.183 c 12.504,10.765 26.36,19.933 41.27,27.371 l -9.707,23.836 c -3.125,7.671 0.562,16.421 8.234,19.546 1.856,0.758 3.774,1.118 5.66,1.118 5.918,0 11.524,-3.532 13.891,-9.348 l 9.652,-23.707 c 14.758,4.75 30.278,7.715 46.309,8.906 V 525 c 0,8.285 6.715,15 15,15 8.285,0 15,-6.715 15,-15 v -25.758 c 16.859,-1.254 33.121,-4.551 48.559,-9.73 l 9.972,23.668 c 2.418,5.734 7.989,9.172 13.84,9.172 1.938,0 3.91,-0.379 5.809,-1.176 7.633,-3.215 11.215,-12.012 7.996,-19.649 l -9.973,-23.675 c 14.098,-7.247 27.203,-16.082 39.106,-26.332 l 18.183,18.183 c 2.93,2.93 6.766,4.395 10.606,4.395 3.836,0 7.675,-1.465 10.605,-4.395 5.86,-5.855 5.86,-15.355 0,-21.211 L 471.52,430.309 c 10.765,-12.504 19.933,-26.36 27.371,-41.266 l 23.836,9.703 c 1.851,0.758 3.769,1.113 5.656,1.113 5.918,0 11.527,-3.531 13.89,-9.347 3.125,-7.676 -0.558,-16.426 -8.23,-19.551 l -23.707,-9.652 c 4.75,-14.758 7.715,-30.278 8.906,-46.309 H 545 c 8.285,0 15,-6.715 15,-15 0,-8.285 -6.715,-15 -15,-15 h -25.758 c -1.254,-16.859 -4.551,-33.121 -9.73,-48.559 l 23.668,-9.972 c 7.633,-3.215 11.215,-12.012 7.996,-19.649 -2.414,-5.73 -7.977,-9.179 -13.828,-9.179 -1.942,0 -3.914,0.382 -5.821,1.183 l -23.675,9.973 C 490.605,194.699 481.77,181.594 471.52,169.691 l 18.183,-18.183 c 5.86,-5.856 5.86,-15.356 0,-21.211 -2.93,-2.93 -6.769,-4.395 -10.605,-4.395 -3.84,0 -7.676,1.465 -10.606,4.395 l -18.183,18.183 c -12.504,-10.765 -26.36,-19.933 -41.27,-27.371 l 9.707,-23.8356 c 3.125,-7.6718 -0.562,-16.4218 -8.234,-19.5468 -1.856,-0.7578 -3.77,-1.1172 -5.653,-1.1172 -5.918,0 -11.531,3.5273 -13.898,9.3476 l -9.652,23.707 C 366.551,104.914 351.031,101.949 335,100.758 V 75 c 0,-8.2852 -6.715,-15 -15,-15 m 0,410 c -93.738,0 -170,-76.262 -170,-170 0,-93.738 76.262,-170 170,-170 93.738,0 170,76.262 170,170 0,93.738 -76.262,170 -170,170" /><path
         id="path18"
         style="fill:#404a5f;fill-opacity:1;fill-rule:nonzero;stroke:none"
         d="m 320,160 c -77.32,0 -140,62.68 -140,140 0,77.32 62.68,140 140,140 77.32,0 140,-62.68 140,-140 0,-77.32 -62.68,-140 -140,-140 m 0,250 c -60.652,0 -110,-49.348 -110,-110 0,-60.652 49.348,-110 110,-110 v 220" /><path
         id="path20"
         style="fill:#e1e3cc;fill-opacity:1;fill-rule:nonzero;stroke:none"
         d="m 490,320 c 0,-93.738 -76.262,-170 -170,-170 -93.738,0 -170,76.262 -170,170 0,93.738 76.262,170 170,170 93.738,0 170,-76.262 170,-170 z m 55,15 h -25.758 c -1.191,16.031 -4.156,31.551 -8.906,46.309 l 23.707,9.652 c 7.672,3.125 11.355,11.875 8.23,19.551 -3.117,7.672 -11.875,11.367 -19.546,8.234 l -23.836,-9.703 c -7.438,14.906 -16.606,28.762 -27.371,41.266 l 18.183,18.183 c 5.86,5.856 5.86,15.356 0,21.211 -5.859,5.86 -15.351,5.86 -21.211,0 L 450.309,471.52 c -11.903,10.25 -25.008,19.085 -39.106,26.332 l 9.973,23.675 c 3.219,7.637 -0.363,16.434 -7.996,19.649 -7.621,3.203 -16.426,-0.36 -19.649,-7.996 l -9.972,-23.668 c -15.438,5.179 -31.7,8.476 -48.559,9.73 L 335,545 c 0,8.285 -6.715,15 -15,15 -8.285,0 -15,-6.715 -15,-15 v -25.758 c -16.031,-1.191 -31.551,-4.156 -46.309,-8.906 l -9.652,23.707 c -3.121,7.672 -11.871,11.367 -19.551,8.23 -7.672,-3.125 -11.359,-11.875 -8.234,-19.546 l 9.707,-23.836 c -14.91,-7.438 -28.766,-16.606 -41.27,-27.371 l -18.183,18.183 c -5.86,5.86 -15.352,5.86 -21.211,0 -5.859,-5.855 -5.859,-15.355 0,-21.211 l 18.183,-18.183 c -10.25,-11.903 -19.085,-25.008 -26.332,-39.106 l -23.675,9.973 c -7.637,3.215 -16.434,-0.36 -19.6488,-7.996 -3.2187,-7.637 0.3633,-16.434 7.9958,-19.649 l 23.668,-9.972 c -5.179,-15.438 -8.476,-31.7 -9.73,-48.559 H 95 c -8.2852,0 -15,-6.715 -15,-15 0,-8.285 6.7148,-15 15,-15 h 25.758 c 1.191,-16.031 4.156,-31.551 8.906,-46.309 l -23.707,-9.652 c -7.6718,-3.125 -11.3554,-11.875 -8.2304,-19.551 2.3674,-5.82 7.9764,-9.347 13.8944,-9.347 1.887,0 3.801,0.355 5.652,1.113 l 23.836,9.707 c 7.438,-14.91 16.606,-28.766 27.371,-41.27 l -18.183,-18.183 c -5.859,-5.856 -5.859,-15.356 0,-21.211 2.93,-2.93 6.769,-4.395 10.605,-4.395 3.84,0 7.676,1.465 10.606,4.395 l 18.183,18.183 c 11.903,-10.25 25.008,-19.085 39.106,-26.332 l -9.973,-23.675 c -3.219,-7.637 0.364,-16.43 7.996,-19.6488 1.907,-0.8008 3.879,-1.1836 5.821,-1.1836 5.851,0 11.414,3.4494 13.828,9.1794 l 9.972,23.668 c 15.438,-5.179 31.7,-8.476 48.559,-9.73 V 95 c 0,-8.2852 6.715,-15 15,-15 8.285,0 15,6.7148 15,15 v 25.758 c 16.031,1.191 31.551,4.156 46.309,8.906 l 9.652,-23.707 c 2.367,-5.82 7.98,-9.3476 13.898,-9.3476 1.883,0 3.797,0.3594 5.653,1.1172 7.672,3.1254 11.359,11.8754 8.234,19.5464 l -9.707,23.836 c 14.91,7.438 28.766,16.606 41.27,27.371 l 18.183,-18.183 c 2.93,-2.93 6.766,-4.395 10.606,-4.395 3.836,0 7.675,1.465 10.605,4.395 5.86,5.855 5.86,15.355 0,21.211 l -18.183,18.183 c 10.25,11.903 19.085,25.008 26.332,39.106 l 23.675,-9.973 c 1.907,-0.801 3.879,-1.183 5.821,-1.183 5.851,0 11.414,3.449 13.828,9.179 3.219,7.637 -0.363,16.434 -7.996,19.649 l -23.668,9.972 c 5.179,15.438 8.476,31.7 9.73,48.559 H 545 c 8.285,0 15,6.715 15,15 0,8.285 -6.715,15 -15,15" /><path
         id="path22"
         style="fill:#e1e3cc;fill-opacity:1;fill-rule:nonzero;stroke:none"
         d="m 210,320 c 0,60.652 49.348,110 110,110 V 210 c -60.652,0 -110,49.348 -110,110 z m 110,140 c -77.32,0 -140,-62.68 -140,-140 0,-77.32 62.68,-140 140,-140 77.32,0 140,62.68 140,140 0,77.32 -62.68,140 -140,140" /></g></g></svg>