<?xml version="1.0" encoding="UTF-8" standalone="no"?>
<svg
   xmlns:dc="http://purl.org/dc/elements/1.1/"
   xmlns:cc="http://creativecommons.org/ns#"
   xmlns:rdf="http://www.w3.org/1999/02/22-rdf-syntax-ns#"
   xmlns:svg="http://www.w3.org/2000/svg"
   xmlns="http://www.w3.org/2000/svg"
   viewBox="0 0 85.333336 85.333336"
   height="85.333336"
   width="85.333336"
   xml:space="preserve"
   id="svg2"
   version="1.1"><metadata
     id="metadata8"><rdf:RDF><cc:Work
         rdf:about=""><dc:format>image/svg+xml</dc:format><dc:type
           rdf:resource="http://purl.org/dc/dcmitype/StillImage" /></cc:Work></rdf:RDF></metadata><defs
     id="defs6" /><g
     transform="matrix(1.3333333,0,0,-1.3333333,0,85.333333)"
     id="g10"><g
       transform="scale(0.1)"
       id="g12"><path
         id="path14"
         style="fill:#f3cc70;fill-opacity:1;fill-rule:nonzero;stroke:none"
         d="M 640,320 C 640,143.27 496.73,0 320,0 143.27,0 0,143.27 0,320 0,496.73 143.27,640 320,640 496.73,640 640,496.73 640,320" /><path
         id="path16"
         style="fill:#e08e4c;fill-opacity:1;fill-rule:nonzero;stroke:none"
         d="M 320,496 V 320 L 443.199,188 C 575.199,364 417.203,496 320,496" /><path
         id="path18"
         style="fill:#c7a85f;fill-opacity:1;fill-rule:nonzero;stroke:none"
         d="M 320,65 C 190.422,65 85,170.422 85,300 85,429.578 190.422,535 320,535 449.578,535 555,429.578 555,300 555,170.422 449.578,65 320,65 M 504.238,285 C 496.961,194.957 425.043,123.039 335,115.762 V 95.7617 C 436.063,103.133 516.867,183.938 524.238,285 h -20 m -388.476,0 C 123.133,183.938 203.938,103.133 305,95.7617 V 115.762 C 214.957,123.039 143.039,194.957 135.762,285 h -20 M 335,285 V 145.762 c 39.672,3.828 75.012,22.664 100.254,50.754 L 443.199,188 c 76.41,101.879 55.649,189.016 5.754,244.34 31.098,-30.313 51.578,-71.477 55.285,-117.34 h 20 C 516.867,416.063 436.063,496.867 335,504.238 v -9.218 c -5.125,0.652 -10.137,0.98 -15,0.98 V 320 l 32.668,-35 H 335 m -169.238,0 C 172.855,211.488 231.488,152.855 305,145.762 V 285 H 165.762 M 305,454.238 C 231.488,447.145 172.855,388.512 165.762,315 H 305 v 139.238 m 0,50 C 203.938,496.867 123.133,416.063 115.762,315 h 20 c 7.277,90.043 79.195,161.961 169.238,169.238 v 20" /><path
         id="path20"
         style="fill:#b77744;fill-opacity:1;fill-rule:nonzero;stroke:none"
         d="m 443.199,188 -7.945,8.516 c 21.531,23.957 35.719,54.644 38.984,88.484 H 352.668 L 320,320 v 176 c 4.863,0 9.875,-0.328 15,-0.98 v -10.782 c 44.18,-3.57 83.992,-22.699 113.953,-51.898 C 498.848,377.016 519.609,289.879 443.199,188 M 335,454.238 V 315 H 474.238 C 467.145,388.512 408.512,447.145 335,454.238" /><path
         id="path22"
         style="fill:#495672;fill-opacity:1;fill-rule:nonzero;stroke:none"
         d="m 335,115.762 v 20 c 90.043,7.277 161.961,79.195 169.238,169.238 h 20 C 516.867,203.938 436.063,123.133 335,115.762 Z M 115.762,305 h 20 C 143.039,214.957 214.957,143.039 305,135.762 v -20 C 203.938,123.133 123.133,203.938 115.762,305 Z M 305,524.238 v -20 C 214.957,496.961 143.039,425.043 135.762,335 h -20 C 123.133,436.063 203.938,516.867 305,524.238 Z M 335,335 V 474.238 C 408.512,467.145 467.145,408.512 474.238,335 Z m 0,-30 H 474.238 C 467.145,231.488 408.512,172.855 335,165.762 Z m -30,0 V 165.762 C 231.488,172.855 172.855,231.488 165.762,305 Z m 0,30 H 165.762 c 7.093,73.512 65.726,132.145 139.238,139.238 z m 219.238,0 h -20 C 496.961,425.043 425.043,496.961 335,504.238 v 20 C 436.063,516.867 516.867,436.063 524.238,335 Z M 320,555 C 190.422,555 85,449.578 85,320 85,190.422 190.422,85 320,85 449.578,85 555,190.422 555,320 555,449.578 449.578,555 320,555" /></g></g></svg>