<?xml version="1.0" encoding="UTF-8" standalone="no"?>
<svg
   xmlns:dc="http://purl.org/dc/elements/1.1/"
   xmlns:cc="http://creativecommons.org/ns#"
   xmlns:rdf="http://www.w3.org/1999/02/22-rdf-syntax-ns#"
   xmlns:svg="http://www.w3.org/2000/svg"
   xmlns="http://www.w3.org/2000/svg"
   viewBox="0 0 85.333336 85.333336"
   height="85.333336"
   width="85.333336"
   xml:space="preserve"
   id="svg2"
   version="1.1"><metadata
     id="metadata8"><rdf:RDF><cc:Work
         rdf:about=""><dc:format>image/svg+xml</dc:format><dc:type
           rdf:resource="http://purl.org/dc/dcmitype/StillImage" /></cc:Work></rdf:RDF></metadata><defs
     id="defs6" /><g
     transform="matrix(1.3333333,0,0,-1.3333333,0,85.333333)"
     id="g10"><g
       transform="scale(0.1)"
       id="g12"><path
         id="path14"
         style="fill:#7db6d8;fill-opacity:1;fill-rule:nonzero;stroke:none"
         d="M 640,320 C 640,143.27 496.73,0 320,0 143.27,0 0,143.27 0,320 0,496.73 143.27,640 320,640 496.73,640 640,496.73 640,320" /><path
         id="path16"
         style="fill:#6594b2;fill-opacity:1;fill-rule:nonzero;stroke:none"
         d="M 480,150 H 160 c -22.094,0 -40,17.91 -40,40 v 200 c 0,22.09 17.906,40 40,40 h 320 c 22.09,0 40,-17.91 40,-40 V 190 c 0,-22.09 -17.91,-40 -40,-40" /><path
         id="path18"
         style="fill:#ffffff;fill-opacity:1;fill-rule:nonzero;stroke:none"
         d="m 520,210 c 0,-22.09 -17.91,-40 -40,-40 H 160 c -22.094,0 -40,17.91 -40,40 v 200 c 0,22.09 17.906,40 40,40 h 320 c 22.09,0 40,-17.91 40,-40 V 210" /><path
         id="path20"
         style="fill:#495672;fill-opacity:1;fill-rule:nonzero;stroke:none"
         d="M 520,330 H 120 v 60 h 400 v -60" /><path
         id="path22"
         style="fill:#e08e4c;fill-opacity:1;fill-rule:nonzero;stroke:none"
         d="m 400,230 c 0,11.047 -8.953,20 -20,20 -11.047,0 -20,-8.953 -20,-20 0,-11.047 8.953,-20 20,-20 11.047,0 20,8.953 20,20" /><path
         id="path24"
         style="fill:#e08e4c;fill-opacity:1;fill-rule:nonzero;stroke:none"
         d="m 480,230 c 0,11.047 -8.953,20 -20,20 -11.047,0 -20,-8.953 -20,-20 0,-11.047 8.953,-20 20,-20 11.047,0 20,8.953 20,20" /><path
         id="path26"
         style="fill:#e08e4c;fill-opacity:1;fill-rule:nonzero;stroke:none"
         d="m 320,230 c 0,11.047 -8.953,20 -20,20 -11.047,0 -20,-8.953 -20,-20 0,-11.047 8.953,-20 20,-20 11.047,0 20,8.953 20,20" /></g></g></svg>