<?xml version="1.0" encoding="UTF-8" standalone="no"?>
<svg
   xmlns:dc="http://purl.org/dc/elements/1.1/"
   xmlns:cc="http://creativecommons.org/ns#"
   xmlns:rdf="http://www.w3.org/1999/02/22-rdf-syntax-ns#"
   xmlns:svg="http://www.w3.org/2000/svg"
   xmlns="http://www.w3.org/2000/svg"
   viewBox="0 0 85.333336 85.333336"
   height="85.333336"
   width="85.333336"
   xml:space="preserve"
   id="svg2"
   version="1.1"><metadata
     id="metadata8"><rdf:RDF><cc:Work
         rdf:about=""><dc:format>image/svg+xml</dc:format><dc:type
           rdf:resource="http://purl.org/dc/dcmitype/StillImage" /></cc:Work></rdf:RDF></metadata><defs
     id="defs6" /><g
     transform="matrix(1.3333333,0,0,-1.3333333,0,85.333333)"
     id="g10"><g
       transform="scale(0.1)"
       id="g12"><path
         id="path14"
         style="fill:#e1e3cc;fill-opacity:1;fill-rule:nonzero;stroke:none"
         d="M 640,320 C 640,143.27 496.73,0 320,0 143.27,0 0,143.27 0,320 0,496.73 143.27,640 320,640 496.73,640 640,496.73 640,320" /><path
         id="path16"
         style="fill:#b7b7a7;fill-opacity:1;fill-rule:nonzero;stroke:none"
         d="m 455,90 c -13.785,0 -25,11.215 -25,25 v 25 H 185 c -13.785,0 -25,11.215 -25,25 v 235 h -25 c -13.785,0 -25,11.215 -25,25 0,13.785 11.215,25 25,25 h 25 v 20 c 0,13.785 11.215,25 25,25 13.785,0 25,-11.215 25,-25 V 350 220.352 L 384.648,400 H 240 v 45 h 194.648 l 37.676,37.676 c 4.723,4.722 11,7.324 17.676,7.324 6.676,0 12.953,-2.602 17.672,-7.32 4.726,-4.719 7.328,-11 7.328,-17.68 0,-6.68 -2.602,-12.957 -7.324,-17.676 L 480,419.648 V 220 H 430 V 369.648 L 250.352,190 H 380 h 120 5 c 13.785,0 25,-11.215 25,-25 0,-13.785 -11.215,-25 -25,-25 h -25 v -25 c 0,-13.785 -11.215,-25 -25,-25" /><path
         id="path18"
         style="fill:#495672;fill-opacity:1;fill-rule:nonzero;stroke:none"
         d="M 505,210 H 250.352 L 430,389.648 V 240 h 50 v 199.648 l 27.676,27.676 C 512.398,472.043 515,478.32 515,485 c 0,6.68 -2.602,12.961 -7.328,17.68 -4.719,4.718 -10.996,7.32 -17.672,7.32 -6.676,0 -12.953,-2.602 -17.676,-7.324 L 439.824,470 H 240 V 420 H 389.824 L 210,240.352 V 370 490 c 0,13.785 -11.215,25 -25,25 -13.785,0 -25,-11.215 -25,-25 v -20 h -25 c -13.785,0 -25,-11.215 -25,-25 0,-13.785 11.215,-25 25,-25 h 25 V 185 c 0,-13.785 11.215,-25 25,-25 h 245 v -25 c 0,-13.785 11.215,-25 25,-25 13.785,0 25,11.215 25,25 v 25 h 25 c 13.785,0 25,11.215 25,25 0,13.785 -11.215,25 -25,25" /></g></g></svg>