<?xml version="1.0" encoding="UTF-8" standalone="no"?>
<svg
   xmlns:dc="http://purl.org/dc/elements/1.1/"
   xmlns:cc="http://creativecommons.org/ns#"
   xmlns:rdf="http://www.w3.org/1999/02/22-rdf-syntax-ns#"
   xmlns:svg="http://www.w3.org/2000/svg"
   xmlns="http://www.w3.org/2000/svg"
   viewBox="0 0 85.333336 85.333336"
   height="85.333336"
   width="85.333336"
   xml:space="preserve"
   id="svg2"
   version="1.1"><metadata
     id="metadata8"><rdf:RDF><cc:Work
         rdf:about=""><dc:format>image/svg+xml</dc:format><dc:type
           rdf:resource="http://purl.org/dc/dcmitype/StillImage" /></cc:Work></rdf:RDF></metadata><defs
     id="defs6" /><g
     transform="matrix(1.3333333,0,0,-1.3333333,0,85.333333)"
     id="g10"><g
       transform="scale(0.1)"
       id="g12"><path
         id="path14"
         style="fill:#7db6d8;fill-opacity:1;fill-rule:nonzero;stroke:none"
         d="M 640,320 C 640,143.27 496.73,0 320,0 143.27,0 0,143.27 0,320 0,496.73 143.27,640 320,640 496.73,640 640,496.73 640,320" /><path
         id="path16"
         style="fill:#6594b2;fill-opacity:1;fill-rule:nonzero;stroke:none"
         d="m 320,40 c -11.047,0 -20,8.9531 -20,20 V 220 80.0039 c 0,-11.0469 8.953,-20 20,-20 11.047,0 20,8.9531 20,20 V 60 c 0,-11.0469 -8.953,-20 -20,-20" /><path
         id="path18"
         style="fill:#f3cc70;fill-opacity:1;fill-rule:nonzero;stroke:none"
         d="M 300,520.004 V 80.0039 c 0,-11.0469 8.953,-20 20,-20 11.047,0 20,8.9531 20,20 V 520.004 c 0,11.047 -8.953,20 -20,20 -11.047,0 -20,-8.953 -20,-20" /><path
         id="path20"
         style="fill:#6594b2;fill-opacity:1;fill-rule:nonzero;stroke:none"
         d="M 392.438,360 H 340 v 120 h 52.438 c 4.16,0 7.562,-3.598 7.562,-7.992 V 367.992 C 400,363.598 396.598,360 392.438,360 M 300,360 H 184.852 c -4.161,0 -10.043,2.461 -13.079,5.465 l -49.5,49.07 c -3.031,3.004 -3.031,7.926 0,10.93 l 49.5,49.07 c 3.036,3.004 8.918,5.465 13.079,5.465 L 300,480 V 360" /><path
         id="path22"
         style="fill:#c7a85f;fill-opacity:1;fill-rule:nonzero;stroke:none"
         d="m 300,360 h 40 v 120 h -40 z" /><path
         id="path24"
         style="fill:#6594b2;fill-opacity:1;fill-rule:nonzero;stroke:none"
         d="M 495.148,220 H 340 v 120 h 155.148 c 4.161,0 10.043,-2.461 13.079,-5.465 l 49.5,-49.07 c 3.031,-3.004 3.031,-7.926 0,-10.93 l -49.5,-49.07 C 505.191,222.461 499.309,220 495.148,220 M 300,220 h -52.437 c -4.161,0 -7.563,3.598 -7.563,7.992 v 104.016 c 0,4.394 3.402,7.992 7.563,7.992 H 300 V 220" /><path
         id="path26"
         style="fill:#c7a85f;fill-opacity:1;fill-rule:nonzero;stroke:none"
         d="m 300,220 h 40 v 120 h -40 z" /><path
         id="path28"
         style="fill:#495672;fill-opacity:1;fill-rule:nonzero;stroke:none"
         d="m 184.852,500 c -4.161,0 -10.043,-2.461 -13.079,-5.465 l -49.5,-49.07 c -3.031,-3.004 -3.031,-7.926 0,-10.93 l 49.5,-49.07 c 3.036,-3.004 8.918,-5.465 13.079,-5.465 h 207.586 c 4.16,0 7.562,3.598 7.562,7.992 v 104.016 c 0,4.394 -3.402,7.992 -7.562,7.992 H 184.852" /><path
         id="path30"
         style="fill:#ffffff;fill-opacity:1;fill-rule:nonzero;stroke:none"
         d="m 495.148,240 c 4.161,0 10.043,2.461 13.079,5.465 l 49.5,49.07 c 3.031,3.004 3.031,7.926 0,10.93 l -49.5,49.07 C 505.191,357.539 499.309,360 495.148,360 H 247.563 C 243.402,360 240,356.402 240,352.008 V 247.992 c 0,-4.394 3.402,-7.992 7.563,-7.992 h 247.585" /></g></g></svg>