<?xml version="1.0" encoding="UTF-8" standalone="no"?>
<svg
   xmlns:dc="http://purl.org/dc/elements/1.1/"
   xmlns:cc="http://creativecommons.org/ns#"
   xmlns:rdf="http://www.w3.org/1999/02/22-rdf-syntax-ns#"
   xmlns:svg="http://www.w3.org/2000/svg"
   xmlns="http://www.w3.org/2000/svg"
   viewBox="0 0 85.333336 85.333336"
   height="85.333336"
   width="85.333336"
   xml:space="preserve"
   id="svg2"
   version="1.1"><metadata
     id="metadata8"><rdf:RDF><cc:Work
         rdf:about=""><dc:format>image/svg+xml</dc:format><dc:type
           rdf:resource="http://purl.org/dc/dcmitype/StillImage" /></cc:Work></rdf:RDF></metadata><defs
     id="defs6" /><g
     transform="matrix(1.3333333,0,0,-1.3333333,0,85.333333)"
     id="g10"><g
       transform="scale(0.1)"
       id="g12"><path
         id="path14"
         style="fill:#495672;fill-opacity:1;fill-rule:nonzero;stroke:none"
         d="m 640,318.125 c 0,-176.73 -143.27,-320 -320,-320 -176.73,0 -320,143.27 -320,320 0,176.73 143.27,320 320,320 176.73,0 320,-143.27 320,-320" /><path
         id="path16"
         style="fill:#404a5f;fill-opacity:1;fill-rule:nonzero;stroke:none"
         d="M 427.996,180 H 160 c -13.461,0 -44.98,0 -59.594,49.68 C 100.148,230.367 90,259.387 90,300 c 0,5.523 4.4766,10 10,10 h 40.746 l 9.414,51.785 c 0.863,4.758 5.004,8.215 9.84,8.215 h 33.625 l 4.949,41.191 c 0.602,5.032 4.864,8.809 9.926,8.809 h 147.043 c 3.34,0 6.453,-1.664 8.309,-4.441 L 394.32,370 H 440 c 3.199,0 6.207,-1.531 8.086,-4.117 L 488.73,310 H 560 c 3.293,0 6.367,-1.617 8.238,-4.324 1.864,-2.711 2.282,-6.168 1.102,-9.238 C 567.527,291.68 523.816,180 427.996,180" /><path
         id="path18"
         style="fill:#e1e3cc;fill-opacity:1;fill-rule:nonzero;stroke:none"
         d="M 399.375,364.457 H 200.625 L 208.5,430 h 147.043 l 43.832,-65.543" /><path
         id="path20"
         style="fill:#e1e3cc;fill-opacity:1;fill-rule:nonzero;stroke:none"
         d="m 399.375,364.457 v 10 H 211.898 L 217.371,420 h 132.828 l 40.864,-61.102 8.312,5.559 v 10 -10 l 8.313,5.563 -43.833,65.539 C 361.996,438.34 358.887,440 355.543,440 H 208.5 c -5.07,0 -9.324,-3.773 -9.93,-8.805 l -7.875,-65.543 c -0.34,-2.836 0.551,-5.691 2.45,-7.832 1.898,-2.136 4.625,-3.359 7.48,-3.359 h 198.75 c 3.699,0 7.074,2.019 8.82,5.285 1.743,3.266 1.551,7.195 -0.507,10.274 l -8.313,-5.563" /><path
         id="path22"
         style="fill:#e1e3cc;fill-opacity:1;fill-rule:nonzero;stroke:none"
         d="M 520,270 H 140 l 20,110 h 280 l 80,-110" /><path
         id="path24"
         style="fill:#e1e3cc;fill-opacity:1;fill-rule:nonzero;stroke:none"
         d="m 520,270 v 10 H 151.98 l 16.368,90 H 434.906 L 511.914,264.117 520,270 v 10 -10 l 8.086,5.883 -80,110 C 446.199,388.48 443.211,390 440,390 H 160 c -4.828,0 -8.973,-3.457 -9.84,-8.211 l -20,-110 c -0.527,-2.918 0.262,-5.918 2.164,-8.195 C 134.223,261.316 137.035,260 140,260 h 380 c 3.762,0 7.203,2.109 8.91,5.465 1.707,3.351 1.391,7.375 -0.824,10.418 L 520,270" /><path
         id="path26"
         style="fill:#7db6d8;fill-opacity:1;fill-rule:nonzero;stroke:none"
         d="m 250,340 c 0,-11.047 -8.953,-20 -20,-20 -11.047,0 -20,8.953 -20,20 0,11.047 8.953,20 20,20 11.047,0 20,-8.953 20,-20" /><path
         id="path28"
         style="fill:#7db6d8;fill-opacity:1;fill-rule:nonzero;stroke:none"
         d="m 330,340 c 0,-11.047 -8.953,-20 -20,-20 -11.047,0 -20,8.953 -20,20 0,11.047 8.953,20 20,20 11.047,0 20,-8.953 20,-20" /><path
         id="path30"
         style="fill:#7db6d8;fill-opacity:1;fill-rule:nonzero;stroke:none"
         d="m 410,340 c 0,-11.047 -8.953,-20 -20,-20 -11.047,0 -20,8.953 -20,20 0,11.047 8.953,20 20,20 11.047,0 20,-8.953 20,-20" /><path
         id="path32"
         style="fill:#ffffff;fill-opacity:1;fill-rule:nonzero;stroke:none"
         d="m 160,210 c 0,0 177.969,0 268,0 90.031,0 132,110 132,110 H 100 c 0,-39.363 10,-67.5 10,-67.5 C 122.5,210 146.871,210 160,210" /><path
         id="path34"
         style="fill:#ffffff;fill-opacity:1;fill-rule:nonzero;stroke:none"
         d="m 160,210 v -10 c 0.027,0 11.121,0 29.215,0 54.273,0 171.262,0 238.785,0 24.57,-0.016 46.027,7.574 63.887,18.695 26.824,16.711 45.918,41.082 58.558,61.188 12.618,20.133 18.735,36.133 18.899,36.555 1.168,3.058 0.75,6.539 -1.11,9.234 C 566.379,328.371 563.277,330 560,330 H 100 c -2.6328,0 -5.2109,-1.066 -7.0703,-2.93 C 91.0664,325.211 90,322.633 90,320 c 0.0195,-41.055 10.348,-70.148 10.578,-70.848 l 9.422,3.348 -9.594,-2.82 c 3.371,-11.461 7.66,-20.473 12.684,-27.543 7.48,-10.629 16.851,-16.637 25.512,-19.403 8.64,-2.808 16.445,-2.718 21.398,-2.734 v 10 10 c -6.543,-0.023 -13.559,0.152 -20.273,3.996 -3.383,1.945 -6.848,4.84 -10.336,9.727 -3.473,4.882 -6.918,11.812 -9.797,21.597 l -0.172,0.532 -0.067,0.187 C 118.477,258.59 109.984,284.688 110,320 h -10 v -10 h 460 v 10 l -9.344,3.566 -0.082,-0.211 c -1.023,-2.656 -11.914,-29.3 -32.629,-54.605 -10.336,-12.66 -23.09,-24.953 -38.058,-33.949 C 464.891,225.797 447.809,220.016 428,220 c -45.016,0 -112.016,0 -167.762,0 -27.875,0 -52.933,0 -71.023,0 -18.094,0 -29.188,0 -29.215,0 v -10" /></g></g></svg>