<?xml version="1.0" encoding="UTF-8" standalone="no"?>
<svg
   xmlns:dc="http://purl.org/dc/elements/1.1/"
   xmlns:cc="http://creativecommons.org/ns#"
   xmlns:rdf="http://www.w3.org/1999/02/22-rdf-syntax-ns#"
   xmlns:svg="http://www.w3.org/2000/svg"
   xmlns="http://www.w3.org/2000/svg"
   viewBox="0 0 85.333336 85.333336"
   height="85.333336"
   width="85.333336"
   xml:space="preserve"
   id="svg2"
   version="1.1"><metadata
     id="metadata8"><rdf:RDF><cc:Work
         rdf:about=""><dc:format>image/svg+xml</dc:format><dc:type
           rdf:resource="http://purl.org/dc/dcmitype/StillImage" /></cc:Work></rdf:RDF></metadata><defs
     id="defs6" /><g
     transform="matrix(1.3333333,0,0,-1.3333333,0,85.333333)"
     id="g10"><g
       transform="scale(0.1)"
       id="g12"><path
         id="path14"
         style="fill:#e1e3cc;fill-opacity:1;fill-rule:nonzero;stroke:none"
         d="M 640,320 C 640,143.27 496.73,0 320,0 143.27,0 0,143.27 0,320 0,496.73 143.27,640 320,640 496.73,640 640,496.73 640,320" /><path
         id="path16"
         style="fill:#b7b7a7;fill-opacity:1;fill-rule:nonzero;stroke:none"
         d="m 320,80 c -121.504,0 -220,98.496 -220,220 0,121.504 98.496,220 220,220 121.504,0 220,-98.496 220,-220 C 540,178.496 441.504,80 320,80 M 187.715,389.863 C 170.242,364.23 160,333.293 160,300 c 0,-88.227 71.777,-160 160,-160 33.293,0 64.23,10.242 89.863,27.715 L 187.715,389.863 M 320,460 c -33.293,0 -64.23,-10.242 -89.863,-27.715 L 452.285,210.137 C 469.758,235.77 480,266.707 480,300 c 0,88.227 -71.777,160 -160,160" /><path
         id="path18"
         style="fill:#c84755;fill-opacity:1;fill-rule:nonzero;stroke:none"
         d="m 320,540 c -121.504,0 -220,-98.496 -220,-220 0,-121.504 98.496,-220 220,-220 121.504,0 220,98.496 220,220 0,121.504 -98.496,220 -220,220 z m 0,-60 c 88.223,0 160,-71.777 160,-160 0,-88.223 -71.777,-160 -160,-160 -88.223,0 -160,71.777 -160,160 0,88.223 71.777,160 160,160" /><path
         id="path20"
         style="fill:#c84755;fill-opacity:1;fill-rule:nonzero;stroke:none"
         d="m 438.789,158.789 -280,280 42.422,42.422 280,-280 -42.422,-42.422" /></g></g></svg>