<?xml version="1.0" encoding="UTF-8" standalone="no"?>
<svg
   xmlns:dc="http://purl.org/dc/elements/1.1/"
   xmlns:cc="http://creativecommons.org/ns#"
   xmlns:rdf="http://www.w3.org/1999/02/22-rdf-syntax-ns#"
   xmlns:svg="http://www.w3.org/2000/svg"
   xmlns="http://www.w3.org/2000/svg"
   viewBox="0 0 85.333336 85.333336"
   height="85.333336"
   width="85.333336"
   xml:space="preserve"
   id="svg2"
   version="1.1"><metadata
     id="metadata8"><rdf:RDF><cc:Work
         rdf:about=""><dc:format>image/svg+xml</dc:format><dc:type
           rdf:resource="http://purl.org/dc/dcmitype/StillImage" /></cc:Work></rdf:RDF></metadata><defs
     id="defs6" /><g
     transform="matrix(1.3333333,0,0,-1.3333333,0,85.333333)"
     id="g10"><g
       transform="scale(0.1)"
       id="g12"><path
         id="path14"
         style="fill:#77caa9;fill-opacity:1;fill-rule:nonzero;stroke:none"
         d="M 640,320 C 640,143.27 496.73,0 320,0 143.27,0 0,143.27 0,320 0,496.73 143.27,640 320,640 496.73,640 640,496.73 640,320" /><path
         id="path16"
         style="fill:#62a48d;fill-opacity:1;fill-rule:nonzero;stroke:none"
         d="m 320,68.4219 c -13.988,0 -27.18,3.1719 -37.141,8.9219 L 145.746,156.508 c -20.476,11.82 -37.144,40.68 -37.144,64.332 v 158.32 c 0,23.653 16.668,52.512 37.144,64.332 l 137.113,79.164 c 9.961,5.75 23.551,8.629 37.141,8.629 13.59,0 27.18,-2.879 37.141,-8.629 l 137.113,-79.164 c 20.476,-11.82 37.141,-40.679 37.141,-64.332 V 220.84 c 0,-23.652 -16.665,-52.512 -37.141,-64.332 L 357.141,77.3438 C 347.18,71.5938 333.988,68.4219 320,68.4219" /><path
         id="path18"
         style="fill:#e1e3cc;fill-opacity:1;fill-rule:nonzero;stroke:none"
         d="m 354.641,538.324 c -19.051,11 -50.231,11 -69.282,0 L 148.246,459.16 c -19.051,-11 -34.641,-38 -34.641,-60 V 240.836 c 0,-21.996 15.59,-49 34.641,-60 l 137.113,-79.16 c 19.051,-11.0002 50.231,-11.0002 69.282,0 l 137.113,79.16 c 19.051,11 34.641,38.004 34.641,60 V 399.16 c 0,22 -15.59,49 -34.641,60 l -137.113,79.164" /><path
         id="path20"
         style="fill:#e1e3cc;fill-opacity:1;fill-rule:nonzero;stroke:none"
         d="m 320,541.574 c -12.262,0 -23.672,-2.695 -32.141,-7.582 L 150.746,454.836 C 133.324,444.773 118.605,419.277 118.605,399.16 V 240.84 c 0,-20.117 14.719,-45.613 32.141,-55.672 l 137.113,-79.16 c 16.938,-9.7697 47.344,-9.7697 64.282,0 l 137.113,79.16 c 17.422,10.059 32.141,35.555 32.141,55.672 v 158.32 c 0,20.117 -14.719,45.613 -32.141,55.676 l -137.113,79.156 c -8.469,4.887 -19.879,7.582 -32.141,7.582 z m 0,-453.1443 c -13.988,0 -27.18,3.1641 -37.141,8.9258 L 145.746,176.516 c -20.476,11.812 -37.141,40.672 -37.141,64.324 v 158.32 c 0,23.653 16.665,52.512 37.141,64.324 l 137.113,79.164 c 19.922,11.524 54.36,11.524 74.282,0 l 137.113,-79.164 c 20.476,-11.812 37.141,-40.671 37.141,-64.324 V 240.84 c 0,-23.652 -16.665,-52.512 -37.141,-64.324 L 357.141,97.3555 C 347.18,91.5938 333.988,88.4297 320,88.4297" /><path
         id="path22"
         style="fill:#ffffff;fill-opacity:1;fill-rule:nonzero;stroke:none"
         d="m 320,341.746 c -11.23,0 -22.031,2.524 -29.641,6.91 L 153.246,427.82 c -5.902,3.41 -9.293,7.539 -9.293,11.344 0.008,3.797 3.391,7.93 9.293,11.332 l 137.113,79.168 c 7.61,4.395 18.411,6.914 29.641,6.914 11.23,0 22.031,-2.519 29.641,-6.91 l 137.113,-79.172 c 5.902,-3.402 9.285,-7.535 9.293,-11.332 0,-3.805 -3.391,-7.934 -9.293,-11.344 L 349.641,348.66 c -7.61,-4.39 -18.411,-6.914 -29.641,-6.914" /><path
         id="path24"
         style="fill:#ffffff;fill-opacity:1;fill-rule:nonzero;stroke:none"
         d="m 299.086,106.98 c -3,0 -6.594,1.161 -10.391,3.352 l -137.117,79.172 c -16.066,9.269 -29.64,32.781 -29.64,51.336 v 158.32 c 0,4.418 0.902,14.695 9.253,14.695 2.993,0 6.586,-1.16 10.387,-3.359 L 278.695,331.34 c 16.063,-9.277 29.637,-32.789 29.637,-51.34 V 121.676 c 0,-5.172 -1.117,-9.414 -3.152,-11.949 -1.504,-1.875 -3.442,-2.747 -6.094,-2.747" /><path
         id="path26"
         style="fill:#ffffff;fill-opacity:1;fill-rule:nonzero;stroke:none"
         d="m 339.254,106.98 c -8.352,0 -9.254,10.278 -9.254,14.696 V 280 c 0,18.551 13.574,42.063 29.641,51.344 l 137.113,79.152 c 3.805,2.199 7.394,3.359 10.391,3.359 8.347,0 9.25,-10.277 9.25,-14.695 V 240.84 c 0,-18.555 -13.575,-42.067 -29.641,-51.336 L 349.641,110.336 c -3.801,-2.195 -7.395,-3.356 -10.387,-3.356" /><path
         id="path28"
         style="fill:#495672;fill-opacity:1;fill-rule:nonzero;stroke:none"
         d="m 320,425 c -12.645,0 -23.336,6.484 -23.336,14.16 0,7.676 10.691,14.164 23.336,14.164 12.645,0 23.336,-6.488 23.336,-14.164 C 343.336,431.484 332.645,425 320,425" /><path
         id="path30"
         style="fill:#495672;fill-opacity:1;fill-rule:nonzero;stroke:none"
         d="m 151.457,216.316 c -7.676,0 -14.16,9.508 -14.16,20.766 0,11.254 6.484,20.77 14.16,20.77 7.676,0 14.16,-9.516 14.16,-20.77 0,-11.258 -6.484,-20.766 -14.16,-20.766" /><path
         id="path32"
         style="fill:#495672;fill-opacity:1;fill-rule:nonzero;stroke:none"
         d="m 483.543,216.316 c -7.676,0 -14.16,9.508 -14.16,20.766 0,11.254 6.484,20.77 14.16,20.77 7.676,0 14.16,-9.516 14.16,-20.77 0,-11.258 -6.484,-20.766 -14.16,-20.766" /><path
         id="path34"
         style="fill:#495672;fill-opacity:1;fill-rule:nonzero;stroke:none"
         d="m 151.457,335.691 c -7.676,0 -14.16,9.508 -14.16,20.766 0,11.254 6.484,20.77 14.16,20.77 7.676,0 14.16,-9.516 14.16,-20.77 0,-11.258 -6.484,-20.766 -14.16,-20.766" /><path
         id="path36"
         style="fill:#495672;fill-opacity:1;fill-rule:nonzero;stroke:none"
         d="m 269.172,258.816 c -7.68,0 -14.16,9.512 -14.16,20.77 0,11.254 6.48,20.766 14.16,20.766 7.676,0 14.164,-9.512 14.164,-20.766 0,-11.258 -6.488,-20.77 -14.164,-20.77" /><path
         id="path38"
         style="fill:#495672;fill-opacity:1;fill-rule:nonzero;stroke:none"
         d="m 369.586,258.816 c -7.676,0 -14.16,9.512 -14.16,20.77 0,11.254 6.484,20.766 14.16,20.766 7.676,0 14.168,-9.512 14.168,-20.766 0,-11.258 -6.492,-20.77 -14.168,-20.77" /><path
         id="path40"
         style="fill:#495672;fill-opacity:1;fill-rule:nonzero;stroke:none"
         d="m 269.172,148.605 c -7.68,0 -14.16,9.516 -14.16,20.77 0,11.254 6.48,20.77 14.16,20.77 7.676,0 14.164,-9.516 14.164,-20.77 0,-11.254 -6.488,-20.77 -14.164,-20.77" /></g></g></svg>