<?xml version="1.0" encoding="UTF-8" standalone="no"?>
<svg
   xmlns:dc="http://purl.org/dc/elements/1.1/"
   xmlns:cc="http://creativecommons.org/ns#"
   xmlns:rdf="http://www.w3.org/1999/02/22-rdf-syntax-ns#"
   xmlns:svg="http://www.w3.org/2000/svg"
   xmlns="http://www.w3.org/2000/svg"
   viewBox="0 0 85.333336 85.333336"
   height="85.333336"
   width="85.333336"
   xml:space="preserve"
   id="svg2"
   version="1.1"><metadata
     id="metadata8"><rdf:RDF><cc:Work
         rdf:about=""><dc:format>image/svg+xml</dc:format><dc:type
           rdf:resource="http://purl.org/dc/dcmitype/StillImage" /></cc:Work></rdf:RDF></metadata><defs
     id="defs6" /><g
     transform="matrix(1.3333333,0,0,-1.3333333,0,85.333333)"
     id="g10"><g
       transform="scale(0.1)"
       id="g12"><path
         id="path14"
         style="fill:#e08e4c;fill-opacity:1;fill-rule:nonzero;stroke:none"
         d="M 640,320 C 640,143.27 496.73,0 320,0 143.27,0 0,143.27 0,320 0,496.73 143.27,640 320,640 496.73,640 640,496.73 640,320" /><path
         id="path16"
         style="fill:#b77744;fill-opacity:1;fill-rule:nonzero;stroke:none"
         d="M 450,100 H 190 c -16.57,0 -30,13.43 -30,30 v 340 0 -320 c 0,-16.57 13.43,-30 30,-30 h 260 c 16.57,0 30,13.43 30,30 v -20 c 0,-16.57 -13.43,-30 -30,-30" /><path
         id="path18"
         style="fill:#e1e3cc;fill-opacity:1;fill-rule:nonzero;stroke:none"
         d="m 360,430 v 90 H 190 c -16.57,0 -30,-13.43 -30,-30 V 150 c 0,-16.57 13.43,-30 30,-30 h 260 c 16.57,0 30,13.43 30,30 v 250 h -90 c -16.57,0 -30,13.43 -30,30" /><path
         id="path20"
         style="fill:#b77744;fill-opacity:1;fill-rule:nonzero;stroke:none"
         d="m 480,400 h -90 c -7.348,0 -14.082,2.645 -19.297,7.027 L 480,400" /><path
         id="path22"
         style="fill:#b7b7a7;fill-opacity:1;fill-rule:nonzero;stroke:none"
         d="m 480,310 -60,53.02 V 370 h -7.898 l -41.942,37.063 0.543,-0.036 C 375.918,402.645 382.652,400 390,400 h 90 v -90" /><path
         id="path24"
         style="fill:#ffffff;fill-opacity:1;fill-rule:nonzero;stroke:none"
         d="m 360,520 v -90 c 0,-16.57 13.43,-30 30,-30 h 90 L 360,520" /><path
         id="path26"
         style="fill:#b7b7a7;fill-opacity:1;fill-rule:nonzero;stroke:none"
         d="m 220,400 h 96.25 v 20 H 220 Z" /><path
         id="path28"
         style="fill:#b7b7a7;fill-opacity:1;fill-rule:nonzero;stroke:none"
         d="m 220,300 h 200 v 20 H 220 Z" /><path
         id="path30"
         style="fill:#b7b7a7;fill-opacity:1;fill-rule:nonzero;stroke:none"
         d="M 420,350 H 220 v 20 H 412.102 L 420,363.02 V 350" /><path
         id="path32"
         style="fill:#97978c;fill-opacity:1;fill-rule:nonzero;stroke:none"
         d="M 420,363.02 412.102,370 H 420 v -6.98" /><path
         id="path34"
         style="fill:#b7b7a7;fill-opacity:1;fill-rule:nonzero;stroke:none"
         d="m 220,250 h 200 v 20 H 220 Z" /><path
         id="path36"
         style="fill:#b7b7a7;fill-opacity:1;fill-rule:nonzero;stroke:none"
         d="m 220,200 h 200 v 20 H 220 Z" /></g></g></svg>