<?xml version="1.0" encoding="UTF-8" standalone="no"?>
<svg
   xmlns:dc="http://purl.org/dc/elements/1.1/"
   xmlns:cc="http://creativecommons.org/ns#"
   xmlns:rdf="http://www.w3.org/1999/02/22-rdf-syntax-ns#"
   xmlns:svg="http://www.w3.org/2000/svg"
   xmlns="http://www.w3.org/2000/svg"
   viewBox="0 0 85.333336 85.333336"
   height="85.333336"
   width="85.333336"
   xml:space="preserve"
   id="svg2"
   version="1.1"><metadata
     id="metadata8"><rdf:RDF><cc:Work
         rdf:about=""><dc:format>image/svg+xml</dc:format><dc:type
           rdf:resource="http://purl.org/dc/dcmitype/StillImage" /></cc:Work></rdf:RDF></metadata><defs
     id="defs6" /><g
     transform="matrix(1.3333333,0,0,-1.3333333,0,85.333333)"
     id="g10"><g
       transform="scale(0.1)"
       id="g12"><path
         id="path14"
         style="fill:#77caa9;fill-opacity:1;fill-rule:nonzero;stroke:none"
         d="M 640,320 C 640,143.27 496.73,0 320,0 143.27,0 0,143.27 0,320 0,496.73 143.27,640 320,640 496.73,640 640,496.73 640,320" /><path
         id="path16"
         style="fill:#62a48d;fill-opacity:1;fill-rule:nonzero;stroke:none"
         d="m 319.961,85 c -24.176,0 -45.27,15.512 -52.484,38.598 -7.493,23.984 2.363,49.269 22.406,62.398 l -79.695,254.973 c -1.54,4.609 -7.29,17.937 -22.071,17.937 -2.762,0 -5.836,-0.465 -9.254,-1.539 -1.484,-0.457 -2.98,-0.676 -4.457,-0.676 -6.394,0 -12.328,4.098 -14.332,10.52 -2.472,7.906 1.934,16.32 9.836,18.789 6.59,2.059 12.742,2.973 18.453,2.973 27.711,0 44.985,-21.563 50.453,-39.063 l 13.364,-42.738 87.433,54.797 c 1.653,1.035 3.492,1.527 5.309,1.527 3.332,0 6.586,-1.66 8.476,-4.687 L 422.5,348.551 c 2.934,-4.684 1.52,-10.856 -3.16,-13.785 l -70.828,-44.391 88.672,27.715 c 0.98,0.305 1.976,0.445 2.957,0.445 4.261,0 8.234,-2.722 9.57,-7.008 l 29.836,-95.441 c 0.789,-2.531 0.543,-5.273 -0.692,-7.625 -1.226,-2.348 -3.343,-4.113 -5.871,-4.906 L 365.895,170.082 v 0 l 83.23,26.012 c 1.488,0.469 2.996,0.691 4.48,0.691 6.375,0 12.301,-4.113 14.309,-10.535 2.473,-7.906 -1.934,-16.316 -9.844,-18.789 L 374.727,141.41 c 0.246,-9.258 -1.614,-18.484 -6.032,-26.918 C 361.879,101.48 350.406,91.8984 336.383,87.5156 331.039,85.8438 325.52,85 319.961,85 m -46.887,255.32 45.453,-145.414 v 0 l -21.531,68.887 c -0.789,2.531 -0.543,5.273 0.692,7.625 1.226,2.348 3.343,4.113 5.871,4.906 l 8.082,2.528 -0.125,0.132 -38.442,61.336" /><path
         id="path18"
         style="fill:#f3cc70;fill-opacity:1;fill-rule:nonzero;stroke:none"
         d="m 319.988,314.297 v 0 l 94.039,58.937 -69.101,110.262 -94.043,-58.933 69.105,-110.266" /><path
         id="path20"
         style="fill:#f3cc70;fill-opacity:1;fill-rule:nonzero;stroke:none"
         d="m 319.988,314.297 5.309,-8.473 94.043,58.938 c 2.23,1.398 3.848,3.672 4.437,6.238 0.586,2.566 0.125,5.316 -1.273,7.547 l -69.106,110.262 c -2.933,4.679 -9.101,6.097 -13.781,3.164 l -94.043,-58.938 c -4.679,-2.933 -6.097,-9.105 -3.164,-13.785 l 69.102,-110.262 c 1.398,-2.23 3.672,-3.847 6.238,-4.437 2.566,-0.586 5.316,-0.125 7.547,1.273 l -5.309,8.473 8.473,5.312 -63.793,101.789 77.094,48.317 58.48,-93.313 -85.566,-53.629 5.312,-8.476 8.473,5.312 -8.473,-5.312" /><path
         id="path22"
         style="fill:#ffffff;fill-opacity:1;fill-rule:nonzero;stroke:none"
         d="M 449.121,226.098 329.813,188.805 238.82,479.914 c -0.359,1.027 -3,9.617 -10.382,19.082 -3.711,4.707 -8.708,9.664 -15.415,13.535 -6.675,3.879 -15.128,6.492 -24.554,6.461 -5.883,0.004 -12.11,-0.972 -18.563,-2.996 -7.902,-2.473 -12.304,-10.891 -9.828,-18.797 2.477,-7.906 10.891,-12.308 18.797,-9.832 3.867,1.211 7.004,1.625 9.594,1.629 4.129,-0.027 6.957,-0.984 9.582,-2.461 3.875,-2.183 7.183,-6.125 9.32,-9.754 1.07,-1.789 1.848,-3.433 2.313,-4.539 l 0.472,-1.199 0.071,-0.199 5.656,1.902 -5.695,-1.781 0.039,-0.121 5.656,1.902 -5.695,-1.781 95.468,-305.43 c 1.176,-3.765 3.86,-6.976 7.356,-8.812 3.5,-1.832 7.664,-2.207 11.433,-1.028 l 133.625,41.766 c 7.907,2.473 12.317,10.887 9.844,18.793 -2.473,7.906 -10.887,12.312 -18.793,9.84" /><path
         id="path24"
         style="fill:#e08e4c;fill-opacity:1;fill-rule:nonzero;stroke:none"
         d="m 336.375,201.332 v 0 L 470,243.098 440.168,338.543 306.543,296.777 336.375,201.332" /><path
         id="path26"
         style="fill:#e08e4c;fill-opacity:1;fill-rule:nonzero;stroke:none"
         d="m 336.375,201.332 2.984,-9.547 133.625,41.77 c 2.512,0.785 4.653,2.574 5.875,4.906 1.219,2.332 1.469,5.109 0.684,7.621 l -29.832,95.445 c -1.648,5.274 -7.258,8.207 -12.527,6.563 L 303.559,306.32 c -5.274,-1.644 -8.211,-7.254 -6.563,-12.527 l 29.836,-95.445 c 0.785,-2.512 2.57,-4.653 4.906,-5.875 2.332,-1.223 5.11,-1.469 7.621,-0.688 l -2.984,9.547 9.547,2.984 -26.852,85.899 114.535,35.801 23.868,-76.356 -124.082,-38.785 2.984,-9.543 9.547,2.984 -9.547,-2.984" /><path
         id="path28"
         style="fill:#f3cc70;fill-opacity:1;fill-rule:nonzero;stroke:none"
         d="m 358.152,181.945 c 6.59,-21.086 -5.16,-43.523 -26.246,-50.113 -21.086,-6.59 -43.519,5.16 -50.113,26.246 -6.59,21.086 5.16,43.52 26.246,50.11 21.086,6.593 43.52,-5.157 50.113,-26.243" /><path
         id="path30"
         style="fill:#495672;fill-opacity:1;fill-rule:nonzero;stroke:none"
         d="m 358.152,181.945 -14.316,-4.472 c 0.781,-2.516 1.144,-5.012 1.148,-7.473 -0.011,-10.609 -6.851,-20.531 -17.554,-23.852 -2.512,-0.781 -5.008,-1.144 -7.469,-1.148 -10.613,0.012 -20.535,6.852 -23.852,17.555 -0.785,2.511 -1.148,5.011 -1.148,7.468 0.012,10.618 6.852,20.536 17.551,23.848 2.519,0.789 5.015,1.152 7.472,1.152 10.614,-0.011 20.532,-6.847 23.852,-17.55 l 14.316,4.472 14.317,4.477 c -7.379,23.523 -29.035,38.613 -52.485,38.601 -5.449,0 -10.996,-0.82 -16.425,-2.519 -23.52,-7.375 -38.61,-29.035 -38.598,-52.481 0,-5.445 0.816,-10.992 2.516,-16.421 7.382,-23.52 29.035,-38.61 52.484,-38.598 5.441,-0.004 10.988,0.812 16.422,2.512 23.519,7.386 38.609,29.039 38.601,52.484 0,5.445 -0.82,10.988 -2.515,16.422 l -14.317,-4.477" /></g></g></svg>