<?xml version="1.0" encoding="UTF-8" standalone="no"?>
<svg
   xmlns:dc="http://purl.org/dc/elements/1.1/"
   xmlns:cc="http://creativecommons.org/ns#"
   xmlns:rdf="http://www.w3.org/1999/02/22-rdf-syntax-ns#"
   xmlns:svg="http://www.w3.org/2000/svg"
   xmlns="http://www.w3.org/2000/svg"
   viewBox="0 0 85.333336 85.333336"
   height="85.333336"
   width="85.333336"
   xml:space="preserve"
   id="svg2"
   version="1.1"><metadata
     id="metadata8"><rdf:RDF><cc:Work
         rdf:about=""><dc:format>image/svg+xml</dc:format><dc:type
           rdf:resource="http://purl.org/dc/dcmitype/StillImage" /></cc:Work></rdf:RDF></metadata><defs
     id="defs6" /><g
     transform="matrix(1.3333333,0,0,-1.3333333,0,85.333333)"
     id="g10"><g
       transform="scale(0.1)"
       id="g12"><path
         id="path14"
         style="fill:#495672;fill-opacity:1;fill-rule:nonzero;stroke:none"
         d="M 638.332,320 C 638.332,143.27 495.063,0 318.332,0 141.602,0 -1.66797,143.27 -1.66797,320 c 0,176.73 143.26997,320 319.99997,320 176.731,0 320,-143.27 320,-320" /><path
         id="path16"
         style="fill:#f3cc70;fill-opacity:1;fill-rule:nonzero;stroke:none"
         d="m 240,340 h 60 v 140 h -60 z" /><path
         id="path18"
         style="fill:#f3cc70;fill-opacity:1;fill-rule:nonzero;stroke:none"
         d="m 240,160 h 60 v 140 h -60 z" /><path
         id="path20"
         style="fill:#f3cc70;fill-opacity:1;fill-rule:nonzero;stroke:none"
         d="m 340,340 h 60 v 140 h -60 z" /><path
         id="path22"
         style="fill:#f3cc70;fill-opacity:1;fill-rule:nonzero;stroke:none"
         d="m 340,160 h 60 v 140 h -60 z" /><path
         id="path24"
         style="fill:#404a5f;fill-opacity:1;fill-rule:nonzero;stroke:none"
         d="M 400,100 H 240 c -22.094,0 -40,17.91 -40,40 v 320 0 -300 c 0,-22.09 17.906,-40 40,-40 h 160 c 22.094,0 40,17.91 40,40 v -20 c 0,-22.09 -17.906,-40 -40,-40" /><path
         id="path26"
         style="fill:#c7a85f;fill-opacity:1;fill-rule:nonzero;stroke:none"
         d="m 240,460 h 60 v 20 h -60 z" /><path
         id="path28"
         style="fill:#c7a85f;fill-opacity:1;fill-rule:nonzero;stroke:none"
         d="m 240,280 h 60 v 20 h -60 z" /><path
         id="path30"
         style="fill:#c7a85f;fill-opacity:1;fill-rule:nonzero;stroke:none"
         d="m 340,460 h 60 v 20 h -60 z" /><path
         id="path32"
         style="fill:#c7a85f;fill-opacity:1;fill-rule:nonzero;stroke:none"
         d="M 377.641,280 H 340 v 20 h 30 v 0 c 0,-7.684 2.887,-14.691 7.641,-20" /><path
         id="path34"
         style="fill:#e08e4c;fill-opacity:1;fill-rule:nonzero;stroke:none"
         d="m 400,340 h -60 v 140 h 60 V 340 m 0,-180 h -60 v 140 h 60 V 160 M 300,340 h -60 v 140 h 60 V 340 m 0,-180 h -60 v 140 h 60 V 160 M 400,520 H 240 c -22.094,0 -40,-17.906 -40,-40 V 160 c 0,-22.09 17.906,-40 40,-40 h 160 c 22.094,0 40,17.91 40,40 v 320 c 0,22.094 -17.906,40 -40,40" /><path
         id="path36"
         style="fill:#c7a85f;fill-opacity:1;fill-rule:nonzero;stroke:none"
         d="m 400,270 c -8.887,0 -16.867,3.863 -22.359,10 H 400 v -10" /><path
         id="path38"
         style="fill:#a48c53;fill-opacity:1;fill-rule:nonzero;stroke:none"
         d="M 400,280 H 377.641 C 372.887,285.309 370,292.316 370,300 v 0 h 30 v -20" /><path
         id="path40"
         style="fill:#b77744;fill-opacity:1;fill-rule:nonzero;stroke:none"
         d="m 400,270 v 0 30 h -30 c 0,16.57 13.43,30 30,30 16.57,0 30,-13.43 30,-30 0,-16.57 -13.43,-30 -30,-30" /><path
         id="path42"
         style="fill:#f3cc70;fill-opacity:1;fill-rule:nonzero;stroke:none"
         d="m 430,320 c 0,-16.57 -13.43,-30 -30,-30 -16.57,0 -30,13.43 -30,30 0,16.57 13.43,30 30,30 16.57,0 30,-13.43 30,-30" /></g></g></svg>