<?xml version="1.0" encoding="UTF-8" standalone="no"?>
<svg
   xmlns:dc="http://purl.org/dc/elements/1.1/"
   xmlns:cc="http://creativecommons.org/ns#"
   xmlns:rdf="http://www.w3.org/1999/02/22-rdf-syntax-ns#"
   xmlns:svg="http://www.w3.org/2000/svg"
   xmlns="http://www.w3.org/2000/svg"
   viewBox="0 0 85.333336 85.333336"
   height="85.333336"
   width="85.333336"
   xml:space="preserve"
   id="svg2"
   version="1.1"><metadata
     id="metadata8"><rdf:RDF><cc:Work
         rdf:about=""><dc:format>image/svg+xml</dc:format><dc:type
           rdf:resource="http://purl.org/dc/dcmitype/StillImage" /></cc:Work></rdf:RDF></metadata><defs
     id="defs6" /><g
     transform="matrix(1.3333333,0,0,-1.3333333,0,85.333333)"
     id="g10"><g
       transform="scale(0.1)"
       id="g12"><path
         id="path14"
         style="fill:#c84755;fill-opacity:1;fill-rule:nonzero;stroke:none"
         d="M 640,320 C 640,143.27 496.73,0 320,0 143.27,0 0,143.27 0,320 0,496.73 143.27,640 320,640 496.73,640 640,496.73 640,320" /><path
         id="path16"
         style="fill:#a43f4a;fill-opacity:1;fill-rule:nonzero;stroke:none"
         d="m 399.836,528.258 c 0.062,0.984 0.109,1.562 0.137,1.562 0.015,0 0.027,-0.308 0.027,-0.984 l -0.164,-0.578" /><path
         id="path18"
         style="fill:#a43f4a;fill-opacity:1;fill-rule:nonzero;stroke:none"
         d="m 240.18,528.211 -0.18,0.625 c 0,0.68 0.012,0.988 0.031,0.988 0.028,0 0.078,-0.597 0.149,-1.613" /><path
         id="path20"
         style="fill:#a43f4a;fill-opacity:1;fill-rule:nonzero;stroke:none"
         d="M 480,160 H 180 c -55.227,0 -100,44.773 -100,100 0,50.09 36.867,91.453 84.922,98.742 11.75,47.153 44.371,86 87.476,106.199 l 0.075,-0.007 c 2.328,0.992 4.738,1.437 7.125,1.437 10.441,0 20.402,-8.547 20.402,-17.535 v -85 C 280,355.551 273.285,350 265,350 h -30.613 c -14.715,0 -18.828,-11.27 -9.137,-23.617 l 77.133,-98.289 c 4.844,-6.172 11.23,-9.258 17.617,-9.258 6.387,0 12.773,3.086 17.617,9.258 l 77.133,98.289 C 424.441,338.73 420.328,350 405.613,350 H 375 c -8.285,0 -15,5.551 -15,13.836 v 85 c 0,8.57 5.789,18.73 16.953,18.73 2.785,0 5.902,-0.632 9.344,-2.074 C 441.535,440.273 480,384.688 480,320 c 44.184,0 80,-35.816 80,-80 0,-44.184 -35.816,-80 -80,-80" /><path
         id="path22"
         style="fill:#ffffff;fill-opacity:1;fill-rule:nonzero;stroke:none"
         d="m 480,340 c 0,64.688 -38.465,120.273 -93.703,145.492 C 369.039,492.727 360,479.547 360,468.836 v -85 C 360,375.551 366.715,370 375,370 h 30.613 c 14.715,0 18.828,-11.27 9.137,-23.617 l -77.133,-98.289 c -9.687,-12.348 -25.547,-12.348 -35.234,0 L 225.25,346.383 C 215.559,358.73 219.672,370 234.387,370 H 265 c 8.285,0 15,5.551 15,13.836 v 85 c 0,11.043 -15.035,21.422 -27.527,16.098 l -0.075,0.007 C 209.293,464.742 176.672,425.895 164.922,378.742 116.867,371.453 80,330.09 80,280 80,224.773 124.773,180 180,180 h 300 c 44.184,0 80,35.816 80,80 0,44.184 -35.816,80 -80,80" /><path
         id="path24"
         style="fill:#8b76c2;fill-opacity:1;fill-rule:nonzero;stroke:none"
         d="m 399.836,548.258 0.164,0.574 c 0,1.609 -0.055,1.129 -0.164,-0.574" /><path
         id="path26"
         style="fill:#8b76c2;fill-opacity:1;fill-rule:nonzero;stroke:none"
         d="m 240,548.832 0.18,-0.621 c -0.121,1.742 -0.18,2.254 -0.18,0.621" /></g></g></svg>