<?xml version="1.0" encoding="UTF-8" standalone="no"?>
<svg
   xmlns:dc="http://purl.org/dc/elements/1.1/"
   xmlns:cc="http://creativecommons.org/ns#"
   xmlns:rdf="http://www.w3.org/1999/02/22-rdf-syntax-ns#"
   xmlns:svg="http://www.w3.org/2000/svg"
   xmlns="http://www.w3.org/2000/svg"
   viewBox="0 0 85.333336 85.333336"
   height="85.333336"
   width="85.333336"
   xml:space="preserve"
   id="svg2"
   version="1.1"><metadata
     id="metadata8"><rdf:RDF><cc:Work
         rdf:about=""><dc:format>image/svg+xml</dc:format><dc:type
           rdf:resource="http://purl.org/dc/dcmitype/StillImage" /></cc:Work></rdf:RDF></metadata><defs
     id="defs6" /><g
     transform="matrix(1.3333333,0,0,-1.3333333,0,85.333333)"
     id="g10"><g
       transform="scale(0.1)"
       id="g12"><path
         id="path14"
         style="fill:#495672;fill-opacity:1;fill-rule:nonzero;stroke:none"
         d="M 640,320 C 640,143.27 496.73,0 320,0 143.27,0 0,143.27 0,320 0,496.73 143.27,640 320,640 496.73,640 640,496.73 640,320" /><path
         id="path16"
         style="fill:#404a5f;fill-opacity:1;fill-rule:nonzero;stroke:none"
         d="m 190.016,84.9961 c -1.094,0 -2.2,0.1211 -3.305,0.3711 -8.09,1.8164 -13.16,9.8437 -11.344,17.9258 l 1.953,8.691 c 2.055,-3.246 5.344,-5.707 9.387,-6.617 1.109,-0.25 2.215,-0.371 3.309,-0.371 6.859,0 13.05,4.738 14.617,11.711 l 20.082,89.25 c 1.348,-0.508 2.789,-0.824 4.293,-0.926 L 204.633,96.7109 C 203.066,89.7344 196.875,84.9961 190.016,84.9961 M 286.375,460 h -4.5 l 10.805,48.016 c 2.047,-3.243 2.863,-7.27 1.953,-11.305 L 286.375,460" /><path
         id="path18"
         style="fill:#404a5f;fill-opacity:1;fill-rule:nonzero;stroke:none"
         d="m 449.984,84.9961 c -7.004,0 -13.265,4.9297 -14.691,12.0664 L 413.617,205.438 c 1.313,0.324 2.555,0.824 3.703,1.468 l 17.969,-89.847 C 436.719,109.93 442.98,105 449.984,105 c 0.977,0 1.965,0.094 2.957,0.293 4.301,0.859 7.801,3.48 9.903,6.961 l 1.863,-9.316 c 1.625,-8.1177 -3.644,-16.0239 -11.769,-17.645 -0.989,-0.1992 -1.981,-0.2969 -2.954,-0.2969 M 366.703,460 h -4 l -7.41,37.063 c -0.766,3.816 -0.004,7.589 1.859,10.679 L 366.703,460" /><path
         id="path20"
         style="fill:#404a5f;fill-opacity:1;fill-rule:nonzero;stroke:none"
         d="m 320,85 c -8.285,0 -15,6.7148 -15,15 v 105 -85 c 0,-8.285 6.715,-15 15,-15 8.285,0 15,6.715 15,15 v -20 c 0,-8.2852 -6.715,-15 -15,-15" /><path
         id="path22"
         style="fill:#f3cc70;fill-opacity:1;fill-rule:nonzero;stroke:none"
         d="M 280,520 190,120 280,520" /><path
         id="path24"
         style="fill:#e08e4c;fill-opacity:1;fill-rule:nonzero;stroke:none"
         d="m 265.367,523.293 -90,-400 c -1.82,-8.082 3.258,-16.109 11.34,-17.926 8.082,-1.82 16.109,3.258 17.926,11.34 l 90,400 c 1.82,8.082 -3.258,16.109 -11.34,17.926 -8.082,1.82 -16.109,-3.258 -17.926,-11.34" /><path
         id="path26"
         style="fill:#f3cc70;fill-opacity:1;fill-rule:nonzero;stroke:none"
         d="M 370,520 450,120 370,520" /><path
         id="path28"
         style="fill:#e08e4c;fill-opacity:1;fill-rule:nonzero;stroke:none"
         d="m 355.289,517.059 80,-400 c 1.629,-8.125 9.527,-13.391 17.652,-11.766 8.125,1.625 13.391,9.527 11.77,17.648 l -80,400 c -1.625,8.125 -9.527,13.395 -17.652,11.77 -8.125,-1.625 -13.391,-9.527 -11.77,-17.652" /><path
         id="path30"
         style="fill:#e08e4c;fill-opacity:1;fill-rule:nonzero;stroke:none"
         d="M 305,286.246 V 120 c 0,-8.285 6.715,-15 15,-15 8.285,0 15,6.715 15,15 v 166.246 c 0,8.285 -6.715,15 -15,15 -8.285,0 -15,-6.715 -15,-15" /><path
         id="path32"
         style="fill:#404a5f;fill-opacity:1;fill-rule:nonzero;stroke:none"
         d="m 468.75,220 h -23.453 l -4,20 h 27.453 c 11.734,0 21.25,7.871 21.25,17.582 v -20 C 490,227.871 480.484,220 468.75,220 m -61.047,15 H 335 v 5 h 71.703 l 1,-5" /><path
         id="path34"
         style="fill:#394051;fill-opacity:1;fill-rule:nonzero;stroke:none"
         d="M 411.723,234.902 C 411.156,234.969 410.582,235 410,235 h -2.297 l -1,5 h 4 l 1.02,-5.098" /><path
         id="path36"
         style="fill:#404a5f;fill-opacity:1;fill-rule:nonzero;stroke:none"
         d="M 197.125,220 H 171.25 C 159.516,220 150,227.871 150,237.582 v 184.836 0 -164.836 C 150,247.871 159.516,240 171.25,240 h 30.375 l -4.5,-20 M 305,235 h -69.25 l 1.125,5 H 305 v -5" /><path
         id="path38"
         style="fill:#394051;fill-opacity:1;fill-rule:nonzero;stroke:none"
         d="m 235.75,235 h -4.5 l 1.125,5 h 4.5 l -1.125,-5" /><path
         id="path40"
         style="fill:#b77744;fill-opacity:1;fill-rule:nonzero;stroke:none"
         d="m 215,220 h -17.875 l 4.5,20 h 30.75 l -1.125,-5 H 230 c -8.285,0 -15,-6.715 -15,-15" /><path
         id="path42"
         style="fill:#b77744;fill-opacity:1;fill-rule:nonzero;stroke:none"
         d="M 445.297,220 H 425 c 0,7.703 -5.805,14.047 -13.277,14.902 l -1.02,5.098 h 30.594 l 4,-20" /><path
         id="path44"
         style="fill:#b77744;fill-opacity:1;fill-rule:nonzero;stroke:none"
         d="m 305,235 h 30 v 5 h -30 z" /><path
         id="path46"
         style="fill:#ffffff;fill-opacity:1;fill-rule:nonzero;stroke:none"
         d="M 490,257.582 C 490,247.871 480.484,240 468.75,240 H 171.25 C 159.516,240 150,247.871 150,257.582 v 184.836 c 0,9.711 9.516,17.582 21.25,17.582 h 297.5 C 480.484,460 490,452.129 490,442.418 V 257.582" /><path
         id="path48"
         style="fill:#d4d3d1;fill-opacity:1;fill-rule:nonzero;stroke:none"
         d="M 410,425 H 230 c -8.285,0 -15,6.715 -15,15 0,8.285 6.715,15 15,15 h 180 c 8.285,0 15,-6.715 15,-15 0,-8.285 -6.715,-15 -15,-15" /><path
         id="path50"
         style="fill:#404a5f;fill-opacity:1;fill-rule:nonzero;stroke:none"
         d="m 410,205 h -75 v 15 h 75.703 l 2.914,-14.562 C 412.461,205.152 411.246,205 410,205 m -105,0 h -75 c -0.336,0 -0.664,0.012 -0.992,0.031 L 232.375,220 H 305 v -15" /><path
         id="path52"
         style="fill:#394051;fill-opacity:1;fill-rule:nonzero;stroke:none"
         d="m 229.008,205.031 c -1.504,0.102 -2.945,0.418 -4.293,0.926 l 3.16,14.043 h 4.5 l -3.367,-14.969" /><path
         id="path54"
         style="fill:#394051;fill-opacity:1;fill-rule:nonzero;stroke:none"
         d="M 413.617,205.438 410.703,220 h 4 l 2.617,-13.094 c -1.148,-0.644 -2.39,-1.144 -3.703,-1.468" /><path
         id="path56"
         style="fill:#b77744;fill-opacity:1;fill-rule:nonzero;stroke:none"
         d="M 224.715,205.957 C 219.035,208.094 215,213.574 215,220 v 0 h 12.875 l -3.16,-14.043" /><path
         id="path58"
         style="fill:#b77744;fill-opacity:1;fill-rule:nonzero;stroke:none"
         d="M 417.32,206.906 414.703,220 H 425 v 0 c 0,-5.629 -3.098,-10.527 -7.68,-13.094" /><path
         id="path60"
         style="fill:#b77744;fill-opacity:1;fill-rule:nonzero;stroke:none"
         d="m 305,205 h 30 v 15 h -30 z" /><path
         id="path62"
         style="fill:#394051;fill-opacity:1;fill-rule:nonzero;stroke:none"
         d="M 410.703,220 H 335 v 15 h 72.703 l 3,-15" /><path
         id="path64"
         style="fill:#343945;fill-opacity:1;fill-rule:nonzero;stroke:none"
         d="m 414.703,220 h -4 l -3,15 H 410 c 0.582,0 1.156,-0.031 1.723,-0.098 L 414.703,220" /><path
         id="path66"
         style="fill:#394051;fill-opacity:1;fill-rule:nonzero;stroke:none"
         d="m 305,220 h -72.625 l 3.375,15 H 305 v -15" /><path
         id="path68"
         style="fill:#343945;fill-opacity:1;fill-rule:nonzero;stroke:none"
         d="m 232.375,220 h -4.5 l 3.375,15 h 4.5 l -3.375,-15" /><path
         id="path70"
         style="fill:#97633d;fill-opacity:1;fill-rule:nonzero;stroke:none"
         d="M 227.875,220 H 215 c 0,8.285 6.715,15 15,15 h 1.25 l -3.375,-15" /><path
         id="path72"
         style="fill:#97633d;fill-opacity:1;fill-rule:nonzero;stroke:none"
         d="m 425,220 h -10.297 l -2.98,14.902 C 419.195,234.047 425,227.703 425,220" /><path
         id="path74"
         style="fill:#97633d;fill-opacity:1;fill-rule:nonzero;stroke:none"
         d="m 305,220 h 30 v 15 h -30 z" /><path
         id="path76"
         style="fill:#f3cc70;fill-opacity:1;fill-rule:nonzero;stroke:none"
         d="m 230,440 h 180 c 8.285,0 15,6.715 15,15 0,8.285 -6.715,15 -15,15 H 230 c -8.285,0 -15,-6.715 -15,-15 0,-8.285 6.715,-15 15,-15" /><path
         id="path78"
         style="fill:#f3cc70;fill-opacity:1;fill-rule:nonzero;stroke:none"
         d="m 230,220 h 180 c 8.285,0 15,6.715 15,15 0,8.285 -6.715,15 -15,15 H 230 c -8.285,0 -15,-6.715 -15,-15 0,-8.285 6.715,-15 15,-15" /><path
         id="path80"
         style="fill:#c84755;fill-opacity:1;fill-rule:nonzero;stroke:none"
         d="m 207.801,272.18 0.789,1.285 c 3.969,6.422 22.469,35.992 42.765,63.523 10.122,13.746 20.75,27.008 29.805,36.289 4.496,4.629 8.633,8.25 11.625,10.301 1.481,1.027 2.664,1.652 3.238,1.883 l 0.301,0.113 0.043,0.016 -0.953,3.699 v -3.793 l 0.953,0.094 -0.953,3.699 v -3.793 7.832 l -4.312,-6.469 c 1.39,-0.976 3.328,-1.406 4.312,-1.363 v 7.832 l -4.312,-6.469 3.652,5.481 -5.59,-3.594 c 0.238,-0.379 0.883,-1.191 1.938,-1.887 l 3.652,5.481 -5.59,-3.594 2.094,1.348 -2.242,-1.086 0.148,-0.262 2.094,1.348 -2.242,-1.086 0.168,-0.492 c 0.347,-1.114 0.836,-4.075 0.816,-8.516 0.008,-30.602 -0.027,-52.41 1.16,-67.699 0.656,-7.727 1.406,-13.719 3.528,-19.668 1.125,-2.965 2.625,-6.168 5.808,-9.336 1.582,-1.559 3.649,-3.031 6.035,-4.027 2.375,-1.012 5.004,-1.493 7.383,-1.481 2.969,0.004 5.512,0.656 7.617,1.461 3.168,1.242 5.532,2.813 7.75,4.496 2.203,1.699 4.235,3.563 6.321,5.645 5.41,5.418 12.203,12.836 20.355,21.293 12.184,12.656 27.301,27.492 43.461,39.781 16.125,12.34 33.316,21.859 48.523,24.828 8.122,1.625 13.391,9.527 11.766,17.648 -1.625,8.125 -9.527,13.391 -17.648,11.766 -14.864,-2.988 -28.84,-9.41 -41.907,-17.371 -19.578,-11.973 -37.246,-27.547 -52.05,-41.969 -14.739,-14.383 -26.762,-27.832 -33.707,-34.762 -1.926,-1.941 -3.438,-3.152 -3.942,-3.464 l -0.129,-0.082 -0.008,-0.004 3.598,-6.637 v 7.367 c -2.465,-0.035 -3.535,-0.722 -3.598,-0.73 l 3.598,-6.637 v 7.367 -10.957 l 4.25,10.094 c -1.398,0.598 -2.98,0.875 -4.25,0.863 v -10.957 l 4.25,10.094 -3.668,-8.715 8.172,5.07 c -0.367,0.625 -1.789,2.504 -4.504,3.645 l -3.668,-8.715 8.172,5.07 -3.68,-2.281 3.864,1.957 -0.184,0.324 -3.68,-2.281 3.864,1.957 -0.926,-0.465 0.957,0.403 -0.031,0.062 -0.926,-0.465 0.957,0.403 c -0.117,0.16 -0.836,2.597 -1.285,6.425 -0.735,5.789 -1.184,14.778 -1.387,26.563 C 320,347.684 320,362.359 320,380 c -0.082,8.523 -0.812,15.488 -4.145,22.41 -1.695,3.414 -4.335,6.899 -8.113,9.41 -3.75,2.547 -8.371,3.723 -12.328,3.676 -4.512,-0.023 -8.258,-1.18 -11.57,-2.617 -6.184,-2.77 -11.34,-6.727 -16.703,-11.473 -9.274,-8.316 -18.813,-19.324 -28.364,-31.41 -28.48,-36.137 -56.406,-81.922 -56.578,-82.176 -4.32,-7.066 -2.09,-16.3 4.981,-20.621 7.066,-4.316 16.3,-2.09 20.621,4.981" /></g></g></svg>