<?xml version="1.0" encoding="UTF-8" standalone="no"?>
<svg
   xmlns:dc="http://purl.org/dc/elements/1.1/"
   xmlns:cc="http://creativecommons.org/ns#"
   xmlns:rdf="http://www.w3.org/1999/02/22-rdf-syntax-ns#"
   xmlns:svg="http://www.w3.org/2000/svg"
   xmlns="http://www.w3.org/2000/svg"
   viewBox="0 0 85.333336 85.333336"
   height="85.333336"
   width="85.333336"
   xml:space="preserve"
   id="svg2"
   version="1.1"><metadata
     id="metadata8"><rdf:RDF><cc:Work
         rdf:about=""><dc:format>image/svg+xml</dc:format><dc:type
           rdf:resource="http://purl.org/dc/dcmitype/StillImage" /></cc:Work></rdf:RDF></metadata><defs
     id="defs6" /><g
     transform="matrix(1.3333333,0,0,-1.3333333,0,85.333333)"
     id="g10"><g
       transform="scale(0.1)"
       id="g12"><path
         id="path14"
         style="fill:#c84755;fill-opacity:1;fill-rule:nonzero;stroke:none"
         d="M 640,320 C 640,143.27 496.73,0 320,0 143.27,0 0,143.27 0,320 0,496.73 143.27,640 320,640 496.73,640 640,496.73 640,320" /><path
         id="path16"
         style="fill:#a43f4a;fill-opacity:1;fill-rule:nonzero;stroke:none"
         d="m 176.461,136.855 c -4.773,0 -9.141,1.543 -12.336,4.739 l -10.141,10.14 c -5.507,5.508 -6.101,14.485 -2.363,23.051 0.652,-1.101 1.438,-2.125 2.363,-3.051 l 10.141,-10.14 c 3.195,-3.196 7.563,-4.739 12.336,-4.739 7.086,0 15.07,3.395 21.484,9.809 l 8.84,8.84 c 11.258,11.258 24.067,15.637 31.606,17.355 1.875,0.243 3.75,0.594 5.629,1.02 l 0.875,0.086 -0.086,0.098 c 10.968,2.621 21.543,8.082 27.937,14.476 l 131.422,131.422 10,-10 -141.422,-141.422 c -6.394,-6.394 -16.969,-11.855 -27.937,-14.476 l 0.086,-0.098 -0.875,-0.086 c -1.879,-0.426 -3.754,-0.777 -5.629,-1.02 -7.539,-1.718 -20.348,-6.097 -31.606,-17.355 l -8.84,-8.84 c -6.414,-6.414 -14.398,-9.809 -21.484,-9.809 m 33.621,79.684 4,16.719 c 0.707,2.234 1.27,4.336 1.719,6.273 l 0.254,1.09 0.168,1.106 0.414,2.179 0.078,0.348 0.023,0.094 c 1.645,6.875 4.867,12.043 6.512,13.687 l 131.422,131.422 9.996,-10 L 223.25,238.035 c -1.645,-1.644 -4.867,-6.812 -6.512,-13.687 l -0.031,-0.133 -0.066,-0.293 -0.418,-2.203 -0.172,-1.102 -0.25,-1.082 c -0.129,-0.558 -0.27,-1.129 -0.418,-1.715 l -5.301,-1.281" /><path
         id="path18"
         style="fill:#e1e3cc;fill-opacity:1;fill-rule:nonzero;stroke:none"
         d="M 370.367,447.578 202.035,279.25 c -6.39,-6.391 -11.847,-16.961 -14.472,-27.922 l -0.102,0.07 -0.082,-0.867 c -0.32,-1.406 -0.586,-2.816 -0.805,-4.23 -1.554,-6.707 -5.949,-19.176 -18.679,-31.906 v 0 l -8.84,-8.84 c -10.739,-10.739 -13.008,-25.879 -5.071,-33.821 l 10.141,-10.14 c 3.195,-3.196 7.563,-4.739 12.336,-4.739 7.086,0 15.07,3.395 21.484,9.809 l 8.84,8.84 c 11.258,11.258 24.067,15.637 31.606,17.355 1.875,0.243 3.75,0.594 5.629,1.02 l 0.875,0.086 -0.086,0.098 c 10.968,2.621 21.543,8.082 27.937,14.476 l 169.195,169.195 c -19.324,27.086 -45.496,48.922 -71.574,69.844 m 1.985,-40.441 c 10.414,-8.848 20.293,-17.875 29.168,-27.399 L 251.531,229.754 c -1.644,-1.649 -6.816,-4.871 -13.695,-6.516 l -0.125,-0.027 -0.309,-0.07 c -0.957,-0.215 -1.914,-0.407 -2.871,-0.532 l -1.414,-0.183 -1.394,-0.317 c -2.739,-0.625 -5.766,-1.441 -8.989,-2.515 l -12.652,-3.055 4,16.719 c 0.707,2.234 1.27,4.336 1.719,6.273 l 0.254,1.09 0.168,1.106 0.414,2.179 0.078,0.348 0.023,0.094 c 1.645,6.875 4.867,12.043 6.512,13.687 l 149.102,149.102" /><path
         id="path20"
         style="fill:#a43f4a;fill-opacity:1;fill-rule:nonzero;stroke:none"
         d="m 457.027,386.098 -57.433,57.429 34.043,34.047 c 4.879,4.879 11.386,7.278 18.148,7.278 7.891,0 16.125,-3.266 22.531,-9.668 L 488.68,460.82 c 11.894,-11.894 12.965,-30.105 2.39,-40.679 l -34.043,-34.043" /><path
         id="path22"
         style="fill:#a43f4a;fill-opacity:1;fill-rule:nonzero;stroke:none"
         d="m 434.828,309.301 -20.66,20.66 27.773,27.773 c -2.761,3.871 -5.668,7.637 -8.687,11.309 l 2.805,2.805 c 0.996,-1.246 1.976,-2.504 2.945,-3.778 l 18.023,18.028 13.157,-13.16 c 7.808,-7.809 7.808,-20.473 0,-28.282 l -14.145,-14.144 c -7.809,-7.809 -21.211,-21.211 -21.211,-21.211 m -51.875,51.871 -18.285,18.285 7.684,7.684 c 6.675,-5.676 13.132,-11.422 19.246,-17.325 l -8.645,-8.644 m -49.496,49.5 -11.766,11.766 c 0,0 13.403,13.402 21.211,21.21 l 14.145,14.145 c 3.902,3.902 9.023,5.855 14.141,5.855 5.117,0 10.238,-1.953 14.14,-5.855 l 14.266,-14.266 -10.914,-10.91 c -6.047,5.074 -12.184,10.043 -18.313,14.961 l -36.91,-36.906" /><path
         id="path24"
         style="fill:#883840;fill-opacity:1;fill-rule:nonzero;stroke:none"
         d="m 414.168,329.961 -10,10 29.086,29.082 c 3.019,-3.672 5.926,-7.438 8.687,-11.309 l -27.773,-27.773 m -22.57,39.855 c -6.114,5.903 -12.571,11.649 -19.246,17.325 l -7.684,-7.684 -9.996,10 17.68,17.68 c 10.414,-8.848 20.293,-17.875 29.168,-27.399 l -9.922,-9.922" /><path
         id="path26"
         style="fill:#b7b7a7;fill-opacity:1;fill-rule:nonzero;stroke:none"
         d="m 404.168,339.961 -21.215,21.211 8.645,8.644 9.922,9.922 c -8.875,9.524 -18.754,18.551 -29.168,27.399 l -17.68,-17.68 -21.215,21.215 36.91,36.906 c 6.129,-4.918 12.266,-9.887 18.313,-14.961 l -7.903,-7.902 c 19.774,-16.192 39.407,-33.008 55.282,-52.867 l -2.805,-2.805 -29.086,-29.082" /><path
         id="path28"
         style="fill:#883840;fill-opacity:1;fill-rule:nonzero;stroke:none"
         d="m 439.004,368.07 c -0.969,1.274 -1.949,2.532 -2.945,3.778 l 5.882,5.886 c -14.781,20.719 -33.57,38.368 -53.261,54.883 l 10.914,10.91 57.433,-57.429 -18.023,-18.028" /><path
         id="path30"
         style="fill:#97978c;fill-opacity:1;fill-rule:nonzero;stroke:none"
         d="m 436.059,371.848 c -15.875,19.859 -35.508,36.675 -55.282,52.867 l 7.903,7.902 c 19.691,-16.515 38.48,-34.164 53.261,-54.883 l -5.882,-5.886" /><path
         id="path32"
         style="fill:#495672;fill-opacity:1;fill-rule:nonzero;stroke:none"
         d="m 439.004,388.07 52.066,52.071 c 10.575,10.574 9.504,28.785 -2.39,40.679 l -14.364,14.364 c -11.894,11.89 -30.105,12.961 -40.679,2.39 l -52.86,-52.859 c 21.012,-17.207 41.875,-35.125 58.227,-56.645" /><path
         id="path34"
         style="fill:#495672;fill-opacity:1;fill-rule:nonzero;stroke:none"
         d="m 456.039,350.512 c -7.809,-7.809 -21.211,-21.211 -21.211,-21.211 L 321.691,442.438 c 0,0 13.403,13.402 21.211,21.21 l 14.145,14.145 c 7.808,7.809 20.473,7.809 28.281,0 l 84.856,-84.855 c 7.808,-7.809 7.808,-20.473 0,-28.282 l -14.145,-14.144" /></g></g></svg>