<?xml version="1.0" encoding="UTF-8" standalone="no"?>
<svg
   xmlns:dc="http://purl.org/dc/elements/1.1/"
   xmlns:cc="http://creativecommons.org/ns#"
   xmlns:rdf="http://www.w3.org/1999/02/22-rdf-syntax-ns#"
   xmlns:svg="http://www.w3.org/2000/svg"
   xmlns="http://www.w3.org/2000/svg"
   viewBox="0 0 85.333336 85.333336"
   height="85.333336"
   width="85.333336"
   xml:space="preserve"
   id="svg2"
   version="1.1"><metadata
     id="metadata8"><rdf:RDF><cc:Work
         rdf:about=""><dc:format>image/svg+xml</dc:format><dc:type
           rdf:resource="http://purl.org/dc/dcmitype/StillImage" /></cc:Work></rdf:RDF></metadata><defs
     id="defs6" /><g
     transform="matrix(1.3333333,0,0,-1.3333333,0,85.333333)"
     id="g10"><g
       transform="scale(0.1)"
       id="g12"><path
         id="path14"
         style="fill:#c84755;fill-opacity:1;fill-rule:nonzero;stroke:none"
         d="M 640,320 C 640,143.27 496.73,0 320,0 143.27,0 0,143.27 0,320 0,496.73 143.27,640 320,640 496.73,640 640,496.73 640,320" /><path
         id="path16"
         style="fill:#a43f4a;fill-opacity:1;fill-rule:nonzero;stroke:none"
         d="m 400,140 c -40,0 -80,0 -120,80 -40,80 -80,80 -80,80 V 160 c 0,-11.047 -8.953,-20 -20,-20 -11.047,0 -20,8.953 -20,20 0,120 -40,180 -40,220 0,40 40,80 40,80 0,0 37.148,-19.566 118.125,-151.875 35.883,-58.633 71.766,-72.918 98.219,-72.918 25.148,0.004 41.781,12.918 41.781,12.918 0,0 63.566,-26.711 83.75,-41.875 C 523.793,189.785 520,174.332 520,156.875 520,141.875 440,140 400,140" /><path
         id="path18"
         style="fill:#ffffff;fill-opacity:1;fill-rule:nonzero;stroke:none"
         d="m 160,480 c 0,0 -40,-40 -40,-80 0,-40 40,-100 40,-220 h 40 v 140 c 0,0 40,0 80,-80 40,-80 80,-80 120,-80 40,0 120,1.875 120,16.875 0,17.457 3.793,32.91 -18.125,49.375 -20.184,15.164 -83.75,41.875 -83.75,41.875 0,0 -70,-54.375 -140,60 C 197.148,460.434 160,480 160,480" /><path
         id="path20"
         style="fill:#ffffff;fill-opacity:1;fill-rule:nonzero;stroke:none"
         d="m 200,180 c 0,-11.047 -8.953,-20 -20,-20 -11.047,0 -20,8.953 -20,20 0,11.047 8.953,20 20,20 11.047,0 20,-8.953 20,-20" /></g></g></svg>