<?xml version="1.0" encoding="UTF-8" standalone="no"?>
<svg
   xmlns:dc="http://purl.org/dc/elements/1.1/"
   xmlns:cc="http://creativecommons.org/ns#"
   xmlns:rdf="http://www.w3.org/1999/02/22-rdf-syntax-ns#"
   xmlns:svg="http://www.w3.org/2000/svg"
   xmlns="http://www.w3.org/2000/svg"
   viewBox="0 0 85.333336 85.333336"
   height="85.333336"
   width="85.333336"
   xml:space="preserve"
   id="svg2"
   version="1.1"><metadata
     id="metadata8"><rdf:RDF><cc:Work
         rdf:about=""><dc:format>image/svg+xml</dc:format><dc:type
           rdf:resource="http://purl.org/dc/dcmitype/StillImage" /></cc:Work></rdf:RDF></metadata><defs
     id="defs6" /><g
     transform="matrix(1.3333333,0,0,-1.3333333,0,85.333333)"
     id="g10"><g
       transform="scale(0.1)"
       id="g12"><path
         id="path14"
         style="fill:#7db6d8;fill-opacity:1;fill-rule:nonzero;stroke:none"
         d="M 640,320 C 640,143.27 496.73,0 320,0 143.27,0 0,143.27 0,320 0,496.73 143.27,640 320,640 496.73,640 640,496.73 640,320" /><path
         id="path16"
         style="fill:#6594b2;fill-opacity:1;fill-rule:nonzero;stroke:none"
         d="m 346.895,172.766 c -1.391,2.433 -2.598,4.984 -3.61,7.632 37.32,6.704 69.149,29.239 88.285,60.403 1.071,-0.965 2.102,-1.977 3.094,-3.024 -18.113,-32.863 -49.941,-57.105 -87.769,-65.011 m -54.344,0.117 c -37.742,8.058 -69.457,32.398 -87.442,65.308 0.996,1.028 2.028,2.02 3.098,2.969 19.016,-31.187 50.715,-53.797 87.926,-60.656 -1,-2.641 -2.203,-5.191 -3.582,-7.621 m 155.125,107.594 c 1.773,7.925 2.828,16.125 3.094,24.523 0.043,-1.383 0.062,-2.773 0.062,-4.168 0,-6.84 -0.523,-13.562 -1.535,-20.117 -0.539,-0.09 -1.078,-0.168 -1.621,-0.238 m -255.367,0.054 c -0.539,0.078 -1.079,0.16 -1.618,0.254 -1.003,6.535 -1.523,13.231 -1.523,20.047 0,1.395 0.02,2.785 0.062,4.168 0.262,-8.379 1.313,-16.559 3.079,-24.469" /><path
         id="path18"
         style="fill:#495672;fill-opacity:1;fill-rule:nonzero;stroke:none"
         d="M 450.832,309.168 C 450.832,236.91 392.258,178.332 320,178.332 247.742,178.332 189.168,236.91 189.168,309.168 189.168,381.426 247.742,440 320,440 392.258,440 450.832,381.426 450.832,309.168" /><path
         id="path20"
         style="fill:#495672;fill-opacity:1;fill-rule:nonzero;stroke:none"
         d="m 450.832,320 c 0,-72.258 -58.574,-130.832 -130.832,-130.832 -72.258,0 -130.832,58.574 -130.832,130.832 0,72.258 58.574,130.832 130.832,130.832 72.258,0 130.832,-58.574 130.832,-130.832" /><path
         id="path22"
         style="fill:#6594b2;fill-opacity:1;fill-rule:nonzero;stroke:none"
         d="m 320,80 c -121.504,0 -220,98.496 -220,220 0,121.504 98.496,220 220,220 121.504,0 220,-98.496 220,-220 C 540,178.496 441.504,80 320,80 m 26.895,92.766 C 356.363,156.18 374.223,145 394.688,145 c 30.378,0 55,24.625 55,55 0,14.629 -5.711,27.926 -15.024,37.777 7.223,13.106 12.262,27.578 14.633,42.938 26.152,4.242 46.121,26.933 46.121,54.285 0,30.375 -24.625,55 -55,55 -3.195,0 -6.324,-0.273 -9.367,-0.793 -13.797,22.094 -34.004,39.773 -58.02,50.434 C 366.621,462.91 345.305,480 320,480 c -25.305,0 -46.621,-17.09 -53.031,-40.359 -23.992,-10.653 -44.184,-28.305 -57.981,-50.371 -2.925,0.48 -5.925,0.73 -8.988,0.73 -30.375,0 -55,-24.625 -55,-55 0,-27.203 19.75,-49.793 45.691,-54.215 2.344,-15.222 7.305,-29.578 14.418,-42.594 -9.546,-9.894 -15.421,-23.355 -15.421,-38.191 0,-30.375 24.625,-55 55,-55 20.515,0 38.41,11.234 47.863,27.883 C 301.402,170.992 310.586,170 320,170 c 9.219,0 18.215,0.953 26.895,2.766" /><path
         id="path24"
         style="fill:#567a95;fill-opacity:1;fill-rule:nonzero;stroke:none"
         d="m 320,170 c -9.414,0 -18.598,0.992 -27.449,2.883 1.379,2.43 2.582,4.98 3.582,7.621 7.738,-1.426 15.719,-2.172 23.867,-2.172 7.945,0 15.727,0.711 23.285,2.066 1.012,-2.648 2.219,-5.199 3.61,-7.632 C 338.215,170.953 329.219,170 320,170 m 114.664,67.777 c -0.992,1.047 -2.023,2.059 -3.094,3.024 7.414,12.07 12.918,25.433 16.106,39.676 0.543,0.07 1.082,0.148 1.621,0.238 -2.371,-15.36 -7.41,-29.832 -14.633,-42.938 m -229.555,0.414 c -7.113,13.016 -12.074,27.372 -14.418,42.594 0.539,-0.094 1.079,-0.176 1.618,-0.254 3.156,-14.121 8.586,-27.379 15.898,-39.371 -1.07,-0.949 -2.102,-1.941 -3.098,-2.969" /><path
         id="path26"
         style="fill:#404a5f;fill-opacity:1;fill-rule:nonzero;stroke:none"
         d="m 320,178.332 c -8.148,0 -16.129,0.746 -23.867,2.172 1.258,3.309 2.199,6.773 2.801,10.351 6.855,-1.113 13.894,-1.687 21.066,-1.687 6.961,0 13.797,0.543 20.461,1.59 0.605,-3.582 1.562,-7.047 2.824,-10.36 -7.558,-1.355 -15.34,-2.066 -23.285,-2.066 m 111.57,62.469 c -1.48,1.34 -3.035,2.601 -4.652,3.773 7.613,10.774 13.641,22.75 17.738,35.586 1.016,0.078 2.024,0.184 3.02,0.317 -3.188,-14.243 -8.692,-27.606 -16.106,-39.676 m -223.363,0.359 c -7.312,11.992 -12.742,25.25 -15.898,39.371 1,-0.136 2.007,-0.25 3.023,-0.336 4.063,-12.73 10.023,-24.621 17.543,-35.324 -1.625,-1.152 -3.18,-2.391 -4.668,-3.711" /><path
         id="path28"
         style="fill:#404a5f;fill-opacity:1;fill-rule:nonzero;stroke:none"
         d="m 320,189.168 c -7.172,0 -14.211,0.574 -21.066,1.687 0.496,2.973 0.754,6.028 0.754,9.145 0,30.375 -24.622,55 -55,55 -11.852,0 -22.833,-3.75 -31.813,-10.129 -7.52,10.703 -13.48,22.594 -17.543,35.324 1.539,-0.129 3.098,-0.195 4.668,-0.195 30.375,0 55,24.625 55,55 0,27.316 -19.91,49.98 -46.012,54.27 13.797,22.066 33.989,39.718 57.981,50.371 C 265.688,434.98 265,430.07 265,425 c 0,-30.375 24.625,-55 55,-55 30.375,0 55,24.625 55,55 0,5.07 -0.687,9.98 -1.969,14.641 24.016,-10.661 44.223,-28.34 58.02,-50.434 -25.914,-4.445 -45.633,-27.023 -45.633,-54.207 0,-30.375 24.625,-55 55,-55 1.426,0 2.84,0.055 4.238,0.16 -4.097,-12.836 -10.125,-24.812 -17.738,-35.586 -9.059,6.559 -20.191,10.426 -32.23,10.426 -30.375,0 -55,-24.625 -55,-55 0,-3.148 0.265,-6.238 0.773,-9.242 -6.664,-1.047 -13.5,-1.59 -20.461,-1.59" /><path
         id="path30"
         style="fill:#ffffff;fill-opacity:1;fill-rule:nonzero;stroke:none"
         d="m 440.418,300 c -30.375,0 -55,24.625 -55,55 0,30.375 24.625,55 55,55 30.375,0 55,-24.625 55,-55 0,-30.375 -24.625,-55 -55,-55 z m -45.73,-135 c -30.375,0 -55,24.625 -55,55 0,30.375 24.625,55 55,55 30.378,0 55,-24.625 55,-55 0,-30.375 -24.622,-55 -55,-55 z M 265,445 c 0,30.375 24.625,55 55,55 30.375,0 55,-24.625 55,-55 0,-30.375 -24.625,-55 -55,-55 -30.375,0 -55,24.625 -55,55 z M 244.688,165 c -30.375,0 -55,24.625 -55,55 0,30.375 24.625,55 55,55 30.378,0 55,-24.625 55,-55 0,-30.375 -24.622,-55 -55,-55 z M 145,355 c 0,30.375 24.625,55 55,55 30.375,0 55,-24.625 55,-55 0,-30.375 -24.625,-55 -55,-55 -30.375,0 -55,24.625 -55,55 z m 175,185 c -121.504,0 -220,-98.496 -220,-220 0,-121.504 98.496,-220 220,-220 121.504,0 220,98.496 220,220 0,121.504 -98.496,220 -220,220" /></g></g></svg>