<?xml version="1.0" encoding="UTF-8" standalone="no"?>
<svg
   xmlns:dc="http://purl.org/dc/elements/1.1/"
   xmlns:cc="http://creativecommons.org/ns#"
   xmlns:rdf="http://www.w3.org/1999/02/22-rdf-syntax-ns#"
   xmlns:svg="http://www.w3.org/2000/svg"
   xmlns="http://www.w3.org/2000/svg"
   viewBox="0 0 85.333336 85.333336"
   height="85.333336"
   width="85.333336"
   xml:space="preserve"
   id="svg2"
   version="1.1"><metadata
     id="metadata8"><rdf:RDF><cc:Work
         rdf:about=""><dc:format>image/svg+xml</dc:format><dc:type
           rdf:resource="http://purl.org/dc/dcmitype/StillImage" /></cc:Work></rdf:RDF></metadata><defs
     id="defs6" /><g
     transform="matrix(1.3333333,0,0,-1.3333333,0,85.333333)"
     id="g10"><g
       transform="scale(0.1)"
       id="g12"><path
         id="path14"
         style="fill:#e08e4c;fill-opacity:1;fill-rule:nonzero;stroke:none"
         d="M 640,320 C 640,143.27 496.73,0 320,0 143.27,0 0,143.27 0,320 0,496.73 143.27,640 320,640 496.73,640 640,496.73 640,320" /><path
         id="path16"
         style="fill:#b77744;fill-opacity:1;fill-rule:nonzero;stroke:none"
         d="m 450,190 h -80 v 220 h 130 c 11.047,0 20,-8.953 20,-20 v -80 c 0,-11.047 -8.953,-20 -20,-20 h -10 c -20,0 -20,-20 -20,-20 v -60 c 0,-11.047 -8.953,-20 -20,-20" /><path
         id="path18"
         style="fill:#b77744;fill-opacity:1;fill-rule:nonzero;stroke:none"
         d="M 340,130 H 180 c -11.047,0 -20,8.953 -20,20 v 280 c 0,11.047 8.953,20 20,20 h 20 v 0 c 0,-11.047 8.953,-20 20,-20 h 80 c 11.047,0 20,8.953 20,20 v 0 h 20 c 11.047,0 20,-8.953 20,-20 V 150 c 0,-11.047 -8.953,-20 -20,-20" /><path
         id="path20"
         style="fill:#b77744;fill-opacity:1;fill-rule:nonzero;stroke:none"
         d="M 320,450 H 200 c 0,11.047 8.953,20 20,20 h 80 c 11.047,0 20,-8.953 20,-20" /><path
         id="path22"
         style="fill:#97633d;fill-opacity:1;fill-rule:nonzero;stroke:none"
         d="m 300,430 h -80 c -11.047,0 -20,8.953 -20,20 v 0 h 120 v 0 c 0,-11.047 -8.953,-20 -20,-20" /><path
         id="path24"
         style="fill:#f3cc70;fill-opacity:1;fill-rule:nonzero;stroke:none"
         d="M 500,430 H 370 V 210 h 80 c 11.047,0 20,8.953 20,20 v 60 c 0,0 0,20 20,20 h 10 c 11.047,0 20,8.953 20,20 v 80 c 0,11.047 -8.953,20 -20,20" /><path
         id="path26"
         style="fill:#495672;fill-opacity:1;fill-rule:nonzero;stroke:none"
         d="m 360,170 c 0,-11.047 -8.953,-20 -20,-20 H 180 c -11.047,0 -20,8.953 -20,20 v 280 c 0,11.047 8.953,20 20,20 h 160 c 11.047,0 20,-8.953 20,-20 V 170" /><path
         id="path28"
         style="fill:#495672;fill-opacity:1;fill-rule:nonzero;stroke:none"
         d="m 320,470 c 0,-11.047 -8.953,-20 -20,-20 h -80 c -11.047,0 -20,8.953 -20,20 0,11.047 8.953,20 20,20 h 80 c 11.047,0 20,-8.953 20,-20" /></g></g></svg>