<?xml version="1.0" encoding="UTF-8" standalone="no"?>
<svg
   xmlns:dc="http://purl.org/dc/elements/1.1/"
   xmlns:cc="http://creativecommons.org/ns#"
   xmlns:rdf="http://www.w3.org/1999/02/22-rdf-syntax-ns#"
   xmlns:svg="http://www.w3.org/2000/svg"
   xmlns="http://www.w3.org/2000/svg"
   viewBox="0 0 85.333336 85.333336"
   height="85.333336"
   width="85.333336"
   xml:space="preserve"
   id="svg2"
   version="1.1"><metadata
     id="metadata8"><rdf:RDF><cc:Work
         rdf:about=""><dc:format>image/svg+xml</dc:format><dc:type
           rdf:resource="http://purl.org/dc/dcmitype/StillImage" /></cc:Work></rdf:RDF></metadata><defs
     id="defs6" /><g
     transform="matrix(1.3333333,0,0,-1.3333333,0,85.333333)"
     id="g10"><g
       transform="scale(0.1)"
       id="g12"><path
         id="path14"
         style="fill:#e1e3cc;fill-opacity:1;fill-rule:nonzero;stroke:none"
         d="M 638.332,320 C 638.332,143.27 495.066,0 318.332,0 141.602,0 -1.66797,143.27 -1.66797,320 c 0,176.73 143.26997,320 319.99997,320 176.734,0 320,-143.27 320,-320" /><path
         id="path16"
         style="fill:#b7b7a7;fill-opacity:1;fill-rule:nonzero;stroke:none"
         d="M 310,260 H 200 v 20 h 110 v -20 m 46.59,190 h -0.004 c 4.809,3.254 9.684,6.676 14.047,10 v 0 c -4.363,-3.324 -9.238,-6.746 -14.043,-10 m 29.504,6.559 v 0.121 c 0,-0.039 0,-0.082 0,-0.121" /><path
         id="path18"
         style="fill:#77caa9;fill-opacity:1;fill-rule:nonzero;stroke:none"
         d="m 386.094,440 v 36.559 c -0.18,-8.938 -39.031,-32.758 -51.742,-41.071 4.566,2.809 9.89,4.512 15.648,4.512 h 36.094" /><path
         id="path20"
         style="fill:#c84755;fill-opacity:1;fill-rule:nonzero;stroke:none"
         d="m 386.094,476.559 c 0.043,2.152 -2.16,3.441 -7.512,3.441 H 240 230 200 V 450 310 280 h 30 10 80 v 130 c 0,2.367 0.293,4.664 0.813,6.875 1.496,6.375 5.007,11.977 9.847,16.063 4.317,3.64 55.227,33.386 55.434,43.621" /><path
         id="path22"
         style="fill:#b7b7a7;fill-opacity:1;fill-rule:nonzero;stroke:none"
         d="M 490,220 H 340 c -16.57,0 -30,13.43 -30,30 v 10 h 10 v 20 110 c 0,2.367 0.293,4.664 0.813,6.875 1.496,6.375 5.007,11.977 9.847,16.063 2.762,2.328 24.551,15.32 39.973,27.062 h 0.004 c -12.367,-9.418 -28.828,-19.637 -36.285,-24.512 4.566,2.809 9.89,4.512 15.648,4.512 h 36.094 v 20 H 490 c 16.57,0 30,-13.43 30,-30 V 250 c 0,-16.57 -13.43,-30 -30,-30" /><path
         id="path24"
         style="fill:#97978c;fill-opacity:1;fill-rule:nonzero;stroke:none"
         d="m 334.352,415.488 c 7.457,4.875 23.918,15.094 36.285,24.512 h 15.449 0.008 V 420 H 350 c -5.758,0 -11.082,-1.703 -15.648,-4.512" /><path
         id="path26"
         style="fill:#97978c;fill-opacity:1;fill-rule:nonzero;stroke:none"
         d="m 320,260 h -10 v 20 h 10 v -20 m 0,130 v 20 c 0,2.367 0.293,4.664 0.813,6.875 1.496,6.375 5.007,11.977 9.847,16.063 1.981,1.667 13.742,8.82 25.926,17.062 h 0.004 c -8.817,-5.965 -17.414,-11.355 -22.238,-14.512 4.566,2.809 9.89,4.512 15.648,4.512 h 20.633 c -15.422,-11.742 -37.211,-24.734 -39.973,-27.062 -4.84,-4.086 -8.351,-9.688 -9.847,-16.063 C 320.293,394.664 320,392.367 320,390" /><path
         id="path28"
         style="fill:#62a48d;fill-opacity:1;fill-rule:nonzero;stroke:none"
         d="m 334.352,435.488 c 4.824,3.157 13.421,8.547 22.238,14.512 h 29.496 V 440 H 370.637 370.633 350 c -5.758,0 -11.082,-1.703 -15.648,-4.512" /><path
         id="path30"
         style="fill:#a43f4a;fill-opacity:1;fill-rule:nonzero;stroke:none"
         d="m 320,280 v 0 h -10 v 140 c 0,16.57 13.43,30 30,30 h 16.586 c -12.184,-8.242 -23.945,-15.395 -25.926,-17.062 -4.84,-4.086 -8.351,-9.688 -9.847,-16.063 C 320.293,414.664 320,412.367 320,410 V 390 280" /><path
         id="path32"
         style="fill:#c84755;fill-opacity:1;fill-rule:nonzero;stroke:none"
         d="M 490,440 H 350 c -16.57,0 -30,-13.43 -30,-30 V 280 270 c 0,-16.57 13.43,-30 30,-30 h 140 c 16.57,0 30,13.43 30,30 v 140 c 0,16.57 -13.43,30 -30,30" /><path
         id="path34"
         style="fill:#b7b7a7;fill-opacity:1;fill-rule:nonzero;stroke:none"
         d="m 180,100 c -11.047,0 -20,8.953 -20,20 v 327.641 0 V 140 c 0,-11.047 8.953,-20 20,-20 11.047,0 20,8.953 20,20 v -20 c 0,-11.047 -8.953,-20 -20,-20" /><path
         id="path36"
         style="fill:#e08e4c;fill-opacity:1;fill-rule:nonzero;stroke:none"
         d="m 200,140 c 0,-11.047 -8.953,-20 -20,-20 -11.047,0 -20,8.953 -20,20 v 340 c 0,11.047 8.953,20 20,20 11.047,0 20,-8.953 20,-20 V 140" /><path
         id="path38"
         style="fill:#b7b7a7;fill-opacity:1;fill-rule:nonzero;stroke:none"
         d="M 208.293,480 H 200 c 0,11.035 -8.937,19.984 -19.969,20 13.047,-0.016 24.149,-8.359 28.262,-20" /><path
         id="path40"
         style="fill:#a43f4a;fill-opacity:1;fill-rule:nonzero;stroke:none"
         d="M 200,447.641 V 480 h 8.293 c 1.105,-3.129 1.707,-6.492 1.707,-10 0,-8.887 -3.863,-16.867 -10,-22.359" /><path
         id="path42"
         style="fill:#b7b7a7;fill-opacity:1;fill-rule:nonzero;stroke:none"
         d="m 160,447.641 c -6.137,5.492 -10,13.472 -10,22.359 0,16.57 13.434,30 30,30 -11.047,0 -20,-8.953 -20,-20 v -20 0 -12.359" /><path
         id="path44"
         style="fill:#b77744;fill-opacity:1;fill-rule:nonzero;stroke:none"
         d="m 180,440 c -7.684,0 -14.691,2.891 -20,7.641 V 460 480 c 0,11.047 8.953,20 20,20 v 0 c 0.012,0 0.02,0 0.031,0 C 191.063,499.984 200,491.035 200,480 v 0 -32.359 C 194.691,442.887 187.684,440 180,440" /><path
         id="path46"
         style="fill:#e08e4c;fill-opacity:1;fill-rule:nonzero;stroke:none"
         d="m 210,490 c 0,-16.57 -13.43,-30 -30,-30 -16.566,0 -30,13.43 -30,30 0,16.57 13.434,30 30,30 16.57,0 30,-13.43 30,-30" /></g></g></svg>