<?xml version="1.0" encoding="UTF-8" standalone="no"?>
<svg
   xmlns:dc="http://purl.org/dc/elements/1.1/"
   xmlns:cc="http://creativecommons.org/ns#"
   xmlns:rdf="http://www.w3.org/1999/02/22-rdf-syntax-ns#"
   xmlns:svg="http://www.w3.org/2000/svg"
   xmlns="http://www.w3.org/2000/svg"
   viewBox="0 0 85.333336 85.333336"
   height="85.333336"
   width="85.333336"
   xml:space="preserve"
   id="svg2"
   version="1.1"><metadata
     id="metadata8"><rdf:RDF><cc:Work
         rdf:about=""><dc:format>image/svg+xml</dc:format><dc:type
           rdf:resource="http://purl.org/dc/dcmitype/StillImage" /></cc:Work></rdf:RDF></metadata><defs
     id="defs6" /><g
     transform="matrix(1.3333333,0,0,-1.3333333,0,85.333333)"
     id="g10"><g
       transform="scale(0.1)"
       id="g12"><path
         id="path14"
         style="fill:#c84755;fill-opacity:1;fill-rule:nonzero;stroke:none"
         d="M 640,320 C 640,143.27 496.73,0 320,0 143.27,0 0,143.27 0,320 0,496.73 143.27,640 320,640 496.73,640 640,496.73 640,320" /><path
         id="path16"
         style="fill:#a43f4a;fill-opacity:1;fill-rule:nonzero;stroke:none"
         d="m 281.25,59.375 c 0,0 -160.625,23.7695 -160.625,160.625 0,136.855 210.027,149.91 163.547,319.688 0,0 157.262,-49.211 118.871,-202.45 0,0 20.793,13.282 36.707,39.125 0,0 79.625,-61.508 79.625,-155.113 0,-93.164 -109.352,-161.8047 -161.934,-161.8086 -0.25,0 -0.488,0 -0.734,0.0039 0,0 56.418,76.1797 5.094,125.2887 C 288.938,254.449 320,299.219 320,299.219 c 0,0 -177.543,-86.848 -38.75,-239.844" /><path
         id="path18"
         style="fill:#f3cc70;fill-opacity:1;fill-rule:nonzero;stroke:none"
         d="m 281.25,79.375 c 0,0 -160.625,23.77 -160.625,160.625 0,136.855 210.027,149.91 163.547,319.688 0,0 157.262,-49.211 118.871,-202.45 0,0 20.793,13.282 36.707,39.125 0,0 79.625,-61.508 79.625,-155.113 0,-93.605 -110.379,-162.4531 -162.668,-161.8047 0,0 56.418,76.1797 5.094,125.2887 C 288.938,274.449 320,319.219 320,319.219 c 0,0 -177.543,-86.848 -38.75,-239.844" /></g></g></svg>