<?xml version="1.0" encoding="UTF-8" standalone="no"?>
<svg
   xmlns:dc="http://purl.org/dc/elements/1.1/"
   xmlns:cc="http://creativecommons.org/ns#"
   xmlns:rdf="http://www.w3.org/1999/02/22-rdf-syntax-ns#"
   xmlns:svg="http://www.w3.org/2000/svg"
   xmlns="http://www.w3.org/2000/svg"
   viewBox="0 0 85.333336 85.333336"
   height="85.333336"
   width="85.333336"
   xml:space="preserve"
   id="svg2"
   version="1.1"><metadata
     id="metadata8"><rdf:RDF><cc:Work
         rdf:about=""><dc:format>image/svg+xml</dc:format><dc:type
           rdf:resource="http://purl.org/dc/dcmitype/StillImage" /></cc:Work></rdf:RDF></metadata><defs
     id="defs6" /><g
     transform="matrix(1.3333333,0,0,-1.3333333,0,85.333333)"
     id="g10"><g
       transform="scale(0.1)"
       id="g12"><path
         id="path14"
         style="fill:#f3cc70;fill-opacity:1;fill-rule:nonzero;stroke:none"
         d="M 640,320 C 640,143.27 496.73,0 320,0 143.27,0 0,143.27 0,320 0,496.73 143.27,640 320,640 496.73,640 640,496.73 640,320" /><path
         id="path16"
         style="fill:#495672;fill-opacity:1;fill-rule:nonzero;stroke:none"
         d="m 344.852,140 c 0,-11.047 -8.954,-20 -20,-20 h -120 c -11.043,0 -20,8.953 -20,20 v 240 c 0,11.047 8.957,20 20,20 h 120 c 11.046,0 20,-8.953 20,-20 V 140" /><path
         id="path18"
         style="fill:#ffffff;fill-opacity:1;fill-rule:nonzero;stroke:none"
         d="m 316.422,258.43 c -7.813,-7.809 -20.473,-7.809 -28.285,0 l -84.852,84.855 c -7.812,7.809 -7.812,20.473 0,28.285 l 169.703,169.703 c 7.813,7.813 20.477,7.813 28.285,0 l 84.856,-84.851 c 7.809,-7.813 7.809,-20.473 0,-28.285 L 316.422,258.43" /><path
         id="path20"
         style="fill:#c7a85f;fill-opacity:1;fill-rule:nonzero;stroke:none"
         d="m 344.852,257.156 v 29.707 L 447.988,390 l 0.711,-0.711 c 7.813,-7.809 7.813,-20.473 0,-28.285 L 344.852,257.156 m -160,0 -18.993,18.996 c -7.812,7.813 -7.812,20.473 0,28.286 l 0.707,0.71 18.286,-18.285 v -29.707" /><path
         id="path22"
         style="fill:#404a5f;fill-opacity:1;fill-rule:nonzero;stroke:none"
         d="m 264.852,185.441 c -5.118,0 -10.235,1.954 -14.141,5.86 l -65.859,65.855 v 29.707 l 65.859,-65.859 c 3.906,-3.902 9.023,-5.856 14.141,-5.856 5.121,0 10.238,1.954 14.144,5.856 l 56.567,56.57 9.289,9.289 v -29.707 l -65.856,-65.855 c -3.906,-3.906 -9.023,-5.86 -14.144,-5.86" /><path
         id="path24"
         style="fill:#d4d3d1;fill-opacity:1;fill-rule:nonzero;stroke:none"
         d="M 335.563,277.574 447.988,390 v 0 l -103.136,-103.137 -9.289,-9.289" /><path
         id="path26"
         style="fill:#495672;fill-opacity:1;fill-rule:nonzero;stroke:none"
         d="m 278.996,221.004 c -7.812,-7.809 -20.476,-7.809 -28.285,0 l -84.852,84.855 c -7.812,7.809 -7.812,20.473 0,28.282 l 169.704,169.707 c 7.812,7.808 20.472,7.808 28.285,0 l 84.851,-84.852 c 7.813,-7.812 7.813,-20.476 0,-28.285 L 278.996,221.004" /><path
         id="path28"
         style="fill:#404a5f;fill-opacity:1;fill-rule:nonzero;stroke:none"
         d="m 265,250 c -35.898,0 -65,29.102 -65,65 0,35.898 29.102,65 65,65 35.898,0 65,-29.102 65,-65 0,-35.898 -29.102,-65 -65,-65" /><path
         id="path30"
         style="fill:#495672;fill-opacity:1;fill-rule:nonzero;stroke:none"
         d="m 325.145,321.727 c 0,-33.215 -26.926,-60.145 -60.145,-60.145 -33.219,0 -60.145,26.93 -60.145,60.145 0,33.214 26.926,60.144 60.145,60.144 33.219,0 60.145,-26.93 60.145,-60.144" /></g></g></svg>