<?xml version="1.0" encoding="UTF-8" standalone="no"?>
<svg
   xmlns:dc="http://purl.org/dc/elements/1.1/"
   xmlns:cc="http://creativecommons.org/ns#"
   xmlns:rdf="http://www.w3.org/1999/02/22-rdf-syntax-ns#"
   xmlns:svg="http://www.w3.org/2000/svg"
   xmlns="http://www.w3.org/2000/svg"
   viewBox="0 0 85.333336 85.333336"
   height="85.333336"
   width="85.333336"
   xml:space="preserve"
   id="svg2"
   version="1.1"><metadata
     id="metadata8"><rdf:RDF><cc:Work
         rdf:about=""><dc:format>image/svg+xml</dc:format><dc:type
           rdf:resource="http://purl.org/dc/dcmitype/StillImage" /></cc:Work></rdf:RDF></metadata><defs
     id="defs6" /><g
     transform="matrix(1.3333333,0,0,-1.3333333,0,85.333333)"
     id="g10"><g
       transform="scale(0.1)"
       id="g12"><path
         id="path14"
         style="fill:#495672;fill-opacity:1;fill-rule:nonzero;stroke:none"
         d="M 640,320 C 640,143.27 496.73,0 320,0 143.27,0 0,143.27 0,320 0,496.73 143.27,640 320,640 496.73,640 640,496.73 640,320" /><path
         id="path16"
         style="fill:#77caa9;fill-opacity:1;fill-rule:nonzero;stroke:none"
         d="m 300,400.004 v -250 c 0,-11.047 8.953,-20 20,-20 11.047,0 20,8.953 20,20 v 250 c 0,11.043 -8.953,20 -20,20 -11.047,0 -20,-8.957 -20,-20" /><path
         id="path18"
         style="fill:#404a5f;fill-opacity:1;fill-rule:nonzero;stroke:none"
         d="m 319.961,65.6797 -0.445,0.043 -0.446,-0.043 c -140.711,0 -185.179,119.7733 -189.031,183.1053 -0.488,7.973 3.816,15.461 10.945,19.067 2.852,1.445 5.942,2.156 9.008,2.156 4.602,0 9.16,-1.59 12.84,-4.664 0.445,-0.371 45.09,-37.5 100.156,-67.824 15.168,-8.352 27.301,-17.77 37.012,-27.5 v -20.016 c 0,-11.047 8.953,-20 20,-20 11.047,0 20,8.953 20,20 v 20.976 c 9.547,9.391 21.371,18.461 36.039,26.54 55.176,30.375 100.832,67.578 101.289,67.953 3.652,2.988 8.145,4.523 12.672,4.523 3.105,0 6.227,-0.723 9.105,-2.191 7.079,-3.621 11.34,-11.086 10.856,-19.02 -3.852,-63.332 -48.52,-183.1053 -190,-183.1053" /><path
         id="path20"
         style="fill:#62a48d;fill-opacity:1;fill-rule:nonzero;stroke:none"
         d="m 320,130.004 c -11.047,0 -20,8.953 -20,20 v 20.016 c 8.051,-8.071 14.438,-16.36 19.516,-24.446 5.281,8.406 11.976,17.035 20.484,25.406 v -20.976 c 0,-11.047 -8.953,-20 -20,-20" /><path
         id="path22"
         style="fill:#77caa9;fill-opacity:1;fill-rule:nonzero;stroke:none"
         d="m 319.961,105.68 c 0,0 0,58.129 65.727,94.32 C 443.266,231.703 490,270 490,270 490,270 480,105.68 319.961,105.68" /><path
         id="path24"
         style="fill:#77caa9;fill-opacity:1;fill-rule:nonzero;stroke:none"
         d="m 319.961,105.68 h 20 -10.691 l 10.691,-0.192 v 0.192 H 329.27 l 10.691,-0.192 c 0,0 0.012,0.684 0.141,2.043 0.449,4.774 2.394,17.121 10.031,31.223 7.687,14.125 20.754,30.207 45.203,43.726 59.461,32.774 106.785,71.625 107.34,72.051 L 490,270 l -19.965,1.215 4.508,-0.274 -4.504,0.309 -0.004,-0.035 4.508,-0.274 -4.504,0.309 C 470.07,270.395 466.934,231.746 446.5,195.73 436.313,177.668 422.117,160.336 402.113,147.453 382.063,134.602 356,125.734 319.961,125.68 v -20 h 20 -20 V 85.6797 c 43.406,-0.0586 78.355,11.3437 105.066,28.9613 20.055,13.175 35.414,29.617 47.043,46.55 17.446,25.446 26.719,51.969 31.836,72.25 5.098,20.293 5.996,34.434 6.059,35.344 0.48,7.949 -3.77,15.399 -10.863,19.024 -7.09,3.625 -15.618,2.711 -21.778,-2.34 l -0.441,-0.356 c -4.797,-3.906 -48.637,-38.879 -100.84,-67.593 -36.93,-20.235 -56.66,-47.891 -66.23,-70.332 -9.665,-22.489 -9.833,-39.645 -9.852,-41.508 0,-5.266 2.133,-10.4183 5.859,-14.1409 3.723,-3.7227 8.875,-5.8594 14.141,-5.8594 V 105.68" /><path
         id="path26"
         style="fill:#77caa9;fill-opacity:1;fill-rule:nonzero;stroke:none"
         d="m 319.074,105.68 c 0,0 0,58.129 -65.726,94.32 C 195.77,231.703 150,270 150,270 c 0,0 10,-164.32 169.074,-164.32" /><path
         id="path28"
         style="fill:#77caa9;fill-opacity:1;fill-rule:nonzero;stroke:none"
         d="m 319.074,105.68 h 20 c -0.019,1.863 -0.187,19.019 -9.851,41.508 -9.571,22.441 -29.301,50.097 -66.231,70.332 -27.777,15.289 -53.004,32.363 -71.156,45.55 -9.082,6.594 -16.402,12.219 -21.414,16.164 -2.508,1.977 -4.438,3.528 -5.727,4.575 l -1.437,1.179 -0.422,0.352 c -6.109,5.109 -14.738,6.105 -21.848,2.515 -7.109,-3.589 -11.433,-11.121 -10.953,-19.07 0.192,-1.605 2.645,-45.023 27.285,-90.515 12.36,-22.688 30.575,-46 57.2,-63.598 26.574,-17.6329 61.367,-29.0509 104.554,-28.9923 5.266,0 10.418,2.1367 14.141,5.8594 3.726,3.7226 5.859,8.8749 5.859,14.1409 h -20 v 20 c -36.347,0.062 -62.461,9.183 -82.5,22.363 -15.008,9.922 -26.66,22.359 -35.816,35.754 -13.731,20.055 -21.629,42.281 -25.891,59.379 -2.137,8.539 -3.383,15.777 -4.082,20.765 -0.347,2.493 -0.562,4.426 -0.683,5.676 l -0.122,1.352 -0.019,0.269 -2.566,-0.179 2.57,0.156 -0.004,0.023 -2.566,-0.179 2.57,0.156 L 150,270 137.164,254.66 c 0.586,-0.457 46.988,-39.359 106.535,-72.18 28.797,-15.953 41.934,-35.457 48.793,-51.128 3.375,-7.829 5.039,-14.688 5.84,-19.387 0.402,-2.352 0.59,-4.156 0.672,-5.258 l 0.066,-1.102 0.004,-0.117 10.684,0.192 h -10.684 v -0.192 l 10.684,0.192 h -10.684 20 v 20 -20" /><path
         id="path30"
         style="fill:#404a5f;fill-opacity:1;fill-rule:nonzero;stroke:none"
         d="M 242.027,322.027 C 206.5,330.184 180,361.996 180,400 c 0,3.387 0.211,6.723 0.617,10 4.094,-32.797 28.035,-59.426 59.422,-67.488 C 240.012,341.68 240,340.84 240,340 c 0,-6.18 0.699,-12.195 2.027,-17.973" /><path
         id="path32"
         style="fill:#404a5f;fill-opacity:1;fill-rule:nonzero;stroke:none"
         d="M 397.973,322.027 C 399.301,327.805 400,333.82 400,340 c 0,0.84 -0.012,1.68 -0.039,2.512 31.387,8.062 55.328,34.691 59.422,67.488 0.406,-3.277 0.617,-6.613 0.617,-10 0,-38.004 -26.5,-69.816 -62.027,-77.973" /><path
         id="path34"
         style="fill:#404a5f;fill-opacity:1;fill-rule:nonzero;stroke:none"
         d="m 300,262.52 c -28.781,7.41 -51.297,30.437 -57.973,59.507 2.735,-0.629 5.516,-1.113 8.348,-1.453 10.566,-18.621 28.391,-32.59 49.625,-38.054 v -20 m 40,0 v 20 c 21.234,5.464 39.059,19.433 49.625,38.054 2.832,0.34 5.613,0.824 8.348,1.453 C 391.297,292.957 368.781,269.93 340,262.52" /><path
         id="path36"
         style="fill:#62a48d;fill-opacity:1;fill-rule:nonzero;stroke:none"
         d="m 320,260 c -6.906,0 -13.605,0.875 -20,2.52 v 20 c 6.395,-1.645 13.094,-2.52 20,-2.52 6.906,0 13.605,0.875 20,2.52 v -20 C 333.605,260.875 326.906,260 320,260" /><path
         id="path38"
         style="fill:#394051;fill-opacity:1;fill-rule:nonzero;stroke:none"
         d="m 250.375,320.574 c -2.832,0.34 -5.613,0.824 -8.348,1.453 C 240.699,327.805 240,333.82 240,340 c 0,0.84 0.012,1.68 0.039,2.512 0.66,-0.172 1.32,-0.332 1.988,-0.485 1.75,-7.625 4.59,-14.836 8.348,-21.453" /><path
         id="path40"
         style="fill:#394051;fill-opacity:1;fill-rule:nonzero;stroke:none"
         d="m 389.625,320.574 c 3.758,6.617 6.598,13.828 8.348,21.453 0.668,0.153 1.328,0.313 1.988,0.485 C 399.988,341.68 400,340.84 400,340 c 0,-6.18 -0.699,-12.195 -2.027,-17.973 -2.735,-0.629 -5.516,-1.113 -8.348,-1.453" /><path
         id="path42"
         style="fill:#c84755;fill-opacity:1;fill-rule:nonzero;stroke:none"
         d="m 340,420 c 0,-44.184 -35.816,-80 -80,-80 -44.184,0 -80,35.816 -80,80 0,44.184 35.816,80 80,80 44.184,0 80,-35.816 80,-80" /><path
         id="path44"
         style="fill:#c84755;fill-opacity:1;fill-rule:nonzero;stroke:none"
         d="m 460,420 c 0,-44.184 -35.816,-80 -80,-80 -44.184,0 -80,35.816 -80,80 0,44.184 35.816,80 80,80 44.184,0 80,-35.816 80,-80" /><path
         id="path46"
         style="fill:#c84755;fill-opacity:1;fill-rule:nonzero;stroke:none"
         d="m 320,400 c -44.184,0 -80,35.816 -80,80 0,44.184 35.816,80 80,80 44.184,0 80,-35.816 80,-80 0,-44.184 -35.816,-80 -80,-80" /><path
         id="path48"
         style="fill:#c84755;fill-opacity:1;fill-rule:nonzero;stroke:none"
         d="m 320,280 c -44.184,0 -80,35.816 -80,80 0,44.184 35.816,80 80,80 44.184,0 80,-35.816 80,-80 0,-44.184 -35.816,-80 -80,-80" /><path
         id="path50"
         style="fill:#a43f4a;fill-opacity:1;fill-rule:nonzero;stroke:none"
         d="m 279.102,428.77 c 9.05,12.843 23.992,21.23 40.898,21.23 16.902,0 31.848,-8.391 40.898,-21.23 C 348.93,435.902 334.945,440 320,440 c -14.945,0 -28.93,-4.098 -40.898,-11.23" /><path
         id="path52"
         style="fill:#a43f4a;fill-opacity:1;fill-rule:nonzero;stroke:none"
         d="m 320,350 c -27.613,0 -50,22.387 -50,50 0,10.711 3.367,20.633 9.102,28.77 11.968,7.132 25.953,11.23 40.898,11.23 14.945,0 28.93,-4.098 40.898,-11.23 5.735,-8.137 9.102,-18.059 9.102,-28.77 0,-27.613 -22.387,-50 -50,-50" /><path
         id="path54"
         style="fill:#f3cc70;fill-opacity:1;fill-rule:nonzero;stroke:none"
         d="m 370,420 c 0,-27.613 -22.387,-50 -50,-50 -27.613,0 -50,22.387 -50,50 0,27.613 22.387,50 50,50 27.613,0 50,-22.387 50,-50" /></g></g></svg>