<?xml version="1.0" encoding="UTF-8" standalone="no"?>
<svg
   xmlns:dc="http://purl.org/dc/elements/1.1/"
   xmlns:cc="http://creativecommons.org/ns#"
   xmlns:rdf="http://www.w3.org/1999/02/22-rdf-syntax-ns#"
   xmlns:svg="http://www.w3.org/2000/svg"
   xmlns="http://www.w3.org/2000/svg"
   viewBox="0 0 85.333336 85.333336"
   height="85.333336"
   width="85.333336"
   xml:space="preserve"
   id="svg2"
   version="1.1"><metadata
     id="metadata8"><rdf:RDF><cc:Work
         rdf:about=""><dc:format>image/svg+xml</dc:format><dc:type
           rdf:resource="http://purl.org/dc/dcmitype/StillImage" /></cc:Work></rdf:RDF></metadata><defs
     id="defs6" /><g
     transform="matrix(1.3333333,0,0,-1.3333333,0,85.333333)"
     id="g10"><g
       transform="scale(0.1)"
       id="g12"><path
         id="path14"
         style="fill:#495672;fill-opacity:1;fill-rule:nonzero;stroke:none"
         d="M 640,320 C 640,143.27 496.73,0 320,0 143.27,0 0,143.27 0,320 0,496.73 143.27,640 320,640 496.73,640 640,496.73 640,320" /><path
         id="path16"
         style="fill:#404a5f;fill-opacity:1;fill-rule:nonzero;stroke:none"
         d="m 165,360 c -8.285,0 -15,6.715 -15,15 v 80 c 0,8.285 6.715,15 15,15 h 80 c 8.285,0 15,-6.715 15,-15 0,-8.285 -6.715,-15 -15,-15 h -65 v -65 c 0,-8.285 -6.715,-15 -15,-15" /><path
         id="path18"
         style="fill:#404a5f;fill-opacity:1;fill-rule:nonzero;stroke:none"
         d="m 475,360 c -8.285,0 -15,6.715 -15,15 v 65 h -65 c -8.285,0 -15,6.715 -15,15 0,8.285 6.715,15 15,15 h 80 c 8.285,0 15,-6.715 15,-15 v -80 c 0,-8.285 -6.715,-15 -15,-15" /><path
         id="path20"
         style="fill:#404a5f;fill-opacity:1;fill-rule:nonzero;stroke:none"
         d="m 475,130 h -80 c -8.285,0 -15,6.715 -15,15 0,8.285 6.715,15 15,15 h 65 v 65 c 0,8.285 6.715,15 15,15 8.285,0 15,-6.715 15,-15 v -80 c 0,-8.285 -6.715,-15 -15,-15" /><path
         id="path22"
         style="fill:#404a5f;fill-opacity:1;fill-rule:nonzero;stroke:none"
         d="m 245,130 h -80 c -8.285,0 -15,6.715 -15,15 v 80 c 0,8.285 6.715,15 15,15 8.285,0 15,-6.715 15,-15 v -65 h 65 c 8.285,0 15,-6.715 15,-15 0,-8.285 -6.715,-15 -15,-15" /><path
         id="path24"
         style="fill:#404a5f;fill-opacity:1;fill-rule:nonzero;stroke:none"
         d="m 350,255 h -60 c -8.285,0 -15,6.715 -15,15 v 60 c 0,8.285 6.715,15 15,15 h 60 c 8.285,0 15,-6.715 15,-15 v -60 c 0,-8.285 -6.715,-15 -15,-15 m -45,60 v -30 h 30 v 30 h -30" /><path
         id="path26"
         style="fill:#ffffff;fill-opacity:1;fill-rule:nonzero;stroke:none"
         d="m 180,395 v 65 h 65 c 8.285,0 15,6.715 15,15 0,8.285 -6.715,15 -15,15 h -80 c -3.949,0 -7.812,-1.602 -10.605,-4.395 C 151.602,482.813 150,478.949 150,475 v -80 c 0,-8.285 6.715,-15 15,-15 8.285,0 15,6.715 15,15" /><path
         id="path28"
         style="fill:#ffffff;fill-opacity:1;fill-rule:nonzero;stroke:none"
         d="m 395,460 h 65 v -65 c 0,-8.285 6.715,-15 15,-15 8.285,0 15,6.715 15,15 v 80 c 0,3.949 -1.602,7.813 -4.395,10.605 C 482.813,488.398 478.949,490 475,490 h -80 c -8.285,0 -15,-6.715 -15,-15 0,-8.285 6.715,-15 15,-15" /><path
         id="path30"
         style="fill:#ffffff;fill-opacity:1;fill-rule:nonzero;stroke:none"
         d="m 460,245 v -65 h -65 c -8.285,0 -15,-6.715 -15,-15 0,-8.285 6.715,-15 15,-15 h 80 c 3.949,0 7.813,1.602 10.605,4.395 2.793,2.793 4.395,6.656 4.395,10.605 v 80 c 0,8.285 -6.715,15 -15,15 -8.285,0 -15,-6.715 -15,-15" /><path
         id="path32"
         style="fill:#ffffff;fill-opacity:1;fill-rule:nonzero;stroke:none"
         d="m 245,180 h -65 v 65 c 0,8.285 -6.715,15 -15,15 -8.285,0 -15,-6.715 -15,-15 v -80 c 0,-3.949 1.602,-7.812 4.395,-10.605 C 157.188,151.602 161.051,150 165,150 h 80 c 8.285,0 15,6.715 15,15 0,8.285 -6.715,15 -15,15" /><path
         id="path34"
         style="fill:#c84755;fill-opacity:1;fill-rule:nonzero;stroke:none"
         d="m 350,290 v 15 h -45 v 30 h 30 v -45 h 15 v 15 -15 h 15 v 60 c 0,3.949 -1.602,7.813 -4.395,10.605 C 357.813,363.398 353.949,365 350,365 h -60 c -3.949,0 -7.812,-1.602 -10.605,-4.395 C 276.602,357.813 275,353.949 275,350 v -60 c 0,-3.949 1.602,-7.812 4.395,-10.605 C 282.188,276.602 286.051,275 290,275 h 60 c 3.949,0 7.813,1.602 10.605,4.395 2.793,2.793 4.395,6.656 4.395,10.605 h -15" /></g></g></svg>