<?xml version="1.0" encoding="UTF-8" standalone="no"?>
<svg
   xmlns:dc="http://purl.org/dc/elements/1.1/"
   xmlns:cc="http://creativecommons.org/ns#"
   xmlns:rdf="http://www.w3.org/1999/02/22-rdf-syntax-ns#"
   xmlns:svg="http://www.w3.org/2000/svg"
   xmlns="http://www.w3.org/2000/svg"
   viewBox="0 0 85.333336 85.333336"
   height="85.333336"
   width="85.333336"
   xml:space="preserve"
   id="svg2"
   version="1.1"><metadata
     id="metadata8"><rdf:RDF><cc:Work
         rdf:about=""><dc:format>image/svg+xml</dc:format><dc:type
           rdf:resource="http://purl.org/dc/dcmitype/StillImage" /></cc:Work></rdf:RDF></metadata><defs
     id="defs6" /><g
     transform="matrix(1.3333333,0,0,-1.3333333,0,85.333333)"
     id="g10"><g
       transform="scale(0.1)"
       id="g12"><path
         id="path14"
         style="fill:#495672;fill-opacity:1;fill-rule:nonzero;stroke:none"
         d="M 640,320 C 640,143.27 496.73,0 320,0 143.27,0 0,143.27 0,320 0,496.73 143.27,640 320,640 496.73,640 640,496.73 640,320" /><path
         id="path16"
         style="fill:#404a5f;fill-opacity:1;fill-rule:nonzero;stroke:none"
         d="M 370,220 H 150 c -16.566,0 -30,13.434 -30,30 v 180 c 0,16.57 13.434,30 30,30 h 220 c 16.566,0 30,-13.43 30,-30 V 250 c 0,-16.566 -13.434,-30 -30,-30 M 150,430 V 250 H 370 V 430 H 150" /><path
         id="path18"
         style="fill:#404a5f;fill-opacity:1;fill-rule:nonzero;stroke:none"
         d="M 485,120 H 240 c -8.285,0 -15,6.715 -15,15 0,8.285 6.715,15 15,15 h 230 v 190 c 0,8.285 6.715,15 15,15 8.285,0 15,-6.715 15,-15 V 135 c 0,-8.285 -6.715,-15 -15,-15" /><path
         id="path20"
         style="fill:#404a5f;fill-opacity:1;fill-rule:nonzero;stroke:none"
         d="M 435,170 H 190 c -8.285,0 -15,6.715 -15,15 0,8.285 6.715,15 15,15 h 230 v 190 c 0,8.285 6.715,15 15,15 8.285,0 15,-6.715 15,-15 V 185 c 0,-8.285 -6.715,-15 -15,-15" /><path
         id="path22"
         style="fill:#ffffff;fill-opacity:1;fill-rule:nonzero;stroke:none"
         d="M 370,480 H 150 c -16.566,0 -30,-13.43 -30,-30 V 270 c 0,-16.566 13.434,-30 30,-30 h 220 c 16.566,0 30,13.434 30,30 v 180 c 0,16.57 -13.434,30 -30,30 z m 0,-30 V 270 H 150 v 180 h 220" /><path
         id="path24"
         style="fill:#e1e3cc;fill-opacity:1;fill-rule:nonzero;stroke:none"
         d="M 485,140 H 240 c -8.285,0 -15,6.715 -15,15 0,8.285 6.715,15 15,15 h 230 v 190 c 0,8.285 6.715,15 15,15 8.285,0 15,-6.715 15,-15 V 155 c 0,-8.285 -6.715,-15 -15,-15" /><path
         id="path26"
         style="fill:#e1e3cc;fill-opacity:1;fill-rule:nonzero;stroke:none"
         d="M 435,190 H 190 c -8.285,0 -15,6.715 -15,15 0,8.285 6.715,15 15,15 h 230 v 190 c 0,8.285 6.715,15 15,15 8.285,0 15,-6.715 15,-15 V 205 c 0,-8.285 -6.715,-15 -15,-15" /></g></g></svg>