<?xml version="1.0" encoding="UTF-8" standalone="no"?>
<svg
   xmlns:dc="http://purl.org/dc/elements/1.1/"
   xmlns:cc="http://creativecommons.org/ns#"
   xmlns:rdf="http://www.w3.org/1999/02/22-rdf-syntax-ns#"
   xmlns:svg="http://www.w3.org/2000/svg"
   xmlns="http://www.w3.org/2000/svg"
   viewBox="0 0 85.333336 85.333336"
   height="85.333336"
   width="85.333336"
   xml:space="preserve"
   id="svg2"
   version="1.1"><metadata
     id="metadata8"><rdf:RDF><cc:Work
         rdf:about=""><dc:format>image/svg+xml</dc:format><dc:type
           rdf:resource="http://purl.org/dc/dcmitype/StillImage" /></cc:Work></rdf:RDF></metadata><defs
     id="defs6" /><g
     transform="matrix(1.3333333,0,0,-1.3333333,0,85.333333)"
     id="g10"><g
       transform="scale(0.1)"
       id="g12"><path
         id="path14"
         style="fill:#77caa9;fill-opacity:1;fill-rule:nonzero;stroke:none"
         d="M 640,320 C 640,143.27 496.73,0 320,0 143.27,0 0,143.27 0,320 0,496.73 143.27,640 320,640 496.73,640 640,496.73 640,320" /><path
         id="path16"
         style="fill:#62a48d;fill-opacity:1;fill-rule:nonzero;stroke:none"
         d="m 499.613,160 c -17.398,0 -35.941,8.891 -49.613,20.98 -34.5,30.512 -38,61.024 -130,61.024 -92,0 -95.5,-30.512 -130,-61.024 C 176.328,168.891 157.789,160 140.387,160 113.875,160 90,180.633 90,242.004 c 0,101.66 46,162.73 46,162.73 0,0 22.738,38.903 57.82,38.903 13.715,0 29.321,-5.949 46.18,-22.485 21.367,-20.961 50.684,-31.437 80,-31.437 29.316,0 58.633,10.476 80,31.437 16.863,16.539 32.465,22.485 46.18,22.485 35.078,0 57.82,-38.903 57.82,-38.903 0,0 46,-61.07 46,-162.73 C 550,180.629 526.129,160 499.613,160" /><path
         id="path18"
         style="fill:#495672;fill-opacity:1;fill-rule:nonzero;stroke:none"
         d="m 320,272.004 c 92,0 95.5,-30.512 130,-61.024 34.5,-30.511 100,-40.632 100,61.024 0,101.66 -46,162.73 -46,162.73 0,0 -44,75.266 -104,16.418 -42.738,-41.918 -117.262,-41.918 -160,0 C 180,510 136,434.734 136,434.734 c 0,0 -46,-61.07 -46,-162.73 0,-101.656 65.5,-91.535 100,-61.024 34.5,30.512 38,61.024 130,61.024" /><path
         id="path20"
         style="fill:#e1e3cc;fill-opacity:1;fill-rule:nonzero;stroke:none"
         d="m 460,300 c 0,-11.047 -8.953,-20 -20,-20 -11.047,0 -20,8.953 -20,20 0,11.047 8.953,20 20,20 11.047,0 20,-8.953 20,-20" /><path
         id="path22"
         style="fill:#e1e3cc;fill-opacity:1;fill-rule:nonzero;stroke:none"
         d="m 500,350 c 0,-11.047 -8.953,-20 -20,-20 -11.047,0 -20,8.953 -20,20 0,11.047 8.953,20 20,20 11.047,0 20,-8.953 20,-20" /><path
         id="path24"
         style="fill:#e1e3cc;fill-opacity:1;fill-rule:nonzero;stroke:none"
         d="M 190,285.047 C 190,276.738 183.285,270 175,270 c -8.285,0 -15,6.738 -15,15.047 v 69.906 c 0,8.309 6.715,15.047 15,15.047 8.285,0 15,-6.738 15,-15.047 v -69.906" /><path
         id="path26"
         style="fill:#e1e3cc;fill-opacity:1;fill-rule:nonzero;stroke:none"
         d="m 140.047,305 c -8.309,0 -15.047,6.715 -15.047,15 0,8.285 6.738,15 15.047,15 h 69.906 c 8.309,0 15.047,-6.715 15.047,-15 0,-8.285 -6.738,-15 -15.047,-15 h -69.906" /></g></g></svg>