<?xml version="1.0" encoding="UTF-8" standalone="no"?>
<svg
   xmlns:dc="http://purl.org/dc/elements/1.1/"
   xmlns:cc="http://creativecommons.org/ns#"
   xmlns:rdf="http://www.w3.org/1999/02/22-rdf-syntax-ns#"
   xmlns:svg="http://www.w3.org/2000/svg"
   xmlns="http://www.w3.org/2000/svg"
   viewBox="0 0 85.333336 85.333336"
   height="85.333336"
   width="85.333336"
   xml:space="preserve"
   id="svg2"
   version="1.1"><metadata
     id="metadata8"><rdf:RDF><cc:Work
         rdf:about=""><dc:format>image/svg+xml</dc:format><dc:type
           rdf:resource="http://purl.org/dc/dcmitype/StillImage" /></cc:Work></rdf:RDF></metadata><defs
     id="defs6" /><g
     transform="matrix(1.3333333,0,0,-1.3333333,0,85.333333)"
     id="g10"><g
       transform="scale(0.1)"
       id="g12"><path
         id="path14"
         style="fill:#e1e3cc;fill-opacity:1;fill-rule:nonzero;stroke:none"
         d="M 640,320 C 640,143.27 496.73,0 320,0 143.27,0 0,143.27 0,320 0,496.73 143.27,640 320,640 496.73,640 640,496.73 640,320" /><path
         id="path16"
         style="fill:#b7b7a7;fill-opacity:1;fill-rule:nonzero;stroke:none"
         d="M 480,120 H 200 c -22.094,0 -40,17.91 -40,40 v 110 70 l 22.324,22.324 c -9.765,9.762 -9.765,25.59 0,35.352 l 14.328,14.328 c -12.648,11.035 -31.8,21.988 -60.992,28.473 -10.781,2.394 -17.578,13.078 -15.183,23.863 2.074,9.312 10.32,15.668 19.484,15.668 1.441,0 2.91,-0.156 4.379,-0.485 37.883,-8.418 63.433,-23.453 80.664,-39.168 l 17.32,17.321 c 4.879,4.883 11.278,7.324 17.676,7.324 6.398,0 12.797,-2.441 17.676,-7.324 L 300,480 h 20 120 c 22.094,0 80,-57.906 80,-80 V 330 160 c 0,-22.09 -17.906,-40 -40,-40 m -90,320 90,-90 v 45.516 C 473.492,407.977 447.977,433.492 435.516,440 H 390" /><path
         id="path18"
         style="fill:#c84755;fill-opacity:1;fill-rule:nonzero;stroke:none"
         d="M 440,500 H 300 L 160,360 V 180 c 0,-22.09 17.91,-40 40,-40 h 280 c 22.09,0 40,17.91 40,40 v 240 c 0,22.09 -57.91,80 -80,80 z m -4.484,-40 C 447.977,453.492 473.492,427.977 480,415.516 V 180 H 200 V 343.43 L 316.57,460 h 118.946" /><path
         id="path20"
         style="fill:#c84755;fill-opacity:1;fill-rule:nonzero;stroke:none"
         d="m 200,155 c -13.785,0 -25,11.215 -25,25 V 283.344 L 369.48,459.301 483.789,345 H 490 c 5.844,0 10.906,0.691 15,1.453 V 180 c 0,-13.785 -11.215,-25 -25,-25 H 200" /><path
         id="path22"
         style="fill:#c84755;fill-opacity:1;fill-rule:nonzero;stroke:none"
         d="M 370,480 160,290 V 180 c 0,-22.09 17.91,-40 40,-40 h 280 c 22.09,0 40,17.91 40,40 v 170 c 0,10.547 -1.801,13.301 -6.09,13.301 -4.695,0 -12.363,-3.301 -23.91,-3.301 z m -1.035,-41.391 99.82,-99.824 8.789,-8.785 H 490 V 180 c 0,-5.516 -4.484,-10 -10,-10 H 200 c -5.516,0 -10,4.484 -10,10 v 96.688 l 178.965,161.921" /><path
         id="path24"
         style="fill:#495672;fill-opacity:1;fill-rule:nonzero;stroke:none"
         d="m 259.727,403.289 c -0.387,2.254 -3.778,20.559 -20.25,41.566 -16.383,21.036 -46.145,43.903 -95.137,54.668 -10.785,2.399 -21.469,-4.402 -23.863,-15.183 -2.399,-10.785 4.402,-21.469 15.183,-23.863 41.008,-9.235 61.246,-26.368 72.363,-40.332 5.52,-7.028 8.668,-13.403 10.407,-17.801 0.867,-2.196 1.375,-3.891 1.644,-4.895 l 0.235,-0.961 0.011,-0.047 11.981,2.278 -12.028,-2.004 0.047,-0.274 11.981,2.278 -12.028,-2.004 c 1.817,-10.899 12.118,-18.258 23.012,-16.442 10.899,1.817 18.258,12.122 16.442,23.012" /><path
         id="path26"
         style="fill:#495672;fill-opacity:1;fill-rule:nonzero;stroke:none"
         d="m 217.68,382.324 60,60 c 9.761,9.762 9.761,25.59 0,35.356 -9.766,9.761 -25.594,9.761 -35.36,0 l -60,-60 c -9.761,-9.766 -9.761,-25.594 0,-35.356 9.766,-9.765 25.594,-9.765 35.36,0" /><path
         id="path28"
         style="fill:#c84755;fill-opacity:1;fill-rule:nonzero;stroke:none"
         d="m 200,155 c -13.785,0 -25,11.215 -25,25 V 353.789 L 306.211,485 H 320 c 13.785,0 25,-11.215 25,-25 v -1.328 L 394.973,178.824 C 394.355,165.582 383.395,155 370,155 H 200" /><path
         id="path30"
         style="fill:#c84755;fill-opacity:1;fill-rule:nonzero;stroke:none"
         d="M 320,500 H 300 L 160,360 V 180 c 0,-22.09 17.91,-40 40,-40 h 170 c 22.09,0 40,17.91 40,40 l -50,280 c 0,22.09 -17.91,40 -40,40 z m 0,-30 c 5.516,0 10,-4.484 10,-10 v -2.656 l 0.469,-2.617 49.375,-276.5 C 379.004,173.555 374.906,170 370,170 H 200 c -5.516,0 -10,4.484 -10,10 V 347.574 L 312.426,470 H 320" /></g></g></svg>