<?xml version="1.0" encoding="UTF-8" standalone="no"?>
<svg
   xmlns:dc="http://purl.org/dc/elements/1.1/"
   xmlns:cc="http://creativecommons.org/ns#"
   xmlns:rdf="http://www.w3.org/1999/02/22-rdf-syntax-ns#"
   xmlns:svg="http://www.w3.org/2000/svg"
   xmlns="http://www.w3.org/2000/svg"
   viewBox="0 0 85.333336 85.333336"
   height="85.333336"
   width="85.333336"
   xml:space="preserve"
   id="svg2"
   version="1.1"><metadata
     id="metadata8"><rdf:RDF><cc:Work
         rdf:about=""><dc:format>image/svg+xml</dc:format><dc:type
           rdf:resource="http://purl.org/dc/dcmitype/StillImage" /></cc:Work></rdf:RDF></metadata><defs
     id="defs6" /><g
     transform="matrix(1.3333333,0,0,-1.3333333,0,85.333333)"
     id="g10"><g
       transform="scale(0.1)"
       id="g12"><path
         id="path14"
         style="fill:#77caa9;fill-opacity:1;fill-rule:nonzero;stroke:none"
         d="M 640,320 C 640,143.27 496.73,0 320,0 143.27,0 0,143.27 0,320 0,496.73 143.27,640 320,640 496.73,640 640,496.73 640,320" /><path
         id="path16"
         style="fill:#62a48d;fill-opacity:1;fill-rule:nonzero;stroke:none"
         d="m 320,255 c -24.852,0 -45,20.148 -45,45 0,24.852 20.148,45 45,45 24.852,0 45,-20.148 45,-45 0,-24.852 -20.148,-45 -45,-45" /><path
         id="path18"
         style="fill:#62a48d;fill-opacity:1;fill-rule:nonzero;stroke:none"
         d="m 320,80 c -8.195,0 -14.238,0.5195 -14.238,0.5195 -5.481,0.4688 -11.469,5.0938 -13.313,10.2774 l -14.691,41.3011 c -1.844,5.179 -7.602,10.898 -12.797,12.707 l -15.809,6.519 c -2.492,1.196 -5.781,1.797 -9.07,1.797 -3.254,0 -6.504,-0.586 -8.973,-1.762 l -39.441,-18.75 c -1.785,-0.847 -3.887,-1.254 -6.039,-1.254 -3.832,0 -7.816,1.286 -10.438,3.637 l -20.175,20.168 c -3.668,4.098 -4.739,11.516 -2.379,16.481 l 18.75,39.441 c 2.359,4.969 2.343,13.086 -0.035,18.047 l -6.528,15.805 c -1.801,5.195 -7.519,10.953 -12.703,12.796 l -41.297,14.692 c -5.183,1.844 -9.812,7.836 -10.293,13.312 0,0 -0.531,6.071 -0.531,14.266 0,8.195 0.531,14.266 0.531,14.266 0.481,5.48 5.11,11.472 10.293,13.316 l 41.274,14.688 c 5.179,1.843 10.898,7.601 12.707,12.796 l 6.519,15.805 c 2.379,4.961 2.399,13.082 0.035,18.047 l -18.75,39.441 c -2.359,4.965 -1.289,12.383 2.383,16.477 l 20.172,20.172 c 2.621,2.351 6.606,3.637 10.438,3.637 2.152,0 4.253,-0.407 6.039,-1.254 l 39.468,-18.75 c 2.469,-1.176 5.715,-1.762 8.969,-1.762 3.289,0 6.582,0.601 9.074,1.797 l 15.782,6.515 c 5.195,1.809 10.953,7.532 12.796,12.711 l 14.688,41.274 c 1.848,5.183 7.836,9.812 13.316,10.293 0,0 6.071,0.531 14.266,0.531 8.195,0 14.266,-0.531 14.266,-0.531 5.48,-0.481 11.468,-5.11 13.312,-10.293 l 14.692,-41.274 c 1.843,-5.179 7.601,-10.898 12.796,-12.707 l 15.805,-6.519 c 2.492,-1.196 5.785,-1.797 9.074,-1.797 3.254,0.004 6.504,0.59 8.973,1.762 l 39.441,18.75 c 1.786,0.847 3.887,1.254 6.039,1.254 3.832,0 7.817,-1.286 10.438,-3.637 l 20.172,-20.172 c 3.672,-4.094 4.742,-11.512 2.383,-16.477 l -18.75,-39.441 c -2.364,-4.965 -2.344,-13.086 0.035,-18.047 l 6.523,-15.801 c 1.805,-5.195 7.524,-10.957 12.703,-12.8 l 41.274,-14.688 c 5.183,-1.844 9.812,-7.836 10.293,-13.316 0,0 0.531,-6.071 0.531,-14.266 0,-8.195 -0.52,-14.234 -0.52,-14.234 -0.468,-5.481 -5.093,-11.473 -10.277,-13.317 l -41.301,-14.691 c -5.179,-1.844 -10.898,-7.602 -12.707,-12.797 l -6.519,-15.805 c -2.379,-4.961 -2.399,-13.082 -0.035,-18.047 l 18.75,-39.441 c 2.359,-4.965 1.289,-12.383 -2.383,-16.477 L 464.84,135.016 c -2.621,-2.348 -6.606,-3.633 -10.438,-3.633 -2.152,0 -4.257,0.406 -6.043,1.258 l -39.441,18.746 c -2.469,1.176 -5.719,1.761 -8.973,1.761 -3.289,0 -6.582,-0.601 -9.074,-1.796 l -15.801,-6.524 c -5.199,-1.805 -10.957,-7.523 -12.8,-12.707 L 347.578,90.8242 c -1.844,-5.1836 -7.832,-9.8125 -13.312,-10.2929 0,0 -6.071,-0.5313 -14.266,-0.5313 m 0,320 c -55.227,0 -100,-44.773 -100,-100 0,-55.227 44.773,-100 100,-100 55.227,0 100,44.773 100,100 0,55.227 -44.773,100 -100,100" /><path
         id="path20"
         style="fill:#495672;fill-opacity:1;fill-rule:nonzero;stroke:none"
         d="m 275,320 c 0,-24.852 20.148,-45 45,-45 24.852,0 45,20.148 45,45 0,24.852 -20.148,45 -45,45 -24.852,0 -45,-20.148 -45,-45" /><path
         id="path22"
         style="fill:#ffffff;fill-opacity:1;fill-rule:nonzero;stroke:none"
         d="m 320,220 c -55.227,0 -100,44.773 -100,100 0,55.227 44.773,100 100,100 55.227,0 100,-44.773 100,-100 0,-55.227 -44.773,-100 -100,-100 z m 219.469,114.266 c -0.481,5.48 -5.11,11.472 -10.293,13.316 l -41.274,14.688 c -5.179,1.843 -10.898,7.605 -12.703,12.8 l -6.523,15.801 c -2.379,4.961 -2.399,13.082 -0.035,18.047 l 18.75,39.441 c 2.359,4.965 1.289,12.383 -2.383,16.477 l -20.172,20.172 c -4.094,3.672 -11.512,4.742 -16.477,2.383 l -39.441,-18.75 c -4.969,-2.36 -13.086,-2.344 -18.047,0.035 l -15.805,6.519 c -5.195,1.809 -10.953,7.528 -12.796,12.707 l -14.692,41.274 c -1.844,5.183 -7.832,9.812 -13.312,10.293 0,0 -6.071,0.531 -14.266,0.531 -8.195,0 -14.266,-0.531 -14.266,-0.531 -5.48,-0.481 -11.468,-5.11 -13.316,-10.293 L 277.73,487.902 C 275.887,482.723 270.129,477 264.934,475.191 l -15.778,-6.515 c -4.961,-2.379 -13.082,-2.399 -18.047,-0.035 l -39.468,18.75 c -4.965,2.363 -12.383,1.289 -16.477,-2.383 l -20.172,-20.172 c -3.672,-4.094 -4.742,-11.512 -2.383,-16.477 l 18.75,-39.441 c 2.364,-4.965 2.344,-13.086 -0.035,-18.047 l -6.519,-15.805 c -1.809,-5.195 -7.528,-10.953 -12.707,-12.796 l -41.274,-14.688 c -5.183,-1.844 -9.812,-7.836 -10.293,-13.316 0,0 -0.531,-6.071 -0.531,-14.266 0,-8.195 0.531,-14.266 0.531,-14.266 0.481,-5.476 5.11,-11.468 10.293,-13.312 l 41.297,-14.692 c 5.184,-1.843 10.902,-7.601 12.703,-12.796 l 6.528,-15.805 c 2.378,-4.961 2.394,-13.078 0.035,-18.047 l -18.75,-39.441 c -2.36,-4.965 -1.289,-12.383 2.379,-16.481 l 20.175,-20.168 c 4.094,-3.672 11.512,-4.742 16.477,-2.383 l 39.441,18.75 c 4.965,2.364 13.086,2.344 18.047,-0.035 l 15.805,-6.519 c 5.195,-1.809 10.953,-7.528 12.797,-12.707 l 14.691,-41.301 c 1.844,-5.184 7.832,-9.809 13.313,-10.277 0,0 6.043,-0.52 14.238,-0.52 8.195,0 14.266,0.531 14.266,0.531 5.48,0.481 11.468,5.11 13.312,10.293 l 14.692,41.297 c 1.843,5.184 7.601,10.902 12.8,12.707 l 15.801,6.524 c 4.961,2.378 13.078,2.394 18.047,0.035 l 39.441,-18.746 c 4.965,-2.364 12.383,-1.293 16.481,2.375 l 20.168,20.175 c 3.672,4.094 4.742,11.512 2.383,16.477 l -18.75,39.441 c -2.364,4.965 -2.344,13.086 0.035,18.047 l 6.519,15.805 c 1.809,5.195 7.528,10.953 12.707,12.797 l 41.301,14.691 c 5.184,1.844 9.809,7.836 10.277,13.317 0,0 0.52,6.039 0.52,14.234 0,8.195 -0.531,14.266 -0.531,14.266" /></g></g></svg>