<?xml version="1.0" encoding="UTF-8" standalone="no"?>
<svg
   xmlns:dc="http://purl.org/dc/elements/1.1/"
   xmlns:cc="http://creativecommons.org/ns#"
   xmlns:rdf="http://www.w3.org/1999/02/22-rdf-syntax-ns#"
   xmlns:svg="http://www.w3.org/2000/svg"
   xmlns="http://www.w3.org/2000/svg"
   viewBox="0 0 85.333336 85.333336"
   height="85.333336"
   width="85.333336"
   xml:space="preserve"
   id="svg2"
   version="1.1"><metadata
     id="metadata8"><rdf:RDF><cc:Work
         rdf:about=""><dc:format>image/svg+xml</dc:format><dc:type
           rdf:resource="http://purl.org/dc/dcmitype/StillImage" /></cc:Work></rdf:RDF></metadata><defs
     id="defs6" /><g
     transform="matrix(1.3333333,0,0,-1.3333333,0,85.333333)"
     id="g10"><g
       transform="scale(0.1)"
       id="g12"><path
         id="path14"
         style="fill:#e08e4c;fill-opacity:1;fill-rule:nonzero;stroke:none"
         d="M 640,320 C 640,143.27 496.73,0 320,0 143.27,0 0,143.27 0,320 0,496.73 143.27,640 320,640 496.73,640 640,496.73 640,320" /><path
         id="path16"
         style="fill:#b77744;fill-opacity:1;fill-rule:nonzero;stroke:none"
         d="m 320,45 c -37.57,0 -69.656,38.6445 -89.527,100.465 -19.43,-4.211 -37.711,-6.461 -54.141,-6.461 -47.797,0 -68.348,18.215 -77.1679,33.496 -18.75,32.477 -1.418,79.477 42.0119,127.5 -43.4299,48.023 -60.7619,95.023 -42.0119,127.5 8.8199,15.281 29.3709,33.496 77.1679,33.496 16.43,0 34.711,-2.25 54.141,-6.461 C 250.344,516.355 282.43,555 320,555 c 37.57,0 69.656,-38.645 89.527,-100.465 19.43,4.211 37.711,6.461 54.141,6.461 47.797,0 68.348,-18.215 77.168,-33.496 18.75,-32.477 1.418,-79.477 -42.012,-127.5 43.43,-48.023 60.762,-95.023 42.012,-127.5 -8.82,-15.281 -29.371,-33.496 -77.168,-33.496 -16.43,0 -34.711,2.25 -54.141,6.461 C 389.656,83.6445 357.57,45 320,45 m 0,130.582 C 299.516,166.465 279.23,158.895 259.703,153.047 275.641,104.102 298.508,75 320,75 c 21.492,0 44.359,29.102 60.297,78.047 -19.527,5.848 -39.813,13.418 -60.297,22.535 m 157.645,102.891 c -14.633,-13.778 -31.29,-27.469 -49.735,-40.77 -2.285,-22.535 -5.797,-43.726 -10.387,-63.223 16.567,-3.472 32.196,-5.476 46.145,-5.476 26.121,0 44.301,6.562 51.191,18.496 10.719,18.57 -2.972,52.809 -37.214,90.973 m -315.29,0 C 128.113,240.309 114.422,206.07 125.141,187.5 c 6.89,-11.934 25.07,-18.496 51.191,-18.496 13.949,0 29.578,2.004 46.145,5.476 -4.59,19.497 -8.102,40.688 -10.387,63.223 -18.445,13.301 -35.102,26.992 -49.735,40.77 M 394.684,215.43 c -6.254,-3.903 -12.625,-7.766 -19.188,-11.551 -6.504,-3.758 -13.047,-7.324 -19.601,-10.793 11.015,-4.27 21.777,-7.859 32.347,-11.043 2.469,10.516 4.629,21.645 6.442,33.387 m -149.368,0 c 1.813,-11.742 3.973,-22.871 6.442,-33.387 10.57,3.184 21.332,6.773 32.347,11.043 -6.554,3.469 -13.097,7.035 -19.601,10.793 -6.563,3.785 -12.934,7.648 -19.188,11.551 M 320,391.285 c -13.496,-6.43 -27.047,-13.371 -40.496,-21.14 -13.742,-7.93 -26.621,-16.114 -38.719,-24.415 C 239.645,331.109 239,315.863 239,300 c 0,-15.863 0.645,-31.109 1.785,-45.73 12.098,-8.301 24.977,-16.485 38.719,-24.415 13.449,-7.769 27,-14.71 40.496,-21.14 13.496,6.43 27.047,13.371 40.496,21.14 13.742,7.93 26.621,16.114 38.719,24.415 1.14,14.621 1.785,29.867 1.785,45.73 0,15.863 -0.645,31.109 -1.785,45.73 -12.098,8.301 -24.977,16.485 -38.719,24.415 -13.449,7.769 -27,14.71 -40.496,21.14 M 430.586,322.387 C 430.844,315.02 431,307.57 431,300 c 0,-7.57 -0.156,-15.02 -0.414,-22.387 9.309,7.481 17.906,14.953 25.816,22.387 -7.91,7.434 -16.507,14.906 -25.816,22.387 m -221.172,0 c -9.309,-7.481 -17.906,-14.953 -25.816,-22.387 7.91,-7.434 16.507,-14.906 25.816,-22.387 C 209.156,284.98 209,292.43 209,300 c 0,7.57 0.156,15.02 0.414,22.387 m 254.254,108.609 c -13.949,0 -29.578,-2.008 -46.145,-5.476 4.59,-19.497 8.102,-40.688 10.387,-63.223 18.445,-13.301 35.102,-26.992 49.735,-40.77 34.242,38.164 47.933,72.403 37.214,90.973 -6.89,11.934 -25.07,18.496 -51.191,18.496 m -287.336,0 c -26.121,0 -44.301,-6.562 -51.191,-18.496 -10.719,-18.57 2.972,-52.809 37.214,-90.973 14.633,13.778 31.29,27.469 49.735,40.77 2.285,22.535 5.797,43.726 10.387,63.223 -16.567,3.468 -32.196,5.476 -46.145,5.476 m 211.91,-13.039 c -10.57,-3.184 -21.332,-6.773 -32.347,-11.043 6.554,-3.469 13.097,-7.035 19.601,-10.793 6.563,-3.785 12.934,-7.648 19.188,-11.551 -1.813,11.743 -3.973,22.871 -6.442,33.387 m -136.484,0 c -2.469,-10.516 -4.629,-21.644 -6.442,-33.387 6.254,3.903 12.625,7.766 19.188,11.551 6.504,3.758 13.047,7.324 19.601,10.793 -11.015,4.27 -21.777,7.859 -32.347,11.043 M 320,525 c -21.492,0 -44.359,-29.102 -60.297,-78.047 19.527,-5.848 39.813,-13.418 60.297,-22.535 20.484,9.117 40.77,16.687 60.297,22.535 C 364.359,495.898 341.492,525 320,525" /><path
         id="path18"
         style="fill:#b77744;fill-opacity:1;fill-rule:nonzero;stroke:none"
         d="m 320,270 c -16.57,0 -30,13.43 -30,30 0,16.57 13.43,30 30,30 16.57,0 30,-13.43 30,-30 0,-16.57 -13.43,-30 -30,-30" /><path
         id="path20"
         style="fill:#ffffff;fill-opacity:1;fill-rule:nonzero;stroke:none"
         d="m 320,545 c -38.312,0 -81,-92.402 -81,-225 0,-132.598 42.688,-225 81,-225 38.313,0 81,92.402 81,225 0,132.598 -42.687,225 -81,225 z m 0,-480 c -63.281,0 -111,109.629 -111,255 0,145.371 47.719,255 111,255 63.281,0 111,-109.629 111,-255 C 431,174.629 383.281,65 320,65" /><path
         id="path22"
         style="fill:#ffffff;fill-opacity:1;fill-rule:nonzero;stroke:none"
         d="m 463.668,450.996 c -49.32,0 -118.172,-22.742 -184.164,-60.851 C 164.668,323.848 105.984,240.684 125.141,207.5 c 6.89,-11.934 25.07,-18.496 51.191,-18.496 49.32,0 118.172,22.742 184.164,60.851 114.836,66.297 173.52,149.461 154.363,182.645 -6.89,11.934 -25.07,18.496 -51.191,18.496 z M 176.332,159.004 c -47.797,0 -68.348,18.215 -77.1679,33.496 -31.6407,54.805 39.4409,150.945 165.3399,223.621 70.355,40.625 144.809,64.875 199.164,64.875 47.797,0 68.348,-18.215 77.168,-33.496 C 572.477,392.695 501.395,296.555 375.496,223.879 305.141,183.254 230.688,159.004 176.332,159.004" /><path
         id="path24"
         style="fill:#ffffff;fill-opacity:1;fill-rule:nonzero;stroke:none"
         d="m 463.668,450.996 c -49.32,0 -118.172,-22.742 -184.164,-60.851 C 164.668,323.848 105.984,240.684 125.141,207.5 c 6.89,-11.934 25.07,-18.496 51.191,-18.496 49.32,0 118.172,22.742 184.164,60.851 114.836,66.297 173.52,149.461 154.363,182.645 -6.89,11.934 -25.07,18.496 -51.191,18.496 z M 176.332,159.004 c -47.797,0 -68.348,18.215 -77.1679,33.496 -31.6407,54.805 39.4409,150.945 165.3399,223.621 70.355,40.625 144.809,64.875 199.164,64.875 47.797,0 68.348,-18.215 77.168,-33.496 C 572.477,392.695 501.395,296.555 375.496,223.879 305.141,183.254 230.688,159.004 176.332,159.004" /><path
         id="path26"
         style="fill:#ffffff;fill-opacity:1;fill-rule:nonzero;stroke:none"
         d="m 176.332,450.996 c -26.121,0 -44.301,-6.562 -51.191,-18.496 -19.157,-33.184 39.527,-116.348 154.363,-182.645 65.992,-38.109 134.844,-60.851 184.164,-60.851 26.121,0 44.301,6.562 51.191,18.496 19.157,33.184 -39.527,116.348 -154.363,182.645 -65.992,38.109 -134.844,60.851 -184.164,60.851 z M 463.668,159.004 c -54.355,0 -128.809,24.25 -199.164,64.875 C 138.605,296.555 67.5234,392.695 99.1641,447.5 c 8.8199,15.281 29.3709,33.496 77.1679,33.496 54.356,0 128.809,-24.25 199.164,-64.875 125.899,-72.676 196.981,-168.816 165.34,-223.621 -8.82,-15.281 -29.371,-33.496 -77.168,-33.496" /><path
         id="path28"
         style="fill:#ffffff;fill-opacity:1;fill-rule:nonzero;stroke:none"
         d="m 350,320 c 0,-16.57 -13.43,-30 -30,-30 -16.57,0 -30,13.43 -30,30 0,16.57 13.43,30 30,30 16.57,0 30,-13.43 30,-30" /></g></g></svg>