<?xml version="1.0" encoding="UTF-8" standalone="no"?>
<svg
   xmlns:dc="http://purl.org/dc/elements/1.1/"
   xmlns:cc="http://creativecommons.org/ns#"
   xmlns:rdf="http://www.w3.org/1999/02/22-rdf-syntax-ns#"
   xmlns:svg="http://www.w3.org/2000/svg"
   xmlns="http://www.w3.org/2000/svg"
   viewBox="0 0 85.333336 85.333336"
   height="85.333336"
   width="85.333336"
   xml:space="preserve"
   id="svg2"
   version="1.1"><metadata
     id="metadata8"><rdf:RDF><cc:Work
         rdf:about=""><dc:format>image/svg+xml</dc:format><dc:type
           rdf:resource="http://purl.org/dc/dcmitype/StillImage" /></cc:Work></rdf:RDF></metadata><defs
     id="defs6" /><g
     transform="matrix(1.3333333,0,0,-1.3333333,0,85.333333)"
     id="g10"><g
       transform="scale(0.1)"
       id="g12"><path
         id="path14"
         style="fill:#495672;fill-opacity:1;fill-rule:nonzero;stroke:none"
         d="M 640,320 C 640,143.27 496.73,0 320,0 143.27,0 0,143.27 0,320 0,496.73 143.27,640 320,640 496.73,640 640,496.73 640,320" /><path
         id="path16"
         style="fill:#404a5f;fill-opacity:1;fill-rule:nonzero;stroke:none"
         d="m 335,60 h -30 v 0.5156 C 184.41,67.957 87.957,164.41 80.5156,285 H 80 v 30 h 0.5156 C 87.957,435.59 184.41,532.043 305,539.484 V 540 h 30 v -0.516 C 455.59,532.043 552.043,435.59 559.484,315 H 560 v -30 h -0.516 C 552.043,164.41 455.59,67.957 335,60.5156 V 60 m 0,133.043 V 92.6758 c 19.473,6.3476 38.668,24.5152 54.313,52.3282 6.652,11.824 12.328,24.945 17.199,38.891 -22.571,5.132 -46.633,8.246 -71.512,9.148 m -30,0.008 c -24.883,-0.895 -48.945,-3.992 -71.527,-9.113 4.871,-13.961 10.554,-27.094 17.215,-38.934 C 266.332,117.191 285.527,99.0234 305,92.6758 V 193.051 m 130.598,-17.067 c -9.391,-27.597 -21.832,-51.519 -36.469,-70.386 29.418,12.019 55.394,30.586 76.398,53.793 -12.257,6.371 -25.636,11.922 -39.929,16.593 m -231.211,0.059 c -14.313,-4.664 -27.707,-10.207 -39.985,-16.574 21.016,-23.246 47.02,-41.836 76.469,-53.871 -14.648,18.882 -27.094,42.824 -36.484,70.445 M 454.711,285 c -0.984,-28.387 -4.738,-55.43 -10.797,-80.297 18.199,-5.887 35.254,-12.973 50.578,-21.367 19.774,29.477 32.082,64.25 34.746,101.664 h -74.527 m -343.949,0 c 2.66,-37.375 14.953,-72.113 34.687,-101.57 15.34,8.383 32.41,15.461 50.621,21.336 -6.05,24.847 -9.797,51.871 -10.781,80.234 H 110.762 M 335,285 v -61.969 c 27.758,-0.949 54.688,-4.476 79.984,-10.375 5.45,22.649 8.68,47.032 9.614,72.344 H 335 m -119.598,0 c 0.934,-25.293 4.161,-49.66 9.602,-72.297 25.305,5.883 52.238,9.399 79.996,10.34 V 285 h -89.598 m 279.782,130.527 c -15.414,-8.5 -32.563,-15.699 -50.911,-21.648 5.86,-24.473 9.469,-51.039 10.438,-78.879 h 74.527 c -2.629,36.949 -14.711,71.289 -34.054,100.527 M 415.359,385.91 C 389.953,379.969 362.891,376.418 335,375.469 V 315 h 89.598 c -0.914,24.77 -3.996,48.676 -9.239,70.91 m -190.718,0 C 219.398,363.676 216.316,339.77 215.402,315 H 305 v 60.469 c -27.891,0.949 -54.953,4.5 -80.359,10.441 m -79.828,29.61 C 125.469,386.285 113.391,351.945 110.762,315 h 74.527 c 0.969,27.84 4.578,54.406 10.438,78.879 -18.348,5.949 -35.5,13.144 -50.914,21.641 M 335,507.324 V 405.457 c 25.051,0.906 49.273,4.047 71.984,9.238 -4.968,14.473 -10.796,28.082 -17.671,40.301 -15.645,27.813 -34.84,45.981 -54.313,52.328 m -30,0 c -19.473,-6.347 -38.668,-24.515 -54.312,-52.328 -6.875,-12.223 -12.704,-25.828 -17.672,-40.301 22.707,-5.191 46.929,-8.332 71.984,-9.238 v 101.867 m 94.125,-12.922 c 14.887,-19.179 27.48,-43.601 36.922,-71.777 14.496,4.754 28.07,10.398 40.461,16.906 -21.168,23.715 -47.504,42.664 -77.383,54.871 m -158.254,0 C 211,482.195 184.66,463.246 163.496,439.531 c 12.391,-6.504 25.961,-12.152 40.457,-16.906 9.442,28.176 22.039,52.598 36.918,71.777" /><path
         id="path18"
         style="fill:#ffffff;fill-opacity:1;fill-rule:nonzero;stroke:none"
         d="M 320,560 C 187.453,560 80,452.547 80,320 80,187.453 187.453,80 320,80 452.547,80 560,187.453 560,320 560,452.547 452.547,560 320,560 Z m 0,-30 c 115.793,0 210,-94.203 210,-210 0,-115.797 -94.207,-210 -210,-210 -115.793,0 -210,94.203 -210,210 0,115.797 94.207,210 210,210" /><path
         id="path20"
         style="fill:#ffffff;fill-opacity:1;fill-rule:nonzero;stroke:none"
         d="M 320,560 C 245.441,560 185,452.547 185,320 185,187.453 245.441,80 320,80 c 74.559,0 135,107.453 135,240 0,132.547 -60.441,240 -135,240 z m 0,-30 c 24.387,0 49.648,-20.047 69.313,-55.004 C 412.324,434.086 425,379.039 425,320 425,260.961 412.324,205.914 389.313,165.004 369.648,130.047 344.387,110 320,110 295.613,110 270.352,130.047 250.688,165.004 227.676,205.914 215,260.961 215,320 c 0,59.039 12.676,114.086 35.688,154.996 C 270.352,509.953 295.613,530 320,530" /><path
         id="path22"
         style="fill:#ffffff;fill-opacity:1;fill-rule:nonzero;stroke:none"
         d="m 335,80 h -30 v 480 h 30 V 80" /><path
         id="path24"
         style="fill:#ffffff;fill-opacity:1;fill-rule:nonzero;stroke:none"
         d="m 320,395 c -74.246,0 -144.473,18.613 -192.656,51.063 l 16.758,24.882 C 187.461,441.746 251.57,425 320,425 c 68.359,0 132.441,16.719 175.801,45.879 l 16.738,-24.902 C 464.355,413.586 394.18,395 320,395" /><path
         id="path26"
         style="fill:#ffffff;fill-opacity:1;fill-rule:nonzero;stroke:none"
         d="m 495.793,167.559 c -43.359,29.199 -107.473,45.949 -175.898,45.949 -68.372,0 -132.446,-16.731 -175.801,-45.891 l -16.739,24.903 c 48.172,32.402 118.36,50.988 192.54,50.988 74.246,0 144.468,-18.613 192.656,-51.067 l -16.758,-24.882" /><path
         id="path28"
         style="fill:#ffffff;fill-opacity:1;fill-rule:nonzero;stroke:none"
         d="M 560,305 H 80 v 30 h 480 v -30" /></g></g></svg>