<?xml version="1.0" encoding="UTF-8" standalone="no"?>
<svg
   xmlns:dc="http://purl.org/dc/elements/1.1/"
   xmlns:cc="http://creativecommons.org/ns#"
   xmlns:rdf="http://www.w3.org/1999/02/22-rdf-syntax-ns#"
   xmlns:svg="http://www.w3.org/2000/svg"
   xmlns="http://www.w3.org/2000/svg"
   viewBox="0 0 85.333336 85.333336"
   height="85.333336"
   width="85.333336"
   xml:space="preserve"
   id="svg2"
   version="1.1"><metadata
     id="metadata8"><rdf:RDF><cc:Work
         rdf:about=""><dc:format>image/svg+xml</dc:format><dc:type
           rdf:resource="http://purl.org/dc/dcmitype/StillImage" /></cc:Work></rdf:RDF></metadata><defs
     id="defs6" /><g
     transform="matrix(1.3333333,0,0,-1.3333333,0,85.333333)"
     id="g10"><g
       transform="scale(0.1)"
       id="g12"><path
         id="path14"
         style="fill:#c84755;fill-opacity:1;fill-rule:nonzero;stroke:none"
         d="M 640,320 C 640,143.27 496.73,0 320,0 143.27,0 0,143.27 0,320 0,496.73 143.27,640 320,640 496.73,640 640,496.73 640,320" /><path
         id="path16"
         style="fill:#a43f4a;fill-opacity:1;fill-rule:nonzero;stroke:none"
         d="M 436.055,177.281 326.02,232.297 c -1.891,0.949 -3.961,1.422 -6.02,1.422 -2.059,0 -4.129,-0.473 -6.02,-1.422 L 203.945,177.281 320,438.391 436.055,177.281" /><path
         id="path18"
         style="fill:#a43f4a;fill-opacity:1;fill-rule:nonzero;stroke:none"
         d="m 176.41,134.992 c -3.387,0 -6.738,1.281 -9.301,3.735 -4.109,3.929 -5.308,10.011 -3.004,15.203 l 143.59,323.078 c 2.164,4.859 6.985,7.992 12.305,7.992 5.32,0 10.141,-3.133 12.305,-7.992 L 475.895,153.93 c 2.304,-5.192 1.105,-11.274 -3.004,-15.203 -2.563,-2.45 -5.911,-3.727 -9.301,-3.727 -2.051,0 -4.11,0.465 -6.02,1.418 L 320,205.203 182.43,136.418 c -1.91,-0.957 -3.973,-1.426 -6.02,-1.426 M 320,233.719 c 2.059,0 4.129,-0.473 6.02,-1.422 L 436.055,177.281 320,438.391 203.945,177.281 313.98,232.297 c 1.891,0.949 3.961,1.422 6.02,1.422" /><path
         id="path20"
         style="fill:#ffffff;fill-opacity:1;fill-rule:nonzero;stroke:none"
         d="M 320,490 179.211,173.227 320,243.621 460.789,173.227 320,490" /><path
         id="path22"
         style="fill:#ffffff;fill-opacity:1;fill-rule:nonzero;stroke:none"
         d="M 320,490 306.293,496.094 165.504,179.32 c -2.574,-5.797 -1.238,-12.554 3.344,-16.937 4.586,-4.379 11.402,-5.406 17.074,-2.57 L 320,226.852 454.078,159.813 c 5.672,-2.836 12.488,-1.809 17.074,2.57 4.582,4.383 5.918,11.14 3.344,16.937 L 333.707,496.094 C 331.301,501.508 325.926,505 320,505 c -5.926,0 -11.301,-3.488 -13.707,-8.906 L 320,490 306.293,483.91 430.102,205.344 326.707,257.039 c -4.215,2.106 -9.203,2.106 -13.414,0 L 209.898,205.344 333.707,483.91 320,490 306.293,483.91 320,490" /></g></g></svg>