<?xml version="1.0" encoding="UTF-8" standalone="no"?>
<svg
   xmlns:dc="http://purl.org/dc/elements/1.1/"
   xmlns:cc="http://creativecommons.org/ns#"
   xmlns:rdf="http://www.w3.org/1999/02/22-rdf-syntax-ns#"
   xmlns:svg="http://www.w3.org/2000/svg"
   xmlns="http://www.w3.org/2000/svg"
   viewBox="0 0 85.333336 85.333336"
   height="85.333336"
   width="85.333336"
   xml:space="preserve"
   id="svg2"
   version="1.1"><metadata
     id="metadata8"><rdf:RDF><cc:Work
         rdf:about=""><dc:format>image/svg+xml</dc:format><dc:type
           rdf:resource="http://purl.org/dc/dcmitype/StillImage" /></cc:Work></rdf:RDF></metadata><defs
     id="defs6" /><g
     transform="matrix(1.3333333,0,0,-1.3333333,0,85.333333)"
     id="g10"><g
       transform="scale(0.1)"
       id="g12"><path
         id="path14"
         style="fill:#495672;fill-opacity:1;fill-rule:nonzero;stroke:none"
         d="M 640,320 C 640,143.27 496.73,0 320,0 143.27,0 0,143.27 0,320 0,496.73 143.27,640 320,640 496.73,640 640,496.73 640,320" /><path
         id="path16"
         style="fill:#404a5f;fill-opacity:1;fill-rule:nonzero;stroke:none"
         d="m 210,104.73 c -32.402,18.668 -60.508,45.797 -80.551,80.512 C 109.406,219.957 99.9648,257.859 100,295.258 H 320 L 210,104.73" /><path
         id="path18"
         style="fill:#404a5f;fill-opacity:1;fill-rule:nonzero;stroke:none"
         d="M 430.012,104.707 320,295.258 H 540 C 539.926,219.289 500.535,145.426 430.012,104.707" /><path
         id="path20"
         style="fill:#404a5f;fill-opacity:1;fill-rule:nonzero;stroke:none"
         d="m 320,295.258 v 0 L 209.988,485.805 c 34.625,19.992 72.41,29.488 109.711,29.488 38.66,0 76.797,-10.211 110.301,-29.512 L 320,295.258" /><path
         id="path22"
         style="fill:#f3cc70;fill-opacity:1;fill-rule:nonzero;stroke:none"
         d="M 100,315.258 C 99.9648,277.859 109.406,239.957 129.449,205.242 149.492,170.527 177.598,143.398 210,124.73 L 320,315.258 H 100" /><path
         id="path24"
         style="fill:#f3cc70;fill-opacity:1;fill-rule:nonzero;stroke:none"
         d="M 430.012,124.707 C 500.535,165.426 539.926,239.289 540,315.258 H 320 L 430.012,124.707" /><path
         id="path26"
         style="fill:#f3cc70;fill-opacity:1;fill-rule:nonzero;stroke:none"
         d="m 430,505.781 c -65.828,37.922 -149.492,40.742 -220.012,0.024 L 320,315.258 430,505.781" /></g></g></svg>