<?xml version="1.0" encoding="UTF-8" standalone="no"?>
<svg
   xmlns:dc="http://purl.org/dc/elements/1.1/"
   xmlns:cc="http://creativecommons.org/ns#"
   xmlns:rdf="http://www.w3.org/1999/02/22-rdf-syntax-ns#"
   xmlns:svg="http://www.w3.org/2000/svg"
   xmlns="http://www.w3.org/2000/svg"
   viewBox="0 0 85.333336 85.333336"
   height="85.333336"
   width="85.333336"
   xml:space="preserve"
   id="svg2"
   version="1.1"><metadata
     id="metadata8"><rdf:RDF><cc:Work
         rdf:about=""><dc:format>image/svg+xml</dc:format><dc:type
           rdf:resource="http://purl.org/dc/dcmitype/StillImage" /></cc:Work></rdf:RDF></metadata><defs
     id="defs6" /><g
     transform="matrix(1.3333333,0,0,-1.3333333,0,85.333333)"
     id="g10"><g
       transform="scale(0.1)"
       id="g12"><path
         id="path14"
         style="fill:#c84755;fill-opacity:1;fill-rule:nonzero;stroke:none"
         d="M 640,320 C 640,143.27 496.73,0 320,0 143.27,0 0,143.27 0,320 0,496.73 143.27,640 320,640 496.73,640 640,496.73 640,320" /><path
         id="path16"
         style="fill:#a43f4a;fill-opacity:1;fill-rule:nonzero;stroke:none"
         d="m 318.582,125.605 c 0,0 -173.184,57.692 -178.133,198.407 -0.066,1.484 -0.449,2.652 -0.449,4.207 l 0.066,0.765 -0.066,0.989 h 0.18 c 0.945,55.215 45.742,104.422 101.07,104.422 31.996,0 60.188,-16.739 78.75,-41.309 18.563,24.57 46.754,41.309 78.75,41.309 55.328,0 100.125,-49.207 101.07,-104.422 H 500 l -0.066,-0.989 0.066,-0.765 c 0,-1.621 -0.406,-2.86 -0.496,-4.434 -5.195,-140.558 -180.922,-198.18 -180.922,-198.18" /><path
         id="path18"
         style="fill:#ffffff;fill-opacity:1;fill-rule:nonzero;stroke:none"
         d="m 499.82,349.973 c -0.945,55.215 -45.742,104.422 -101.07,104.422 -31.996,0 -60.187,-16.739 -78.75,-41.309 -18.562,24.57 -46.754,41.309 -78.75,41.309 -55.328,0 -100.125,-49.207 -101.07,-104.422 H 140 l 0.066,-0.989 -0.066,-0.765 c 0,-1.555 0.383,-2.723 0.449,-4.207 4.949,-140.715 178.133,-198.407 178.133,-198.407 0,0 175.727,57.622 180.922,198.18 0.09,1.574 0.496,2.813 0.496,4.434 l -0.066,0.765 0.066,0.989 h -0.18" /></g></g></svg>