<?xml version="1.0" encoding="UTF-8" standalone="no"?>
<svg
   xmlns:dc="http://purl.org/dc/elements/1.1/"
   xmlns:cc="http://creativecommons.org/ns#"
   xmlns:rdf="http://www.w3.org/1999/02/22-rdf-syntax-ns#"
   xmlns:svg="http://www.w3.org/2000/svg"
   xmlns="http://www.w3.org/2000/svg"
   viewBox="0 0 85.333336 85.333336"
   height="85.333336"
   width="85.333336"
   xml:space="preserve"
   id="svg2"
   version="1.1"><metadata
     id="metadata8"><rdf:RDF><cc:Work
         rdf:about=""><dc:format>image/svg+xml</dc:format><dc:type
           rdf:resource="http://purl.org/dc/dcmitype/StillImage" /></cc:Work></rdf:RDF></metadata><defs
     id="defs6" /><g
     transform="matrix(1.3333333,0,0,-1.3333333,0,85.333333)"
     id="g10"><g
       transform="scale(0.1)"
       id="g12"><path
         id="path14"
         style="fill:#e08e4c;fill-opacity:1;fill-rule:nonzero;stroke:none"
         d="M 640,320 C 640,143.27 496.73,0 320,0 143.27,0 0,143.27 0,320 0,496.73 143.27,640 320,640 496.73,640 640,496.73 640,320" /><path
         id="path16"
         style="fill:#495672;fill-opacity:1;fill-rule:nonzero;stroke:none"
         d="M 440,100 H 300 c -11.047,0 -20,8.953 -20,20 0,11.047 8.953,20 20,20 h 140 c 11.047,0 20,-8.953 20,-20 0,-11.047 -8.953,-20 -20,-20" /><path
         id="path18"
         style="fill:#b77744;fill-opacity:1;fill-rule:nonzero;stroke:none"
         d="M 500,440 H 220 c -11.047,0 -20,8.953 -20,20 0,11.047 8.953,20 20,20 h 280 c 11.047,0 20,-8.953 20,-20 0,-11.047 -8.953,-20 -20,-20" /><path
         id="path20"
         style="fill:#495672;fill-opacity:1;fill-rule:nonzero;stroke:none"
         d="M 500,475 H 220" /><path
         id="path22"
         style="fill:#ffffff;fill-opacity:1;fill-rule:nonzero;stroke:none"
         d="M 500,490 H 220 c -8.285,0 -15,-6.715 -15,-15 0,-8.285 6.715,-15 15,-15 h 280 c 8.285,0 15,6.715 15,15 0,8.285 -6.715,15 -15,15" /><path
         id="path24"
         style="fill:#b77744;fill-opacity:1;fill-rule:nonzero;stroke:none"
         d="m 370,140 c -82.844,0 -150,27.156 -150,110 0,13.125 -13.867,20.027 -13.867,20.027 L 120,310.938 c 0,0 -0.074,0.035 -0.219,0.109 C 123.082,310.359 126.5,310 130,310 c 8.16,0 15.863,1.953 22.664,5.422 l 53.469,-25.395 c 0,0 13.867,-6.902 13.867,-20.027 0,-82.844 67.156,-110 150,-110 72.914,0 133.625,12.047 147.141,81.004 C 510.832,165.605 442.914,140 370,140 m 0.328,254.504 c -0.113,1.824 -0.199,3.652 -0.254,5.492 l 0.684,-0.035 c -0.164,-1.813 -0.313,-3.633 -0.43,-5.457" /><path
         id="path26"
         style="fill:#495672;fill-opacity:1;fill-rule:nonzero;stroke:none"
         d="m 370,405 c 0,5.051 0.313,10.027 0.758,14.961 L 370,420 C 331.324,420 296.164,405.277 269.59,381.223 265.691,377.691 256.875,370 243.539,370 212.652,370 100,370 100,370 l 20,-39.062 86.133,-40.911 c 0,0 13.867,-6.902 13.867,-20.027 0,-82.844 67.156,-110 150,-110 72.914,0 133.625,12.047 147.141,81.004 C 434.422,249.914 370,319.91 370,405" /><path
         id="path28"
         style="fill:#b77744;fill-opacity:1;fill-rule:nonzero;stroke:none"
         d="M 119.781,311.047 C 97.0664,315.762 80,335.887 80,360 c 0,27.613 22.387,50 50,50 24.188,0 44.367,-17.18 49,-40 -38.906,0 -79,0 -79,0 l 4.867,-9.504 c -3.254,-2.469 -5.074,-5.875 -5.074,-10.445 0,-27.824 17.812,-37.879 19.988,-39.004" /><path
         id="path30"
         style="fill:#97633d;fill-opacity:1;fill-rule:nonzero;stroke:none"
         d="m 130,310 c -3.5,0 -6.918,0.359 -10.219,1.047 -2.176,1.125 -19.988,11.18 -19.988,39.004 0,4.57 1.82,7.976 5.074,10.445 L 120,330.938 152.664,315.422 C 145.863,311.953 138.16,310 130,310" /><path
         id="path32"
         style="fill:#404a5f;fill-opacity:1;fill-rule:nonzero;stroke:none"
         d="M 152.664,315.422 120,330.938 104.867,360.496 100,370 c 0,0 40.094,0 79,0 0.656,-3.23 1,-6.574 1,-10 0,-19.453 -11.109,-36.316 -27.336,-44.578 M 130,370 c -5.516,0 -10,-4.484 -10,-10 0,-5.516 4.484,-10 10,-10 5.516,0 10,4.484 10,10 0,5.516 -4.484,10 -10,10" /><path
         id="path34"
         style="fill:#ffffff;fill-opacity:1;fill-rule:nonzero;stroke:none"
         d="m 130,430 c -27.613,0 -50,-22.387 -50,-50 0,-27.613 22.387,-50 50,-50 27.613,0 50,22.387 50,50 0,27.613 -22.387,50 -50,50 z m 0,-30 c 11.027,0 20,-8.973 20,-20 0,-11.027 -8.973,-20 -20,-20 -11.027,0 -20,8.973 -20,20 0,11.027 8.973,20 20,20" /><path
         id="path36"
         style="fill:#e1e3cc;fill-opacity:1;fill-rule:nonzero;stroke:none"
         d="M 370.758,419.961 C 370.313,415.027 370,410.051 370,405 370,319.91 434.422,249.914 517.141,241.004 518.98,250.391 520,260.074 520,270 c 0,82.59 -66.754,149.551 -149.242,149.961" /></g></g></svg>