<?xml version="1.0" encoding="UTF-8" standalone="no"?>
<svg
   xmlns:dc="http://purl.org/dc/elements/1.1/"
   xmlns:cc="http://creativecommons.org/ns#"
   xmlns:rdf="http://www.w3.org/1999/02/22-rdf-syntax-ns#"
   xmlns:svg="http://www.w3.org/2000/svg"
   xmlns="http://www.w3.org/2000/svg"
   viewBox="0 0 85.333336 85.333336"
   height="85.333336"
   width="85.333336"
   xml:space="preserve"
   id="svg2"
   version="1.1"><metadata
     id="metadata8"><rdf:RDF><cc:Work
         rdf:about=""><dc:format>image/svg+xml</dc:format><dc:type
           rdf:resource="http://purl.org/dc/dcmitype/StillImage" /></cc:Work></rdf:RDF></metadata><defs
     id="defs6" /><g
     transform="matrix(1.3333333,0,0,-1.3333333,0,85.333333)"
     id="g10"><g
       transform="scale(0.1)"
       id="g12"><path
         id="path14"
         style="fill:#7db6d8;fill-opacity:1;fill-rule:nonzero;stroke:none"
         d="M 640,320 C 640,143.27 496.73,0 320,0 143.27,0 0,143.27 0,320 0,496.73 143.27,640 320,640 496.73,640 640,496.73 640,320" /><path
         id="path16"
         style="fill:#6594b2;fill-opacity:1;fill-rule:nonzero;stroke:none"
         d="m 320,140.313 c -110.457,0 -200,89.402 -200,199.687 0,110.285 89.543,199.688 200,199.688 110.457,0 200,-89.403 200,-199.688 0,-110.285 -89.543,-199.687 -200,-199.687" /><path
         id="path18"
         style="fill:#6594b2;fill-opacity:1;fill-rule:nonzero;stroke:none"
         d="m 350,60.3125 h -60 c -16.57,0 -30,13.4297 -30,30 0,16.5705 13.43,30.0005 30,30.0005 h 60 c 16.57,0 30,-13.43 30,-30.0005 0,-16.5703 -13.43,-30 -30,-30" /><path
         id="path20"
         style="fill:#495672;fill-opacity:1;fill-rule:nonzero;stroke:none"
         d="M 520,359.688 C 520,249.402 430.457,160 320,160 c -110.457,0 -200,89.402 -200,199.688 0,110.285 89.543,199.687 200,199.687 110.457,0 200,-89.402 200,-199.687" /><path
         id="path22"
         style="fill:#ffffff;fill-opacity:1;fill-rule:nonzero;stroke:none"
         d="M 480,359.688 C 480,249.402 408.363,160 320,160 c -88.363,0 -160,89.402 -160,199.688 0,110.285 71.637,199.687 160,199.687 88.363,0 160,-89.402 160,-199.687" /><path
         id="path24"
         style="fill:#495672;fill-opacity:1;fill-rule:nonzero;stroke:none"
         d="M 400,359.688 C 400,249.402 364.184,160 320,160 c -44.184,0 -80,89.402 -80,199.688 0,110.285 35.816,199.687 80,199.687 44.184,0 80,-89.402 80,-199.687" /><path
         id="path26"
         style="fill:#c84755;fill-opacity:1;fill-rule:nonzero;stroke:none"
         d="M 380,110 C 380,93.4297 366.57,80 350,80 h -60 c -16.57,0 -30,13.4297 -30,30 0,16.57 13.43,30 30,30 h 60 c 16.57,0 30,-13.43 30,-30" /></g></g></svg>