<?xml version="1.0" encoding="UTF-8" standalone="no"?>
<svg
   xmlns:dc="http://purl.org/dc/elements/1.1/"
   xmlns:cc="http://creativecommons.org/ns#"
   xmlns:rdf="http://www.w3.org/1999/02/22-rdf-syntax-ns#"
   xmlns:svg="http://www.w3.org/2000/svg"
   xmlns="http://www.w3.org/2000/svg"
   viewBox="0 0 85.333336 85.333336"
   height="85.333336"
   width="85.333336"
   xml:space="preserve"
   id="svg2"
   version="1.1"><metadata
     id="metadata8"><rdf:RDF><cc:Work
         rdf:about=""><dc:format>image/svg+xml</dc:format><dc:type
           rdf:resource="http://purl.org/dc/dcmitype/StillImage" /></cc:Work></rdf:RDF></metadata><defs
     id="defs6" /><g
     transform="matrix(1.3333333,0,0,-1.3333333,0,85.333333)"
     id="g10"><g
       transform="scale(0.1)"
       id="g12"><path
         id="path14"
         style="fill:#c84755;fill-opacity:1;fill-rule:nonzero;stroke:none"
         d="M 640,320 C 640,143.27 496.73,0 320,0 143.27,0 0,143.27 0,320 0,496.73 143.27,640 320,640 496.73,640 640,496.73 640,320" /><path
         id="path16"
         style="fill:#a43f4a;fill-opacity:1;fill-rule:nonzero;stroke:none"
         d="M 460,100 H 180 c -11.047,0 -20,8.953 -20,20 0,11.047 8.953,20 20,20 h 19.996 c 0,2.473 0.004,5.488 0.004,9.168 h 120 120 c 0,-3.68 0.004,-6.695 0.004,-9.168 H 460 c 11.047,0 20,-8.953 20,-20 0,-11.047 -8.953,-20 -20,-20 m -87.742,210 c -0.414,0.398 -0.805,0.77 -1.16,1.109 -9.149,8.754 0,17.782 0,17.782 0,0 13.406,12.824 41.734,39.929 25.309,24.211 27.078,58.313 27.172,65.313 L 440,415.418 c 0,0 1.16,-39.492 -27.168,-66.598 C 389.301,326.305 376.066,313.641 372.258,310 m -104.516,0 c -3.808,3.641 -17.043,16.305 -40.574,38.82 C 198.84,375.926 200,415.418 200,415.418 l -0.004,18.711 c 0.094,-7.012 1.871,-41.102 27.172,-65.309 28.328,-27.105 41.734,-39.929 41.734,-39.929 0,0 9.149,-9.028 0,-17.782 -0.355,-0.339 -0.746,-0.711 -1.16,-1.109 M 440.004,435.297 C 440,435.375 440,435.418 440,435.418 L 440.004,460 h 0.004 l -0.004,-24.703 m -240.008,0 -0.004,24.703 h 0.004 L 200,435.418 c 0,0 0,-0.039 -0.004,-0.121" /><path
         id="path18"
         style="fill:#ffffff;fill-opacity:1;fill-rule:nonzero;stroke:none"
         d="m 410,273.891 c 0,0 -29.754,28.468 -38.902,37.218 -9.149,8.754 0,17.782 0,17.782 0,0 13.406,12.824 41.734,39.929 C 441.16,395.926 440,435.418 440,435.418 l 0.008,51.25 -120.008,10 -120.008,-10 0.008,-51.25 c 0,0 -1.16,-39.492 27.168,-66.598 28.328,-27.105 41.734,-39.929 41.734,-39.929 0,0 9.149,-9.028 0,-17.782 C 259.754,302.359 230,273.891 230,273.891 c 0,0 -30,-28.473 -30,-73.891 0,-45.414 -0.008,-50.832 -0.008,-50.832 H 320 440.008 c 0,0 -0.008,5.418 -0.008,50.832 0,45.418 -30,73.891 -30,73.891" /><path
         id="path20"
         style="fill:#495672;fill-opacity:1;fill-rule:nonzero;stroke:none"
         d="m 310,210 0.309,110 c 0.164,20.605 -9.524,33.621 -13.305,37.359 l -42.184,40.36 c -14.324,13.707 -14.843,36.304 -14.84,36.519 H 320 400.02 l -0.004,0.004 c -0.012,0 -0.235,-22.554 -14.84,-36.523 L 343.445,357.797 C 339.215,353.621 329.836,340.605 329.996,320 L 330,210 h -20" /><path
         id="path22"
         style="fill:#923b44;fill-opacity:1;fill-rule:nonzero;stroke:none"
         d="m 460,460 h -19.992 v 26.668 l -120.008,10 -120.008,-10 0.004,-20 h -0.004 V 460 H 180 c -11.047,0 -20,8.953 -20,20 0,11.047 8.953,20 20,20 h 280 c 11.047,0 20,-8.953 20,-20 0,-11.047 -8.953,-20 -20,-20" /><path
         id="path24"
         style="fill:#79343c;fill-opacity:1;fill-rule:nonzero;stroke:none"
         d="m 440.008,460 h -0.004 v 6.668 h 0.004 V 460 m -240.012,0 h -0.004 v 6.668 L 199.996,460" /><path
         id="path26"
         style="fill:#bcb9b9;fill-opacity:1;fill-rule:nonzero;stroke:none"
         d="M 440.004,460 H 199.996 v 6.668 l -0.004,20 120.008,10 120.008,-10 -0.004,-20 V 460" /><path
         id="path28"
         style="fill:#f3cc70;fill-opacity:1;fill-rule:nonzero;stroke:none"
         d="m 480,500 c 0,-11.047 -8.953,-20 -20,-20 H 180 c -11.047,0 -20,8.953 -20,20 0,11.047 8.953,20 20,20 h 280 c 11.047,0 20,-8.953 20,-20" /><path
         id="path30"
         style="fill:#f3cc70;fill-opacity:1;fill-rule:nonzero;stroke:none"
         d="m 480,140 c 0,-11.047 -8.953,-20 -20,-20 H 180 c -11.047,0 -20,8.953 -20,20 0,11.047 8.953,20 20,20 h 280 c 11.047,0 20,-8.953 20,-20" /><path
         id="path32"
         style="fill:#495672;fill-opacity:1;fill-rule:nonzero;stroke:none"
         d="m 410,160 v 0 H 230 l 90,80 90,-80" /></g></g></svg>