<?xml version="1.0" encoding="UTF-8" standalone="no"?>
<svg
   xmlns:dc="http://purl.org/dc/elements/1.1/"
   xmlns:cc="http://creativecommons.org/ns#"
   xmlns:rdf="http://www.w3.org/1999/02/22-rdf-syntax-ns#"
   xmlns:svg="http://www.w3.org/2000/svg"
   xmlns="http://www.w3.org/2000/svg"
   viewBox="0 0 85.333336 85.333336"
   height="85.333336"
   width="85.333336"
   xml:space="preserve"
   id="svg2"
   version="1.1"><metadata
     id="metadata8"><rdf:RDF><cc:Work
         rdf:about=""><dc:format>image/svg+xml</dc:format><dc:type
           rdf:resource="http://purl.org/dc/dcmitype/StillImage" /></cc:Work></rdf:RDF></metadata><defs
     id="defs6" /><g
     transform="matrix(1.3333333,0,0,-1.3333333,0,85.333333)"
     id="g10"><g
       transform="scale(0.1)"
       id="g12"><path
         id="path14"
         style="fill:#e08e4c;fill-opacity:1;fill-rule:nonzero;stroke:none"
         d="M 640,320 C 640,143.27 496.73,0 320,0 143.27,0 0,143.27 0,320 0,496.73 143.27,640 320,640 496.73,640 640,496.73 640,320" /><path
         id="path16"
         style="fill:#b77744;fill-opacity:1;fill-rule:nonzero;stroke:none"
         d="M 480,100 H 160 c -22.094,0 -40,17.91 -40,40 v 240 80 c 0,22.094 17.906,40 40,40 h 320 c 22.094,0 40,-17.906 40,-40 V 380 140 c 0,-22.09 -17.906,-40 -40,-40" /><path
         id="path18"
         style="fill:#7db6d8;fill-opacity:1;fill-rule:nonzero;stroke:none"
         d="m 160,140 c -11.031,0 -20,8.977 -20,20 v 320 c 0,11.023 8.969,20 20,20 h 320 c 11.031,0 20,-8.977 20,-20 V 160 c 0,-11.023 -8.969,-20 -20,-20 H 160" /><path
         id="path20"
         style="fill:#ffffff;fill-opacity:1;fill-rule:nonzero;stroke:none"
         d="M 480,520 H 160 c -22.094,0 -40,-17.906 -40,-40 V 400 160 c 0,-22.09 17.906,-40 40,-40 h 320 c 22.094,0 40,17.91 40,40 v 240 80 c 0,22.094 -17.906,40 -40,40 z m 0,-40 V 160 H 160 v 320 h 320" /><path
         id="path22"
         style="fill:#ffffff;fill-opacity:1;fill-rule:nonzero;stroke:none"
         d="M 480,160 H 160 v 40 h 320 v -40" /><path
         id="path24"
         style="fill:#495672;fill-opacity:1;fill-rule:nonzero;stroke:none"
         d="m 139.895,200 h 348.96 v 29.211 c 0,0 -17.058,29.773 -32.867,48.426 -11.758,13.879 -29.316,17.804 -44.636,0.758 l -27.524,-26.434 -59.988,76.285 c -22.344,28.41 -58.902,28.41 -81.242,0 L 139.895,200" /><path
         id="path26"
         style="fill:#f3cc70;fill-opacity:1;fill-rule:nonzero;stroke:none"
         d="m 430,400 c 0,-16.57 -13.434,-30 -30,-30 -16.57,0 -30,13.43 -30,30 0,16.57 13.43,30 30,30 16.566,0 30,-13.43 30,-30" /><path
         id="path28"
         style="fill:#ffffff;fill-opacity:1;fill-rule:nonzero;stroke:none"
         d="M 480,520 H 160 c -22.094,0 -40,-17.906 -40,-40 V 400 160 c 0,-22.09 17.906,-40 40,-40 h 320 c 22.094,0 40,17.91 40,40 v 240 80 c 0,22.094 -17.906,40 -40,40 z m 0,-40 V 160 H 160 v 320 h 320" /></g></g></svg>