<?xml version="1.0" encoding="UTF-8" standalone="no"?>
<svg
   xmlns:dc="http://purl.org/dc/elements/1.1/"
   xmlns:cc="http://creativecommons.org/ns#"
   xmlns:rdf="http://www.w3.org/1999/02/22-rdf-syntax-ns#"
   xmlns:svg="http://www.w3.org/2000/svg"
   xmlns="http://www.w3.org/2000/svg"
   viewBox="0 0 85.333336 85.333336"
   height="85.333336"
   width="85.333336"
   xml:space="preserve"
   id="svg2"
   version="1.1"><metadata
     id="metadata8"><rdf:RDF><cc:Work
         rdf:about=""><dc:format>image/svg+xml</dc:format><dc:type
           rdf:resource="http://purl.org/dc/dcmitype/StillImage" /></cc:Work></rdf:RDF></metadata><defs
     id="defs6" /><g
     transform="matrix(1.3333333,0,0,-1.3333333,0,85.333333)"
     id="g10"><g
       transform="scale(0.1)"
       id="g12"><path
         id="path14"
         style="fill:#e08e4c;fill-opacity:1;fill-rule:nonzero;stroke:none"
         d="M 640,320 C 640,143.27 496.73,0 320,0 143.27,0 0,143.27 0,320 0,496.73 143.27,640 320,640 496.73,640 640,496.73 640,320" /><path
         id="path16"
         style="fill:#b77744;fill-opacity:1;fill-rule:nonzero;stroke:none"
         d="m 320,65 c -1.074,0 -2.148,0.1172 -3.203,0.3477 C 131.918,105.785 93.8867,220.773 94.5391,310.105 v 0.004 0.004 c 0.582,78.231 30.5899,143.485 31.8669,146.227 1.735,3.719 4.91,6.566 8.805,7.875 1.551,0.531 3.164,0.793 4.777,0.793 2.41,0 4.813,-0.586 6.992,-1.731 0.399,-0.207 42.043,-21.656 90.797,-21.656 27.989,0 52.875,7.035 73.981,20.914 2.5,1.645 5.371,2.469 8.242,2.469 2.871,0 5.742,-0.824 8.242,-2.469 21.106,-13.879 45.996,-20.914 73.981,-20.914 49.054,0.004 90.382,21.442 90.797,21.656 2.168,1.145 4.566,1.727 6.976,1.727 1.621,0 3.25,-0.266 4.817,-0.801 3.898,-1.316 7.078,-4.18 8.8,-7.91 1.27,-2.738 31.035,-67.996 31.836,-146.141 C 546.371,220.055 508.539,104.438 323.098,65.3203 322.074,65.1055 321.035,65 320,65" /><path
         id="path18"
         style="fill:#495672;fill-opacity:1;fill-rule:nonzero;stroke:none"
         d="M 109.543,335 C 108.895,246.762 147.941,142.637 320,105 492.617,141.41 531.355,246.195 530.449,335 H 109.543" /><path
         id="path20"
         style="fill:#ffffff;fill-opacity:1;fill-rule:nonzero;stroke:none"
         d="m 109.543,335 -15,0.117 -0.0078,-2.262 c -0.0235,-46.062 10.4918,-97.273 44.2738,-141.894 33.742,-44.66 90.164,-81.477 177.984,-100.6133 2.047,-0.4493 4.254,-0.4571 6.305,-0.0235 43.953,9.2735 79.98,22.9488 109.312,39.9568 44.008,25.465 72.762,58.625 89.949,94.078 17.239,35.461 23.102,72.903 23.106,107.621 0,1.071 -0.008,2.122 -0.016,3.161 -0.078,8.238 -6.761,14.859 -15,14.859 H 109.543 c -8.238,0 -14.9375,-6.645 -15,-14.883 l 15,-0.117 v -15 h 420.906 v 15 l -15,-0.141 c 0.008,-0.964 0.016,-1.925 0.016,-2.879 -0.024,-41.91 -9.418,-86.07 -38.184,-123.976 -14.422,-18.992 -33.785,-36.602 -59.922,-51.77 C 391.227,141.078 358.281,128.406 316.902,119.68 L 320,105 l 3.207,14.656 c -82.848,18.196 -131.656,51.418 -160.48,89.41 -28.786,38.028 -38.168,82.075 -38.192,123.789 l 0.008,2.032 -15,0.113 v -15 15" /><path
         id="path22"
         style="fill:#c84755;fill-opacity:1;fill-rule:nonzero;stroke:none"
         d="m 500,475 c 0,0 -100,-52.602 -180,0 -80,-52.602 -180,0 -180,0 0,0 -29.898,-64.129 -30.457,-140 H 530.449 C 529.672,410.824 500,475 500,475" /><path
         id="path24"
         style="fill:#ffffff;fill-opacity:1;fill-rule:nonzero;stroke:none"
         d="m 500,475 -6.984,13.277 2.558,-4.859 -2.539,4.867 -0.019,-0.008 2.558,-4.859 -2.539,4.867 c -0.207,-0.219 -42.597,-21.808 -90.812,-21.664 -24.532,0.024 -50.246,5.32 -73.985,20.914 -4.992,3.281 -11.488,3.281 -16.48,0 -23.735,-15.594 -49.449,-20.887 -73.981,-20.91 -24.472,-0.016 -47.484,5.426 -64.203,10.938 -8.363,2.746 -15.148,5.496 -19.773,7.523 -2.317,1.016 -4.086,1.848 -5.246,2.41 l -1.274,0.629 -0.273,0.141 -0.043,0.019 -2.637,-5.055 2.652,5.047 -0.015,0.008 -2.637,-5.055 2.652,5.047 c -3.644,1.918 -7.867,2.254 -11.773,0.938 -3.902,-1.317 -7.062,-4.141 -8.801,-7.875 C 126,480.273 95.2461,414.813 94.543,335.109 94.5156,331.105 96.0742,327.277 98.8984,324.434 101.723,321.59 105.535,320 109.543,320 h 420.906 c 4.008,0 7.84,1.602 10.66,4.449 2.821,2.848 4.379,6.699 4.34,10.703 -0.929,79.602 -31.437,145.086 -31.836,146.145 -1.726,3.738 -4.894,6.59 -8.797,7.91 -3.906,1.324 -8.152,0.988 -11.8,-0.93 L 500,475 l -13.613,-6.293 0.039,-0.094 c 1.347,-2.781 28.414,-63.972 29.023,-133.765 l 15,0.152 v 15 H 109.543 v -15 l 15,-0.109 c 0.25,35.996 7.547,69.738 14.82,94.308 3.633,12.285 7.25,22.281 9.926,29.137 1.34,3.43 2.445,6.074 3.203,7.832 l 0.856,1.953 0.207,0.453 0.039,0.086 L 140,475 133.016,461.727 c 1.152,-0.489 47.078,-24.95 104.761,-25.102 28.801,-0.023 60.868,6.367 90.461,25.844 L 320,475 311.762,462.469 c 29.593,-19.473 61.656,-25.867 90.461,-25.844 57.683,0.148 103.609,24.613 104.761,25.102 L 500,475 486.387,468.707 500,475" /></g></g></svg>