<?xml version="1.0" encoding="UTF-8" standalone="no"?>
<svg
   xmlns:dc="http://purl.org/dc/elements/1.1/"
   xmlns:cc="http://creativecommons.org/ns#"
   xmlns:rdf="http://www.w3.org/1999/02/22-rdf-syntax-ns#"
   xmlns:svg="http://www.w3.org/2000/svg"
   xmlns="http://www.w3.org/2000/svg"
   viewBox="0 0 85.333336 85.333336"
   height="85.333336"
   width="85.333336"
   xml:space="preserve"
   id="svg2"
   version="1.1"><metadata
     id="metadata8"><rdf:RDF><cc:Work
         rdf:about=""><dc:format>image/svg+xml</dc:format><dc:type
           rdf:resource="http://purl.org/dc/dcmitype/StillImage" /></cc:Work></rdf:RDF></metadata><defs
     id="defs6" /><g
     transform="matrix(1.3333333,0,0,-1.3333333,0,85.333333)"
     id="g10"><g
       transform="scale(0.1)"
       id="g12"><path
         id="path14"
         style="fill:#e08e4c;fill-opacity:1;fill-rule:nonzero;stroke:none"
         d="M 640,320 C 640,143.27 496.73,0 320,0 143.27,0 0,143.27 0,320 0,496.73 143.27,640 320,640 496.73,640 640,496.73 640,320" /><path
         id="path16"
         style="fill:#b77744;fill-opacity:1;fill-rule:nonzero;stroke:none"
         d="m 260,140 c -55.141,0 -100,44.859 -100,100 0,55.141 44.859,100 100,100 7.18,0 18.219,-2 25.359,-3.5 l 138.039,121.02 c 1.84,1.601 4.18,2.48 6.602,2.48 h 40 c 5.52,0 10,-4.48 10,-10 v -40 c 0,-4.68 -3.262,-8.762 -7.84,-9.762 l -29.922,-6.636 -1.418,-45.582 c -0.16,-5.122 -4.179,-9.301 -9.3,-9.661 l -38.2,-2.66 0.84,-37.961 c 0.102,-4.359 -2.64,-8.297 -6.781,-9.699 L 353.34,276.48 C 356.879,267.359 360,256.379 360,240 360,184.859 315.141,140 260,140 m -30,100 c -16.559,0 -30,-13.441 -30,-30 0,-16.559 13.441,-30 30,-30 16.559,0 30,13.441 30,30 0,4.559 -1.02,8.879 -2.84,12.762 C 252.359,232.941 242,240 230,240" /><path
         id="path18"
         style="fill:#ffffff;fill-opacity:1;fill-rule:nonzero;stroke:none"
         d="m 230,260 c 12,0 22.359,-7.059 27.16,-17.238 1.82,-3.883 2.84,-8.203 2.84,-12.762 0,-16.559 -13.441,-30 -30,-30 -16.559,0 -30,13.441 -30,30 0,16.559 13.441,30 30,30 z m 240,220 h -40 c -2.422,0 -4.762,-0.879 -6.602,-2.48 L 285.359,356.5 C 278.219,358 267.18,360 260,360 204.859,360 160,315.141 160,260 c 0,-55.141 44.859,-100 100,-100 55.141,0 100,44.859 100,100 0,16.379 -3.121,27.359 -6.66,36.48 l 34.039,11.559 c 4.141,1.402 6.883,5.34 6.781,9.699 l -0.84,37.961 38.2,2.66 c 5.121,0.36 9.14,4.539 9.3,9.661 l 1.418,45.582 29.922,6.636 c 4.578,1 7.84,5.082 7.84,9.762 v 40 c 0,5.52 -4.48,10 -10,10" /></g></g></svg>