<?xml version="1.0" encoding="UTF-8" standalone="no"?>
<svg
   xmlns:dc="http://purl.org/dc/elements/1.1/"
   xmlns:cc="http://creativecommons.org/ns#"
   xmlns:rdf="http://www.w3.org/1999/02/22-rdf-syntax-ns#"
   xmlns:svg="http://www.w3.org/2000/svg"
   xmlns="http://www.w3.org/2000/svg"
   viewBox="0 0 85.333336 85.333336"
   height="85.333336"
   width="85.333336"
   xml:space="preserve"
   id="svg2"
   version="1.1"><metadata
     id="metadata8"><rdf:RDF><cc:Work
         rdf:about=""><dc:format>image/svg+xml</dc:format><dc:type
           rdf:resource="http://purl.org/dc/dcmitype/StillImage" /></cc:Work></rdf:RDF></metadata><defs
     id="defs6" /><g
     transform="matrix(1.3333333,0,0,-1.3333333,0,85.333333)"
     id="g10"><g
       transform="scale(0.1)"
       id="g12"><path
         id="path14"
         style="fill:#e08e4c;fill-opacity:1;fill-rule:nonzero;stroke:none"
         d="M 640,320 C 640,143.27 496.73,0 320,0 143.27,0 0,143.27 0,320 0,496.73 143.27,640 320,640 496.73,640 640,496.73 640,320" /><path
         id="path16"
         style="fill:#b77744;fill-opacity:1;fill-rule:nonzero;stroke:none"
         d="M 500,190 H 140 c -11.047,0 -20,9.305 -20,20.785 v 168.43 0 -148.43 C 120,219.305 128.953,210 140,210 h 360 c 11.047,0 20,9.305 20,20.785 v -20 C 520,199.305 511.047,190 500,190" /><path
         id="path18"
         style="fill:#f3cc70;fill-opacity:1;fill-rule:nonzero;stroke:none"
         d="M 520,230.785 C 520,219.305 511.047,210 500,210 H 140 c -11.047,0 -20,9.305 -20,20.785 v 168.43 c 0,11.48 8.953,20.785 20,20.785 h 360 c 11.047,0 20,-9.305 20,-20.785 v -168.43" /><path
         id="path20"
         style="fill:#c7a85f;fill-opacity:1;fill-rule:nonzero;stroke:none"
         d="M 398.855,230 H 241.145 C 232.23,230 225,236.715 225,245 c 0,8.285 7.23,15 16.145,15 h 157.71 c 8.915,0 16.145,-6.715 16.145,-15 0,-8.285 -7.23,-15 -16.145,-15" /><path
         id="path22"
         style="fill:#c7a85f;fill-opacity:1;fill-rule:nonzero;stroke:none"
         d="m 200,230 c -8.285,0 -15,6.715 -15,15 0,8.285 6.715,15 15,15 8.285,0 15,-6.715 15,-15 0,-8.285 -6.715,-15 -15,-15" /><path
         id="path24"
         style="fill:#c7a85f;fill-opacity:1;fill-rule:nonzero;stroke:none"
         d="m 160,230 c -8.285,0 -15,6.715 -15,15 0,8.285 6.715,15 15,15 8.285,0 15,-6.715 15,-15 0,-8.285 -6.715,-15 -15,-15" /><path
         id="path26"
         style="fill:#c7a85f;fill-opacity:1;fill-rule:nonzero;stroke:none"
         d="m 480,230 c -8.285,0 -15,6.715 -15,15 0,8.285 6.715,15 15,15 8.285,0 15,-6.715 15,-15 0,-8.285 -6.715,-15 -15,-15" /><path
         id="path28"
         style="fill:#c7a85f;fill-opacity:1;fill-rule:nonzero;stroke:none"
         d="m 440,230 c -8.285,0 -15,6.715 -15,15 0,8.285 6.715,15 15,15 8.285,0 15,-6.715 15,-15 0,-8.285 -6.715,-15 -15,-15" /><path
         id="path30"
         style="fill:#c7a85f;fill-opacity:1;fill-rule:nonzero;stroke:none"
         d="m 200,271.504 h -40 c -8.285,0 -15,6.715 -15,15 0,8.285 6.715,15 15,15 h 40 c 8.285,0 15,-6.715 15,-15 0,-8.285 -6.715,-15 -15,-15" /><path
         id="path32"
         style="fill:#c7a85f;fill-opacity:1;fill-rule:nonzero;stroke:none"
         d="m 480,271.504 h -40 c -8.285,0 -15,6.715 -15,15 0,8.285 6.715,15 15,15 h 40 c 8.285,0 15,-6.715 15,-15 0,-8.285 -6.715,-15 -15,-15" /><path
         id="path34"
         style="fill:#c7a85f;fill-opacity:1;fill-rule:nonzero;stroke:none"
         d="m 200,310 c -8.285,0 -15,6.715 -15,15 0,8.285 6.715,15 15,15 8.285,0 15,-6.715 15,-15 0,-8.285 -6.715,-15 -15,-15" /><path
         id="path36"
         style="fill:#c7a85f;fill-opacity:1;fill-rule:nonzero;stroke:none"
         d="m 160,310 c -8.285,0 -15,6.715 -15,15 0,8.285 6.715,15 15,15 8.285,0 15,-6.715 15,-15 0,-8.285 -6.715,-15 -15,-15" /><path
         id="path38"
         style="fill:#c7a85f;fill-opacity:1;fill-rule:nonzero;stroke:none"
         d="m 480,310 c -8.285,0 -15,6.715 -15,15 0,8.285 6.715,15 15,15 8.285,0 15,-6.715 15,-15 0,-8.285 -6.715,-15 -15,-15" /><path
         id="path40"
         style="fill:#c7a85f;fill-opacity:1;fill-rule:nonzero;stroke:none"
         d="m 440,310 c -8.285,0 -15,6.715 -15,15 0,8.285 6.715,15 15,15 8.285,0 15,-6.715 15,-15 0,-8.285 -6.715,-15 -15,-15" /><path
         id="path42"
         style="fill:#c7a85f;fill-opacity:1;fill-rule:nonzero;stroke:none"
         d="m 200,349.836 c -8.285,0 -15,6.715 -15,15 0,8.285 6.715,15 15,15 8.285,0 15,-6.715 15,-15 0,-8.285 -6.715,-15 -15,-15" /><path
         id="path44"
         style="fill:#c7a85f;fill-opacity:1;fill-rule:nonzero;stroke:none"
         d="m 160,349.836 c -8.285,0 -15,6.715 -15,15 0,8.285 6.715,15 15,15 8.285,0 15,-6.715 15,-15 0,-8.285 -6.715,-15 -15,-15" /><path
         id="path46"
         style="fill:#c7a85f;fill-opacity:1;fill-rule:nonzero;stroke:none"
         d="m 280,271.504 c -8.285,0 -15,6.715 -15,15 0,8.285 6.715,15 15,15 8.285,0 15,-6.715 15,-15 0,-8.285 -6.715,-15 -15,-15" /><path
         id="path48"
         style="fill:#c7a85f;fill-opacity:1;fill-rule:nonzero;stroke:none"
         d="m 240,271.504 c -8.285,0 -15,6.715 -15,15 0,8.285 6.715,15 15,15 8.285,0 15,-6.715 15,-15 0,-8.285 -6.715,-15 -15,-15" /><path
         id="path50"
         style="fill:#c7a85f;fill-opacity:1;fill-rule:nonzero;stroke:none"
         d="m 280,310 c -8.285,0 -15,6.715 -15,15 0,8.285 6.715,15 15,15 8.285,0 15,-6.715 15,-15 0,-8.285 -6.715,-15 -15,-15" /><path
         id="path52"
         style="fill:#c7a85f;fill-opacity:1;fill-rule:nonzero;stroke:none"
         d="m 240,310 c -8.285,0 -15,6.715 -15,15 0,8.285 6.715,15 15,15 8.285,0 15,-6.715 15,-15 0,-8.285 -6.715,-15 -15,-15" /><path
         id="path54"
         style="fill:#c7a85f;fill-opacity:1;fill-rule:nonzero;stroke:none"
         d="m 280,349.836 c -8.285,0 -15,6.715 -15,15 0,8.285 6.715,15 15,15 8.285,0 15,-6.715 15,-15 0,-8.285 -6.715,-15 -15,-15" /><path
         id="path56"
         style="fill:#c7a85f;fill-opacity:1;fill-rule:nonzero;stroke:none"
         d="m 240,349.836 c -8.285,0 -15,6.715 -15,15 0,8.285 6.715,15 15,15 8.285,0 15,-6.715 15,-15 0,-8.285 -6.715,-15 -15,-15" /><path
         id="path58"
         style="fill:#c7a85f;fill-opacity:1;fill-rule:nonzero;stroke:none"
         d="m 360,271.504 c -8.285,0 -15,6.715 -15,15 0,8.285 6.715,15 15,15 8.285,0 15,-6.715 15,-15 0,-8.285 -6.715,-15 -15,-15" /><path
         id="path60"
         style="fill:#c7a85f;fill-opacity:1;fill-rule:nonzero;stroke:none"
         d="m 320,271.504 c -8.285,0 -15,6.715 -15,15 0,8.285 6.715,15 15,15 8.285,0 15,-6.715 15,-15 0,-8.285 -6.715,-15 -15,-15" /><path
         id="path62"
         style="fill:#c7a85f;fill-opacity:1;fill-rule:nonzero;stroke:none"
         d="m 360,310 c -8.285,0 -15,6.715 -15,15 0,8.285 6.715,15 15,15 8.285,0 15,-6.715 15,-15 0,-8.285 -6.715,-15 -15,-15" /><path
         id="path64"
         style="fill:#c7a85f;fill-opacity:1;fill-rule:nonzero;stroke:none"
         d="m 320,310 c -8.285,0 -15,6.715 -15,15 0,8.285 6.715,15 15,15 8.285,0 15,-6.715 15,-15 0,-8.285 -6.715,-15 -15,-15" /><path
         id="path66"
         style="fill:#c7a85f;fill-opacity:1;fill-rule:nonzero;stroke:none"
         d="m 360,349.836 c -8.285,0 -15,6.715 -15,15 0,8.285 6.715,15 15,15 8.285,0 15,-6.715 15,-15 0,-8.285 -6.715,-15 -15,-15" /><path
         id="path68"
         style="fill:#c7a85f;fill-opacity:1;fill-rule:nonzero;stroke:none"
         d="m 400,271.504 c -8.285,0 -15,6.715 -15,15 0,8.285 6.715,15 15,15 8.285,0 15,-6.715 15,-15 0,-8.285 -6.715,-15 -15,-15" /><path
         id="path70"
         style="fill:#c7a85f;fill-opacity:1;fill-rule:nonzero;stroke:none"
         d="m 400,310 c -8.285,0 -15,6.715 -15,15 0,8.285 6.715,15 15,15 8.285,0 15,-6.715 15,-15 0,-8.285 -6.715,-15 -15,-15" /><path
         id="path72"
         style="fill:#c7a85f;fill-opacity:1;fill-rule:nonzero;stroke:none"
         d="m 400,349.836 c -8.285,0 -15,6.715 -15,15 0,8.285 6.715,15 15,15 8.285,0 15,-6.715 15,-15 0,-8.285 -6.715,-15 -15,-15" /><path
         id="path74"
         style="fill:#c7a85f;fill-opacity:1;fill-rule:nonzero;stroke:none"
         d="m 320,349.836 c -8.285,0 -15,6.715 -15,15 0,8.285 6.715,15 15,15 8.285,0 15,-6.715 15,-15 0,-8.285 -6.715,-15 -15,-15" /><path
         id="path76"
         style="fill:#c7a85f;fill-opacity:1;fill-rule:nonzero;stroke:none"
         d="m 480,349.836 c -8.285,0 -15,6.715 -15,15 0,8.285 6.715,15 15,15 8.285,0 15,-6.715 15,-15 0,-8.285 -6.715,-15 -15,-15" /><path
         id="path78"
         style="fill:#c7a85f;fill-opacity:1;fill-rule:nonzero;stroke:none"
         d="m 440,349.836 c -8.285,0 -15,6.715 -15,15 0,8.285 6.715,15 15,15 8.285,0 15,-6.715 15,-15 0,-8.285 -6.715,-15 -15,-15" /><path
         id="path80"
         style="fill:#ffffff;fill-opacity:1;fill-rule:nonzero;stroke:none"
         d="M 398.855,270 H 241.145 C 232.23,270 225,263.285 225,255 c 0,-8.285 7.23,-15 16.145,-15 h 157.71 c 8.915,0 16.145,6.715 16.145,15 0,8.285 -7.23,15 -16.145,15" /><path
         id="path82"
         style="fill:#ffffff;fill-opacity:1;fill-rule:nonzero;stroke:none"
         d="m 200,270 c -8.285,0 -15,-6.715 -15,-15 0,-8.285 6.715,-15 15,-15 8.285,0 15,6.715 15,15 0,8.285 -6.715,15 -15,15" /><path
         id="path84"
         style="fill:#ffffff;fill-opacity:1;fill-rule:nonzero;stroke:none"
         d="m 160,270 c -8.285,0 -15,-6.715 -15,-15 0,-8.285 6.715,-15 15,-15 8.285,0 15,6.715 15,15 0,8.285 -6.715,15 -15,15" /><path
         id="path86"
         style="fill:#ffffff;fill-opacity:1;fill-rule:nonzero;stroke:none"
         d="m 480,270 c -8.285,0 -15,-6.715 -15,-15 0,-8.285 6.715,-15 15,-15 8.285,0 15,6.715 15,15 0,8.285 -6.715,15 -15,15" /><path
         id="path88"
         style="fill:#ffffff;fill-opacity:1;fill-rule:nonzero;stroke:none"
         d="m 440,270 c -8.285,0 -15,-6.715 -15,-15 0,-8.285 6.715,-15 15,-15 8.285,0 15,6.715 15,15 0,8.285 -6.715,15 -15,15" /><path
         id="path90"
         style="fill:#ffffff;fill-opacity:1;fill-rule:nonzero;stroke:none"
         d="m 200,311.504 h -40 c -8.285,0 -15,-6.715 -15,-15 0,-8.285 6.715,-15 15,-15 h 40 c 8.285,0 15,6.715 15,15 0,8.285 -6.715,15 -15,15" /><path
         id="path92"
         style="fill:#ffffff;fill-opacity:1;fill-rule:nonzero;stroke:none"
         d="m 480,311.504 h -40 c -8.285,0 -15,-6.715 -15,-15 0,-8.285 6.715,-15 15,-15 h 40 c 8.285,0 15,6.715 15,15 0,8.285 -6.715,15 -15,15" /><path
         id="path94"
         style="fill:#ffffff;fill-opacity:1;fill-rule:nonzero;stroke:none"
         d="m 200,350 c -8.285,0 -15,-6.715 -15,-15 0,-8.285 6.715,-15 15,-15 8.285,0 15,6.715 15,15 0,8.285 -6.715,15 -15,15" /><path
         id="path96"
         style="fill:#ffffff;fill-opacity:1;fill-rule:nonzero;stroke:none"
         d="m 160,320 c 8.285,0 15,6.715 15,15 0,8.285 -6.715,15 -15,15 -8.285,0 -15,-6.715 -15,-15 0,-8.285 6.715,-15 15,-15" /><path
         id="path98"
         style="fill:#ffffff;fill-opacity:1;fill-rule:nonzero;stroke:none"
         d="m 480,350 c -8.285,0 -15,-6.715 -15,-15 0,-8.285 6.715,-15 15,-15 8.285,0 15,6.715 15,15 0,8.285 -6.715,15 -15,15" /><path
         id="path100"
         style="fill:#ffffff;fill-opacity:1;fill-rule:nonzero;stroke:none"
         d="m 440,320 c 8.285,0 15,6.715 15,15 0,8.285 -6.715,15 -15,15 -8.285,0 -15,-6.715 -15,-15 0,-8.285 6.715,-15 15,-15" /><path
         id="path102"
         style="fill:#ffffff;fill-opacity:1;fill-rule:nonzero;stroke:none"
         d="m 200,389.836 c -8.285,0 -15,-6.715 -15,-15 0,-8.285 6.715,-15 15,-15 8.285,0 15,6.715 15,15 0,8.285 -6.715,15 -15,15" /><path
         id="path104"
         style="fill:#ffffff;fill-opacity:1;fill-rule:nonzero;stroke:none"
         d="m 160,359.836 c 8.285,0 15,6.715 15,15 0,8.285 -6.715,15 -15,15 -8.285,0 -15,-6.715 -15,-15 0,-8.285 6.715,-15 15,-15" /><path
         id="path106"
         style="fill:#ffffff;fill-opacity:1;fill-rule:nonzero;stroke:none"
         d="m 280,281.504 c 8.285,0 15,6.715 15,15 0,8.285 -6.715,15 -15,15 -8.285,0 -15,-6.715 -15,-15 0,-8.285 6.715,-15 15,-15" /><path
         id="path108"
         style="fill:#ffffff;fill-opacity:1;fill-rule:nonzero;stroke:none"
         d="m 240,281.504 c 8.285,0 15,6.715 15,15 0,8.285 -6.715,15 -15,15 -8.285,0 -15,-6.715 -15,-15 0,-8.285 6.715,-15 15,-15" /><path
         id="path110"
         style="fill:#ffffff;fill-opacity:1;fill-rule:nonzero;stroke:none"
         d="m 280,320 c 8.285,0 15,6.715 15,15 0,8.285 -6.715,15 -15,15 -8.285,0 -15,-6.715 -15,-15 0,-8.285 6.715,-15 15,-15" /><path
         id="path112"
         style="fill:#ffffff;fill-opacity:1;fill-rule:nonzero;stroke:none"
         d="m 240,320 c 8.285,0 15,6.715 15,15 0,8.285 -6.715,15 -15,15 -8.285,0 -15,-6.715 -15,-15 0,-8.285 6.715,-15 15,-15" /><path
         id="path114"
         style="fill:#ffffff;fill-opacity:1;fill-rule:nonzero;stroke:none"
         d="m 280,359.836 c 8.285,0 15,6.715 15,15 0,8.285 -6.715,15 -15,15 -8.285,0 -15,-6.715 -15,-15 0,-8.285 6.715,-15 15,-15" /><path
         id="path116"
         style="fill:#ffffff;fill-opacity:1;fill-rule:nonzero;stroke:none"
         d="m 240,359.836 c 8.285,0 15,6.715 15,15 0,8.285 -6.715,15 -15,15 -8.285,0 -15,-6.715 -15,-15 0,-8.285 6.715,-15 15,-15" /><path
         id="path118"
         style="fill:#ffffff;fill-opacity:1;fill-rule:nonzero;stroke:none"
         d="m 360,281.504 c 8.285,0 15,6.715 15,15 0,8.285 -6.715,15 -15,15 -8.285,0 -15,-6.715 -15,-15 0,-8.285 6.715,-15 15,-15" /><path
         id="path120"
         style="fill:#ffffff;fill-opacity:1;fill-rule:nonzero;stroke:none"
         d="m 320,281.504 c 8.285,0 15,6.715 15,15 0,8.285 -6.715,15 -15,15 -8.285,0 -15,-6.715 -15,-15 0,-8.285 6.715,-15 15,-15" /><path
         id="path122"
         style="fill:#ffffff;fill-opacity:1;fill-rule:nonzero;stroke:none"
         d="m 360,320 c 8.285,0 15,6.715 15,15 0,8.285 -6.715,15 -15,15 -8.285,0 -15,-6.715 -15,-15 0,-8.285 6.715,-15 15,-15" /><path
         id="path124"
         style="fill:#ffffff;fill-opacity:1;fill-rule:nonzero;stroke:none"
         d="m 320,320 c 8.285,0 15,6.715 15,15 0,8.285 -6.715,15 -15,15 -8.285,0 -15,-6.715 -15,-15 0,-8.285 6.715,-15 15,-15" /><path
         id="path126"
         style="fill:#ffffff;fill-opacity:1;fill-rule:nonzero;stroke:none"
         d="m 360,359.836 c 8.285,0 15,6.715 15,15 0,8.285 -6.715,15 -15,15 -8.285,0 -15,-6.715 -15,-15 0,-8.285 6.715,-15 15,-15" /><path
         id="path128"
         style="fill:#ffffff;fill-opacity:1;fill-rule:nonzero;stroke:none"
         d="m 400,311.504 c -8.285,0 -15,-6.715 -15,-15 0,-8.285 6.715,-15 15,-15 8.285,0 15,6.715 15,15 0,8.285 -6.715,15 -15,15" /><path
         id="path130"
         style="fill:#ffffff;fill-opacity:1;fill-rule:nonzero;stroke:none"
         d="m 400,350 c -8.285,0 -15,-6.715 -15,-15 0,-8.285 6.715,-15 15,-15 8.285,0 15,6.715 15,15 0,8.285 -6.715,15 -15,15" /><path
         id="path132"
         style="fill:#ffffff;fill-opacity:1;fill-rule:nonzero;stroke:none"
         d="m 400,389.836 c -8.285,0 -15,-6.715 -15,-15 0,-8.285 6.715,-15 15,-15 8.285,0 15,6.715 15,15 0,8.285 -6.715,15 -15,15" /><path
         id="path134"
         style="fill:#ffffff;fill-opacity:1;fill-rule:nonzero;stroke:none"
         d="m 320,359.836 c 8.285,0 15,6.715 15,15 0,8.285 -6.715,15 -15,15 -8.285,0 -15,-6.715 -15,-15 0,-8.285 6.715,-15 15,-15" /><path
         id="path136"
         style="fill:#ffffff;fill-opacity:1;fill-rule:nonzero;stroke:none"
         d="m 480,359.836 c 8.285,0 15,6.715 15,15 0,8.285 -6.715,15 -15,15 -8.285,0 -15,-6.715 -15,-15 0,-8.285 6.715,-15 15,-15" /><path
         id="path138"
         style="fill:#ffffff;fill-opacity:1;fill-rule:nonzero;stroke:none"
         d="m 440,359.836 c 8.285,0 15,6.715 15,15 0,8.285 -6.715,15 -15,15 -8.285,0 -15,-6.715 -15,-15 0,-8.285 6.715,-15 15,-15" /></g></g></svg>