<?xml version="1.0" encoding="UTF-8" standalone="no"?>
<svg
   xmlns:dc="http://purl.org/dc/elements/1.1/"
   xmlns:cc="http://creativecommons.org/ns#"
   xmlns:rdf="http://www.w3.org/1999/02/22-rdf-syntax-ns#"
   xmlns:svg="http://www.w3.org/2000/svg"
   xmlns="http://www.w3.org/2000/svg"
   viewBox="0 0 85.333336 85.333336"
   height="85.333336"
   width="85.333336"
   xml:space="preserve"
   id="svg2"
   version="1.1"><metadata
     id="metadata8"><rdf:RDF><cc:Work
         rdf:about=""><dc:format>image/svg+xml</dc:format><dc:type
           rdf:resource="http://purl.org/dc/dcmitype/StillImage" /></cc:Work></rdf:RDF></metadata><defs
     id="defs6" /><g
     transform="matrix(1.3333333,0,0,-1.3333333,0,85.333333)"
     id="g10"><g
       transform="scale(0.1)"
       id="g12"><path
         id="path14"
         style="fill:#e1e3cc;fill-opacity:1;fill-rule:nonzero;stroke:none"
         d="M 640,320 C 640,143.27 496.73,0 320,0 143.27,0 0,143.27 0,320 0,496.73 143.27,640 320,640 496.73,640 640,496.73 640,320" /><path
         id="path16"
         style="fill:#77caa9;fill-opacity:1;fill-rule:nonzero;stroke:none"
         d="m 474,320 c 0,-85.051 -68.949,-154 -154,-154 -85.051,0 -154,68.949 -154,154 0,85.051 68.949,154 154,154 85.051,0 154,-68.949 154,-154" /><path
         id="path18"
         style="fill:#495672;fill-opacity:1;fill-rule:nonzero;stroke:none"
         d="m 405,320 c 0,-46.945 -38.055,-85 -85,-85 -46.945,0 -85,38.055 -85,85 0,46.945 38.055,85 85,85 46.945,0 85,-38.055 85,-85" /><path
         id="path20"
         style="fill:#ffffff;fill-opacity:1;fill-rule:nonzero;stroke:none"
         d="m 380,380 c 0,-11.047 -8.953,-20 -20,-20 -11.047,0 -20,8.953 -20,20 0,11.047 8.953,20 20,20 11.047,0 20,-8.953 20,-20" /><path
         id="path22"
         style="fill:#495672;fill-opacity:1;fill-rule:nonzero;stroke:none"
         d="m 320,480 c -88.367,0 -160,-71.633 -160,-160 0,-88.367 71.633,-160 160,-160 88.367,0 160,71.633 160,160 0,88.367 -71.633,160 -160,160 m 0,-30 c 71.684,0 130,-58.316 130,-130 0,-71.684 -58.316,-130 -130,-130 -71.684,0 -130,58.316 -130,130 0,71.684 58.316,130 130,130" /><path
         id="path24"
         style="fill:#495672;fill-opacity:1;fill-rule:nonzero;stroke:none"
         d="m 320,510 c -104.934,0 -190,-85.066 -190,-190 0,-104.934 85.066,-190 190,-190 104.934,0 190,85.066 190,190 0,104.934 -85.066,190 -190,190 m 0,-30 c 88.223,0 160,-71.777 160,-160 0,-88.223 -71.777,-160 -160,-160 -88.223,0 -160,71.777 -160,160 0,88.223 71.777,160 160,160" /><path
         id="path26"
         style="fill:#b7b7a7;fill-opacity:1;fill-rule:nonzero;stroke:none"
         d="m 146.34,435.078 c 38.058,55.078 101.644,91.168 173.66,91.168 72.016,0 135.602,-36.086 173.66,-91.168 C 453.402,486.762 390.586,520 320,520 249.414,520 186.598,486.762 146.34,435.078" /><path
         id="path28"
         style="fill:#b7b7a7;fill-opacity:1;fill-rule:nonzero;stroke:none"
         d="m 320,80 c -121.504,0 -220,98.496 -220,220 0,50.918 17.301,97.797 46.34,135.078 -23.512,-34.019 -37.277,-75.289 -37.277,-119.769 0,-116.5 94.441,-210.942 210.937,-210.942 116.496,0 210.938,94.442 210.938,210.942 0,44.48 -13.77,85.75 -37.278,119.769 C 522.699,397.801 540,350.918 540,300 540,178.496 441.504,80 320,80" /><path
         id="path30"
         style="fill:#62a48d;fill-opacity:1;fill-rule:nonzero;stroke:none"
         d="m 320,192.945 c -66.613,0 -120.805,54.196 -120.805,120.805 0,25.93 8.211,49.977 22.168,69.676 2.297,-17.223 7.442,-33.543 14.946,-48.477 C 235.449,330.098 235,325.102 235,320 c 0,-46.945 38.055,-85 85,-85 17.973,0 34.648,5.578 48.379,15.102 1.867,-0.067 3.738,-0.102 5.621,-0.102 19.043,0 37.258,3.465 54.074,9.797 C 408.223,220.195 367.23,192.945 320,192.945" /><path
         id="path32"
         style="fill:#404a5f;fill-opacity:1;fill-rule:nonzero;stroke:none"
         d="m 320,235 c -46.945,0 -85,38.055 -85,85 0,5.102 0.449,10.098 1.309,14.949 24.527,-48.801 74.238,-82.769 132.07,-84.847 C 354.648,240.578 337.973,235 320,235" /><path
         id="path34"
         style="fill:#77ae99;fill-opacity:1;fill-rule:nonzero;stroke:none"
         d="m 374,250 c -1.883,0 -3.754,0.035 -5.621,0.102 C 390.508,265.445 405,291.031 405,320 c 0,23.527 -9.555,44.82 -25,60.211 -0.113,10.949 -9.023,19.789 -20,19.789 -2.645,0 -5.168,-0.512 -7.477,-1.445 C 342.504,402.711 331.52,405 320,405 c -41.844,0 -76.625,-30.234 -83.691,-70.051 -7.504,14.934 -12.649,31.254 -14.946,48.477 21.903,30.914 57.953,51.129 98.637,51.129 66.613,0 120.805,-54.192 120.805,-120.805 0,-19.379 -4.586,-37.703 -12.731,-53.953 C 411.258,253.465 393.043,250 374,250" /><path
         id="path36"
         style="fill:#5b6478;fill-opacity:1;fill-rule:nonzero;stroke:none"
         d="M 368.379,250.102 C 310.547,252.18 260.836,286.148 236.309,334.949 243.375,374.766 278.156,405 320,405 c 11.52,0 22.504,-2.289 32.523,-6.445 C 345.18,395.594 340,388.402 340,380 c 0,-11.047 8.953,-20 20,-20 11.047,0 20,8.953 20,20 0,0.07 0,0.141 0,0.211 15.445,-15.391 25,-36.684 25,-60.211 0,-28.969 -14.492,-54.555 -36.621,-69.898" /><path
         id="path38"
         style="fill:#d4d3d1;fill-opacity:1;fill-rule:nonzero;stroke:none"
         d="m 360,360 c -11.047,0 -20,8.953 -20,20 0,8.402 5.18,15.594 12.523,18.555 2.309,0.933 4.832,1.445 7.477,1.445 10.977,0 19.887,-8.84 20,-19.789 0,-0.07 0,-0.141 0,-0.211 0,-11.047 -8.953,-20 -20,-20" /><path
         id="path40"
         style="fill:#538777;fill-opacity:1;fill-rule:nonzero;stroke:none"
         d="m 320,190 c -71.684,0 -130,58.316 -130,130 0,31.52 11.273,60.453 30.004,82.984 0.043,-6.629 0.504,-13.152 1.359,-19.558 -13.957,-19.699 -22.168,-43.746 -22.168,-69.676 0,-66.609 54.192,-120.805 120.805,-120.805 47.23,0 88.223,27.25 108.074,66.852 3.047,1.144 6.055,2.391 9.004,3.723 C 416.023,220.047 371.457,190 320,190" /><path
         id="path42"
         style="fill:#648f83;fill-opacity:1;fill-rule:nonzero;stroke:none"
         d="m 428.074,259.797 c 8.145,16.25 12.731,34.574 12.731,53.953 0,66.613 -54.192,120.805 -120.805,120.805 -40.684,0 -76.734,-20.215 -98.637,-51.129 -0.855,6.406 -1.316,12.929 -1.359,19.558 C 243.867,431.691 279.836,450 320,450 c 71.684,0 130,-58.316 130,-130 0,-20.227 -4.645,-39.395 -12.922,-56.48 -2.949,-1.332 -5.957,-2.579 -9.004,-3.723" /><path
         id="path44"
         style="fill:#404a5f;fill-opacity:1;fill-rule:nonzero;stroke:none"
         d="m 320,165.324 c -82.871,0 -150.293,67.422 -150.293,150.293 0,82.875 67.422,150.297 150.293,150.297 82.871,0 150.293,-67.422 150.293,-150.297 0,-82.871 -67.422,-150.293 -150.293,-150.293 m -99.996,237.66 C 201.273,380.453 190,351.52 190,320 c 0,-71.684 58.316,-130 130,-130 51.457,0 96.023,30.047 117.078,73.52 8.277,17.085 12.922,36.253 12.922,56.48 0,71.684 -58.316,130 -130,130 -40.164,0 -76.133,-18.309 -99.996,-47.016" /><path
         id="path46"
         style="fill:#394051;fill-opacity:1;fill-rule:nonzero;stroke:none"
         d="m 320,160 v 0 c -88.223,0 -160,71.777 -160,160 v 0 c 0,88.223 71.777,160 160,160 88.223,0 160,-71.777 160,-160 v 0 C 480,231.777 408.223,160 320,160 v 0 m 0,305.914 c -82.871,0 -150.293,-67.422 -150.293,-150.297 0,-82.871 67.422,-150.293 150.293,-150.293 82.871,0 150.293,67.422 150.293,150.293 0,82.875 -67.422,150.297 -150.293,150.297" /><path
         id="path48"
         style="fill:#404a5f;fill-opacity:1;fill-rule:nonzero;stroke:none"
         d="m 320,136.008 c -98.863,0 -179.297,80.433 -179.297,179.301 0,98.863 80.434,179.296 179.297,179.296 98.863,0 179.297,-80.433 179.297,-179.296 0,-98.868 -80.434,-179.301 -179.297,-179.301 M 320,160 v 0 0 c 88.223,0 160,71.777 160,160 v 0 0 c 0,88.223 -71.777,160 -160,160 -88.223,0 -160,-71.777 -160,-160 v 0 0 c 0,-88.223 71.777,-160 160,-160" /><path
         id="path50"
         style="fill:#97978c;fill-opacity:1;fill-rule:nonzero;stroke:none"
         d="m 320,104.367 c -116.496,0 -210.937,94.442 -210.937,210.942 0,44.48 13.765,85.75 37.277,119.769 C 186.598,486.762 249.414,520 320,520 c 70.586,0 133.402,-33.238 173.66,-84.922 23.508,-34.019 37.278,-75.289 37.278,-119.769 0,-116.5 -94.442,-210.942 -210.938,-210.942 M 320,510 c -104.934,0 -190,-85.066 -190,-190 0,-104.934 85.066,-190 190,-190 104.934,0 190,85.066 190,190 0,104.934 -85.066,190 -190,190" /><path
         id="path52"
         style="fill:#394051;fill-opacity:1;fill-rule:nonzero;stroke:none"
         d="m 320,130 c -104.934,0 -190,85.066 -190,190 0,104.934 85.066,190 190,190 104.934,0 190,-85.066 190,-190 0,-104.934 -85.066,-190 -190,-190 m 0,364.605 c -98.863,0 -179.297,-80.433 -179.297,-179.296 0,-98.868 80.434,-179.301 179.297,-179.301 98.863,0 179.297,80.433 179.297,179.301 0,98.863 -80.434,179.296 -179.297,179.296" /><path
         id="path54"
         style="fill:#495672;fill-opacity:1;fill-rule:nonzero;stroke:none"
         d="m 320,540 c -121.504,0 -220,-98.496 -220,-220 0,-121.504 98.496,-220 220,-220 121.504,0 220,98.496 220,220 0,121.504 -98.496,220 -220,220 z m 0,-30 c 104.766,0 190,-85.234 190,-190 0,-104.766 -85.234,-190 -190,-190 -104.766,0 -190,85.234 -190,190 0,104.766 85.234,190 190,190" /></g></g></svg>