<?xml version="1.0" encoding="UTF-8" standalone="no"?>
<svg
   xmlns:dc="http://purl.org/dc/elements/1.1/"
   xmlns:cc="http://creativecommons.org/ns#"
   xmlns:rdf="http://www.w3.org/1999/02/22-rdf-syntax-ns#"
   xmlns:svg="http://www.w3.org/2000/svg"
   xmlns="http://www.w3.org/2000/svg"
   viewBox="0 0 85.333336 85.333336"
   height="85.333336"
   width="85.333336"
   xml:space="preserve"
   id="svg2"
   version="1.1"><metadata
     id="metadata8"><rdf:RDF><cc:Work
         rdf:about=""><dc:format>image/svg+xml</dc:format><dc:type
           rdf:resource="http://purl.org/dc/dcmitype/StillImage" /></cc:Work></rdf:RDF></metadata><defs
     id="defs6" /><g
     transform="matrix(1.3333333,0,0,-1.3333333,0,85.333333)"
     id="g10"><g
       transform="scale(0.1)"
       id="g12"><path
         id="path14"
         style="fill:#e08e4c;fill-opacity:1;fill-rule:nonzero;stroke:none"
         d="M 640,320 C 640,143.27 496.73,0 320,0 143.27,0 0,143.27 0,320 0,496.73 143.27,640 320,640 496.73,640 640,496.73 640,320" /><path
         id="path16"
         style="fill:#b77744;fill-opacity:1;fill-rule:nonzero;stroke:none"
         d="m 320,408.336 c -8.285,0 -15,6.715 -15,15 V 505 c 0,8.285 6.715,15 15,15 8.285,0 15,-6.715 15,-15 v -81.664 c 0,-8.285 -6.715,-15 -15,-15" /><path
         id="path18"
         style="fill:#b77744;fill-opacity:1;fill-rule:nonzero;stroke:none"
         d="m 200,290 h -80 c -8.285,0 -15,6.715 -15,15 0,8.285 6.715,15 15,15 h 80 c 8.285,0 15,-6.715 15,-15 0,-8.285 -6.715,-15 -15,-15" /><path
         id="path20"
         style="fill:#b77744;fill-opacity:1;fill-rule:nonzero;stroke:none"
         d="m 320,90 c -8.285,0 -15,6.7148 -15,15 v 80 c 0,8.285 6.715,15 15,15 8.285,0 15,-6.715 15,-15 v -80 c 0,-8.2852 -6.715,-15 -15,-15" /><path
         id="path22"
         style="fill:#b77744;fill-opacity:1;fill-rule:nonzero;stroke:none"
         d="m 420.016,116.793 c -5.188,0 -10.227,2.687 -13.004,7.504 l -40,69.281 c -4.145,7.176 -1.684,16.348 5.488,20.492 2.363,1.36 4.941,2.004 7.484,2.004 5.192,0 10.235,-2.687 13.004,-7.496 l 40,-69.281 c 4.145,-7.172 1.684,-16.348 -5.488,-20.488 -2.363,-1.368 -4.941,-2.016 -7.484,-2.016" /><path
         id="path24"
         style="fill:#b77744;fill-opacity:1;fill-rule:nonzero;stroke:none"
         d="m 260.852,392.477 c -5.188,0 -10.227,2.691 -13.004,7.503 l -40.836,70.723 c -4.145,7.172 -1.684,16.348 5.488,20.488 2.367,1.368 4.949,2.016 7.492,2.016 5.184,0 10.219,-2.691 12.996,-7.504 l 40.836,-70.723 c 4.145,-7.171 1.684,-16.347 -5.488,-20.488 -2.363,-1.367 -4.941,-2.015 -7.484,-2.015" /><path
         id="path26"
         style="fill:#b77744;fill-opacity:1;fill-rule:nonzero;stroke:none"
         d="m 422.496,349.16 c -5.187,0 -10.226,2.692 -13.004,7.504 -4.144,7.176 -1.683,16.348 5.488,20.488 l 70.723,40.836 c 2.367,1.367 4.949,2.016 7.492,2.016 5.184,0 10.219,-2.691 12.996,-7.504 4.145,-7.172 1.684,-16.348 -5.488,-20.488 L 429.98,351.176 c -2.363,-1.367 -4.941,-2.016 -7.484,-2.016" /><path
         id="path28"
         style="fill:#b77744;fill-opacity:1;fill-rule:nonzero;stroke:none"
         d="m 520,290 h -81.664 c -8.285,0 -15,6.715 -15,15 0,8.285 6.715,15 15,15 H 520 c 8.285,0 15,-6.715 15,-15 0,-8.285 -6.715,-15 -15,-15" /><path
         id="path30"
         style="fill:#b77744;fill-opacity:1;fill-rule:nonzero;stroke:none"
         d="m 493.188,189.996 c -2.543,0 -5.122,0.649 -7.485,2.016 l -69.281,40 c -7.176,4.14 -9.637,13.316 -5.492,20.488 2.781,4.809 7.824,7.496 13.008,7.496 2.542,0 5.121,-0.644 7.484,-2.008 l 69.281,-40 c 7.172,-4.14 9.633,-13.316 5.488,-20.488 -2.777,-4.812 -7.816,-7.504 -13.003,-7.504" /><path
         id="path32"
         style="fill:#b77744;fill-opacity:1;fill-rule:nonzero;stroke:none"
         d="m 217.504,349.16 c -2.543,0 -5.121,0.649 -7.484,2.016 l -70.723,40.836 c -7.172,4.14 -9.633,13.316 -5.488,20.488 2.777,4.813 7.816,7.504 13,7.504 2.543,0 5.125,-0.649 7.488,-2.016 l 70.723,-40.836 c 7.171,-4.14 9.632,-13.312 5.488,-20.488 -2.778,-4.812 -7.817,-7.504 -13.004,-7.504" /><path
         id="path34"
         style="fill:#b77744;fill-opacity:1;fill-rule:nonzero;stroke:none"
         d="m 146.813,189.996 c -5.188,0 -10.227,2.692 -13.004,7.504 -4.145,7.172 -1.684,16.348 5.488,20.488 l 69.281,40 c 2.367,1.364 4.945,2.008 7.488,2.008 5.188,0 10.227,-2.691 13.004,-7.496 4.145,-7.172 1.684,-16.348 -5.492,-20.488 l -69.281,-40 c -2.363,-1.367 -4.942,-2.016 -7.484,-2.016" /><path
         id="path36"
         style="fill:#b77744;fill-opacity:1;fill-rule:nonzero;stroke:none"
         d="m 219.984,116.793 c -2.543,0 -5.121,0.648 -7.484,2.016 -7.172,4.14 -9.633,13.316 -5.488,20.488 l 40,69.281 c 2.773,4.809 7.816,7.496 13.008,7.496 2.543,0 5.117,-0.644 7.48,-2.004 7.172,-4.144 9.633,-13.316 5.488,-20.492 l -40,-69.281 c -2.777,-4.817 -7.816,-7.504 -13.004,-7.504" /><path
         id="path38"
         style="fill:#b77744;fill-opacity:1;fill-rule:nonzero;stroke:none"
         d="m 379.148,392.477 c -2.543,0 -5.121,0.648 -7.484,2.015 -7.172,4.141 -9.633,13.317 -5.488,20.488 l 40.836,70.723 c 2.785,4.813 7.816,7.504 13,7.504 2.543,0 5.125,-0.648 7.488,-2.016 7.172,-4.14 9.633,-13.316 5.488,-20.488 L 392.152,399.98 c -2.777,-4.808 -7.816,-7.503 -13.004,-7.503" /><path
         id="path40"
         style="fill:#ffffff;fill-opacity:1;fill-rule:nonzero;stroke:none"
         d="m 320,540 c -8.285,0 -15,-6.715 -15,-15 v -81.664 c 0,-8.285 6.715,-15 15,-15 8.285,0 15,6.715 15,15 V 525 c 0,8.285 -6.715,15 -15,15" /><path
         id="path42"
         style="fill:#ffffff;fill-opacity:1;fill-rule:nonzero;stroke:none"
         d="m 215,325 c 0,8.285 -6.715,15 -15,15 h -80 c -8.285,0 -15,-6.715 -15,-15 0,-8.285 6.715,-15 15,-15 h 80 c 8.285,0 15,6.715 15,15" /><path
         id="path44"
         style="fill:#ffffff;fill-opacity:1;fill-rule:nonzero;stroke:none"
         d="m 320,220 c -8.285,0 -15,-6.715 -15,-15 v -80 c 0,-8.285 6.715,-15 15,-15 8.285,0 15,6.715 15,15 v 80 c 0,8.285 -6.715,15 -15,15" /><path
         id="path46"
         style="fill:#ffffff;fill-opacity:1;fill-rule:nonzero;stroke:none"
         d="m 392.988,228.578 c -4.125,7.164 -13.3,9.625 -20.488,5.492 -7.172,-4.144 -9.633,-13.316 -5.488,-20.492 l 40,-69.281 c 2.777,-4.817 7.816,-7.504 13.004,-7.504 2.543,0 5.121,0.648 7.484,2.016 7.172,4.14 9.633,13.316 5.488,20.488 l -40,69.281" /><path
         id="path48"
         style="fill:#ffffff;fill-opacity:1;fill-rule:nonzero;stroke:none"
         d="m 232.988,505.703 c -4.14,7.18 -13.304,9.633 -20.488,5.488 -7.172,-4.14 -9.633,-13.316 -5.488,-20.488 l 40.836,-70.723 c 2.777,-4.812 7.816,-7.503 13.004,-7.503 2.543,0 5.121,0.648 7.484,2.015 7.172,4.141 9.633,13.317 5.488,20.488 l -40.836,70.723" /><path
         id="path50"
         style="fill:#ffffff;fill-opacity:1;fill-rule:nonzero;stroke:none"
         d="m 409.492,376.664 c 2.778,-4.812 7.817,-7.504 13.004,-7.504 2.543,0 5.121,0.649 7.484,2.016 l 70.723,40.836 c 7.172,4.14 9.633,13.316 5.488,20.488 -4.14,7.18 -13.304,9.633 -20.488,5.488 L 414.98,397.152 c -7.171,-4.14 -9.632,-13.312 -5.488,-20.488" /><path
         id="path52"
         style="fill:#ffffff;fill-opacity:1;fill-rule:nonzero;stroke:none"
         d="m 520,340 h -81.664 c -8.285,0 -15,-6.715 -15,-15 0,-8.285 6.715,-15 15,-15 H 520 c 8.285,0 15,6.715 15,15 0,8.285 -6.715,15 -15,15" /><path
         id="path54"
         style="fill:#ffffff;fill-opacity:1;fill-rule:nonzero;stroke:none"
         d="m 500.703,237.988 -69.281,40 c -7.18,4.141 -16.344,1.676 -20.492,-5.488 -4.145,-7.172 -1.684,-16.348 5.492,-20.488 l 69.281,-40 c 2.363,-1.367 4.942,-2.016 7.485,-2.016 5.187,0 10.226,2.692 13.003,7.504 4.145,7.172 1.684,16.348 -5.488,20.488" /><path
         id="path56"
         style="fill:#ffffff;fill-opacity:1;fill-rule:nonzero;stroke:none"
         d="m 139.297,412.012 70.723,-40.836 c 2.363,-1.367 4.941,-2.016 7.484,-2.016 5.187,0 10.226,2.692 13.004,7.504 4.144,7.176 1.683,16.348 -5.488,20.488 l -70.723,40.836 c -7.172,4.145 -16.348,1.692 -20.488,-5.488 -4.145,-7.172 -1.684,-16.348 5.488,-20.488" /><path
         id="path58"
         style="fill:#ffffff;fill-opacity:1;fill-rule:nonzero;stroke:none"
         d="m 229.07,272.5 c -4.136,7.164 -13.304,9.629 -20.492,5.488 l -69.281,-40 c -7.172,-4.14 -9.633,-13.316 -5.488,-20.488 2.777,-4.812 7.816,-7.504 13.004,-7.504 2.542,0 5.121,0.649 7.484,2.016 l 69.281,40 c 7.176,4.14 9.637,13.316 5.492,20.488" /><path
         id="path60"
         style="fill:#ffffff;fill-opacity:1;fill-rule:nonzero;stroke:none"
         d="m 267.5,234.07 c -7.184,4.133 -16.352,1.672 -20.488,-5.492 l -40,-69.281 c -4.145,-7.172 -1.684,-16.348 5.488,-20.488 2.363,-1.368 4.941,-2.016 7.484,-2.016 5.188,0 10.227,2.687 13.004,7.504 l 40,69.281 c 4.145,7.176 1.684,16.348 -5.488,20.492" /><path
         id="path62"
         style="fill:#ffffff;fill-opacity:1;fill-rule:nonzero;stroke:none"
         d="m 371.664,414.492 c 2.363,-1.367 4.941,-2.015 7.484,-2.015 5.188,0 10.227,2.695 13.004,7.503 l 40.836,70.723 c 4.145,7.172 1.684,16.348 -5.488,20.488 -7.18,4.145 -16.34,1.692 -20.488,-5.488 L 366.176,434.98 c -4.145,-7.171 -1.684,-16.347 5.488,-20.488" /></g></g></svg>