<?xml version="1.0" encoding="UTF-8" standalone="no"?>
<svg
   xmlns:dc="http://purl.org/dc/elements/1.1/"
   xmlns:cc="http://creativecommons.org/ns#"
   xmlns:rdf="http://www.w3.org/1999/02/22-rdf-syntax-ns#"
   xmlns:svg="http://www.w3.org/2000/svg"
   xmlns="http://www.w3.org/2000/svg"
   viewBox="0 0 85.333336 85.333336"
   height="85.333336"
   width="85.333336"
   xml:space="preserve"
   id="svg2"
   version="1.1"><metadata
     id="metadata8"><rdf:RDF><cc:Work
         rdf:about=""><dc:format>image/svg+xml</dc:format><dc:type
           rdf:resource="http://purl.org/dc/dcmitype/StillImage" /></cc:Work></rdf:RDF></metadata><defs
     id="defs6" /><g
     transform="matrix(1.3333333,0,0,-1.3333333,0,85.333333)"
     id="g10"><g
       transform="scale(0.1)"
       id="g12"><path
         id="path14"
         style="fill:#c84755;fill-opacity:1;fill-rule:nonzero;stroke:none"
         d="M 640,320 C 640,143.27 496.73,0 320,0 143.27,0 0,143.27 0,320 0,496.73 143.27,640 320,640 496.73,640 640,496.73 640,320" /><path
         id="path16"
         style="fill:#a43f4a;fill-opacity:1;fill-rule:nonzero;stroke:none"
         d="m 168.285,110 c -5.121,0 -10.238,1.953 -14.144,5.859 l -28.282,28.282 c -7.812,7.812 -7.812,20.476 0,28.285 L 337.988,384.559 394.559,327.988 182.426,115.859 C 178.52,111.953 173.402,110 168.285,110" /><path
         id="path18"
         style="fill:#a43f4a;fill-opacity:1;fill-rule:nonzero;stroke:none"
         d="m 408.699,342.133 -56.566,56.566 70.711,70.711 c 3.902,3.906 9.023,5.86 14.14,5.86 5.118,0 10.239,-1.954 14.145,-5.86 l 28.281,-28.281 c 7.813,-7.813 7.813,-20.477 0,-28.285 l -70.711,-70.711" /><path
         id="path20"
         style="fill:#a43f4a;fill-opacity:1;fill-rule:nonzero;stroke:none"
         d="m 205,324.371 c -8.285,0 -15,6.715 -15,15 V 370 h 30 v -30.629 c 0,-8.285 -6.715,-15 -15,-15 M 220,400 h -30 v 19.371 c 0,8.285 6.715,15 15,15 8.285,0 15,-6.715 15,-15 V 400" /><path
         id="path22"
         style="fill:#a43f4a;fill-opacity:1;fill-rule:nonzero;stroke:none"
         d="M 230.633,370 H 220 v 30 h 10.633 c 8.285,0 15,-6.715 15,-15 0,-8.285 -6.715,-15 -15,-15 M 190,370 h -10.633 c -8.285,0 -15,6.715 -15,15 0,8.285 6.715,15 15,15 H 190 v -30" /><path
         id="path24"
         style="fill:#883840;fill-opacity:1;fill-rule:nonzero;stroke:none"
         d="m 190,370 h 30 v 30 h -30 z" /><path
         id="path26"
         style="fill:#a43f4a;fill-opacity:1;fill-rule:nonzero;stroke:none"
         d="m 335,420 c -8.285,0 -15,6.715 -15,15 v 30.629 h 30 V 435 c 0,-8.285 -6.715,-15 -15,-15 m 15,75.629 H 320 V 515 c 0,8.285 6.715,15 15,15 8.285,0 15,-6.715 15,-15 v -19.371" /><path
         id="path28"
         style="fill:#a43f4a;fill-opacity:1;fill-rule:nonzero;stroke:none"
         d="M 360.633,465.629 H 350 v 30 h 10.633 c 8.285,0 15,-6.711 15,-15 0,-8.285 -6.715,-15 -15,-15 m -40.633,0 h -10.633 c -8.285,0 -15,6.715 -15,15 0,8.289 6.715,15 15,15 H 320 v -30" /><path
         id="path30"
         style="fill:#883840;fill-opacity:1;fill-rule:nonzero;stroke:none"
         d="m 320,465.629 h 30 v 30 h -30 z" /><path
         id="path32"
         style="fill:#a43f4a;fill-opacity:1;fill-rule:nonzero;stroke:none"
         d="m 495,224.367 c -8.285,0 -15,6.715 -15,15 v 30.629 h 30 v -30.629 c 0,-8.285 -6.715,-15 -15,-15 m 15,75.629 h -30 v 19.371 c 0,8.285 6.715,15 15,15 8.285,0 15,-6.715 15,-15 v -19.371" /><path
         id="path34"
         style="fill:#a43f4a;fill-opacity:1;fill-rule:nonzero;stroke:none"
         d="M 520.633,269.996 H 510 v 30 h 10.633 c 8.285,0 15,-6.715 15,-15 0,-8.285 -6.715,-15 -15,-15 m -40.633,0 h -10.633 c -8.285,0 -15,6.715 -15,15 0,8.285 6.715,15 15,15 H 480 v -30" /><path
         id="path36"
         style="fill:#883840;fill-opacity:1;fill-rule:nonzero;stroke:none"
         d="m 480,269.996 h 30 v 30 h -30 z" /><path
         id="path38"
         style="fill:#495672;fill-opacity:1;fill-rule:nonzero;stroke:none"
         d="M 337.988,404.559 125.859,192.426 c -7.812,-7.809 -7.812,-20.473 0,-28.285 l 28.282,-28.282 c 7.812,-7.812 20.476,-7.812 28.285,0 l 212.133,212.129 -56.571,56.571" /><path
         id="path40"
         style="fill:#ffffff;fill-opacity:1;fill-rule:nonzero;stroke:none"
         d="m 479.41,432.844 c 7.813,7.808 7.813,20.472 0,28.285 l -28.281,28.281 c -7.813,7.813 -20.477,7.813 -28.285,0 l -70.711,-70.711 56.566,-56.566 70.711,70.711" /><path
         id="path42"
         style="fill:#f3cc70;fill-opacity:1;fill-rule:nonzero;stroke:none"
         d="m 205,344.371 c -8.285,0 -15,6.715 -15,15 v 80 c 0,8.285 6.715,15 15,15 8.285,0 15,-6.715 15,-15 v -80 c 0,-8.285 -6.715,-15 -15,-15" /><path
         id="path44"
         style="fill:#f3cc70;fill-opacity:1;fill-rule:nonzero;stroke:none"
         d="m 230.633,390 h -51.266 c -8.285,0 -15,6.715 -15,15 0,8.285 6.715,15 15,15 h 51.266 c 8.285,0 15,-6.715 15,-15 0,-8.285 -6.715,-15 -15,-15" /><path
         id="path46"
         style="fill:#f3cc70;fill-opacity:1;fill-rule:nonzero;stroke:none"
         d="m 335,440 c -8.285,0 -15,6.715 -15,15 v 80 c 0,8.285 6.715,15 15,15 8.285,0 15,-6.715 15,-15 v -80 c 0,-8.285 -6.715,-15 -15,-15" /><path
         id="path48"
         style="fill:#f3cc70;fill-opacity:1;fill-rule:nonzero;stroke:none"
         d="m 360.633,485.629 h -51.266 c -8.285,0 -15,6.715 -15,15 0,8.289 6.715,15 15,15 h 51.266 c 8.285,0 15,-6.711 15,-15 0,-8.285 -6.715,-15 -15,-15" /><path
         id="path50"
         style="fill:#f3cc70;fill-opacity:1;fill-rule:nonzero;stroke:none"
         d="m 495,244.367 c -8.285,0 -15,6.715 -15,15 v 80 c 0,8.285 6.715,15 15,15 8.285,0 15,-6.715 15,-15 v -80 c 0,-8.285 -6.715,-15 -15,-15" /><path
         id="path52"
         style="fill:#f3cc70;fill-opacity:1;fill-rule:nonzero;stroke:none"
         d="m 520.633,289.996 h -51.266 c -8.285,0 -15,6.715 -15,15 0,8.285 6.715,15 15,15 h 51.266 c 8.285,0 15,-6.715 15,-15 0,-8.285 -6.715,-15 -15,-15" /></g></g></svg>