<?xml version="1.0" encoding="UTF-8" standalone="no"?>
<svg
   xmlns:dc="http://purl.org/dc/elements/1.1/"
   xmlns:cc="http://creativecommons.org/ns#"
   xmlns:rdf="http://www.w3.org/1999/02/22-rdf-syntax-ns#"
   xmlns:svg="http://www.w3.org/2000/svg"
   xmlns="http://www.w3.org/2000/svg"
   viewBox="0 0 85.333336 85.333336"
   height="85.333336"
   width="85.333336"
   xml:space="preserve"
   id="svg2"
   version="1.1"><metadata
     id="metadata8"><rdf:RDF><cc:Work
         rdf:about=""><dc:format>image/svg+xml</dc:format><dc:type
           rdf:resource="http://purl.org/dc/dcmitype/StillImage" /></cc:Work></rdf:RDF></metadata><defs
     id="defs6" /><g
     transform="matrix(1.3333333,0,0,-1.3333333,0,85.333333)"
     id="g10"><g
       transform="scale(0.1)"
       id="g12"><path
         id="path14"
         style="fill:#e08e4c;fill-opacity:1;fill-rule:nonzero;stroke:none"
         d="M 640,320 C 640,143.27 496.73,0 320,0 143.27,0 0,143.27 0,320 0,496.73 143.27,640 320,640 496.73,640 640,496.73 640,320" /><path
         id="path16"
         style="fill:#b77744;fill-opacity:1;fill-rule:nonzero;stroke:none"
         d="m 480,115 c -6.395,0 -12.797,2.441 -17.676,7.324 l -94.636,94.637 c 3.863,2.73 7.605,5.656 11.218,8.777 l 83.418,-83.414 C 467.203,137.441 473.605,135 480,135 c 6.395,0 12.797,2.441 17.676,7.324 2.281,2.281 4.027,4.891 5.242,7.676 3.992,-9.148 2.242,-20.191 -5.242,-27.676 C 492.797,117.441 486.395,115 480,115 M 339.215,246.102 c -3.543,5.289 -4.856,11.632 -3.926,17.699 1.32,0.734 2.633,1.504 3.926,2.301 0.894,-1.332 1.93,-2.598 3.109,-3.778 l 8.192,-8.191 c -3.625,-2.953 -7.403,-5.629 -11.301,-8.031" /><path
         id="path18"
         style="fill:#495672;fill-opacity:1;fill-rule:nonzero;stroke:none"
         d="m 480,135 c -6.395,0 -12.797,2.441 -17.676,7.324 l -120,120 c -9.765,9.766 -9.765,25.586 0,35.352 9.754,9.765 25.598,9.765 35.352,0 l 120,-120 c 9.765,-9.766 9.765,-25.586 0,-35.352 C 492.797,137.441 486.395,135 480,135" /><path
         id="path20"
         style="fill:#7db6d8;fill-opacity:1;fill-rule:nonzero;stroke:none"
         d="m 358.578,430.859 c 41.27,-41.265 41.27,-108.171 0,-149.437 -41.265,-41.27 -108.172,-41.27 -149.437,0 -41.27,41.266 -41.27,108.172 0,149.437 41.265,41.27 108.172,41.27 149.437,0" /><path
         id="path22"
         style="fill:#b77744;fill-opacity:1;fill-rule:nonzero;stroke:none"
         d="m 283.859,190.469 c -38.91,0 -75.492,15.152 -103.004,42.668 -56.796,56.797 -56.796,149.211 0,206.008 27.512,27.511 64.094,42.668 103.004,42.668 38.911,0 75.493,-15.157 103.004,-42.668 47.211,-47.211 55.18,-119.04 23.903,-174.555 l -29.801,29.801 c 7.051,16.41 9.746,34.246 8.094,51.75 2.859,30.269 -7.297,61.539 -30.481,84.718 -20.633,20.633 -47.676,30.954 -74.719,30.954 -27.043,0 -54.086,-10.321 -74.718,-30.954 -23.18,-23.179 -33.34,-54.449 -30.481,-84.718 -2.859,-30.274 7.301,-61.539 30.481,-84.719 20.632,-20.637 47.675,-30.953 74.718,-30.953 19.219,0 38.438,5.211 55.356,15.633 0.894,-1.332 1.93,-2.598 3.109,-3.778 l 25.364,-25.363 C 343.32,199.746 314.305,190.469 283.859,190.469" /><path
         id="path24"
         style="fill:#97633d;fill-opacity:1;fill-rule:nonzero;stroke:none"
         d="m 367.688,216.961 -25.364,25.363 c -1.179,1.18 -2.215,2.446 -3.109,3.778 3.898,2.402 7.676,5.078 11.301,8.031 l 28.39,-28.395 c -3.613,-3.121 -7.355,-6.047 -11.218,-8.777" /><path
         id="path26"
         style="fill:#404a5f;fill-opacity:1;fill-rule:nonzero;stroke:none"
         d="m 378.906,225.738 -28.39,28.395 c 2.781,2.265 5.472,4.695 8.062,7.289 9.777,9.777 17.238,20.992 22.387,32.969 l 29.801,-29.801 c -6.352,-11.274 -14.317,-21.867 -23.903,-31.453 -2.574,-2.574 -5.226,-5.039 -7.957,-7.399" /><path
         id="path28"
         style="fill:#6594b2;fill-opacity:1;fill-rule:nonzero;stroke:none"
         d="m 178.66,346.141 c -2.859,30.269 7.301,61.539 30.481,84.718 20.632,20.633 47.675,30.954 74.718,30.954 27.043,0 54.086,-10.321 74.719,-30.954 23.184,-23.179 33.34,-54.449 30.481,-84.718 -2.235,23.621 -12.391,46.632 -30.481,64.718 -20.633,20.633 -47.676,30.954 -74.719,30.954 -27.043,0 -54.086,-10.321 -74.718,-30.954 -18.086,-18.086 -28.246,-41.097 -30.481,-64.718" /><path
         id="path30"
         style="fill:#ffffff;fill-opacity:1;fill-rule:nonzero;stroke:none"
         d="m 283.859,501.813 c -38.91,0 -75.492,-15.157 -103.004,-42.668 -56.796,-56.797 -56.796,-149.211 0,-206.008 27.512,-27.516 64.094,-42.668 103.004,-42.668 38.911,0 75.493,15.152 103.004,42.668 56.797,56.797 56.797,149.211 0,206.008 -27.511,27.511 -64.093,42.668 -103.004,42.668 z m 0,-40 c 27.043,0 54.086,-10.321 74.719,-30.954 41.27,-41.265 41.27,-108.171 0,-149.437 -20.633,-20.637 -47.676,-30.953 -74.719,-30.953 -27.043,0 -54.086,10.316 -74.718,30.953 -41.27,41.266 -41.27,108.172 0,149.437 20.632,20.633 47.675,30.954 74.718,30.954" /></g></g></svg>