<?xml version="1.0" encoding="UTF-8" standalone="no"?>
<svg
   xmlns:dc="http://purl.org/dc/elements/1.1/"
   xmlns:cc="http://creativecommons.org/ns#"
   xmlns:rdf="http://www.w3.org/1999/02/22-rdf-syntax-ns#"
   xmlns:svg="http://www.w3.org/2000/svg"
   xmlns="http://www.w3.org/2000/svg"
   viewBox="0 0 85.333336 85.333336"
   height="85.333336"
   width="85.333336"
   xml:space="preserve"
   id="svg2"
   version="1.1"><metadata
     id="metadata8"><rdf:RDF><cc:Work
         rdf:about=""><dc:format>image/svg+xml</dc:format><dc:type
           rdf:resource="http://purl.org/dc/dcmitype/StillImage" /></cc:Work></rdf:RDF></metadata><defs
     id="defs6" /><g
     transform="matrix(1.3333333,0,0,-1.3333333,0,85.333333)"
     id="g10"><g
       transform="scale(0.1)"
       id="g12"><path
         id="path14"
         style="fill:#7db6d8;fill-opacity:1;fill-rule:nonzero;stroke:none"
         d="M 640,320 C 640,143.27 496.73,0 320,0 143.27,0 0,143.27 0,320 0,496.73 143.27,640 320,640 496.73,640 640,496.73 640,320" /><path
         id="path16"
         style="fill:#6594b2;fill-opacity:1;fill-rule:nonzero;stroke:none"
         d="M 480,160 H 160 c -22.09,0 -40,17.91 -40,40 v 200 0 -180 c 0,-21.992 17.746,-39.84 39.699,-40 0.004,0 0.008,0 0.012,0 0.016,0 0.035,0 0.055,0 0.007,0 0.019,0 0.031,0 0.008,0 0.012,0 0.019,0 0.016,0 0.032,0 0.047,0 0.004,0 0.004,0 0.008,0 0.02,0 0.039,0 0.059,0 0.004,0 0.008,0 0.011,0 0.02,0 0.039,0 0.059,0 h 320 c 0.02,0 0.039,0 0.059,0 0.004,0 0.007,0 0.011,0 0.02,0 0.039,0 0.059,0 0.004,0 0.004,0 0.008,0 0.015,0 0.031,0 0.047,0 0.007,0 0.011,0 0.019,0 0.012,0 0.024,0 0.031,0 0.02,0 0.039,0 0.055,0 0.004,0 0.008,0 0.012,0 21.953,0.16 39.699,18.008 39.699,40 v -20 c 0,-22.09 -17.91,-40 -40,-40" /><path
         id="path18"
         style="fill:#e1e3cc;fill-opacity:1;fill-rule:nonzero;stroke:none"
         d="m 520,220 c 0,-22.09 -17.91,-40 -40,-40 H 160 c -22.09,0 -40,17.91 -40,40 v 200 c 0,22.09 17.91,40 40,40 h 320 c 22.09,0 40,-17.91 40,-40 V 220" /><path
         id="path20"
         style="fill:#b7b7a7;fill-opacity:1;fill-rule:nonzero;stroke:none"
         d="m 513.277,200.398 c -1.109,1.36 -2.343,2.735 -3.777,4.141 L 366.625,311.477 376.703,320 509.5,207.719 c 1.797,-1.989 3.277,-3.934 4.605,-5.844 -0.265,-0.5 -0.542,-0.992 -0.828,-1.477 m -386.554,0 c -0.285,0.485 -0.563,0.977 -0.828,1.477 1.328,1.91 2.808,3.855 4.605,5.844 l 132.949,112.414 10.016,-8.594 -142.965,-107 c -1.434,-1.406 -2.664,-2.781 -3.777,-4.141" /><path
         id="path22"
         style="fill:#e1e3cc;fill-opacity:1;fill-rule:nonzero;stroke:none"
         d="m 355.234,320 c -19.379,18.996 -51.089,18.996 -70.468,0 L 130.5,204.539 c -1.797,-1.762 -3.277,-3.48 -4.605,-5.176 C 132.906,187.801 145.488,180 160,180 h 320 c 14.512,0 27.094,7.801 34.105,19.363 -1.328,1.696 -2.808,3.414 -4.605,5.176 L 355.234,320" /><path
         id="path24"
         style="fill:#6594b2;fill-opacity:1;fill-rule:nonzero;stroke:none"
         d="m 159.949,460 c 0.016,0 0.035,0 0.051,0 -0.016,0 -0.035,0 -0.051,0 m 320.102,0 c -0.016,0 -0.031,0 -0.051,0 0.016,0 0.035,0 0.051,0" /><path
         id="path26"
         style="fill:#b7b7a7;fill-opacity:1;fill-rule:nonzero;stroke:none"
         d="m 376.703,320 -21.469,18.152 c -9.687,10.731 -22.461,16.094 -35.234,16.094 -12.773,0 -25.547,-5.363 -35.234,-16.094 L 263.449,320.133 125.895,438.125 c 7,13.047 19.566,21.855 34.054,21.875 0.016,0 0.035,0 0.051,0 v 0 h 320 v 0 c 0.02,0 0.035,0 0.051,0 14.488,-0.02 27.051,-8.828 34.054,-21.875 -1.328,-1.91 -2.808,-3.855 -4.605,-5.844 L 376.703,320" /><path
         id="path28"
         style="fill:#97978c;fill-opacity:1;fill-rule:nonzero;stroke:none"
         d="M 366.625,311.477 355.234,320 c -9.687,9.496 -22.461,14.246 -35.234,14.246 -12.773,0 -25.547,-4.75 -35.234,-14.246 l -11.301,-8.461 -10.016,8.594 21.317,18.019 c 9.687,10.731 22.461,16.094 35.234,16.094 12.773,0 25.547,-5.363 35.234,-16.094 L 376.703,320 366.625,311.477" /><path
         id="path30"
         style="fill:#b7b7a7;fill-opacity:1;fill-rule:nonzero;stroke:none"
         d="m 320,285.754 c -12.773,0 -25.547,5.363 -35.234,16.094 l -11.301,9.691 11.301,8.461 c 9.687,9.496 22.461,14.246 35.234,14.246 12.773,0 25.547,-4.75 35.234,-14.246 l 11.391,-8.523 -11.391,-9.629 C 345.547,291.117 332.773,285.754 320,285.754" /><path
         id="path32"
         style="fill:#ffffff;fill-opacity:1;fill-rule:nonzero;stroke:none"
         d="m 284.766,320 c 19.379,-18.996 51.089,-18.996 70.468,0 L 509.5,435.461 c 1.797,1.762 3.277,3.48 4.605,5.176 C 507.094,452.199 494.512,460 480,460 H 160 c -14.512,0 -27.094,-7.801 -34.105,-19.363 1.328,-1.696 2.808,-3.414 4.605,-5.176 L 284.766,320" /></g></g></svg>