<?xml version="1.0" encoding="UTF-8" standalone="no"?>
<svg
   xmlns:dc="http://purl.org/dc/elements/1.1/"
   xmlns:cc="http://creativecommons.org/ns#"
   xmlns:rdf="http://www.w3.org/1999/02/22-rdf-syntax-ns#"
   xmlns:svg="http://www.w3.org/2000/svg"
   xmlns="http://www.w3.org/2000/svg"
   viewBox="0 0 85.333336 85.333336"
   height="85.333336"
   width="85.333336"
   xml:space="preserve"
   id="svg2"
   version="1.1"><metadata
     id="metadata8"><rdf:RDF><cc:Work
         rdf:about=""><dc:format>image/svg+xml</dc:format><dc:type
           rdf:resource="http://purl.org/dc/dcmitype/StillImage" /></cc:Work></rdf:RDF></metadata><defs
     id="defs6" /><g
     transform="matrix(1.3333333,0,0,-1.3333333,0,85.333333)"
     id="g10"><g
       transform="scale(0.1)"
       id="g12"><path
         id="path14"
         style="fill:#77caa9;fill-opacity:1;fill-rule:nonzero;stroke:none"
         d="M 640,320 C 640,143.27 496.73,0 320,0 143.27,0 0,143.27 0,320 0,496.73 143.27,640 320,640 496.73,640 640,496.73 640,320" /><path
         id="path16"
         style="fill:#62a48d;fill-opacity:1;fill-rule:nonzero;stroke:none"
         d="m 236.898,201.262 -6.257,19.359 h 1.429 c 5.219,0 9.325,2 11.828,5.274 l 1.704,-5.274 c 3.011,-9.305 -0.817,-17.125 -8.704,-19.359" /><path
         id="path18"
         style="fill:#62a48d;fill-opacity:1;fill-rule:nonzero;stroke:none"
         d="m 226.805,150.621 h -20 c -11.043,0 -20.11,1.453 -23.68,12.5 l -25.316,77.504 h 2.191 4.027 l 17.223,-53.754 c 3.57,-11.047 14.512,-16.25 25.555,-16.25 h 20 c 5.222,0 9.328,2 11.832,5.274 l 1.703,-5.274 c 3.57,-11.047 -2.488,-20 -13.535,-20" /><path
         id="path20"
         style="fill:#c84755;fill-opacity:1;fill-rule:nonzero;stroke:none"
         d="m 245.602,240.621 c 3.574,-11.047 -2.489,-20 -13.532,-20 h -20 c -11.047,0 -22.894,8.953 -26.468,20 l -32.329,100 c -3.574,11.047 2.489,20 13.532,20 h 20 c 11.047,0 22.894,-8.953 26.468,-20 l 32.329,-100" /><path
         id="path22"
         style="fill:#495672;fill-opacity:1;fill-rule:nonzero;stroke:none"
         d="m 240.34,190.621 c 3.57,-11.047 -2.488,-20 -13.535,-20 h -20 c -11.043,0 -21.985,5.203 -25.555,16.25 l -33.238,103.75 c -3.574,11.047 2.484,20 13.531,20 h 20 c 11.047,0 22.895,-8.953 26.469,-20 l 32.328,-100" /><path
         id="path24"
         style="fill:#62a48d;fill-opacity:1;fill-rule:nonzero;stroke:none"
         d="m 465,150.625 c -8.285,0 -15,6.715 -15,15 v 10.703 c -27.605,25.25 -62.82,64.297 -160,64.297 h -44.398 l -32.329,99.996 c -3.574,11.047 -15.421,20 -26.468,20 h -20 c -11.043,0 -17.106,-8.953 -13.532,-20 l 1.704,-5.273 c -2.793,-3.657 -3.586,-8.899 -1.704,-14.727 l 3.442,-10.641 C 148.828,307.75 145,299.93 148.012,290.621 l 1.691,-5.285 c -2.785,-3.656 -3.574,-8.895 -1.691,-14.715 l 9.797,-29.996 H 150 140 c -11.047,0 -20,8.953 -20,20 -11.047,0 -20,8.953 -20,20 v 60 c 0,11.047 8.953,20 20,20 0,11.047 8.953,20 20,20 h 20 20 110 c 97.18,0 132.395,39.043 160,64.293 v 10.086 c 0,8.281 6.715,15 15,15 8.285,0 15,-6.719 15,-15 V 350.625 c 11.047,0 20,-8.953 20,-20 v -40 c 0,-11.047 -8.953,-20 -20,-20 v -105 c 0,-8.285 -6.715,-15 -15,-15" /><path
         id="path26"
         style="fill:#538777;fill-opacity:1;fill-rule:nonzero;stroke:none"
         d="m 156.715,309.98 -3.442,10.641 c -1.882,5.828 -1.089,11.07 1.704,14.727 l 7.996,-24.727 h -1.43 c -1.738,0 -3.355,-0.223 -4.828,-0.641" /><path
         id="path28"
         style="fill:#538777;fill-opacity:1;fill-rule:nonzero;stroke:none"
         d="m 164.027,240.625 h -6.218 l -9.797,29.996 c -1.883,5.82 -1.094,11.059 1.691,14.715 l 14.324,-44.711" /><path
         id="path30"
         style="fill:#a43f4a;fill-opacity:1;fill-rule:nonzero;stroke:none"
         d="m 245.602,240.625 h -21.426 l -16.164,49.996 c -3.574,11.047 -15.422,20 -26.469,20 h -18.57 l -7.996,24.727 -1.704,5.273 c -3.574,11.047 2.489,20 13.532,20 h 20 c 11.047,0 22.894,-8.953 26.468,-20 l 32.329,-100" /><path
         id="path32"
         style="fill:#404a5f;fill-opacity:1;fill-rule:nonzero;stroke:none"
         d="m 224.176,240.625 h -60.149 l -14.324,44.711 -1.691,5.285 c -3.012,9.309 0.816,17.129 8.703,19.359 1.473,0.418 3.09,0.641 4.828,0.641 h 1.43 18.57 c 11.047,0 22.895,-8.953 26.469,-20 l 16.164,-49.996" /><path
         id="path34"
         style="fill:#e1e3cc;fill-opacity:1;fill-rule:nonzero;stroke:none"
         d="m 500,310.621 c 0,-11.047 -8.953,-20 -20,-20 h -80 c -11.047,0 -20,8.953 -20,20 v 40 c 0,11.047 8.953,20 20,20 h 80 c 11.047,0 20,-8.953 20,-20 v -40" /><path
         id="path36"
         style="fill:#495672;fill-opacity:1;fill-rule:nonzero;stroke:none"
         d="m 220,300.621 c 0,-11.047 -8.953,-20 -20,-20 h -80 c -11.047,0 -20,8.953 -20,20 v 60 c 0,11.047 8.953,20 20,20 h 80 c 11.047,0 20,-8.953 20,-20 v -60" /><path
         id="path38"
         style="fill:#ffffff;fill-opacity:1;fill-rule:nonzero;stroke:none"
         d="M 460.66,474.094 C 430.621,450.68 400,400.621 290,400.621 H 160 l -10,-140 h 140 c 110,0 140.621,-50.058 170.66,-73.469 v 286.942" /><path
         id="path40"
         style="fill:#c84755;fill-opacity:1;fill-rule:nonzero;stroke:none"
         d="m 180,260.621 c 0,0 -8.953,0 -20,0 h -20 c -11.047,0 -20,8.953 -20,20 v 100 c 0,11.047 8.953,20 20,20 h 20 c 11.047,0 20,0 20,0 v -140" /><path
         id="path42"
         style="fill:#495672;fill-opacity:1;fill-rule:nonzero;stroke:none"
         d="m 480,185.621 c 0,-8.281 -6.715,-15 -15,-15 -8.285,0 -15,6.719 -15,15 V 475 c 0,8.285 6.715,15 15,15 8.285,0 15,-6.715 15,-15 V 185.621" /></g></g></svg>