<?xml version="1.0" encoding="UTF-8" standalone="no"?>
<svg
   xmlns:dc="http://purl.org/dc/elements/1.1/"
   xmlns:cc="http://creativecommons.org/ns#"
   xmlns:rdf="http://www.w3.org/1999/02/22-rdf-syntax-ns#"
   xmlns:svg="http://www.w3.org/2000/svg"
   xmlns="http://www.w3.org/2000/svg"
   viewBox="0 0 85.333336 85.333336"
   height="85.333336"
   width="85.333336"
   xml:space="preserve"
   id="svg2"
   version="1.1"><metadata
     id="metadata8"><rdf:RDF><cc:Work
         rdf:about=""><dc:format>image/svg+xml</dc:format><dc:type
           rdf:resource="http://purl.org/dc/dcmitype/StillImage" /></cc:Work></rdf:RDF></metadata><defs
     id="defs6" /><g
     transform="matrix(1.3333333,0,0,-1.3333333,0,85.333333)"
     id="g10"><g
       transform="scale(0.1)"
       id="g12"><path
         id="path14"
         style="fill:#f3cc70;fill-opacity:1;fill-rule:nonzero;stroke:none"
         d="M 640,320 C 640,143.27 496.73,0 320,0 143.27,0 0,143.27 0,320 0,496.73 143.27,640 320,640 496.73,640 640,496.73 640,320" /><path
         id="path16"
         style="fill:#c7a85f;fill-opacity:1;fill-rule:nonzero;stroke:none"
         d="m 360.527,150 c -2.839,0 -5.691,0.352 -8.464,1.039 L 255.02,175.18 c -18.723,4.66 -30.168,23.687 -25.512,42.414 l 0.406,1.633 c 3.418,-11.493 12.652,-20.95 25.106,-24.047 l 97.043,-24.141 c 2.773,-0.687 5.625,-1.039 8.464,-1.039 16.102,0 30.067,10.918 33.953,26.555 l 1.618,6.508 4.722,-1.02 -6.34,-25.488 C 390.594,160.918 376.629,150 360.527,150 m -98.429,74.336 c -2.575,0.734 -4.129,3.398 -3.481,6.016 l 0.547,2.183 4.723,-1.015 -1.789,-7.184" /><path
         id="path18"
         style="fill:#495672;fill-opacity:1;fill-rule:nonzero;stroke:none"
         d="m 277.941,292.371 c -1.875,0 -4.191,-1.183 -4.839,-3.797 l -14.485,-58.222 c -0.664,-2.676 0.973,-5.395 3.649,-6.059 l 97.043,-24.141 c 2.273,-0.578 5.265,0.469 6.058,3.649 l 14.485,58.219 c 0.664,2.675 -0.973,5.398 -3.649,6.062 l -97.043,24.141 -1.219,0.148 M 360.527,170 c -2.839,0 -5.691,0.352 -8.464,1.039 L 255.02,195.18 c -18.723,4.66 -30.168,23.687 -25.512,42.414 l 14.48,58.226 c 3.891,15.633 17.856,26.551 33.953,26.551 2.84,0 5.692,-0.351 8.465,-1.039 l 97.043,-24.141 c 18.727,-4.656 30.168,-23.683 25.512,-42.41 L 394.48,196.555 C 390.594,180.918 376.629,170 360.527,170" /><path
         id="path20"
         style="fill:#c7a85f;fill-opacity:1;fill-rule:nonzero;stroke:none"
         d="m 500,170 c -11.047,0 -20,8.953 -20,20 v -5 l -79.18,17.043 8.141,32.738 c 1.559,6.27 1.312,12.574 -0.406,18.364 l 0.406,1.636 c 4.656,18.727 -6.785,37.754 -25.512,42.41 l -97.043,24.141 c -2.773,0.688 -5.625,1.039 -8.465,1.039 -16.097,0 -30.062,-10.918 -33.953,-26.551 L 229.82,238.852 136.637,258.91 C 133.051,253.543 126.941,250 120,250 c -11.047,0 -20,8.953 -20,20 v 60 c 0,11.047 8.953,20 20,20 6.941,0 13.051,-3.543 16.637,-8.91 L 480,415 v -5 c 0,11.047 8.953,20 20,20 11.047,0 20,-8.953 20,-20 V 190 c 0,-11.047 -8.953,-20 -20,-20" /><path
         id="path22"
         style="fill:#a48c53;fill-opacity:1;fill-rule:nonzero;stroke:none"
         d="m 400.82,202.043 -4.722,1.02 12.457,50.082 c 1.718,-5.79 1.965,-12.094 0.406,-18.364 l -8.141,-32.738" /><path
         id="path24"
         style="fill:#c7a85f;fill-opacity:1;fill-rule:nonzero;stroke:none"
         d="m 366.754,209.379 -102.867,22.141 9.215,37.054 c 0.648,2.614 2.964,3.797 4.839,3.797 l 1.219,-0.148 97.043,-24.141 c 0.055,-0.016 0.113,-0.031 0.168,-0.047 l -9.617,-38.656" /><path
         id="path26"
         style="fill:#a48c53;fill-opacity:1;fill-rule:nonzero;stroke:none"
         d="m 263.887,231.52 -4.723,1.015 13.938,56.039 c 0.648,2.614 2.964,3.797 4.839,3.797 l 1.219,-0.148 97.043,-24.141 c 2.676,-0.664 4.313,-3.387 3.649,-6.062 l -3.481,-13.985 c -0.055,0.016 -0.113,0.031 -0.168,0.047 l -97.043,24.141 -1.219,0.148 c -1.875,0 -4.191,-1.183 -4.839,-3.797 l -9.215,-37.054" /><path
         id="path28"
         style="fill:#404a5f;fill-opacity:1;fill-rule:nonzero;stroke:none"
         d="m 396.098,203.063 -29.344,6.316 9.617,38.656 3.481,13.985 c 0.664,2.675 -0.973,5.398 -3.649,6.062 l -97.043,24.141 -1.219,0.148 c -1.875,0 -4.191,-1.183 -4.839,-3.797 l -13.938,-56.039 -29.344,6.317 14.168,56.968 c 3.891,15.633 17.856,26.551 33.953,26.551 2.84,0 5.692,-0.351 8.465,-1.039 l 97.043,-24.141 c 18.727,-4.656 30.168,-23.683 25.512,-42.41 l -0.406,-1.636 -12.457,-50.082" /><path
         id="path30"
         style="fill:#c84755;fill-opacity:1;fill-rule:nonzero;stroke:none"
         d="m 480,205 -370,80 v 70 l 370,80 V 205" /><path
         id="path32"
         style="fill:#e08e4c;fill-opacity:1;fill-rule:nonzero;stroke:none"
         d="m 140,290 c 0,-11.047 -8.953,-20 -20,-20 -11.047,0 -20,8.953 -20,20 v 60 c 0,11.047 8.953,20 20,20 11.047,0 20,-8.953 20,-20 v -60" /><path
         id="path34"
         style="fill:#e08e4c;fill-opacity:1;fill-rule:nonzero;stroke:none"
         d="m 520,210 c 0,-11.047 -8.953,-20 -20,-20 -11.047,0 -20,8.953 -20,20 v 220 c 0,11.047 8.953,20 20,20 11.047,0 20,-8.953 20,-20 V 210" /></g></g></svg>