<?xml version="1.0" encoding="UTF-8" standalone="no"?>
<svg
   xmlns:dc="http://purl.org/dc/elements/1.1/"
   xmlns:cc="http://creativecommons.org/ns#"
   xmlns:rdf="http://www.w3.org/1999/02/22-rdf-syntax-ns#"
   xmlns:svg="http://www.w3.org/2000/svg"
   xmlns="http://www.w3.org/2000/svg"
   viewBox="0 0 85.333336 85.333336"
   height="85.333336"
   width="85.333336"
   xml:space="preserve"
   id="svg2"
   version="1.1"><metadata
     id="metadata8"><rdf:RDF><cc:Work
         rdf:about=""><dc:format>image/svg+xml</dc:format><dc:type
           rdf:resource="http://purl.org/dc/dcmitype/StillImage" /></cc:Work></rdf:RDF></metadata><defs
     id="defs6" /><g
     transform="matrix(1.3333333,0,0,-1.3333333,0,85.333333)"
     id="g10"><g
       transform="scale(0.1)"
       id="g12"><path
         id="path14"
         style="fill:#f3cc70;fill-opacity:1;fill-rule:nonzero;stroke:none"
         d="M 640,320 C 640,143.27 496.73,0 320,0 143.27,0 0,143.27 0,320 0,496.73 143.27,640 320,640 496.73,640 640,496.73 640,320" /><path
         id="path16"
         style="fill:#c7a85f;fill-opacity:1;fill-rule:nonzero;stroke:none"
         d="m 300,60 c -16.566,0 -30,13.4336 -30,30 V 400 110 c 0,-16.5664 13.43,-30 30,-30 16.566,0 30,13.4336 30,30 V 90 C 330,73.4336 316.566,60 300,60 m 160.059,49.988 c -1.918,0 -3.86,0.184 -5.813,0.571 -4.59,0.894 -72.238,15.265 -124.246,87.832 V 110 219.195 c 20.105,-28.168 42.629,-47.922 62.82,-61.207 32.5,-21.468 58.707,-26.875 61.43,-27.429 1.941,-0.379 3.875,-0.563 5.781,-0.563 12.625,0 24.035,8.008 28.258,20.008 1.734,-4.891 2.223,-10.293 1.152,-15.758 -2.796,-14.308 -15.343,-24.258 -29.382,-24.258" /><path
         id="path18"
         style="fill:#495672;fill-opacity:1;fill-rule:nonzero;stroke:none"
         d="m 465.75,189.445 -3.84,-19.652 4.074,19.605 -0.234,0.047 -3.84,-19.652 4.074,19.605 -0.261,-1.265 0.277,1.262 -0.016,0.003 -0.261,-1.265 0.277,1.262 c -0.469,0.097 -9.363,2.125 -22.164,8.371 -19.262,9.441 -47.07,27.964 -70.566,64.5 C 349.84,298.852 330.066,354.215 330,440 H 270 V 110 c 0,-16.5664 13.43,-30 30,-30 16.566,0 30,13.4336 30,30 v 330 h -60 c -0.008,-65.383 10.543,-117.887 27.105,-159.727 24.766,-62.843 63.254,-100.929 95.715,-122.285 32.5,-21.468 58.707,-26.875 61.43,-27.429 16.262,-3.176 32.016,7.429 35.191,23.691 3.176,16.262 -7.429,32.02 -23.691,35.191 v 0.004" /><path
         id="path20"
         style="fill:#c7a85f;fill-opacity:1;fill-rule:nonzero;stroke:none"
         d="m 385.613,400 h -54.047 c -1.007,12.543 -1.554,25.859 -1.566,40 h -60 v -20 -20 h -55.613 c -14.715,0 -18.828,10.879 -9.137,24.176 l 77.133,105.851 c 4.844,6.649 11.23,9.973 17.617,9.973 6.387,0 12.773,-3.324 17.617,-9.973 L 394.75,424.176 C 404.441,410.879 400.328,400 385.613,400" /><path
         id="path22"
         style="fill:#404a5f;fill-opacity:1;fill-rule:nonzero;stroke:none"
         d="M 331.566,400 H 270 v 40 h 60 c 0.012,-14.141 0.559,-27.457 1.566,-40" /><path
         id="path24"
         style="fill:#495672;fill-opacity:1;fill-rule:nonzero;stroke:none"
         d="m 214.387,420 c -14.715,0 -18.828,10.879 -9.137,24.176 l 77.133,105.851 c 9.687,13.297 25.547,13.297 35.234,0 L 394.75,444.176 C 404.441,430.879 400.328,420 385.613,420 H 214.387" /></g></g></svg>