<?xml version="1.0" encoding="UTF-8" standalone="no"?>
<svg
   xmlns:dc="http://purl.org/dc/elements/1.1/"
   xmlns:cc="http://creativecommons.org/ns#"
   xmlns:rdf="http://www.w3.org/1999/02/22-rdf-syntax-ns#"
   xmlns:svg="http://www.w3.org/2000/svg"
   xmlns="http://www.w3.org/2000/svg"
   viewBox="0 0 85.333336 85.333336"
   height="85.333336"
   width="85.333336"
   xml:space="preserve"
   id="svg2"
   version="1.1"><metadata
     id="metadata8"><rdf:RDF><cc:Work
         rdf:about=""><dc:format>image/svg+xml</dc:format><dc:type
           rdf:resource="http://purl.org/dc/dcmitype/StillImage" /></cc:Work></rdf:RDF></metadata><defs
     id="defs6" /><g
     transform="matrix(1.3333333,0,0,-1.3333333,0,85.333333)"
     id="g10"><g
       transform="scale(0.1)"
       id="g12"><path
         id="path14"
         style="fill:#7db6d8;fill-opacity:1;fill-rule:nonzero;stroke:none"
         d="M 640,320 C 640,143.27 496.73,0 320,0 143.27,0 0,143.27 0,320 0,496.73 143.27,640 320,640 496.73,640 640,496.73 640,320" /><path
         id="path16"
         style="fill:#6594b2;fill-opacity:1;fill-rule:nonzero;stroke:none"
         d="m 320,225 c -33.148,0 -60,26.852 -60,60 v 180 c 0,33.148 26.852,60 60,60 33.148,0 60,-26.852 60,-60 V 285 c 0,-33.148 -26.852,-60 -60,-60" /><path
         id="path18"
         style="fill:#6594b2;fill-opacity:1;fill-rule:nonzero;stroke:none"
         d="M 335,158.359 V 165 c 0,8.281 -6.719,15 -15,15 -8.281,0 -15,-6.719 -15,-15 v -6.641 C 240.355,165.82 190,220.891 190,287.5 V 325 c 0,8.281 6.719,15 15,15 8.281,0 15,-6.719 15,-15 v -37.5 c 0,-55.137 44.863,-100 100,-100 55.137,0 100,44.863 100,100 V 325 c 0,8.281 6.719,15 15,15 8.281,0 15,-6.719 15,-15 V 287.5 C 450,220.891 399.645,165.82 335,158.359" /><path
         id="path20"
         style="fill:#6594b2;fill-opacity:1;fill-rule:nonzero;stroke:none"
         d="m 335,110 h -30 v 48.359 c 4.922,-0.566 9.93,-0.859 15,-0.859 5.07,0 10.078,0.293 15,0.859 V 110" /><path
         id="path22"
         style="fill:#567a95;fill-opacity:1;fill-rule:nonzero;stroke:none"
         d="m 320,157.5 c -5.07,0 -10.078,0.293 -15,0.859 V 165 c 0,8.281 6.719,15 15,15 8.281,0 15,-6.719 15,-15 v -6.641 c -4.922,-0.566 -9.93,-0.859 -15,-0.859" /><path
         id="path24"
         style="fill:#6594b2;fill-opacity:1;fill-rule:nonzero;stroke:none"
         d="M 370,80 H 270 c -8.281,0 -15,6.7188 -15,15 0,8.281 6.719,15 15,15 h 35 v -5 c 0,-8.2812 6.719,-15 15,-15 8.281,0 15,6.7188 15,15 v 5 h 35 c 8.281,0 15,-6.719 15,-15 0,-8.2812 -6.719,-15 -15,-15" /><path
         id="path26"
         style="fill:#567a95;fill-opacity:1;fill-rule:nonzero;stroke:none"
         d="m 320,90 c -8.281,0 -15,6.7188 -15,15 v 5 h 30 v -5 c 0,-8.2812 -6.719,-15 -15,-15" /><path
         id="path28"
         style="fill:#495672;fill-opacity:1;fill-rule:nonzero;stroke:none"
         d="m 320,245 c 33.148,0 60,26.852 60,60 v 180 c 0,33.148 -26.852,60 -60,60 -33.148,0 -60,-26.852 -60,-60 V 305 c 0,-33.148 26.852,-60 60,-60" /><path
         id="path30"
         style="fill:#ffffff;fill-opacity:1;fill-rule:nonzero;stroke:none"
         d="m 320,177.5 c -71.68,0 -130,58.32 -130,130 V 345 c 0,8.281 6.719,15 15,15 8.281,0 15,-6.719 15,-15 v -37.5 c 0,-55.137 44.863,-100 100,-100 55.137,0 100,44.863 100,100 V 345 c 0,8.281 6.719,15 15,15 8.281,0 15,-6.719 15,-15 v -37.5 c 0,-71.68 -58.32,-130 -130,-130" /><path
         id="path32"
         style="fill:#ffffff;fill-opacity:1;fill-rule:nonzero;stroke:none"
         d="m 320,110 c -8.281,0 -15,6.719 -15,15 v 60 c 0,8.281 6.719,15 15,15 8.281,0 15,-6.719 15,-15 v -60 c 0,-8.281 -6.719,-15 -15,-15" /><path
         id="path34"
         style="fill:#ffffff;fill-opacity:1;fill-rule:nonzero;stroke:none"
         d="M 370,100 H 270 c -8.281,0 -15,6.719 -15,15 0,8.281 6.719,15 15,15 h 100 c 8.281,0 15,-6.719 15,-15 0,-8.281 -6.719,-15 -15,-15" /></g></g></svg>