<?xml version="1.0" encoding="UTF-8" standalone="no"?>
<svg
   xmlns:dc="http://purl.org/dc/elements/1.1/"
   xmlns:cc="http://creativecommons.org/ns#"
   xmlns:rdf="http://www.w3.org/1999/02/22-rdf-syntax-ns#"
   xmlns:svg="http://www.w3.org/2000/svg"
   xmlns="http://www.w3.org/2000/svg"
   viewBox="0 0 85.333336 85.333336"
   height="85.333336"
   width="85.333336"
   xml:space="preserve"
   id="svg2"
   version="1.1"><metadata
     id="metadata8"><rdf:RDF><cc:Work
         rdf:about=""><dc:format>image/svg+xml</dc:format><dc:type
           rdf:resource="http://purl.org/dc/dcmitype/StillImage" /></cc:Work></rdf:RDF></metadata><defs
     id="defs6" /><g
     transform="matrix(1.3333333,0,0,-1.3333333,0,85.333333)"
     id="g10"><g
       transform="scale(0.1)"
       id="g12"><path
         id="path14"
         style="fill:#f3cc70;fill-opacity:1;fill-rule:nonzero;stroke:none"
         d="M 640,320 C 640,143.27 496.73,0 320,0 143.27,0 0,143.27 0,320 0,496.73 143.27,640 320,640 496.73,640 640,496.73 640,320" /><path
         id="path16"
         style="fill:#c7a85f;fill-opacity:1;fill-rule:nonzero;stroke:none"
         d="m 160,120 c -3.84,0 -7.676,1.465 -10.605,4.395 -5.86,5.855 -5.86,15.355 0,21.21 l 20.293,20.293 -7.704,7.707 c -6.742,6.743 -6.742,17.672 0,24.415 l 150.723,174.835 c 4.391,-20.214 14.332,-39.453 30.016,-55.132 15.32,-15.325 34.332,-25.567 55.011,-30.075 L 220.949,139.055 c -3.371,-3.371 -7.789,-5.059 -12.207,-5.059 -4.418,0 -8.836,1.688 -12.207,5.059 l -5.637,5.633 -20.293,-20.293 C 167.676,121.465 163.84,120 160,120" /><path
         id="path18"
         style="fill:#c7a85f;fill-opacity:1;fill-rule:nonzero;stroke:none"
         d="M 421.641,300 C 371.031,300 330,341.031 330,391.641 c 0,50.613 41.031,91.644 91.641,91.644 50.613,0 91.644,-41.031 91.644,-91.644 0,-50.61 -41.031,-91.641 -91.644,-91.641" /><path
         id="path20"
         style="fill:#e08e4c;fill-opacity:1;fill-rule:nonzero;stroke:none"
         d="M 513.285,421.641 C 513.285,371.031 472.254,330 421.641,330 371.031,330 330,371.031 330,421.641 c 0,50.613 41.031,91.644 91.641,91.644 50.613,0 91.644,-41.031 91.644,-91.644" /><path
         id="path22"
         style="fill:#495672;fill-opacity:1;fill-rule:nonzero;stroke:none"
         d="M 312.707,397.855 161.984,223.02 c -6.742,-6.743 -6.742,-17.672 0,-24.415 l 7.704,-7.707 -20.293,-20.293 c -5.86,-5.855 -5.86,-15.355 0,-21.21 2.929,-2.93 6.765,-4.395 10.605,-4.395 3.84,0 7.676,1.465 10.605,4.395 l 20.293,20.293 5.637,-5.633 c 6.742,-6.742 17.672,-6.742 24.414,0 l 176.785,148.593 c -20.679,4.508 -39.691,14.75 -55.011,30.075 -15.684,15.679 -25.625,34.918 -30.016,55.132" /><path
         id="path24"
         style="fill:#495672;fill-opacity:1;fill-rule:nonzero;stroke:none"
         d="m 480.453,351.336 c -28.152,9.086 -53.992,24.656 -75.515,46.18 -25.047,25.047 -41.379,55.468 -49.422,87.562 -34.395,-35.918 -33.993,-92.879 1.347,-128.215 17.91,-17.91 41.379,-26.863 64.852,-26.863 20.898,0 41.769,7.141 58.738,21.336" /><path
         id="path26"
         style="fill:#495672;fill-opacity:1;fill-rule:nonzero;stroke:none"
         d="m 486.57,486.57 c -17.91,17.907 -41.382,26.86 -64.855,26.86 -14.25,0 -28.481,-3.352 -41.485,-9.95 5.508,-31.503 20.313,-61.699 44.645,-86.027 21.648,-21.648 47.965,-35.664 75.688,-42.41 20.855,35.187 16.257,81.273 -13.993,111.527" /></g></g></svg>