<?xml version="1.0" encoding="UTF-8" standalone="no"?>
<svg
   xmlns:dc="http://purl.org/dc/elements/1.1/"
   xmlns:cc="http://creativecommons.org/ns#"
   xmlns:rdf="http://www.w3.org/1999/02/22-rdf-syntax-ns#"
   xmlns:svg="http://www.w3.org/2000/svg"
   xmlns="http://www.w3.org/2000/svg"
   viewBox="0 0 85.333336 85.333336"
   height="85.333336"
   width="85.333336"
   xml:space="preserve"
   id="svg2"
   version="1.1"><metadata
     id="metadata8"><rdf:RDF><cc:Work
         rdf:about=""><dc:format>image/svg+xml</dc:format><dc:type
           rdf:resource="http://purl.org/dc/dcmitype/StillImage" /></cc:Work></rdf:RDF></metadata><defs
     id="defs6" /><g
     transform="matrix(1.3333333,0,0,-1.3333333,0,85.333333)"
     id="g10"><g
       transform="scale(0.1)"
       id="g12"><path
         id="path14"
         style="fill:#495672;fill-opacity:1;fill-rule:nonzero;stroke:none"
         d="M 0,320 C 0,143.27 143.27,0 320,0 496.73,0 640,143.27 640,320 640,496.73 496.73,640 320,640 143.27,640 0,496.73 0,320" /><path
         id="path16"
         style="fill:#404a5f;fill-opacity:1;fill-rule:nonzero;stroke:none"
         d="m 499.688,149.688 c -1.063,0 -2.059,0.23 -3.098,0.312 H 183.098 c -1.039,-0.082 -2.035,-0.312 -3.098,-0.312 -22.266,0 -40.312,18.046 -40.312,40.312 0,1.063 0.23,2.059 0.312,3.098 v 1.894 c 1.07,-0.613 2.172,-1.179 3.301,-1.691 6.347,-13.93 20.39,-23.613 36.699,-23.613 1.707,0 3.391,0.105 5.043,0.312 h 309.602 c 1.652,-0.207 3.335,-0.312 5.043,-0.312 22.242,0 40.277,18.011 40.312,40.246 0,0.023 0,0.043 0,0.066 v 0 -20 c 0,-2.762 -0.281,-5.457 -0.812,-8.062 -3.739,-18.399 -20,-32.25 -39.5,-32.25" /><path
         id="path18"
         style="fill:#77caa9;fill-opacity:1;fill-rule:nonzero;stroke:none"
         d="m 180,180 c -16.543,0 -30,13.457 -30,30 v 160 c 0,16.543 13.457,30 30,30 h 320 c 16.543,0 30,-13.457 30,-30 V 210 c 0,-16.543 -13.457,-30 -30,-30 H 180" /><path
         id="path20"
         style="fill:#e1e3cc;fill-opacity:1;fill-rule:nonzero;stroke:none"
         d="M 500,410 H 180 c -22.094,0 -40,-17.906 -40,-40 V 210 c 0,-22.094 17.906,-40 40,-40 h 320 c 22.09,0 40,17.906 40,40 v 160 c 0,22.094 -17.91,40 -40,40 m 0,-20 c 11.027,0 20,-8.973 20,-20 V 210 c 0,-11.027 -8.973,-20 -20,-20 H 180 c -11.027,0 -20,8.973 -20,20 v 160 c 0,11.027 8.973,20 20,20 h 320" /><path
         id="path22"
         style="fill:#495672;fill-opacity:1;fill-rule:nonzero;stroke:none"
         d="m 400,290 c 0,-33.137 -26.863,-60 -60,-60 -33.137,0 -60,26.863 -60,60 0,33.137 26.863,60 60,60 33.137,0 60,-26.863 60,-60" /><path
         id="path24"
         style="fill:#e1e3cc;fill-opacity:1;fill-rule:nonzero;stroke:none"
         d="m 459.375,369.688 c 0,-22.262 18.051,-40.313 40.313,-40.313 22.261,0 40.312,18.051 40.312,40.313 0,22.261 -18.051,40.312 -40.312,40.312 -22.262,0 -40.313,-18.051 -40.313,-40.312" /><path
         id="path26"
         style="fill:#e1e3cc;fill-opacity:1;fill-rule:nonzero;stroke:none"
         d="m 139.688,369.688 c 0,-22.262 18.046,-40.313 40.312,-40.313 22.266,0 40.313,18.051 40.313,40.313 0,22.261 -18.047,40.312 -40.313,40.312 -22.266,0 -40.312,-18.051 -40.312,-40.312" /><path
         id="path28"
         style="fill:#e1e3cc;fill-opacity:1;fill-rule:nonzero;stroke:none"
         d="m 459.375,210 c 0,-22.266 18.051,-40.312 40.313,-40.312 22.261,0 40.312,18.046 40.312,40.312 0,22.266 -18.051,40.313 -40.312,40.313 -22.262,0 -40.313,-18.047 -40.313,-40.313" /><path
         id="path30"
         style="fill:#e1e3cc;fill-opacity:1;fill-rule:nonzero;stroke:none"
         d="m 139.688,210 c 0,-22.266 18.046,-40.312 40.312,-40.312 22.266,0 40.313,18.046 40.313,40.312 0,22.266 -18.047,40.313 -40.313,40.313 -22.266,0 -40.312,-18.047 -40.312,-40.313" /><path
         id="path32"
         style="fill:#62a48d;fill-opacity:1;fill-rule:nonzero;stroke:none"
         d="M 440.777,220 H 219.063 c -3.04,11.906 -11.379,21.695 -22.364,26.699 -6.347,13.93 -20.394,23.614 -36.699,23.614 v 0 64.367 c 5.895,-3.375 12.723,-5.305 20,-5.305 22.266,0 40.313,18.051 40.313,40.313 0,7.406 -1.997,14.347 -5.485,20.312 h 224.547 c 0,-0.105 0,-0.207 0,-0.312 v 0 0 c 0,-16.305 9.684,-30.352 23.609,-36.7 5.051,-11.078 14.965,-19.468 27.016,-22.441 v -61.734 c -3.312,0.882 -6.727,1.5 -10.312,1.5 -22.266,0 -40.313,-18.047 -40.313,-40.313 v 0 0 c 0,-3.473 0.574,-6.785 1.402,-10 M 288.762,258.762 C 299.301,241.512 318.305,230 340,230 c 33.137,0 60,26.863 60,60 0,21.695 -11.516,40.699 -28.762,51.238 C 360.699,358.488 341.695,370 320,370 c -33.137,0 -60,-26.863 -60,-60 v 0 0 c 0,-21.695 11.512,-40.699 28.762,-51.238" /><path
         id="path34"
         style="fill:#b7b7a7;fill-opacity:1;fill-rule:nonzero;stroke:none"
         d="m 150,268.91 v 73.852 c 2.871,-3.199 6.246,-5.934 10,-8.082 v -64.367 c -3.473,0 -6.785,-0.575 -10,-1.403 M 439.375,390 H 214.828 c -2.199,3.766 -4.992,7.141 -8.254,10 h 234.297 c -0.851,-3.215 -1.461,-6.527 -1.496,-10" /><path
         id="path36"
         style="fill:#404a5f;fill-opacity:1;fill-rule:nonzero;stroke:none"
         d="m 340,230 c -21.695,0 -40.699,11.512 -51.238,28.762 C 297.863,253.203 308.555,250 320,250 c 33.137,0 60,26.863 60,60 v 0 0 c 0,11.445 -3.203,22.137 -8.762,31.238 C 388.484,330.699 400,311.695 400,290 c 0,-33.137 -26.863,-60 -60,-60" /><path
         id="path38"
         style="fill:#b7b7a7;fill-opacity:1;fill-rule:nonzero;stroke:none"
         d="m 490,330.547 c -12.051,2.973 -21.965,11.363 -27.016,22.441 5.09,-2.32 10.746,-3.613 16.704,-3.613 3.585,0 7,0.617 10.312,1.496 v -20.324" /><path
         id="path40"
         style="fill:#b7b7a7;fill-opacity:1;fill-rule:nonzero;stroke:none"
         d="m 180,329.375 c -7.277,0 -14.105,1.93 -20,5.305 -3.754,2.148 -7.129,4.883 -10,8.082 v 8.015 c 3.215,-0.828 6.527,-1.402 10,-1.402 22.266,0 40.313,18.051 40.313,40.313 v 0 0 c 0,3.585 -0.622,7 -1.5,10.312 h 7.761 c 3.262,-2.859 6.055,-6.234 8.254,-10 3.488,-5.965 5.485,-12.906 5.485,-20.312 0,-22.262 -18.047,-40.313 -40.313,-40.313" /><path
         id="path42"
         style="fill:#b7b7a7;fill-opacity:1;fill-rule:nonzero;stroke:none"
         d="M 219.063,220 H 198.91 c 0.828,3.215 1.403,6.527 1.403,10 v 0 0 c 0,5.957 -1.293,11.613 -3.614,16.699 10.985,-5.004 19.324,-14.793 22.364,-26.699" /><path
         id="path44"
         style="fill:#404a5f;fill-opacity:1;fill-rule:nonzero;stroke:none"
         d="m 140,194.992 c -12.137,6.946 -20.312,20.024 -20.312,35.008 0,1.063 0.23,2.059 0.312,3.098 V 386.59 c -0.082,1.039 -0.312,2.035 -0.312,3.098 0,19.503 13.847,35.761 32.25,39.5 2.601,0.531 5.3,0.812 8.062,0.812 h 320 c 16.223,0 30.188,-9.656 36.465,-23.535 C 511.441,408.734 505.867,410 500,410 H 180 c -0.023,0 -0.043,0 -0.066,0 -22.235,-0.035 -40.246,-18.07 -40.246,-40.312 0,-1.708 0.105,-3.391 0.312,-5.043 v -9.915 c -0.207,-1.652 -0.312,-3.335 -0.312,-5.042 0,-1.063 0.23,-2.059 0.312,-3.098 V 215.043 c -0.207,-1.652 -0.312,-3.336 -0.312,-5.043 0,-1.707 0.105,-3.391 0.312,-5.043 v -9.965" /><path
         id="path46"
         style="fill:#394051;fill-opacity:1;fill-rule:nonzero;stroke:none"
         d="m 143.301,193.301 c -1.129,0.512 -2.231,1.078 -3.301,1.691 v 9.965 c 0.512,-4.109 1.645,-8.027 3.301,-11.656 M 140,215.043 V 346.59 c -0.082,1.039 -0.312,2.035 -0.312,3.098 0,1.707 0.105,3.39 0.312,5.042 v -139.687 0" /><path
         id="path48"
         style="fill:#62a48d;fill-opacity:1;fill-rule:nonzero;stroke:none"
         d="M 464.68,190 H 215.008 c 3.375,5.895 5.305,12.723 5.305,20 0,3.449 -0.434,6.805 -1.25,10 h 221.714 v 0 c -0.828,3.215 -1.402,6.527 -1.402,10 v 0 c 0,22.266 18.047,40.313 40.313,40.313 3.585,0 7,-0.618 10.312,-1.5 v 61.734 c 3.102,-0.766 6.348,-1.172 9.688,-1.172 7.406,0 14.347,1.996 20.312,5.484 v -90.031 c -5.965,3.488 -12.906,5.485 -20.312,5.485 -22.262,0 -40.313,-18.047 -40.313,-40.313 0,-7.277 1.93,-14.105 5.305,-20 M 160,245.008 v 25.305 0 c 16.305,0 30.352,-9.684 36.699,-23.614 -5.086,2.321 -10.742,3.614 -16.699,3.614 -7.277,0 -14.105,-1.93 -20,-5.305 m 302.984,107.98 c -13.925,6.348 -23.609,20.395 -23.609,36.7 v 0 c 0,0.105 0,0.207 0,0.312 h 25.484 c -3.488,-5.965 -5.484,-12.906 -5.484,-20.312 0,-5.958 1.293,-11.614 3.609,-16.7" /><path
         id="path50"
         style="fill:#b7b7a7;fill-opacity:1;fill-rule:nonzero;stroke:none"
         d="M 464.68,190 H 215.008 v 0 H 464.68 v 0 M 140,215.043 v 139.687 9.915 c 1.043,-8.36 4.645,-15.926 10,-21.883 V 268.91 c 3.215,0.828 6.527,1.403 10,1.403 v -25.305 c -10.754,-6.156 -18.398,-17.121 -20,-29.965 m 380,29.785 v 0 90.031 0 -90.031 M 464.859,390 h -25.484 c 0.035,3.473 0.645,6.785 1.496,10 v 0 H 206.574 c -7.094,6.227 -16.394,10 -26.574,10 -0.023,0 -0.043,0 -0.066,0 0.023,0 0.043,0 0.066,0 h 320 c 5.867,0 11.441,-1.266 16.465,-3.535 0.019,-0.047 0.043,-0.094 0.062,-0.141 -5.125,2.36 -10.828,3.676 -16.839,3.676 -14.856,0 -27.836,-8.035 -34.829,-20" /><path
         id="path52"
         style="fill:#b7b7a7;fill-opacity:1;fill-rule:nonzero;stroke:none"
         d="m 499.688,329.375 c -3.34,0 -6.586,0.406 -9.688,1.172 v 20.324 0 c -3.312,-0.879 -6.727,-1.496 -10.312,-1.496 -5.958,0 -11.614,1.293 -16.704,3.613 -2.316,5.086 -3.609,10.742 -3.609,16.7 0,7.406 1.996,14.347 5.484,20.312 6.993,11.965 19.973,20 34.829,20 6.011,0 11.714,-1.316 16.839,-3.676 C 518.758,401.34 520,395.813 520,390 v -55.141 0 c -5.965,-3.488 -12.906,-5.484 -20.312,-5.484" /><path
         id="path54"
         style="fill:#b7b7a7;fill-opacity:1;fill-rule:nonzero;stroke:none"
         d="m 150,342.762 c -5.355,5.957 -8.957,13.523 -10,21.883 -0.207,1.652 -0.312,3.335 -0.312,5.043 0,22.242 18.011,40.277 40.246,40.312 0.023,0 0.043,0 0.066,0 10.18,0 19.48,-3.773 26.574,-10 h -7.761 c 0.878,-3.312 1.5,-6.727 1.5,-10.312 v 0 c 0,-22.262 -18.047,-40.313 -40.313,-40.313 -3.473,0 -6.785,0.574 -10,1.402 v -8.015" /><path
         id="path56"
         style="fill:#b7b7a7;fill-opacity:1;fill-rule:nonzero;stroke:none"
         d="m 479.688,189.688 c -1.063,0 -2.059,0.23 -3.098,0.312 h -11.91 v 0 c -3.375,5.895 -5.305,12.723 -5.305,20 0,22.266 18.051,40.313 40.313,40.313 7.406,0 14.347,-1.997 20.312,-5.485 v 0 V 230 c 0,-2.762 -0.281,-5.457 -0.812,-8.062 -3.739,-18.399 -20,-32.25 -39.5,-32.25" /><path
         id="path58"
         style="fill:#b7b7a7;fill-opacity:1;fill-rule:nonzero;stroke:none"
         d="m 160,189.688 c -5.957,0 -11.613,1.292 -16.699,3.613 -1.656,3.629 -2.789,7.547 -3.301,11.656 -0.207,1.652 -0.312,3.336 -0.312,5.043 0,1.707 0.105,3.391 0.312,5.043 v 0 c 1.602,12.844 9.246,23.809 20,29.965 5.895,3.375 12.723,5.305 20,5.305 5.957,0 11.613,-1.293 16.699,-3.614 2.321,-5.086 3.614,-10.742 3.614,-16.699 v 0 c 0,-3.473 -0.575,-6.785 -1.403,-10 v 0 h 20.153 c 0.816,-3.195 1.25,-6.551 1.25,-10 0,-7.277 -1.93,-14.105 -5.305,-20 v 0 h -51.91 c -1.039,-0.082 -2.035,-0.312 -3.098,-0.312" /><path
         id="path60"
         style="fill:#62a48d;fill-opacity:1;fill-rule:nonzero;stroke:none"
         d="M 288.762,258.762 C 271.512,269.301 260,288.305 260,310 v 0 c 0,33.137 26.863,60 60,60 21.695,0 40.699,-11.512 51.238,-28.762 C 362.137,346.797 351.441,350 340,350 c -33.137,0 -60,-26.863 -60,-60 0,-11.441 3.203,-22.137 8.762,-31.238" /><path
         id="path62"
         style="fill:#404a5f;fill-opacity:1;fill-rule:nonzero;stroke:none"
         d="m 320,250 c -11.445,0 -22.137,3.203 -31.238,8.762 C 283.203,267.863 280,278.559 280,290 c 0,33.137 26.863,60 60,60 11.441,0 22.137,-3.203 31.238,-8.762 C 376.797,332.137 380,321.445 380,310 v 0 c 0,-33.137 -26.863,-60 -60,-60" /><path
         id="path64"
         style="fill:#77caa9;fill-opacity:1;fill-rule:nonzero;stroke:none"
         d="m 140,220 c -16.543,0 -30,13.457 -30,30 v 160 c 0,16.543 13.457,30 30,30 h 320 c 16.543,0 30,-13.457 30,-30 V 250 c 0,-16.543 -13.457,-30 -30,-30 H 140" /><path
         id="path66"
         style="fill:#e1e3cc;fill-opacity:1;fill-rule:nonzero;stroke:none"
         d="M 460,450 H 140 c -22.094,0 -40,-17.906 -40,-40 V 250 c 0,-22.094 17.906,-40 40,-40 h 320 c 22.09,0 40,17.906 40,40 v 160 c 0,22.094 -17.91,40 -40,40 z m 0,-20 c 11.027,0 20,-8.973 20,-20 V 250 c 0,-11.027 -8.973,-20 -20,-20 H 140 c -11.027,0 -20,8.973 -20,20 v 160 c 0,11.027 8.973,20 20,20 h 320" /><path
         id="path68"
         style="fill:#495672;fill-opacity:1;fill-rule:nonzero;stroke:none"
         d="m 360,330 c 0,-33.137 -26.863,-60 -60,-60 -33.137,0 -60,26.863 -60,60 0,33.137 26.863,60 60,60 33.137,0 60,-26.863 60,-60" /><path
         id="path70"
         style="fill:#e1e3cc;fill-opacity:1;fill-rule:nonzero;stroke:none"
         d="m 419.375,409.688 c 0,-22.262 18.051,-40.313 40.313,-40.313 22.261,0 40.312,18.051 40.312,40.313 0,22.261 -18.051,40.312 -40.312,40.312 -22.262,0 -40.313,-18.051 -40.313,-40.312" /><path
         id="path72"
         style="fill:#e1e3cc;fill-opacity:1;fill-rule:nonzero;stroke:none"
         d="m 99.6875,409.688 c 0,-22.262 18.0465,-40.313 40.3125,-40.313 22.266,0 40.313,18.051 40.313,40.313 C 180.313,431.949 162.266,450 140,450 117.734,450 99.6875,431.949 99.6875,409.688" /><path
         id="path74"
         style="fill:#e1e3cc;fill-opacity:1;fill-rule:nonzero;stroke:none"
         d="m 419.375,250 c 0,-22.266 18.051,-40.312 40.313,-40.312 22.261,0 40.312,18.046 40.312,40.312 0,22.266 -18.051,40.313 -40.312,40.313 -22.262,0 -40.313,-18.047 -40.313,-40.313" /><path
         id="path76"
         style="fill:#e1e3cc;fill-opacity:1;fill-rule:nonzero;stroke:none"
         d="m 99.6875,250 c 0,-22.266 18.0465,-40.312 40.3125,-40.312 22.266,0 40.313,18.046 40.313,40.312 0,22.266 -18.047,40.313 -40.313,40.313 -22.266,0 -40.3125,-18.047 -40.3125,-40.313" /></g></g></svg>