<?xml version="1.0" encoding="UTF-8" standalone="no"?>
<svg
   xmlns:dc="http://purl.org/dc/elements/1.1/"
   xmlns:cc="http://creativecommons.org/ns#"
   xmlns:rdf="http://www.w3.org/1999/02/22-rdf-syntax-ns#"
   xmlns:svg="http://www.w3.org/2000/svg"
   xmlns="http://www.w3.org/2000/svg"
   viewBox="0 0 85.333336 85.333336"
   height="85.333336"
   width="85.333336"
   xml:space="preserve"
   id="svg2"
   version="1.1"><metadata
     id="metadata8"><rdf:RDF><cc:Work
         rdf:about=""><dc:format>image/svg+xml</dc:format><dc:type
           rdf:resource="http://purl.org/dc/dcmitype/StillImage" /></cc:Work></rdf:RDF></metadata><defs
     id="defs6" /><g
     transform="matrix(1.3333333,0,0,-1.3333333,0,85.333333)"
     id="g10"><g
       transform="scale(0.1)"
       id="g12"><path
         id="path14"
         style="fill:#77caa9;fill-opacity:1;fill-rule:nonzero;stroke:none"
         d="M 640,320 C 640,143.27 496.73,0 320,0 143.27,0 0,143.27 0,320 0,496.73 143.27,640 320,640 496.73,640 640,496.73 640,320" /><path
         id="path16"
         style="fill:#62a48d;fill-opacity:1;fill-rule:nonzero;stroke:none"
         d="m 170,160 c -49.703,0 -90,40.293 -90,90 0,3.379 0.1875,6.719 0.5508,10 4.9726,-45 43.1252,-80 89.4492,-80 39.188,0 72.527,25.047 84.879,60.004 h 4.57 C 254.477,195.004 216.324,160 170,160 m -59.168,100 c -0.547,3.254 -0.832,6.594 -0.832,10 0,33.082 26.914,60 60,60 26.074,0 48.316,-16.719 56.574,-40 h -11.89 c -10.993,12.27 -26.954,20 -44.684,20 -29.68,0 -54.391,-21.66 -59.168,-50" /><path
         id="path18"
         style="fill:#62a48d;fill-opacity:1;fill-rule:nonzero;stroke:none"
         d="m 470,160 c -49.707,0 -90,40.293 -90,90 0,3.379 0.188,6.719 0.551,10 4.972,-45 43.125,-80 89.449,-80 46.324,0 84.477,35 89.449,80 0.364,-3.281 0.551,-6.621 0.551,-10 0,-49.707 -40.297,-90 -90,-90 m 59.168,100 c -4.777,28.34 -29.488,50 -59.168,50 -4.973,0 -9.809,-0.609 -14.434,-1.754 l -9.148,16.926 C 453.66,328.277 461.633,330 470,330 c 33.086,0 60,-26.918 60,-60 0,-3.406 -0.285,-6.746 -0.832,-10 m -118.336,0 c -0.547,3.254 -0.832,6.594 -0.832,10 0,13.723 4.629,26.383 12.41,36.5 l 6.781,-12.551 C 419.711,285.141 413.074,273.305 410.832,260" /><path
         id="path20"
         style="fill:#495672;fill-opacity:1;fill-rule:nonzero;stroke:none"
         d="m 170,360 c -49.703,0 -90,-40.293 -90,-90 0,-49.707 40.297,-90 90,-90 49.707,0 90,40.293 90,90 0,49.707 -40.293,90 -90,90 m 0,-30 c 33.086,0 60,-26.918 60,-60 0,-33.082 -26.914,-60 -60,-60 -33.086,0 -60,26.918 -60,60 0,33.082 26.914,60 60,60" /><path
         id="path22"
         style="fill:#495672;fill-opacity:1;fill-rule:nonzero;stroke:none"
         d="m 470,360 c -49.707,0 -90,-40.293 -90,-90 0,-49.707 40.293,-90 90,-90 49.703,0 90,40.293 90,90 0,49.707 -40.297,90 -90,90 m 0,-30 c 33.086,0 60,-26.918 60,-60 0,-33.082 -26.914,-60 -60,-60 -33.082,0 -60,26.918 -60,60 0,33.082 26.918,60 60,60" /><path
         id="path24"
         style="fill:#62a48d;fill-opacity:1;fill-rule:nonzero;stroke:none"
         d="m 330,240.004 h -70.551 c 0.364,3.281 0.551,6.617 0.551,9.996 0,3.379 -0.187,6.719 -0.551,10 v 0 H 330 c 3.273,0 6.383,1.039 9,3 l 20,15 c 0.809,0.605 1.535,1.277 2.184,2 0.285,-0.316 0.558,-0.648 0.82,-0.996 4.969,-6.625 3.621,-16.031 -3.004,-21 l -20,-15 c -2.598,-1.945 -5.754,-3 -9,-3 m -108.051,0 H 180 c -8.285,0 -15,6.715 -15,15 0,3.84 1.441,7.344 3.816,10 C 171.563,261.934 175.555,260 180,260 v 0 h 49.164 0.004 c -1.211,-7.176 -3.695,-13.922 -7.219,-19.996" /><path
         id="path26"
         style="fill:#538777;fill-opacity:1;fill-rule:nonzero;stroke:none"
         d="m 259.449,240.004 h -4.57 c 2.254,6.367 3.805,13.062 4.57,19.996 0.364,-3.281 0.551,-6.621 0.551,-10 0,-3.379 -0.187,-6.715 -0.551,-9.996 M 229.168,260 h -0.004 0.004 v 0" /><path
         id="path28"
         style="fill:#404a5f;fill-opacity:1;fill-rule:nonzero;stroke:none"
         d="m 254.879,240.004 h -32.93 c 3.524,6.074 6.008,12.82 7.219,19.996 v 0 h 30.281 v 0 c -0.765,-6.934 -2.316,-13.629 -4.57,-19.996" /><path
         id="path30"
         style="fill:#ffffff;fill-opacity:1;fill-rule:nonzero;stroke:none"
         d="m 180,260 h 150 c 3.273,0 6.383,1.039 9,3 l 20,15 c 6.629,4.973 7.969,14.371 3,21 -4.973,6.629 -14.371,7.969 -21,3 L 325,290 H 180 c -8.285,0 -15,-6.715 -15,-15 0,-8.285 6.715,-15 15,-15 v 0" /><path
         id="path32"
         style="fill:#f3cc70;fill-opacity:1;fill-rule:nonzero;stroke:none"
         d="m 416.805,421.367 10,-18.5 c 3.937,-7.289 13.039,-10 20.328,-6.062 7.289,3.941 10.004,13.043 6.062,20.328 l -10,18.5 c -3.937,7.289 -13.039,10.004 -20.328,6.062 -7.289,-3.937 -10.004,-13.039 -6.062,-20.328" /><path
         id="path34"
         style="fill:#62a48d;fill-opacity:1;fill-rule:nonzero;stroke:none"
         d="m 549.988,316.074 c -0.941,0 -1.886,0.09 -2.82,0.266 C 531.426,342.5 502.758,360 470,360 c -13.539,0 -26.379,-2.988 -37.898,-8.344 l -7.59,14.035 c 0.468,0.149 0.937,0.325 1.398,0.52 v 0.004 l 0.02,0.008 c 1.246,0.543 19.511,7.707 43.359,7.707 0.07,0 0.137,0 0.207,0 21.391,-0.071 46.723,-5.36 70.899,-25.453 2.804,-2.336 6.21,-3.477 9.597,-3.477 1.832,0 3.66,0.336 5.383,0.992 1.414,-1.09 2.824,-2.222 4.23,-3.394 6.364,-5.301 7.219,-14.762 1.918,-21.129 -2.968,-3.559 -7.23,-5.395 -11.535,-5.395" /><path
         id="path36"
         style="fill:#404a5f;fill-opacity:1;fill-rule:nonzero;stroke:none"
         d="m 547.168,316.34 c -2.414,0.461 -4.746,1.523 -6.773,3.211 -24.004,20.004 -49.957,25.441 -71.071,25.441 -12.765,0 -23.758,-1.984 -31.492,-3.941 l -5.73,10.605 C 443.621,357.012 456.461,360 470,360 c 32.758,0 61.426,-17.5 77.168,-43.66" /><path
         id="path38"
         style="fill:#62a48d;fill-opacity:1;fill-rule:nonzero;stroke:none"
         d="m 283.055,290 c -10.832,5.047 -21.813,12.051 -32.918,21.008 C 235.223,340.094 204.934,360 170,360 c -25.227,0 -48.031,-10.379 -64.371,-27.102 -4.254,-2.121 -6.6524,-3.839 -6.711,-3.882 -2.6719,-1.953 -5.7813,-2.895 -8.8633,-2.895 -4.5977,0 -9.1406,2.102 -12.0742,6.07 -4.8985,6.625 -3.5742,15.938 3.0195,20.883 0.2266,0.172 1.6484,1.223 4.1289,2.739 1.5703,-0.54 3.2227,-0.813 4.8828,-0.813 3.1172,0 6.2578,0.965 8.9453,2.969 l 0.6719,0.457 c 3.4961,2.359 19.1521,11.578 40.1251,11.578 0.082,0 0.16,0 0.246,-0.004 h 78.82 c 0.008,-0.012 0.02,-0.023 0.032,-0.035 4.492,-4.988 8.914,-9.613 13.257,-13.891 H 214.27 c 39.57,-46.269 75.07,-58.996 102.14,-59 8.047,0 15.344,1.125 21.785,2.824 L 325,290 h -41.945 m 81.793,2.148 c -0.344,2.411 -1.285,4.766 -2.848,6.852 -2.496,3.328 -6.113,5.324 -9.934,5.855 11.493,5.25 17.934,11.219 17.934,11.219 0,2.688 -0.422,5.215 -1.234,7.594 5.976,4.305 9.867,8.371 11.793,10.578 3.226,-6.019 4.441,-12.23 4.441,-18.172 0,-3.308 -1.094,-6.523 -3.109,-9.144 -0.43,-0.559 -6.219,-7.938 -17.043,-14.782 m -19.707,52.145 c -16.403,6.73 -39.676,10.277 -65.961,11.391 -5.676,3.879 -11.715,8.601 -18.094,14.316 28.637,-0.023 54.66,-2.805 71.879,-8.324 8.719,-2.727 14.988,-6.192 18.187,-9.172 1.09,-0.996 1.852,-1.899 2.399,-2.719 -1.332,-1.094 -2.938,-2.281 -4.785,-3.437 -1.125,-0.703 -2.332,-1.395 -3.625,-2.055" /><path
         id="path40"
         style="fill:#404a5f;fill-opacity:1;fill-rule:nonzero;stroke:none"
         d="m 250.137,311.008 c -10.328,8.328 -20.766,18.347 -31.285,30.031 l -0.036,0.035 H 140 c -15.129,0 -27.309,-4.648 -34.371,-8.176 C 121.969,349.621 144.773,360 170,360 c 34.934,0 65.223,-19.906 80.137,-48.992" /><path
         id="path42"
         style="fill:#d4d3d1;fill-opacity:1;fill-rule:nonzero;stroke:none"
         d="m 323.824,280.309 c -13.304,0 -26.914,3.242 -40.769,9.691 H 325 l 13.195,9.898 c 5.203,1.372 9.848,3.122 13.871,4.957 3.821,-0.531 7.438,-2.527 9.934,-5.855 1.563,-2.086 2.504,-4.441 2.848,-6.852 -9.118,-5.769 -21.813,-11.16 -37.879,-11.781 -1.047,-0.039 -2.098,-0.058 -3.145,-0.058" /><path
         id="path44"
         style="fill:#538777;fill-opacity:1;fill-rule:nonzero;stroke:none"
         d="m 316.41,297.074 c -27.07,0.004 -62.57,12.731 -102.14,59 h 17.839 c 15.426,-15.176 29.95,-26 43.661,-33.445 17.496,-9.516 33.769,-13.391 48.007,-13.391 0.036,0 0.071,0 0.106,0 0.023,0 0.047,0 0.07,0 18.555,0 33.078,6.492 42.633,12.914 0.754,0.504 1.48,1.012 2.18,1.516 0.812,-2.379 1.234,-4.906 1.234,-7.594 0,0 -6.441,-5.969 -17.934,-11.219 -0.687,0.098 -1.382,0.145 -2.078,0.145 -3.133,0 -6.289,-0.977 -8.988,-3 l -2.805,-2.102 c -6.441,-1.699 -13.738,-2.824 -21.785,-2.824 m 7.473,42.16 c -8.918,0.02 -19.988,2.293 -33.809,9.766 -3.469,1.879 -7.097,4.09 -10.894,6.684 26.285,-1.114 49.558,-4.661 65.961,-11.391 -5.485,-2.809 -12.481,-5.043 -21.258,-5.059" /><path
         id="path46"
         style="fill:#aeabaa;fill-opacity:1;fill-rule:nonzero;stroke:none"
         d="M 338.195,299.898 341,302 c 2.699,2.023 5.855,3 8.988,3 0.696,0 1.391,-0.047 2.078,-0.145 -4.023,-1.835 -8.668,-3.585 -13.871,-4.957" /><path
         id="path48"
         style="fill:#c84755;fill-opacity:1;fill-rule:nonzero;stroke:none"
         d="m 425.91,366.215 0.02,0.008 c 1.246,0.543 19.613,7.746 43.566,7.707 21.391,-0.071 46.723,-5.36 70.899,-25.453 6.367,-5.301 15.824,-4.446 21.128,1.921 5.301,6.364 4.446,15.821 -1.918,21.125 -30.371,25.372 -63.714,32.469 -90.109,32.403 -31.789,-0.051 -54.254,-9.684 -55.406,-10.137 -7.613,-3.266 -11.141,-12.086 -7.879,-19.699 3.266,-7.613 12.086,-11.141 19.699,-7.879 v 0.004" /><path
         id="path50"
         style="fill:#e08e4c;fill-opacity:1;fill-rule:nonzero;stroke:none"
         d="M 260,385 H 214.27 C 302.199,282.18 370,345 370,345 c 0,29.262 -50,40 -110,40" /><path
         id="path52"
         style="fill:#c84755;fill-opacity:1;fill-rule:nonzero;stroke:none"
         d="m 99,358 -5.1719,6.895 5.0938,-6.954 L 99,358 l -5.1719,6.895 5.0938,-6.954 0.707,0.485 C 103.141,360.797 118.902,370.074 140,370 h 120 c 29.066,0.047 55.527,-2.734 72.965,-8.324 8.719,-2.727 14.988,-6.192 18.187,-9.172 1.625,-1.488 2.528,-2.77 3.059,-3.871 0.519,-1.121 0.773,-2.11 0.789,-3.633 h 15 l -11.891,9.148 3.907,-3.003 -3.817,3.117 -0.09,-0.114 3.907,-3.003 -3.817,3.117 c -0.191,-0.254 -3.566,-4.246 -9.433,-7.914 -5.911,-3.688 -14.036,-7.094 -24.883,-7.114 -8.918,0.02 -19.988,2.293 -33.809,9.766 -13.793,7.473 -30.23,20.254 -48.926,41.035 -5.543,6.16 -15.027,6.656 -21.183,1.113 -6.156,-5.539 -6.656,-15.027 -1.113,-21.183 20.433,-22.695 39.343,-37.793 56.918,-47.336 17.539,-9.539 33.847,-13.41 48.113,-13.391 18.586,-0.015 33.137,6.485 42.703,12.914 9.617,6.453 14.602,12.813 15.305,13.703 2.035,2.645 3.109,5.809 3.109,9.145 0.016,5.793 -1.293,11.543 -3.742,16.609 -4.317,8.95 -11.57,15.43 -19.75,20.246 -12.371,7.211 -27.492,11.403 -44.711,14.211 C 299.59,398.824 280.281,399.996 260,400 H 140 C 122.48,399.992 108.004,395.641 97.8398,391.289 87.668,386.922 81.7227,382.535 81,382 c -6.6289,-4.969 -7.9727,-14.371 -3,-21 4.9688,-6.629 14.3711,-7.969 21,-3 v 0" /><path
         id="path54"
         style="fill:#62a48d;fill-opacity:1;fill-rule:nonzero;stroke:none"
         d="m 470.016,234.996 c -5.332,0 -10.5,2.852 -13.207,7.871 l -27.618,51.082 c 7.332,6.809 16.36,11.813 26.375,14.297 l 27.625,-51.113 c 3.942,-7.289 1.227,-16.391 -6.058,-20.324 -2.27,-1.227 -4.711,-1.813 -7.117,-1.813 M 407.258,334.527 361.055,420 H 320 c -8.285,0 -15,6.715 -15,15 0,8.285 6.715,15 15,15 h 50 c 5.508,0 10.574,-3.023 13.191,-7.867 l 27.309,-50.52 c -5.047,-4.121 -6.984,-11.234 -4.289,-17.523 1.848,-4.309 5.477,-7.313 9.66,-8.512 -0.945,-0.363 -1.551,-0.617 -1.777,-0.715 -7.617,-3.265 -11.145,-12.086 -7.883,-19.699 1.199,-2.785 3.144,-5.027 5.496,-6.59 -1.527,-1.301 -3.012,-2.652 -4.449,-4.047" /><path
         id="path56"
         style="fill:#538777;fill-opacity:1;fill-rule:nonzero;stroke:none"
         d="M 429.191,293.949 422.41,306.5 c 6.231,8.109 14.488,14.586 24.008,18.672 l 9.148,-16.926 c -10.015,-2.484 -19.043,-7.488 -26.375,-14.297" /><path
         id="path58"
         style="fill:#404a5f;fill-opacity:1;fill-rule:nonzero;stroke:none"
         d="m 422.41,306.5 -15.152,28.027 c 1.437,1.395 2.922,2.746 4.449,4.047 2.453,-1.625 5.348,-2.511 8.309,-2.511 1.972,0 3.972,0.39 5.89,1.222 0.164,0.07 4.567,1.906 11.926,3.766 l 8.586,-15.879 c -9.52,-4.086 -17.777,-10.563 -24.008,-18.672" /><path
         id="path60"
         style="fill:#538777;fill-opacity:1;fill-rule:nonzero;stroke:none"
         d="m 411.707,338.574 c -2.352,1.563 -4.297,3.805 -5.496,6.59 -3.262,7.613 0.266,16.434 7.883,19.699 0.226,0.098 0.832,0.352 1.777,0.715 1.336,-0.383 2.727,-0.582 4.137,-0.582 1.5,0 3.015,0.227 4.504,0.695 l 7.59,-14.035 c -7.399,-3.441 -14.254,-7.855 -20.395,-13.082" /><path
         id="path62"
         style="fill:#394051;fill-opacity:1;fill-rule:nonzero;stroke:none"
         d="m 420.016,336.063 c -2.961,0 -5.856,0.886 -8.309,2.511 6.141,5.227 12.996,9.641 20.395,13.082 l 5.73,-10.605 c -7.359,-1.86 -11.762,-3.696 -11.926,-3.766 -1.918,-0.832 -3.918,-1.222 -5.89,-1.222" /><path
         id="path64"
         style="fill:#a43f4a;fill-opacity:1;fill-rule:nonzero;stroke:none"
         d="m 420.008,364.996 c -1.41,0 -2.801,0.199 -4.137,0.582 -4.183,1.199 -7.812,4.203 -9.66,8.512 -2.695,6.289 -0.758,13.402 4.289,17.523 l 14.012,-25.922 c -1.489,-0.468 -3.004,-0.695 -4.504,-0.695" /><path
         id="path66"
         style="fill:#ffffff;fill-opacity:1;fill-rule:nonzero;stroke:none"
         d="m 320,440 h 41.055 l 95.75,-177.133 c 3.937,-7.289 13.039,-10 20.328,-6.062 7.289,3.937 10.004,13.039 6.062,20.328 l -100,185 C 380.578,466.977 375.504,470 370,470 h -50 c -8.285,0 -15,-6.715 -15,-15 0,-8.285 6.715,-15 15,-15" /></g></g></svg>