<?xml version="1.0" encoding="UTF-8" standalone="no"?>
<svg
   xmlns:dc="http://purl.org/dc/elements/1.1/"
   xmlns:cc="http://creativecommons.org/ns#"
   xmlns:rdf="http://www.w3.org/1999/02/22-rdf-syntax-ns#"
   xmlns:svg="http://www.w3.org/2000/svg"
   xmlns="http://www.w3.org/2000/svg"
   viewBox="0 0 85.333336 85.333336"
   height="85.333336"
   width="85.333336"
   xml:space="preserve"
   id="svg2"
   version="1.1"><metadata
     id="metadata8"><rdf:RDF><cc:Work
         rdf:about=""><dc:format>image/svg+xml</dc:format><dc:type
           rdf:resource="http://purl.org/dc/dcmitype/StillImage" /></cc:Work></rdf:RDF></metadata><defs
     id="defs6" /><g
     transform="matrix(1.3333333,0,0,-1.3333333,0,85.333333)"
     id="g10"><g
       transform="scale(0.1)"
       id="g12"><path
         id="path14"
         style="fill:#77caa9;fill-opacity:1;fill-rule:nonzero;stroke:none"
         d="M 640,320 C 640,143.27 496.73,0 320,0 143.27,0 0,143.27 0,320 0,496.73 143.27,640 320,640 496.73,640 640,496.73 640,320" /><path
         id="path16"
         style="fill:#62a48d;fill-opacity:1;fill-rule:nonzero;stroke:none"
         d="m 174.25,129.34 c -14.172,0 -27.32,5.535 -35.738,16.461 -15.934,20.715 -8.852,52.929 15.851,71.957 8.512,6.551 18.004,10.496 27.434,12.265 l -0.234,0.11 c 0,0 0.683,0.062 1.73,0.234 l 1.234,0.254 c 8.024,1.496 35.473,15.266 35.473,45.004 v 129.93 c 0,11.777 4.891,24.258 16.668,27.84 l 192,36.289 c 2.168,0.664 4.262,0.98 6.234,0.98 8.739,0 15.098,-6.199 15.098,-15.809 V 231.563 c 0,-29.063 -12.371,-47.661 -24.875,-57.301 -11.668,-8.989 -25.172,-13.426 -37.859,-13.426 -14.18,0 -27.34,5.543 -35.762,16.473 -15.957,20.714 -8.852,52.929 15.851,71.957 8.598,6.617 18.176,10.605 27.692,12.332 l -0.129,0.043 0.895,0.105 2.089,0.387 c 8.043,1.512 32.098,8.34 32.098,38.035 v 84.184 L 240,348.063 V 214.688 c 0,-43.125 -17.816,-64.172 -27.867,-71.915 -11.672,-8.992 -25.188,-13.437 -37.883,-13.433" /><path
         id="path18"
         style="fill:#ffffff;fill-opacity:1;fill-rule:nonzero;stroke:none"
         d="m 138.512,165.801 c 15.961,-20.715 48.918,-22.059 73.621,-3.028 10.051,7.743 27.867,28.79 27.867,71.915 v 133.375 l 190,36.289 v -84.184 c 0,-29.695 -24.055,-36.523 -32.098,-38.035 l -2.089,-0.387 -0.895,-0.105 0.129,-0.043 c -9.516,-1.727 -19.094,-5.715 -27.692,-12.332 -24.703,-19.028 -31.808,-51.243 -15.851,-71.957 15.957,-20.711 48.918,-22.079 73.621,-3.047 12.504,9.64 24.875,28.238 24.875,57.301 v 223.292 c 0,11.778 -9.559,18.434 -21.332,14.829 l -192,-36.289 C 224.891,449.813 220,437.332 220,425.555 v -129.93 c 0,-29.738 -27.449,-43.512 -35.473,-45.004 l -1.234,-0.254 c -1.047,-0.172 -1.73,-0.234 -1.73,-0.234 l 0.234,-0.11 c -9.43,-1.769 -18.922,-5.714 -27.434,-12.265 -24.703,-19.028 -31.785,-51.242 -15.851,-71.957" /></g></g></svg>