<?xml version="1.0" encoding="UTF-8" standalone="no"?>
<svg
   xmlns:dc="http://purl.org/dc/elements/1.1/"
   xmlns:cc="http://creativecommons.org/ns#"
   xmlns:rdf="http://www.w3.org/1999/02/22-rdf-syntax-ns#"
   xmlns:svg="http://www.w3.org/2000/svg"
   xmlns="http://www.w3.org/2000/svg"
   viewBox="0 0 85.333336 85.333336"
   height="85.333336"
   width="85.333336"
   xml:space="preserve"
   id="svg2"
   version="1.1"><metadata
     id="metadata8"><rdf:RDF><cc:Work
         rdf:about=""><dc:format>image/svg+xml</dc:format><dc:type
           rdf:resource="http://purl.org/dc/dcmitype/StillImage" /></cc:Work></rdf:RDF></metadata><defs
     id="defs6" /><g
     transform="matrix(1.3333333,0,0,-1.3333333,0,85.333333)"
     id="g10"><g
       transform="scale(0.1)"
       id="g12"><path
         id="path14"
         style="fill:#c84755;fill-opacity:1;fill-rule:nonzero;stroke:none"
         d="M 640,320 C 640,143.27 496.73,0 320,0 143.27,0 0,143.27 0,320 0,496.73 143.27,640 320,640 496.73,640 640,496.73 640,320" /><path
         id="path16"
         style="fill:#a43f4a;fill-opacity:1;fill-rule:nonzero;stroke:none"
         d="M 480,100 H 160 c -22.09,0 -40,17.91 -40,40 v 280 0 -260 c 0,-22.09 17.91,-40 40,-40 h 320 c 22.09,0 40,17.91 40,40 v -20 c 0,-22.09 -17.91,-40 -40,-40" /><path
         id="path18"
         style="fill:#e1e3cc;fill-opacity:1;fill-rule:nonzero;stroke:none"
         d="m 520,160 c 0,-22.09 -17.91,-40 -40,-40 H 160 c -22.09,0 -40,17.91 -40,40 v 280 c 0,22.09 17.91,40 40,40 h 320 c 22.09,0 40,-17.91 40,-40 V 160" /><path
         id="path20"
         style="fill:#a43f4a;fill-opacity:1;fill-rule:nonzero;stroke:none"
         d="m 520,180 v 260 c 0,22.09 -17.91,40 -40,40 H 160 c -22.09,0 -40,-17.91 -40,-40 v 20 c 0,22.09 17.91,40 40,40 h 320 c 22.09,0 40,-17.91 40,-40 v -280 0" /><path
         id="path22"
         style="fill:#b7b7a7;fill-opacity:1;fill-rule:nonzero;stroke:none"
         d="M 480,140 H 160 c -22.09,0 -40,17.91 -40,40 v 260 c 0,22.09 17.91,40 40,40 h 320 c 22.09,0 40,-17.91 40,-40 V 180 c 0,-22.09 -17.91,-40 -40,-40" /><path
         id="path24"
         style="fill:#e1e3cc;fill-opacity:1;fill-rule:nonzero;stroke:none"
         d="m 520,200 c 0,-22.09 -17.91,-40 -40,-40 H 160 c -22.09,0 -40,17.91 -40,40 v 280 c 0,22.09 17.91,40 40,40 h 320 c 22.09,0 40,-17.91 40,-40 V 200" /><path
         id="path26"
         style="fill:#495672;fill-opacity:1;fill-rule:nonzero;stroke:none"
         d="M 280,280 H 160 V 400 H 280 V 280" /><path
         id="path28"
         style="fill:#495672;fill-opacity:1;fill-rule:nonzero;stroke:none"
         d="M 480,360 H 360 v 10 h 120 v -10" /><path
         id="path30"
         style="fill:#495672;fill-opacity:1;fill-rule:nonzero;stroke:none"
         d="M 480,380 H 360 v 10 h 120 v -10" /><path
         id="path32"
         style="fill:#495672;fill-opacity:1;fill-rule:nonzero;stroke:none"
         d="m 350,360 h -30 v 40 h 30 v -40" /><path
         id="path34"
         style="fill:#495672;fill-opacity:1;fill-rule:nonzero;stroke:none"
         d="M 480,330 H 320 v 10 h 160 v -10" /><path
         id="path36"
         style="fill:#495672;fill-opacity:1;fill-rule:nonzero;stroke:none"
         d="M 480,310 H 320 v 10 h 160 v -10" /><path
         id="path38"
         style="fill:#495672;fill-opacity:1;fill-rule:nonzero;stroke:none"
         d="M 480,290 H 320 v 10 h 160 v -10" /><path
         id="path40"
         style="fill:#495672;fill-opacity:1;fill-rule:nonzero;stroke:none"
         d="M 480,270 H 320 v 10 h 160 v -10" /><path
         id="path42"
         style="fill:#495672;fill-opacity:1;fill-rule:nonzero;stroke:none"
         d="M 480,240 H 358.75 v 10 H 480 v -10" /><path
         id="path44"
         style="fill:#495672;fill-opacity:1;fill-rule:nonzero;stroke:none"
         d="M 280,240 H 160 v 10 h 120 v -10" /><path
         id="path46"
         style="fill:#495672;fill-opacity:1;fill-rule:nonzero;stroke:none"
         d="M 280,220 H 160 v 10 h 120 v -10" /><path
         id="path48"
         style="fill:#495672;fill-opacity:1;fill-rule:nonzero;stroke:none"
         d="M 280,200 H 160 v 10 h 120 v -10" /><path
         id="path50"
         style="fill:#495672;fill-opacity:1;fill-rule:nonzero;stroke:none"
         d="M 280,180 H 160 v 10 h 120 v -10" /><path
         id="path52"
         style="fill:#495672;fill-opacity:1;fill-rule:nonzero;stroke:none"
         d="M 480,220 H 320 v 10 h 160 v -10" /><path
         id="path54"
         style="fill:#495672;fill-opacity:1;fill-rule:nonzero;stroke:none"
         d="M 480,200 H 320 v 10 h 160 v -10" /><path
         id="path56"
         style="fill:#495672;fill-opacity:1;fill-rule:nonzero;stroke:none"
         d="M 480,180 H 320 v 10 h 160 v -10" /><path
         id="path58"
         style="fill:#e1e3cc;fill-opacity:1;fill-rule:nonzero;stroke:none"
         d="m 260,360 c 0,-11.047 -8.953,-20 -20,-20 -11.047,0 -20,8.953 -20,20 0,11.047 8.953,20 20,20 11.047,0 20,-8.953 20,-20" /><path
         id="path60"
         style="fill:#495672;fill-opacity:1;fill-rule:nonzero;stroke:none"
         d="M 480,440 H 160 v 40 h 320 v -40" /><path
         id="path62"
         style="fill:#e1e3cc;fill-opacity:1;fill-rule:nonzero;stroke:none"
         d="m 270,290 v 24.141 l -7.852,7.804 c -4.867,4.836 -12.761,4.836 -17.628,0 l -8.438,-8.386 -19.281,19.164 c -9.766,9.703 -25.594,9.703 -35.356,0 L 170,321.344 V 290 h 100" /></g></g></svg>