<?xml version="1.0" encoding="UTF-8" standalone="no"?>
<svg
   xmlns:dc="http://purl.org/dc/elements/1.1/"
   xmlns:cc="http://creativecommons.org/ns#"
   xmlns:rdf="http://www.w3.org/1999/02/22-rdf-syntax-ns#"
   xmlns:svg="http://www.w3.org/2000/svg"
   xmlns="http://www.w3.org/2000/svg"
   viewBox="0 0 85.333336 85.333336"
   height="85.333336"
   width="85.333336"
   xml:space="preserve"
   id="svg2"
   version="1.1"><metadata
     id="metadata8"><rdf:RDF><cc:Work
         rdf:about=""><dc:format>image/svg+xml</dc:format><dc:type
           rdf:resource="http://purl.org/dc/dcmitype/StillImage" /></cc:Work></rdf:RDF></metadata><defs
     id="defs6" /><g
     transform="matrix(1.3333333,0,0,-1.3333333,0,85.333333)"
     id="g10"><g
       transform="scale(0.1)"
       id="g12"><path
         id="path14"
         style="fill:#77caa9;fill-opacity:1;fill-rule:nonzero;stroke:none"
         d="M 640,320 C 640,143.27 496.73,0 320,0 143.27,0 0,143.27 0,320 0,496.73 143.27,640 320,640 496.73,640 640,496.73 640,320" /><path
         id="path16"
         style="fill:#62a48d;fill-opacity:1;fill-rule:nonzero;stroke:none"
         d="M 460,120 H 180 c -11.047,0 -20,8.953 -20,20 v 264.191 0 V 160 c 0,-11.047 8.953,-20 20,-20 h 280 c 11.047,0 20,8.953 20,20 v -20 c 0,-11.047 -8.953,-20 -20,-20" /><path
         id="path18"
         style="fill:#e1e3cc;fill-opacity:1;fill-rule:nonzero;stroke:none"
         d="m 480,160 c 0,-11.047 -8.953,-20 -20,-20 H 180 c -11.047,0 -20,8.953 -20,20 v 340 c 0,11.047 8.953,20 20,20 h 280 c 11.047,0 20,-8.953 20,-20 V 160" /><path
         id="path20"
         style="fill:#b7b7a7;fill-opacity:1;fill-rule:nonzero;stroke:none"
         d="m 405,220 c -8.285,0 -15,6.715 -15,15 v 79.617 0 V 255 c 0,-8.285 6.715,-15 15,-15 8.285,0 15,6.715 15,15 v -20 c 0,-8.285 -6.715,-15 -15,-15 m 60,80 c -8.285,0 -15,6.715 -15,15 v 25 c 0,4.816 -2.27,9.105 -5.801,11.848 1.985,2 3.914,4.047 5.801,6.14 V 335 c 0,-8.285 6.715,-15 15,-15 8.285,0 15,6.715 15,15 v -20 c 0,-8.285 -6.715,-15 -15,-15 m -75,36.73 V 370 c 0,8.285 -6.715,15 -15,15 -8.285,0 -15,-6.715 -15,-15 0,-8.285 -6.715,-15 -15,-15 -8.285,0 -15,6.715 -15,15 0,3.852 0,16.73 0,16.73 0,9.52 -10.566,13.27 -15,13.27 l -139.09,17.945 c -2.672,6.739 -4.887,13.696 -6.601,20.856 L 315,420 c 4.434,0 15,-3.75 15,-13.27 0,0 0,-12.878 0,-16.73 0,-8.285 6.715,-15 15,-15 8.285,0 15,6.715 15,15 0,8.285 6.715,15 15,15 8.285,0 15,-6.715 15,-15 v -53.27 0 m 30,19.946 V 360 c 0,8.285 6.715,15 15,15 1.047,0 2.066,-0.105 3.051,-0.312 -5.516,-6.481 -11.555,-12.512 -18.051,-18.012" /><path
         id="path22"
         style="fill:#c84755;fill-opacity:1;fill-rule:nonzero;stroke:none"
         d="M 460,520 H 180 c -11.047,0 -20,-8.953 -20,-20 v -60 c 0,-11.047 0,0 0,0 l 155,-20 c 4.434,0 15,-3.75 15,-13.27 0,0 0,-12.878 0,-16.73 0,-8.285 6.715,-15 15,-15 8.285,0 15,6.715 15,15 0,8.285 6.715,15 15,15 8.285,0 15,-6.715 15,-15 V 255 c 0,-8.285 6.715,-15 15,-15 8.285,0 15,6.715 15,15 v 105 c 0,8.285 6.715,15 15,15 8.285,0 15,-6.715 15,-15 v -25 c 0,-8.285 6.715,-15 15,-15 8.285,0 15,6.715 15,15 v 165 c 0,11.047 -8.953,20 -20,20" /><path
         id="path24"
         style="fill:#62a48d;fill-opacity:1;fill-rule:nonzero;stroke:none"
         d="m 160,404.191 c -9.605,21.645 -14.949,45.594 -14.949,70.758 0,5.524 4.476,10 10,10 1.801,0 3.488,-0.472 4.949,-1.308 V 480 v 0 -75.809" /><path
         id="path26"
         style="fill:#b7b7a7;fill-opacity:1;fill-rule:nonzero;stroke:none"
         d="m 320,300 c -71.305,0 -132.777,42.867 -160,104.191 V 480 v 3.641 0 -3.641 0 -60 c 0,-3.684 0,-4.91 0,-4.91 V 420 l 15.91,-2.055 C 198.668,360.633 254.68,320 320,320 c 25.172,0 48.965,6.035 70,16.73 V 314.617 C 368.555,305.219 344.879,300 320,300" /><path
         id="path28"
         style="fill:#97978c;fill-opacity:1;fill-rule:nonzero;stroke:none"
         d="m 160,415.09 c 0,0 0,1.226 0,4.91 v 60 0 -40 c 0,-3.684 0,-4.91 0,-4.91 V 440 l 9.309,-1.199 c 1.714,-7.16 3.929,-14.117 6.601,-20.856 L 160,420 v -4.91" /><path
         id="path30"
         style="fill:#b7b7a7;fill-opacity:1;fill-rule:nonzero;stroke:none"
         d="M 420,331.465 V 340 c 0,8.285 6.715,15 15,15 3.465,0 6.66,-1.176 9.199,-3.152 -7.426,-7.493 -15.527,-14.321 -24.199,-20.383" /><path
         id="path32"
         style="fill:#97978c;fill-opacity:1;fill-rule:nonzero;stroke:none"
         d="m 420,340 v 16.676 c 6.496,5.5 12.535,11.531 18.051,18.012 C 444.871,373.281 450,367.238 450,360 v -2.012 c -1.887,-2.093 -3.816,-4.14 -5.801,-6.14 -2.539,1.976 -5.734,3.152 -9.199,3.152 -8.285,0 -15,-6.715 -15,-15" /><path
         id="path34"
         style="fill:#62a48d;fill-opacity:1;fill-rule:nonzero;stroke:none"
         d="m 480,404.195 v 79.446 c 1.461,0.836 3.148,1.308 4.949,1.308 5.524,0 10,-4.476 10,-10 0,-25.164 -5.344,-49.109 -14.949,-70.754" /><path
         id="path36"
         style="fill:#a43f4a;fill-opacity:1;fill-rule:nonzero;stroke:none"
         d="m 390,314.617 v 22.113 c 10.785,5.485 20.848,12.196 30,19.946 V 340 331.465 c -9.371,-6.551 -19.414,-12.207 -30,-16.848 m 60,43.371 V 360 c 0,7.238 -5.129,13.281 -11.949,14.688 23.008,27.046 36.898,62.058 36.898,100.261 0,3.723 2.035,6.969 5.051,8.692 v -79.446 c -7.543,-16.996 -17.715,-32.566 -30,-46.207 M 160,435.09 c 0,0 0,1.226 0,4.91 v 40 3.641 c 3.016,-1.723 5.051,-4.969 5.051,-8.692 0,-12.441 1.472,-24.547 4.258,-36.148 L 160,440 v -4.91" /><path
         id="path38"
         style="fill:#495672;fill-opacity:1;fill-rule:nonzero;stroke:none"
         d="M 474.949,494.949 C 474.945,452.129 457.621,413.457 429.566,385.383 401.492,357.328 362.82,340.004 320,340 c -42.82,0.004 -81.492,17.328 -109.566,45.383 -28.055,28.074 -45.379,66.746 -45.383,109.566 0,5.524 -4.477,10 -10,10 -5.524,0 -10,-4.476 -10,-10 C 145.055,398.324 223.371,320.008 320,320 c 96.625,0.008 174.941,78.324 174.949,174.949 0,5.524 -4.476,10 -10,10 -5.523,0 -10,-4.476 -10,-10" /></g></g></svg>