<?xml version="1.0" encoding="UTF-8" standalone="no"?>
<svg
   xmlns:dc="http://purl.org/dc/elements/1.1/"
   xmlns:cc="http://creativecommons.org/ns#"
   xmlns:rdf="http://www.w3.org/1999/02/22-rdf-syntax-ns#"
   xmlns:svg="http://www.w3.org/2000/svg"
   xmlns="http://www.w3.org/2000/svg"
   viewBox="0 0 85.333336 85.333336"
   height="85.333336"
   width="85.333336"
   xml:space="preserve"
   id="svg2"
   version="1.1"><metadata
     id="metadata8"><rdf:RDF><cc:Work
         rdf:about=""><dc:format>image/svg+xml</dc:format><dc:type
           rdf:resource="http://purl.org/dc/dcmitype/StillImage" /></cc:Work></rdf:RDF></metadata><defs
     id="defs6" /><g
     transform="matrix(1.3333333,0,0,-1.3333333,0,85.333333)"
     id="g10"><g
       transform="scale(0.1)"
       id="g12"><path
         id="path14"
         style="fill:#e1e3cc;fill-opacity:1;fill-rule:nonzero;stroke:none"
         d="M 640,320 C 640,143.27 496.73,0 320,0 143.27,0 0,143.27 0,320 0,496.73 143.27,640 320,640 496.73,640 640,496.73 640,320" /><path
         id="path16"
         style="fill:#b7b7a7;fill-opacity:1;fill-rule:nonzero;stroke:none"
         d="m 340,70 c -11.047,0 -20,8.9531 -20,20 V 280 H 140 c -22.055,0 -40,17.945 -40,40 v 70 c 0,22.055 17.945,40 40,40 h 40 v 20 c 0,11.047 8.953,20 20,20 h 320 c 11.047,0 20,-8.953 20,-20 v -40 -25 -15 -45 c 0,-8.285 -6.715,-15 -15,-15 -8.285,0 -15,6.715 -15,15 v 10 c 0,8.285 -6.715,15 -15,15 -8.285,0 -15,-6.715 -15,-15 v -30 c 0,-8.285 -6.715,-15 -15,-15 -8.285,0 -15,6.715 -15,15 v 30 c 0,8.285 -6.715,15 -15,15 -8.285,0 -15,-6.715 -15,-15 0,-8.285 -6.715,-15 -15,-15 -8.285,0 -15,6.715 -15,15 0,8.285 -6.715,15 -15,15 H 200 c -11.047,0 -20,8.953 -20,20 v 20 h -40 v -70 h 180 c 22.055,0 40,-17.945 40,-40 V 90 c 0,-11.0469 -8.953,-20 -20,-20" /><path
         id="path18"
         style="fill:#495672;fill-opacity:1;fill-rule:nonzero;stroke:none"
         d="m 360,110 v 190 c -0.012,22.098 -17.902,39.988 -40,40 H 140 v 0 70 0 h 180 c 11.047,0 20,8.953 20,20 0,11.047 -8.953,20 -20,20 H 140 c -22.098,-0.012 -39.988,-17.902 -40,-40 v -70 c 0.012,-22.098 17.902,-39.988 40,-40 h 180 v 0 -190 c 0,-11.0469 8.953,-20 20,-20 11.047,0 20,8.9531 20,20" /><path
         id="path20"
         style="fill:#c84755;fill-opacity:1;fill-rule:nonzero;stroke:none"
         d="m 540,345 c 0,-8.285 -6.715,-15 -15,-15 -8.285,0 -15,6.715 -15,15 v 60 c 0,8.285 6.715,15 15,15 8.285,0 15,-6.715 15,-15 v -60" /><path
         id="path22"
         style="fill:#c84755;fill-opacity:1;fill-rule:nonzero;stroke:none"
         d="m 480,325 c 0,-8.285 -6.715,-15 -15,-15 -8.285,0 -15,6.715 -15,15 v 60 c 0,8.285 6.715,15 15,15 8.285,0 15,-6.715 15,-15 v -60" /><path
         id="path24"
         style="fill:#c84755;fill-opacity:1;fill-rule:nonzero;stroke:none"
         d="m 510,400 c 0,-8.285 -6.715,-15 -15,-15 v -5 c -8.285,0 -15,11.715 -15,20 v -45 c 0,8.285 6.715,15 15,15 8.285,0 15,-6.715 15,-15 v 45" /><path
         id="path26"
         style="fill:#c84755;fill-opacity:1;fill-rule:nonzero;stroke:none"
         d="m 420,355 c 0,-8.285 -6.715,-15 -15,-15 -8.285,0 -15,6.715 -15,15 v 60 c 0,8.285 6.715,15 15,15 8.285,0 15,-6.715 15,-15 v -60" /><path
         id="path28"
         style="fill:#c84755;fill-opacity:1;fill-rule:nonzero;stroke:none"
         d="m 450,400 c 0,-8.285 -6.715,-15 -15,-15 v -5 c -8.285,0 -15,11.715 -15,20 v -45 c 0,8.285 6.715,15 15,15 8.285,0 15,-6.715 15,-15 v 45" /><path
         id="path30"
         style="fill:#c84755;fill-opacity:1;fill-rule:nonzero;stroke:none"
         d="m 390,400 c 0,-8.285 -6.715,-15 -15,-15 v -5 c -8.285,0 -15,11.715 -15,20 v -20 c 0,8.285 6.715,-10 15,-10 8.285,0 15,-6.715 15,-15 v 45" /><path
         id="path32"
         style="fill:#e08e4c;fill-opacity:1;fill-rule:nonzero;stroke:none"
         d="m 540,470 c 0,11.047 -8.953,20 -20,20 H 200 c -11.047,0 -20,-8.953 -20,-20 v -40 h 360 v 40" /><path
         id="path34"
         style="fill:#c84755;fill-opacity:1;fill-rule:nonzero;stroke:none"
         d="m 180,470 v -80 c 0,-11.047 8.953,-20 20,-20 h 320 c 11.047,0 20,8.953 20,20 v 40 l -360,40" /></g></g></svg>