<?xml version="1.0" encoding="UTF-8" standalone="no"?>
<svg
   xmlns:dc="http://purl.org/dc/elements/1.1/"
   xmlns:cc="http://creativecommons.org/ns#"
   xmlns:rdf="http://www.w3.org/1999/02/22-rdf-syntax-ns#"
   xmlns:svg="http://www.w3.org/2000/svg"
   xmlns="http://www.w3.org/2000/svg"
   viewBox="0 0 85.333336 85.333336"
   height="85.333336"
   width="85.333336"
   xml:space="preserve"
   id="svg2"
   version="1.1"><metadata
     id="metadata8"><rdf:RDF><cc:Work
         rdf:about=""><dc:format>image/svg+xml</dc:format><dc:type
           rdf:resource="http://purl.org/dc/dcmitype/StillImage" /></cc:Work></rdf:RDF></metadata><defs
     id="defs6" /><g
     transform="matrix(1.3333333,0,0,-1.3333333,0,85.333333)"
     id="g10"><g
       transform="scale(0.1)"
       id="g12"><path
         id="path14"
         style="fill:#e1e3cc;fill-opacity:1;fill-rule:nonzero;stroke:none"
         d="M 640,320 C 640,143.27 496.73,0 320,0 143.27,0 0,143.27 0,320 0,496.73 143.27,640 320,640 496.73,640 640,496.73 640,320" /><path
         id="path16"
         style="fill:#b7b7a7;fill-opacity:1;fill-rule:nonzero;stroke:none"
         d="m 183.359,132.613 c -27.882,0 -52.836,6.965 -63.359,17.489 30,19.898 37.332,47.836 44.945,70.148 3.961,11.605 9.258,22.344 18.938,32.02 13.512,13.511 33.289,21.148 52.398,21.148 2.258,0 4.508,-0.109 6.739,-0.324 6.308,18.621 23.265,43.191 56.89,76.816 61.27,61.27 156.875,131.688 189.938,131.688 3.82,0 6.804,-0.942 8.804,-2.942 19.332,-19.332 -60.398,-130.402 -128.742,-198.746 -33.703,-33.703 -58.312,-50.668 -76.949,-56.941 1.426,-14.813 -1.844,-30.512 -9.246,-43.797 -3.133,-5.617 -6.957,-10.805 -11.445,-15.289 -22.461,-22.461 -57.54,-31.27 -88.911,-31.27" /><path
         id="path18"
         style="fill:#e08e4c;fill-opacity:1;fill-rule:nonzero;stroke:none"
         d="M 299.91,369.91 C 231.57,301.57 231.836,270.496 251.168,251.168 270.496,231.836 301.57,231.57 369.91,299.91 438.254,368.254 517.984,479.324 498.652,498.652 479.324,517.984 368.254,438.254 299.91,369.91" /><path
         id="path20"
         style="fill:#c84755;fill-opacity:1;fill-rule:nonzero;stroke:none"
         d="m 120,170.102 c 22.363,-22.368 109.844,-28.645 152.27,13.781 4.488,4.484 8.312,9.672 11.445,15.289 -66.375,1.98 -101.453,24.078 -118.77,41.078 C 157.332,217.938 150,190 120,170.102" /><path
         id="path22"
         style="fill:#495672;fill-opacity:1;fill-rule:nonzero;stroke:none"
         d="m 277.574,277.574 c -24.406,24.406 -69.285,19.106 -93.691,-5.304 -9.68,-9.676 -14.977,-20.415 -18.938,-32.02 17.317,-17 51.305,-69.418 118.77,-41.078 13.894,24.933 13.781,58.48 -6.141,78.402" /><path
         id="path24"
         style="fill:#c84755;fill-opacity:1;fill-rule:nonzero;stroke:none"
         d="m 164.945,240.25 c 0,0 40.219,7.641 59.383,-20.59 19.168,-28.226 59.387,-20.488 59.387,-20.488 l -52.047,-28.754 -52.086,37.914 -14.637,31.918" /></g></g></svg>