<?xml version="1.0" encoding="UTF-8" standalone="no"?>
<svg
   xmlns:dc="http://purl.org/dc/elements/1.1/"
   xmlns:cc="http://creativecommons.org/ns#"
   xmlns:rdf="http://www.w3.org/1999/02/22-rdf-syntax-ns#"
   xmlns:svg="http://www.w3.org/2000/svg"
   xmlns="http://www.w3.org/2000/svg"
   viewBox="0 0 85.333336 85.333336"
   height="85.333336"
   width="85.333336"
   xml:space="preserve"
   id="svg2"
   version="1.1"><metadata
     id="metadata8"><rdf:RDF><cc:Work
         rdf:about=""><dc:format>image/svg+xml</dc:format><dc:type
           rdf:resource="http://purl.org/dc/dcmitype/StillImage" /></cc:Work></rdf:RDF></metadata><defs
     id="defs6" /><g
     transform="matrix(1.3333333,0,0,-1.3333333,0,85.333333)"
     id="g10"><g
       transform="scale(0.1)"
       id="g12"><path
         id="path14"
         style="fill:#e1e3cc;fill-opacity:1;fill-rule:nonzero;stroke:none"
         d="M 640,320 C 640,143.27 496.73,0 320,0 143.27,0 0,143.27 0,320 0,496.73 143.27,640 320,640 496.73,640 640,496.73 640,320" /><path
         id="path16"
         style="fill:#495672;fill-opacity:1;fill-rule:nonzero;stroke:none"
         d="m 470,280 c 0,-11.047 -8.953,-20 -20,-20 H 190 c -11.047,0 -20,8.953 -20,20 v 220 c 0,11.047 8.953,20 20,20 h 260 c 11.047,0 20,-8.953 20,-20 V 280" /><path
         id="path18"
         style="fill:#b7b7a7;fill-opacity:1;fill-rule:nonzero;stroke:none"
         d="m 320,60 c -24.215,0 -43.848,19.6328 -43.848,43.848 0,3.406 0.414,6.711 1.172,9.882 C 281.895,94.3906 299.266,80 320,80 c 20.734,0 38.105,14.3906 42.676,33.73 0.758,-3.171 1.172,-6.476 1.172,-9.882 C 363.848,79.6328 344.215,60 320,60 m 30.387,134.082 C 350.141,199.008 350,204.309 350,210 c 0,0 0.102,30 30,30 h 70 c 11.047,0 20,8.953 20,20 v -20 c 0,-11.047 -8.953,-20 -20,-20 h -70 c -22.973,0 -28.355,-17.711 -29.613,-25.918 m -60.715,1.148 C 286.402,219.996 260,220 260,220 h -70 c -11.047,0 -20,8.953 -20,20 v 20 c 0,11.047 0,20 0,20 v 0 0 -20 c 0,-11.047 8.953,-20 20,-20 h 70 c 0,0 30,0 30,-30 0,-5.25 -0.117,-10.172 -0.328,-14.77" /><path
         id="path20"
         style="fill:#e08e4c;fill-opacity:1;fill-rule:nonzero;stroke:none"
         d="m 170,300 c 0,0 0,-8.953 0,-20 v -20 c 0,-11.047 8.953,-20 20,-20 h 70 c 0,0 30,0 30,-30 0,-41.801 -7.5,-62.574 -9.965,-68.281 l -0.597,-1.321 -0.2,-0.398 h 0.075 c -1.989,-5.008 -3.161,-10.434 -3.161,-16.152 C 276.152,99.6328 295.785,80 320,80 c 24.215,0 43.848,19.6328 43.848,43.848 0,5.718 -1.172,11.144 -3.16,16.152 h 0.074 l -0.203,0.406 -0.586,1.301 C 357.508,147.402 350,168.176 350,210 c 0,0 0.102,30 30,30 h 70 c 11.047,0 20,8.953 20,20 v 20 c 0,11.047 0,20 0,20 H 170" /><path
         id="path22"
         style="fill:#b77744;fill-opacity:1;fill-rule:nonzero;stroke:none"
         d="M 470,270 H 170 v 30 -10 h 300 c 0,-2.941 0,-6.355 0,-10 v -10" /><path
         id="path24"
         style="fill:#ffffff;fill-opacity:1;fill-rule:nonzero;stroke:none"
         d="m 170,290 h 300 v 60 H 170 Z" /><path
         id="path26"
         style="fill:#404a5f;fill-opacity:1;fill-rule:nonzero;stroke:none"
         d="m 469.145,350 h -28.29 c -0.554,1.563 -0.855,3.246 -0.855,5 v 10 c 0,8.285 -6.715,15 -15,15 -8.285,0 -15,-6.715 -15,-15 v -15 h -30 v 15 c 0,8.285 -6.715,15 -15,15 -8.285,0 -15,-6.715 -15,-15 0,-8.285 -6.715,-15 -15,-15 v 0 c -8.285,0 -15,6.715 -15,15 0,8.285 -6.715,15 -15,15 H 170 c 0,0 0,8.953 0,20 v 40 40 c 0,11.047 8.953,20 20,20 h 260 c 11.047,0 20,-8.953 20,-20 V 355 c 0,-1.754 -0.301,-3.437 -0.855,-5" /><path
         id="path28"
         style="fill:#d4d3d1;fill-opacity:1;fill-rule:nonzero;stroke:none"
         d="m 395,320 c -8.285,0 -15,6.715 -15,15 v 15 h 30 v -15 c 0,-8.285 -6.715,-15 -15,-15 m 60,20 c -6.531,0 -12.086,4.176 -14.145,10 h 28.29 C 467.086,344.176 461.531,340 455,340 m -120,10 v 0 0" /><path
         id="path30"
         style="fill:#c84755;fill-opacity:1;fill-rule:nonzero;stroke:none"
         d="m 470,375 c 0,-8.285 -6.715,-15 -15,-15 -8.285,0 -15,6.715 -15,15 v 60 c 0,8.285 6.715,15 15,15 8.285,0 15,-6.715 15,-15 v -60" /><path
         id="path32"
         style="fill:#c84755;fill-opacity:1;fill-rule:nonzero;stroke:none"
         d="m 410,355 c 0,-8.285 -6.715,-15 -15,-15 -8.285,0 -15,6.715 -15,15 v 60 c 0,8.285 6.715,15 15,15 8.285,0 15,-6.715 15,-15 v -60" /><path
         id="path34"
         style="fill:#c84755;fill-opacity:1;fill-rule:nonzero;stroke:none"
         d="m 440,430 c 0,-8.285 -6.715,-15 -15,-15 v -5 c -8.285,0 -15,11.715 -15,20 v -45 c 0,8.285 6.715,15 15,15 8.285,0 15,-6.715 15,-15 v 45" /><path
         id="path36"
         style="fill:#c84755;fill-opacity:1;fill-rule:nonzero;stroke:none"
         d="m 350,385 c 0,-8.285 -6.715,-15 -15,-15 -8.285,0 -15,6.715 -15,15 v 60 c 0,8.285 6.715,15 15,15 8.285,0 15,-6.715 15,-15 v -60" /><path
         id="path38"
         style="fill:#c84755;fill-opacity:1;fill-rule:nonzero;stroke:none"
         d="m 380,430 c 0,-8.285 -6.715,-15 -15,-15 v -5 c -8.285,0 -15,11.715 -15,20 v -45 c 0,8.285 6.715,15 15,15 8.285,0 15,-6.715 15,-15 v 45" /><path
         id="path40"
         style="fill:#c84755;fill-opacity:1;fill-rule:nonzero;stroke:none"
         d="m 320,430 c 0,-8.285 -6.715,-15 -15,-15 v -5 c -8.285,0 0,11.715 0,20 v -20 c 0,8.285 -8.285,-10 0,-10 8.285,0 15,-6.715 15,-15 v 45" /><path
         id="path42"
         style="fill:#c84755;fill-opacity:1;fill-rule:nonzero;stroke:none"
         d="m 470,500 c 0,11.047 -8.953,20 -20,20 H 190 c -11.047,0 -20,-8.953 -20,-20 v -40 h 300 v 40" /><path
         id="path44"
         style="fill:#c84755;fill-opacity:1;fill-rule:nonzero;stroke:none"
         d="m 170,500 v -80 c 0,-11.047 0,-20 0,-20 h 280 c 11.047,0 20,8.953 20,20 v 40 l -300,40" /></g></g></svg>