<?xml version="1.0" encoding="UTF-8" standalone="no"?>
<svg
   xmlns:dc="http://purl.org/dc/elements/1.1/"
   xmlns:cc="http://creativecommons.org/ns#"
   xmlns:rdf="http://www.w3.org/1999/02/22-rdf-syntax-ns#"
   xmlns:svg="http://www.w3.org/2000/svg"
   xmlns="http://www.w3.org/2000/svg"
   viewBox="0 0 85.333336 85.333336"
   height="85.333336"
   width="85.333336"
   xml:space="preserve"
   id="svg2"
   version="1.1"><metadata
     id="metadata8"><rdf:RDF><cc:Work
         rdf:about=""><dc:format>image/svg+xml</dc:format><dc:type
           rdf:resource="http://purl.org/dc/dcmitype/StillImage" /></cc:Work></rdf:RDF></metadata><defs
     id="defs6" /><g
     transform="matrix(1.3333333,0,0,-1.3333333,0,85.333333)"
     id="g10"><g
       transform="scale(0.1)"
       id="g12"><path
         id="path14"
         style="fill:#e1e3cc;fill-opacity:1;fill-rule:nonzero;stroke:none"
         d="M 640,320 C 640,143.27 496.73,0 320,0 143.27,0 0,143.27 0,320 0,496.73 143.27,640 320,640 496.73,640 640,496.73 640,320" /><path
         id="path16"
         style="fill:#b7b7a7;fill-opacity:1;fill-rule:nonzero;stroke:none"
         d="m 320,69.4648 -20,40.0002 v 70.75 c -56.734,3.976 -100,24.48 -100,49.25 0,15.781 17.59,29.836 45,39 v 143.07 c -27.41,9.164 -45,23.219 -45,39 0,27.613 53.727,40 120,40 66.273,0 120,-12.387 120,-40 0,-15.781 -17.59,-29.836 -45,-39 v -143.07 c 27.41,-9.164 45,-23.219 45,-39 0,-24.77 -43.266,-45.274 -100,-49.25 v -70.75 L 320,69.4648" /><path
         id="path18"
         style="fill:#c84755;fill-opacity:1;fill-rule:nonzero;stroke:none"
         d="m 440,249.465 c 0,-27.613 -53.727,-50 -120,-50 -66.273,0 -120,22.387 -120,50 0,27.613 53.727,50 120,50 66.273,0 120,-22.387 120,-50" /><path
         id="path20"
         style="fill:#c84755;fill-opacity:1;fill-rule:nonzero;stroke:none"
         d="m 440,470.535 c 0,-27.613 -53.727,-50 -120,-50 -66.273,0 -120,22.387 -120,50 0,27.613 53.727,40 120,40 66.273,0 120,-12.387 120,-40" /><path
         id="path22"
         style="fill:#c84755;fill-opacity:1;fill-rule:nonzero;stroke:none"
         d="M 390,240 H 250 V 440 H 390 V 240" /><path
         id="path24"
         style="fill:#495672;fill-opacity:1;fill-rule:nonzero;stroke:none"
         d="m 300,129.465 20,-40.0002 20,40.0002 v 100 h -40 v -100" /><path
         id="path26"
         style="fill:#495672;fill-opacity:1;fill-rule:nonzero;stroke:none"
         d="m 340,227.59 c 0,-7.938 -8.953,-14.375 -20,-14.375 -11.047,0 -20,6.437 -20,14.375 0,7.937 8.953,14.375 20,14.375 11.047,0 20,-6.438 20,-14.375" /></g></g></svg>