<?xml version="1.0" encoding="UTF-8" standalone="no"?>
<svg
   xmlns:dc="http://purl.org/dc/elements/1.1/"
   xmlns:cc="http://creativecommons.org/ns#"
   xmlns:rdf="http://www.w3.org/1999/02/22-rdf-syntax-ns#"
   xmlns:svg="http://www.w3.org/2000/svg"
   xmlns="http://www.w3.org/2000/svg"
   viewBox="0 0 85.333336 85.333336"
   height="85.333336"
   width="85.333336"
   xml:space="preserve"
   id="svg2"
   version="1.1"><metadata
     id="metadata8"><rdf:RDF><cc:Work
         rdf:about=""><dc:format>image/svg+xml</dc:format><dc:type
           rdf:resource="http://purl.org/dc/dcmitype/StillImage" /></cc:Work></rdf:RDF></metadata><defs
     id="defs6" /><g
     transform="matrix(1.3333333,0,0,-1.3333333,0,85.333333)"
     id="g10"><g
       transform="scale(0.1)"
       id="g12"><path
         id="path14"
         style="fill:#e1e3cc;fill-opacity:1;fill-rule:nonzero;stroke:none"
         d="M 640,320 C 640,143.27 496.73,0 320,0 143.27,0 0,143.27 0,320 0,496.73 143.27,640 320,640 496.73,640 640,496.73 640,320" /><path
         id="path16"
         style="fill:#b7b7a7;fill-opacity:1;fill-rule:nonzero;stroke:none"
         d="m 270.004,90 c -2.207,0 -4.453,0.3672 -6.656,1.1484 -5.356,1.8868 -9.399,5.8243 -11.567,10.6176 0.508,-0.227 1.028,-0.438 1.563,-0.625 2.199,-0.778 4.449,-1.1449 6.656,-1.1449 8.242,0 15.961,5.1329 18.859,13.3479 l 66.829,189.351 c 4.179,-0.941 8.445,-1.648 12.789,-2.097 L 288.859,103.352 C 285.965,95.1328 278.246,90 270.004,90" /><path
         id="path18"
         style="fill:#495672;fill-opacity:1;fill-rule:nonzero;stroke:none"
         d="m 361.141,466.656 -120,-340 c -3.676,-10.414 1.789,-21.84 12.203,-25.515 10.418,-3.6762 21.84,1.789 25.515,12.203 l 120,340 c 3.676,10.418 -1.789,21.84 -12.203,25.515 -10.418,3.676 -21.84,-1.785 -25.515,-12.203" /><path
         id="path20"
         style="fill:#b7b7a7;fill-opacity:1;fill-rule:nonzero;stroke:none"
         d="m 370,300 c -3.891,0 -7.738,0.203 -11.523,0.598 l 50.382,142.754 c 3.489,9.878 -1.25,20.668 -10.632,24.882 -2.168,4.797 -6.215,8.735 -11.571,10.625 -2.203,0.778 -4.449,1.149 -6.656,1.149 -8.242,0 -15.961,-5.137 -18.859,-13.352 L 308.863,318.539 C 279.395,338.273 260,371.871 260,410 c 0,60.75 49.25,110 110,110 60.75,0 110,-49.25 110,-110 0,-60.75 -49.25,-110 -110,-110" /><path
         id="path22"
         style="fill:#97978c;fill-opacity:1;fill-rule:nonzero;stroke:none"
         d="m 358.477,300.598 c -4.344,0.449 -8.61,1.156 -12.789,2.097 l 53.171,150.649 c 1.786,5.062 1.414,10.359 -0.632,14.89 9.382,-4.214 14.121,-15.004 10.632,-24.882 L 358.477,300.598" /><path
         id="path24"
         style="fill:#404a5f;fill-opacity:1;fill-rule:nonzero;stroke:none"
         d="m 345.688,302.695 c -13.356,3.016 -25.797,8.461 -36.825,15.844 l 52.278,148.117 c 2.898,8.215 10.617,13.352 18.859,13.352 2.207,0 4.453,-0.371 6.656,-1.149 5.356,-1.89 9.403,-5.828 11.571,-10.625 2.046,-4.531 2.418,-9.828 0.632,-14.89 L 345.688,302.695" /><path
         id="path26"
         style="fill:#c84755;fill-opacity:1;fill-rule:nonzero;stroke:none"
         d="m 480,430 c 0,-60.75 -49.25,-110 -110,-110 -60.75,0 -110,49.25 -110,110 0,60.75 49.25,110 110,110 60.75,0 110,-49.25 110,-110" /></g></g></svg>