<?xml version="1.0" encoding="UTF-8" standalone="no"?>
<svg
   xmlns:dc="http://purl.org/dc/elements/1.1/"
   xmlns:cc="http://creativecommons.org/ns#"
   xmlns:rdf="http://www.w3.org/1999/02/22-rdf-syntax-ns#"
   xmlns:svg="http://www.w3.org/2000/svg"
   xmlns="http://www.w3.org/2000/svg"
   viewBox="0 0 85.333336 85.333336"
   height="85.333336"
   width="85.333336"
   xml:space="preserve"
   id="svg2"
   version="1.1"><metadata
     id="metadata8"><rdf:RDF><cc:Work
         rdf:about=""><dc:format>image/svg+xml</dc:format><dc:type
           rdf:resource="http://purl.org/dc/dcmitype/StillImage" /></cc:Work></rdf:RDF></metadata><defs
     id="defs6" /><g
     transform="matrix(1.3333333,0,0,-1.3333333,0,85.333333)"
     id="g10"><g
       transform="scale(0.1)"
       id="g12"><path
         id="path14"
         style="fill:#495672;fill-opacity:1;fill-rule:nonzero;stroke:none"
         d="M 640,320 C 640,143.27 496.73,0 320,0 143.27,0 0,143.27 0,320 0,496.73 143.27,640 320,640 496.73,640 640,496.73 640,320" /><path
         id="path16"
         style="fill:#c84755;fill-opacity:1;fill-rule:nonzero;stroke:none"
         d="m 160,280 c 0,-11.047 -8.953,-20 -20,-20 -11.047,0 -20,8.953 -20,20 v 20 c 0,11.047 8.953,20 20,20 11.047,0 20,-8.953 20,-20 v -20" /><path
         id="path18"
         style="fill:#f3cc70;fill-opacity:1;fill-rule:nonzero;stroke:none"
         d="m 240,360 c 0,-11.047 -8.953,-20 -20,-20 -11.047,0 -20,8.953 -20,20 v 20 c 0,11.047 8.953,20 20,20 11.047,0 20,-8.953 20,-20 v -20" /><path
         id="path20"
         style="fill:#f3cc70;fill-opacity:1;fill-rule:nonzero;stroke:none"
         d="m 440.004,360 c 0,-11.047 -8.953,-20 -20,-20 -11.047,0 -20,8.953 -20,20 v 20 c 0,11.047 8.953,20 20,20 11.047,0 20,-8.953 20,-20 v -20" /><path
         id="path22"
         style="fill:#77caa9;fill-opacity:1;fill-rule:nonzero;stroke:none"
         d="m 480,280 c 0,-11.047 8.953,-20 20,-20 11.047,0 20,8.953 20,20 v 20 c 0,11.047 -8.953,20 -20,20 -11.047,0 -20,-8.953 -20,-20 v -20" /><path
         id="path24"
         style="fill:#404a5f;fill-opacity:1;fill-rule:nonzero;stroke:none"
         d="m 126.113,265.605 c -2.07,1.45 -3.441,3.547 -4.351,6.172 1.054,-2.328 2.539,-4.422 4.351,-6.172 m 358.106,2.106 -130.469,36.82 0.738,19.789 11.34,-3.199 L 480,288.902 V 280 c 0,-4.633 1.574,-8.898 4.219,-12.289 m -328.438,0 C 158.426,271.102 160,275.367 160,280 v 8.902 l 114.172,32.219 v 0 l 11.34,3.199 0.738,-19.789 -130.469,-36.82" /><path
         id="path26"
         style="fill:#a43f4a;fill-opacity:1;fill-rule:nonzero;stroke:none"
         d="m 134.805,263.34 c -3.778,0 -6.59,0.801 -8.692,2.265 -1.812,1.75 -3.297,3.844 -4.351,6.172 -1.395,4.036 -1.696,9.321 -1.75,15.387 0.043,3.535 0.176,6.852 0.554,9.984 1.125,-8.453 4.457,-13.808 14.239,-13.808 3.933,0 8.902,0.863 15.195,2.738 l 10,2.824 V 280 c 0,-4.633 -1.574,-8.898 -4.219,-12.289 L 150,266.078 c -6.293,-1.875 -11.262,-2.738 -15.195,-2.738" /><path
         id="path28"
         style="fill:#404a5f;fill-opacity:1;fill-rule:nonzero;stroke:none"
         d="m 513.883,265.602 c 1.816,1.753 3.308,3.851 4.359,6.187 -0.906,-2.633 -2.285,-4.738 -4.359,-6.187 M 520,278.074 v 7.906 c 0.02,-2.523 0,-5.156 0,-7.906 m -400,0 c 0,2.75 -0.02,5.383 0,7.906 v -5.98 0 -1.926" /><path
         id="path30"
         style="fill:#a43f4a;fill-opacity:1;fill-rule:nonzero;stroke:none"
         d="m 120,285.98 v 4.086 c 0,-0.984 0.004,-1.953 0.012,-2.902 -0.004,-0.391 -0.008,-0.785 -0.012,-1.184" /><path
         id="path32"
         style="fill:#62a48d;fill-opacity:1;fill-rule:nonzero;stroke:none"
         d="m 505.195,263.34 c -3.933,0 -8.906,0.863 -15.195,2.738 l -5.781,1.633 C 481.574,271.102 480,275.367 480,280 v 8.902 l 10,-2.824 c 6.289,-1.875 11.262,-2.738 15.195,-2.738 9.782,0 13.114,5.355 14.243,13.805 0.375,-3.129 0.507,-6.45 0.55,-9.981 -0.054,-6.066 -0.351,-11.34 -1.746,-15.375 -1.051,-2.336 -2.543,-4.434 -4.359,-6.187 -2.102,-1.465 -4.914,-2.262 -8.688,-2.262 M 520,285.98 c -0.004,0.399 -0.008,0.79 -0.012,1.184 0.008,0.949 0.012,1.918 0.012,2.902 v -4.086" /><path
         id="path34"
         style="fill:#e1e3cc;fill-opacity:1;fill-rule:nonzero;stroke:none"
         d="m 320,334.055 170,-47.977 c 28.906,-8.617 30,4.117 30,23.988 v -11.992 c 0,19.871 0.938,33.543 -17.5,44.785 L 320,430 137.5,342.859 C 119.063,331.617 120,317.945 120,298.074 v 11.992 c 0,-19.871 1.094,-32.605 30,-23.988 l 170,47.977" /><path
         id="path36"
         style="fill:#e1e3cc;fill-opacity:1;fill-rule:nonzero;stroke:none"
         d="m 519.98,306.379 0.02,-0.941 v 4.628 c 0,-1.257 -0.004,-2.488 -0.02,-3.687" /><path
         id="path38"
         style="fill:#e1e3cc;fill-opacity:1;fill-rule:nonzero;stroke:none"
         d="m 520,305.438 v -7.364 c 0,2.559 0.012,5.004 0,7.364" /><path
         id="path40"
         style="fill:#394051;fill-opacity:1;fill-rule:nonzero;stroke:none"
         d="m 365.828,321.121 -11.34,3.199 v 0 l 11.34,-3.199 v 0" /><path
         id="path42"
         style="fill:#404a5f;fill-opacity:1;fill-rule:nonzero;stroke:none"
         d="m 370.195,406.031 -12.445,5.946 v 0 l 12.445,-5.946" /><path
         id="path44"
         style="fill:#b7b7a7;fill-opacity:1;fill-rule:nonzero;stroke:none"
         d="m 365.828,321.121 -11.34,3.199 3.262,87.657 12.445,-5.946 -4.367,-84.91" /><path
         id="path46"
         style="fill:#394051;fill-opacity:1;fill-rule:nonzero;stroke:none"
         d="m 274.172,321.121 v 0 l 11.34,3.199 v 0 l -11.34,-3.199" /><path
         id="path48"
         style="fill:#404a5f;fill-opacity:1;fill-rule:nonzero;stroke:none"
         d="m 269.805,406.031 v 0 l 12.445,5.946 v 0 l -12.445,-5.946" /><path
         id="path50"
         style="fill:#b7b7a7;fill-opacity:1;fill-rule:nonzero;stroke:none"
         d="m 274.172,321.121 -4.367,84.91 12.445,5.946 3.262,-87.657 -11.34,-3.199" /><path
         id="path52"
         style="fill:#e1e3cc;fill-opacity:1;fill-rule:nonzero;stroke:none"
         d="M 350,203.816 C 350,187.902 346.57,175 330,175 h -20 c -16.566,0 -20,12.902 -20,28.816 l -10,268.551 c 0,15.914 23.434,67.633 40,67.633 16.57,0 40,-51.719 40,-67.633 L 350,203.816" /><path
         id="path54"
         style="fill:#404a5f;fill-opacity:1;fill-rule:nonzero;stroke:none"
         d="m 427.551,99.5898 c -2.137,0 -4.633,0.4732 -7.547,1.6052 L 340,132.238 v 20 l 80.004,-31.039 c 2.914,-1.136 5.41,-1.609 7.547,-1.609 8.738,-0.004 11.433,7.965 12.183,11.351 0.508,-5.66 0.266,-11.878 0.266,-18.507 0,0 -1.355,-12.8481 -12.449,-12.8442 m -215.102,0 c -11.094,0 -12.449,12.8442 -12.449,12.8442 0,6.629 -0.242,12.847 0.266,18.507 0.75,-3.382 3.445,-11.351 12.183,-11.351 2.137,0 4.629,0.473 7.547,1.609 L 300,152.238 v -20 l -80.004,-31.043 c -2.918,-1.132 -5.41,-1.6052 -7.547,-1.6052" /><path
         id="path56"
         style="fill:#e1e3cc;fill-opacity:1;fill-rule:nonzero;stroke:none"
         d="M 429.918,171.535 320,240 210.082,171.535 C 198.559,162.367 200,148.633 200,132.434 c 0,0 1.93,-18.266 19.996,-11.235 L 320,160 420.004,121.199 C 438.07,114.168 440,132.434 440,132.434 c 0,16.199 1.441,29.933 -10.082,39.101" /><path
         id="path58"
         style="fill:#404a5f;fill-opacity:1;fill-rule:nonzero;stroke:none"
         d="m 320,110 c -11.047,0 -20,8.953 -20,20 v 2.238 l 20,7.762 20,-7.762 V 130 c 0,-11.047 -8.953,-20 -20,-20" /><path
         id="path60"
         style="fill:#394051;fill-opacity:1;fill-rule:nonzero;stroke:none"
         d="M 340,132.238 320,140 300,132.238 v 20 l 20,7.762 20,-7.762 v -20" /><path
         id="path62"
         style="fill:#b7b7a7;fill-opacity:1;fill-rule:nonzero;stroke:none"
         d="M 340,152.238 320,160 300,152.238 V 180 c 0,11.047 8.953,20 20,20 11.047,0 20,-8.953 20,-20 v -27.762" /><path
         id="path64"
         style="fill:#e1e3cc;fill-opacity:1;fill-rule:nonzero;stroke:none"
         d="m 340,150 c 0,-11.047 -8.953,-20 -20,-20 -11.047,0 -20,8.953 -20,20 v 50 c 0,11.047 8.953,20 20,20 11.047,0 20,-8.953 20,-20 v -50" /><path
         id="path66"
         style="fill:#7db6d8;fill-opacity:1;fill-rule:nonzero;stroke:none"
         d="m 320,480 c 11.633,0 21.758,12.227 27.137,30.324 C 339.07,525.992 328.617,540 320,540 311.383,540 300.93,525.992 292.863,510.324 298.242,492.227 308.367,480 320,480" /></g></g></svg>