<?xml version="1.0" encoding="UTF-8" standalone="no"?>
<svg
   xmlns:dc="http://purl.org/dc/elements/1.1/"
   xmlns:cc="http://creativecommons.org/ns#"
   xmlns:rdf="http://www.w3.org/1999/02/22-rdf-syntax-ns#"
   xmlns:svg="http://www.w3.org/2000/svg"
   xmlns="http://www.w3.org/2000/svg"
   viewBox="0 0 85.333336 85.333336"
   height="85.333336"
   width="85.333336"
   xml:space="preserve"
   id="svg2"
   version="1.1"><metadata
     id="metadata8"><rdf:RDF><cc:Work
         rdf:about=""><dc:format>image/svg+xml</dc:format><dc:type
           rdf:resource="http://purl.org/dc/dcmitype/StillImage" /></cc:Work></rdf:RDF></metadata><defs
     id="defs6" /><g
     transform="matrix(1.3333333,0,0,-1.3333333,0,85.333333)"
     id="g10"><g
       transform="scale(0.1)"
       id="g12"><path
         id="path14"
         style="fill:#c84755;fill-opacity:1;fill-rule:nonzero;stroke:none"
         d="M 640,320 C 640,143.27 496.73,0 320,0 143.27,0 0,143.27 0,320 0,496.73 143.27,640 320,640 496.73,640 640,496.73 640,320" /><path
         id="path16"
         style="fill:#a43f4a;fill-opacity:1;fill-rule:nonzero;stroke:none"
         d="m 320,80 c -121.504,0 -220,98.496 -220,220 0,121.504 98.496,220 220,220 121.504,0 220,-98.496 220,-220 C 540,178.496 441.504,80 320,80 m 0,400 c -99.254,0 -180,-80.746 -180,-180 0,-99.254 80.746,-180 180,-180 99.254,0 180,80.746 180,180 0,99.254 -80.746,180 -180,180" /><path
         id="path18"
         style="fill:#a43f4a;fill-opacity:1;fill-rule:nonzero;stroke:none"
         d="m 280,193.813 c -3.453,0 -6.902,0.894 -10,2.679 -6.187,3.571 -10,10.18 -10,17.321 v 172.375 c 0,7.14 3.813,13.75 10,17.32 3.094,1.785 6.547,2.68 10,2.68 3.453,0 6.902,-0.895 10,-2.68 L 410,317.32 c 6.188,-3.57 10,-10.175 10,-17.32 0,-7.145 -3.812,-13.75 -10,-17.32 L 290,196.492 c -3.098,-1.785 -6.547,-2.679 -10,-2.679" /><path
         id="path20"
         style="fill:#e1e3cc;fill-opacity:1;fill-rule:nonzero;stroke:none"
         d="m 320,540 c -121.504,0 -220,-98.496 -220,-220 0,-121.504 98.496,-220 220,-220 121.504,0 220,98.496 220,220 0,121.504 -98.496,220 -220,220 z m 0,-40 c 99.254,0 180,-80.746 180,-180 0,-99.254 -80.746,-180 -180,-180 -99.254,0 -180,80.746 -180,180 0,99.254 80.746,180 180,180" /><path
         id="path22"
         style="fill:#f3cc70;fill-opacity:1;fill-rule:nonzero;stroke:none"
         d="m 280,213.813 c -3.453,0 -6.902,0.894 -10,2.679 -6.187,3.571 -10,10.18 -10,17.321 v 172.375 c 0,7.14 3.813,13.75 10,17.32 6.191,3.57 13.809,3.57 20,0 L 410,337.32 c 6.188,-3.57 10,-10.175 10,-17.32 0,-7.145 -3.812,-13.75 -10,-17.32 L 290,216.492 c -3.098,-1.785 -6.547,-2.679 -10,-2.679" /></g></g></svg>