<?xml version="1.0" encoding="UTF-8" standalone="no"?>
<svg
   xmlns:dc="http://purl.org/dc/elements/1.1/"
   xmlns:cc="http://creativecommons.org/ns#"
   xmlns:rdf="http://www.w3.org/1999/02/22-rdf-syntax-ns#"
   xmlns:svg="http://www.w3.org/2000/svg"
   xmlns="http://www.w3.org/2000/svg"
   viewBox="0 0 85.333336 85.333336"
   height="85.333336"
   width="85.333336"
   xml:space="preserve"
   id="svg2"
   version="1.1"><metadata
     id="metadata8"><rdf:RDF><cc:Work
         rdf:about=""><dc:format>image/svg+xml</dc:format><dc:type
           rdf:resource="http://purl.org/dc/dcmitype/StillImage" /></cc:Work></rdf:RDF></metadata><defs
     id="defs6" /><g
     transform="matrix(1.3333333,0,0,-1.3333333,0,85.333333)"
     id="g10"><g
       transform="scale(0.1)"
       id="g12"><path
         id="path14"
         style="fill:#77caa9;fill-opacity:1;fill-rule:nonzero;stroke:none"
         d="M 640,320 C 640,143.27 496.73,0 320,0 143.27,0 0,143.27 0,320 0,496.73 143.27,640 320,640 496.73,640 640,496.73 640,320" /><path
         id="path16"
         style="fill:#62a48d;fill-opacity:1;fill-rule:nonzero;stroke:none"
         d="m 170,130.004 c -5.117,0 -10.238,1.953 -14.141,5.859 -6.543,6.543 -7.605,16.492 -3.187,24.141 0.855,-1.484 1.918,-2.879 3.187,-4.145 3.903,-3.906 9.024,-5.859 14.141,-5.859 5.117,0 10.238,1.953 14.141,5.859 l 34.394,34.391 8.035,-8.035 c 0.653,-0.652 1.321,-1.305 1.989,-1.938 l -44.418,-44.414 c -3.903,-3.906 -9.024,-5.859 -14.141,-5.859" /><path
         id="path18"
         style="fill:#62a48d;fill-opacity:1;fill-rule:nonzero;stroke:none"
         d="m 340.203,405.063 -9.996,9.996 80.207,80.211 c 1.27,1.265 2.332,2.664 3.188,4.144 4.418,-7.648 3.359,-17.598 -3.188,-24.141 l -70.211,-70.21" /><path
         id="path20"
         style="fill:#62a48d;fill-opacity:1;fill-rule:nonzero;stroke:none"
         d="m 453.34,291.922 -9.996,10 80.211,80.211 c 1.265,1.265 2.328,2.664 3.183,4.144 4.418,-7.648 3.36,-17.597 -3.183,-24.14 L 453.34,291.922" /><path
         id="path22"
         style="fill:#495672;fill-opacity:1;fill-rule:nonzero;stroke:none"
         d="m 184.141,155.859 c -7.809,-7.812 -20.473,-7.812 -28.282,0 -7.812,7.809 -7.812,20.473 0,28.282 l 98.993,98.996 c 7.812,7.812 20.476,7.812 28.285,0 7.812,-7.809 7.812,-20.473 0,-28.285 l -98.996,-98.993" /><path
         id="path24"
         style="fill:#e1e3cc;fill-opacity:1;fill-rule:nonzero;stroke:none"
         d="m 311.422,396.273 c -7.813,-7.808 -20.473,-7.808 -28.285,0 -7.809,7.813 -7.809,20.473 0,28.286 l 98.996,98.996 c 7.808,7.808 20.472,7.808 28.281,0 7.813,-7.813 7.813,-20.477 0,-28.285 l -98.992,-98.997" /><path
         id="path26"
         style="fill:#e1e3cc;fill-opacity:1;fill-rule:nonzero;stroke:none"
         d="m 424.559,283.137 c -7.813,-7.809 -20.473,-7.809 -28.286,0 -7.808,7.812 -7.808,20.472 0,28.285 l 98.997,98.992 c 7.808,7.813 20.472,7.813 28.285,0 7.808,-7.809 7.808,-20.473 0,-28.281 l -98.996,-98.996" /><path
         id="path28"
         style="fill:#62a48d;fill-opacity:1;fill-rule:nonzero;stroke:none"
         d="m 304.352,149.996 c -27.293,0 -54.582,10.094 -75.793,30.281 l 8.644,8.645 c 19.723,-15.238 43.438,-22.856 67.149,-22.856 28.148,0 56.3,10.739 77.781,32.219 l 54.14,54.141 8.032,-8.035 -62.172,-62.176 C 360.652,160.738 332.5,149.996 304.352,149.996 M 190.66,218.945 c -18.18,22.34 -26.281,50.157 -24.301,77.371 1.852,-25.418 12.493,-50.312 31.926,-69.746 v 0 l -7.625,-7.625" /><path
         id="path30"
         style="fill:#538777;fill-opacity:1;fill-rule:nonzero;stroke:none"
         d="m 228.559,180.277 c -0.668,0.633 -1.336,1.286 -1.989,1.938 l -8.035,8.035 8.035,8.035 v 0 c 3.387,-3.387 6.942,-6.508 10.633,-9.363 l -8.644,-8.645" /><path
         id="path32"
         style="fill:#404a5f;fill-opacity:1;fill-rule:nonzero;stroke:none"
         d="m 218.535,190.25 -20.25,20.25 c -2.715,2.715 -5.254,5.531 -7.625,8.445 l 7.625,7.625 28.285,-28.285 -8.035,-8.035" /><path
         id="path34"
         style="fill:#495672;fill-opacity:1;fill-rule:nonzero;stroke:none"
         d="m 278.742,462.59 -80.457,-80.457 c -42.957,-42.957 -42.957,-112.606 0,-155.563 l 28.285,-28.285 c 42.957,-42.957 112.606,-42.957 155.563,0 L 462.59,278.742 278.742,462.59" /><path
         id="path36"
         style="fill:#62a48d;fill-opacity:1;fill-rule:nonzero;stroke:none"
         d="m 466.984,229.996 c -5.117,0 -10.238,1.953 -14.14,5.856 l -8.539,8.539 18.285,18.285 -8.031,8.035 8.031,8.031 -11.215,11.219 1.965,1.961 27.789,-27.785 c 7.809,-7.809 7.809,-20.473 0,-28.285 -3.906,-3.903 -9.027,-5.856 -14.145,-5.856 m -53.89,98.246 -74.856,74.856 1.965,1.965 74.856,-74.86 -1.965,-1.961 M 252.633,436.48 c -5.504,7.805 -4.762,18.665 2.219,25.649 3.906,3.902 9.027,5.855 14.144,5.855 5.117,0 10.234,-1.953 14.141,-5.855 l 18.785,-18.785 -1.965,-1.965 -21.215,21.211 -26.109,-26.11" /><path
         id="path38"
         style="fill:#538777;fill-opacity:1;fill-rule:nonzero;stroke:none"
         d="m 338.238,403.098 -9.996,9.996 1.965,1.965 9.996,-9.996 -1.965,-1.965" /><path
         id="path40"
         style="fill:#538777;fill-opacity:1;fill-rule:nonzero;stroke:none"
         d="m 451.375,289.961 -9.996,9.996 1.965,1.965 9.996,-10 -1.965,-1.961" /><path
         id="path42"
         style="fill:#b7b7a7;fill-opacity:1;fill-rule:nonzero;stroke:none"
         d="m 328.242,413.094 -28.285,28.285 1.965,1.965 28.285,-28.285 -1.965,-1.965" /><path
         id="path44"
         style="fill:#b7b7a7;fill-opacity:1;fill-rule:nonzero;stroke:none"
         d="m 441.379,299.957 -28.285,28.285 1.965,1.961 28.285,-28.281 -1.965,-1.965" /><path
         id="path46"
         style="fill:#538777;fill-opacity:1;fill-rule:nonzero;stroke:none"
         d="m 444.305,244.391 -8.032,8.035 18.286,18.285 8.031,-8.035 -18.285,-18.285" /><path
         id="path48"
         style="fill:#404a5f;fill-opacity:1;fill-rule:nonzero;stroke:none"
         d="M 436.273,252.426 254.852,433.844 c -0.829,0.828 -1.567,1.711 -2.219,2.636 l 26.109,26.11 21.215,-21.211 28.285,-28.285 9.996,-9.996 74.856,-74.856 28.285,-28.285 9.996,-9.996 11.215,-11.219 -8.031,-8.031 -18.286,-18.285" /><path
         id="path50"
         style="fill:#495672;fill-opacity:1;fill-rule:nonzero;stroke:none"
         d="m 481.129,254.852 c -7.813,-7.809 -20.477,-7.809 -28.285,0 L 254.852,452.844 c -7.809,7.808 -7.809,20.472 0,28.285 7.812,7.809 20.476,7.809 28.285,0 L 481.129,283.137 c 7.809,-7.809 7.809,-20.473 0,-28.285" /></g></g></svg>