<?xml version="1.0" encoding="UTF-8" standalone="no"?>
<svg
   xmlns:dc="http://purl.org/dc/elements/1.1/"
   xmlns:cc="http://creativecommons.org/ns#"
   xmlns:rdf="http://www.w3.org/1999/02/22-rdf-syntax-ns#"
   xmlns:svg="http://www.w3.org/2000/svg"
   xmlns="http://www.w3.org/2000/svg"
   viewBox="0 0 85.333336 85.333336"
   height="85.333336"
   width="85.333336"
   xml:space="preserve"
   id="svg2"
   version="1.1"><metadata
     id="metadata8"><rdf:RDF><cc:Work
         rdf:about=""><dc:format>image/svg+xml</dc:format><dc:type
           rdf:resource="http://purl.org/dc/dcmitype/StillImage" /></cc:Work></rdf:RDF></metadata><defs
     id="defs6" /><g
     transform="matrix(1.3333333,0,0,-1.3333333,0,85.333333)"
     id="g10"><g
       transform="scale(0.1)"
       id="g12"><path
         id="path14"
         style="fill:#e08e4c;fill-opacity:1;fill-rule:nonzero;stroke:none"
         d="M 640,320 C 640,143.27 496.73,0 320,0 143.27,0 0,143.27 0,320 0,496.73 143.27,640 320,640 496.73,640 640,496.73 640,320" /><path
         id="path16"
         style="fill:#e1e3cc;fill-opacity:1;fill-rule:nonzero;stroke:none"
         d="m 480,260 c 0,-11.047 -8.953,-20 -20,-20 H 180 c -11.047,0 -20,8.953 -20,20 v 219.383 c 0,11.047 8.953,20 20,20 h 280 c 11.047,0 20,-8.953 20,-20 V 260" /><path
         id="path18"
         style="fill:#ffffff;fill-opacity:1;fill-rule:nonzero;stroke:none"
         d="m 140,240 20,30 h 320 l 20,-30 H 140" /><path
         id="path20"
         style="fill:#b7b7a7;fill-opacity:1;fill-rule:nonzero;stroke:none"
         d="m 320,270 c -44.184,0 -80,35.816 -80,80 0,44.184 35.816,80 80,80 44.184,0 80,-35.816 80,-80 0,-44.184 -35.816,-80 -80,-80" /><path
         id="path22"
         style="fill:#7db6d8;fill-opacity:1;fill-rule:nonzero;stroke:none"
         d="m 320,305 c -35.84,0 -65,29.16 -65,65 0,35.84 29.16,65 65,65 35.84,0 65,-29.16 65,-65 0,-35.84 -29.16,-65 -65,-65" /><path
         id="path24"
         style="fill:#495672;fill-opacity:1;fill-rule:nonzero;stroke:none"
         d="m 320,450 c -44.184,0 -80,-35.816 -80,-80 0,-44.184 35.816,-80 80,-80 44.184,0 80,35.816 80,80 0,44.184 -35.816,80 -80,80 z m 0,-30 c 27.57,0 50,-22.43 50,-50 0,-27.57 -22.43,-50 -50,-50 -27.57,0 -50,22.43 -50,50 0,27.57 22.43,50 50,50" /><path
         id="path26"
         style="fill:#b7b7a7;fill-opacity:1;fill-rule:nonzero;stroke:none"
         d="m 205,270 c -13.809,0 -25,11.191 -25,25 0,13.809 11.191,25 25,25 13.809,0 25,-11.191 25,-25 0,-13.809 -11.191,-25 -25,-25" /><path
         id="path28"
         style="fill:#c84755;fill-opacity:1;fill-rule:nonzero;stroke:none"
         d="m 230,315 c 0,-13.809 -11.191,-25 -25,-25 -13.809,0 -25,11.191 -25,25 0,13.809 11.191,25 25,25 13.809,0 25,-11.191 25,-25" /><path
         id="path30"
         style="fill:#e1e3cc;fill-opacity:1;fill-rule:nonzero;stroke:none"
         d="M 500,240 H 140 v -20 h 360 v 20" /><path
         id="path32"
         style="fill:#b7b7a7;fill-opacity:1;fill-rule:nonzero;stroke:none"
         d="m 460,400 h -40 c -11.047,0 -20,8.953 -20,20 v 40 c 0,11.047 8.953,20 20,20 h 40 c 11.047,0 20,-8.953 20,-20 v -40 c 0,-11.047 -8.953,-20 -20,-20" /><path
         id="path34"
         style="fill:#495672;fill-opacity:1;fill-rule:nonzero;stroke:none"
         d="m 400,440 c 0,-11.047 8.953,-20 20,-20 h 40 c 11.047,0 20,8.953 20,20 v 40 c 0,11.047 -8.953,20 -20,20 h -40 c -11.047,0 -20,-8.953 -20,-20 v -40" /><path
         id="path36"
         style="fill:#b77744;fill-opacity:1;fill-rule:nonzero;stroke:none"
         d="M 440,120 H 200 c -33.137,0 -60,26.863 -60,60 v 20 h 360 v -20 c 0,-33.137 -26.863,-60 -60,-60" /><path
         id="path38"
         style="fill:#495672;fill-opacity:1;fill-rule:nonzero;stroke:none"
         d="m 140,200 c 0,-33.137 26.863,-60 60,-60 h 240 c 33.137,0 60,26.863 60,60 v 20 H 140 v -20" /></g></g></svg>