<?xml version="1.0" encoding="UTF-8" standalone="no"?>
<svg
   xmlns:dc="http://purl.org/dc/elements/1.1/"
   xmlns:cc="http://creativecommons.org/ns#"
   xmlns:rdf="http://www.w3.org/1999/02/22-rdf-syntax-ns#"
   xmlns:svg="http://www.w3.org/2000/svg"
   xmlns="http://www.w3.org/2000/svg"
   viewBox="0 0 85.333336 85.333336"
   height="85.333336"
   width="85.333336"
   xml:space="preserve"
   id="svg2"
   version="1.1"><metadata
     id="metadata8"><rdf:RDF><cc:Work
         rdf:about=""><dc:format>image/svg+xml</dc:format><dc:type
           rdf:resource="http://purl.org/dc/dcmitype/StillImage" /></cc:Work></rdf:RDF></metadata><defs
     id="defs6" /><g
     transform="matrix(1.3333333,0,0,-1.3333333,0,85.333333)"
     id="g10"><g
       transform="scale(0.1)"
       id="g12"><path
         id="path14"
         style="fill:#c84755;fill-opacity:1;fill-rule:nonzero;stroke:none"
         d="M 640,320 C 640,143.27 496.73,0 320,0 143.27,0 0,143.27 0,320 0,496.73 143.27,640 320,640 496.73,640 640,496.73 640,320" /><path
         id="path16"
         style="fill:#a43f4a;fill-opacity:1;fill-rule:nonzero;stroke:none"
         d="m 469.879,106.98 c -1.027,0 -2.066,0.09 -3.109,0.274 l -205.797,36.613 47.617,9.438 161.269,-28.688 c 1.043,-0.187 2.082,-0.277 3.106,-0.277 8.348,0 15.754,5.949 17.32,14.426 l -3.066,-17.239 c -1.52,-8.543 -8.957,-14.547 -17.34,-14.547 M 215.824,206.824 235.98,320.129 215.824,206.824 v 0 m 294.504,44.614 26.332,148.011 c -0.008,-0.047 -0.015,-0.094 -0.023,-0.14 L 510.328,251.438" /><path
         id="path18"
         style="fill:#e1e3cc;fill-opacity:1;fill-rule:nonzero;stroke:none"
         d="M 286.441,452.77 512.137,412.621 473.531,195.605 247.836,235.758 286.441,452.77 m 239.012,-15.653 -243.058,43.242 c -9.586,1.704 -18.743,-4.687 -20.45,-14.273 L 212.527,188.305 c -1.703,-9.586 4.688,-18.742 14.274,-20.45 l 243.058,-43.238 c 9.586,-1.707 18.743,4.684 20.45,14.274 l 49.414,277.777 c 1.707,9.59 -4.684,18.742 -14.27,20.449" /><path
         id="path20"
         style="fill:#495672;fill-opacity:1;fill-rule:nonzero;stroke:none"
         d="M 512.137,412.621 286.441,452.77 247.836,235.758 473.531,195.605 512.137,412.621" /><path
         id="path22"
         style="fill:#a43f4a;fill-opacity:1;fill-rule:nonzero;stroke:none"
         d="m 192.48,130.633 c -8.246,0 -15.613,5.812 -17.277,14.207 L 120.34,421.598 c -1.895,9.55 4.316,18.832 13.867,20.722 l 128.109,25.399 c -0.148,-0.535 -0.273,-1.078 -0.371,-1.633 L 257.262,439.75 148,418.09 l 42.863,-216.215 24.961,4.949 -6.383,-35.879 c -1.707,-9.59 4.684,-18.746 14.274,-20.449 l 37.258,-6.629 -65.043,-12.894 c -1.16,-0.231 -2.313,-0.34 -3.45,-0.34 m 208.008,328.715 -95.07,16.914 70.949,14.066 c 1.16,0.231 2.313,0.34 3.449,0.34 8.247,0 15.614,-5.813 17.278,-14.207 l 3.394,-17.113" /><path
         id="path24"
         style="fill:#883840;fill-opacity:1;fill-rule:nonzero;stroke:none"
         d="m 260.973,143.867 -37.258,6.629 c -9.59,1.703 -15.981,10.859 -14.274,20.449 l 6.383,35.879 v 0 l -3.297,-18.519 c -1.703,-9.586 4.688,-18.742 14.274,-20.45 l 81.789,-14.55 -47.617,-9.438" /><path
         id="path26"
         style="fill:#b7b7a7;fill-opacity:1;fill-rule:nonzero;stroke:none"
         d="m 308.59,153.305 -81.789,14.55 c -9.586,1.708 -15.977,10.864 -14.274,20.45 l 3.297,18.519 92.063,18.25 144.121,-25.64 c 1.726,-9.457 -4.457,-18.579 -13.918,-20.457 l -129.5,-25.672 m 97.418,278.195 -27.953,4.973 -5.192,26.195 -67.183,-13.32 -19.239,3.422 -1.332,-7.5 -27.847,-5.52 4.683,26.336 c 0.098,0.555 0.223,1.098 0.371,1.633 l 43.102,8.543 95.07,-16.914 5.52,-27.848" /><path
         id="path28"
         style="fill:#404a5f;fill-opacity:1;fill-rule:nonzero;stroke:none"
         d="m 452.008,199.434 -144.121,25.64 107.84,21.379 -37.672,190.02 27.953,-4.973 45.949,-231.797 c 0.02,-0.09 0.035,-0.18 0.051,-0.269 m -166.899,245.836 1.332,7.5 19.239,-3.422 -20.571,-4.078" /><path
         id="path30"
         style="fill:#ffffff;fill-opacity:1;fill-rule:nonzero;stroke:none"
         d="M 132.273,437.426 357.137,482 400,265.785 175.137,221.211 Z M 360.641,509.66 118.48,461.656 c -9.55,-1.894 -15.761,-11.176 -13.867,-20.726 l 54.864,-276.754 c 1.894,-9.555 11.171,-15.766 20.726,-13.871 l 242.16,48.008 c 9.555,1.89 15.762,11.171 13.867,20.722 l -54.863,276.758 c -1.89,9.551 -11.172,15.762 -20.726,13.867" /><path
         id="path32"
         style="fill:#7db6d8;fill-opacity:1;fill-rule:nonzero;stroke:none"
         d="M 357.137,482 132.273,437.426 175.137,221.211 400,265.785 357.137,482" /></g></g></svg>