<?xml version="1.0" encoding="UTF-8" standalone="no"?>
<svg
   xmlns:dc="http://purl.org/dc/elements/1.1/"
   xmlns:cc="http://creativecommons.org/ns#"
   xmlns:rdf="http://www.w3.org/1999/02/22-rdf-syntax-ns#"
   xmlns:svg="http://www.w3.org/2000/svg"
   xmlns="http://www.w3.org/2000/svg"
   viewBox="0 0 85.333336 85.333336"
   height="85.333336"
   width="85.333336"
   xml:space="preserve"
   id="svg2"
   version="1.1"><metadata
     id="metadata8"><rdf:RDF><cc:Work
         rdf:about=""><dc:format>image/svg+xml</dc:format><dc:type
           rdf:resource="http://purl.org/dc/dcmitype/StillImage" /></cc:Work></rdf:RDF></metadata><defs
     id="defs6" /><g
     transform="matrix(1.3333333,0,0,-1.3333333,0,85.333333)"
     id="g10"><g
       transform="scale(0.1)"
       id="g12"><path
         id="path14"
         style="fill:#c84755;fill-opacity:1;fill-rule:nonzero;stroke:none"
         d="M 640,320 C 640,143.27 496.73,0 320,0 143.27,0 0,143.27 0,320 0,496.73 143.27,640 320,640 496.73,640 640,496.73 640,320" /><path
         id="path16"
         style="fill:#a43f4a;fill-opacity:1;fill-rule:nonzero;stroke:none"
         d="m 320,120 c -99.254,0 -180,80.746 -180,180 0,63.594 34.109,123.121 89.02,155.348 3.175,1.871 6.664,2.761 10.101,2.761 6.859,0 13.543,-3.543 17.27,-9.89 5.589,-9.528 2.398,-21.781 -7.129,-27.375 C 206.539,395.77 180,349.469 180,300 c 0,-77.195 62.805,-140 140,-140 77.195,0 140,62.805 140,140 0,50.645 -27.484,97.488 -71.73,122.262 -9.637,5.394 -13.075,17.582 -7.68,27.218 3.664,6.547 10.461,10.235 17.469,10.235 3.304,0 6.66,-0.82 9.754,-2.551 C 464.68,425.328 500,365.105 500,300 500,200.746 419.254,120 320,120" /><path
         id="path18"
         style="fill:#a43f4a;fill-opacity:1;fill-rule:nonzero;stroke:none"
         d="m 320,280 c -11.047,0 -20,8.953 -20,20 v 200 c 0,11.047 8.953,20 20,20 11.047,0 20,-8.953 20,-20 V 300 c 0,-11.047 -8.953,-20 -20,-20" /><path
         id="path20"
         style="fill:#ffffff;fill-opacity:1;fill-rule:nonzero;stroke:none"
         d="M 388.27,442.258 C 431.09,418.258 460.008,372.551 460,320 459.988,281.277 444.359,246.402 418.996,221.004 393.598,195.641 358.723,180.012 320,180 281.277,180.012 246.402,195.641 221.004,221.004 195.637,246.402 180.012,281.277 180,320 c -0.008,51.539 27.797,96.48 69.262,120.844 9.527,5.59 12.718,17.847 7.129,27.371 -5.59,9.527 -17.844,12.719 -27.371,7.129 C 175.781,444.141 140.008,386.195 140,320 c 0.012,-99.418 80.578,-179.988 180,-180 99.418,0.012 179.988,80.582 180,180 -0.008,67.504 -37.203,126.414 -92.191,157.16 -9.637,5.399 -21.825,1.957 -27.219,-7.68 -5.399,-9.64 -1.957,-21.828 7.68,-27.222" /><path
         id="path22"
         style="fill:#ffffff;fill-opacity:1;fill-rule:nonzero;stroke:none"
         d="m 340,320 v 200 c 0,11.047 -8.953,20 -20,20 -11.047,0 -20,-8.953 -20,-20 V 320 c 0,-11.047 8.953,-20 20,-20 11.047,0 20,8.953 20,20" /></g></g></svg>