<?xml version="1.0" encoding="UTF-8" standalone="no"?>
<svg
   xmlns:dc="http://purl.org/dc/elements/1.1/"
   xmlns:cc="http://creativecommons.org/ns#"
   xmlns:rdf="http://www.w3.org/1999/02/22-rdf-syntax-ns#"
   xmlns:svg="http://www.w3.org/2000/svg"
   xmlns="http://www.w3.org/2000/svg"
   viewBox="0 0 85.333336 85.333336"
   height="85.333336"
   width="85.333336"
   xml:space="preserve"
   id="svg2"
   version="1.1"><metadata
     id="metadata8"><rdf:RDF><cc:Work
         rdf:about=""><dc:format>image/svg+xml</dc:format><dc:type
           rdf:resource="http://purl.org/dc/dcmitype/StillImage" /></cc:Work></rdf:RDF></metadata><defs
     id="defs6" /><g
     transform="matrix(1.3333333,0,0,-1.3333333,0,85.333333)"
     id="g10"><g
       transform="scale(0.1)"
       id="g12"><path
         id="path14"
         style="fill:#77caa9;fill-opacity:1;fill-rule:nonzero;stroke:none"
         d="M 640,320 C 640,143.27 496.73,0 320,0 143.27,0 0,143.27 0,320 0,496.73 143.27,640 320,640 496.73,640 640,496.73 640,320" /><path
         id="path16"
         style="fill:#62a48d;fill-opacity:1;fill-rule:nonzero;stroke:none"
         d="M 480,100 H 280 v 20 h 200 c 22.09,0 40,17.906 40,40 v -20 c 0,-22.094 -17.91,-40 -40,-40 m -240,0 h -80 c -22.094,0 -40,17.906 -40,40 v 320 0 -300 c 0,-22.094 17.906,-40 40,-40 h 80 v -20" /><path
         id="path18"
         style="fill:#c84755;fill-opacity:1;fill-rule:nonzero;stroke:none"
         d="m 520,160 c 0,-22.094 -17.91,-40 -40,-40 H 160 c -22.094,0 -40,17.906 -40,40 v 320 c 0,22.094 17.906,40 40,40 h 320 c 22.09,0 40,-17.906 40,-40 V 160" /><path
         id="path20"
         style="fill:#538777;fill-opacity:1;fill-rule:nonzero;stroke:none"
         d="m 240,100 h 40 v 20 h -40 z" /><path
         id="path22"
         style="fill:#a43f4a;fill-opacity:1;fill-rule:nonzero;stroke:none"
         d="M 520,300 H 305.977 c -4.875,4.012 -9.262,7.129 -12.571,9.316 20.914,0.047 40.11,1.852 55.407,10.684 H 520 v -20 m -369.684,0 H 120 v 40 -20 h 51.578 c -4.613,-2.516 -8.887,-5.641 -12.762,-9.516 -3.253,-3.254 -6.089,-6.773 -8.5,-10.484" /><path
         id="path24"
         style="fill:#f3cc70;fill-opacity:1;fill-rule:nonzero;stroke:none"
         d="m 240,120 h 40 v 400 h -40 z" /><path
         id="path26"
         style="fill:#f3cc70;fill-opacity:1;fill-rule:nonzero;stroke:none"
         d="m 120,320 h 400 v 40 H 120 Z" /><path
         id="path28"
         style="fill:#a43f4a;fill-opacity:1;fill-rule:nonzero;stroke:none"
         d="m 204.246,200.813 c -16.441,0 -32.883,6.273 -45.43,18.816 -21.832,21.832 -24.668,55.473 -8.5,80.371 H 240 V 211.664 C 229.219,204.43 216.734,200.813 204.246,200.813 M 226.598,300 c -25.457,0 -38.95,-3.109 -46.567,-10.727 -13.351,-13.351 -13.351,-35.078 0,-48.429 6.465,-6.469 15.067,-10.031 24.215,-10.031 9.149,0 17.746,3.562 24.215,10.031 10.777,10.773 11.141,32.883 10.566,58.996 -4.199,0.094 -8.347,0.16 -12.429,0.16" /><path
         id="path30"
         style="fill:#a43f4a;fill-opacity:1;fill-rule:nonzero;stroke:none"
         d="m 334.164,204.164 c -8.285,0 -15,6.715 -15,15 0,31.012 -26.078,53.574 -39.164,62.941 V 300 h 25.977 c 18.226,-15.012 43.187,-42.555 43.187,-80.836 0,-8.285 -6.715,-15 -15,-15" /><path
         id="path32"
         style="fill:#883840;fill-opacity:1;fill-rule:nonzero;stroke:none"
         d="M 305.977,300 H 280 v 20 h 68.813 c -15.297,-8.832 -34.493,-10.637 -55.407,-10.684 3.309,-2.187 7.696,-5.304 12.571,-9.316 M 240,300 h -89.684 c 2.411,3.711 5.247,7.23 8.5,10.484 3.875,3.875 8.149,7 12.762,9.516 H 240 v -20" /><path
         id="path34"
         style="fill:#c7a85f;fill-opacity:1;fill-rule:nonzero;stroke:none"
         d="M 240,211.664 V 320 h 40 v -37.895 c -4.293,3.075 -7.187,4.731 -7.305,4.793 -1.359,0.762 -2.496,1.75 -3.515,2.829 0.156,-27.848 -2.301,-52.895 -19.504,-70.098 -3.02,-3.02 -6.262,-5.672 -9.676,-7.965" /><path
         id="path36"
         style="fill:#a43f4a;fill-opacity:1;fill-rule:nonzero;stroke:none"
         d="m 377.551,360 h -31.512 c 5.766,12.633 3.453,28.078 -6.926,38.461 -6.468,6.469 -15.07,10.031 -24.215,10.031 -9.148,0 -17.75,-3.562 -24.218,-10.031 C 282.875,390.656 280.531,376.91 280.051,360 H 280 v 68.203 c 10.582,6.86 22.738,10.289 34.898,10.289 16.442,0 32.883,-6.273 45.426,-18.816 C 376.52,403.48 382.262,380.797 377.551,360" /><path
         id="path38"
         style="fill:#c7a85f;fill-opacity:1;fill-rule:nonzero;stroke:none"
         d="m 280,360 h -29.937 c 0.609,23.637 4.378,44.648 19.406,59.676 3.265,3.265 6.801,6.109 10.531,8.527 V 360" /><path
         id="path40"
         style="fill:#a43f4a;fill-opacity:1;fill-rule:nonzero;stroke:none"
         d="m 225.152,360 h -41 c -8.371,11.73 -14.859,25.938 -16.711,42.781 -0.902,8.239 5.039,15.649 13.274,16.555 0.539,0.059 1.078,0.086 1.613,0.086 7.543,0 14.094,-5.668 14.938,-13.359 2.226,-20.258 15.246,-35.657 27.886,-46.063" /><path
         id="path42"
         style="fill:#c7a85f;fill-opacity:1;fill-rule:nonzero;stroke:none"
         d="M 348.813,320 H 171.578 c 12.496,6.813 27.488,9.145 43.828,9.777 -10.215,7.129 -21.906,17.129 -31.254,30.223 h 41 c 11.114,-9.148 21.93,-14.441 24.879,-15.801 -0.086,5.367 -0.101,10.649 0.032,15.801 H 280 h 0.051 c -0.184,-6.437 -0.094,-13.336 0.062,-20.535 4.2,-0.094 8.348,-0.16 12.434,-0.16 25.457,0 38.945,3.105 46.566,10.726 2.969,2.969 5.278,6.356 6.926,9.969 h 31.512 c -2.586,-11.426 -8.328,-22.285 -17.227,-31.184 -3.523,-3.523 -7.375,-6.425 -11.511,-8.816" /><path
         id="path44"
         style="fill:#f3cc70;fill-opacity:1;fill-rule:nonzero;stroke:none"
         d="m 314.898,458.492 c -16.445,0 -32.886,-6.273 -45.429,-18.816 -25.09,-25.09 -18.817,-66.844 -18.817,-109.676 14.274,0 28.434,-0.695 41.895,-0.695 26.922,0 51.051,2.785 67.777,19.511 25.09,25.09 25.09,65.77 0,90.86 -12.543,12.543 -28.984,18.816 -45.426,18.816 z m 0,-30 c 9.145,0 17.747,-3.562 24.215,-10.031 13.352,-13.352 13.352,-35.078 0,-48.43 -7.621,-7.621 -21.109,-10.726 -46.566,-10.726 -4.082,0 -8.234,0.066 -12.434,0.16 -0.574,26.113 -0.211,48.219 10.567,58.996 6.468,6.469 15.07,10.031 24.218,10.031" /><path
         id="path46"
         style="fill:#f3cc70;fill-opacity:1;fill-rule:nonzero;stroke:none"
         d="m 226.598,350 c -26.922,0 -51.055,-2.785 -67.782,-19.516 -25.089,-25.089 -25.089,-65.765 0,-90.855 12.547,-12.543 28.989,-18.816 45.43,-18.816 16.442,0 32.883,6.273 45.43,18.816 25.09,25.09 18.816,66.844 18.816,109.676 -14.277,0 -28.437,0.695 -41.894,0.695 z m 0,-30 c 4.082,0 8.23,-0.066 12.429,-0.16 0.575,-26.113 0.211,-48.223 -10.566,-58.996 -6.469,-6.469 -15.066,-10.031 -24.215,-10.031 -9.148,0 -17.75,3.562 -24.215,10.031 -13.351,13.351 -13.351,35.078 0,48.429 7.617,7.618 21.11,10.727 46.567,10.727" /><path
         id="path48"
         style="fill:#f3cc70;fill-opacity:1;fill-rule:nonzero;stroke:none"
         d="m 334.172,224.172 c -8.281,0 -15,6.719 -15,15 0,41.18 -46.008,67.469 -46.477,67.723 -7.207,4.05 -9.804,13.171 -5.781,20.402 4.024,7.215 13.113,9.832 20.352,5.828 2.531,-1.406 61.906,-34.961 61.906,-93.953 0,-8.281 -6.723,-15 -15,-15" /><path
         id="path50"
         style="fill:#f3cc70;fill-opacity:1;fill-rule:nonzero;stroke:none"
         d="m 245.02,335 c -1.922,0 -3.887,0.371 -5.782,1.16 -2.668,1.113 -65.343,27.981 -71.797,86.621 -0.91,8.235 5.039,15.649 13.274,16.555 8.211,0.891 15.64,-5.039 16.551,-13.273 4.531,-41.258 53.066,-62.02 53.554,-62.223 7.637,-3.195 11.239,-11.985 8.047,-19.629 C 256.465,338.457 250.891,335 245.02,335" /></g></g></svg>