<?xml version="1.0" encoding="UTF-8" standalone="no"?>
<svg
   xmlns:dc="http://purl.org/dc/elements/1.1/"
   xmlns:cc="http://creativecommons.org/ns#"
   xmlns:rdf="http://www.w3.org/1999/02/22-rdf-syntax-ns#"
   xmlns:svg="http://www.w3.org/2000/svg"
   xmlns="http://www.w3.org/2000/svg"
   viewBox="0 0 85.333336 85.333336"
   height="85.333336"
   width="85.333336"
   xml:space="preserve"
   id="svg2"
   version="1.1"><metadata
     id="metadata8"><rdf:RDF><cc:Work
         rdf:about=""><dc:format>image/svg+xml</dc:format><dc:type
           rdf:resource="http://purl.org/dc/dcmitype/StillImage" /></cc:Work></rdf:RDF></metadata><defs
     id="defs6" /><g
     transform="matrix(1.3333333,0,0,-1.3333333,0,85.333333)"
     id="g10"><g
       transform="scale(0.1)"
       id="g12"><path
         id="path14"
         style="fill:#e1e3cc;fill-opacity:1;fill-rule:nonzero;stroke:none"
         d="M 640,320 C 640,143.27 496.73,0 320,0 143.27,0 0,143.27 0,320 0,496.73 143.27,640 320,640 496.73,640 640,496.73 640,320" /><path
         id="path16"
         style="fill:#b7b7a7;fill-opacity:1;fill-rule:nonzero;stroke:none"
         d="m 197.41,169.531 c -5.055,0 -10.043,2.301 -13.355,6.696 -5.715,7.554 -4.391,18.406 3,24.242 52.609,41.793 67.008,82.726 69.554,110.816 -7.461,-4.191 -15.863,-6.836 -24.964,-6.836 -28.379,0 -51.356,23.524 -51.356,52.539 0,29.02 23.012,52.543 51.356,52.543 6.418,0 12.308,-1.648 17.921,-3.883 l -0.175,0.415 c 0,0 2.476,-0.895 5.929,-2.782 l 0.524,-0.207 0.277,-0.207 c 2.371,-1.34 5.09,-3.125 8.125,-5.664 1.289,-1.101 2.367,-2.371 3.555,-3.57 12.656,-12.399 26.566,-36.059 22.871,-81.149 -2.16,-35.23 -18.305,-87.976 -82.906,-139.312 -3.106,-2.442 -6.731,-3.641 -10.356,-3.641 m 169.024,0.032 c -5.055,0 -10.043,2.3 -13.356,6.699 -5.719,7.554 -4.39,18.406 3,24.242 52.61,41.793 67.008,82.726 69.555,110.816 -7.426,-4.257 -15.828,-6.871 -24.93,-6.871 -28.379,0 -51.355,23.524 -51.355,52.539 0,29.02 22.976,52.543 51.355,52.543 6.414,0 12.309,-1.648 17.922,-3.883 l -0.211,0.415 c 0,0 2.477,-0.895 5.93,-2.782 l 0.519,-0.207 0.282,-0.207 c 2.371,-1.34 5.089,-3.125 8.121,-5.664 1.293,-1.101 2.371,-2.371 3.558,-3.57 12.656,-12.399 26.531,-36.059 22.871,-81.113 -2.164,-35.231 -18.304,-87.977 -82.91,-139.317 -3.101,-2.437 -6.726,-3.64 -10.351,-3.64" /><path
         id="path18"
         style="fill:#495672;fill-opacity:1;fill-rule:nonzero;stroke:none"
         d="m 231.645,324.449 c -28.379,0 -51.356,23.524 -51.356,52.539 0,29.02 23.012,52.543 51.356,52.543 6.418,0 12.308,-1.648 17.921,-3.883 l -0.175,0.415 c 0,0 2.476,-0.895 5.929,-2.782 l 0.524,-0.207 0.277,-0.207 c 2.371,-1.34 5.09,-3.125 8.125,-5.664 1.289,-1.101 2.367,-2.371 3.555,-3.57 12.656,-12.399 26.566,-36.059 22.871,-81.149 -2.16,-35.23 -18.305,-87.976 -82.906,-139.312 -3.106,-2.442 -6.731,-3.641 -10.356,-3.641 -5.055,0 -10.043,2.301 -13.355,6.696 -5.715,7.554 -4.391,18.406 3,24.242 52.609,41.793 67.008,82.726 69.554,110.816 -7.461,-4.191 -15.863,-6.836 -24.964,-6.836 z m 228.05,8.071 c -2.164,-35.231 -18.304,-87.977 -82.91,-139.317 -3.101,-2.437 -6.726,-3.64 -10.351,-3.64 -5.055,0 -10.043,2.3 -13.356,6.699 -5.719,7.554 -4.39,18.406 3,24.242 52.61,41.793 67.008,82.726 69.555,110.816 -7.426,-4.257 -15.828,-6.871 -24.93,-6.871 -28.379,0 -51.355,23.524 -51.355,52.539 0,29.02 22.976,52.543 51.355,52.543 6.414,0 12.309,-1.648 17.922,-3.883 l -0.211,0.415 c 0,0 2.477,-0.895 5.93,-2.782 l 0.519,-0.207 0.282,-0.207 c 2.371,-1.34 5.089,-3.125 8.121,-5.664 1.293,-1.101 2.371,-2.371 3.558,-3.57 12.656,-12.399 26.531,-36.059 22.871,-81.113" /></g></g></svg>