<?xml version="1.0" encoding="UTF-8" standalone="no"?>
<svg
   xmlns:dc="http://purl.org/dc/elements/1.1/"
   xmlns:cc="http://creativecommons.org/ns#"
   xmlns:rdf="http://www.w3.org/1999/02/22-rdf-syntax-ns#"
   xmlns:svg="http://www.w3.org/2000/svg"
   xmlns="http://www.w3.org/2000/svg"
   viewBox="0 0 85.333336 85.333336"
   height="85.333336"
   width="85.333336"
   xml:space="preserve"
   id="svg2"
   version="1.1"><metadata
     id="metadata8"><rdf:RDF><cc:Work
         rdf:about=""><dc:format>image/svg+xml</dc:format><dc:type
           rdf:resource="http://purl.org/dc/dcmitype/StillImage" /></cc:Work></rdf:RDF></metadata><defs
     id="defs6" /><g
     transform="matrix(1.3333333,0,0,-1.3333333,0,85.333333)"
     id="g10"><g
       transform="scale(0.1)"
       id="g12"><path
         id="path14"
         style="fill:#c84755;fill-opacity:1;fill-rule:nonzero;stroke:none"
         d="M 640,320 C 640,143.27 496.73,0 320,0 143.27,0 0,143.27 0,320 0,496.73 143.27,640 320,640 496.73,640 640,496.73 640,320" /><path
         id="path16"
         style="fill:#a43f4a;fill-opacity:1;fill-rule:nonzero;stroke:none"
         d="m 490.32,223.504 c -2.843,0 -5.687,1.086 -7.855,3.254 l -52.856,52.855 -53.031,53.032 10,10 43.031,-43.036 47.145,47.145 -43.035,43.031 43.035,-43.031 37.137,37.137 10,-10 52.855,-52.852 c 4.34,-4.34 4.34,-11.375 0,-15.715 L 537.461,266.039 498.18,226.758 c -2.172,-2.168 -5.016,-3.254 -7.86,-3.254" /><path
         id="path18"
         style="fill:#a43f4a;fill-opacity:1;fill-rule:nonzero;stroke:none"
         d="m 146.426,220 c -2.844,0 -5.688,1.086 -7.86,3.254 L 99.2852,262.539 60,301.82 c -4.3398,4.34 -1.0859,14.879 3.2539,19.219 l 52.8551,52.852 10,10 37.141,-37.137 43.031,43.031 -43.031,-43.031 47.141,-47.145 43.031,43.036 10,-10 -53.031,-53.032 -56.11,-56.359 C 152.109,221.086 149.27,220 146.426,220" /><path
         id="path20"
         style="fill:#ffffff;fill-opacity:1;fill-rule:nonzero;stroke:none"
         d="m 476.754,346.754 -47.145,-47.145 52.856,-52.851 c 4.34,-4.34 11.375,-4.34 15.715,0 l 39.281,39.281 -60.707,60.715" /><path
         id="path22"
         style="fill:#ffffff;fill-opacity:1;fill-rule:nonzero;stroke:none"
         d="m 523.891,393.891 -62.852,62.855 c -4.34,4.34 -11.375,4.34 -15.715,0 l -39.285,-39.285 70.715,-70.707 47.137,47.137" /><path
         id="path24"
         style="fill:#495672;fill-opacity:1;fill-rule:nonzero;stroke:none"
         d="m 537.461,286.039 39.285,39.285 c 4.34,4.34 4.34,11.375 0,15.715 l -52.855,52.852 -47.137,-47.137 60.707,-60.715" /><path
         id="path26"
         style="fill:#495672;fill-opacity:1;fill-rule:nonzero;stroke:none"
         d="M 406.039,417.461 366.758,378.18 c -4.34,-4.34 -4.34,-11.375 0,-15.715 l 62.851,-62.856 47.145,47.145 -70.715,70.707" /><path
         id="path28"
         style="fill:#ffffff;fill-opacity:1;fill-rule:nonzero;stroke:none"
         d="m 163.25,346.754 47.141,-47.145 -56.11,-56.355 c -4.34,-4.34 -11.375,-4.34 -15.715,0 l -39.2808,39.285 63.9648,64.215" /><path
         id="path30"
         style="fill:#ffffff;fill-opacity:1;fill-rule:nonzero;stroke:none"
         d="m 116.109,393.891 62.852,62.855 c 4.34,4.34 11.375,4.34 15.715,0 l 39.285,-39.285 -70.711,-70.707 -47.141,47.137" /><path
         id="path32"
         style="fill:#495672;fill-opacity:1;fill-rule:nonzero;stroke:none"
         d="M 99.2852,282.539 60,321.82 c -4.3398,4.34 -1.0859,14.879 3.2539,19.219 l 52.8551,52.852 47.141,-47.137 -63.9648,-64.215" /><path
         id="path34"
         style="fill:#495672;fill-opacity:1;fill-rule:nonzero;stroke:none"
         d="m 233.961,417.461 39.281,-39.281 c 4.34,-4.34 4.34,-11.375 0,-15.715 l -62.851,-62.856 -47.141,47.145 70.711,70.707" /><path
         id="path36"
         style="fill:#a43f4a;fill-opacity:1;fill-rule:nonzero;stroke:none"
         d="m 175.688,137.969 c -3.836,0 -7.676,1.465 -10.606,4.394 -5.66,5.657 -5.852,14.719 -0.57,20.606 0.183,-0.203 0.375,-0.406 0.574,-0.606 2.926,-2.929 6.766,-4.39 10.605,-4.39 3.836,0 7.676,1.461 10.606,4.39 L 310,286.066 l 10,-10 -133.707,-133.703 c -2.93,-2.929 -6.766,-4.394 -10.605,-4.394 m 165.523,159.308 -10,10 35.367,35.371 c 0.059,-0.062 0.117,-0.121 0.18,-0.183 l 9.82,-9.82 -35.367,-35.368 m 132.586,146.711 -2.938,2.938 v 0 c 0.196,0.199 0.387,0.398 0.571,0.605 0.976,-1.086 1.765,-2.281 2.367,-3.543" /><path
         id="path38"
         style="fill:#883840;fill-opacity:1;fill-rule:nonzero;stroke:none"
         d="m 376.578,332.645 -9.82,9.82 c -0.063,0.062 -0.121,0.121 -0.18,0.183 l 10,9.997 10,-10 -10,-10" /><path
         id="path40"
         style="fill:#d4d3d1;fill-opacity:1;fill-rule:nonzero;stroke:none"
         d="m 433.719,389.785 -10,10 47.14,47.141 2.938,-2.938 c 2.656,-5.574 1.68,-12.453 -2.938,-17.062 l -37.14,-37.141" /><path
         id="path42"
         style="fill:#404a5f;fill-opacity:1;fill-rule:nonzero;stroke:none"
         d="m 386.578,342.645 -10,10 47.141,47.14 10,-10 -47.141,-47.14" /><path
         id="path44"
         style="fill:#e1e3cc;fill-opacity:1;fill-rule:nonzero;stroke:none"
         d="M 449.645,468.137 165.086,183.578 c -5.859,-5.859 -5.859,-15.355 0,-21.215 5.855,-5.855 15.352,-5.855 21.211,0 l 284.562,284.563 c 5.856,5.855 5.856,15.355 0,21.211 -5.859,5.859 -15.355,5.859 -21.214,0" /><path
         id="path46"
         style="fill:#a43f4a;fill-opacity:1;fill-rule:nonzero;stroke:none"
         d="m 464.313,137.969 c -3.84,0 -7.676,1.465 -10.606,4.394 L 320,276.066 341.211,297.277 474.918,163.574 c 5.859,-5.855 5.859,-15.355 0,-21.211 -2.93,-2.929 -6.77,-4.394 -10.605,-4.394 m -175.528,169.312 -25.363,25.364 9.82,9.82 c 4.34,4.34 4.34,11.375 0,15.715 l -2.14,2.14 2.14,2.145 c 0.477,0.473 0.899,0.98 1.27,1.512 l 35.484,-35.485 -21.211,-21.211 M 166.203,443.988 c 0.715,1.5 1.695,2.907 2.938,4.149 1.242,1.242 2.648,2.218 4.148,2.933 l -7.086,-7.082" /><path
         id="path48"
         style="fill:#883840;fill-opacity:1;fill-rule:nonzero;stroke:none"
         d="m 263.422,332.645 -10,10 17.68,17.675 2.14,-2.14 c 4.34,-4.34 4.34,-11.375 0,-15.715 l -9.82,-9.82" /><path
         id="path50"
         style="fill:#d4d3d1;fill-opacity:1;fill-rule:nonzero;stroke:none"
         d="m 206.281,389.785 -37.14,37.141 c -4.618,4.609 -5.594,11.488 -2.938,17.062 l 7.086,7.082 c 2.035,0.973 4.246,1.457 6.457,1.457 3.84,0 7.676,-1.464 10.606,-4.39 l 37.14,-37.141 -21.211,-21.211" /><path
         id="path52"
         style="fill:#404a5f;fill-opacity:1;fill-rule:nonzero;stroke:none"
         d="m 253.422,342.645 -47.141,47.14 21.211,21.211 47.02,-47.019 c -0.371,-0.532 -0.793,-1.039 -1.27,-1.512 l -2.14,-2.145 -17.68,-17.675" /><path
         id="path54"
         style="fill:#883840;fill-opacity:1;fill-rule:nonzero;stroke:none"
         d="m 320,276.066 -10,10 21.211,21.211 10,-10 L 320,276.066" /><path
         id="path56"
         style="fill:#b7b7a7;fill-opacity:1;fill-rule:nonzero;stroke:none"
         d="m 310,286.066 -21.215,21.215 21.211,21.211 21.215,-21.215 L 310,286.066" /><path
         id="path58"
         style="fill:#e1e3cc;fill-opacity:1;fill-rule:nonzero;stroke:none"
         d="M 169.141,446.926 453.703,162.363 c 5.86,-5.855 15.356,-5.855 21.215,0 5.855,5.86 5.855,15.356 0,21.215 L 190.355,468.137 c -5.859,5.859 -15.355,5.859 -21.214,0 -5.86,-5.856 -5.86,-15.356 0,-21.211" /></g></g></svg>