<?xml version="1.0" encoding="UTF-8" standalone="no"?>
<svg
   xmlns:dc="http://purl.org/dc/elements/1.1/"
   xmlns:cc="http://creativecommons.org/ns#"
   xmlns:rdf="http://www.w3.org/1999/02/22-rdf-syntax-ns#"
   xmlns:svg="http://www.w3.org/2000/svg"
   xmlns="http://www.w3.org/2000/svg"
   viewBox="0 0 85.333336 85.333336"
   height="85.333336"
   width="85.333336"
   xml:space="preserve"
   id="svg2"
   version="1.1"><metadata
     id="metadata8"><rdf:RDF><cc:Work
         rdf:about=""><dc:format>image/svg+xml</dc:format><dc:type
           rdf:resource="http://purl.org/dc/dcmitype/StillImage" /></cc:Work></rdf:RDF></metadata><defs
     id="defs6" /><g
     transform="matrix(1.3333333,0,0,-1.3333333,0,85.333333)"
     id="g10"><g
       transform="scale(0.1)"
       id="g12"><path
         id="path14"
         style="fill:#7db6d8;fill-opacity:1;fill-rule:nonzero;stroke:none"
         d="M 640,320 C 640,143.27 496.73,0 320,0 143.27,0 0,143.27 0,320 0,496.73 143.27,640 320,640 496.73,640 640,496.73 640,320" /><path
         id="path16"
         style="fill:#6594b2;fill-opacity:1;fill-rule:nonzero;stroke:none"
         d="m 320,377.07 c -5.867,0 -11.734,2.239 -16.215,6.715 -8.953,8.953 -8.953,23.473 0,32.426 4.481,4.477 10.348,6.719 16.215,6.719 5.867,0 11.734,-2.242 16.215,-6.719 8.953,-8.953 8.953,-23.473 0,-32.426 -4.481,-4.476 -10.348,-6.715 -16.215,-6.715" /><path
         id="path18"
         style="fill:#6594b2;fill-opacity:1;fill-rule:nonzero;stroke:none"
         d="m 369.496,335.504 c -3.836,0 -7.68,1.465 -10.605,4.394 -5.86,5.86 -5.86,15.356 0,21.211 C 369.281,371.5 375,385.309 375,400 c 0,14.688 -5.723,28.5 -16.109,38.891 -5.86,5.855 -5.86,15.355 0,21.211 2.929,2.929 6.769,4.394 10.605,4.394 3.84,0 7.676,-1.465 10.606,-4.394 C 396.156,444.047 405,422.699 405,400 c 0,-22.703 -8.844,-44.055 -24.898,-60.102 -2.93,-2.929 -6.766,-4.394 -10.606,-4.394" /><path
         id="path20"
         style="fill:#6594b2;fill-opacity:1;fill-rule:nonzero;stroke:none"
         d="m 420,307.219 c -3.84,0 -7.676,1.465 -10.605,4.39 -5.86,5.856 -5.86,15.36 0,21.211 17.945,17.946 27.824,41.805 27.824,67.18 0,25.375 -9.879,49.23 -27.824,67.172 -5.86,5.855 -5.86,15.351 0,21.211 2.925,2.93 6.761,4.394 10.601,4.394 3.84,0 7.68,-1.464 10.609,-4.394 23.614,-23.61 36.614,-54.992 36.614,-88.383 0,-33.391 -13,-64.781 -36.614,-88.391 -2.929,-2.925 -6.765,-4.39 -10.605,-4.39" /><path
         id="path22"
         style="fill:#6594b2;fill-opacity:1;fill-rule:nonzero;stroke:none"
         d="m 270.504,335.504 c -3.84,0 -7.676,1.465 -10.606,4.394 C 243.844,355.945 235,377.297 235,400 c 0,22.699 8.844,44.047 24.898,60.102 2.93,2.929 6.766,4.394 10.606,4.394 3.836,0 7.676,-1.465 10.605,-4.394 5.86,-5.856 5.86,-15.356 0,-21.211 C 270.723,428.5 265,414.688 265,400 c 0,-14.691 5.719,-28.5 16.109,-38.891 5.86,-5.855 5.86,-15.351 0,-21.211 -2.925,-2.929 -6.769,-4.394 -10.605,-4.394" /><path
         id="path24"
         style="fill:#6594b2;fill-opacity:1;fill-rule:nonzero;stroke:none"
         d="m 220,307.219 c -3.84,0 -7.676,1.465 -10.605,4.39 -23.614,23.61 -36.614,55 -36.614,88.391 0,33.391 13,64.773 36.614,88.383 2.929,2.93 6.765,4.394 10.605,4.394 3.84,0 7.676,-1.464 10.605,-4.394 5.86,-5.86 5.86,-15.356 0,-21.211 C 212.66,449.23 202.781,425.375 202.781,400 c 0,-25.375 9.879,-49.234 27.824,-67.18 5.86,-5.851 5.86,-15.355 0,-21.211 -2.929,-2.925 -6.765,-4.39 -10.605,-4.39" /><path
         id="path26"
         style="fill:#6594b2;fill-opacity:1;fill-rule:nonzero;stroke:none"
         d="m 420.004,74.9961 c -5.906,0 -11.508,3.5156 -13.887,9.3242 L 371.016,170.102 370,170 H 270 l -1.016,0.102 -35.101,-85.7817 c -2.379,-5.8125 -7.981,-9.3242 -13.887,-9.3242 -1.894,0 -3.816,0.3594 -5.676,1.1211 -7.672,3.1367 -11.34,11.8945 -8.203,19.5625 l 100,244.3713 c 2.305,5.637 7.793,9.32 13.883,9.32 6.09,0 11.578,-3.683 13.883,-9.32 l 100,-244.3713 c 3.137,-7.668 -0.531,-16.4258 -8.203,-19.5625 -1.856,-0.7617 -3.782,-1.1211 -5.676,-1.1211 M 293.496,230 281.219,200 h 77.562 l -12.277,30 H 293.496 M 320,294.766 305.773,260 h 28.454 L 320,294.766" /><path
         id="path28"
         style="fill:#495672;fill-opacity:1;fill-rule:nonzero;stroke:none"
         d="m 336.215,403.785 c -8.957,-8.953 -23.473,-8.953 -32.43,0 -8.953,8.957 -8.953,23.473 0,32.43 8.957,8.953 23.473,8.953 32.43,0 8.953,-8.957 8.953,-23.473 0,-32.43" /><path
         id="path30"
         style="fill:#495672;fill-opacity:1;fill-rule:nonzero;stroke:none"
         d="M 358.891,458.891 C 369.656,448.113 374.984,434.129 375,420 c -0.016,-14.125 -5.344,-28.113 -16.109,-38.891 -5.86,-5.855 -5.86,-15.355 0,-21.214 5.855,-5.856 15.355,-5.856 21.214,0 16.567,16.562 24.911,38.402 24.895,60.105 0.016,21.703 -8.328,43.547 -24.898,60.105 -5.856,5.86 -15.356,5.856 -21.211,0 -5.86,-5.859 -5.86,-15.359 0,-21.214" /><path
         id="path32"
         style="fill:#495672;fill-opacity:1;fill-rule:nonzero;stroke:none"
         d="m 409.395,487.176 c 18.578,-18.59 27.804,-42.813 27.824,-67.176 -0.02,-24.363 -9.246,-48.586 -27.824,-67.176 -5.86,-5.855 -5.86,-15.355 0,-21.215 5.855,-5.855 15.355,-5.855 21.21,0 24.379,24.371 36.629,56.454 36.614,88.391 0.015,31.941 -12.235,64.02 -36.614,88.391 -5.855,5.855 -15.355,5.855 -21.21,0 -5.86,-5.86 -5.86,-15.36 0,-21.215" /><path
         id="path34"
         style="fill:#495672;fill-opacity:1;fill-rule:nonzero;stroke:none"
         d="M 259.898,480.105 C 243.328,463.547 234.984,441.703 235,420 c -0.016,-21.703 8.328,-43.543 24.895,-60.102 5.859,-5.859 15.355,-5.859 21.214,-0.003 5.86,5.859 5.86,15.355 0,21.214 C 270.34,391.887 265.016,405.875 265,420 c 0.016,14.129 5.34,28.113 16.109,38.891 5.86,5.859 5.86,15.355 0,21.211 -5.855,5.859 -15.355,5.859 -21.211,0.003" /><path
         id="path36"
         style="fill:#495672;fill-opacity:1;fill-rule:nonzero;stroke:none"
         d="M 209.395,508.391 C 185.016,484.02 172.766,451.941 172.781,420 c -0.015,-31.937 12.235,-64.02 36.614,-88.387 5.855,-5.859 15.351,-5.859 21.21,-0.004 5.86,5.86 5.86,15.36 0,21.215 -18.578,18.59 -27.808,42.813 -27.824,67.176 0.016,24.363 9.246,48.586 27.824,67.176 5.86,5.859 5.86,15.355 0,21.215 -5.859,5.855 -15.355,5.855 -21.21,-0.004" /><path
         id="path38"
         style="fill:#495672;fill-opacity:1;fill-rule:nonzero;stroke:none"
         d="M 233.883,104.32 320,314.766 406.117,104.32 c 3.137,-7.6677 11.895,-11.3395 19.563,-8.2028 7.668,3.1367 11.34,11.8988 8.203,19.5628 l -100,244.375 c -2.317,5.656 -7.77,9.316 -13.883,9.316 -6.113,0 -11.566,-3.66 -13.883,-9.316 l -100,-244.375 c -3.137,-7.664 0.535,-16.4261 8.203,-19.5628 7.664,-3.1367 16.426,0.5351 19.563,8.2028" /><path
         id="path40"
         style="fill:#495672;fill-opacity:1;fill-rule:nonzero;stroke:none"
         d="m 290,250 h 60 c 8.281,0 15,6.715 15,15 0,8.285 -6.719,15 -15,15 h -60 c -8.285,0 -15,-6.715 -15,-15 0,-8.285 6.715,-15 15,-15" /><path
         id="path42"
         style="fill:#495672;fill-opacity:1;fill-rule:nonzero;stroke:none"
         d="m 270,190 h 100 c 8.285,0 15,6.715 15,15 0,8.285 -6.715,15 -15,15 H 270 c -8.285,0 -15,-6.715 -15,-15 0,-8.285 6.715,-15 15,-15" /></g></g></svg>