<?xml version="1.0" encoding="UTF-8" standalone="no"?>
<svg
   xmlns:dc="http://purl.org/dc/elements/1.1/"
   xmlns:cc="http://creativecommons.org/ns#"
   xmlns:rdf="http://www.w3.org/1999/02/22-rdf-syntax-ns#"
   xmlns:svg="http://www.w3.org/2000/svg"
   xmlns="http://www.w3.org/2000/svg"
   viewBox="0 0 85.333336 85.333336"
   height="85.333336"
   width="85.333336"
   xml:space="preserve"
   id="svg2"
   version="1.1"><metadata
     id="metadata8"><rdf:RDF><cc:Work
         rdf:about=""><dc:format>image/svg+xml</dc:format><dc:type
           rdf:resource="http://purl.org/dc/dcmitype/StillImage" /></cc:Work></rdf:RDF></metadata><defs
     id="defs6" /><g
     transform="matrix(1.3333333,0,0,-1.3333333,0,85.333333)"
     id="g10"><g
       transform="scale(0.1)"
       id="g12"><path
         id="path14"
         style="fill:#c84755;fill-opacity:1;fill-rule:nonzero;stroke:none"
         d="M 640,320 C 640,143.27 496.73,0 320,0 143.27,0 0,143.27 0,320 0,496.73 143.27,640 320,640 496.73,640 640,496.73 640,320" /><path
         id="path16"
         style="fill:#a43f4a;fill-opacity:1;fill-rule:nonzero;stroke:none"
         d="m 423.145,410 h -75.559 l -190.145,50.332 c -5.336,1.414 -8.519,6.891 -7.109,12.227 1.09,4.117 4.57,6.953 8.574,7.386 L 423.145,410" /><path
         id="path18"
         style="fill:#e1e3cc;fill-opacity:1;fill-rule:nonzero;stroke:none"
         d="m 502.559,409.668 -340,90 c -5.34,1.41 -10.813,-1.77 -12.227,-7.109 -1.41,-5.34 1.77,-10.813 7.109,-12.227 l 340,-90 c 5.34,-1.41 10.813,1.77 12.227,7.109 1.41,5.34 -1.77,10.813 -7.109,12.227" /><path
         id="path20"
         style="fill:#a43f4a;fill-opacity:1;fill-rule:nonzero;stroke:none"
         d="M 500,150 H 140 c -11.047,0 -20,8.953 -20,20 v 200 0 -180 c 0,-11.047 8.953,-20 20,-20 h 360 c 11.047,0 20,8.953 20,20 v -20 c 0,-11.047 -8.953,-20 -20,-20" /><path
         id="path22"
         style="fill:#f3cc70;fill-opacity:1;fill-rule:nonzero;stroke:none"
         d="m 520,190 c 0,-11.047 -8.953,-20 -20,-20 H 140 c -11.047,0 -20,8.953 -20,20 v 200 c 0,11.047 8.953,20 20,20 h 360 c 11.047,0 20,-8.953 20,-20 V 190" /><path
         id="path24"
         style="fill:#495672;fill-opacity:1;fill-rule:nonzero;stroke:none"
         d="m 320,290 c 0,-44.184 -35.816,-80 -80,-80 -44.184,0 -80,35.816 -80,80 0,44.184 35.816,80 80,80 44.184,0 80,-35.816 80,-80" /><path
         id="path26"
         style="fill:#404a5f;fill-opacity:1;fill-rule:nonzero;stroke:none"
         d="m 319.309,280 c -4.93,39.453 -38.52,70 -79.309,70 -40.789,0 -74.379,-30.547 -79.309,-70 -0.41,3.281 -0.691,6.605 -0.691,10 v 0 c 0,44.184 35.816,80 80,80 44.184,0 80,-35.816 80,-80 v 0 c 0,-3.395 -0.281,-6.719 -0.691,-10" /><path
         id="path28"
         style="fill:#c7a85f;fill-opacity:1;fill-rule:nonzero;stroke:none"
         d="m 365,200 c -8.285,0 -15,6.715 -15,15 0,8.285 6.715,15 15,15 8.285,0 15,-6.715 15,-15 0,-8.285 -6.715,-15 -15,-15" /><path
         id="path30"
         style="fill:#c7a85f;fill-opacity:1;fill-rule:nonzero;stroke:none"
         d="m 415,200 c -8.285,0 -15,6.715 -15,15 0,8.285 6.715,15 15,15 8.285,0 15,-6.715 15,-15 0,-8.285 -6.715,-15 -15,-15" /><path
         id="path32"
         style="fill:#c7a85f;fill-opacity:1;fill-rule:nonzero;stroke:none"
         d="m 465,200 c -8.285,0 -15,6.715 -15,15 0,8.285 6.715,15 15,15 8.285,0 15,-6.715 15,-15 0,-8.285 -6.715,-15 -15,-15" /><path
         id="path34"
         style="fill:#495672;fill-opacity:1;fill-rule:nonzero;stroke:none"
         d="m 380,225 c 0,-8.285 -6.715,-15 -15,-15 -8.285,0 -15,6.715 -15,15 0,8.285 6.715,15 15,15 8.285,0 15,-6.715 15,-15" /><path
         id="path36"
         style="fill:#495672;fill-opacity:1;fill-rule:nonzero;stroke:none"
         d="m 430,225 c 0,-8.285 -6.715,-15 -15,-15 -8.285,0 -15,6.715 -15,15 0,8.285 6.715,15 15,15 8.285,0 15,-6.715 15,-15" /><path
         id="path38"
         style="fill:#495672;fill-opacity:1;fill-rule:nonzero;stroke:none"
         d="m 480,225 c 0,-8.285 -6.715,-15 -15,-15 -8.285,0 -15,6.715 -15,15 0,8.285 6.715,15 15,15 8.285,0 15,-6.715 15,-15" /><path
         id="path40"
         style="fill:#ffffff;fill-opacity:1;fill-rule:nonzero;stroke:none"
         d="m 480,290 c 0,-11.047 -8.953,-20 -20,-20 h -90 c -11.047,0 -20,8.953 -20,20 v 50 c 0,11.047 8.953,20 20,20 h 90 c 11.047,0 20,-8.953 20,-20 v -50" /><path
         id="path42"
         style="fill:#d4d3d1;fill-opacity:1;fill-rule:nonzero;stroke:none"
         d="m 480,320 c 0,11.047 -8.953,20 -20,20 h -90 c -11.047,0 -20,-8.953 -20,-20 v 20 c 0,11.047 8.953,20 20,20 h 90 c 11.047,0 20,-8.953 20,-20 v -20" /></g></g></svg>