<?xml version="1.0" encoding="UTF-8" standalone="no"?>
<svg
   xmlns:dc="http://purl.org/dc/elements/1.1/"
   xmlns:cc="http://creativecommons.org/ns#"
   xmlns:rdf="http://www.w3.org/1999/02/22-rdf-syntax-ns#"
   xmlns:svg="http://www.w3.org/2000/svg"
   xmlns="http://www.w3.org/2000/svg"
   viewBox="0 0 85.333336 85.333336"
   height="85.333336"
   width="85.333336"
   xml:space="preserve"
   id="svg2"
   version="1.1"><metadata
     id="metadata8"><rdf:RDF><cc:Work
         rdf:about=""><dc:format>image/svg+xml</dc:format><dc:type
           rdf:resource="http://purl.org/dc/dcmitype/StillImage" /></cc:Work></rdf:RDF></metadata><defs
     id="defs6" /><g
     transform="matrix(1.3333333,0,0,-1.3333333,0,85.333333)"
     id="g10"><g
       transform="scale(0.1)"
       id="g12"><path
         id="path14"
         style="fill:#e1e3cc;fill-opacity:1;fill-rule:nonzero;stroke:none"
         d="M 640,320 C 640,143.27 496.73,0 320,0 143.27,0 0,143.27 0,320 0,496.73 143.27,640 320,640 496.73,640 640,496.73 640,320" /><path
         id="path16"
         style="fill:#b7b7a7;fill-opacity:1;fill-rule:nonzero;stroke:none"
         d="m 152.387,146 c -14.266,0 -24.489,10.582 -26.063,12.309 C 97.2227,198.023 80,246.992 80,300 c 0,132.547 107.453,240 240,240 132.547,0 240,-107.453 240,-240 0,-52.977 -17.203,-101.922 -46.277,-141.621 -8.078,-9.121 -16.551,-12.172 -24.274,-12.172 -15.547,0.004 -28.027,12.371 -28.027,12.371 l -2.859,2.86 c -1.836,1.835 -4.477,4.476 -7.708,7.707 l -17.718,17.718 -6.957,6.957 c -7.02,7.02 -14.367,14.371 -21.328,21.328 -2.368,2.368 -4.692,4.692 -6.942,6.942 l -21.34,21.34 C 357.406,262.594 360,300 360,300 c 0,22.094 -17.906,40 -40,40 -22.094,0 -40,-17.906 -40,-40 0,-40.207 -16.57,-56.57 -16.57,-56.57 L 235.148,215.148 206.863,186.863 178.578,158.578 C 169.141,149.141 160.164,146 152.387,146" /><path
         id="path18"
         style="fill:#c84755;fill-opacity:1;fill-rule:nonzero;stroke:none"
         d="M 178.578,178.578 C 142.387,214.773 120,264.773 120,320 c 0,110.457 89.543,200 200,200 110.457,0 200,-89.543 200,-200 0,-55.227 -22.387,-105.227 -58.578,-141.422 0,0 27.941,-27.699 52.301,-0.199 C 542.797,218.078 560,267.02 560,320 560,452.547 452.547,560 320,560 187.453,560 80,452.547 80,320 c 0,-53.008 17.2227,-101.977 46.324,-141.691 2.434,-2.672 25.508,-26.477 52.254,0.269" /><path
         id="path20"
         style="fill:#e08e4c;fill-opacity:1;fill-rule:nonzero;stroke:none"
         d="m 320,520 c -110.457,0 -200,-89.543 -200,-200 0,-55.227 22.387,-105.227 58.578,-141.422 l 28.285,28.285 C 177.906,235.816 160,275.816 160,320 c 0,88.363 71.637,160 160,160 88.363,0 160,-71.637 160,-160 0,-44.184 -17.906,-84.184 -46.863,-113.137 l 17.718,-17.718 c 3.231,-3.231 5.872,-5.872 7.708,-7.707 l 2.859,-2.86 C 497.613,214.773 520,264.773 520,320 520,430.457 430.457,520 320,520" /><path
         id="path22"
         style="fill:#f3cc70;fill-opacity:1;fill-rule:nonzero;stroke:none"
         d="m 320,480 c -88.363,0 -160,-71.637 -160,-160 0,-44.184 17.906,-84.184 46.863,-113.137 l 28.285,28.285 C 213.43,256.863 200,286.863 200,320 c 0,66.273 53.727,120 120,120 66.273,0 120,-53.727 120,-120 0,-33.137 -13.43,-63.137 -35.148,-84.852 6.961,-6.957 14.308,-14.308 21.328,-21.328 l 6.957,-6.957 C 462.094,235.816 480,275.816 480,320 c 0,88.363 -71.637,160 -160,160" /><path
         id="path24"
         style="fill:#77caa9;fill-opacity:1;fill-rule:nonzero;stroke:none"
         d="m 320,440 c -66.273,0 -120,-53.727 -120,-120 0,-33.137 13.43,-63.137 35.148,-84.852 L 263.43,263.43 C 248.953,277.906 240,297.91 240,320 c 0,44.184 35.816,80 80,80 44.184,0 80,-35.816 80,-80 0,-22.09 -8.953,-42.094 -23.43,-56.57 l 21.34,-21.34 c 2.25,-2.25 4.574,-4.574 6.942,-6.942 C 426.57,256.863 440,286.863 440,320 c 0,66.273 -53.727,120 -120,120" /><path
         id="path26"
         style="fill:#495672;fill-opacity:1;fill-rule:nonzero;stroke:none"
         d="m 320,400 c -44.184,0 -80,-35.816 -80,-80 0,-22.09 8.953,-42.094 23.43,-56.57 0,0 16.57,16.363 16.57,56.57 0,22.094 17.906,40 40,40 22.094,0 40,-17.906 40,-40 0,0 -2.594,-37.406 16.57,-56.57 14.477,14.476 23.43,34.48 23.43,56.57 0,44.184 -35.816,80 -80,80" /></g></g></svg>