<?xml version="1.0" encoding="UTF-8" standalone="no"?>
<svg
   xmlns:dc="http://purl.org/dc/elements/1.1/"
   xmlns:cc="http://creativecommons.org/ns#"
   xmlns:rdf="http://www.w3.org/1999/02/22-rdf-syntax-ns#"
   xmlns:svg="http://www.w3.org/2000/svg"
   xmlns="http://www.w3.org/2000/svg"
   viewBox="0 0 85.333336 85.333336"
   height="85.333336"
   width="85.333336"
   xml:space="preserve"
   id="svg2"
   version="1.1"><metadata
     id="metadata8"><rdf:RDF><cc:Work
         rdf:about=""><dc:format>image/svg+xml</dc:format><dc:type
           rdf:resource="http://purl.org/dc/dcmitype/StillImage" /></cc:Work></rdf:RDF></metadata><defs
     id="defs6" /><g
     transform="matrix(1.3333333,0,0,-1.3333333,0,85.333333)"
     id="g10"><g
       transform="scale(0.1)"
       id="g12"><path
         id="path14"
         style="fill:#e1e3cc;fill-opacity:1;fill-rule:nonzero;stroke:none"
         d="M 640,323.66 C 640,146.93 496.73,3.66016 320,3.66016 143.27,3.66016 0,146.93 0,323.66 c 0,176.731 143.27,320 320,320 176.73,0 320,-143.269 320,-320" /><path
         id="path16"
         style="fill:#b7b7a7;fill-opacity:1;fill-rule:nonzero;stroke:none"
         d="m 196.512,100 c -7.832,0 -16.481,2.695 -24.317,6.992 l -0.965,0.485 c -8.285,4.718 -15.542,11.273 -19.718,18.503 l -55.6097,96.325 c -5.6015,9.699 -7.3984,23.59 -5.3984,35.98 0.9492,-5.863 2.7461,-11.39 5.3984,-15.98 L 151.512,145.98 c 3.883,-6.722 10.426,-12.855 17.98,-17.48 0.535,-0.363 1.113,-0.707 1.738,-1.023 v 0 c 8.079,-4.61 17.133,-7.477 25.282,-7.477 h 68.5 l 33.859,57.824 6.156,-9.492 L 265.012,100 h -68.5 m 35.492,150 h -11.551 l 22.293,38.609 c 0.938,1.621 1.703,3.289 2.305,4.989 2.816,-7.977 2.258,-17.086 -2.305,-24.989 L 232.004,250" /><path
         id="path18"
         style="fill:#b7b7a7;fill-opacity:1;fill-rule:nonzero;stroke:none"
         d="m 443.484,100 -68.523,0.004 h -0.008 c -16.496,0 -29.863,13.32 -29.976,29.793 v 0.406 l -0.012,69.735 v 0.125 c 0,0.144 0,0.289 0.004,0.433 l 0.008,-50.293 v -0.406 c 0.113,-16.473 13.48,-29.793 29.976,-29.797 h 0.008 68.523 c 16.5,0 36.75,11.691 45,25.98 l 55.61,96.325 c 2.648,4.59 4.441,10.117 5.386,15.976 0.504,-3.148 0.766,-6.398 0.786,-9.652 0.05,-9.531 -1.996,-19.094 -6.172,-26.324 l -55.61,-96.325 c -8.25,-14.289 -28.5,-25.98 -45,-25.98 m 76.161,150 v 0 c 0.058,0 0.14,0 0.246,0 -0.106,0 -0.188,0 -0.246,0 m -100.102,0 h -11.547 l -10.746,18.609 5.418,10.618 5.355,-9.278 v 0 L 419.543,250 m 100.379,0 c 0.012,0 0.019,0 0.027,0 -0.008,0 -0.015,0 -0.027,0 m 0.109,0.004 c 0.008,0 0.02,0 0.028,0 -0.008,0 -0.02,0 -0.028,0 m 0.102,0 v 0 0 m 0.051,0 c 0.004,0 0.011,0 0.019,0 -0.008,0 -0.015,0 -0.019,0 m 0.046,0 c 0.004,0 0.008,0 0.012,0 -0.004,0 -0.008,0 -0.012,0 m 22.61,5.418 c 0.012,0.008 0.023,0.016 0.031,0.019 -0.008,-0.003 -0.019,-0.011 -0.031,-0.019 m 0.066,0.043 c 0.004,0 0.008,0.004 0.012,0.008 -0.004,-0.004 -0.008,-0.008 -0.012,-0.008 m 0.028,0.015 c 0.207,0.129 0.41,0.258 0.609,0.391 -0.199,-0.133 -0.402,-0.262 -0.609,-0.391 m 0.609,0.391 c 0.012,0.008 0.02,0.012 0.027,0.02 2.223,1.488 4.086,3.351 5.282,5.687 v 0 c -1.196,-2.336 -3.059,-4.199 -5.282,-5.687 -0.007,-0.008 -0.015,-0.012 -0.027,-0.02" /><path
         id="path20"
         style="fill:#b7b7a7;fill-opacity:1;fill-rule:nonzero;stroke:none"
         d="m 368.25,348.82 c -10.363,0 -20.445,5.379 -26,15 l -22.293,38.61 v 0 l -0.004,-0.004 -22.289,-42.403 h -73.398 l -39.59,68.575 5.797,9.961 33.793,-58.536 h 73.398 l 22.289,42.403 0.004,0.004 22.293,-38.61 c 5.555,-9.625 15.637,-15 26,-15 5.074,0 10.211,1.285 14.926,3.993 l 0.105,0.062 60.383,34.879 0.356,0.207 c 6.351,3.723 10.835,9.434 13.113,15.883 4.73,-13.313 -0.512,-28.492 -13.113,-35.883 l -0.356,-0.207 -60.383,-34.879 -0.105,-0.059 c -4.715,-2.711 -9.852,-3.996 -14.926,-3.996" /><path
         id="path22"
         style="fill:#495672;fill-opacity:1;fill-rule:nonzero;stroke:none"
         d="m 220.453,250 -49.984,-86.578 c 0,0 -7.653,-12.902 -6.926,-23.777 0.328,-4.946 2.391,-9.469 7.687,-12.168 8.079,-4.61 17.133,-7.477 25.282,-7.477 h 68.5 L 305.027,188.332 265.039,250 h -44.586" /><path
         id="path24"
         style="fill:#77caa9;fill-opacity:1;fill-rule:nonzero;stroke:none"
         d="m 163.543,139.645 c -0.727,10.875 6.926,23.777 6.926,23.777 l 49.984,86.578 22.293,38.609 c 8.274,14.332 3.379,32.649 -10.93,40.946 l -0.105,0.062 -60.398,34.856 -0.356,0.203 c -14.32,8.137 -32.539,3.222 -40.789,-11.063 l -0.004,-0.008 -34.2617,-59.339 c -8.25,-14.289 -8.25,-37.672 0,-51.961 L 151.512,145.98 c 4.176,-7.23 11.433,-13.785 19.718,-18.503 -5.296,2.699 -7.359,7.222 -7.687,12.168" /><path
         id="path26"
         style="fill:#404a5f;fill-opacity:1;fill-rule:nonzero;stroke:none"
         d="m 172.195,126.992 -0.965,0.485 v 0 0 c -0.582,0.332 -1.16,0.671 -1.734,1.019 -3.996,2.731 -5.641,6.731 -5.949,11.063 0,0.027 -0.004,0.054 -0.004,0.086 v 0 c -0.035,0.488 -0.051,0.98 -0.051,1.476 -0.004,10.391 6.793,21.988 6.973,22.293 0.004,0.004 0.004,0.008 0.004,0.008 L 220.453,250 h 23.039 L 172.195,126.992" /><path
         id="path28"
         style="fill:#62a48d;fill-opacity:1;fill-rule:nonzero;stroke:none"
         d="m 171.23,127.477 v 0 c -0.621,0.316 -1.199,0.656 -1.734,1.019 0.574,-0.348 1.152,-0.687 1.734,-1.019 v 0 m -7.683,12.082 c 0,0.027 -0.004,0.054 -0.004,0.086 v 0 0 c 0,-0.032 0.004,-0.059 0.004,-0.086 m -0.055,1.562 c -0.004,10.391 6.793,21.988 6.973,22.293 -0.18,-0.305 -6.977,-11.902 -6.973,-22.293" /><path
         id="path30"
         style="fill:#495672;fill-opacity:1;fill-rule:nonzero;stroke:none"
         d="m 419.543,250 h 99.969 c 0,0 15.004,-0.176 24.058,5.891 4.114,2.757 7,6.8 6.696,12.742 -0.051,9.301 -2.098,18.574 -6.172,25.633 l -34.25,59.808 H 430.66 L 397.25,288.609 419.543,250" /><path
         id="path32"
         style="fill:#77caa9;fill-opacity:1;fill-rule:nonzero;stroke:none"
         d="M 543.57,255.891 C 534.516,249.824 519.512,250 519.512,250 h -99.969 -44.586 c -16.547,0 -29.961,-13.398 -29.992,-29.937 v -0.125 l 0.012,-69.735 v -0.406 c 0.113,-16.473 13.48,-29.793 29.976,-29.797 h 0.008 68.523 c 16.5,0 36.75,11.691 45,25.98 l 55.61,96.325 c 4.176,7.23 6.222,16.793 6.172,26.328 0.304,-5.942 -2.582,-9.985 -6.696,-12.742" /><path
         id="path34"
         style="fill:#97978c;fill-opacity:1;fill-rule:nonzero;stroke:none"
         d="m 519.641,250 c -0.082,0 -0.129,0 -0.129,0 h -99.969 l -11.52,19.949 11.52,-19.949 h 99.969 c 0,0 0.047,0 0.129,0" /><path
         id="path36"
         style="fill:#404a5f;fill-opacity:1;fill-rule:nonzero;stroke:none"
         d="m 519.641,250 v 0 c -0.082,0 -0.129,0 -0.129,0 h -99.969 l -11.52,19.949 142.176,-0.238 0.063,-1.078 c 0,-0.004 0.004,-0.004 0.004,-0.008 0,-0.668 -0.004,-1.336 -0.024,-2 -0.363,-4.859 -3.039,-8.301 -6.672,-10.734 C 535.008,250.156 521.129,250 519.641,250" /><path
         id="path38"
         style="fill:#62a48d;fill-opacity:1;fill-rule:nonzero;stroke:none"
         d="m 519.641,250 c -0.082,0 -0.129,0 -0.129,0 h -99.969 v 0 h 99.969 c 0,0 0.047,0 0.129,0 v 0 0 m 30.601,16.625 c 0.02,0.664 0.024,1.332 0.024,2 0.035,-0.691 0.027,-1.359 -0.024,-2" /><path
         id="path40"
         style="fill:#495672;fill-opacity:1;fill-rule:nonzero;stroke:none"
         d="m 319.957,422.43 -49.984,86.578 c 0,0 -7.352,13.078 -17.129,17.89 -4.446,2.184 -9.395,2.665 -14.383,-0.574 -8.031,-4.695 -15.039,-11.101 -19.117,-18.16 l -34.668,-59.566 39.59,-68.575 h 73.398 l 22.293,42.407" /><path
         id="path42"
         style="fill:#77caa9;fill-opacity:1;fill-rule:nonzero;stroke:none"
         d="m 252.844,526.898 c 9.777,-4.812 17.129,-17.89 17.129,-17.89 l 49.984,-86.578 22.293,-38.61 c 8.273,-14.332 26.582,-19.246 40.926,-11.007 l 0.105,0.062 60.383,34.879 0.356,0.207 c 14.207,8.332 19.058,26.566 10.812,40.855 l -0.004,0.004 -34.258,59.344 c -8.25,14.289 -28.5,25.981 -45,25.981 H 264.348 c -8.356,0 -17.657,-3.008 -25.887,-7.821 4.988,3.239 9.937,2.758 14.383,0.574" /><path
         id="path44"
         style="fill:#b7b7a7;fill-opacity:1;fill-rule:nonzero;stroke:none"
         d="m 252.844,526.898 c -0.043,0.02 -0.086,0.04 -0.129,0.063 0.043,-0.023 0.086,-0.043 0.129,-0.063 m -0.133,0.063 c -0.043,0.019 -0.086,0.043 -0.125,0.062 0,0 0,0 0,-0.003 0.043,-0.02 0.082,-0.04 0.125,-0.059" /><path
         id="path46"
         style="fill:#404a5f;fill-opacity:1;fill-rule:nonzero;stroke:none"
         d="m 308.438,402.48 -70.879,123.25 0.902,0.594 c 0.008,0.004 0.016,0.008 0.019,0.012 0.567,0.332 1.141,0.652 1.715,0.969 1.934,0.929 3.848,1.34 5.727,1.34 2.297,0 4.535,-0.614 6.664,-1.622 0.039,-0.019 0.082,-0.043 0.125,-0.062 h 0.004 c 0.043,-0.023 0.086,-0.043 0.129,-0.063 v 0 c 1.547,-0.761 3.035,-1.73 4.441,-2.824 7.481,-5.801 12.688,-15.066 12.688,-15.066 l 40.07,-69.403 9.914,-17.175 -0.004,-0.004 -11.515,-19.946" /><path
         id="path48"
         style="fill:#62a48d;fill-opacity:1;fill-rule:nonzero;stroke:none"
         d="m 319.957,422.43 v 0 l -9.914,17.175 9.914,-17.175 m -62.672,101.644 c -1.406,1.094 -2.894,2.063 -4.441,2.824 v 0 c -0.043,0.02 -0.086,0.04 -0.129,0.063 h -0.004 c -0.043,0.019 -0.082,0.039 -0.125,0.059 0.086,-0.04 0.172,-0.082 0.258,-0.122 1.547,-0.761 3.035,-1.73 4.441,-2.824 m -18.805,2.262 c 0.575,0.371 1.145,0.691 1.715,0.969 -0.574,-0.317 -1.148,-0.637 -1.715,-0.969" /></g></g></svg>