<?xml version="1.0" encoding="UTF-8" standalone="no"?>
<svg
   xmlns:dc="http://purl.org/dc/elements/1.1/"
   xmlns:cc="http://creativecommons.org/ns#"
   xmlns:rdf="http://www.w3.org/1999/02/22-rdf-syntax-ns#"
   xmlns:svg="http://www.w3.org/2000/svg"
   xmlns="http://www.w3.org/2000/svg"
   viewBox="0 0 85.333336 85.333336"
   height="85.333336"
   width="85.333336"
   xml:space="preserve"
   id="svg2"
   version="1.1"><metadata
     id="metadata8"><rdf:RDF><cc:Work
         rdf:about=""><dc:format>image/svg+xml</dc:format><dc:type
           rdf:resource="http://purl.org/dc/dcmitype/StillImage" /></cc:Work></rdf:RDF></metadata><defs
     id="defs6" /><g
     transform="matrix(1.3333333,0,0,-1.3333333,0,85.333333)"
     id="g10"><g
       transform="scale(0.1)"
       id="g12"><path
         id="path14"
         style="fill:#495672;fill-opacity:1;fill-rule:nonzero;stroke:none"
         d="M 640,320 C 640,143.27 496.73,0 320,0 143.27,0 0,143.27 0,320 0,496.73 143.27,640 320,640 496.73,640 640,496.73 640,320" /><path
         id="path16"
         style="fill:#404a5f;fill-opacity:1;fill-rule:nonzero;stroke:none"
         d="m 236.074,115 c -72.617,0 -131.695,59.082 -131.695,131.699 0,4.614 0.238,9.192 0.707,13.719 6.871,-66.285 62.883,-117.957 130.988,-117.969 68.114,0.012 124.137,51.707 130.992,118.004 0.469,-4.523 0.707,-9.113 0.707,-13.754 0,-24.508 -6.726,-47.469 -18.433,-67.14 -2.492,-1.563 -4.551,-3.875 -5.801,-6.786 -0.5,-1.164 -0.84,-2.359 -1.031,-3.558 C 318.535,136.375 279.754,115 236.074,115 M 135.297,260.41 c -0.606,4.488 -0.918,9.074 -0.918,13.738 0.004,30.606 13.465,57.95 34.84,76.633 1.875,-0.926 3.586,-2.261 4.992,-3.988 5.219,-6.434 4.242,-15.879 -2.191,-21.105 -20.325,-16.504 -33.29,-39.774 -36.723,-65.278 m 192.32,54.031 c 0.414,0.461 0.836,0.922 1.258,1.379 0.184,-0.41 0.367,-0.816 0.543,-1.23 -0.598,-0.055 -1.199,-0.106 -1.801,-0.149" /><path
         id="path18"
         style="fill:#77caa9;fill-opacity:1;fill-rule:nonzero;stroke:none"
         d="m 259.699,373.09 c 44.731,-10.641 78.106,-50.91 78.074,-98.942 -0.007,-28.128 -11.363,-53.46 -29.789,-71.91 -18.449,-18.425 -43.781,-29.781 -71.91,-29.789 -28.129,0.008 -53.461,11.364 -71.91,29.789 -18.426,18.45 -29.777,43.782 -29.785,71.91 0.004,31.922 14.644,60.293 37.637,78.993 6.429,5.222 7.41,14.668 2.187,21.097 -5.223,6.434 -14.668,7.41 -21.098,2.192 -29.703,-24.098 -48.734,-61.032 -48.726,-102.282 0.008,-72.742 58.957,-131.687 131.695,-131.699 72.742,0.012 131.688,58.957 131.699,131.699 -0.031,62.211 -43.097,114.336 -101.136,128.129 -8.059,1.914 -16.145,-3.062 -18.063,-11.125 -1.914,-8.058 3.067,-16.144 11.125,-18.062 v 0" /><path
         id="path20"
         style="fill:#404a5f;fill-opacity:1;fill-rule:nonzero;stroke:none"
         d="m 319.945,256.703 c -5.769,0 -11.457,0.375 -17.031,1.098 -0.141,0.859 -0.269,1.722 -0.387,2.59 1.153,8.445 3.344,16.558 6.45,24.214 3.617,-0.296 7.277,-0.449 10.972,-0.449 0.004,0 0.016,0 0.02,0 3.547,0 7.054,0.141 10.535,0.414 3.062,-7.648 5.219,-15.746 6.351,-24.14 -0.121,-0.903 -0.253,-1.797 -0.398,-2.688 -5.445,-0.687 -10.957,-1.039 -16.512,-1.039 m 47.551,8.883 c 0.184,2.828 0.274,5.684 0.277,8.562 -0.003,6.27 -0.445,12.434 -1.293,18.469 18.747,7.082 35.454,18.309 48.973,32.551 0.895,-0.496 1.754,-1.094 2.559,-1.789 6.265,-5.418 6.945,-14.899 1.519,-21.156 -14.269,-16.477 -32.187,-28.953 -52.035,-36.637 m -95.629,0.203 c -48.91,19.246 -83.613,66.949 -83.613,122.609 0,4.633 0.238,9.204 0.707,13.711 5.203,-50.152 38.535,-91.937 83.957,-109.304 -0.84,-5.938 -1.289,-12 -1.313,-18.16 0,-0.165 0,-0.332 0,-0.497 v 0 0 c 0,-2.804 0.09,-5.593 0.262,-8.359" /><path
         id="path22"
         style="fill:#394051;fill-opacity:1;fill-rule:nonzero;stroke:none"
         d="m 336.855,260.43 c -1.132,8.394 -3.289,16.492 -6.351,24.14 2.238,0.18 4.465,0.414 6.672,0.703 0.394,-3.652 0.597,-7.367 0.597,-11.125 -0.003,-4.656 -0.312,-9.238 -0.918,-13.718" /><path
         id="path24"
         style="fill:#62a48d;fill-opacity:1;fill-rule:nonzero;stroke:none"
         d="m 336.457,257.742 c 0.145,0.891 0.277,1.785 0.398,2.688 0.606,4.48 0.915,9.062 0.918,13.718 0,3.758 -0.203,7.473 -0.597,11.125 10.176,1.332 19.988,3.825 29.304,7.344 0.848,-6.035 1.29,-12.199 1.293,-18.469 -0.003,-2.878 -0.093,-5.734 -0.277,-8.562 -9.933,-3.848 -20.355,-6.496 -31.039,-7.844" /><path
         id="path26"
         style="fill:#404a5f;fill-opacity:1;fill-rule:nonzero;stroke:none"
         d="m 441.137,400.328 c -6.231,1.863 -12.657,3.281 -19.239,4.211 -1.23,1.656 -2.14,3.594 -2.613,5.742 -10.129,46.25 -51.914,79.817 -99.34,79.817 -51.425,0 -94.058,-38.375 -100.773,-87.996 -0.606,4.496 -0.918,9.082 -0.922,13.75 0.008,28.132 11.359,53.461 29.785,71.91 18.453,18.429 43.781,29.781 71.914,29.789 0.02,0 0.043,0 0.067,0 48.625,0 89.281,-34.235 99.273,-79.817 1.535,-7.007 7.742,-11.793 14.637,-11.793 1.062,0 2.144,0.118 3.226,0.352 3.008,0.66 5.61,2.18 7.594,4.25 1.527,-4.504 2.813,-9.117 3.848,-13.832 1.461,-6.668 -1.758,-13.273 -7.457,-16.383" /><path
         id="path28"
         style="fill:#c84755;fill-opacity:1;fill-rule:nonzero;stroke:none"
         d="m 396.855,349.313 c -18.699,-21.563 -46.144,-35.153 -76.906,-35.157 -28.133,0.008 -53.461,11.36 -71.914,29.785 -18.426,18.45 -29.777,43.782 -29.785,71.911 0.008,28.132 11.359,53.461 29.785,71.91 18.453,18.429 43.781,29.781 71.914,29.789 48.653,0.031 89.344,-34.215 99.34,-79.817 1.774,-8.089 9.77,-13.214 17.863,-11.441 8.09,1.773 13.215,9.773 11.442,17.863 -12.965,59.176 -65.629,103.364 -128.645,103.395 -72.742,-0.012 -131.687,-58.957 -131.699,-131.699 0.012,-72.739 58.957,-131.688 131.699,-131.696 39.739,-0.008 75.489,17.66 99.586,45.516 5.422,6.262 4.742,15.734 -1.519,21.156 -6.262,5.426 -15.739,4.746 -21.161,-1.515 v 0" /><path
         id="path30"
         style="fill:#404a5f;fill-opacity:1;fill-rule:nonzero;stroke:none"
         d="m 291.066,199.648 c -6.543,0 -12.546,4.282 -14.425,10.879 -3.34,11.707 -5.036,23.883 -5.036,36.172 0,4.629 0.243,9.199 0.711,13.707 0.797,-7.683 2.258,-15.179 4.321,-22.422 1.879,-6.593 7.886,-10.89 14.418,-10.89 1.363,0 2.746,0.187 4.121,0.578 3.015,0.859 5.551,2.582 7.414,4.824 0.648,-4.648 1.617,-9.238 2.898,-13.734 2.278,-7.969 -2.343,-16.274 -10.308,-18.543 -1.371,-0.383 -2.754,-0.571 -4.114,-0.571 m 25.93,114.551 c -2.359,0.067 -4.699,0.215 -7.016,0.438 0.184,0.429 0.375,0.859 0.567,1.285 0.437,-0.473 0.871,-0.949 1.301,-1.426 1.058,0.02 2.109,0.039 3.164,0.039 0.777,0 1.551,-0.012 2.332,-0.039 l 0.105,-0.027 3.66,2.199 v -0.004 l -4.113,-2.465" /><path
         id="path32"
         style="fill:#394051;fill-opacity:1;fill-rule:nonzero;stroke:none"
         d="m 319.949,314.156 c -0.988,0 -1.972,0.016 -2.953,0.043 l 4.113,2.465 3.227,-2.418 c -1.453,-0.058 -2.918,-0.09 -4.387,-0.09" /><path
         id="path34"
         style="fill:#394051;fill-opacity:1;fill-rule:nonzero;stroke:none"
         d="m 302.527,260.391 c -0.613,4.539 -0.922,9.136 -0.922,13.757 0,0.043 0,0.086 0,0.129 0.004,3.743 0.211,7.434 0.61,11.063 2.238,-0.301 4.488,-0.543 6.762,-0.735 -3.106,-7.656 -5.297,-15.769 -6.45,-24.214" /><path
         id="path36"
         style="fill:#a43f4a;fill-opacity:1;fill-rule:nonzero;stroke:none"
         d="m 308.977,284.605 c -2.274,0.192 -4.524,0.434 -6.762,0.735 1.129,10.32 3.793,20.156 7.765,29.297 2.317,-0.223 4.657,-0.371 7.016,-0.438 0.981,-0.027 1.965,-0.043 2.953,-0.043 1.469,0 2.934,0.032 4.387,0.09 l 1.879,-1.406 c -7.18,-8.356 -13.039,-17.871 -17.238,-28.235" /><path
         id="path38"
         style="fill:#404a5f;fill-opacity:1;fill-rule:nonzero;stroke:none"
         d="m 403.301,115 c -18.004,0 -35.457,3.574 -51.891,10.625 -7.609,3.266 -11.137,12.086 -7.871,19.695 1.555,3.637 4.375,6.34 7.727,7.817 0.047,-0.02 0.093,-0.043 0.144,-0.063 15.926,-6.836 33.5,-10.625 51.875,-10.625 0.008,0 0.012,0 0.02,0 68.097,0.012 124.109,51.684 130.988,117.965 C 534.762,255.906 535,251.332 535,246.699 535,174.082 475.918,115 403.301,115 m 100.777,145.406 c -5.91,43.692 -39.68,78.664 -82.781,86.395 -0.824,1.484 -1.922,2.851 -3.281,4.027 -2.836,2.457 -6.336,3.664 -9.817,3.664 -4.199,0 -8.379,-1.758 -11.344,-5.179 v 0 c -0.347,-0.403 -0.695,-0.797 -1.05,-1.192 -15.524,-1.141 -30.078,-5.797 -42.887,-13.16 -3.547,6.797 -7.66,13.242 -12.289,19.277 17.281,13.547 38.984,21.602 62.676,21.606 28.129,-0.004 53.457,-11.36 71.91,-29.785 18.426,-18.45 29.777,-43.782 29.785,-71.911 0,-4.664 -0.312,-9.25 -0.922,-13.742 m -182.969,56.258 v 0.004 l 5.719,3.43 v 0 l -5.719,-3.434" /><path
         id="path40"
         style="fill:#394051;fill-opacity:1;fill-rule:nonzero;stroke:none"
         d="m 324.336,314.246 -3.227,2.418 5.719,3.434 c 0.715,-1.407 1.399,-2.832 2.047,-4.278 -0.422,-0.457 -0.844,-0.918 -1.258,-1.379 -1.09,-0.082 -2.183,-0.144 -3.281,-0.195" /><path
         id="path42"
         style="fill:#62a48d;fill-opacity:1;fill-rule:nonzero;stroke:none"
         d="m 328.875,315.82 c -0.648,1.446 -1.332,2.871 -2.047,4.278 v 0 l 13.07,7.84 c -3.835,4.906 -8.019,9.542 -12.527,13.863 1.301,1.457 2.641,2.875 4.02,4.258 2.914,2.91 5.996,5.64 9.238,8.179 4.629,-6.035 8.742,-12.48 12.289,-19.277 -8.953,-5.148 -17.055,-11.617 -24.043,-19.141" /><path
         id="path44"
         style="fill:#a43f4a;fill-opacity:1;fill-rule:nonzero;stroke:none"
         d="m 326.215,312.84 v 0 0 l -1.879,1.406 c 1.098,0.051 2.191,0.113 3.281,0.195 -0.472,-0.531 -0.941,-1.062 -1.402,-1.601 m 95.082,33.961 c -5.844,1.047 -11.856,1.594 -17.996,1.594 -2.52,0 -5.02,-0.094 -7.496,-0.274 0.355,0.395 0.703,0.789 1.05,1.192 v 0 c 2.965,3.421 7.145,5.179 11.344,5.179 3.481,0 6.981,-1.207 9.817,-3.664 1.359,-1.176 2.457,-2.543 3.281,-4.027" /><path
         id="path46"
         style="fill:#7db6d8;fill-opacity:1;fill-rule:nonzero;stroke:none"
         d="m 301.605,274.148 c 0,14.176 -7.277,32.985 -1.605,45.852 -9.262,3.734 -8.031,2.832 -17.121,6.984 -7.27,-16.597 -11.274,-34.589 -11.274,-52.836 0,-12.293 1.696,-24.46 5.036,-36.164 1.879,-6.593 7.886,-10.89 14.414,-10.89 1.363,0 2.75,0.191 4.125,0.582 7.965,2.273 12.586,10.578 10.308,18.539 -2.574,9.027 -3.883,18.43 -3.883,27.933" /><path
         id="path48"
         style="fill:#7db6d8;fill-opacity:1;fill-rule:nonzero;stroke:none"
         d="m 305.488,246.211 c -2.527,8.863 -3.883,18.223 -3.883,27.937 0.008,28.129 11.36,53.461 29.786,71.911 18.453,18.425 43.781,29.781 71.914,29.785 28.129,-0.004 53.457,-11.36 71.91,-29.785 18.426,-18.45 29.777,-43.782 29.785,-71.911 -0.008,-28.128 -11.359,-53.46 -29.785,-71.91 -18.453,-18.425 -43.781,-29.781 -71.91,-29.789 -14.27,0.004 -27.778,2.922 -40.067,8.196 -7.609,3.265 -16.429,-0.258 -19.699,-7.872 -3.266,-7.613 0.258,-16.429 7.871,-19.699 15.93,-6.84 33.512,-10.625 51.895,-10.625 72.738,0.012 131.683,58.957 131.695,131.699 -0.012,72.739 -58.957,131.688 -131.695,131.696 -72.742,-0.008 -131.692,-58.953 -131.7,-131.696 0,-12.515 1.754,-24.66 5.032,-36.164 2.269,-7.964 10.57,-12.582 18.539,-10.312 7.965,2.269 12.582,10.57 10.312,18.539 v 0" /><path
         id="path50"
         style="fill:#404a5f;fill-opacity:1;fill-rule:nonzero;stroke:none"
         d="m 286.504,335.047 c -8.207,4.699 -17.191,8.308 -26.809,10.594 -8.054,1.918 -13.035,10.004 -11.121,18.066 1.129,4.742 4.391,8.422 8.528,10.258 0.824,-0.363 1.691,-0.66 2.597,-0.875 v 0 c 14.449,-3.438 27.715,-9.969 39.055,-18.852 -4.613,-6.008 -8.715,-12.425 -12.25,-19.191" /><path
         id="path52"
         style="fill:#62a48d;fill-opacity:1;fill-rule:nonzero;stroke:none"
         d="m 298.754,354.238 c -11.34,8.883 -24.606,15.414 -39.055,18.852 v 0 c -0.906,0.215 -1.773,0.512 -2.597,0.875 1.875,0.828 3.925,1.281 6.039,1.281 1.156,0 2.328,-0.137 3.5,-0.418 13.238,-3.148 25.589,-8.203 36.789,-14.836 -1.614,-1.875 -3.172,-3.789 -4.676,-5.754" /><path
         id="path54"
         style="fill:#394051;fill-opacity:1;fill-rule:nonzero;stroke:none"
         d="m 317.449,314.469 -0.105,0.027 c -0.781,0.027 -1.555,0.039 -2.332,0.039 -1.055,0 -2.106,-0.019 -3.164,-0.039 -0.43,0.477 -0.864,0.953 -1.301,1.426 0.973,2.148 2.012,4.258 3.125,6.324 l 7.437,-5.578 -3.66,-2.199" /><path
         id="path56"
         style="fill:#394051;fill-opacity:1;fill-rule:nonzero;stroke:none"
         d="m 321.109,316.668 -7.437,5.578 c 1.824,3.387 3.836,6.66 6.019,9.809 2.637,-3.805 5.028,-7.801 7.137,-11.957 l -5.719,-3.43" /><path
         id="path58"
         style="fill:#538777;fill-opacity:1;fill-rule:nonzero;stroke:none"
         d="m 326.828,320.098 c -2.109,4.156 -4.5,8.152 -7.137,11.957 2.364,3.402 4.93,6.656 7.68,9.746 4.508,-4.321 8.692,-8.957 12.527,-13.863 l -13.07,-7.84" /><path
         id="path60"
         style="fill:#6594b2;fill-opacity:1;fill-rule:nonzero;stroke:none"
         d="m 310.547,315.922 c -6.949,7.488 -15.027,13.965 -24.043,19.125 3.535,6.766 7.637,13.183 12.25,19.191 1.504,1.965 3.062,3.879 4.676,5.754 8.718,-5.16 16.738,-11.277 23.941,-18.191 -2.75,-3.09 -5.316,-6.344 -7.68,-9.746 -2.183,-3.149 -4.195,-6.422 -6.019,-9.809 v 0 c -1.113,-2.066 -2.152,-4.176 -3.125,-6.324" /><path
         id="path62"
         style="fill:#77caa9;fill-opacity:1;fill-rule:nonzero;stroke:none"
         d="m 259.695,373.09 c 31.832,-7.567 56.993,-29.406 69.473,-57.832 3.742,3.555 7.613,7.148 12.598,8.812 4.797,1.606 9.722,2.696 14.613,3.926 -16.258,36.516 -48.738,64.535 -89.738,74.285 -8.055,1.934 -16.149,-3.062 -18.067,-11.125 -1.914,-8.058 3.067,-16.144 11.121,-18.066" /></g></g></svg>