<?xml version="1.0" encoding="UTF-8" standalone="no"?>
<svg
   xmlns:dc="http://purl.org/dc/elements/1.1/"
   xmlns:cc="http://creativecommons.org/ns#"
   xmlns:rdf="http://www.w3.org/1999/02/22-rdf-syntax-ns#"
   xmlns:svg="http://www.w3.org/2000/svg"
   xmlns="http://www.w3.org/2000/svg"
   viewBox="0 0 85.333336 85.333336"
   height="85.333336"
   width="85.333336"
   xml:space="preserve"
   id="svg2"
   version="1.1"><metadata
     id="metadata8"><rdf:RDF><cc:Work
         rdf:about=""><dc:format>image/svg+xml</dc:format><dc:type
           rdf:resource="http://purl.org/dc/dcmitype/StillImage" /></cc:Work></rdf:RDF></metadata><defs
     id="defs6" /><g
     transform="matrix(1.3333333,0,0,-1.3333333,0,85.333333)"
     id="g10"><g
       transform="scale(0.1)"
       id="g12"><path
         id="path14"
         style="fill:#495672;fill-opacity:1;fill-rule:nonzero;stroke:none"
         d="M 640,320 C 640,143.27 496.73,0 320,0 143.27,0 0,143.27 0,320 0,496.73 143.27,640 320,640 496.73,640 640,496.73 640,320" /><path
         id="path16"
         style="fill:#404a5f;fill-opacity:1;fill-rule:nonzero;stroke:none"
         d="m 453.332,90 c -6.934,0 -13.758,2.668 -18.852,7.6641 L 320,209.941 205.52,97.6641 C 200.426,92.668 193.602,90 186.668,90 c -3.441,0 -6.906,0.6523 -10.215,1.9883 C 166.508,96.043 160,105.59 160,116.152 V 430 136.152 c 0,-10.562 6.508,-20.109 16.453,-24.164 3.309,-1.336 6.774,-1.988 10.215,-1.988 6.934,0 13.758,2.668 18.852,7.664 L 320,229.941 434.48,117.664 c 5.094,-4.996 11.918,-7.664 18.852,-7.664 3.441,0 6.906,0.652 10.188,1.988 9.972,4.055 16.48,13.602 16.48,24.164 v -20 C 480,105.59 473.492,96.043 463.52,91.9883 460.238,90.6523 456.773,90 453.332,90" /><path
         id="path18"
         style="fill:#f3cc70;fill-opacity:1;fill-rule:nonzero;stroke:none"
         d="M 160,450 V 136.152 c 0,-10.562 6.508,-20.109 16.453,-24.164 3.309,-1.336 6.774,-1.988 10.215,-1.988 6.934,0 13.758,2.668 18.852,7.664 L 320,229.941 434.48,117.664 c 5.094,-4.996 11.918,-7.664 18.852,-7.664 3.441,0 6.906,0.652 10.188,1.988 9.972,4.055 16.48,13.602 16.48,24.164 V 450 H 160" /><path
         id="path20"
         style="fill:#404a5f;fill-opacity:1;fill-rule:nonzero;stroke:none"
         d="M 480,450 H 160 c 0,11.039 11.945,20 26.668,20 H 453.332 C 468.055,470 480,461.039 480,450" /><path
         id="path22"
         style="fill:#c7a85f;fill-opacity:1;fill-rule:nonzero;stroke:none"
         d="m 160,430 h 320 v 20 H 160 Z" /><path
         id="path24"
         style="fill:#e08e4c;fill-opacity:1;fill-rule:nonzero;stroke:none"
         d="m 480,450 v 50 c 0,11.039 -11.945,20 -26.668,20 H 186.668 C 171.945,520 160,511.039 160,500 v -50 h 320" /></g></g></svg>