<?xml version="1.0" encoding="UTF-8" standalone="no"?>
<svg
   xmlns:dc="http://purl.org/dc/elements/1.1/"
   xmlns:cc="http://creativecommons.org/ns#"
   xmlns:rdf="http://www.w3.org/1999/02/22-rdf-syntax-ns#"
   xmlns:svg="http://www.w3.org/2000/svg"
   xmlns="http://www.w3.org/2000/svg"
   viewBox="0 0 85.333336 85.333336"
   height="85.333336"
   width="85.333336"
   xml:space="preserve"
   id="svg2"
   version="1.1"><metadata
     id="metadata8"><rdf:RDF><cc:Work
         rdf:about=""><dc:format>image/svg+xml</dc:format><dc:type
           rdf:resource="http://purl.org/dc/dcmitype/StillImage" /></cc:Work></rdf:RDF></metadata><defs
     id="defs6" /><g
     transform="matrix(1.3333333,0,0,-1.3333333,0,85.333333)"
     id="g10"><g
       transform="scale(0.1)"
       id="g12"><path
         id="path14"
         style="fill:#e1e3cc;fill-opacity:1;fill-rule:nonzero;stroke:none"
         d="M 640,320 C 640,143.27 496.73,0 320,0 143.27,0 0,143.27 0,320 0,496.73 143.27,640 320,640 496.73,640 640,496.73 640,320" /><path
         id="path16"
         style="fill:#b7b7a7;fill-opacity:1;fill-rule:nonzero;stroke:none"
         d="m 180,140 c -11.047,0 -20,8.953 -20,20 v 60 -40 c 0,-11.047 8.953,-20 20,-20 11.047,0 20,8.953 20,20 v -20 c 0,-11.047 -8.953,-20 -20,-20" /><path
         id="path18"
         style="fill:#b7b7a7;fill-opacity:1;fill-rule:nonzero;stroke:none"
         d="m 460,140 c -11.047,0 -20,8.953 -20,20 v 60 -40 c 0,-11.047 8.953,-20 20,-20 11.047,0 20,8.953 20,20 v -20 c 0,-11.047 -8.953,-20 -20,-20" /><path
         id="path20"
         style="fill:#e08e4c;fill-opacity:1;fill-rule:nonzero;stroke:none"
         d="m 200,180 c 0,-11.047 -8.953,-20 -20,-20 -11.047,0 -20,8.953 -20,20 v 80 c 0,11.047 8.953,20 20,20 11.047,0 20,-8.953 20,-20 v -80" /><path
         id="path22"
         style="fill:#e08e4c;fill-opacity:1;fill-rule:nonzero;stroke:none"
         d="m 480,180 c 0,-11.047 -8.953,-20 -20,-20 -11.047,0 -20,8.953 -20,20 v 80 c 0,11.047 8.953,20 20,20 11.047,0 20,-8.953 20,-20 v -80" /><path
         id="path24"
         style="fill:#b7b7a7;fill-opacity:1;fill-rule:nonzero;stroke:none"
         d="m 520,220 h -40 v 40 c 0,11.047 -8.953,20 -20,20 -11.047,0 -20,-8.953 -20,-20 v -20 0 -20 H 340 200 v 40 c 0,11.047 -8.953,20 -20,20 -11.047,0 -20,-8.953 -20,-20 v -20 0 -20 h -40 c -13.109,0 -24.6367,6.395 -31.9336,16.137 C 83.0664,242.813 80,251.016 80,260 v 120 c 0,22.094 17.9102,40 40,40 h 60 120 140 80 c 13.109,0 24.637,-6.395 31.934,-16.137 5,-6.675 8.066,-14.879 8.066,-23.863 V 260 c 0,-22.09 -17.906,-40 -40,-40" /><path
         id="path26"
         style="fill:#b77744;fill-opacity:1;fill-rule:nonzero;stroke:none"
         d="m 200,220 h -40 v 40 c 0,11.047 8.953,20 20,20 11.047,0 20,-8.953 20,-20 v -40" /><path
         id="path28"
         style="fill:#b77744;fill-opacity:1;fill-rule:nonzero;stroke:none"
         d="m 480,220 h -40 v 40 c 0,11.047 8.953,20 20,20 11.047,0 20,-8.953 20,-20 v -40" /><path
         id="path30"
         style="fill:#495672;fill-opacity:1;fill-rule:nonzero;stroke:none"
         d="M 120,440 C 97.9102,440 80,422.094 80,400 V 280 c 0,-8.984 3.0664,-17.187 8.0664,-23.863 L 180,440 h -60" /><path
         id="path32"
         style="fill:#495672;fill-opacity:1;fill-rule:nonzero;stroke:none"
         d="M 300,440 200,240 H 340 L 440,440 H 300" /><path
         id="path34"
         style="fill:#f3cc70;fill-opacity:1;fill-rule:nonzero;stroke:none"
         d="M 180,440 88.0664,256.137 C 95.3633,246.395 106.891,240 120,240 h 80 L 300,440 H 180" /><path
         id="path36"
         style="fill:#495672;fill-opacity:1;fill-rule:nonzero;stroke:none"
         d="m 460,240 h 60 c 22.094,0 40,17.91 40,40 v 120 c 0,8.984 -3.066,17.188 -8.066,23.863 L 460,240" /><path
         id="path38"
         style="fill:#f3cc70;fill-opacity:1;fill-rule:nonzero;stroke:none"
         d="M 520,440 H 440 L 340,240 h 120 l 91.934,183.863 C 544.637,433.605 533.109,440 520,440" /></g></g></svg>