<?xml version="1.0" encoding="UTF-8" standalone="no"?>
<svg
   xmlns:dc="http://purl.org/dc/elements/1.1/"
   xmlns:cc="http://creativecommons.org/ns#"
   xmlns:rdf="http://www.w3.org/1999/02/22-rdf-syntax-ns#"
   xmlns:svg="http://www.w3.org/2000/svg"
   xmlns="http://www.w3.org/2000/svg"
   viewBox="0 0 85.333336 85.333336"
   height="85.333336"
   width="85.333336"
   xml:space="preserve"
   id="svg2"
   version="1.1"><metadata
     id="metadata8"><rdf:RDF><cc:Work
         rdf:about=""><dc:format>image/svg+xml</dc:format><dc:type
           rdf:resource="http://purl.org/dc/dcmitype/StillImage" /></cc:Work></rdf:RDF></metadata><defs
     id="defs6" /><g
     transform="matrix(1.3333333,0,0,-1.3333333,0,85.333333)"
     id="g10"><g
       transform="scale(0.1)"
       id="g12"><path
         id="path14"
         style="fill:#495672;fill-opacity:1;fill-rule:nonzero;stroke:none"
         d="M 640,320 C 640,143.27 496.73,0 320,0 143.27,0 0,143.27 0,320 0,496.73 143.27,640 320,640 496.73,640 640,496.73 640,320" /><path
         id="path16"
         style="fill:#404a5f;fill-opacity:1;fill-rule:nonzero;stroke:none"
         d="m 267.957,103.047 c -9.309,0 -12.324,6.617 -7.863,14.726 0,0 0.933,2.27 2.586,6.204 1.437,-0.602 3.199,-0.93 5.277,-0.93 4.559,-0.004 10.629,1.586 18.066,5.359 l 81.317,44.356 c 37.945,21.09 49.379,28.687 51.387,62.558 l 0.316,-2.277 c 0.574,-49.57 -7.895,-55.934 -51.703,-80.281 l -81.317,-44.356 c -7.437,-3.773 -13.507,-5.363 -18.066,-5.359" /><path
         id="path18"
         style="fill:#404a5f;fill-opacity:1;fill-rule:nonzero;stroke:none"
         d="m 138.441,230.52 c -7.023,0 -10.707,7.781 -5.179,21.984 1.336,-1.309 3.113,-1.984 5.179,-1.984 2.055,0 4.395,0.668 6.875,2.031 0,0 53.813,22.195 91.442,40.855 -0.192,-2.414 -0.352,-4.777 -0.477,-7.09 -1.222,-1.496 -2.429,-3 -3.629,-4.515 -6.519,-4.66 -13.277,-10.336 -20.187,-17.246 -1.606,-1.606 -3.192,-3.239 -4.766,-4.903 -31.39,-14.316 -62.383,-27.101 -62.383,-27.101 -2.48,-1.363 -4.82,-2.031 -6.875,-2.031" /><path
         id="path20"
         style="fill:#c84755;fill-opacity:1;fill-rule:nonzero;stroke:none"
         d="m 320.961,263.176 c -15.555,-15.555 -60.867,-125.403 -60.867,-125.403 -6.649,-12.082 3.301,-20.851 25.929,-9.367 l 81.317,44.356 c 43.808,24.347 52.277,30.707 51.703,80.281 l -8.152,58.531 c -2.793,20.051 -17.805,23.727 -33.36,8.172 l -56.57,-56.57" /><path
         id="path22"
         style="fill:#c84755;fill-opacity:1;fill-rule:nonzero;stroke:none"
         d="m 270.719,313.418 c -15.555,-15.555 -125.403,-60.867 -125.403,-60.867 -12.082,-6.649 -20.851,3.301 -9.367,25.929 l 44.356,81.317 c 24.347,43.808 30.711,52.277 80.281,51.703 l 58.531,-8.152 c 20.051,-2.789 23.727,-17.805 8.172,-33.36 l -56.57,-56.57" /><path
         id="path24"
         style="fill:#404a5f;fill-opacity:1;fill-rule:nonzero;stroke:none"
         d="m 133.992,104.52 c -1.312,0 -2.234,0.234 -2.722,0.722 -1.665,1.66 -0.25,8.789 3.691,19.317 17.789,1.293 89.617,35.879 135.621,81.879 1.133,1.132 2.231,2.261 3.301,3.386 0.797,-0.008 1.605,-0.011 2.426,-0.011 4.379,0 9.05,0.097 13.957,0.332 -5.078,-7.594 -11.524,-15.547 -19.684,-23.707 C 223.695,139.551 149.973,104.52 133.992,104.52" /><path
         id="path26"
         style="fill:#e08e4c;fill-opacity:1;fill-rule:nonzero;stroke:none"
         d="m 212.465,264.555 c 50.742,50.742 93.371,35.254 93.371,35.254 0,0 15.488,-42.629 -35.254,-93.371 -50.742,-50.743 -132.91,-87.594 -139.312,-81.196 -6.204,6.203 30.453,88.567 81.195,139.313" /><path
         id="path28"
         style="fill:#f3cc70;fill-opacity:1;fill-rule:nonzero;stroke:none"
         d="m 254.891,306.98 c 50.742,50.743 93.371,35.254 93.371,35.254 0,0 15.488,-42.629 -35.254,-93.371 -50.742,-50.742 -132.91,-87.593 -139.313,-81.195 -6.203,6.203 30.453,88.57 81.196,139.312" /><path
         id="path30"
         style="fill:#404a5f;fill-opacity:1;fill-rule:nonzero;stroke:none"
         d="m 290.266,210.145 c 4.863,7.285 8.464,14.242 11.105,20.75 0.145,0.011 0.281,0.023 0.43,0.035 -3.246,-6.496 -6.613,-13.524 -9.961,-20.703 -0.531,-0.028 -1.051,-0.055 -1.574,-0.082 m 128.66,43.738 -2.52,18.086 c 6.864,5.125 13.543,10.855 19.934,17.25 53.484,53.484 74.015,126.051 76.812,171.324 3.09,-40.77 -14.492,-129.004 -76.812,-191.324 -5.61,-5.61 -11.434,-10.707 -17.414,-15.336" /><path
         id="path32"
         style="fill:#a43f4a;fill-opacity:1;fill-rule:nonzero;stroke:none"
         d="m 291.84,210.227 c 3.348,7.179 6.715,14.207 9.961,20.703 34.344,3.039 77.293,13.164 114.605,41.039 l 2.52,-18.086 C 377.359,221.711 328.293,212.172 291.84,210.227" /><path
         id="path34"
         style="fill:#394051;fill-opacity:1;fill-rule:nonzero;stroke:none"
         d="m 276.309,209.813 c -0.821,0 -1.629,0.003 -2.426,0.011 5.426,5.711 10.023,11.317 13.914,16.75 1.531,1.215 3.055,2.442 4.566,3.68 2.922,0.16 5.934,0.375 9.008,0.641 -2.641,-6.508 -6.242,-13.465 -11.105,-20.75 -4.907,-0.235 -9.578,-0.332 -13.957,-0.332" /><path
         id="path36"
         style="fill:#b77744;fill-opacity:1;fill-rule:nonzero;stroke:none"
         d="m 273.883,209.824 c -3.07,0.024 -5.981,0.098 -8.723,0.203 7.641,5.176 15.262,10.715 22.637,16.547 -3.891,-5.433 -8.488,-11.039 -13.914,-16.75" /><path
         id="path38"
         style="fill:#c7a85f;fill-opacity:1;fill-rule:nonzero;stroke:none"
         d="m 265.16,210.027 c -1.148,0.043 -2.265,0.094 -3.351,0.149 l 25.511,19.844 c 1.653,0.062 3.336,0.14 5.043,0.234 -1.511,-1.238 -3.035,-2.465 -4.566,-3.68 -7.375,-5.832 -14.996,-11.371 -22.637,-16.547 m -28.957,25.754 c -0.351,6.985 -0.508,15.278 -0.191,24.516 0.343,-9.961 1.136,-17.758 1.738,-22.527 l -1.547,-1.989" /><path
         id="path40"
         style="fill:#e1e3cc;fill-opacity:1;fill-rule:nonzero;stroke:none"
         d="m 436.34,289.219 c -78.106,-78.106 -197.824,-56.731 -197.824,-56.731 0,0 -21.375,119.719 56.73,197.825 78.106,78.105 196.43,86.414 211.969,70.875 15.066,-15.067 7.23,-133.864 -70.875,-211.969" /><path
         id="path42"
         style="fill:#b77744;fill-opacity:1;fill-rule:nonzero;stroke:none"
         d="m 195.719,159.594 c -2.11,0 -4.301,0.996 -6.703,3.394 -2.047,2.051 -3.075,3.946 -3.328,5.77 13.238,3.957 35.609,14.191 59.742,28.68 l -35.2,-27.379 c -5.41,-5.411 -9.757,-10.465 -14.511,-10.465" /><path
         id="path44"
         style="fill:#c7a85f;fill-opacity:1;fill-rule:nonzero;stroke:none"
         d="m 185.688,168.758 c -0.719,5.129 4.64,9.683 10.402,15.445 l 40.113,51.578 c 0.735,-14.449 2.313,-23.293 2.313,-23.293 0,0 8.839,-1.582 23.293,-2.312 L 245.43,197.438 c -24.133,-14.489 -46.504,-24.723 -59.742,-28.68" /><path
         id="path46"
         style="fill:#a48c53;fill-opacity:1;fill-rule:nonzero;stroke:none"
         d="m 261.809,210.176 c -14.454,0.73 -23.293,2.312 -23.293,2.312 0,0 -1.578,8.844 -2.313,23.293 l 1.547,1.989 c 0.434,-3.418 0.766,-5.282 0.766,-5.282 0,0 14.968,-2.675 37.793,-2.675 3.496,0 7.175,0.062 11.011,0.207 l -25.511,-19.844" /><path
         id="path48"
         style="fill:#b7b7a7;fill-opacity:1;fill-rule:nonzero;stroke:none"
         d="m 276.309,229.813 c -22.825,0 -37.793,2.675 -37.793,2.675 0,0 -0.332,1.864 -0.766,5.282 l 57.332,73.71 c 5.41,5.411 23.328,10.469 36.426,10.469 5.812,0 10.672,-0.996 13.07,-3.398 7.813,-7.809 0.742,-41.688 -7.066,-49.496 L 287.32,230.02 c -3.836,-0.145 -7.515,-0.207 -11.011,-0.207" /><path
         id="path50"
         style="fill:#c84755;fill-opacity:1;fill-rule:nonzero;stroke:none"
         d="m 210.23,190.059 c -7.808,-7.809 -13.402,-14.879 -21.214,-7.071 -7.809,7.813 -0.739,13.403 7.074,21.215 l 98.992,127.277 c 7.813,7.813 41.688,14.883 49.5,7.071 7.809,-7.809 0.738,-41.688 -7.07,-49.496 L 210.23,190.059" /><path
         id="path52"
         style="fill:#b7b7a7;fill-opacity:1;fill-rule:nonzero;stroke:none"
         d="m 396.043,328.5 c -10.234,0 -20.473,3.906 -28.281,11.719 -15.621,15.621 -15.621,40.945 0,56.566 7.808,7.813 18.047,11.719 28.281,11.719 10.238,0 20.477,-3.906 28.285,-11.719 15.621,-15.621 15.621,-40.945 0,-56.566 C 416.52,332.406 406.281,328.5 396.043,328.5" /><path
         id="path54"
         style="fill:#b7b7a7;fill-opacity:1;fill-rule:nonzero;stroke:none"
         d="m 452.613,405.07 c -5.121,0 -10.238,1.953 -14.14,5.86 -7.813,7.808 -7.813,20.472 0,28.285 3.902,3.902 9.019,5.855 14.14,5.855 5.117,0 10.239,-1.953 14.141,-5.855 7.812,-7.813 7.812,-20.477 0,-28.285 -3.902,-3.907 -9.024,-5.86 -14.141,-5.86" /><path
         id="path56"
         style="fill:#495672;fill-opacity:1;fill-rule:nonzero;stroke:none"
         d="m 424.328,360.219 c -15.621,-15.621 -40.945,-15.621 -56.566,0 -15.621,15.621 -15.621,40.945 0,56.566 15.621,15.621 40.945,15.621 56.566,0 15.621,-15.621 15.621,-40.945 0,-56.566" /><path
         id="path58"
         style="fill:#495672;fill-opacity:1;fill-rule:nonzero;stroke:none"
         d="m 466.754,430.93 c -7.809,-7.813 -20.473,-7.813 -28.281,0 -7.813,7.808 -7.813,20.472 0,28.285 7.808,7.808 20.472,7.808 28.281,0 7.812,-7.813 7.812,-20.477 0,-28.285" /></g></g></svg>