<?xml version="1.0" encoding="UTF-8" standalone="no"?>
<svg
   xmlns:dc="http://purl.org/dc/elements/1.1/"
   xmlns:cc="http://creativecommons.org/ns#"
   xmlns:rdf="http://www.w3.org/1999/02/22-rdf-syntax-ns#"
   xmlns:svg="http://www.w3.org/2000/svg"
   xmlns="http://www.w3.org/2000/svg"
   viewBox="0 0 85.333336 85.333336"
   height="85.333336"
   width="85.333336"
   xml:space="preserve"
   id="svg2"
   version="1.1"><metadata
     id="metadata8"><rdf:RDF><cc:Work
         rdf:about=""><dc:format>image/svg+xml</dc:format><dc:type
           rdf:resource="http://purl.org/dc/dcmitype/StillImage" /></cc:Work></rdf:RDF></metadata><defs
     id="defs6" /><g
     transform="matrix(1.3333333,0,0,-1.3333333,0,85.333333)"
     id="g10"><g
       transform="scale(0.1)"
       id="g12"><path
         id="path14"
         style="fill:#c84755;fill-opacity:1;fill-rule:nonzero;stroke:none"
         d="M 640,320 C 640,143.27 496.73,0 320,0 143.27,0 0,143.27 0,320 0,496.73 143.27,640 320,640 496.73,640 640,496.73 640,320" /><path
         id="path16"
         style="fill:#a43f4a;fill-opacity:1;fill-rule:nonzero;stroke:none"
         d="M 500,159.996 H 180 c -22.09,0 -40,17.91 -40,40 v 240 c 0,15.152 8.559,29 22.109,35.777 5.661,2.832 11.789,4.227 17.887,4.227 8.5,0 16.949,-2.707 24.004,-8 L 524,232 c 13.773,-10.332 19.395,-28.316 13.949,-44.652 -5.445,-16.336 -20.73,-27.352 -37.949,-27.352 m -280,200 v -120 h 160 l -160,120" /><path
         id="path18"
         style="fill:#f3cc70;fill-opacity:1;fill-rule:nonzero;stroke:none"
         d="m 220,259.996 h 160 l -160,120 z m 280,-80 H 180 c -22.09,0 -40,17.91 -40,40 v 240 c 0,15.152 8.559,29 22.109,35.777 13.555,6.782 29.778,5.313 41.891,-3.773 L 524,252 c 13.773,-10.332 19.395,-28.316 13.949,-44.652 -5.445,-16.336 -20.73,-27.352 -37.949,-27.352" /><path
         id="path20"
         style="fill:#e08e4c;fill-opacity:1;fill-rule:nonzero;stroke:none"
         d="m 210,230 c -5.523,0 -10,-4.477 -10,-10 v -40 h 20 v 40 c 0,5.523 -4.477,10 -10,10" /><path
         id="path22"
         style="fill:#e08e4c;fill-opacity:1;fill-rule:nonzero;stroke:none"
         d="m 260,210 c -5.523,0 -10,-4.477 -10,-10 v -20 h 20 v 20 c 0,5.523 -4.477,10 -10,10" /><path
         id="path24"
         style="fill:#e08e4c;fill-opacity:1;fill-rule:nonzero;stroke:none"
         d="m 310,230 c -5.523,0 -10,-4.477 -10,-10 v -40 h 20 v 40 c 0,5.523 -4.477,10 -10,10" /><path
         id="path26"
         style="fill:#e08e4c;fill-opacity:1;fill-rule:nonzero;stroke:none"
         d="m 360,210 c -5.523,0 -10,-4.477 -10,-10 v -20 h 20 v 20 c 0,5.523 -4.477,10 -10,10" /><path
         id="path28"
         style="fill:#e08e4c;fill-opacity:1;fill-rule:nonzero;stroke:none"
         d="m 410,230 c -5.523,0 -10,-4.477 -10,-10 v -40 h 20 v 40 c 0,5.523 -4.477,10 -10,10" /><path
         id="path30"
         style="fill:#e08e4c;fill-opacity:1;fill-rule:nonzero;stroke:none"
         d="m 470,200 c 0,5.523 -4.477,10 -10,10 -5.523,0 -10,-4.477 -10,-10 v -20 h 20 v 20" /></g></g></svg>