<?xml version="1.0" encoding="UTF-8" standalone="no"?>
<svg
   xmlns:dc="http://purl.org/dc/elements/1.1/"
   xmlns:cc="http://creativecommons.org/ns#"
   xmlns:rdf="http://www.w3.org/1999/02/22-rdf-syntax-ns#"
   xmlns:svg="http://www.w3.org/2000/svg"
   xmlns="http://www.w3.org/2000/svg"
   viewBox="0 0 85.333336 85.333336"
   height="85.333336"
   width="85.333336"
   xml:space="preserve"
   id="svg2"
   version="1.1"><metadata
     id="metadata8"><rdf:RDF><cc:Work
         rdf:about=""><dc:format>image/svg+xml</dc:format><dc:type
           rdf:resource="http://purl.org/dc/dcmitype/StillImage" /></cc:Work></rdf:RDF></metadata><defs
     id="defs6" /><g
     transform="matrix(1.3333333,0,0,-1.3333333,0,85.333333)"
     id="g10"><g
       transform="scale(0.1)"
       id="g12"><path
         id="path14"
         style="fill:#e08e4c;fill-opacity:1;fill-rule:nonzero;stroke:none"
         d="M 640,320 C 640,143.27 496.73,0 320,0 143.27,0 0,143.27 0,320 0,496.73 143.27,640 320,640 496.73,640 640,496.73 640,320" /><path
         id="path16"
         style="fill:#b77744;fill-opacity:1;fill-rule:nonzero;stroke:none"
         d="m 350.652,399.172 c -27.839,0 -50.414,22.57 -50.414,50.414 0,27.844 22.575,50.414 50.414,50.414 27.844,0 50.418,-22.57 50.418,-50.414 0,-27.844 -22.574,-50.414 -50.418,-50.414" /><path
         id="path18"
         style="fill:#b77744;fill-opacity:1;fill-rule:nonzero;stroke:none"
         d="m 185.02,100.488 c -9.579,0 -18.719,5.532 -22.86,14.856 -5.605,12.617 0.078,27.386 12.695,32.996 106.567,47.363 100.977,101.363 100.868,101.887 -1.215,6.074 -0.114,12.296 2.933,17.507 2.117,-7.5 4.797,-15.414 8.133,-23.75 4.691,-11.726 15.957,-18.867 27.863,-18.867 3.707,0 7.485,0.696 11.133,2.153 15.297,6.125 22.785,23.414 16.82,38.738 40.262,-18.567 100.887,-59.012 112.024,-136.981 1.949,-13.668 -7.547,-26.332 -21.215,-28.285 -1.184,-0.168 -2.363,-0.25 -3.527,-0.25 -12.25,0 -22.977,8.981 -24.758,21.465 -7.816,54.731 -53.59,84.648 -83.867,98.68 -9.645,-32.539 -39.332,-79.426 -126.106,-117.992 -3.293,-1.461 -6.742,-2.157 -10.136,-2.157" /><path
         id="path20"
         style="fill:#b77744;fill-opacity:1;fill-rule:nonzero;stroke:none"
         d="m 213.816,244.531 c -13.808,0 -25,11.192 -25,25 0,73.723 70.196,104.899 107.313,111.082 1.387,0.239 2.777,0.352 4.156,0.352 7.246,0 14.195,-3.176 18.981,-8.785 1.656,-1.91 34.214,-38.7 78.078,-38.7 11.504,0 23.773,2.528 36.48,8.879 3.594,1.797 7.41,2.649 11.168,2.649 9.168,0 17.992,-5.07 22.371,-13.824 6.176,-12.352 1.172,-27.371 -11.175,-33.543 -20.083,-10.043 -39.762,-14.133 -58.344,-14.133 -23.914,-0.004 -46.024,6.765 -64.906,16.332 -3.797,25.433 3.988,36.043 4.097,36.18 l -1.18,-1.274 -42.421,42.422 c -2.844,-2.84 -19.575,-21.066 -21.395,-57.488 -16.543,-9.075 -33.223,-24.563 -33.223,-50.149 0,-13.808 -11.195,-25 -25,-25" /><path
         id="path22"
         style="fill:#b77744;fill-opacity:1;fill-rule:nonzero;stroke:none"
         d="m 342.605,266.008 c -19.707,9.086 -34.535,12.93 -36.3,13.371 -2.012,0.508 -4.051,0.754 -6.075,0.754 -6.347,0 -12.539,-2.43 -17.242,-6.914 -1.715,-1.637 -3.168,-3.489 -4.332,-5.485 -5.726,20.278 -7.34,37.536 -6.617,51.946 7.25,3.976 14.477,6.718 20.258,8.539 10.543,-9.84 24.394,-20.145 40.641,-28.379 1.375,-9.188 4.257,-20.309 9.562,-33.57 0.035,-0.086 0.07,-0.176 0.105,-0.262" /><path
         id="path24"
         style="fill:#97633d;fill-opacity:1;fill-rule:nonzero;stroke:none"
         d="m 314.652,225.117 c -11.906,0 -23.172,7.141 -27.863,18.867 -3.336,8.336 -6.016,16.25 -8.133,23.75 1.164,1.996 2.617,3.848 4.332,5.485 4.703,4.484 10.895,6.914 17.242,6.914 2.024,0 4.063,-0.246 6.075,-0.754 1.765,-0.441 16.593,-4.285 36.3,-13.371 5.965,-15.324 -1.523,-32.613 -16.82,-38.738 -3.648,-1.457 -7.426,-2.153 -11.133,-2.153" /><path
         id="path26"
         style="fill:#97633d;fill-opacity:1;fill-rule:nonzero;stroke:none"
         d="m 332.938,299.84 c -16.247,8.234 -30.098,18.539 -40.641,28.379 -5.781,-1.821 -13.008,-4.563 -20.258,-8.539 1.82,36.422 18.551,54.648 21.395,57.488 l 42.421,-42.422 1.18,1.274 c -0.109,-0.137 -7.894,-10.747 -4.097,-36.18" /><path
         id="path28"
         style="fill:#ffffff;fill-opacity:1;fill-rule:nonzero;stroke:none"
         d="m 401.07,479.586 c 0,-27.844 -22.574,-50.414 -50.418,-50.414 -27.839,0 -50.414,22.57 -50.414,50.414 0,27.844 22.575,50.414 50.414,50.414 27.844,0 50.418,-22.57 50.418,-50.414" /><path
         id="path30"
         style="fill:#ffffff;fill-opacity:1;fill-rule:nonzero;stroke:none"
         d="m 195.16,132.648 c 56.121,24.915 89.184,53.59 107.985,80.575 18.859,26.925 22.652,51.597 22.57,65.285 0,6.113 -0.684,10.125 -0.961,11.523 l -24.516,-4.902 -6.062,-24.254 2.738,10.957 -2.809,-10.937 0.071,-0.02 2.738,10.957 -2.809,-10.937 c 0.129,0.019 26.739,-7.047 53.235,-24.586 13.269,-8.735 26.449,-19.977 36.797,-33.809 10.355,-13.883 18.047,-30.156 20.992,-50.543 1.949,-13.668 14.613,-23.164 28.281,-21.215 13.668,1.953 23.168,14.617 21.215,28.285 -4.207,29.707 -16.129,54.649 -31.176,74.387 -22.648,29.684 -51.707,48.18 -74.918,59.699 -23.273,11.481 -41.019,15.957 -42.226,16.27 -8.352,2.09 -17.09,-0.219 -23.317,-6.16 -6.23,-5.938 -8.953,-14.555 -7.261,-22.996 l 14.714,2.945 -14.836,-2.289 0.122,-0.656 14.714,2.945 -14.836,-2.289 v -0.008 c 0.028,-0.211 0.11,-1.031 0.11,-2.367 -0.078,-5.399 -1.11,-18.668 -13.586,-36.692 -12.539,-17.964 -37.328,-41.253 -87.277,-63.48 -12.618,-5.606 -18.297,-20.379 -12.692,-32.996 5.61,-12.617 20.383,-18.301 33,-12.695" /><path
         id="path32"
         style="fill:#ffffff;fill-opacity:1;fill-rule:nonzero;stroke:none"
         d="m 433.828,372.363 c -13.32,-6.625 -25.195,-8.965 -36.41,-9 -10.625,0.004 -20.746,2.235 -30.195,5.813 -14.149,5.34 -26.606,13.836 -35.227,20.992 -4.316,3.566 -7.68,6.773 -9.871,8.984 -1.098,1.11 -1.898,1.965 -2.383,2.496 l -0.488,0.543 -0.574,-0.503 0.582,0.492 -0.008,0.011 -0.574,-0.503 0.582,0.492 c -5.692,6.675 -14.481,9.883 -23.133,8.437 -1.684,-0.363 -25.609,-4.179 -51.699,-19.269 -13,-7.598 -26.723,-18.235 -37.535,-33.508 -10.832,-15.184 -18.172,-35.27 -18.082,-58.305 0,-13.805 11.195,-25 25,-25 13.808,0 25,11.192 25.003,24.996 0.09,12.977 3.555,21.699 8.926,29.473 7.977,11.527 22.071,20.316 34.77,25.523 6.285,2.621 12.062,4.387 16.105,5.45 2.024,0.531 3.613,0.886 4.617,1.097 l 1.051,0.211 0.164,0.031 -1.808,10.231 1.711,-10.246 0.097,0.015 -1.808,10.231 1.711,-10.246 -4.114,24.656 -19.023,-16.219 c 0.957,-1.082 12.351,-14.41 32.18,-28.144 9.925,-6.852 22,-13.813 36.097,-19.164 14.074,-5.344 30.254,-9.063 47.926,-9.063 18.59,-0.031 38.734,4.223 58.766,14.274 12.351,6.172 17.355,21.191 11.183,33.539 -6.176,12.347 -21.191,17.355 -33.539,11.179" /><path
         id="path34"
         style="fill:#ffffff;fill-opacity:1;fill-rule:nonzero;stroke:none"
         d="m 293.43,407.172 c -2.051,-2.047 -7.5,-8.102 -12.426,-18.777 -4.941,-10.641 -9.191,-25.883 -9.164,-45.118 -0.004,-19.246 4.152,-42.316 14.949,-69.289 6.152,-15.383 23.609,-22.867 38.996,-16.715 15.383,6.157 22.867,23.614 16.711,38.997 -8.406,21.046 -10.652,36.382 -10.656,47.007 0.027,10.649 2.18,16.743 3.64,19.973 0.743,1.605 1.344,2.48 1.508,2.711 l 0.039,0.055 -11.496,9.054 10.324,-10.324 1.172,1.27 -11.496,9.054 10.324,-10.324 c 11.715,11.715 11.715,30.711 0,42.426 -11.714,11.715 -30.71,11.715 -42.425,0" /></g></g></svg>