<?xml version="1.0" encoding="UTF-8" standalone="no"?>
<svg
   xmlns:dc="http://purl.org/dc/elements/1.1/"
   xmlns:cc="http://creativecommons.org/ns#"
   xmlns:rdf="http://www.w3.org/1999/02/22-rdf-syntax-ns#"
   xmlns:svg="http://www.w3.org/2000/svg"
   xmlns="http://www.w3.org/2000/svg"
   viewBox="0 0 85.333336 85.333336"
   height="85.333336"
   width="85.333336"
   xml:space="preserve"
   id="svg2"
   version="1.1"><metadata
     id="metadata8"><rdf:RDF><cc:Work
         rdf:about=""><dc:format>image/svg+xml</dc:format><dc:type
           rdf:resource="http://purl.org/dc/dcmitype/StillImage" /></cc:Work></rdf:RDF></metadata><defs
     id="defs6" /><g
     transform="matrix(1.3333333,0,0,-1.3333333,0,85.333333)"
     id="g10"><g
       transform="scale(0.1)"
       id="g12"><path
         id="path14"
         style="fill:#7db6d8;fill-opacity:1;fill-rule:nonzero;stroke:none"
         d="M 640,320 C 640,143.27 496.73,0 320,0 143.27,0 0,143.27 0,320 0,496.73 143.27,640 320,640 496.73,640 640,496.73 640,320" /><path
         id="path16"
         style="fill:#6594b2;fill-opacity:1;fill-rule:nonzero;stroke:none"
         d="m 240.828,115 c -66.473,0 -107.586,42.965 -121.805,60.836 H 519.297 C 510.43,164.348 486.191,141.914 429.031,134.906 428.027,134.707 326.785,115 240.828,115" /><path
         id="path18"
         style="fill:#6594b2;fill-opacity:1;fill-rule:nonzero;stroke:none"
         d="m 240.828,105 c -89.187,0 -134.031,70.199 -135.894,73.188 -0.969,1.539 -1.02,3.484 -0.137,5.074 0.879,1.586 2.555,2.574 4.375,2.574 h 419.156 c 1.672,0 3.227,-0.832 4.152,-2.215 0.926,-1.379 1.106,-3.133 0.481,-4.676 C 532.234,177.168 514.23,135.277 430.605,125.039 429.941,124.895 327.754,105 240.828,105 M 119.023,175.836 C 133.242,157.965 174.355,115 240.828,115 c 85.957,0 187.199,19.707 188.203,19.906 57.16,7.008 81.399,29.442 90.266,40.93 H 119.023" /><path
         id="path20"
         style="fill:#6594b2;fill-opacity:1;fill-rule:nonzero;stroke:none"
         d="M 490,215 H 140 c -2.434,0 -4.504,1.742 -4.922,4.137 -0.422,2.386 0.938,4.734 3.211,5.566 89.055,32.305 146.328,234.598 146.899,236.641 0.609,2.207 2.671,3.644 4.902,3.644 0.191,0 0.387,-0.011 0.586,-0.031 C 293.152,464.613 295,462.5 295,460 V 247.809 c 17.773,53.554 48.305,179.449 -19.004,269.195 -1.223,1.633 -1.328,3.855 -0.266,5.601 0.911,1.5 2.52,2.403 4.235,2.403 0.293,0 0.59,-0.028 0.887,-0.082 C 282.988,524.563 495,484.961 495,220 c 0,-2.766 -2.234,-5 -5,-5" /><path
         id="path22"
         style="fill:#ffffff;fill-opacity:1;fill-rule:nonzero;stroke:none"
         d="m 430,150 c 0,0 -101.723,-20 -189.168,-20 -87.441,0 -131.664,70.836 -131.664,70.836 h 419.164 c 0,0 -16.664,-40.836 -98.332,-50.836" /><path
         id="path24"
         style="fill:#ffffff;fill-opacity:1;fill-rule:nonzero;stroke:none"
         d="m 430,150 -0.965,4.906 c -0.015,-0.004 -6.285,-1.234 -17.144,-3.101 C 379.336,146.199 305.867,134.992 240.832,135 c -42.328,0.008 -74.098,17.102 -95.488,34.313 -10.676,8.597 -18.715,17.214 -24.055,23.648 -2.668,3.215 -4.664,5.887 -5.98,7.73 -0.657,0.922 -1.145,1.641 -1.461,2.118 l -0.348,0.531 -0.094,0.144 -4.238,-2.648 v -5 h 419.164 v 5 l -4.629,1.887 0.047,-0.016 -0.047,0.02 v -0.004 l 0.047,-0.016 -0.047,0.02 c -0.262,-0.586 -4.547,-10.082 -18.336,-20.672 -13.793,-10.578 -37.16,-22.328 -75.976,-27.09 L 429.035,154.906 430,150 l 0.609,-4.961 c 41.598,5.082 67.157,18.137 82.297,30.219 15.153,12.07 19.809,23.066 20.059,23.687 0.629,1.547 0.453,3.289 -0.481,4.676 -0.933,1.391 -2.48,2.215 -4.152,2.215 H 109.168 c -1.82,0 -3.492,-0.984 -4.375,-2.578 -0.883,-1.59 -0.832,-3.528 0.133,-5.07 0.199,-0.313 11.535,-18.442 34.148,-36.665 22.578,-18.207 56.645,-36.531 101.758,-36.523 88.148,0.016 189.969,20.074 190.133,20.094 L 430,150 430.609,145.039 430,150" /><path
         id="path26"
         style="fill:#f3cc70;fill-opacity:1;fill-rule:nonzero;stroke:none"
         d="m 290,480 c 0,0 -57.5,-206.441 -150,-240 h 150 v 240" /><path
         id="path28"
         style="fill:#f3cc70;fill-opacity:1;fill-rule:nonzero;stroke:none"
         d="m 290,480 -4.816,1.344 c -0.004,-0.012 -0.875,-3.149 -2.614,-8.813 -6.082,-19.816 -22.629,-70.031 -47.593,-118.695 -12.477,-24.328 -27.063,-48.258 -43.372,-67.758 -16.3,-19.519 -34.3,-34.504 -53.308,-41.379 -2.285,-0.828 -3.641,-3.172 -3.223,-5.562 C 135.496,236.742 137.57,235 140,235 h 150 c 1.336,0 2.59,0.52 3.535,1.465 0.945,0.945 1.465,2.199 1.465,3.535 v 240 c 0,2.504 -1.84,4.613 -4.324,4.953 -2.481,0.34 -4.821,-1.195 -5.492,-3.609 L 290,480 h -5 V 245 H 140 v -5 l 1.703,-4.699 c 24.527,8.937 45.992,28.844 64.731,53.32 56.043,73.461 88.254,189.77 88.382,190.035 L 290,480 h -5 5" /><path
         id="path30"
         style="fill:#c84755;fill-opacity:1;fill-rule:nonzero;stroke:none"
         d="m 290,240 c 0,0 80,180 -10,300 0,0 210,-36.187 210,-300 H 290" /><path
         id="path32"
         style="fill:#c84755;fill-opacity:1;fill-rule:nonzero;stroke:none"
         d="m 290,240 4.57,-2.031 c 0.121,0.347 33.157,74.488 33.196,160.301 C 327.77,446.52 317.246,498.664 284,543 l -4,-3 -0.848,-4.926 0.504,-0.094 c 5.664,-1.078 57.231,-11.992 107.047,-53.914 C 436.492,439.098 484.926,366.488 485,240 h 5 v 5 H 290 v -5 l 4.57,-2.031 L 290,240 v -5 h 200 c 1.336,0 2.59,0.52 3.535,1.465 0.945,0.945 1.465,2.199 1.465,3.535 0.082,133.25 -53.324,210.078 -106.875,252.836 -53.523,42.809 -106.789,51.992 -107.277,52.094 -2.024,0.347 -4.043,-0.571 -5.114,-2.321 -1.07,-1.75 -0.964,-3.964 0.266,-5.609 31.555,-42.059 41.766,-91.867 41.77,-138.73 0.003,-41.625 -8.09,-80.786 -16.2,-109.477 -4.05,-14.348 -8.105,-26.078 -11.136,-34.203 -1.512,-4.063 -2.774,-7.223 -3.653,-9.356 -0.875,-2.136 -1.351,-3.199 -1.351,-3.203 -0.684,-1.543 -0.543,-3.34 0.379,-4.758 C 286.727,235.859 288.313,235 290,235 v 5" /></g></g></svg>