<?xml version="1.0" encoding="UTF-8" standalone="no"?>
<svg
   xmlns:dc="http://purl.org/dc/elements/1.1/"
   xmlns:cc="http://creativecommons.org/ns#"
   xmlns:rdf="http://www.w3.org/1999/02/22-rdf-syntax-ns#"
   xmlns:svg="http://www.w3.org/2000/svg"
   xmlns="http://www.w3.org/2000/svg"
   viewBox="0 0 85.333336 85.333336"
   height="85.333336"
   width="85.333336"
   xml:space="preserve"
   id="svg2"
   version="1.1"><metadata
     id="metadata8"><rdf:RDF><cc:Work
         rdf:about=""><dc:format>image/svg+xml</dc:format><dc:type
           rdf:resource="http://purl.org/dc/dcmitype/StillImage" /></cc:Work></rdf:RDF></metadata><defs
     id="defs6" /><g
     transform="matrix(1.3333333,0,0,-1.3333333,0,85.333333)"
     id="g10"><g
       transform="scale(0.1)"
       id="g12"><path
         id="path14"
         style="fill:#495672;fill-opacity:1;fill-rule:nonzero;stroke:none"
         d="M 640,320 C 640,143.27 496.73,0 320,0 143.27,0 0,143.27 0,320 0,496.73 143.27,640 320,640 496.73,640 640,496.73 640,320" /><path
         id="path16"
         style="fill:#c84755;fill-opacity:1;fill-rule:nonzero;stroke:none"
         d="m 480,410 c 0,-11.047 -8.953,-20 -20,-20 -11.047,0 -20,8.953 -20,20 0,11.047 8.953,20 20,20 11.047,0 20,-8.953 20,-20" /><path
         id="path18"
         style="fill:#c84755;fill-opacity:1;fill-rule:nonzero;stroke:none"
         d="m 580,310 c 0,-11.047 -8.953,-20 -20,-20 -11.047,0 -20,8.953 -20,20 0,11.047 8.953,20 20,20 11.047,0 20,-8.953 20,-20" /><path
         id="path20"
         style="fill:#f3cc70;fill-opacity:1;fill-rule:nonzero;stroke:none"
         d="m 460,250 c 0,-22.09 0,-40 0,-40 H 140 c -22.09,0 -40,17.91 -40,40 v 150 c 0,22.09 17.91,40 40,40 h 300 c 22.09,0 20,-17.91 20,-40 V 250" /><path
         id="path22"
         style="fill:#f3cc70;fill-opacity:1;fill-rule:nonzero;stroke:none"
         d="m 559.973,250 c 0,0 2.5,-40 -40,-40 h -80 c 0,0 0,17.91 0,40 v 50 c 0,22.09 0,40 0,40 H 530 c 20,0 29.973,-7.863 29.973,-29.953 V 250" /><path
         id="path24"
         style="fill:#e08e4c;fill-opacity:1;fill-rule:nonzero;stroke:none"
         d="M 150,400 H 330 V 340 H 150 v 60" /><path
         id="path26"
         style="fill:#e08e4c;fill-opacity:1;fill-rule:nonzero;stroke:none"
         d="m 370,400 h 50 v -60 h -50 v 60" /><path
         id="path28"
         style="fill:#e08e4c;fill-opacity:1;fill-rule:nonzero;stroke:none"
         d="m 140,400 h 50 v -60 h -50 v 60" /><path
         id="path30"
         style="fill:#e1e3cc;fill-opacity:1;fill-rule:nonzero;stroke:none"
         d="m 230,210 c 0,-22.09 -17.91,-40 -40,-40 -22.09,0 -40,17.91 -40,40 0,22.09 17.91,40 40,40 22.09,0 40,-17.91 40,-40" /><path
         id="path32"
         style="fill:#495672;fill-opacity:1;fill-rule:nonzero;stroke:none"
         d="m 230,210 h -10 c -0.031,-16.562 -13.437,-29.969 -30,-30 -16.566,0.031 -29.969,13.438 -30,30 0.031,16.566 13.434,29.973 30,30 16.563,-0.027 29.969,-13.434 30,-30 h 10 10 c -0.008,27.617 -22.383,49.992 -50,50 -27.617,-0.008 -49.992,-22.383 -50,-50 0.008,-27.617 22.383,-49.992 50,-50 27.617,0.008 49.992,22.383 50,50 h -10" /><path
         id="path34"
         style="fill:#e1e3cc;fill-opacity:1;fill-rule:nonzero;stroke:none"
         d="m 510,210 c 0,-22.09 -17.91,-40 -40,-40 -22.09,0 -40,17.91 -40,40 0,22.09 17.91,40 40,40 22.09,0 40,-17.91 40,-40" /><path
         id="path36"
         style="fill:#495672;fill-opacity:1;fill-rule:nonzero;stroke:none"
         d="m 510,210 h -10 c -0.031,-16.562 -13.437,-29.969 -30,-30 -16.566,0.031 -29.969,13.438 -30,30 0.031,16.566 13.434,29.973 30,30 16.563,-0.027 29.969,-13.434 30,-30 h 10 10 c -0.008,27.617 -22.383,49.992 -50,50 -27.617,-0.008 -49.992,-22.383 -50,-50 0.008,-27.617 22.383,-49.992 50,-50 27.617,0.008 49.992,22.383 50,50 h -10" /></g></g></svg>