<?xml version="1.0" encoding="UTF-8" standalone="no"?>
<svg
   xmlns:dc="http://purl.org/dc/elements/1.1/"
   xmlns:cc="http://creativecommons.org/ns#"
   xmlns:rdf="http://www.w3.org/1999/02/22-rdf-syntax-ns#"
   xmlns:svg="http://www.w3.org/2000/svg"
   xmlns="http://www.w3.org/2000/svg"
   viewBox="0 0 85.333336 85.333336"
   height="85.333336"
   width="85.333336"
   xml:space="preserve"
   id="svg2"
   version="1.1"><metadata
     id="metadata8"><rdf:RDF><cc:Work
         rdf:about=""><dc:format>image/svg+xml</dc:format><dc:type
           rdf:resource="http://purl.org/dc/dcmitype/StillImage" /></cc:Work></rdf:RDF></metadata><defs
     id="defs6" /><g
     transform="matrix(1.3333333,0,0,-1.3333333,0,85.333333)"
     id="g10"><g
       transform="scale(0.1)"
       id="g12"><path
         id="path14"
         style="fill:#c84755;fill-opacity:1;fill-rule:nonzero;stroke:none"
         d="M 640,320 C 640,143.27 496.73,0 320,0 143.27,0 0,143.27 0,320 0,496.73 143.27,640 320,640 496.73,640 640,496.73 640,320" /><path
         id="path16"
         style="fill:#a43f4a;fill-opacity:1;fill-rule:nonzero;stroke:none"
         d="m 440,100 c -33.844,0 -62.715,21.051 -74.402,50.742 -5.59,12.004 -10.352,27.711 -10.352,46.672 0,16.797 -14.34,32.719 -35.246,50.789 3.629,3.137 7.461,6.344 11.449,9.629 14.512,-13.953 23.797,-26.902 23.797,-40.418 0,-18.961 4.762,-34.668 10.352,-46.672 C 377.285,141.051 406.156,120 440,120 c 40.797,0 74.461,30.539 79.383,70 0.406,-3.277 0.617,-6.613 0.617,-10 0,-44.184 -35.816,-80 -80,-80 m 38.734,90 c -4.453,17.234 -20.129,30 -38.734,30 -18.605,0 -34.281,-12.766 -38.734,-30 -0.828,3.195 -1.266,6.547 -1.266,10 0,22.055 17.945,40 40,40 22.055,0 40,-17.945 40,-40 0,-3.453 -0.437,-6.805 -1.266,-10 M 277.117,283.582 C 222.762,329.059 160,391.926 160,500 l 0.805,-0.855 c 7.98,-102.157 73.949,-160.989 126.863,-204.282 l -5.801,-6.183 c 0,0 -1.441,-2.071 -4.75,-5.098" /><path
         id="path18"
         style="fill:#e1e3cc;fill-opacity:1;fill-rule:nonzero;stroke:none"
         d="m 440,160 c -22.055,0 -40,17.945 -40,40 0,22.055 17.945,40 40,40 22.055,0 40,-17.945 40,-40 0,-22.055 -17.945,-40 -40,-40 m 0,120 c -61.875,0 -81.867,28.68 -81.867,28.68 L 160,520 c 0,-190.625 195.246,-240.598 195.246,-302.586 0,-18.961 4.762,-34.668 10.352,-46.672 C 377.285,141.051 406.156,120 440,120 c 44.184,0 80,35.816 80,80 0,44.184 -35.816,80 -80,80" /><path
         id="path20"
         style="fill:#a43f4a;fill-opacity:1;fill-rule:nonzero;stroke:none"
         d="m 200,100 c -44.184,0 -80,35.816 -80,80 0,44.184 35.816,80 80,80 45.254,0 68.105,15.34 77.117,23.582 15.535,-12.996 30.383,-24.57 42.883,-35.379 -20.906,-18.07 -35.246,-33.992 -35.246,-50.789 0,-18.961 -4.762,-34.668 -10.352,-46.672 C 262.715,121.051 233.844,100 200,100 m 0,120 c -22.055,0 -40,-17.945 -40,-40 0,-22.055 17.945,-40 40,-40 22.055,0 40,17.945 40,40 0,22.055 -17.945,40 -40,40 m 175.629,74.473 c -12.559,7.125 -17.496,14.207 -17.496,14.207 L 329.375,339.348 480,500 C 480,400.289 426.582,339.066 375.629,294.473" /><path
         id="path22"
         style="fill:#883840;fill-opacity:1;fill-rule:nonzero;stroke:none"
         d="m 320,248.203 c -12.5,10.809 -27.348,22.383 -42.883,35.379 3.309,3.027 4.75,5.098 4.75,5.098 l 5.801,6.183 c 16.617,-13.593 31.934,-25.644 43.781,-37.031 -3.988,-3.285 -7.82,-6.492 -11.449,-9.629" /><path
         id="path24"
         style="fill:#b7b7a7;fill-opacity:1;fill-rule:nonzero;stroke:none"
         d="m 331.449,257.832 c -11.847,11.387 -27.164,23.438 -43.781,37.031 l 41.707,44.485 28.758,-30.668 c 0,0 4.937,-7.082 17.496,-14.207 -15.477,-13.547 -30.727,-25.555 -44.18,-36.641" /><path
         id="path26"
         style="fill:#e1e3cc;fill-opacity:1;fill-rule:nonzero;stroke:none"
         d="m 200,160 c -22.055,0 -40,17.945 -40,40 0,22.055 17.945,40 40,40 22.055,0 40,-17.945 40,-40 0,-22.055 -17.945,-40 -40,-40 z m 81.867,148.68 c 0,0 -19.992,-28.68 -81.867,-28.68 -44.184,0 -80,-35.816 -80,-80 0,-44.184 35.816,-80 80,-80 33.844,0 62.715,21.051 74.402,50.742 5.59,12.004 10.352,27.711 10.352,46.672 C 284.754,279.402 480,329.375 480,520 L 281.867,308.68" /><path
         id="path28"
         style="fill:#495672;fill-opacity:1;fill-rule:nonzero;stroke:none"
         d="m 335,310 c 0,-8.285 -6.715,-15 -15,-15 -8.285,0 -15,6.715 -15,15 0,8.285 6.715,15 15,15 8.285,0 15,-6.715 15,-15" /></g></g></svg>