<?xml version="1.0" encoding="UTF-8" standalone="no"?>
<svg
   xmlns:dc="http://purl.org/dc/elements/1.1/"
   xmlns:cc="http://creativecommons.org/ns#"
   xmlns:rdf="http://www.w3.org/1999/02/22-rdf-syntax-ns#"
   xmlns:svg="http://www.w3.org/2000/svg"
   xmlns="http://www.w3.org/2000/svg"
   viewBox="0 0 85.333336 85.333336"
   height="85.333336"
   width="85.333336"
   xml:space="preserve"
   id="svg2"
   version="1.1"><metadata
     id="metadata8"><rdf:RDF><cc:Work
         rdf:about=""><dc:format>image/svg+xml</dc:format><dc:type
           rdf:resource="http://purl.org/dc/dcmitype/StillImage" /></cc:Work></rdf:RDF></metadata><defs
     id="defs6" /><g
     transform="matrix(1.3333333,0,0,-1.3333333,0,85.333333)"
     id="g10"><g
       transform="scale(0.1)"
       id="g12"><path
         id="path14"
         style="fill:#c84755;fill-opacity:1;fill-rule:nonzero;stroke:none"
         d="M 640,320 C 640,143.27 496.73,0 320,0 143.27,0 0,143.27 0,320 0,496.73 143.27,640 320,640 496.73,640 640,496.73 640,320" /><path
         id="path16"
         style="fill:#a43f4a;fill-opacity:1;fill-rule:nonzero;stroke:none"
         d="m 195,120 c -36.711,0 -67.434,25.648 -75.23,60 h 7.601 c 13.121,-23.844 38.488,-40 67.629,-40 29.141,0 54.508,16.156 67.629,40 h 7.601 C 262.434,145.648 231.711,120 195,120" /><path
         id="path18"
         style="fill:#a43f4a;fill-opacity:1;fill-rule:nonzero;stroke:none"
         d="m 473.57,120 c -39.621,0 -72.265,29.871 -76.644,68.324 l 4.047,2.676 c 10.707,-29.734 39.172,-51 72.597,-51 36.723,0 67.453,25.664 75.239,60.031 0.39,-0.023 0.785,-0.035 1.175,-0.035 0.227,0 0.454,0.004 0.676,0.012 0.035,-0.953 0.055,-1.906 0.055,-2.867 C 550.715,154.539 516.176,120 473.57,120 m 35.778,87.145 c -4.379,15.636 -18.758,27.14 -35.778,27.14 -3.047,0 -6.011,-0.367 -8.847,-1.062 l 25.699,17.015 c 12.031,-6.152 20.293,-18.675 20.293,-33.097 0,-3.461 -0.477,-6.817 -1.367,-9.996 m -71.551,0 c -0.668,2.378 -1.102,4.851 -1.277,7.398 l 7.332,4.855 c -2.723,-3.628 -4.801,-7.773 -6.055,-12.253" /><path
         id="path20"
         style="fill:#495672;fill-opacity:1;fill-rule:nonzero;stroke:none"
         d="m 195,294.285 c -42.605,0 -77.145,-34.539 -77.145,-77.144 0,-42.602 34.54,-77.141 77.145,-77.141 42.605,0 77.145,34.539 77.145,77.141 0,42.605 -34.54,77.144 -77.145,77.144 m 0,-40 c 20.48,0 37.145,-16.664 37.145,-37.144 C 232.145,196.664 215.48,180 195,180 c -20.48,0 -37.145,16.664 -37.145,37.141 0,20.48 16.665,37.144 37.145,37.144" /><path
         id="path22"
         style="fill:#495672;fill-opacity:1;fill-rule:nonzero;stroke:none"
         d="m 473.57,294.285 c -42.601,0 -77.14,-34.539 -77.14,-77.144 0,-42.602 34.539,-77.141 77.14,-77.141 42.606,0 77.145,34.539 77.145,77.141 0,42.605 -34.539,77.144 -77.145,77.144 m 0,-40 c 20.481,0 37.145,-16.664 37.145,-37.144 0,-20.477 -16.664,-37.141 -37.145,-37.141 -20.48,0 -37.14,16.664 -37.14,37.141 0,20.48 16.66,37.144 37.14,37.144" /><path
         id="path24"
         style="fill:#a43f4a;fill-opacity:1;fill-rule:nonzero;stroke:none"
         d="m 550.66,200.008 c -0.086,2.406 -0.285,4.789 -0.59,7.133 0.426,3.273 0.645,6.613 0.645,10 0,29.386 -16.434,54.937 -40.613,67.964 -0.282,0.524 -0.59,1.04 -0.926,1.543 -3.848,5.817 -10.207,8.965 -16.692,8.965 -1.937,0 -3.886,-0.281 -5.777,-0.855 0.367,2.637 0.672,5.515 0.867,8.609 24.391,-6.754 67.953,-25.937 81.762,-78.265 2.82,-10.676 -3.555,-21.622 -14.234,-24.438 -1.481,-0.394 -2.969,-0.605 -4.442,-0.656" /><path
         id="path26"
         style="fill:#883840;fill-opacity:1;fill-rule:nonzero;stroke:none"
         d="m 549.984,199.996 c -0.39,0 -0.785,0.012 -1.175,0.035 0.531,2.332 0.953,4.703 1.261,7.11 0.305,-2.344 0.504,-4.727 0.59,-7.133 -0.222,-0.008 -0.449,-0.012 -0.676,-0.012" /><path
         id="path28"
         style="fill:#404a5f;fill-opacity:1;fill-rule:nonzero;stroke:none"
         d="m 548.809,200.031 c -8.391,0.496 -15.887,6.293 -18.145,14.867 -5.453,20.653 -18.777,33.254 -31.883,40.879 l 4.766,3.153 c 8.699,5.765 11.43,17.168 6.555,26.175 24.179,-13.027 40.613,-38.578 40.613,-67.964 0,-3.387 -0.219,-6.727 -0.645,-10 -0.308,-2.407 -0.73,-4.778 -1.261,-7.11" /><path
         id="path30"
         style="fill:#a43f4a;fill-opacity:1;fill-rule:nonzero;stroke:none"
         d="m 372.313,220 h -13.711 c -2.047,20.891 -9.079,53.012 -31.899,77.359 -2.933,3.129 -6.027,6.039 -9.281,8.723 9.199,1.797 16.148,9.902 16.148,19.633 0,2.848 -0.597,5.562 -1.672,8.015 0.891,-2.031 1.454,-4.246 1.622,-6.585 0.226,-3.047 6.16,-74.645 58.144,-74.645 4.934,0 9.695,0.574 14.219,1.68 -2.809,-5.125 -5.055,-10.606 -6.649,-16.352 L 372.313,220 m 71.832,68.473 c 0.554,1.519 1.054,3.074 1.496,4.668 C 457.102,334.59 429.742,402.539 319.418,470 H 293.93 c -11.043,0 -20,8.953 -20,20 0,11.047 8.957,20 20,20 H 325 c 3.617,0 7.168,-0.98 10.273,-2.844 138.02,-82.617 154.868,-162.703 152.301,-203.789 -9.402,2.606 -15.957,3.36 -16.855,3.453 -0.758,0.086 -1.512,0.129 -2.254,0.129 -9.692,0 -17.973,-7.078 -19.574,-16.695 -1.61,-0.543 -3.188,-1.137 -4.746,-1.781" /><path
         id="path32"
         style="fill:#404a5f;fill-opacity:1;fill-rule:nonzero;stroke:none"
         d="m 399.234,237.828 c 1.594,5.746 3.84,11.227 6.649,16.352 17.746,4.324 31.824,16.754 38.262,34.293 1.558,0.644 3.136,1.238 4.746,1.781 -0.067,-0.402 -0.121,-0.809 -0.164,-1.215 -0.61,-5.758 1.289,-11.203 4.812,-15.246 l -54.305,-35.965" /><path
         id="path34"
         style="fill:#883840;fill-opacity:1;fill-rule:nonzero;stroke:none"
         d="m 448.891,290.254 c 1.601,9.617 9.882,16.695 19.574,16.695 0.742,0 1.496,-0.043 2.254,-0.129 0.898,-0.093 7.453,-0.847 16.855,-3.453 -0.195,-3.094 -0.5,-5.972 -0.867,-8.609 -0.988,-0.301 -1.965,-0.68 -2.918,-1.145 -3.344,0.446 -6.754,0.672 -10.219,0.672 -8.629,0 -16.929,-1.418 -24.679,-4.031" /><path
         id="path36"
         style="fill:#394051;fill-opacity:1;fill-rule:nonzero;stroke:none"
         d="m 453.539,273.793 c -3.523,4.043 -5.422,9.488 -4.812,15.246 0.043,0.406 0.097,0.813 0.164,1.215 7.75,2.613 16.05,4.031 24.679,4.031 3.465,0 6.875,-0.226 10.219,-0.672 -0.797,-0.386 -1.574,-0.828 -2.336,-1.332 l -27.914,-18.488" /><path
         id="path38"
         style="fill:#a43f4a;fill-opacity:1;fill-rule:nonzero;stroke:none"
         d="m 378.336,180 h -39.051 c 10.543,0 19.274,8.184 19.957,18.707 0.059,0.856 0.5,8.531 -0.5,19.793 9.645,-3.816 20.571,-6 32.922,-6 1.641,0 3.274,0.039 4.895,0.117 0.105,-1.844 0.277,-3.668 0.511,-5.476 -0.422,-3.27 -0.64,-6.61 -0.64,-10 0,-2.981 0.168,-5.922 0.496,-8.817 l -7.547,-5 C 386.105,181.156 382.262,180 378.336,180 M 95,180 c -0.0117,0 -0.0234,0 -0.0391,0 0.0157,0 0.0274,0 0.0391,0 m -0.0508,0 c -0.0078,0 -0.0156,0 -0.0234,0 0.0078,0 0.0156,0 0.0234,0 m -0.0429,0 c -0.004,0 -0.0118,0 -0.0196,0 0.0078,0 0.0156,0 0.0196,0 m -0.0391,0 c -0.0039,0 -0.0117,0 -0.0156,0 0.0039,0 0.0117,0 0.0156,0 m -0.0352,0 c -0.0078,0 -0.0117,0 -0.0195,0 0.0039,0 0.0117,0 0.0195,0 m -0.039,0 c -0.0078,0 -0.0117,0 -0.0196,0 0.0079,0 0.0118,0 0.0196,0 m -0.0391,0.004 c -0.0039,0 -0.0117,0 -0.0156,0 0.0039,0 0.0117,0 0.0156,0 m -0.0391,0 c -0.0039,0 -0.0078,0 -0.0117,0 0.0039,0 0.0078,0 0.0117,0 m -0.039,0 h -0.0039 0.0039 m -0.0352,0 c -0.0039,0 -0.0039,0 -0.0039,0 0,0 0,0 0.0039,0 m -19.1679,24.324 c 0.0507,0.219 0.1015,0.438 0.1562,0.652 7.4688,29.04 32.9691,76.961 82.6051,100.735 h 0.868 c -55.567,-34.649 -81.0981,-94.5 -82.5668,-98.039 -0.4571,-1.094 -0.8086,-2.211 -1.0625,-3.348 m 368.3793,15.07 c 5.082,6.766 12.41,11.747 20.871,13.825 l -20.871,-13.825" /><path
         id="path40"
         style="fill:#883840;fill-opacity:1;fill-rule:nonzero;stroke:none"
         d="m 396.926,188.324 c -0.328,2.895 -0.496,5.836 -0.496,8.817 0,3.39 0.218,6.73 0.64,10 0.723,-5.59 2.047,-10.989 3.903,-16.141 l -4.047,-2.676 m 39.594,26.219 c -0.059,0.859 -0.09,1.727 -0.09,2.598 0,2.179 0.187,4.312 0.547,6.386 13.742,7.215 25.503,17.703 34.253,30.688 0.778,0.047 1.555,0.07 2.34,0.07 6.063,0 11.789,-1.461 16.852,-4.047 l -25.699,-17.015 c -8.461,-2.078 -15.789,-7.059 -20.871,-13.825 l -7.332,-4.855" /><path
         id="path42"
         style="fill:#404a5f;fill-opacity:1;fill-rule:nonzero;stroke:none"
         d="m 400.973,191 c -1.856,5.152 -3.18,10.551 -3.903,16.141 -0.234,1.808 -0.406,3.632 -0.511,5.476 14.539,0.703 28.254,4.52 40.418,10.91 -0.36,-2.074 -0.547,-4.207 -0.547,-6.386 0,-0.871 0.031,-1.739 0.09,-2.598 L 400.973,191 m 89.449,59.238 c -5.063,2.586 -10.789,4.047 -16.852,4.047 -0.785,0 -1.562,-0.023 -2.34,-0.07 2.258,3.344 4.313,6.855 6.153,10.519 5.926,-1.66 13.621,-4.429 21.398,-8.957 l -8.359,-5.539" /><path
         id="path44"
         style="fill:#883840;fill-opacity:1;fill-rule:nonzero;stroke:none"
         d="m 510.102,285.105 c -7.254,3.911 -15.207,6.688 -23.625,8.106 0.078,0.508 0.156,1.023 0.23,1.547 1.891,0.574 3.84,0.855 5.777,0.855 6.485,0 12.844,-3.148 16.692,-8.965 0.336,-0.503 0.644,-1.019 0.926,-1.543" /><path
         id="path46"
         style="fill:#394051;fill-opacity:1;fill-rule:nonzero;stroke:none"
         d="m 498.781,255.777 c -7.777,4.528 -15.472,7.297 -21.398,8.957 2.797,5.579 5.09,11.512 6.812,17.746 0.785,2.844 1.618,6.446 2.282,10.731 8.418,-1.418 16.371,-4.195 23.625,-8.106 4.875,-9.007 2.144,-20.41 -6.555,-26.175 l -4.766,-3.153" /><path
         id="path48"
         style="fill:#723238;fill-opacity:1;fill-rule:nonzero;stroke:none"
         d="m 486.477,293.211 c -0.891,0.148 -1.786,0.285 -2.688,0.402 0.953,0.465 1.93,0.844 2.918,1.145 -0.074,-0.524 -0.152,-1.039 -0.23,-1.547" /><path
         id="path50"
         style="fill:#343945;fill-opacity:1;fill-rule:nonzero;stroke:none"
         d="m 477.383,264.734 c -6.395,1.793 -10.727,2.293 -10.875,2.313 -5.227,0.551 -9.77,3.07 -12.969,6.746 l 27.914,18.488 c 0.762,0.504 1.539,0.946 2.336,1.332 0.902,-0.117 1.797,-0.254 2.688,-0.402 -0.664,-4.285 -1.497,-7.887 -2.282,-10.731 -1.722,-6.234 -4.015,-12.167 -6.812,-17.746" /><path
         id="path52"
         style="fill:#883840;fill-opacity:1;fill-rule:nonzero;stroke:none"
         d="m 391.664,212.5 c -12.351,0 -23.277,2.184 -32.922,6 -0.047,0.492 -0.094,0.992 -0.14,1.5 h 13.711 l 26.921,17.828 c -1.828,-6.582 -2.804,-13.523 -2.804,-20.687 0,-1.516 0.043,-3.028 0.129,-4.524 -1.621,-0.078 -3.254,-0.117 -4.895,-0.117" /><path
         id="path54"
         style="fill:#723238;fill-opacity:1;fill-rule:nonzero;stroke:none"
         d="m 436.977,223.527 c 2.906,16.7 17.003,29.61 34.253,30.688 -8.75,-12.985 -20.511,-23.473 -34.253,-30.688" /><path
         id="path56"
         style="fill:#394051;fill-opacity:1;fill-rule:nonzero;stroke:none"
         d="m 396.559,212.617 c -0.086,1.496 -0.129,3.008 -0.129,4.524 0,7.164 0.976,14.105 2.804,20.687 l 54.305,35.965 c 3.199,-3.676 7.742,-6.195 12.969,-6.746 0.148,-0.02 4.48,-0.52 10.875,-2.313 -1.84,-3.664 -3.895,-7.175 -6.153,-10.519 -17.25,-1.078 -31.347,-13.988 -34.253,-30.688 -12.164,-6.39 -25.879,-10.207 -40.418,-10.91" /><path
         id="path58"
         style="fill:#883840;fill-opacity:1;fill-rule:nonzero;stroke:none"
         d="M 313.074,220 H 272.09 c -0.871,23.953 -12.668,45.125 -30.555,58.676 43.219,-6.656 62.887,-36.981 71.539,-58.676 m -88.816,0 h -58.516 c 6.805,8.691 17.391,14.285 29.258,14.285 11.867,0 22.453,-5.594 29.258,-14.285" /><path
         id="path60"
         style="fill:#723238;fill-opacity:1;fill-rule:nonzero;stroke:none"
         d="m 232.035,220 h -7.777 c -6.805,8.691 -17.391,14.285 -29.258,14.285 -11.867,0 -22.453,-5.594 -29.258,-14.285 h -7.777 c 1.465,19.152 17.515,34.285 37.035,34.285 19.52,0 35.57,-15.133 37.035,-34.285" /><path
         id="path62"
         style="fill:#394051;fill-opacity:1;fill-rule:nonzero;stroke:none"
         d="M 272.09,220 H 232.035 C 230.57,239.152 214.52,254.285 195,254.285 175.48,254.285 159.43,239.152 157.965,220 H 128.98 c 11.196,16.762 28.555,37.645 52.434,52.219 11.988,4.816 25.949,7.781 42.156,7.781 6.399,0 12.379,-0.465 17.965,-1.324 17.887,-13.551 29.684,-34.723 30.555,-58.676" /><path
         id="path64"
         style="fill:#883840;fill-opacity:1;fill-rule:nonzero;stroke:none"
         d="M 318.363,220 H 272.09 v 0 h 40.984 c -8.652,21.695 -28.32,52.02 -71.539,58.676 -5.211,3.945 -10.933,7.242 -17.055,9.777 6.098,1.004 12.461,1.547 19.09,1.547 23.61,0 41.203,-6.488 53.809,-19.84 13.953,-14.789 19.121,-35.347 20.984,-50.16" /><path
         id="path66"
         style="fill:#394051;fill-opacity:1;fill-rule:nonzero;stroke:none"
         d="m 181.414,272.219 c 12.539,7.652 26.879,13.57 43.066,16.234 6.122,-2.535 11.844,-5.832 17.055,-9.777 -5.586,0.859 -11.566,1.324 -17.965,1.324 -16.207,0 -30.168,-2.965 -42.156,-7.781" /><path
         id="path68"
         style="fill:#a43f4a;fill-opacity:1;fill-rule:nonzero;stroke:none"
         d="m 94.9609,180 c -0.0039,0 -0.0078,0 -0.0117,0 0.0039,0 0.0078,0 0.0117,0 m -0.0351,0 c -0.0078,0 -0.0117,0 -0.0195,0 0.0078,0 0.0117,0 0.0195,0 m -0.0391,0 c -0.0039,0 -0.0117,0 -0.0195,0 0.0078,0 0.0156,0 0.0195,0 m -0.0351,0 c -0.0078,0 -0.0157,0 -0.0196,0 0.0039,0 0.0118,0 0.0196,0 m -0.0391,0 c -0.0078,0 -0.0117,0 -0.0195,0 0.0078,0 0.0117,0 0.0195,0 m -0.0391,0 c -0.0039,0 -0.0117,0 -0.0195,0.004 C 94.7617,180 94.7695,180 94.7734,180 m -0.0351,0.004 c -0.0078,0 -0.0156,0 -0.0235,0 0.0079,0 0.0157,0 0.0235,0 m -0.0352,0 c -0.0078,0 -0.0156,0 -0.0273,0 0.0078,0 0.0195,0 0.0273,0 m -0.0312,0 c -0.0117,0 -0.0235,0 -0.0313,0 0.0078,0 0.0196,0 0.0313,0 m -0.0352,0 c -6.5469,0.117 -12.6289,3.437 -16.2734,8.891 -3.0547,4.578 -4.0586,10.164 -2.8906,15.433 -1.2813,-5.793 0.0703,-11.875 3.7226,-16.586 3.7149,-4.785 9.3945,-7.629 15.4414,-7.738 m 202.7693,120.18 c -3.129,1.957 -6.394,3.808 -9.804,5.531 h 8.586 c 0.367,-1.817 0.773,-3.664 1.218,-5.531" /><path
         id="path70"
         style="fill:#883840;fill-opacity:1;fill-rule:nonzero;stroke:none"
         d="m 358.602,220 h -3.098 c -7.434,26.5 -25.109,59.516 -58.098,80.184 -0.445,1.867 -0.851,3.714 -1.218,5.531 h 17.382 c 1.317,0 2.606,0.125 3.852,0.367 3.254,-2.684 6.348,-5.594 9.281,-8.723 22.82,-24.347 29.852,-56.468 31.899,-77.359" /><path
         id="path72"
         style="fill:#394051;fill-opacity:1;fill-rule:nonzero;stroke:none"
         d="m 128.98,220 h -4.015 c 9.765,17.77 27.269,40.488 56.449,52.219 C 157.535,257.645 140.176,236.762 128.98,220" /><path
         id="path74"
         style="fill:#883840;fill-opacity:1;fill-rule:nonzero;stroke:none"
         d="M 339.285,180 H 270.23 c 1.25,5.516 1.915,11.25 1.915,17.141 0,3.39 -0.219,6.726 -0.645,10 0.426,3.273 0.645,6.613 0.645,10 0,0.957 -0.02,1.91 -0.055,2.859 h 46.273 c -1.863,14.813 -7.031,35.371 -20.984,50.16 C 284.773,283.512 267.18,290 243.57,290 c -6.629,0 -12.992,-0.543 -19.09,-1.547 -9.085,3.758 -19.039,5.832 -29.48,5.832 -42.605,0 -77.145,-34.539 -77.145,-77.144 0,-3.387 0.219,-6.727 0.645,-10 -0.426,-3.274 -0.645,-6.61 -0.645,-10 0,-5.891 0.661,-11.625 1.915,-17.141 H 95 v 0 c -0.0117,0 -0.0234,0 -0.0391,0 -0.0039,0 -0.0078,0 -0.0117,0 -0.0078,0 -0.0156,0 -0.0234,0 -0.0078,0 -0.0117,0 -0.0195,0 -0.004,0 -0.0118,0 -0.0196,0 -0.0039,0 -0.0117,0 -0.0195,0 -0.0039,0 -0.0117,0 -0.0156,0 -0.0078,0 -0.0157,0 -0.0196,0 -0.0078,0 -0.0156,0 -0.0195,0 -0.0078,0 -0.0117,0 -0.0195,0 -0.0078,0 -0.0117,0 -0.0196,0 -0.0039,0 -0.0117,0 -0.0195,0.004 -0.0039,0 -0.0117,0 -0.0156,0 -0.0078,0 -0.0156,0 -0.0235,0 -0.0039,0 -0.0078,0 -0.0117,0 -0.0078,0 -0.0195,0 -0.0273,0 h -0.0039 c -0.0117,0 -0.0235,0 -0.0313,0 -0.0039,0 -0.0039,0 -0.0039,0 -6.0469,0.109 -11.7265,2.953 -15.4414,7.738 -3.6523,4.711 -5.0039,10.793 -3.7226,16.586 0.2539,1.137 0.6054,2.254 1.0625,3.348 1.4687,3.539 26.9998,63.39 82.5668,98.039 h 128.5 c 3.41,-1.723 6.675,-3.574 9.804,-5.531 7.313,-30.7 25.43,-67.485 61.336,-81.684 1,-11.262 0.559,-18.937 0.5,-19.793 C 358.559,188.184 349.828,180 339.285,180 M 195,180 c -17.016,0 -31.398,11.504 -35.777,27.145 1.328,4.73 3.566,9.085 6.519,12.855 h 58.516 c 2.953,-3.77 5.191,-8.125 6.515,-12.855 C 226.398,191.504 212.016,180 195,180" /><path
         id="path76"
         style="fill:#723238;fill-opacity:1;fill-rule:nonzero;stroke:none"
         d="m 270.23,180 h -7.601 c 4.539,8.246 7.613,17.41 8.871,27.141 0.426,-3.274 0.645,-6.61 0.645,-10 0,-5.891 -0.665,-11.625 -1.915,-17.141 m -142.859,0 h -7.601 c -1.254,5.516 -1.915,11.25 -1.915,17.141 0,3.39 0.219,6.726 0.645,10 1.258,-9.731 4.332,-18.895 8.871,-27.141 m 103.402,27.145 c -1.324,4.73 -3.562,9.085 -6.515,12.855 h 7.777 c 0.07,-0.941 0.11,-1.895 0.11,-2.859 0,-3.461 -0.477,-6.817 -1.372,-9.996 m -71.55,0 c -0.891,3.179 -1.368,6.535 -1.368,9.996 0,0.964 0.04,1.918 0.11,2.859 h 7.777 c -2.953,-3.77 -5.191,-8.125 -6.519,-12.855" /><path
         id="path78"
         style="fill:#394051;fill-opacity:1;fill-rule:nonzero;stroke:none"
         d="M 262.629,180 H 127.371 c -4.539,8.246 -7.613,17.41 -8.871,27.141 -0.426,3.273 -0.645,6.613 -0.645,10 0,42.605 34.54,77.144 77.145,77.144 10.441,0 20.395,-2.074 29.48,-5.832 -16.187,-2.664 -30.527,-8.582 -43.066,-16.234 C 152.234,260.488 134.73,237.77 124.965,220 h 4.015 v 0 h 28.985 c -0.07,-0.941 -0.11,-1.895 -0.11,-2.859 0,-3.461 0.477,-6.817 1.368,-9.996 C 163.602,191.504 177.984,180 195,180 c 17.016,0 31.398,11.504 35.773,27.145 0.895,3.179 1.372,6.535 1.372,9.996 0,0.964 -0.04,1.918 -0.11,2.859 h 40.055 c 0.035,-0.949 0.055,-1.902 0.055,-2.859 0,-3.387 -0.219,-6.727 -0.645,-10 -1.258,-9.731 -4.332,-18.895 -8.871,-27.141" /><path
         id="path80"
         style="fill:#723238;fill-opacity:1;fill-rule:nonzero;stroke:none"
         d="m 358.742,218.5 c -35.906,14.199 -54.023,50.984 -61.336,81.684 C 330.395,279.516 348.07,246.5 355.504,220 h 3.098 c 0.046,-0.508 0.093,-1.008 0.14,-1.5" /><path
         id="path82"
         style="fill:#a43f4a;fill-opacity:1;fill-rule:nonzero;stroke:none"
         d="M 158.234,305.715 H 133.57 c -11.047,0 -20,8.953 -20,20 0,11.043 8.953,20 20,20 h 180 c 8.192,0 15.235,-4.93 18.328,-11.985 -3.128,7.125 -10.269,11.977 -18.382,11.977 -0.438,0 -0.879,-0.016 -1.325,-0.043 -11.019,-0.758 -19.336,-10.309 -18.574,-21.328 0.09,-1.27 0.199,-2.578 0.332,-3.918 -14.695,6.375 -31.527,9.582 -50.379,9.582 -32.242,0 -59.371,-9.238 -81.773,-22.641 -1.203,-0.535 -2.391,-1.082 -3.563,-1.644" /><path
         id="path84"
         style="fill:#883840;fill-opacity:1;fill-rule:nonzero;stroke:none"
         d="m 317.422,306.082 c -7.082,5.844 -14.914,10.629 -23.473,14.336 -0.133,1.34 -0.242,2.648 -0.332,3.918 -0.762,11.019 7.555,20.57 18.574,21.328 0.446,0.027 0.887,0.043 1.325,0.043 8.113,0 15.254,-4.852 18.382,-11.977 1.075,-2.453 1.672,-5.167 1.672,-8.015 0,-9.731 -6.949,-17.836 -16.148,-19.633" /><path
         id="path86"
         style="fill:#883840;fill-opacity:1;fill-rule:nonzero;stroke:none"
         d="m 159.102,305.715 h -0.868 c 1.172,0.562 2.36,1.109 3.563,1.644 -0.902,-0.539 -1.809,-1.093 -2.695,-1.644" /><path
         id="path88"
         style="fill:#883840;fill-opacity:1;fill-rule:nonzero;stroke:none"
         d="m 296.188,305.715 h -8.586 C 270.168,314.52 249.02,320 223.57,320 c -23.675,0 -44.183,-4.809 -61.773,-12.641 22.402,13.403 49.531,22.641 81.773,22.641 18.852,0 35.684,-3.207 50.379,-9.582 0.457,-4.566 1.192,-9.516 2.239,-14.703" /><path
         id="path90"
         style="fill:#723238;fill-opacity:1;fill-rule:nonzero;stroke:none"
         d="m 313.57,305.715 h -17.382 c -1.047,5.187 -1.782,10.137 -2.239,14.703 8.559,-3.707 16.391,-8.492 23.473,-14.336 -1.246,-0.242 -2.535,-0.367 -3.852,-0.367" /><path
         id="path92"
         style="fill:#723238;fill-opacity:1;fill-rule:nonzero;stroke:none"
         d="m 287.602,305.715 h -128.5 c 0.886,0.551 1.793,1.105 2.695,1.644 17.59,7.832 38.098,12.641 61.773,12.641 25.45,0 46.598,-5.48 64.032,-14.285" /><path
         id="path94"
         style="fill:#e08e4c;fill-opacity:1;fill-rule:nonzero;stroke:none"
         d="m 468.613,306.934 c 0,0 65.555,-6.934 81.387,-66.934" /><path
         id="path96"
         style="fill:#f3cc70;fill-opacity:1;fill-rule:nonzero;stroke:none"
         d="m 466.512,287.047 0.687,6.519 -0.781,-6.511 0.094,-0.008 0.687,6.519 -0.781,-6.511 c 0.445,-0.008 14.832,-1.973 29.375,-9.68 7.297,-3.832 14.598,-8.996 20.695,-15.809 6.102,-6.847 11.137,-15.257 14.172,-26.668 2.82,-10.679 13.762,-17.054 24.442,-14.234 10.679,2.816 17.054,13.758 14.238,24.438 -4.781,18.222 -13.652,33.003 -24.027,44.222 -15.614,16.883 -34.063,25.977 -48.438,31.102 -14.43,5.101 -25.062,6.269 -26.156,6.398 -10.989,1.16 -20.832,-6.801 -21.996,-17.785 -1.16,-10.984 6.8,-20.832 17.789,-21.996" /><path
         id="path98"
         style="fill:#e08e4c;fill-opacity:1;fill-rule:nonzero;stroke:none"
         d="m 339.285,220 c 0,0 -12.855,100 -115.715,100 C 120.715,320 95,220 95,220 H 378.332 L 492.5,295.605" /><path
         id="path100"
         style="fill:#f3cc70;fill-opacity:1;fill-rule:nonzero;stroke:none"
         d="m 359.121,222.551 c -0.293,1.656 -3.699,29.125 -22.297,58.265 -9.324,14.516 -22.703,29.473 -41.511,40.723 -18.77,11.277 -42.801,18.508 -71.743,18.461 -28.957,0.035 -53.507,-7.164 -73.195,-18.141 -29.621,-16.5 -48.074,-40.695 -59.2227,-60.371 C 80,241.734 75.9453,226.148 75.6289,224.98 74.082,218.965 75.3867,212.656 79.1953,207.746 83,202.836 88.7891,200 95,200 h 283.332 c 3.902,0 7.793,1.172 11.043,3.324 l 114.168,75.606 c 9.211,6.101 11.73,18.511 5.633,27.718 -6.102,9.211 -18.508,11.731 -27.719,5.633 L 372.309,240 H 95 v -20 l 19.371,-4.98 -0.766,0.199 0.762,-0.211 0.004,0.012 -0.766,0.199 0.762,-0.211 c 0.317,1.363 6.942,24.004 23.774,44.797 8.402,10.437 19.199,20.425 32.988,27.812 13.82,7.371 30.672,12.352 52.441,12.383 22.489,-0.043 38.633,-5.316 51.207,-12.785 9.411,-5.637 16.864,-12.672 22.879,-20.285 9.016,-11.383 14.657,-24.125 17.867,-33.91 1.614,-4.887 2.629,-9.016 3.223,-11.805 0.297,-1.395 0.488,-2.453 0.598,-3.106 l 0.105,-0.66 0.129,0.02 -0.129,-0.02 v 0 l 0.129,0.02 -0.129,-0.02 c 1.406,-10.953 11.43,-18.691 22.387,-17.285 10.953,1.406 18.695,11.43 17.285,22.387" /><path
         id="path102"
         style="fill:#e08e4c;fill-opacity:1;fill-rule:nonzero;stroke:none"
         d="m 95,220 c 0,0 45.715,110 148.57,110 102.86,0 95.715,-110 95.715,-110 H 95" /><path
         id="path104"
         style="fill:#f3cc70;fill-opacity:1;fill-rule:nonzero;stroke:none"
         d="m 95,220 18.469,-7.676 -5.684,2.364 5.668,-2.399 0.016,0.035 -5.684,2.364 5.668,-2.399 c 0.141,0.434 11.277,26.203 33.289,50.637 10.985,12.242 24.594,24.117 40.621,32.777 16.075,8.668 34.434,14.274 56.207,14.297 19.489,-0.043 32.657,-4.434 42.461,-10.527 7.352,-4.61 12.969,-10.375 17.516,-16.996 6.801,-9.887 10.949,-21.832 13.195,-32.692 2.266,-10.836 2.656,-20.461 2.649,-25.277 0,-1.188 -0.024,-2.086 -0.039,-2.641 l -0.024,-0.566 v -0.008 L 339.285,220 v 20 L 95,240 V 220 L 113.469,212.324 95,220 v -20 h 244.285 c 10.559,0 19.278,8.172 19.957,18.711 0.028,0.375 0.149,2.434 0.149,5.797 -0.004,6.062 -0.387,16.344 -2.578,28.707 -3.329,18.461 -10.559,42.047 -28.278,62.137 -8.836,9.984 -20.375,18.878 -34.633,25.035 -14.25,6.187 -31.066,9.625 -50.332,9.613 -29.308,0.027 -54.992,-7.941 -76.246,-19.664 C 135.379,312.707 113.094,287.172 98.4727,266.23 83.875,245.238 76.9258,228.598 76.5313,227.676 73.9648,221.5 74.6523,214.461 78.3633,208.898 82.0742,203.336 88.3125,200 95,200 v 20" /><path
         id="path106"
         style="fill:#f3cc70;fill-opacity:1;fill-rule:nonzero;stroke:none"
         d="m 133.57,325.715 h 180 v 20 l -19.953,-1.375 c 0.168,-1.309 1.711,-26.336 13.91,-53.488 6.164,-13.547 15.161,-27.868 29.039,-39.266 13.778,-11.426 32.821,-19.199 55.102,-19.086 26.172,-0.035 50.605,10.027 68.203,27.742 17.66,17.656 28.227,42.887 28.164,71.235 -0.004,29.843 -11.347,62.793 -35.91,96.015 -24.602,33.27 -62.434,67.078 -116.852,99.668 -3.089,1.852 -6.671,2.84 -10.273,2.84 h -31.07 c -11.047,0 -20,-8.953 -20,-20 0,-11.047 8.953,-20 20,-20 H 325 v 20 l -10.273,-17.16 c 50.972,-30.496 84.66,-61.246 105.226,-89.117 20.613,-27.914 28.094,-52.684 28.086,-72.246 -0.062,-18.672 -6.551,-32.926 -16.512,-43.008 -10.019,-10.02 -23.773,-15.934 -39.859,-15.969 -13.555,0.113 -22.191,3.992 -29.773,10.043 -5.614,4.582 -10.415,10.727 -14.329,17.687 -5.89,10.403 -9.605,22.497 -11.625,31.797 -1.019,4.649 -1.64,8.598 -1.996,11.289 -0.179,1.348 -0.289,2.379 -0.351,3.032 l -0.067,0.683 -0.007,0.11 -7.547,-0.571 7.55,0.52 -0.003,0.051 -7.547,-0.571 7.55,0.52 c -0.722,10.476 -9.453,18.625 -19.953,18.625 h -180 c -11.043,0 -20,-8.953 -20,-20 0,-11.047 8.957,-20 20,-20" /></g></g></svg>