<?xml version="1.0" encoding="UTF-8" standalone="no"?>
<svg
   xmlns:dc="http://purl.org/dc/elements/1.1/"
   xmlns:cc="http://creativecommons.org/ns#"
   xmlns:rdf="http://www.w3.org/1999/02/22-rdf-syntax-ns#"
   xmlns:svg="http://www.w3.org/2000/svg"
   xmlns="http://www.w3.org/2000/svg"
   viewBox="0 0 85.333336 85.333336"
   height="85.333336"
   width="85.333336"
   xml:space="preserve"
   id="svg2"
   version="1.1"><metadata
     id="metadata8"><rdf:RDF><cc:Work
         rdf:about=""><dc:format>image/svg+xml</dc:format><dc:type
           rdf:resource="http://purl.org/dc/dcmitype/StillImage" /></cc:Work></rdf:RDF></metadata><defs
     id="defs6" /><g
     transform="matrix(1.3333333,0,0,-1.3333333,0,85.333333)"
     id="g10"><g
       transform="scale(0.1)"
       id="g12"><path
         id="path14"
         style="fill:#7db6d8;fill-opacity:1;fill-rule:nonzero;stroke:none"
         d="M 640,320 C 640,143.27 496.73,0 320,0 143.27,0 0,143.27 0,320 0,496.73 143.27,640 320,640 496.73,640 640,496.73 640,320" /><path
         id="path16"
         style="fill:#6594b2;fill-opacity:1;fill-rule:nonzero;stroke:none"
         d="m 320,80 c -121.309,0 -220,98.691 -220,220 0,25.637 4.375,50.758 12.996,74.656 2.938,8.149 10.625,13.227 18.813,13.227 2.254,0 4.546,-0.387 6.789,-1.199 10.39,-3.75 15.777,-15.207 12.027,-25.598 C 143.574,341.543 140,320.996 140,300 c 0,-99.254 80.746,-180 180,-180 99.254,0 180,80.746 180,180 0,80.395 -53.992,151.676 -131.305,173.34 -10.636,2.976 -16.84,14.019 -13.859,24.652 2.469,8.828 10.5,14.621 19.223,14.621 1.793,0 3.617,-0.246 5.429,-0.758 C 473.992,485.371 540,398.254 540,300 540,178.691 441.309,80 320,80" /><path
         id="path18"
         style="fill:#6594b2;fill-opacity:1;fill-rule:nonzero;stroke:none"
         d="m 280,450 c -22.09,0 -40,17.91 -40,40 0,22.09 17.91,40 40,40 22.09,0 40,-17.91 40,-40 0,-22.09 -17.91,-40 -40,-40" /><path
         id="path20"
         style="fill:#6594b2;fill-opacity:1;fill-rule:nonzero;stroke:none"
         d="m 320,260 c -10.238,0 -20.473,3.906 -28.285,11.715 -18.957,18.961 -148.676,187.328 -148.676,187.328 -3.367,5.309 -2.574,12.402 1.945,16.922 2.629,2.66 6.125,4.035 9.657,4.035 2.5,0 5.019,-0.687 7.265,-2.094 0,0 158.047,-121.293 186.379,-149.621 15.621,-15.621 15.621,-40.949 0,-56.57 C 340.473,263.906 330.238,260 320,260" /><path
         id="path22"
         style="fill:#495672;fill-opacity:1;fill-rule:nonzero;stroke:none"
         d="m 320,100 c -121.309,0 -220,98.691 -220,220 0,25.637 4.375,50.758 12.996,74.656 3.746,10.395 15.223,15.793 25.602,12.028 10.39,-3.75 15.777,-15.207 12.027,-25.598 C 143.574,361.543 140,340.996 140,320 c 0,-99.254 80.746,-180 180,-180 99.254,0 180,80.746 180,180 0,80.395 -53.992,151.676 -131.305,173.34 -10.636,2.976 -16.84,14.019 -13.859,24.652 2.977,10.645 14.035,16.875 24.652,13.863 C 473.992,505.371 540,418.254 540,320 540,198.691 441.309,100 320,100" /><path
         id="path24"
         style="fill:#495672;fill-opacity:1;fill-rule:nonzero;stroke:none"
         d="m 320,510 c 0,-22.09 -17.91,-40 -40,-40 -22.09,0 -40,17.91 -40,40 0,22.09 17.91,40 40,40 22.09,0 40,-17.91 40,-40" /><path
         id="path26"
         style="fill:#495672;fill-opacity:1;fill-rule:nonzero;stroke:none"
         d="m 348.285,348.285 c -28.332,28.328 -186.379,149.621 -186.379,149.621 -5.422,3.395 -12.433,2.602 -16.922,-1.941 -4.519,-4.52 -5.312,-11.613 -1.945,-16.922 0,0 129.719,-168.367 148.676,-187.328 15.621,-15.621 40.949,-15.621 56.57,0 15.621,15.621 15.621,40.949 0,56.57" /></g></g></svg>