<?xml version="1.0" encoding="UTF-8" standalone="no"?>
<svg
   xmlns:dc="http://purl.org/dc/elements/1.1/"
   xmlns:cc="http://creativecommons.org/ns#"
   xmlns:rdf="http://www.w3.org/1999/02/22-rdf-syntax-ns#"
   xmlns:svg="http://www.w3.org/2000/svg"
   xmlns="http://www.w3.org/2000/svg"
   viewBox="0 0 85.333336 85.333336"
   height="85.333336"
   width="85.333336"
   xml:space="preserve"
   id="svg2"
   version="1.1"><metadata
     id="metadata8"><rdf:RDF><cc:Work
         rdf:about=""><dc:format>image/svg+xml</dc:format><dc:type
           rdf:resource="http://purl.org/dc/dcmitype/StillImage" /></cc:Work></rdf:RDF></metadata><defs
     id="defs6" /><g
     transform="matrix(1.3333333,0,0,-1.3333333,0,85.333333)"
     id="g10"><g
       transform="scale(0.1)"
       id="g12"><path
         id="path14"
         style="fill:#77caa9;fill-opacity:1;fill-rule:nonzero;stroke:none"
         d="M 640,320 C 640,143.27 496.73,0 320,0 143.27,0 0,143.27 0,320 0,496.73 143.27,640 320,640 496.73,640 640,496.73 640,320" /><path
         id="path16"
         style="fill:#495672;fill-opacity:1;fill-rule:nonzero;stroke:none"
         d="m 320,120 c -11.047,0 -20,8.953 -20,20 v 320 c 0,11.047 8.953,20 20,20 11.047,0 20,-8.953 20,-20 V 140 c 0,-11.047 -8.953,-20 -20,-20" /><path
         id="path18"
         style="fill:#495672;fill-opacity:1;fill-rule:nonzero;stroke:none"
         d="m 460,120 c -11.047,0 -20,8.953 -20,20 v 320 c 0,11.047 8.953,20 20,20 11.047,0 20,-8.953 20,-20 V 140 c 0,-11.047 -8.953,-20 -20,-20" /><path
         id="path20"
         style="fill:#495672;fill-opacity:1;fill-rule:nonzero;stroke:none"
         d="m 180,120 c -11.047,0 -20,8.953 -20,20 v 320 c 0,11.047 8.953,20 20,20 11.047,0 20,-8.953 20,-20 V 140 c 0,-11.047 -8.953,-20 -20,-20" /><path
         id="path22"
         style="fill:#62a48d;fill-opacity:1;fill-rule:nonzero;stroke:none"
         d="m 440,224.602 c -12.699,6.707 -21.352,20.043 -21.352,35.398 0,15.359 8.653,28.691 21.352,35.398 v -70.796 m 40,1.57 v 67.656 c 11.207,-7.086 18.648,-19.59 18.648,-33.828 0,-14.238 -7.441,-26.742 -18.648,-33.828" /><path
         id="path24"
         style="fill:#404a5f;fill-opacity:1;fill-rule:nonzero;stroke:none"
         d="m 458.648,220 c -6.734,0 -13.082,1.664 -18.648,4.602 v 70.796 c 5.566,2.938 11.914,4.602 18.648,4.602 7.852,0 15.172,-2.262 21.352,-6.172 V 226.172 C 473.82,222.262 466.5,220 458.648,220" /><path
         id="path26"
         style="fill:#62a48d;fill-opacity:1;fill-rule:nonzero;stroke:none"
         d="m 300,335.352 c -11.957,6.914 -20,19.843 -20,34.648 0,14.805 8.043,27.734 20,34.648 v -69.296 m 40,0 v 69.296 c 11.957,-6.914 20,-19.843 20,-34.648 0,-14.805 -8.043,-27.734 -20,-34.648" /><path
         id="path28"
         style="fill:#404a5f;fill-opacity:1;fill-rule:nonzero;stroke:none"
         d="m 320,330 c -7.285,0 -14.117,1.949 -20,5.352 v 69.296 c 5.883,3.403 12.715,5.352 20,5.352 7.285,0 14.117,-1.949 20,-5.352 V 335.352 C 334.117,331.949 327.285,330 320,330" /><path
         id="path30"
         style="fill:#62a48d;fill-opacity:1;fill-rule:nonzero;stroke:none"
         d="m 160,165.352 c -11.957,6.914 -20,19.843 -20,34.648 0,14.805 8.043,27.734 20,34.648 v -69.296 m 40,0 v 69.296 c 11.957,-6.914 20,-19.843 20,-34.648 0,-14.805 -8.043,-27.734 -20,-34.648" /><path
         id="path32"
         style="fill:#404a5f;fill-opacity:1;fill-rule:nonzero;stroke:none"
         d="m 180,160 c -7.285,0 -14.117,1.949 -20,5.352 v 69.296 c 5.883,3.403 12.715,5.352 20,5.352 7.285,0 14.117,-1.949 20,-5.352 V 165.352 C 194.117,161.949 187.285,160 180,160" /><path
         id="path34"
         style="fill:#ffffff;fill-opacity:1;fill-rule:nonzero;stroke:none"
         d="m 498.648,280 c 0,-22.09 -17.91,-40 -40,-40 -22.093,0 -40,17.91 -40,40 0,22.09 17.907,40 40,40 22.09,0 40,-17.91 40,-40" /><path
         id="path36"
         style="fill:#ffffff;fill-opacity:1;fill-rule:nonzero;stroke:none"
         d="m 360,390 c 0,-22.09 -17.91,-40 -40,-40 -22.09,0 -40,17.91 -40,40 0,22.09 17.91,40 40,40 22.09,0 40,-17.91 40,-40" /><path
         id="path38"
         style="fill:#ffffff;fill-opacity:1;fill-rule:nonzero;stroke:none"
         d="m 220,220 c 0,-22.09 -17.91,-40 -40,-40 -22.09,0 -40,17.91 -40,40 0,22.09 17.91,40 40,40 22.09,0 40,-17.91 40,-40" /></g></g></svg>