<?xml version="1.0" encoding="UTF-8" standalone="no"?>
<svg
   xmlns:dc="http://purl.org/dc/elements/1.1/"
   xmlns:cc="http://creativecommons.org/ns#"
   xmlns:rdf="http://www.w3.org/1999/02/22-rdf-syntax-ns#"
   xmlns:svg="http://www.w3.org/2000/svg"
   xmlns="http://www.w3.org/2000/svg"
   viewBox="0 0 85.333336 85.333336"
   height="85.333336"
   width="85.333336"
   xml:space="preserve"
   id="svg2"
   version="1.1"><metadata
     id="metadata8"><rdf:RDF><cc:Work
         rdf:about=""><dc:format>image/svg+xml</dc:format><dc:type
           rdf:resource="http://purl.org/dc/dcmitype/StillImage" /></cc:Work></rdf:RDF></metadata><defs
     id="defs6" /><g
     transform="matrix(1.3333333,0,0,-1.3333333,0,85.333333)"
     id="g10"><g
       transform="scale(0.1)"
       id="g12"><path
         id="path14"
         style="fill:#495672;fill-opacity:1;fill-rule:nonzero;stroke:none"
         d="M 640,320 C 640,143.27 496.73,0 320,0 143.27,0 0,143.27 0,320 0,496.73 143.27,640 320,640 496.73,640 640,496.73 640,320" /><path
         id="path16"
         style="fill:#404a5f;fill-opacity:1;fill-rule:nonzero;stroke:none"
         d="m 320,40 c -11.047,0 -20,8.9531 -20,20 v 40.988 0 -20.9841 c 0,-11.0469 8.953,-20 20,-20 11.047,0 20,8.9531 20,20 V 60 c 0,-11.0469 -8.953,-20 -20,-20" /><path
         id="path18"
         style="fill:#404a5f;fill-opacity:1;fill-rule:nonzero;stroke:none"
         d="m 560,280 h -40.988 c 0.652,6.578 0.988,13.25 0.988,20 v 0 l 40,0.004 c 7.402,0 13.863,4.019 17.324,9.996 1.699,-2.941 2.676,-6.355 2.676,-10 0,-11.047 -8.953,-20 -20,-20 m -85.062,0 h -56.946 c 1.317,6.465 2.008,13.152 2.008,20 v 0 l 58.758,0.004 c -0.856,-6.813 -2.137,-13.484 -3.82,-20.004 m -252.93,0 h -56.945 c -1.684,6.52 -2.965,13.191 -3.821,20.004 H 220 C 220,300 220,300 220,300 c 0,-6.848 0.691,-13.535 2.008,-20 m -101.02,0 H 80 c -11.043,0 -20,8.953 -20,20 0,3.645 0.9727,7.059 2.6758,10 3.4609,-5.977 9.9219,-9.996 17.3242,-9.996 h 40 C 120,300 120,300 120,300 c 0,-6.75 0.336,-13.422 0.988,-20 m 258.047,9.254 -4.883,4.879 c 0.911,1.902 1.727,3.863 2.434,5.871 H 380 C 380,300 380,300 380,300 c 0,-3.668 -0.332,-7.262 -0.965,-10.746 m -118.07,0 C 260.332,292.738 260,296.332 260,300 v 0 l 3.414,0.004 c 0.707,-2.008 1.524,-3.969 2.434,-5.871 l -4.883,-4.879" /><path
         id="path20"
         style="fill:#404a5f;fill-opacity:1;fill-rule:nonzero;stroke:none"
         d="m 489.707,110.293 c -5.117,0 -10.238,1.953 -14.141,5.859 l -28.992,28.993 c 3.66,2.992 7.211,6.113 10.645,9.351 l 18.344,-18.34 c 3.906,-3.906 9.023,-5.859 14.14,-5.859 5.121,0 10.238,1.953 14.145,5.859 1.265,1.266 2.328,2.66 3.183,4.141 4.422,-7.649 3.364,-17.602 -3.183,-24.145 -3.903,-3.906 -9.024,-5.859 -14.141,-5.859 m -83.348,75.066 -31.238,31.239 c 3.973,2.632 7.746,5.547 11.297,8.703 l 31.645,-31.645 c -3.77,-2.933 -7.676,-5.703 -11.704,-8.297 m -60.504,60.5 -5.855,5.86 v 11.695 c 2.008,0.711 3.969,1.524 5.871,2.434 l 12.195,-12.196 c -3.722,-3.062 -7.82,-5.683 -12.211,-7.793 m -109.257,109.262 -42.942,42.942 c 2.907,3.742 5.973,7.339 9.196,10.804 l 42.449,-42.449 c -3.156,-3.551 -6.071,-7.324 -8.703,-11.297 m -80.094,80.098 -20.352,20.347 c -6.547,6.543 -7.605,16.493 -3.183,24.141 0.855,-1.48 1.918,-2.875 3.183,-4.141 l 28.993,-28.992 c -3.016,-3.679 -5.891,-7.461 -8.641,-11.355" /><path
         id="path22"
         style="fill:#404a5f;fill-opacity:1;fill-rule:nonzero;stroke:none"
         d="m 150.293,110.293 c -5.117,0 -10.238,1.953 -14.141,5.859 -6.547,6.543 -7.605,16.496 -3.183,24.145 0.855,-1.481 1.918,-2.875 3.183,-4.141 3.907,-3.906 9.024,-5.859 14.141,-5.859 5.121,0 10.238,1.953 14.145,5.859 l 18.343,18.34 c 3.434,-3.238 6.985,-6.359 10.645,-9.351 l -28.992,-28.993 c -3.903,-3.906 -9.024,-5.859 -14.141,-5.859 m 83.348,75.066 c -4.028,2.594 -7.934,5.364 -11.703,8.297 l 31.644,31.645 c 3.551,-3.156 7.324,-6.071 11.297,-8.703 l -31.238,-31.239 m 60.504,60.504 c -4.391,2.106 -8.489,4.727 -12.211,7.789 l 12.195,12.196 c 1.902,-0.91 3.863,-1.723 5.871,-2.434 v -11.695 l -5.855,-5.856 m 109.257,109.258 c -2.632,3.973 -5.547,7.746 -8.703,11.297 l 42.449,42.449 c 3.223,-3.465 6.29,-7.062 9.196,-10.804 l -42.942,-42.942 m 80.094,80.098 c -2.75,3.894 -5.625,7.676 -8.641,11.355 l 28.993,28.992 c 1.265,1.266 2.328,2.661 3.183,4.145 4.422,-7.648 3.364,-17.602 -3.183,-24.145 l -20.352,-20.347" /><path
         id="path24"
         style="fill:#e08e4c;fill-opacity:1;fill-rule:nonzero;stroke:none"
         d="M 300,560.004 V 80.0039 c 0,-11.0469 8.953,-20 20,-20 11.047,0 20,8.9531 20,20 V 560.004 c 0,11.043 -8.953,20 -20,20 -11.047,0 -20,-8.957 -20,-20" /><path
         id="path26"
         style="fill:#e08e4c;fill-opacity:1;fill-rule:nonzero;stroke:none"
         d="M 560,340.004 H 80 c -11.0469,0 -20,-8.953 -20,-20 0,-11.047 8.9531,-20 20,-20 h 480 c 11.047,0 20,8.953 20,20 0,11.047 -8.953,20 -20,20" /><path
         id="path28"
         style="fill:#e08e4c;fill-opacity:1;fill-rule:nonzero;stroke:none"
         d="m 503.848,164.441 -339.41,339.411 c -7.813,7.808 -20.473,7.808 -28.286,0 -7.808,-7.813 -7.808,-20.473 0,-28.286 l 339.411,-339.41 c 7.812,-7.812 20.472,-7.812 28.285,0 7.808,7.809 7.808,20.473 0,28.285" /><path
         id="path30"
         style="fill:#e08e4c;fill-opacity:1;fill-rule:nonzero;stroke:none"
         d="m 164.438,136.156 339.41,339.41 c 7.808,7.813 7.808,20.473 0,28.286 -7.813,7.808 -20.473,7.808 -28.285,0 L 136.152,164.441 c -7.808,-7.812 -7.808,-20.476 0,-28.285 7.813,-7.812 20.473,-7.812 28.286,0" /><path
         id="path32"
         style="fill:#404a5f;fill-opacity:1;fill-rule:nonzero;stroke:none"
         d="m 300,100.988 c -40.23,3.992 -76.941,19.903 -106.574,44.157 l 11.355,11.359 C 232.227,137.129 264.77,124.484 300,120.988 v -20" /><path
         id="path34"
         style="fill:#394051;fill-opacity:1;fill-rule:nonzero;stroke:none"
         d="m 193.426,145.145 c -3.66,2.992 -7.211,6.113 -10.645,9.351 l 10.645,10.645 c 3.679,-3.012 7.461,-5.887 11.355,-8.637 l -11.355,-11.359" /><path
         id="path36"
         style="fill:#404a5f;fill-opacity:1;fill-rule:nonzero;stroke:none"
         d="m 340,100.988 v 20 c 35.23,3.496 67.773,16.141 95.219,35.516 l 11.355,-11.359 C 416.941,120.891 380.23,104.98 340,100.988" /><path
         id="path38"
         style="fill:#394051;fill-opacity:1;fill-rule:nonzero;stroke:none"
         d="m 446.574,145.145 -11.355,11.359 c 3.894,2.75 7.676,5.625 11.355,8.637 l 10.645,-10.645 c -3.434,-3.238 -6.985,-6.359 -10.645,-9.351" /><path
         id="path40"
         style="fill:#404a5f;fill-opacity:1;fill-rule:nonzero;stroke:none"
         d="m 483.5,184.785 -8.641,8.641 C 495.023,218.066 509.426,247.617 516,280 h 3.012 C 515.516,244.77 502.875,212.23 483.5,184.785" /><path
         id="path42"
         style="fill:#394051;fill-opacity:1;fill-rule:nonzero;stroke:none"
         d="M 519.012,280 H 516 c 1.332,6.559 2.34,13.23 3.012,20.004 H 520 C 520,300 520,300 520,300 c 0,-6.75 -0.336,-13.422 -0.988,-20" /><path
         id="path44"
         style="fill:#404a5f;fill-opacity:1;fill-rule:nonzero;stroke:none"
         d="m 478.758,340.004 h -3.82 c -5.532,21.406 -15.395,41.094 -28.594,58.059 l 8.297,8.296 c 12.621,-19.613 21.082,-42.16 24.117,-66.355" /><path
         id="path46"
         style="fill:#394051;fill-opacity:1;fill-rule:nonzero;stroke:none"
         d="m 446.344,398.063 c -2.906,3.742 -5.973,7.339 -9.196,10.804 l 9.196,9.196 c 2.933,-3.77 5.703,-7.676 8.297,-11.704 l -8.297,-8.296" /><path
         id="path48"
         style="fill:#b77744;fill-opacity:1;fill-rule:nonzero;stroke:none"
         d="m 320,100 c -6.75,0 -13.422,0.336 -20,0.988 v 20 c 6.578,-0.652 13.25,-0.988 20,-0.988 6.746,0 13.422,0.336 20,0.988 v -20 C 333.422,100.336 326.746,100 320,100" /><path
         id="path50"
         style="fill:#b77744;fill-opacity:1;fill-rule:nonzero;stroke:none"
         d="m 520,300.004 h -0.988 c 0.328,3.309 0.578,6.641 0.742,9.996 0.164,-3.309 0.246,-6.648 0.246,-10 m -40.309,10 c -0.636,10.289 -2.253,20.324 -4.753,30.004 h 3.82 C 479.578,333.445 480,326.773 480,320 c 0,-3.359 -0.105,-6.691 -0.309,-10" /><path
         id="path52"
         style="fill:#b77744;fill-opacity:1;fill-rule:nonzero;stroke:none"
         d="m 457.219,154.496 -10.645,10.645 c 10.344,8.464 19.824,17.945 28.285,28.285 l 8.641,-8.641 c -7.734,-10.957 -16.551,-21.105 -26.281,-30.289" /><path
         id="path54"
         style="fill:#404a5f;fill-opacity:1;fill-rule:nonzero;stroke:none"
         d="M 156.5,184.785 C 137.125,212.23 124.484,244.77 120.988,280 H 124 c 6.574,-32.383 20.977,-61.934 41.141,-86.574 l -8.641,-8.641" /><path
         id="path56"
         style="fill:#394051;fill-opacity:1;fill-rule:nonzero;stroke:none"
         d="m 124,280 h -3.012 C 120.336,286.578 120,293.25 120,300 v 0 l 0.988,0.004 C 121.66,293.23 122.672,286.559 124,280" /><path
         id="path58"
         style="fill:#404a5f;fill-opacity:1;fill-rule:nonzero;stroke:none"
         d="m 165.063,340.004 h -3.821 c 3.035,24.195 11.496,46.742 24.117,66.355 l 8.297,-8.296 C 180.457,381.098 170.594,361.41 165.063,340.004" /><path
         id="path60"
         style="fill:#394051;fill-opacity:1;fill-rule:nonzero;stroke:none"
         d="m 193.656,398.063 -8.297,8.296 c 2.594,4.028 5.364,7.934 8.297,11.704 l 9.196,-9.196 c -3.223,-3.465 -6.289,-7.062 -9.196,-10.804" /><path
         id="path62"
         style="fill:#404a5f;fill-opacity:1;fill-rule:nonzero;stroke:none"
         d="m 233.645,434.645 -11.704,11.703 c 22.129,17.215 48.891,28.754 78.059,32.41 v -20 c -24.199,-3.031 -46.742,-11.492 -66.355,-24.113" /><path
         id="path64"
         style="fill:#404a5f;fill-opacity:1;fill-rule:nonzero;stroke:none"
         d="M 406.355,434.645 C 386.742,447.266 364.199,455.727 340,458.758 v 20 c 29.172,-3.656 55.93,-15.195 78.059,-32.41 l -11.704,-11.703" /><path
         id="path66"
         style="fill:#b77744;fill-opacity:1;fill-rule:nonzero;stroke:none"
         d="m 340,458.758 c -6.555,0.82 -13.227,1.242 -20,1.242 -6.773,0 -13.445,-0.422 -20,-1.242 v 20 c 6.555,0.82 13.227,1.242 20,1.242 6.773,0 13.445,-0.422 20,-1.242 v -20" /><path
         id="path68"
         style="fill:#b77744;fill-opacity:1;fill-rule:nonzero;stroke:none"
         d="M 120.988,300.004 H 120 c 0,3.348 0.082,6.687 0.246,9.996 0.164,-3.355 0.414,-6.687 0.742,-9.996 M 160.309,310 c -0.204,3.309 -0.309,6.641 -0.309,10 0,6.773 0.422,13.445 1.242,20.004 h 3.821 c -2.5,-9.68 -4.118,-19.715 -4.754,-30.004" /><path
         id="path70"
         style="fill:#b77744;fill-opacity:1;fill-rule:nonzero;stroke:none"
         d="m 202.852,408.867 -9.196,9.196 c 8.215,10.566 17.723,20.07 28.285,28.285 l 11.704,-11.703 c -11.321,-7.286 -21.665,-15.961 -30.793,-25.778" /><path
         id="path72"
         style="fill:#b77744;fill-opacity:1;fill-rule:nonzero;stroke:none"
         d="m 182.781,154.496 c -9.73,9.184 -18.547,19.332 -26.281,30.289 l 8.641,8.641 c 8.461,-10.34 17.941,-19.821 28.285,-28.285 l -10.645,-10.645 m 254.367,254.371 c -9.128,9.817 -19.476,18.492 -30.793,25.778 l 11.704,11.703 c 10.562,-8.215 20.07,-17.719 28.285,-28.285 l -9.196,-9.196" /><path
         id="path74"
         style="fill:#f3cc70;fill-opacity:1;fill-rule:nonzero;stroke:none"
         d="m 320,520 c -110.457,0 -200,-89.543 -200,-200 0,-110.457 89.543,-200 200,-200 110.457,0 200,89.543 200,200 0,110.457 -89.543,200 -200,200 m 0,-40 c 88.223,0 160,-71.777 160,-160 0,-88.223 -71.777,-160 -160,-160 -88.223,0 -160,71.777 -160,160 0,88.223 71.777,160 160,160" /><path
         id="path76"
         style="fill:#495672;fill-opacity:1;fill-rule:nonzero;stroke:none"
         d="m 380,320 c 0,-33.137 -26.863,-60 -60,-60 -33.137,0 -60,26.863 -60,60 0,33.137 26.863,60 60,60 33.137,0 60,-26.863 60,-60" /><path
         id="path78"
         style="fill:#404a5f;fill-opacity:1;fill-rule:nonzero;stroke:none"
         d="m 300,202.008 c -12.75,2.601 -24.629,7.633 -35.121,14.59 l 29.266,29.265 c 1.898,-0.914 3.851,-1.726 5.855,-2.437 v -41.418 m 40,0 v 41.418 c 2.004,0.711 3.957,1.523 5.855,2.433 l 29.266,-29.261 C 364.629,209.641 352.75,204.609 340,202.008 m 70.602,55.68 L 388.285,280 h 29.707 c -1.59,-7.805 -4.094,-15.281 -7.39,-22.312 m -181.204,0 c -3.296,7.031 -5.8,14.507 -7.39,22.312 h 29.703 l -22.313,-22.312 m 182.25,82.316 h -23.363 l 15.117,15.117 c 3.164,-4.769 5.926,-9.824 8.246,-15.117 m -159.933,0 h -23.363 c 2.32,5.293 5.082,10.348 8.246,15.117 l 15.117,-15.117 m 42.418,34.148 -16.445,16.45 c 7.031,3.296 14.507,5.8 22.312,7.39 v -21.406 c -2.008,-0.707 -3.965,-1.523 -5.867,-2.434 m 51.734,0 c -1.902,0.911 -3.859,1.727 -5.867,2.434 v 21.406 c 7.805,-1.59 15.281,-4.094 22.313,-7.39 l -16.446,-16.45" /><path
         id="path80"
         style="fill:#394051;fill-opacity:1;fill-rule:nonzero;stroke:none"
         d="m 417.992,280 h -29.707 l -9.25,9.254 C 379.668,292.738 380,296.332 380,300 v 0 l 40,0.004 C 420,300 420,300 420,300 c 0,-6.848 -0.691,-13.535 -2.008,-20 m -166.281,0 H 222.008 C 220.691,286.465 220,293.152 220,300 v 0 l 40,0.004 C 260,300 260,300 260,300 c 0,-3.668 0.332,-7.262 0.965,-10.746 L 251.711,280" /><path
         id="path82"
         style="fill:#394051;fill-opacity:1;fill-rule:nonzero;stroke:none"
         d="m 375.121,216.598 -29.266,29.261 c 4.391,2.11 8.489,4.731 12.211,7.793 l 28.352,-28.351 c -3.551,-3.156 -7.324,-6.071 -11.297,-8.703 M 263.414,340.004 h -11.699 l -15.117,15.117 c 2.632,3.973 5.547,7.746 8.703,11.297 l 20.547,-20.547 c -0.91,-1.902 -1.723,-3.863 -2.434,-5.867" /><path
         id="path84"
         style="fill:#394051;fill-opacity:1;fill-rule:nonzero;stroke:none"
         d="m 264.879,216.598 c -3.973,2.632 -7.746,5.547 -11.297,8.703 l 28.352,28.351 c 3.722,-3.062 7.82,-5.683 12.211,-7.789 l -29.266,-29.265 m 123.406,123.406 h -11.699 c -0.711,2.004 -1.523,3.965 -2.434,5.867 l 20.547,20.547 c 3.156,-3.551 6.071,-7.324 8.703,-11.297 l -15.117,-15.117" /><path
         id="path86"
         style="fill:#b77744;fill-opacity:1;fill-rule:nonzero;stroke:none"
         d="m 320,200 c -6.848,0 -13.535,0.691 -20,2.008 v 41.418 c 6.258,-2.219 12.992,-3.426 20,-3.426 7.008,0 13.742,1.207 20,3.426 V 202.008 C 333.535,200.691 326.848,200 320,200 m 20,176.586 c -6.254,2.211 -12.988,3.414 -20,3.414 -7.012,0 -13.746,-1.203 -20,-3.414 v 21.406 c 6.465,1.317 13.152,2.008 20,2.008 6.848,0 13.535,-0.691 20,-2.008 v -21.406" /><path
         id="path88"
         style="fill:#b77744;fill-opacity:1;fill-rule:nonzero;stroke:none"
         d="m 420,300.004 h -40 c 0,3.398 -0.285,6.734 -0.832,9.984 0.547,3.254 0.832,6.602 0.832,10.012 0,7.016 -1.203,13.746 -3.414,20.004 h 11.699 23.363 C 417.02,327.746 420,314.215 420,300 m -160,0.004 h -40 c 0,14.211 2.98,27.742 8.352,40 h 23.363 11.699 C 261.203,333.746 260,327.016 260,320 c 0,-3.41 0.285,-6.758 0.832,-10.012 C 260.285,306.738 260,303.402 260,300" /><path
         id="path90"
         style="fill:#b77744;fill-opacity:1;fill-rule:nonzero;stroke:none"
         d="m 386.418,225.301 -28.352,28.351 c 10.75,8.848 18.383,21.356 20.969,35.602 l 9.25,-9.254 22.317,-22.312 c -5.809,-12.387 -14.082,-23.391 -24.184,-32.387 m -120.57,120.57 -20.547,20.547 c 8.996,10.102 20,18.375 32.387,24.184 l 16.445,-16.45 c -12.356,-5.91 -22.371,-15.925 -28.285,-28.281" /><path
         id="path92"
         style="fill:#b77744;fill-opacity:1;fill-rule:nonzero;stroke:none"
         d="m 253.582,225.301 c -10.102,8.996 -18.375,20 -24.184,32.387 l 22.313,22.312 9.254,9.254 c 2.586,-14.246 10.219,-26.754 20.969,-35.602 l -28.352,-28.351 m 120.57,120.57 c -5.914,12.356 -15.929,22.371 -28.285,28.281 l 16.446,16.45 c 12.386,-5.809 23.39,-14.082 32.386,-24.184 l -20.547,-20.547" /><path
         id="path94"
         style="fill:#404a5f;fill-opacity:1;fill-rule:nonzero;stroke:none"
         d="M 260.832,309.988 C 260.285,313.242 260,316.59 260,320 c 0,7.016 1.203,13.746 3.414,20.004 0.711,2.004 1.524,3.965 2.434,5.867 5.914,12.356 15.929,22.371 28.285,28.281 1.902,0.911 3.859,1.727 5.867,2.434 v 0 c 6.254,2.211 12.988,3.414 20,3.414 7.012,0 13.746,-1.203 20,-3.414 2.008,-0.707 3.965,-1.523 5.867,-2.434 12.356,-5.91 22.371,-15.925 28.285,-28.281 0.911,-1.902 1.723,-3.863 2.434,-5.867 C 378.797,333.746 380,327.016 380,320 c 0,-3.41 -0.285,-6.758 -0.832,-10.012 C 374.398,338.336 349.684,360 320,360 c -29.684,0 -54.398,-21.664 -59.168,-50.012" /><path
         id="path96"
         style="fill:#f3cc70;fill-opacity:1;fill-rule:nonzero;stroke:none"
         d="M 400,320 H 380 C 379.988,303.367 373.316,288.496 362.426,277.574 351.504,266.684 336.633,260.012 320,260 c -16.633,0.012 -31.504,6.684 -42.426,17.574 -10.89,10.922 -17.562,25.793 -17.574,42.426 0.012,16.633 6.684,31.508 17.574,42.426 10.922,10.89 25.793,17.562 42.426,17.574 16.633,-0.012 31.504,-6.684 42.426,-17.574 C 373.316,351.508 379.988,336.633 380,320 h 20 20 c -0.012,55.238 -44.766,99.988 -100,100 -55.234,-0.012 -99.988,-44.762 -100,-100 0.012,-55.234 44.766,-99.988 100,-100 55.234,0.012 99.988,44.766 100,100 h -20" /></g></g></svg>