<?xml version="1.0" encoding="UTF-8" standalone="no"?>
<svg
   xmlns:dc="http://purl.org/dc/elements/1.1/"
   xmlns:cc="http://creativecommons.org/ns#"
   xmlns:rdf="http://www.w3.org/1999/02/22-rdf-syntax-ns#"
   xmlns:svg="http://www.w3.org/2000/svg"
   xmlns="http://www.w3.org/2000/svg"
   viewBox="0 0 85.333336 85.333336"
   height="85.333336"
   width="85.333336"
   xml:space="preserve"
   id="svg2"
   version="1.1"><metadata
     id="metadata8"><rdf:RDF><cc:Work
         rdf:about=""><dc:format>image/svg+xml</dc:format><dc:type
           rdf:resource="http://purl.org/dc/dcmitype/StillImage" /></cc:Work></rdf:RDF></metadata><defs
     id="defs6" /><g
     transform="matrix(1.3333333,0,0,-1.3333333,0,85.333333)"
     id="g10"><g
       transform="scale(0.1)"
       id="g12"><path
         id="path14"
         style="fill:#77caa9;fill-opacity:1;fill-rule:nonzero;stroke:none"
         d="M 640,320 C 640,143.27 496.73,0 320,0 143.27,0 0,143.27 0,320 0,496.73 143.27,640 320,640 496.73,640 640,496.73 640,320" /><path
         id="path16"
         style="fill:#495672;fill-opacity:1;fill-rule:nonzero;stroke:none"
         d="m 260.945,272.633 c 5.625,16.25 16.25,43.125 1.25,95 -15,51.875 -36.875,72.148 -66.875,72.148 0,0 -51.527,2.836 -55,-79.023 -3.84,-90.492 27.914,-112.711 37.871,-164.473 l 75.25,21.5 c -2.679,22.36 3.586,43.524 7.504,54.848" /><path
         id="path18"
         style="fill:#495672;fill-opacity:1;fill-rule:nonzero;stroke:none"
         d="m 262.633,189.207 -81.211,-23.203 c 4.207,-53.223 30.109,-95.9727 74.523,-83.9688 46.25,12.5 25.114,75.3438 6.989,106.5938 l -0.301,0.578" /><path
         id="path20"
         style="fill:#495672;fill-opacity:1;fill-rule:nonzero;stroke:none"
         d="m 379.055,352.734 c -5.625,16.25 -16.25,43.125 -1.25,95 15,51.875 36.875,72.153 66.875,72.153 0,0 51.527,2.832 55,-79.028 3.84,-90.492 -27.914,-112.711 -37.871,-164.472 l -75.25,21.5 c 2.679,22.363 -3.582,43.523 -7.504,54.847" /><path
         id="path22"
         style="fill:#495672;fill-opacity:1;fill-rule:nonzero;stroke:none"
         d="m 377.367,269.313 81.215,-23.208 c -4.211,-53.218 -30.113,-95.968 -74.527,-83.964 -46.25,12.5 -25.114,75.339 -6.989,106.589 l 0.301,0.583" /></g></g></svg>