<?xml version="1.0" encoding="UTF-8" standalone="no"?>
<svg
   xmlns:dc="http://purl.org/dc/elements/1.1/"
   xmlns:cc="http://creativecommons.org/ns#"
   xmlns:rdf="http://www.w3.org/1999/02/22-rdf-syntax-ns#"
   xmlns:svg="http://www.w3.org/2000/svg"
   xmlns="http://www.w3.org/2000/svg"
   viewBox="0 0 85.333336 85.333336"
   height="85.333336"
   width="85.333336"
   xml:space="preserve"
   id="svg2"
   version="1.1"><metadata
     id="metadata8"><rdf:RDF><cc:Work
         rdf:about=""><dc:format>image/svg+xml</dc:format><dc:type
           rdf:resource="http://purl.org/dc/dcmitype/StillImage" /></cc:Work></rdf:RDF></metadata><defs
     id="defs6" /><g
     transform="matrix(1.3333333,0,0,-1.3333333,0,85.333333)"
     id="g10"><g
       transform="scale(0.1)"
       id="g12"><path
         id="path14"
         style="fill:#e1e3cc;fill-opacity:1;fill-rule:nonzero;stroke:none"
         d="M 640,320 C 640,143.27 496.73,0 320,0 143.27,0 0,143.27 0,320 0,496.73 143.27,640 320,640 496.73,640 640,496.73 640,320" /><path
         id="path16"
         style="fill:#b7b7a7;fill-opacity:1;fill-rule:nonzero;stroke:none"
         d="m 283.887,100 c -6.289,0 -12.582,2.395 -17.414,7.203 L 127.215,246.516 c -9.621,9.621 -9.621,25.214 0,34.839 l 181.383,181.454 c 1.113,1.109 9.695,7.007 13.468,7.179 h 155.067 0.566 0.668 c 6.758,0 11.961,-5.351 11.617,-12.238 V 302.133 c 0,-4.738 -6.191,-12.363 -7.3,-13.473 L 301.297,107.203 C 296.488,102.395 290.176,100 283.887,100 M 440,440 c -11.039,0 -20,-8.961 -20,-20 0,-11.039 8.961,-20 20,-20 11.039,0 20,8.961 20,20 0,11.039 -8.961,20 -20,20" /><path
         id="path18"
         style="fill:#c84755;fill-opacity:1;fill-rule:nonzero;stroke:none"
         d="m 440,420 c -11.039,0 -20,8.961 -20,20 0,11.039 8.961,20 20,20 11.039,0 20,-8.961 20,-20 0,-11.039 -8.961,-20 -20,-20 z m 38.367,69.988 H 322.066 c -3.773,-0.172 -12.355,-6.07 -13.468,-7.179 L 127.215,301.355 c -9.621,-9.625 -9.621,-25.218 0,-34.839 L 266.473,127.203 c 4.832,-4.808 11.125,-7.203 17.414,-7.203 6.289,0 12.601,2.395 17.41,7.203 L 482.684,308.66 c 1.109,1.11 7.3,8.735 7.3,13.473 V 477.75 c 0.344,6.887 -4.859,12.238 -11.617,12.238" /></g></g></svg>