<?xml version="1.0" encoding="UTF-8" standalone="no"?>
<svg
   xmlns:dc="http://purl.org/dc/elements/1.1/"
   xmlns:cc="http://creativecommons.org/ns#"
   xmlns:rdf="http://www.w3.org/1999/02/22-rdf-syntax-ns#"
   xmlns:svg="http://www.w3.org/2000/svg"
   xmlns="http://www.w3.org/2000/svg"
   viewBox="0 0 85.333336 85.333336"
   height="85.333336"
   width="85.333336"
   xml:space="preserve"
   id="svg2"
   version="1.1"><metadata
     id="metadata8"><rdf:RDF><cc:Work
         rdf:about=""><dc:format>image/svg+xml</dc:format><dc:type
           rdf:resource="http://purl.org/dc/dcmitype/StillImage" /></cc:Work></rdf:RDF></metadata><defs
     id="defs6" /><g
     transform="matrix(1.3333333,0,0,-1.3333333,0,85.333333)"
     id="g10"><g
       transform="scale(0.1)"
       id="g12"><path
         id="path14"
         style="fill:#77caa9;fill-opacity:1;fill-rule:nonzero;stroke:none"
         d="M 640,320 C 640,143.27 496.73,0 320,0 143.27,0 0,143.27 0,320 0,496.73 143.27,640 320,640 496.73,640 640,496.73 640,320" /><path
         id="path16"
         style="fill:#62a48d;fill-opacity:1;fill-rule:nonzero;stroke:none"
         d="m 380,120 h -33.16 c 2.008,2.941 3.16,6.355 3.16,10 v 10 h 30 c 11.047,0 20,8.953 20,20 v 0 h 60 v 0 0 h 40 c 11.047,0 20,8.953 20,20 v -20 c 0,-11.047 -8.953,-20 -20,-20 H 400 c 0,-11.047 -8.953,-20 -20,-20 m -156.84,0 H 140 c -11.047,0 -20,8.953 -20,20 v 20 120 0 -100 0 -20 c 0,-11.047 8.953,-20 20,-20 h 80 v -10 c 0,-3.645 1.152,-7.059 3.16,-10" /><path
         id="path18"
         style="fill:#495672;fill-opacity:1;fill-rule:nonzero;stroke:none"
         d="m 520,300 c 0,11.047 -8.953,20 -20,20 H 140 c -11.047,0 -20,-8.953 -20,-20 V 180 c 0,-11.047 8.953,-20 20,-20 h 360 c 11.047,0 20,8.953 20,20 v 120" /><path
         id="path20"
         style="fill:#495672;fill-opacity:1;fill-rule:nonzero;stroke:none"
         d="m 400,220 c 0,-33.137 26.863,-60 60,-60 33.137,0 60,26.863 60,60 v 90 c 0,33.137 -26.863,60 -60,60 -33.137,0 -60,-26.863 -60,-60 v -90" /><path
         id="path22"
         style="fill:#495672;fill-opacity:1;fill-rule:nonzero;stroke:none"
         d="m 380,310 c 0,-11.047 -8.953,-20 -20,-20 H 210 c -11.047,0 -20,8.953 -20,20 v 190 c 0,11.047 8.953,20 20,20 h 150 c 11.047,0 20,-8.953 20,-20 V 310" /><path
         id="path24"
         style="fill:#495672;fill-opacity:1;fill-rule:nonzero;stroke:none"
         d="m 400,160 c 0,-11.047 -8.953,-20 -20,-20 H 140 c -11.047,0 -20,8.953 -20,20 v 140 c 0,11.047 8.953,20 20,20 h 240 c 11.047,0 20,-8.953 20,-20 V 160" /><path
         id="path26"
         style="fill:#7db6d8;fill-opacity:1;fill-rule:nonzero;stroke:none"
         d="m 490,310 c 0,-16.57 -13.43,-30 -30,-30 -16.57,0 -30,13.43 -30,30 0,16.57 13.43,30 30,30 16.57,0 30,-13.43 30,-30" /><path
         id="path28"
         style="fill:#62a48d;fill-opacity:1;fill-rule:nonzero;stroke:none"
         d="m 326.363,110 h -82.726 c -8.75,0 -16.387,4.02 -20.477,10 h 123.68 c -4.09,-5.98 -11.727,-10 -20.477,-10" /><path
         id="path30"
         style="fill:#538777;fill-opacity:1;fill-rule:nonzero;stroke:none"
         d="M 346.84,120 H 223.16 c -2.008,2.941 -3.16,6.355 -3.16,10 v 10 h 130 v -10 c 0,-3.645 -1.152,-7.059 -3.16,-10" /><path
         id="path32"
         style="fill:#404a5f;fill-opacity:1;fill-rule:nonzero;stroke:none"
         d="M 350,140 H 220 v 150 c 0,11.047 10.582,20 23.637,20 h 82.726 C 339.418,310 350,301.047 350,290 V 140" /><path
         id="path34"
         style="fill:#f3cc70;fill-opacity:1;fill-rule:nonzero;stroke:none"
         d="m 340,160 c 0,-11.047 -8.953,-20 -20,-20 h -70 c -11.047,0 -20,8.953 -20,20 v 160 c 0,11.047 8.953,20 20,20 h 70 c 11.047,0 20,-8.953 20,-20 V 160" /><path
         id="path36"
         style="fill:#495672;fill-opacity:1;fill-rule:nonzero;stroke:none"
         d="m 340,140 c 0,-11.047 -8.953,-20 -20,-20 h -70 c -11.047,0 -20,8.953 -20,20 v 160 c 0,11.047 8.953,20 20,20 h 70 c 11.047,0 20,-8.953 20,-20 V 140" /><path
         id="path38"
         style="fill:#e1e3cc;fill-opacity:1;fill-rule:nonzero;stroke:none"
         d="m 490,210 c 0,-11.047 -8.953,-20 -20,-20 h -70 c -11.047,0 -20,8.953 -20,20 v 20 c 0,11.047 8.953,20 20,20 h 70 c 11.047,0 20,-8.953 20,-20 v -20" /><path
         id="path40"
         style="fill:#b7b7a7;fill-opacity:1;fill-rule:nonzero;stroke:none"
         d="m 490,220 c 0,11.047 -8.953,20 -20,20 h -70 c -11.047,0 -20,-8.953 -20,-20 v 10 c 0,11.047 8.953,20 20,20 h 70 c 11.047,0 20,-8.953 20,-20 v -10" /></g></g></svg>