<?xml version="1.0" encoding="UTF-8" standalone="no"?>
<svg
   xmlns:dc="http://purl.org/dc/elements/1.1/"
   xmlns:cc="http://creativecommons.org/ns#"
   xmlns:rdf="http://www.w3.org/1999/02/22-rdf-syntax-ns#"
   xmlns:svg="http://www.w3.org/2000/svg"
   xmlns="http://www.w3.org/2000/svg"
   viewBox="0 0 85.333336 85.333336"
   height="85.333336"
   width="85.333336"
   xml:space="preserve"
   id="svg2"
   version="1.1"><metadata
     id="metadata8"><rdf:RDF><cc:Work
         rdf:about=""><dc:format>image/svg+xml</dc:format><dc:type
           rdf:resource="http://purl.org/dc/dcmitype/StillImage" /></cc:Work></rdf:RDF></metadata><defs
     id="defs6" /><g
     transform="matrix(1.3333333,0,0,-1.3333333,0,85.333333)"
     id="g10"><g
       transform="scale(0.1)"
       id="g12"><path
         id="path14"
         style="fill:#e08e4c;fill-opacity:1;fill-rule:nonzero;stroke:none"
         d="M 640,320 C 640,143.27 496.73,0 320,0 143.27,0 0,143.27 0,320 0,496.73 143.27,640 320,640 496.73,640 640,496.73 640,320" /><path
         id="path16"
         style="fill:#b77744;fill-opacity:1;fill-rule:nonzero;stroke:none"
         d="M 400,120 H 240 c -22.09,0 -40,17.91 -40,40 v 320 0 -300 c 0,-22.09 17.91,-40 40,-40 h 160 c 7.078,0 13.723,1.836 19.492,5.063 l 0.52,-1.258 v 1.554 C 431.961,152.277 440,165.199 440,180 v -20 c 0,-22.09 -17.91,-40 -40,-40" /><path
         id="path18"
         style="fill:#495672;fill-opacity:1;fill-rule:nonzero;stroke:none"
         d="m 240,155 c -13.789,0 -25,11.211 -25,25 v 320 c 0,13.789 11.211,25 25,25 h 160 c 13.789,0 25,-11.211 25,-25 V 180 c 0,-13.789 -11.211,-25 -25,-25 H 240" /><path
         id="path20"
         style="fill:#ffffff;fill-opacity:1;fill-rule:nonzero;stroke:none"
         d="M 400,540 H 240 c -22.09,0 -40,-17.91 -40,-40 V 180 c 0,-22.09 17.91,-40 40,-40 h 160 c 22.09,0 40,17.91 40,40 v 320 c 0,22.09 -17.91,40 -40,40 m 0,-30 c 5.516,0 10,-4.484 10,-10 V 180 c 0,-5.516 -4.484,-10 -10,-10 H 240 c -5.516,0 -10,4.484 -10,10 v 320 c 0,5.516 4.484,10 10,10 h 160" /><path
         id="path22"
         style="fill:#c59266;fill-opacity:1;fill-rule:nonzero;stroke:none"
         d="m 420.012,143.805 -0.52,1.258 c 0.172,0.097 0.348,0.195 0.52,0.296 v -1.554" /><path
         id="path24"
         style="fill:#6c7990;fill-opacity:1;fill-rule:nonzero;stroke:none"
         d="M 407.691,173.617 268.699,510 H 400 c 5.516,0 10,-4.484 10,-10 V 180 c 0,-2.426 -0.867,-4.648 -2.309,-6.383" /><path
         id="path26"
         style="fill:#ffffff;fill-opacity:1;fill-rule:nonzero;stroke:none"
         d="m 419.492,145.063 -11.801,28.554 c 1.442,1.735 2.309,3.957 2.309,6.383 v 320 c 0,5.516 -4.484,10 -10,10 H 268.699 L 262.5,525 H 420.012 V 145.359 c -0.172,-0.101 -0.348,-0.199 -0.52,-0.296" /><path
         id="path28"
         style="fill:#ffffff;fill-opacity:1;fill-rule:nonzero;stroke:none"
         d="M 400,140 H 240 l -40,80 h 240 l -40,-80" /><path
         id="path30"
         style="fill:#e1e3cc;fill-opacity:1;fill-rule:nonzero;stroke:none"
         d="m 340,180 c 0,11.047 -8.953,20 -20,20 -11.047,0 -20,-8.953 -20,-20 0,-11.047 8.953,-20 20,-20 11.047,0 20,8.953 20,20" /></g></g></svg>