<?xml version="1.0" encoding="UTF-8" standalone="no"?>
<svg
   xmlns:dc="http://purl.org/dc/elements/1.1/"
   xmlns:cc="http://creativecommons.org/ns#"
   xmlns:rdf="http://www.w3.org/1999/02/22-rdf-syntax-ns#"
   xmlns:svg="http://www.w3.org/2000/svg"
   xmlns="http://www.w3.org/2000/svg"
   viewBox="0 0 85.333336 85.333336"
   height="85.333336"
   width="85.333336"
   xml:space="preserve"
   id="svg2"
   version="1.1"><metadata
     id="metadata8"><rdf:RDF><cc:Work
         rdf:about=""><dc:format>image/svg+xml</dc:format><dc:type
           rdf:resource="http://purl.org/dc/dcmitype/StillImage" /></cc:Work></rdf:RDF></metadata><defs
     id="defs6" /><g
     transform="matrix(1.3333333,0,0,-1.3333333,0,85.333333)"
     id="g10"><g
       transform="scale(0.1)"
       id="g12"><path
         id="path14"
         style="fill:#495672;fill-opacity:1;fill-rule:nonzero;stroke:none"
         d="M 640,320 C 640,143.27 496.73,0 320,0 143.27,0 0,143.27 0,320 0,496.73 143.27,640 320,640 496.73,640 640,496.73 640,320" /><path
         id="path16"
         style="fill:#404a5f;fill-opacity:1;fill-rule:nonzero;stroke:none"
         d="m 235,87.3438 c -12.922,0 -23.555,9.9257 -24.863,22.6562 h 9.543 c 4.23,-3.328 9.547,-5.309 15.32,-5.309 5.773,0 11.09,1.981 15.32,5.309 h 9.543 C 258.555,97.2695 247.922,87.3438 235,87.3438" /><path
         id="path18"
         style="fill:#404a5f;fill-opacity:1;fill-rule:nonzero;stroke:none"
         d="m 405,87.3438 c -12.922,0 -23.555,9.9257 -24.863,22.6562 h 9.543 c 4.23,-3.328 9.547,-5.309 15.32,-5.309 5.773,0 11.09,1.981 15.32,5.309 h 9.543 C 428.555,97.2695 417.922,87.3438 405,87.3438" /><path
         id="path20"
         style="fill:#e1e3cc;fill-opacity:1;fill-rule:nonzero;stroke:none"
         d="m 260,130 c 0,-13.977 -11.191,-25.309 -25,-25.309 -13.809,0 -25,11.332 -25,25.309 v 334.691 c 0,13.977 11.191,35.309 25,35.309 13.809,0 25,-21.332 25,-35.309 V 130" /><path
         id="path22"
         style="fill:#e1e3cc;fill-opacity:1;fill-rule:nonzero;stroke:none"
         d="m 430,130 c 0,-13.977 -11.191,-25.309 -25,-25.309 -13.809,0 -25,11.332 -25,25.309 v 334.691 c 0,13.977 11.191,35.309 25,35.309 13.809,0 25,-21.332 25,-35.309 V 130" /><path
         id="path24"
         style="fill:#e08e4c;fill-opacity:1;fill-rule:nonzero;stroke:none"
         d="M 380,209.691 C 380,176.727 353.137,150 320,150 c -33.137,0 -60,26.727 -60,59.691 V 480 c 0,32.965 26.863,90 60,90 33.137,0 60,-57.035 60,-90 V 209.691" /><path
         id="path26"
         style="fill:#404a5f;fill-opacity:1;fill-rule:nonzero;stroke:none"
         d="m 270,110 h -10.137 c 0.09,0.871 0.137,1.758 0.137,2.656 V 130 v 0 20 h 10 v -40 m -59.863,0 H 210 c -11.047,0 -30,8.953 -30,20 v 30 c 0,1.711 0.438,3.426 1.223,5.129 C 185.586,156.438 200.637,150 210,150 v -37.344 c 0,-0.898 0.047,-1.785 0.137,-2.656" /><path
         id="path28"
         style="fill:#394051;fill-opacity:1;fill-rule:nonzero;stroke:none"
         d="m 259.863,110 h -9.543 c 5.856,4.602 9.633,11.781 9.68,19.855 v 0 c 0,0.016 0,0.028 0,0.043 0,0.004 0,0.004 0,0.008 0,0.016 0,0.024 0,0.035 0,0.004 0,0.008 0,0.012 0,0.016 0,0.031 0,0.047 v 0 -17.344 c 0,-0.898 -0.047,-1.785 -0.137,-2.656 m -40.183,0 h -9.543 c -0.09,0.871 -0.137,1.758 -0.137,2.656 V 150 v 0 -20 c 0,-8.133 3.789,-15.371 9.68,-20" /><path
         id="path30"
         style="fill:#b7b7a7;fill-opacity:1;fill-rule:nonzero;stroke:none"
         d="m 250.32,110 h -0.148 c 5.906,4.598 9.781,11.738 9.828,19.855 -0.047,-8.074 -3.824,-15.253 -9.68,-19.855 m -0.32,0 h -30.32 c -5.891,4.629 -9.68,11.867 -9.68,20 v 20 0 h 40 v -40 m 10,19.855 c 0,0.016 0,0.028 0,0.043 0,-0.015 0,-0.027 0,-0.043 m 0,0.051 c 0,0.012 0,0.024 0,0.035 0,-0.011 0,-0.019 0,-0.035 m 0,0.047 c 0,0.016 0,0.031 0,0.047 0,-0.016 0,-0.031 0,-0.047" /><path
         id="path32"
         style="fill:#404a5f;fill-opacity:1;fill-rule:nonzero;stroke:none"
         d="m 430,110 h -0.137 c 0.09,0.871 0.137,1.758 0.137,2.656 V 130 v 0 20 c 9.363,0 24.414,6.438 28.777,15.129 C 459.563,163.426 460,161.711 460,160 v -30 c 0,-11.047 -18.953,-20 -30,-20" /><path
         id="path34"
         style="fill:#394051;fill-opacity:1;fill-rule:nonzero;stroke:none"
         d="m 429.863,110 h -9.543 c 5.891,4.629 9.68,11.867 9.68,20 v -17.344 c 0,-0.898 -0.047,-1.785 -0.137,-2.656" /><path
         id="path36"
         style="fill:#404a5f;fill-opacity:1;fill-rule:nonzero;stroke:none"
         d="M 380.137,110 H 370 v 40 h 10 v -37.344 c 0,-0.898 0.047,-1.785 0.137,-2.656" /><path
         id="path38"
         style="fill:#394051;fill-opacity:1;fill-rule:nonzero;stroke:none"
         d="m 389.68,110 h -9.543 c -0.09,0.871 -0.137,1.758 -0.137,2.656 V 150 v -20 0 0 c 0,-0.016 0,-0.031 0,-0.047 0,-0.004 0,-0.008 0,-0.012 0,-0.011 0,-0.019 0,-0.035 0,-0.004 0,-0.004 0,-0.008 0,-0.015 0,-0.027 0,-0.039 0,-0.004 0,-0.004 0,-0.007 0.047,-8.075 3.824,-15.25 9.68,-19.852" /><path
         id="path40"
         style="fill:#b7b7a7;fill-opacity:1;fill-rule:nonzero;stroke:none"
         d="M 420.32,110 H 390 v 40 h 40 v -20 0 c 0,-8.133 -3.789,-15.371 -9.68,-20 m -30.492,0 h -0.148 c -5.856,4.602 -9.633,11.777 -9.68,19.852 0.047,-8.114 3.922,-15.254 9.828,-19.852 M 380,129.859 c 0,0.012 0,0.024 0,0.039 0,-0.015 0,-0.027 0,-0.039 m 0,0.047 c 0,0.016 0,0.024 0,0.035 0,-0.011 0,-0.023 0,-0.035 m 0,0.047 c 0,0.016 0,0.031 0,0.047 0,-0.016 0,-0.031 0,-0.047" /><path
         id="path42"
         style="fill:#404a5f;fill-opacity:1;fill-rule:nonzero;stroke:none"
         d="m 320,70 c -27.613,0 -50,11.332 -50,25.3086 V 110 h 44.371 v 0 H 370 V 95.3086 C 370,81.332 347.613,70 320,70" /><path
         id="path44"
         style="fill:#394051;fill-opacity:1;fill-rule:nonzero;stroke:none"
         d="M 314.371,110 H 270 v 40 h 24.371 v -20 c 0,-11.047 8.953,-20 20,-20" /><path
         id="path46"
         style="fill:#394051;fill-opacity:1;fill-rule:nonzero;stroke:none"
         d="m 370,110 h -55.629 v 0 h 11.258 c 11.047,0 20,8.953 20,20 v 20 H 370 v -40" /><path
         id="path48"
         style="fill:#343945;fill-opacity:1;fill-rule:nonzero;stroke:none"
         d="m 325.629,110 h -11.258 c -11.047,0 -20,8.953 -20,20 v 20 h 20 v 0 h 31.258 v -20 c 0,-11.047 -8.953,-20 -20,-20" /><path
         id="path50"
         style="fill:#b77744;fill-opacity:1;fill-rule:nonzero;stroke:none"
         d="M 320,317.711 C 300.652,333.648 276.387,350 270,350 v 0 50 c 0,13.977 22.387,70 50,70 27.613,0 50,-56.023 50,-70 v -50 c -6.387,0 -30.652,-16.352 -50,-32.289" /><path
         id="path52"
         style="fill:#b77744;fill-opacity:1;fill-rule:nonzero;stroke:none"
         d="m 260,257.316 v 40 C 269.996,325.77 270,350 270,350 v -40 0 c 0,0 -0.004,-24.23 -10,-52.684" /><path
         id="path54"
         style="fill:#394051;fill-opacity:1;fill-rule:nonzero;stroke:none"
         d="m 270,150 h -10 v 59.691 c 0,-12.203 3.684,-23.554 10,-33.007 V 150" /><path
         id="path56"
         style="fill:#97633d;fill-opacity:1;fill-rule:nonzero;stroke:none"
         d="m 270,176.684 c -6.316,9.453 -10,20.804 -10,33.007 v 47.625 C 269.996,285.77 270,310 270,310 v 0 -133.316" /><path
         id="path58"
         style="fill:#404a5f;fill-opacity:1;fill-rule:nonzero;stroke:none"
         d="M 181.223,165.129 C 180.438,166.688 180,168.32 180,170 v 30 c 0,11.047 18.234,22.156 30,30 v -40 c -9.941,-6.629 -24.504,-15.59 -28.777,-24.871" /><path
         id="path60"
         style="fill:#b7b7a7;fill-opacity:1;fill-rule:nonzero;stroke:none"
         d="m 210,190 v 40 c 18.398,12.266 31.156,28.293 40,44.621 v -40 C 241.156,218.293 228.398,202.266 210,190 v 0" /><path
         id="path62"
         style="fill:#394051;fill-opacity:1;fill-rule:nonzero;stroke:none"
         d="m 210,150 c -9.363,0 -24.414,6.438 -28.777,15.129 4.273,9.281 18.836,18.242 28.777,24.871 v -40" /><path
         id="path64"
         style="fill:#97978c;fill-opacity:1;fill-rule:nonzero;stroke:none"
         d="m 250,150 h -40 v 0 40 c 18.398,12.266 31.156,28.293 40,44.621 V 150" /><path
         id="path66"
         style="fill:#97633d;fill-opacity:1;fill-rule:nonzero;stroke:none"
         d="M 296.836,295.297 C 284.656,303.793 273.934,310 270,310 v 40 0 c 6.387,0 30.652,-16.352 50,-32.289 -10.207,-8.406 -19.047,-16.703 -23.164,-22.414" /><path
         id="path68"
         style="fill:#343945;fill-opacity:1;fill-rule:nonzero;stroke:none"
         d="M 294.371,150 H 270 v 26.684 c 6.027,-9.02 14.453,-16.313 24.371,-20.981 V 150" /><path
         id="path70"
         style="fill:#7e5337;fill-opacity:1;fill-rule:nonzero;stroke:none"
         d="m 294.371,155.703 c -9.918,4.668 -18.344,11.961 -24.371,20.981 V 310 c 3.934,0 14.656,-6.207 26.836,-14.703 -1.578,-2.192 -2.465,-4.004 -2.465,-5.297 v -40 0 -94.297" /><path
         id="path72"
         style="fill:#31333d;fill-opacity:1;fill-rule:nonzero;stroke:none"
         d="m 314.371,150 h -20 v 5.703 c 3.984,-1.875 8.207,-3.324 12.613,-4.297 2.286,-0.906 4.778,-1.406 7.387,-1.406" /><path
         id="path74"
         style="fill:#6b4833;fill-opacity:1;fill-rule:nonzero;stroke:none"
         d="m 306.984,151.406 c -4.406,0.973 -8.629,2.422 -12.613,4.297 V 250 v 0 -80 c 0,-8.437 5.227,-15.652 12.613,-18.594" /><path
         id="path76"
         style="fill:#404a5f;fill-opacity:1;fill-rule:nonzero;stroke:none"
         d="M 458.777,165.129 C 454.504,174.41 439.941,183.371 430,190 v 0 40 0 c 11.766,-7.844 30,-18.953 30,-30 v -30 c 0,-1.68 -0.437,-3.312 -1.223,-4.871" /><path
         id="path78"
         style="fill:#b7b7a7;fill-opacity:1;fill-rule:nonzero;stroke:none"
         d="m 430,190 c -18.398,12.266 -31.156,28.293 -40,44.621 v 40 c 8.844,-16.328 21.602,-32.355 40,-44.621 v -40" /><path
         id="path80"
         style="fill:#394051;fill-opacity:1;fill-rule:nonzero;stroke:none"
         d="m 430,150 v 0 40 c 9.941,-6.629 24.504,-15.59 28.777,-24.871 C 454.414,156.438 439.363,150 430,150" /><path
         id="path82"
         style="fill:#97978c;fill-opacity:1;fill-rule:nonzero;stroke:none"
         d="m 430,150 h -40 v 84.621 c 8.844,-16.328 21.602,-32.355 40,-44.621 v -40" /><path
         id="path84"
         style="fill:#b77744;fill-opacity:1;fill-rule:nonzero;stroke:none"
         d="m 380,257.316 c -9.953,28.329 -10,52.469 -10,52.684 v 40 0 c 0,0 0,-24.23 10,-52.684 v -40" /><path
         id="path86"
         style="fill:#394051;fill-opacity:1;fill-rule:nonzero;stroke:none"
         d="m 380,150 h -10 v 26.684 c 6.316,9.453 10,20.804 10,33.007 V 150" /><path
         id="path88"
         style="fill:#97633d;fill-opacity:1;fill-rule:nonzero;stroke:none"
         d="M 370,176.684 V 310 c 0,-0.215 0.047,-24.355 10,-52.684 v -47.625 0 c 0,-12.203 -3.684,-23.554 -10,-33.007" /><path
         id="path90"
         style="fill:#97633d;fill-opacity:1;fill-rule:nonzero;stroke:none"
         d="M 343.164,295.297 C 339.047,301.008 330.207,309.305 320,317.711 339.348,333.648 363.613,350 370,350 v -40 0 c -3.934,0 -14.656,-6.207 -26.836,-14.703" /><path
         id="path92"
         style="fill:#343945;fill-opacity:1;fill-rule:nonzero;stroke:none"
         d="m 370,150 h -24.371 v 5.703 c 9.918,4.668 18.344,11.961 24.371,20.981 V 150" /><path
         id="path94"
         style="fill:#7e5337;fill-opacity:1;fill-rule:nonzero;stroke:none"
         d="M 345.629,155.703 V 290 c 0,1.293 -0.887,3.105 -2.465,5.297 C 355.344,303.793 366.066,310 370,310 v 0 -133.316 c -6.027,-9.02 -14.453,-16.313 -24.371,-20.981" /><path
         id="path96"
         style="fill:#31333d;fill-opacity:1;fill-rule:nonzero;stroke:none"
         d="m 345.629,150 h -31.258 v 0 h 11.258 c 2.609,0 5.101,0.5 7.387,1.406 4.406,0.973 8.629,2.422 12.613,4.297 V 150" /><path
         id="path98"
         style="fill:#6b4833;fill-opacity:1;fill-rule:nonzero;stroke:none"
         d="m 333.016,151.406 c 7.386,2.942 12.613,10.157 12.613,18.594 v -14.297 c -3.984,-1.875 -8.207,-3.324 -12.613,-4.297" /><path
         id="path100"
         style="fill:#7e5337;fill-opacity:1;fill-rule:nonzero;stroke:none"
         d="m 320,277.711 c -7.426,6.117 -15.578,12.293 -23.164,17.586 4.117,5.711 12.957,14.008 23.164,22.414 10.207,-8.406 19.047,-16.703 23.164,-22.414 -7.586,-5.293 -15.738,-11.469 -23.164,-17.586" /><path
         id="path102"
         style="fill:#6b4833;fill-opacity:1;fill-rule:nonzero;stroke:none"
         d="m 294.371,250 v 40 c 0,1.293 0.887,3.105 2.465,5.297 7.586,-5.293 15.738,-11.469 23.164,-17.586 C 305.875,266.074 294.371,254.66 294.371,250" /><path
         id="path104"
         style="fill:#6b4833;fill-opacity:1;fill-rule:nonzero;stroke:none"
         d="m 345.629,170 v 80 c 0,4.66 -11.504,16.074 -25.629,27.711 7.426,6.117 15.578,12.293 23.164,17.586 1.578,-2.192 2.465,-4.004 2.465,-5.297 v -120 0" /><path
         id="path106"
         style="fill:#2d2e36;fill-opacity:1;fill-rule:nonzero;stroke:none"
         d="m 325.629,150 h -11.258 c -2.609,0 -5.101,0.5 -7.387,1.406 4.192,-0.922 8.547,-1.406 13.016,-1.406 4.469,0 8.824,0.484 13.016,1.406 C 330.73,150.5 328.238,150 325.629,150" /><path
         id="path108"
         style="fill:#5a3f2f;fill-opacity:1;fill-rule:nonzero;stroke:none"
         d="m 320,150 c -4.469,0 -8.824,0.484 -13.016,1.406 -7.386,2.942 -12.613,10.157 -12.613,18.594 v 80 c 0,4.66 11.504,16.074 25.629,27.711 14.125,-11.637 25.629,-23.051 25.629,-27.711 v -80 c 0,-8.437 -5.227,-15.652 -12.613,-18.594 C 328.824,150.484 324.469,150 320,150" /><path
         id="path110"
         style="fill:#b7b7a7;fill-opacity:1;fill-rule:nonzero;stroke:none"
         d="M 250,109.867 V 110 h 0.172 c -0.059,-0.043 -0.113,-0.09 -0.172,-0.133" /><path
         id="path112"
         style="fill:#343945;fill-opacity:1;fill-rule:nonzero;stroke:none"
         d="m 260,129.855 v 0 0 m 0,0.043 c 0,0.004 0,0.004 0,0.008 0,-0.004 0,-0.004 0,-0.008 m 0,0.043 c 0,0.004 0,0.008 0,0.012 0,-0.004 0,-0.008 0,-0.012" /><path
         id="path114"
         style="fill:#97978c;fill-opacity:1;fill-rule:nonzero;stroke:none"
         d="M 250.172,110 H 250 v 40 h 10 v -20 0 c 0,-0.016 0,-0.031 0,-0.047 0,-0.004 0,-0.008 0,-0.012 0,-0.011 0,-0.023 0,-0.035 0,-0.004 0,-0.004 0,-0.008 0,-0.015 0,-0.027 0,-0.043 v 0 c -0.047,-8.117 -3.922,-15.257 -9.828,-19.855" /><path
         id="path116"
         style="fill:#404a5f;fill-opacity:1;fill-rule:nonzero;stroke:none"
         d="m 260,464.691 c 0,0.012 0,0.024 0,0.032 0,-0.008 0,-0.02 0,-0.032 m 0,0.047 c 0,0.008 0,0.016 0,0.028 0,-0.012 0,-0.02 0,-0.028 m 0,0.047 v 0 0 m -0.023,1.074 c -0.266,6.188 -2.559,13.586 -6.2,19.914 3.629,-5.488 5.934,-13.656 6.2,-19.914" /><path
         id="path118"
         style="fill:#b7b7a7;fill-opacity:1;fill-rule:nonzero;stroke:none"
         d="M 250,274.621 V 490 c 1.375,-1.051 2.641,-2.508 3.777,-4.227 3.641,-6.328 5.934,-13.726 6.2,-19.914 0.011,-0.363 0.023,-0.722 0.023,-1.074 v 0 c 0,-0.008 0,-0.015 0,-0.019 0,-0.012 0,-0.02 0,-0.028 0,-0.004 0,-0.011 0,-0.015 0,-0.008 0,-0.02 0,-0.032 v 0 -167.375 c -2.598,-7.398 -5.871,-15.078 -10,-22.695" /><path
         id="path120"
         style="fill:#97978c;fill-opacity:1;fill-rule:nonzero;stroke:none"
         d="m 250,234.621 v 40 c 4.129,7.617 7.402,15.297 10,22.695 v -40 c -2.598,-7.398 -5.871,-15.078 -10,-22.695" /><path
         id="path122"
         style="fill:#7d7c76;fill-opacity:1;fill-rule:nonzero;stroke:none"
         d="m 260,150 h -10 v 84.621 c 4.129,7.617 7.402,15.297 10,22.695 V 150" /><path
         id="path124"
         style="fill:#b7b7a7;fill-opacity:1;fill-rule:nonzero;stroke:none"
         d="m 390,109.867 c -0.059,0.043 -0.113,0.09 -0.172,0.133 H 390 v -0.133" /><path
         id="path126"
         style="fill:#343945;fill-opacity:1;fill-rule:nonzero;stroke:none"
         d="m 380,129.852 c 0,0.003 0,0.003 0,0.007 0,-0.004 0,-0.004 0,-0.007 m 0,0.046 c 0,0.004 0,0.004 0,0.008 0,-0.004 0,-0.004 0,-0.008 m 0,0.043 c 0,0.004 0,0.008 0,0.012 0,-0.004 0,-0.008 0,-0.012" /><path
         id="path128"
         style="fill:#97978c;fill-opacity:1;fill-rule:nonzero;stroke:none"
         d="m 390,110 h -0.172 c -5.906,4.598 -9.781,11.738 -9.828,19.852 0,0.003 0,0.003 0,0.007 0,0.012 0,0.024 0,0.039 0,0.004 0,0.004 0,0.008 0,0.012 0,0.024 0,0.035 0,0.004 0,0.008 0,0.012 0,0.016 0,0.031 0,0.047 v 0 20 h 10 v -40" /><path
         id="path130"
         style="fill:#404a5f;fill-opacity:1;fill-rule:nonzero;stroke:none"
         d="m 380,464.691 c 0,0.012 0,0.024 0,0.036 0,-0.012 0,-0.024 0,-0.036 m 0,0.047 c 0,0.008 0,0.016 0,0.028 0,-0.008 0,-0.02 0,-0.028 m 0.023,1.121 c 0.266,6.258 2.571,14.426 6.2,19.914 -3.641,-6.328 -5.938,-13.73 -6.2,-19.914" /><path
         id="path132"
         style="fill:#b7b7a7;fill-opacity:1;fill-rule:nonzero;stroke:none"
         d="m 390,274.621 c -4.129,7.617 -7.402,15.297 -10,22.695 v 167.375 0 c 0,0.012 0,0.024 0,0.036 0,0.003 0,0.007 0,0.011 0,0.008 0,0.02 0,0.028 0,0.355 0.008,0.722 0.023,1.093 0.262,6.184 2.559,13.586 6.2,19.914 1.136,1.719 2.402,3.176 3.777,4.227 V 274.621" /><path
         id="path134"
         style="fill:#97978c;fill-opacity:1;fill-rule:nonzero;stroke:none"
         d="m 390,234.621 c -4.129,7.617 -7.402,15.297 -10,22.695 v 40 c 2.598,-7.398 5.871,-15.078 10,-22.695 v -40" /><path
         id="path136"
         style="fill:#7d7c76;fill-opacity:1;fill-rule:nonzero;stroke:none"
         d="m 390,150 h -10 v 107.316 c 2.598,-7.398 5.871,-15.078 10,-22.695 V 150" /><path
         id="path138"
         style="fill:#e1e3cc;fill-opacity:1;fill-rule:nonzero;stroke:none"
         d="m 345.629,150 c 0,-11.047 -8.953,-20 -20,-20 H 210 c -11.047,0 -30,8.953 -30,20 v 30 c 0,11.047 18.234,22.156 30,30 60,40 60,120 60,120 11.047,0 75.629,-48.953 75.629,-60 V 150" /><path
         id="path140"
         style="fill:#e1e3cc;fill-opacity:1;fill-rule:nonzero;stroke:none"
         d="m 294.371,150 c 0,-11.047 8.953,-20 20,-20 H 430 c 11.047,0 30,8.953 30,20 v 30 c 0,11.047 -18.234,22.156 -30,30 -60,40 -60,120 -60,120 -11.047,0 -75.629,-48.953 -75.629,-60 V 150" /><path
         id="path142"
         style="fill:#ffffff;fill-opacity:1;fill-rule:nonzero;stroke:none"
         d="M 370,115.309 C 370,101.332 347.613,90 320,90 c -27.613,0 -50,11.332 -50,25.309 V 420 c 0,13.977 22.387,70 50,70 27.613,0 50,-56.023 50,-70 V 115.309" /></g></g></svg>