<?xml version="1.0" encoding="UTF-8" standalone="no"?>
<svg
   xmlns:dc="http://purl.org/dc/elements/1.1/"
   xmlns:cc="http://creativecommons.org/ns#"
   xmlns:rdf="http://www.w3.org/1999/02/22-rdf-syntax-ns#"
   xmlns:svg="http://www.w3.org/2000/svg"
   xmlns="http://www.w3.org/2000/svg"
   viewBox="0 0 85.333336 85.333336"
   height="85.333336"
   width="85.333336"
   xml:space="preserve"
   id="svg2"
   version="1.1"><metadata
     id="metadata8"><rdf:RDF><cc:Work
         rdf:about=""><dc:format>image/svg+xml</dc:format><dc:type
           rdf:resource="http://purl.org/dc/dcmitype/StillImage" /></cc:Work></rdf:RDF></metadata><defs
     id="defs6" /><g
     transform="matrix(1.3333333,0,0,-1.3333333,0,85.333333)"
     id="g10"><g
       transform="scale(0.1)"
       id="g12"><path
         id="path14"
         style="fill:#e08e4c;fill-opacity:1;fill-rule:nonzero;stroke:none"
         d="M 640,320 C 640,143.27 496.73,0 320,0 143.27,0 0,143.27 0,320 0,496.73 143.27,640 320,640 496.73,640 640,496.73 640,320" /><path
         id="path16"
         style="fill:#b77744;fill-opacity:1;fill-rule:nonzero;stroke:none"
         d="m 330.004,80 c -4.461,0 -8.883,1.4883 -12.496,4.3828 L 172.984,200 H 120 c -11.047,0 -20,8.953 -20,20 v 160 c 0,11.047 8.953,20 20,20 h 52.984 l 144.524,115.617 c 3.613,2.895 8.035,4.383 12.496,4.383 2.941,0 5.902,-0.648 8.66,-1.973 C 345.594,514.695 350,507.688 350,500 V 100 C 350,92.3125 345.594,85.3047 338.664,81.9727 335.906,80.6484 332.945,80 330.004,80" /><path
         id="path18"
         style="fill:#b77744;fill-opacity:1;fill-rule:nonzero;stroke:none"
         d="m 389.145,244.508 c -4.657,0 -9.247,2.156 -12.18,6.222 -4.848,6.719 -3.328,16.094 3.39,20.946 9.309,6.707 14.645,17.035 14.645,28.324 0,11.289 -5.336,21.617 -14.645,28.324 -6.718,4.852 -8.238,14.227 -3.39,20.946 2.933,4.058 7.523,6.218 12.183,6.218 3.036,0 6.106,-0.918 8.758,-2.828 C 414.871,340.426 425,320.738 425,300 c 0,-20.738 -10.129,-40.426 -27.094,-52.66 -2.656,-1.914 -5.722,-2.832 -8.761,-2.832" /><path
         id="path20"
         style="fill:#b77744;fill-opacity:1;fill-rule:nonzero;stroke:none"
         d="m 389.121,179.02 c -6.586,0 -12.629,4.375 -14.453,11.035 -2.195,7.988 2.504,16.238 10.492,18.429 41.117,11.289 69.84,48.922 69.84,91.516 0,42.594 -28.723,80.227 -69.84,91.516 -7.988,2.191 -12.687,10.441 -10.492,18.429 1.828,6.66 7.879,11.032 14.461,11.032 1.312,0 2.648,-0.176 3.973,-0.539 C 447.211,405.59 485,356.063 485,300 c 0,-56.062 -37.789,-105.59 -91.898,-120.437 -1.329,-0.368 -2.668,-0.543 -3.981,-0.543" /><path
         id="path22"
         style="fill:#b77744;fill-opacity:1;fill-rule:nonzero;stroke:none"
         d="m 389.109,117.672 c -7.156,0 -13.496,5.144 -14.757,12.441 -1.414,8.164 4.054,15.926 12.218,17.336 C 460.992,160.328 515,224.48 515,300 c 0,75.52 -54.008,139.672 -128.43,152.551 -8.164,1.41 -13.632,9.172 -12.218,17.336 1.257,7.285 7.539,12.453 14.711,12.453 0.863,0 1.742,-0.074 2.625,-0.231 C 480.523,466.738 545,390.152 545,300 545,209.848 480.523,133.262 391.688,117.891 l -2.579,-0.219" /><path
         id="path24"
         style="fill:#495672;fill-opacity:1;fill-rule:nonzero;stroke:none"
         d="m 310,240 c 0,-11.047 -8.953,-20 -20,-20 H 120 c -11.047,0 -20,8.953 -20,20 v 160 c 0,11.047 8.953,20 20,20 h 170 c 11.047,0 20,-8.953 20,-20 V 240" /><path
         id="path26"
         style="fill:#495672;fill-opacity:1;fill-rule:nonzero;stroke:none"
         d="m 330,110 c -2.227,0 -4.437,0.746 -6.246,2.191 l -150,120 C 171.383,234.086 170,236.965 170,240 v 160 c 0,3.035 1.383,5.914 3.754,7.809 l 150,120 c 1.809,1.445 4.019,2.191 6.246,2.191 1.477,0 2.953,-0.328 4.332,-0.984 C 337.797,527.348 340,523.844 340,520 V 120 c 0,-3.844 -2.203,-7.348 -5.668,-9.016 C 332.953,110.328 331.477,110 330,110" /><path
         id="path28"
         style="fill:#495672;fill-opacity:1;fill-rule:nonzero;stroke:none"
         d="m 330.004,540 c -4.461,0 -8.883,-1.488 -12.496,-4.383 l -150,-120 C 162.762,411.82 160,406.074 160,400 V 240 c 0,-6.074 2.762,-11.82 7.508,-15.617 l 150,-120 c 3.613,-2.895 8.035,-4.383 12.496,-4.383 2.945,0 5.902,0.648 8.66,1.973 6.93,3.332 11.336,10.34 11.336,18.027 v 400 c 0,7.688 -4.406,14.695 -11.336,18.027 -2.758,1.325 -5.719,1.973 -8.66,1.973 z M 330,520 V 120 L 180,240 v 160 l 150,120" /><path
         id="path30"
         style="fill:#ffffff;fill-opacity:1;fill-rule:nonzero;stroke:none"
         d="m 397.902,267.344 c 16.27,11.691 27.102,30.902 27.098,52.656 0.004,21.754 -10.828,40.969 -27.098,52.66 -6.722,4.844 -16.097,3.324 -20.941,-3.398 -4.844,-6.719 -3.324,-16.094 3.398,-20.938 8.918,-6.469 14.637,-16.656 14.641,-28.324 -0.004,-11.668 -5.723,-21.855 -14.641,-28.324 -6.722,-4.844 -8.242,-14.219 -3.398,-20.938 4.844,-6.722 14.223,-8.242 20.941,-3.398" /><path
         id="path32"
         style="fill:#e1e3cc;fill-opacity:1;fill-rule:nonzero;stroke:none"
         d="M 393.098,199.563 C 446.055,214.078 484.973,262.422 485,320 c -0.027,57.578 -38.945,105.926 -91.902,120.441 -7.989,2.192 -16.243,-2.507 -18.434,-10.496 -2.191,-7.992 2.508,-16.242 10.496,-18.437 40.227,-11.051 69.867,-47.785 69.84,-91.508 0.027,-43.723 -29.613,-80.453 -69.84,-91.508 -7.988,-2.191 -12.687,-10.445 -10.496,-18.437 2.191,-7.989 10.445,-12.688 18.434,-10.496" /><path
         id="path34"
         style="fill:#f3cc70;fill-opacity:1;fill-rule:nonzero;stroke:none"
         d="M 391.688,137.891 C 478.758,152.949 544.969,228.637 545,320 c -0.031,91.363 -66.242,167.051 -153.312,182.109 -8.165,1.414 -15.926,-4.058 -17.34,-12.222 -1.41,-8.164 4.062,-15.926 12.226,-17.34 C 459.465,459.93 515.031,396.508 515,320 515.031,243.492 459.465,180.07 386.57,167.453 c -8.16,-1.414 -13.632,-9.176 -12.222,-17.34 1.414,-8.164 9.175,-13.636 17.34,-12.222" /></g></g></svg>