<?xml version="1.0" encoding="UTF-8" standalone="no"?>
<svg
   xmlns:dc="http://purl.org/dc/elements/1.1/"
   xmlns:cc="http://creativecommons.org/ns#"
   xmlns:rdf="http://www.w3.org/1999/02/22-rdf-syntax-ns#"
   xmlns:svg="http://www.w3.org/2000/svg"
   xmlns="http://www.w3.org/2000/svg"
   viewBox="0 0 85.333336 85.333336"
   height="85.333336"
   width="85.333336"
   xml:space="preserve"
   id="svg2"
   version="1.1"><metadata
     id="metadata8"><rdf:RDF><cc:Work
         rdf:about=""><dc:format>image/svg+xml</dc:format><dc:type
           rdf:resource="http://purl.org/dc/dcmitype/StillImage" /></cc:Work></rdf:RDF></metadata><defs
     id="defs6" /><g
     transform="matrix(1.3333333,0,0,-1.3333333,0,85.333333)"
     id="g10"><g
       transform="scale(0.1)"
       id="g12"><path
         id="path14"
         style="fill:#495672;fill-opacity:1;fill-rule:nonzero;stroke:none"
         d="M 640,320 C 640,143.27 496.73,0 320,0 143.27,0 0,143.27 0,320 0,496.73 143.27,640 320,640 496.73,640 640,496.73 640,320" /><path
         id="path16"
         style="fill:#e1e3cc;fill-opacity:1;fill-rule:nonzero;stroke:none"
         d="m 477.191,234.145 c 2.297,3.691 6.028,6.14 10.149,7.406 4.25,1.172 9.293,0.953 13.98,-1.184 l 25.45,-11.672 c 4.691,-2.14 7.988,-6.144 9.418,-11.09 1.574,-4.996 0.863,-10.714 -2.227,-15.796 -3,-5.125 -7.5,-8.7 -12.305,-10.079 -5.043,-1.242 -10.207,-0.421 -14.437,2.52 l -23.028,15.934 c -4.23,2.937 -6.953,7.136 -8.043,11.347 -1.308,4.379 -1.168,8.879 1.043,12.614" /><path
         id="path18"
         style="fill:#e1e3cc;fill-opacity:1;fill-rule:nonzero;stroke:none"
         d="m 164.457,232.117 c 4.613,-7.195 1.379,-18.137 -6.703,-24.086 l -22.828,-16.215 c -8.528,-6.257 -20.434,-2.949 -26.813,7.227 -6.109,10.332 -2.375,22.797 6.864,26.992 l 25.293,12.016 c 9.519,4.355 19.82,1.406 24.187,-5.934" /><path
         id="path20"
         style="fill:#e1e3cc;fill-opacity:1;fill-rule:nonzero;stroke:none"
         d="m 139.703,322.184 c 0.059,-8.543 -7.348,-16.336 -17.738,-17.457 l -27.883,-2.59 c -10.1015,-1.117 -19.625,7.699 -19.7109,19.691 0.3086,11.996 9.0156,20.91 19.2773,19.914 l 27.9066,-2.262 c 10.261,-0.992 18.461,-8.742 18.148,-17.296" /><path
         id="path22"
         style="fill:#e1e3cc;fill-opacity:1;fill-rule:nonzero;stroke:none"
         d="m 163.355,412.613 c -2.296,-3.691 -6.027,-6.14 -10.148,-7.406 -4.25,-1.172 -9.289,-0.953 -13.98,1.184 l -25.45,11.672 c -4.687,2.14 -7.988,6.144 -9.418,11.089 -1.574,4.996 -0.863,10.715 2.227,15.797 3.004,5.125 7.5,8.699 12.305,10.074 5.043,1.247 10.207,0.422 14.437,-2.515 l 23.027,-15.934 c 4.231,-2.941 6.954,-7.136 8.043,-11.351 1.313,-4.375 1.168,-8.879 -1.043,-12.61" /><path
         id="path24"
         style="fill:#e1e3cc;fill-opacity:1;fill-rule:nonzero;stroke:none"
         d="m 229.016,479.195 c -7.2,-4.613 -18.141,-1.379 -24.086,6.703 l -16.219,22.829 c -6.258,8.527 -2.949,20.433 7.23,26.808 10.329,6.113 22.793,2.379 26.989,-6.859 l 12.015,-25.293 c 4.356,-9.52 1.407,-19.82 -5.929,-24.188" /><path
         id="path26"
         style="fill:#e1e3cc;fill-opacity:1;fill-rule:nonzero;stroke:none"
         d="m 319.078,503.949 c -8.543,-0.058 -16.336,7.348 -17.457,17.739 l -2.59,27.882 c -1.117,10.102 7.699,19.625 19.692,19.711 11.996,-0.308 20.91,-9.015 19.914,-19.277 l -2.262,-27.906 c -0.992,-10.262 -8.742,-18.461 -17.297,-18.149" /><path
         id="path28"
         style="fill:#e1e3cc;fill-opacity:1;fill-rule:nonzero;stroke:none"
         d="m 409.508,480.297 c -3.692,2.297 -6.141,6.027 -7.406,10.148 -1.172,4.25 -0.954,9.289 1.183,13.981 l 11.676,25.449 c 2.137,4.691 6.141,7.988 11.086,9.418 5,1.574 10.715,0.863 15.797,-2.227 5.125,-3.003 8.699,-7.5 10.078,-12.304 1.242,-5.043 0.422,-10.207 -2.52,-14.438 l -15.933,-23.027 c -2.942,-4.231 -7.137,-6.953 -11.352,-8.043 -4.375,-1.313 -8.879,-1.168 -12.609,1.043" /><path
         id="path30"
         style="fill:#e1e3cc;fill-opacity:1;fill-rule:nonzero;stroke:none"
         d="m 476.09,414.637 c -4.613,7.199 -1.379,18.14 6.707,24.086 l 22.824,16.218 c 8.527,6.258 20.434,2.95 26.813,-7.226 6.109,-10.332 2.375,-22.797 -6.864,-26.992 l -25.293,-12.016 c -9.515,-4.355 -19.82,-1.406 -24.187,5.93" /><path
         id="path32"
         style="fill:#e1e3cc;fill-opacity:1;fill-rule:nonzero;stroke:none"
         d="m 500.848,324.574 c -0.063,8.543 7.343,16.336 17.738,17.457 l 27.879,2.59 c 10.101,1.117 19.625,-7.699 19.715,-19.691 -0.313,-11.996 -9.02,-20.91 -19.282,-19.914 l -27.906,2.261 c -10.262,0.993 -18.461,8.743 -18.144,17.297" /><path
         id="path34"
         style="fill:#404a5f;fill-opacity:1;fill-rule:nonzero;stroke:none"
         d="m 320,250 c -1.121,0 -2.168,0.258 -3.27,0.328 -24.953,1.645 -44.746,21.434 -46.398,46.383 -0.074,1.105 -0.332,2.16 -0.332,3.289 0,27.613 22.387,50 50,50 1.117,0 2.168,-0.258 3.27,-0.328 l 0.003,0.004 31.079,19.375 46.523,29.051 c 2.008,1.269 4.289,1.89 6.57,1.89 3.235,0 6.461,-1.25 8.879,-3.668 4.153,-4.097 4.875,-10.5 1.778,-15.449 l -29.051,-46.551 -19.375,-31.051 -0.004,-0.003 c 0.07,-1.102 0.328,-2.153 0.328,-3.27 0,-27.613 -22.387,-50 -50,-50" /><path
         id="path36"
         style="fill:#c84755;fill-opacity:1;fill-rule:nonzero;stroke:none"
         d="m 416.324,416.324 c -4.125,4.125 -10.597,4.852 -15.449,1.778 l -46.523,-29.051 -31.079,-19.375 -0.003,-0.004 c -1.102,0.07 -2.153,0.328 -3.27,0.328 -27.613,0 -50,-22.387 -50,-50 0,-1.129 0.258,-2.184 0.332,-3.289 1.652,-24.949 21.445,-44.738 46.398,-46.383 1.102,-0.07 2.149,-0.328 3.27,-0.328 27.613,0 50,22.387 50,50 0,1.117 -0.258,2.168 -0.328,3.27 l 0.004,0.003 19.375,31.051 29.051,46.551 c 3.097,4.949 2.375,11.352 -1.778,15.449" /><path
         id="path38"
         style="fill:#ffffff;fill-opacity:1;fill-rule:nonzero;stroke:none"
         d="m 370,320 c 0,-27.613 -22.387,-50 -50,-50 -27.613,0 -50,22.387 -50,50 0,27.613 22.387,50 50,50 27.613,0 50,-22.387 50,-50" /><path
         id="path40"
         style="fill:#f3cc70;fill-opacity:1;fill-rule:nonzero;stroke:none"
         d="m 400,150 c 0,-16.57 -13.43,-30 -30,-30 H 270 c -16.57,0 -30,13.43 -30,30 v 20 c 0,16.57 13.43,30 30,30 h 100 c 16.57,0 30,-13.43 30,-30 v -20" /></g></g></svg>