<?xml version="1.0" encoding="UTF-8" standalone="no"?>
<svg
   xmlns:dc="http://purl.org/dc/elements/1.1/"
   xmlns:cc="http://creativecommons.org/ns#"
   xmlns:rdf="http://www.w3.org/1999/02/22-rdf-syntax-ns#"
   xmlns:svg="http://www.w3.org/2000/svg"
   xmlns="http://www.w3.org/2000/svg"
   viewBox="0 0 85.333336 85.333336"
   height="85.333336"
   width="85.333336"
   xml:space="preserve"
   id="svg2"
   version="1.1"><metadata
     id="metadata8"><rdf:RDF><cc:Work
         rdf:about=""><dc:format>image/svg+xml</dc:format><dc:type
           rdf:resource="http://purl.org/dc/dcmitype/StillImage" /></cc:Work></rdf:RDF></metadata><defs
     id="defs6" /><g
     transform="matrix(1.3333333,0,0,-1.3333333,0,85.333333)"
     id="g10"><g
       transform="scale(0.1)"
       id="g12"><path
         id="path14"
         style="fill:#e08e4c;fill-opacity:1;fill-rule:nonzero;stroke:none"
         d="M 640,320 C 640,143.27 496.73,0 320,0 143.27,0 0,143.27 0,320 0,496.73 143.27,640 320,640 496.73,640 640,496.73 640,320" /><path
         id="path16"
         style="fill:#b77744;fill-opacity:1;fill-rule:nonzero;stroke:none"
         d="M 399.754,396.316 C 396.227,398.645 392.02,400 387.5,400 h -135 c -4.52,0 -8.727,-1.355 -12.254,-3.684 C 243.465,437.547 277.941,470 320,470 c 42.059,0 76.535,-32.453 79.754,-73.684" /><path
         id="path18"
         style="fill:#b77744;fill-opacity:1;fill-rule:nonzero;stroke:none"
         d="m 387.5,80 h -135 C 240.074,80 230,90.2344 230,102.855 v 274.29 c 0,8.031 4.078,15.093 10.246,19.171 C 240.082,394.23 240,392.125 240,390 c 0,-44.184 35.816,-80 80,-80 44.184,0 80,35.816 80,80 0,2.125 -0.082,4.23 -0.246,6.316 C 405.922,392.238 410,385.176 410,377.145 V 102.855 C 410,90.2344 399.926,80 387.5,80" /><path
         id="path20"
         style="fill:#97633d;fill-opacity:1;fill-rule:nonzero;stroke:none"
         d="m 320,310 c -44.184,0 -80,35.816 -80,80 0,2.125 0.082,4.23 0.246,6.316 3.527,2.329 7.734,3.684 12.254,3.684 h 135 c 4.52,0 8.727,-1.355 12.254,-3.684 0.164,-2.086 0.246,-4.191 0.246,-6.316 0,-44.184 -35.816,-80 -80,-80" /><path
         id="path22"
         style="fill:#b77744;fill-opacity:1;fill-rule:nonzero;stroke:none"
         d="m 305,500 h 30 v 30 h -30 z" /><path
         id="path24"
         style="fill:#e1e3cc;fill-opacity:1;fill-rule:nonzero;stroke:none"
         d="m 400,410 c 0,-44.184 -35.816,-80 -80,-80 -44.184,0 -80,35.816 -80,80 0,44.184 35.816,80 80,80 44.184,0 80,-35.816 80,-80" /><path
         id="path26"
         style="fill:#ffffff;fill-opacity:1;fill-rule:nonzero;stroke:none"
         d="M 410,122.855 C 410,110.234 399.926,100 387.5,100 h -135 c -12.426,0 -22.5,10.234 -22.5,22.855 v 274.29 C 230,409.766 240.074,420 252.5,420 h 135 c 12.426,0 22.5,-10.234 22.5,-22.855 v -274.29" /><path
         id="path28"
         style="fill:#ffffff;fill-opacity:1;fill-rule:nonzero;stroke:none"
         d="m 335,510 h -30 v 30 h 30 v -30" /><path
         id="path30"
         style="fill:#c84755;fill-opacity:1;fill-rule:nonzero;stroke:none"
         d="M 380.098,270.098 C 380.098,236.906 353.191,210 320,210 c -33.191,0 -60.098,26.906 -60.098,60.098 0,33.191 26.907,60.097 60.098,60.097 33.191,0 60.098,-26.906 60.098,-60.097" /></g></g></svg>