<?xml version="1.0" encoding="UTF-8" standalone="no"?>
<svg
   xmlns:dc="http://purl.org/dc/elements/1.1/"
   xmlns:cc="http://creativecommons.org/ns#"
   xmlns:rdf="http://www.w3.org/1999/02/22-rdf-syntax-ns#"
   xmlns:svg="http://www.w3.org/2000/svg"
   xmlns="http://www.w3.org/2000/svg"
   viewBox="0 0 85.333336 85.333336"
   height="85.333336"
   width="85.333336"
   xml:space="preserve"
   id="svg2"
   version="1.1"><metadata
     id="metadata8"><rdf:RDF><cc:Work
         rdf:about=""><dc:format>image/svg+xml</dc:format><dc:type
           rdf:resource="http://purl.org/dc/dcmitype/StillImage" /></cc:Work></rdf:RDF></metadata><defs
     id="defs6" /><g
     transform="matrix(1.3333333,0,0,-1.3333333,0,85.333333)"
     id="g10"><g
       transform="scale(0.1)"
       id="g12"><path
         id="path14"
         style="fill:#e1e3cc;fill-opacity:1;fill-rule:nonzero;stroke:none"
         d="M 640,320 C 640,143.27 496.73,0 320,0 143.27,0 0,143.27 0,320 0,496.73 143.27,640 320,640 496.73,640 640,496.73 640,320" /><path
         id="path16"
         style="fill:#b7b7a7;fill-opacity:1;fill-rule:nonzero;stroke:none"
         d="m 320,100 c -6.344,0 -12.684,1.453 -17.523,4.355 L 127.258,209.488 c -9.399,5.637 -9.668,14.676 -0.817,20.512 0.262,-0.176 0.536,-0.344 0.817,-0.512 L 302.477,124.355 C 307.316,121.453 313.656,120 320,120 c 6.344,0 12.684,1.453 17.523,4.355 l 175.219,105.133 c 0.281,0.168 0.555,0.336 0.817,0.512 8.851,-5.836 8.582,-14.875 -0.817,-20.512 L 337.523,104.355 C 332.684,101.453 326.344,100 320,100" /><path
         id="path18"
         style="fill:#c84755;fill-opacity:1;fill-rule:nonzero;stroke:none"
         d="m 337.523,124.355 c -9.679,-5.804 -25.367,-5.804 -35.046,0 L 127.258,229.488 c -9.676,5.805 -9.676,15.219 0,21.024 l 175.219,105.133 c 9.679,5.804 25.367,5.804 35.046,0 L 512.742,250.512 c 9.676,-5.805 9.676,-15.219 0,-21.024 L 337.523,124.355" /><path
         id="path20"
         style="fill:#b7b7a7;fill-opacity:1;fill-rule:nonzero;stroke:none"
         d="m 480.266,270 -16.668,10 49.144,29.488 c 0.281,0.168 0.555,0.336 0.817,0.512 8.851,-5.836 8.582,-14.875 -0.817,-20.512 L 480.266,270 m -320.532,0 -32.476,19.488 c -9.399,5.637 -9.668,14.676 -0.817,20.512 0.262,-0.176 0.536,-0.344 0.817,-0.512 L 176.402,280 159.734,270" /><path
         id="path22"
         style="fill:#a43f4a;fill-opacity:1;fill-rule:nonzero;stroke:none"
         d="m 320,180 c -6.344,0 -12.684,1.453 -17.523,4.355 L 159.734,270 176.402,280 302.477,204.355 C 307.316,201.453 313.656,200 320,200 c 6.344,0 12.684,1.453 17.523,4.355 L 463.598,280 480.266,270 337.523,184.355 C 332.684,181.453 326.344,180 320,180" /><path
         id="path24"
         style="fill:#77caa9;fill-opacity:1;fill-rule:nonzero;stroke:none"
         d="m 337.523,204.355 c -9.679,-5.804 -25.367,-5.804 -35.046,0 L 127.258,309.488 c -9.676,5.805 -9.676,15.219 0,21.024 l 175.219,105.133 c 9.679,5.804 25.367,5.804 35.046,0 L 512.742,330.512 c 9.676,-5.805 9.676,-15.219 0,-21.024 L 337.523,204.355" /><path
         id="path26"
         style="fill:#b7b7a7;fill-opacity:1;fill-rule:nonzero;stroke:none"
         d="M 480.266,350 337.523,435.645 C 332.684,438.547 326.344,440 320,440 c -6.344,0 -12.684,-1.453 -17.523,-4.355 L 159.734,350 127.258,369.488 c -9.676,5.805 -9.676,15.219 0,21.024 l 175.219,105.133 c 4.839,2.902 11.179,4.355 17.523,4.355 6.344,0 12.684,-1.453 17.523,-4.355 L 512.742,390.512 c 9.676,-5.805 9.676,-15.219 0,-21.024 L 480.266,350" /><path
         id="path28"
         style="fill:#62a48d;fill-opacity:1;fill-rule:nonzero;stroke:none"
         d="m 320,260 c -6.344,0 -12.684,1.453 -17.523,4.355 L 159.734,350 302.477,435.645 c 4.839,2.902 11.179,4.355 17.523,4.355 6.344,0 12.684,-1.453 17.523,-4.355 L 480.266,350 337.523,264.355 C 332.684,261.453 326.344,260 320,260" /><path
         id="path30"
         style="fill:#495672;fill-opacity:1;fill-rule:nonzero;stroke:none"
         d="m 337.523,284.355 c -9.679,-5.804 -25.367,-5.804 -35.046,0 L 127.258,389.488 c -9.676,5.805 -9.676,15.219 0,21.024 l 175.219,105.133 c 9.679,5.804 25.367,5.804 35.046,0 L 512.742,410.512 c 9.676,-5.805 9.676,-15.219 0,-21.024 L 337.523,284.355" /></g></g></svg>