<?xml version="1.0" encoding="UTF-8" standalone="no"?>
<svg
   xmlns:dc="http://purl.org/dc/elements/1.1/"
   xmlns:cc="http://creativecommons.org/ns#"
   xmlns:rdf="http://www.w3.org/1999/02/22-rdf-syntax-ns#"
   xmlns:svg="http://www.w3.org/2000/svg"
   xmlns="http://www.w3.org/2000/svg"
   viewBox="0 0 85.333336 85.333336"
   height="85.333336"
   width="85.333336"
   xml:space="preserve"
   id="svg2"
   version="1.1"><metadata
     id="metadata8"><rdf:RDF><cc:Work
         rdf:about=""><dc:format>image/svg+xml</dc:format><dc:type
           rdf:resource="http://purl.org/dc/dcmitype/StillImage" /></cc:Work></rdf:RDF></metadata><defs
     id="defs6" /><g
     transform="matrix(1.3333333,0,0,-1.3333333,0,85.333333)"
     id="g10"><g
       transform="scale(0.1)"
       id="g12"><path
         id="path14"
         style="fill:#c84755;fill-opacity:1;fill-rule:nonzero;stroke:none"
         d="M 640,320 C 640,143.27 496.73,0 320,0 143.27,0 0,143.27 0,320 0,496.73 143.27,640 320,640 496.73,640 640,496.73 640,320" /><path
         id="path16"
         style="fill:#a43f4a;fill-opacity:1;fill-rule:nonzero;stroke:none"
         d="m 433.531,108.984 c -4.179,0 -8.383,1 -12.222,3.024 L 319.996,165.281 218.68,112.008 c -3.836,-2.024 -8.043,-3.024 -12.219,-3.024 -5.469,0 -10.883,1.684 -15.43,5.024 -8.093,5.887 -12.14,15.847 -10.461,25.703 l 19.344,112.824 -81.973,79.895 c -7.171,6.992 -9.75,17.425 -6.648,26.941 3.074,9.512 11.301,16.449 21.211,17.895 l 113.273,16.453 50.645,102.629 c 4.441,8.988 13.558,14.668 23.574,14.668 10.012,0 19.133,-5.68 23.574,-14.668 l 50.668,-102.629 113.274,-16.453 c 9.883,-1.446 18.109,-8.383 21.211,-17.895 3.074,-9.516 0.5,-19.976 -6.649,-26.941 l -81.972,-79.895 19.343,-112.824 c 1.68,-9.856 -2.367,-19.816 -10.461,-25.703 -4.574,-3.34 -10.011,-5.024 -15.453,-5.024" /><path
         id="path18"
         style="fill:#f3cc70;fill-opacity:1;fill-rule:nonzero;stroke:none"
         d="m 528.723,379.371 c -3.102,9.512 -11.328,16.449 -21.211,17.895 L 394.238,413.719 343.57,516.348 c -4.441,8.988 -13.562,14.668 -23.574,14.668 -10.016,0 -19.133,-5.68 -23.574,-14.668 L 245.777,413.719 132.504,397.266 c -9.91,-1.446 -18.137,-8.383 -21.211,-17.895 -3.102,-9.516 -0.523,-19.949 6.648,-26.941 L 199.914,272.535 180.57,159.711 c -1.679,-9.856 2.368,-19.816 10.461,-25.703 4.547,-3.34 9.961,-5.024 15.43,-5.024 4.176,0 8.383,1 12.219,3.024 l 101.316,53.273 101.313,-53.273 c 3.839,-2.024 8.043,-3.024 12.222,-3.024 5.442,0 10.879,1.684 15.453,5.024 8.094,5.887 12.141,15.847 10.461,25.703 l -19.343,112.824 81.972,79.895 c 7.149,6.965 9.723,17.425 6.649,26.941" /></g></g></svg>