<?xml version="1.0" encoding="UTF-8" standalone="no"?>
<svg
   xmlns:dc="http://purl.org/dc/elements/1.1/"
   xmlns:cc="http://creativecommons.org/ns#"
   xmlns:rdf="http://www.w3.org/1999/02/22-rdf-syntax-ns#"
   xmlns:svg="http://www.w3.org/2000/svg"
   xmlns="http://www.w3.org/2000/svg"
   viewBox="0 0 85.333336 85.333336"
   height="85.333336"
   width="85.333336"
   xml:space="preserve"
   id="svg2"
   version="1.1"><metadata
     id="metadata8"><rdf:RDF><cc:Work
         rdf:about=""><dc:format>image/svg+xml</dc:format><dc:type
           rdf:resource="http://purl.org/dc/dcmitype/StillImage" /></cc:Work></rdf:RDF></metadata><defs
     id="defs6" /><g
     transform="matrix(1.3333333,0,0,-1.3333333,0,85.333333)"
     id="g10"><g
       transform="scale(0.1)"
       id="g12"><path
         id="path14"
         style="fill:#7db6d8;fill-opacity:1;fill-rule:nonzero;stroke:none"
         d="M 640,320 C 640,143.27 496.73,0 320,0 143.27,0 0,143.27 0,320 0,496.73 143.27,640 320,640 496.73,640 640,496.73 640,320" /><path
         id="path16"
         style="fill:#6594b2;fill-opacity:1;fill-rule:nonzero;stroke:none"
         d="m 280,167.59 v 44.82 C 280,244.215 254.219,270 222.41,270 l -72.34,-6.902 c -2.359,9.566 -3.929,19.453 -4.64,29.558 L 222.41,300 C 254.219,300 280,274.215 280,242.41 v -74.82 0 m 80,44.82 v 30 c 0,31.805 25.781,57.59 57.59,57.59 l 76.98,-7.344 c -0.711,-10.105 -2.281,-19.992 -4.64,-29.558 L 417.59,270 C 385.781,270 360,244.215 360,212.41" /><path
         id="path18"
         style="fill:#495672;fill-opacity:1;fill-rule:nonzero;stroke:none"
         d="m 120,360 c -11.996,0 0.023,20.371 -11.367,20.988 C 103.051,361.617 100,341.168 100,320 c 0,-7.566 0.383,-15.047 1.129,-22.418 5.219,1.555 10.734,-7.582 16.461,-7.582 l 104.82,10 C 254.219,300 280,274.215 280,242.41 V 167.59 C 280,143.063 264.641,122.172 243.035,113.871 266.996,104.922 292.918,100 320,100 c 27.082,0 53.004,4.922 76.965,13.871 C 375.359,122.172 360,143.063 360,167.59 v 74.82 c 0,31.805 25.781,57.59 57.59,57.59 l 104.82,-10 c 5.727,0 11.242,9.137 16.461,7.582 0.742,7.371 1.129,14.852 1.129,22.418 0,21.168 -3.051,41.617 -8.633,60.988 C 519.977,380.371 531.996,360 520,360 c 0,0 -120,20 -200,20 -80,0 -200,-20 -200,-20" /><path
         id="path20"
         style="fill:#404a5f;fill-opacity:1;fill-rule:nonzero;stroke:none"
         d="m 320,280 c -16.57,0 -30,13.43 -30,30 0,16.57 13.43,30 30,30 16.57,0 30,-13.43 30,-30 0,-16.57 -13.43,-30 -30,-30" /><path
         id="path22"
         style="fill:#77caa9;fill-opacity:1;fill-rule:nonzero;stroke:none"
         d="m 350,320 c 0,-16.57 -13.43,-30 -30,-30 -16.57,0 -30,13.43 -30,30 0,16.57 13.43,30 30,30 16.57,0 30,-13.43 30,-30" /><path
         id="path24"
         style="fill:#6594b2;fill-opacity:1;fill-rule:nonzero;stroke:none"
         d="m 320,80 c -121.504,0 -220,98.496 -220,220 0,3.352 0.074,6.695 0.223,10.012 0.187,-4.176 0.492,-8.321 0.906,-12.43 0.41,0.121 0.82,0.18 1.234,0.18 4.852,0 9.95,-7.762 15.227,-7.762 l 5.519,0.527 c 3.016,-9.629 5.743,-19.324 7.668,-29.269 l 19.293,1.84 C 165.004,202.535 211.563,154.285 271.148,136.938 264.559,126.516 254.707,118.355 243.035,113.871 266.996,104.922 292.918,100 320,100 c 27.082,0 53.004,4.922 76.965,13.871 -11.672,4.484 -21.524,12.645 -28.113,23.067 59.586,17.347 106.144,65.597 121.078,126.16 l 19.48,-1.86 v 0.012 c 1.094,10.148 3.856,19.75 6.613,29.359 L 522.41,290 c 5.278,0 10.375,7.762 15.227,7.762 0.414,0 0.824,-0.059 1.234,-0.18 0.414,4.109 0.719,8.254 0.906,12.43 C 539.926,306.695 540,303.352 540,300 540,178.496 441.504,80 320,80 m 200,280 c 0,0 -14.059,2.344 -35.754,5.426 C 459.594,432.234 395.27,480 320,480 244.73,480 180.41,432.234 155.754,365.426 134.059,362.344 120,360 120,360 c -8.633,0 -4.828,10.551 -6.262,16.695 C 144.867,460.387 225.469,520 320,520 414.531,520 495.133,460.387 526.262,376.695 524.828,370.551 528.633,360 520,360" /><path
         id="path26"
         style="fill:#567a95;fill-opacity:1;fill-rule:nonzero;stroke:none"
         d="m 509.41,261.238 -19.48,1.86 c 2.359,9.566 3.929,19.453 4.64,29.558 l 21.453,-2.047 C 513.266,281 510.504,271.398 509.41,261.25 v -0.012 m -378.633,0.02 c -1.925,9.945 -4.652,19.64 -7.668,29.269 l 22.321,2.129 c 0.711,-10.105 2.281,-19.992 4.64,-29.558 l -19.293,-1.84" /><path
         id="path28"
         style="fill:#404a5f;fill-opacity:1;fill-rule:nonzero;stroke:none"
         d="m 320,100 c -27.082,0 -53.004,4.922 -76.965,13.871 11.672,4.484 21.524,12.645 28.113,23.067 C 286.66,132.422 303.051,130 320,130 c 16.949,0 33.34,2.422 48.852,6.938 6.589,-10.422 16.441,-18.583 28.113,-23.067 C 373.004,104.922 347.082,100 320,100 m 202.41,190 -6.387,0.609 -21.453,2.047 c 0.285,4.082 0.43,8.192 0.43,12.344 0,21.227 -3.801,41.582 -10.754,60.426 C 505.941,362.344 520,360 520,360 c 8.633,0 4.828,10.551 6.262,16.695 7.777,-20.91 12.468,-43.324 13.515,-66.683 -0.187,-4.176 -0.492,-8.321 -0.906,-12.43 -0.41,0.121 -0.82,0.18 -1.234,0.18 -4.852,0 -9.949,-7.762 -15.227,-7.762 m -404.82,0 c -5.277,0 -10.375,7.762 -15.227,7.762 -0.414,0 -0.824,-0.059 -1.234,-0.18 -0.414,4.109 -0.719,8.254 -0.906,12.43 1.047,23.359 5.738,45.773 13.515,66.683 C 115.172,370.551 111.367,360 120,360 c 0,0 14.059,2.344 35.754,5.426 C 148.801,346.582 145,326.227 145,305 c 0,-4.152 0.145,-8.262 0.43,-12.344 L 123.109,290.527 117.59,290" /><path
         id="path30"
         style="fill:#495672;fill-opacity:1;fill-rule:nonzero;stroke:none"
         d="m 320,540 c -121.504,0 -220,-98.496 -220,-220 0,-121.504 98.496,-220 220,-220 121.504,0 220,98.496 220,220 0,121.504 -98.496,220 -220,220 z m 0,-40 c 99.254,0 180,-80.746 180,-180 0,-99.254 -80.746,-180 -180,-180 -99.254,0 -180,80.746 -180,180 0,99.254 80.746,180 180,180" /></g></g></svg>