<?xml version="1.0" encoding="UTF-8" standalone="no"?>
<svg
   xmlns:dc="http://purl.org/dc/elements/1.1/"
   xmlns:cc="http://creativecommons.org/ns#"
   xmlns:rdf="http://www.w3.org/1999/02/22-rdf-syntax-ns#"
   xmlns:svg="http://www.w3.org/2000/svg"
   xmlns="http://www.w3.org/2000/svg"
   viewBox="0 0 85.333336 85.333336"
   height="85.333336"
   width="85.333336"
   xml:space="preserve"
   id="svg2"
   version="1.1"><metadata
     id="metadata8"><rdf:RDF><cc:Work
         rdf:about=""><dc:format>image/svg+xml</dc:format><dc:type
           rdf:resource="http://purl.org/dc/dcmitype/StillImage" /></cc:Work></rdf:RDF></metadata><defs
     id="defs6" /><g
     transform="matrix(1.3333333,0,0,-1.3333333,0,85.333333)"
     id="g10"><g
       transform="scale(0.1)"
       id="g12"><path
         id="path14"
         style="fill:#495672;fill-opacity:1;fill-rule:nonzero;stroke:none"
         d="M 640,320 C 640,143.27 496.73,0 320,0 143.27,0 0,143.27 0,320 0,496.73 143.27,640 320,640 496.73,640 640,496.73 640,320" /><path
         id="path16"
         style="fill:#404a5f;fill-opacity:1;fill-rule:nonzero;stroke:none"
         d="M 376.984,90 H 263.016 c -16.5,0 -39.547,9.5469 -51.215,21.215 l -80.586,80.586 C 119.547,203.469 110,226.516 110,243.016 v 113.968 c 0,16.5 9.547,39.547 21.215,51.215 l 80.586,80.586 C 223.469,500.453 246.516,510 263.016,510 h 113.968 c 16.5,0 39.547,-9.547 51.215,-21.215 l 80.586,-80.586 C 520.453,396.531 530,373.484 530,356.984 V 243.016 c 0,-16.5 -9.547,-39.547 -21.215,-51.215 L 428.199,111.215 C 416.531,99.5469 393.484,90 376.984,90" /><path
         id="path18"
         style="fill:#c84755;fill-opacity:1;fill-rule:nonzero;stroke:none"
         d="m 263.016,110 c -16.5,0 -39.547,9.547 -51.215,21.215 l -80.586,80.586 C 119.547,223.469 110,246.516 110,263.016 v 113.968 c 0,16.5 9.547,39.547 21.215,51.215 l 80.586,80.586 C 223.469,520.453 246.516,530 263.016,530 h 113.968 c 16.5,0 39.547,-9.547 51.215,-21.215 l 80.586,-80.586 C 520.453,416.531 530,393.484 530,376.984 V 263.016 c 0,-16.5 -9.547,-39.547 -21.215,-51.215 L 428.199,131.215 C 416.531,119.547 393.484,110 376.984,110 H 263.016" /><path
         id="path20"
         style="fill:#ffffff;fill-opacity:1;fill-rule:nonzero;stroke:none"
         d="m 450,300 c 0,-22.09 -17.91,-40 -40,-40 H 230 c -22.09,0 -40,17.91 -40,40 v 40 c 0,22.09 17.91,40 40,40 h 180 c 22.09,0 40,-17.91 40,-40 v -40" /></g></g></svg>