<?xml version="1.0" encoding="UTF-8" standalone="no"?>
<svg
   xmlns:dc="http://purl.org/dc/elements/1.1/"
   xmlns:cc="http://creativecommons.org/ns#"
   xmlns:rdf="http://www.w3.org/1999/02/22-rdf-syntax-ns#"
   xmlns:svg="http://www.w3.org/2000/svg"
   xmlns="http://www.w3.org/2000/svg"
   viewBox="0 0 85.333336 85.333336"
   height="85.333336"
   width="85.333336"
   xml:space="preserve"
   id="svg2"
   version="1.1"><metadata
     id="metadata8"><rdf:RDF><cc:Work
         rdf:about=""><dc:format>image/svg+xml</dc:format><dc:type
           rdf:resource="http://purl.org/dc/dcmitype/StillImage" /></cc:Work></rdf:RDF></metadata><defs
     id="defs6" /><g
     transform="matrix(1.3333333,0,0,-1.3333333,0,85.333333)"
     id="g10"><g
       transform="scale(0.1)"
       id="g12"><path
         id="path14"
         style="fill:#e08e4c;fill-opacity:1;fill-rule:nonzero;stroke:none"
         d="M 640,320 C 640,143.27 496.73,0 320,0 143.27,0 0,143.27 0,320 0,496.73 143.27,640 320,640 496.73,640 640,496.73 640,320" /><path
         id="path16"
         style="fill:#b77744;fill-opacity:1;fill-rule:nonzero;stroke:none"
         d="M 440,90 H 200 c -11.047,0 -20,8.9531 -20,20 v 380 0 -360 c 0,-11.047 8.953,-20 20,-20 h 240 c 11.047,0 20,8.953 20,20 v -20 c 0,-11.0469 -8.953,-20 -20,-20" /><path
         id="path18"
         style="fill:#f3cc70;fill-opacity:1;fill-rule:nonzero;stroke:none"
         d="m 460,130 c 0,-11.047 -8.953,-20 -20,-20 H 200 c -11.047,0 -20,8.953 -20,20 v 380 c 0,11.047 8.953,20 20,20 h 240 c 11.047,0 20,-8.953 20,-20 V 130" /><path
         id="path20"
         style="fill:#495672;fill-opacity:1;fill-rule:nonzero;stroke:none"
         d="m 425,245 c 0,-57.988 -47.012,-105 -105,-105 -57.988,0 -105,47.012 -105,105 0,57.988 47.012,105 105,105 57.988,0 105,-47.012 105,-105" /><path
         id="path22"
         style="fill:#404a5f;fill-opacity:1;fill-rule:nonzero;stroke:none"
         d="m 424.496,235 c -5.043,53.297 -49.883,95 -104.496,95 -54.613,0 -99.453,-41.703 -104.496,-95 -0.313,3.297 -0.504,6.625 -0.504,10 v 0 c 0,57.988 47.012,105 105,105 57.988,0 105,-47.012 105,-105 v 0 c 0,-3.375 -0.191,-6.703 -0.504,-10" /><path
         id="path24"
         style="fill:#495672;fill-opacity:1;fill-rule:nonzero;stroke:none"
         d="m 385,435 c 0,-35.898 -29.102,-65 -65,-65 -35.898,0 -65,29.102 -65,65 0,35.898 29.102,65 65,65 35.898,0 65,-29.102 65,-65" /><path
         id="path26"
         style="fill:#404a5f;fill-opacity:1;fill-rule:nonzero;stroke:none"
         d="m 320,197.223 c -13.5,0 -24.445,10.945 -24.445,24.445 0,13.5 10.945,24.441 24.445,24.441 13.5,0 24.445,-10.941 24.445,-24.441 0,-13.5 -10.945,-24.445 -24.445,-24.445" /><path
         id="path28"
         style="fill:#404a5f;fill-opacity:1;fill-rule:nonzero;stroke:none"
         d="m 320,392.727 c -13.055,0 -23.637,10.582 -23.637,23.636 0,13.055 10.582,23.637 23.637,23.637 13.055,0 23.637,-10.582 23.637,-23.637 0,-13.054 -10.582,-23.636 -23.637,-23.636" /><path
         id="path30"
         style="fill:#495672;fill-opacity:1;fill-rule:nonzero;stroke:none"
         d="m 344.445,240 c 0,-13.5 -10.945,-24.445 -24.445,-24.445 -13.5,0 -24.445,10.945 -24.445,24.445 0,13.5 10.945,24.445 24.445,24.445 13.5,0 24.445,-10.945 24.445,-24.445" /><path
         id="path32"
         style="fill:#495672;fill-opacity:1;fill-rule:nonzero;stroke:none"
         d="m 343.637,435 c 0,-13.055 -10.582,-23.637 -23.637,-23.637 -13.055,0 -23.637,10.582 -23.637,23.637 0,13.055 10.582,23.637 23.637,23.637 13.055,0 23.637,-10.582 23.637,-23.637" /><path
         id="path34"
         style="fill:#404a5f;fill-opacity:1;fill-rule:nonzero;stroke:none"
         d="M 383.875,423.184 C 378.309,453.43 360,480 320,480 280,480 261.691,453.43 256.125,423.184 255.418,427.02 255,430.957 255,435 v 0 c 0,35.898 29.102,65 65,65 35.898,0 65,-29.102 65,-65 v 0 c 0,-4.043 -0.418,-7.98 -1.125,-11.816" /></g></g></svg>