<?xml version="1.0" encoding="UTF-8" standalone="no"?>
<svg
   xmlns:dc="http://purl.org/dc/elements/1.1/"
   xmlns:cc="http://creativecommons.org/ns#"
   xmlns:rdf="http://www.w3.org/1999/02/22-rdf-syntax-ns#"
   xmlns:svg="http://www.w3.org/2000/svg"
   xmlns="http://www.w3.org/2000/svg"
   viewBox="0 0 85.333336 85.333336"
   height="85.333336"
   width="85.333336"
   xml:space="preserve"
   id="svg2"
   version="1.1"><metadata
     id="metadata8"><rdf:RDF><cc:Work
         rdf:about=""><dc:format>image/svg+xml</dc:format><dc:type
           rdf:resource="http://purl.org/dc/dcmitype/StillImage" /></cc:Work></rdf:RDF></metadata><defs
     id="defs6" /><g
     transform="matrix(1.3333333,0,0,-1.3333333,0,85.333333)"
     id="g10"><g
       transform="scale(0.1)"
       id="g12"><path
         id="path14"
         style="fill:#495672;fill-opacity:1;fill-rule:nonzero;stroke:none"
         d="M 640,320 C 640,143.27 496.73,0 320,0 143.27,0 0,143.27 0,320 0,496.73 143.27,640 320,640 496.73,640 640,496.73 640,320" /><path
         id="path16"
         style="fill:#f3cc70;fill-opacity:1;fill-rule:nonzero;stroke:none"
         d="m 441.652,374.164 c 0,0 -38.961,65.836 -55.839,65.836 h -91.68 c -16.875,0 -55.84,-65.836 -55.84,-65.836 0,-30.832 8.402,-45.828 25.281,-45.828 h 152.797 c 16.879,0 25.281,14.996 25.281,45.828" /><path
         id="path18"
         style="fill:#f3cc70;fill-opacity:1;fill-rule:nonzero;stroke:none"
         d="m 208.293,257.086 c 0,0 40.258,-65.836 57.695,-65.836 h 156.719 c 17.438,0 57.695,65.836 57.695,65.836 0,30.832 -8.679,45.828 -26.121,45.828 H 234.414 c -17.437,0 -26.121,-14.996 -26.121,-45.828" /><path
         id="path20"
         style="fill:#e08e4c;fill-opacity:1;fill-rule:nonzero;stroke:none"
         d="m 159.609,280.113 c 0,-10.937 -28.867,-59.804 -39.804,-59.804 -10.938,0 -19.805,8.867 -19.805,19.804 v 139.809 c 0,10.937 8.867,19.805 19.805,19.805 10.937,0 39.804,-48.868 39.804,-59.805 v -59.809" /><path
         id="path22"
         style="fill:#404a5f;fill-opacity:1;fill-rule:nonzero;stroke:none"
         d="m 445.422,208.324 c 17.094,19.504 34.98,48.762 34.98,48.762 0,30.832 -8.679,45.828 -26.121,45.828 H 234.414 c -17.437,0 -26.121,-14.996 -26.121,-45.828 0,0 13.223,-21.621 27.793,-40.082 -33.383,9.039 -64.742,20.613 -90.484,31.992 7.773,12.758 14.007,26.031 14.007,31.117 v 57.301 c 23.473,9.613 50.567,18.992 79.036,26.492 1.75,-23.906 10.043,-35.57 24.929,-35.57 h 152.797 c 16.559,0 24.957,14.43 25.274,44.082 C 513.504,359.336 560,330.051 560,290.016 560,250.691 515.125,221.738 445.422,208.324 M 100,272.313 c -12.6953,7.804 -20,14.187 -20,17.703 0,3.742 7.3047,10.246 20,18.113 v -35.816" /><path
         id="path24"
         style="fill:#c7a85f;fill-opacity:1;fill-rule:nonzero;stroke:none"
         d="M 416.371,328.336 H 263.574 c -14.886,0 -23.179,11.664 -24.929,35.57 36.414,9.594 75.085,16.11 111.355,16.11 33.43,0 64.367,-2.633 91.645,-7.598 -0.317,-29.652 -8.715,-44.082 -25.274,-44.082" /><path
         id="path26"
         style="fill:#c7a85f;fill-opacity:1;fill-rule:nonzero;stroke:none"
         d="m 350,200.016 c -37.117,0 -76.762,6.922 -113.914,16.988 -14.57,18.461 -27.793,40.082 -27.793,40.082 0,30.832 8.684,45.828 26.121,45.828 h 219.867 c 17.442,0 26.121,-14.996 26.121,-45.828 0,0 -17.886,-29.258 -34.98,-48.762 -28.192,-5.426 -60.434,-8.308 -95.422,-8.308" /><path
         id="path28"
         style="fill:#b77744;fill-opacity:1;fill-rule:nonzero;stroke:none"
         d="m 145.602,248.996 c -18.59,8.219 -34.254,16.34 -45.602,23.317 v 35.816 c 14.098,8.73 34.844,19.141 59.609,29.285 v -57.301 c 0,-5.086 -6.234,-18.359 -14.007,-31.117" /><path
         id="path30"
         style="fill:#f3cc70;fill-opacity:1;fill-rule:nonzero;stroke:none"
         d="m 560,310.016 c 0,55.23 -88.496,90 -210,90 -121.504,0 -270,-73.141 -270,-90 0,-15.852 148.496,-90 270,-90 121.504,0 210,34.773 210,90" /><path
         id="path32"
         style="fill:#e08e4c;fill-opacity:1;fill-rule:nonzero;stroke:none"
         d="m 390,320 c 0,-16.57 -13.43,-30 -30,-30 -16.57,0 -30,13.43 -30,30 0,16.57 13.43,30 30,30 16.57,0 30,-13.43 30,-30" /><path
         id="path34"
         style="fill:#e08e4c;fill-opacity:1;fill-rule:nonzero;stroke:none"
         d="m 490,320 c 0,-16.57 -13.43,-30 -30,-30 -16.57,0 -30,13.43 -30,30 0,16.57 13.43,30 30,30 16.57,0 30,-13.43 30,-30" /><path
         id="path36"
         style="fill:#e08e4c;fill-opacity:1;fill-rule:nonzero;stroke:none"
         d="m 290,320 c 0,-16.57 -13.43,-30 -30,-30 -16.57,0 -30,13.43 -30,30 0,16.57 13.43,30 30,30 16.57,0 30,-13.43 30,-30" /></g></g></svg>