<?xml version="1.0" encoding="UTF-8" standalone="no"?>
<svg
   xmlns:dc="http://purl.org/dc/elements/1.1/"
   xmlns:cc="http://creativecommons.org/ns#"
   xmlns:rdf="http://www.w3.org/1999/02/22-rdf-syntax-ns#"
   xmlns:svg="http://www.w3.org/2000/svg"
   xmlns="http://www.w3.org/2000/svg"
   viewBox="0 0 85.333336 85.333336"
   height="85.333336"
   width="85.333336"
   xml:space="preserve"
   id="svg2"
   version="1.1"><metadata
     id="metadata8"><rdf:RDF><cc:Work
         rdf:about=""><dc:format>image/svg+xml</dc:format><dc:type
           rdf:resource="http://purl.org/dc/dcmitype/StillImage" /></cc:Work></rdf:RDF></metadata><defs
     id="defs6" /><g
     transform="matrix(1.3333333,0,0,-1.3333333,0,85.333333)"
     id="g10"><g
       transform="scale(0.1)"
       id="g12"><path
         id="path14"
         style="fill:#495672;fill-opacity:1;fill-rule:nonzero;stroke:none"
         d="M 640,320 C 640,143.27 496.73,0 320,0 143.27,0 0,143.27 0,320 0,496.73 143.27,640 320,640 496.73,640 640,496.73 640,320" /><path
         id="path16"
         style="fill:#404a5f;fill-opacity:1;fill-rule:nonzero;stroke:none"
         d="m 320,80 c -42.664,0 -82.492,12.1445 -116.219,33.168 0.449,0.387 0.887,0.793 1.313,1.215 l 11.426,11.426 C 247.359,109.34 282.594,100 320,100 c 37.406,0 72.641,9.34 103.48,25.809 l 11.426,-11.426 c 0.426,-0.422 0.864,-0.828 1.313,-1.215 C 402.496,92.1445 362.664,80 320,80 M 133.168,183.781 C 112.145,217.508 100,257.336 100,300 c 0,3.352 0.074,6.684 0.223,10 1.968,-43.973 16.84,-84.582 40.925,-118.141 l -6.761,-6.765 c -0.426,-0.426 -0.832,-0.864 -1.219,-1.313 m 373.664,0 c -0.387,0.449 -0.793,0.887 -1.215,1.313 l -6.765,6.765 c 24.086,33.559 38.957,74.168 40.925,118.141 0.149,-3.316 0.223,-6.648 0.223,-10 0,-42.664 -12.145,-82.492 -33.168,-116.219 M 439.59,310 c -0.918,11.098 -3.344,21.77 -7.074,31.805 l 4.574,4.578 C 438.996,337.891 440,329.066 440,320 c 0,-3.367 -0.137,-6.699 -0.41,-10 m -239.18,0 c -0.273,3.301 -0.41,6.633 -0.41,10 0,9.066 1.004,17.891 2.91,26.379 l 4.574,-4.574 C 203.754,331.77 201.328,321.098 200.41,310 M 361.805,412.516 C 348.785,417.355 334.703,420 320,420 c -14.703,0 -28.785,-2.645 -41.805,-7.484 l -13.836,13.836 C 280.992,435.066 299.922,440 320,440 c 20.078,0 39.008,-4.934 55.641,-13.652 l -13.836,-13.832" /><path
         id="path18"
         style="fill:#ffffff;fill-opacity:1;fill-rule:nonzero;stroke:none"
         d="m 440,320 c 0,-66.273 -53.727,-120 -120,-120 -66.273,0 -120,53.727 -120,120 0,66.273 53.727,120 120,120 66.273,0 120,-53.727 120,-120 m -340,0 c 0,-121.504 98.496,-220 220,-220 121.504,0 220,98.496 220,220 0,121.504 -98.496,220 -220,220 -121.504,0 -220,-98.496 -220,-220" /><path
         id="path20"
         style="fill:#404a5f;fill-opacity:1;fill-rule:nonzero;stroke:none"
         d="m 224.855,333.84 c -5.792,0 -11.691,2.285 -16.222,6.82 l -1.149,1.145 c 12.133,32.644 38.067,58.578 70.711,70.711 l 1.145,-1.149 c 8.789,-8.785 9.129,-22.691 0.758,-31.058 l -40.407,-40.407 c -4.046,-4.05 -9.398,-6.062 -14.836,-6.062 m -96.957,93.465 c -1.164,6.679 0.727,13.66 5.731,18.664 l 40.402,40.402 c 2.293,2.297 5,3.934 7.907,4.926 -21.84,-17.629 -40.247,-39.348 -54.04,-63.992" /><path
         id="path22"
         style="fill:#394051;fill-opacity:1;fill-rule:nonzero;stroke:none"
         d="m 207.484,341.805 -4.574,4.574 c 7.801,34.777 30.699,63.848 61.449,79.973 l 13.836,-13.836 c -32.644,-12.133 -58.578,-38.067 -70.711,-70.711" /><path
         id="path24"
         style="fill:#d4d3d1;fill-opacity:1;fill-rule:nonzero;stroke:none"
         d="m 202.91,346.379 -68.523,68.527 c -3.539,3.535 -5.707,7.899 -6.489,12.399 13.793,24.644 32.2,46.363 54.04,63.992 2.226,0.758 4.57,1.137 6.929,1.137 5.797,0 11.696,-2.286 16.227,-6.817 l 59.265,-59.265 c -30.75,-16.125 -53.648,-45.196 -61.449,-79.973" /><path
         id="path26"
         style="fill:#404a5f;fill-opacity:1;fill-rule:nonzero;stroke:none"
         d="m 451.133,107.566 c -5.254,0 -10.586,1.875 -14.914,5.602 28.594,17.82 52.793,42.02 70.613,70.613 7.582,-8.808 7.504,-21.785 -0.461,-29.75 l -40.402,-40.402 c -4.051,-4.055 -9.399,-6.063 -14.836,-6.063 M 353.84,204.84 c -0.004,5.441 2.008,10.797 6.062,14.851 l 40.407,40.407 c 4.05,4.05 9.398,6.062 14.836,6.062 3.652,0 7.347,-0.91 10.718,-2.719 -15.031,-28.074 -40.902,-49.472 -72.023,-58.601" /><path
         id="path28"
         style="fill:#394051;fill-opacity:1;fill-rule:nonzero;stroke:none"
         d="m 436.219,113.168 c -0.449,0.387 -0.887,0.793 -1.313,1.215 l -11.426,11.426 c 29.922,15.972 55.711,38.664 75.372,66.05 l 6.765,-6.765 c 0.422,-0.426 0.828,-0.864 1.215,-1.313 -17.82,-28.593 -42.019,-52.793 -70.613,-70.613" /><path
         id="path30"
         style="fill:#d4d3d1;fill-opacity:1;fill-rule:nonzero;stroke:none"
         d="m 423.48,125.809 -62.82,62.824 c -4.531,4.527 -6.812,10.414 -6.82,16.207 31.121,9.129 56.992,30.527 72.023,58.601 1.973,-1.058 3.832,-2.425 5.504,-4.101 l 67.485,-67.481 c -19.661,-27.386 -45.45,-50.078 -75.372,-66.05" /><path
         id="path32"
         style="fill:#404a5f;fill-opacity:1;fill-rule:nonzero;stroke:none"
         d="m 415.145,333.84 c -5.442,0 -10.786,2.012 -14.836,6.062 l -40.407,40.407 c -8.371,8.367 -8.031,22.273 0.758,31.058 l 1.145,1.149 c 32.644,-12.133 58.578,-38.067 70.711,-70.711 l -1.149,-1.145 c -4.531,-4.535 -10.429,-6.82 -16.222,-6.82 m 96.957,93.465 c -13.793,24.64 -32.2,46.367 -54.039,63.992 2.906,-0.992 5.613,-2.629 7.906,-4.926 l 40.402,-40.402 c 5.004,-5.004 6.895,-11.981 5.731,-18.664" /><path
         id="path34"
         style="fill:#394051;fill-opacity:1;fill-rule:nonzero;stroke:none"
         d="m 432.516,341.805 c -12.133,32.644 -38.067,58.578 -70.711,70.711 l 13.836,13.832 c 30.75,-16.121 53.648,-45.192 61.449,-79.965 l -4.574,-4.578" /><path
         id="path36"
         style="fill:#d4d3d1;fill-opacity:1;fill-rule:nonzero;stroke:none"
         d="m 437.09,346.383 c -7.801,34.773 -30.699,63.844 -61.449,79.965 l 59.265,59.269 c 4.532,4.531 10.43,6.817 16.227,6.817 2.359,0 4.703,-0.379 6.93,-1.137 21.839,-17.625 40.246,-39.352 54.039,-63.992 -0.782,-4.5 -2.95,-8.864 -6.485,-12.399 L 437.09,346.383" /><path
         id="path38"
         style="fill:#404a5f;fill-opacity:1;fill-rule:nonzero;stroke:none"
         d="m 188.867,107.566 c -5.437,0 -10.781,2.008 -14.836,6.063 l -40.402,40.402 c -7.965,7.965 -8.043,20.942 -0.461,29.75 17.82,-28.593 42.02,-52.793 70.613,-70.613 -4.328,-3.727 -9.66,-5.602 -14.914,-5.602 m 97.293,97.274 c -31.117,9.129 -56.992,30.527 -72.023,58.601 3.371,1.809 7.066,2.719 10.722,2.719 5.438,0 10.782,-2.012 14.832,-6.062 l 40.407,-40.407 c 4.058,-4.054 6.066,-9.41 6.062,-14.851" /><path
         id="path40"
         style="fill:#394051;fill-opacity:1;fill-rule:nonzero;stroke:none"
         d="m 203.781,113.168 c -28.593,17.82 -52.793,42.02 -70.613,70.613 0.387,0.449 0.793,0.887 1.219,1.313 l 6.761,6.765 c 19.661,-27.386 45.45,-50.078 75.372,-66.05 l -11.426,-11.426 c -0.426,-0.422 -0.864,-0.828 -1.313,-1.215" /><path
         id="path42"
         style="fill:#d4d3d1;fill-opacity:1;fill-rule:nonzero;stroke:none"
         d="m 216.52,125.809 c -29.922,15.972 -55.711,38.664 -75.372,66.05 l 67.485,67.481 c 1.672,1.676 3.531,3.043 5.504,4.101 15.031,-28.074 40.906,-49.472 72.023,-58.601 -0.004,-5.793 -2.289,-11.68 -6.82,-16.207 l -62.82,-62.824" /><path
         id="path44"
         style="fill:#e08e4c;fill-opacity:1;fill-rule:nonzero;stroke:none"
         d="m 279.34,431.367 c 8.789,-8.785 9.129,-22.691 0.758,-31.058 l -40.407,-40.407 c -8.367,-8.371 -22.273,-8.031 -31.058,0.758 l -74.25,74.246 c -8.785,8.785 -9.125,22.692 -0.754,31.063 l 40.402,40.402 c 8.371,8.371 22.278,8.031 31.063,-0.754 l 74.246,-74.25" /><path
         id="path46"
         style="fill:#e08e4c;fill-opacity:1;fill-rule:nonzero;stroke:none"
         d="m 505.617,205.094 c 8.785,-8.785 9.125,-22.692 0.754,-31.063 l -40.402,-40.402 c -8.371,-8.371 -22.278,-8.031 -31.063,0.754 l -74.246,74.25 c -8.789,8.785 -9.129,22.691 -0.758,31.058 l 40.407,40.407 c 8.367,8.371 22.273,8.031 31.058,-0.758 l 74.25,-74.246" /><path
         id="path48"
         style="fill:#e08e4c;fill-opacity:1;fill-rule:nonzero;stroke:none"
         d="m 431.367,360.66 c -8.785,-8.789 -22.691,-9.129 -31.058,-0.758 l -40.407,40.407 c -8.371,8.367 -8.031,22.273 0.758,31.058 l 74.246,74.25 c 8.785,8.785 22.692,9.125 31.063,0.754 l 40.402,-40.402 c 8.371,-8.371 8.031,-22.278 -0.754,-31.063 l -74.25,-74.246" /><path
         id="path50"
         style="fill:#e08e4c;fill-opacity:1;fill-rule:nonzero;stroke:none"
         d="m 205.094,134.383 c -8.785,-8.785 -22.692,-9.125 -31.063,-0.754 l -40.402,40.402 c -8.371,8.371 -8.031,22.278 0.754,31.063 l 74.25,74.246 c 8.785,8.789 22.691,9.129 31.058,0.758 l 40.407,-40.407 c 8.371,-8.367 8.031,-22.273 -0.758,-31.058 l -74.246,-74.25" /></g></g></svg>