<?xml version="1.0" encoding="UTF-8" standalone="no"?>
<svg
   xmlns:dc="http://purl.org/dc/elements/1.1/"
   xmlns:cc="http://creativecommons.org/ns#"
   xmlns:rdf="http://www.w3.org/1999/02/22-rdf-syntax-ns#"
   xmlns:svg="http://www.w3.org/2000/svg"
   xmlns="http://www.w3.org/2000/svg"
   viewBox="0 0 85.333336 85.333336"
   height="85.333336"
   width="85.333336"
   xml:space="preserve"
   id="svg2"
   version="1.1"><metadata
     id="metadata8"><rdf:RDF><cc:Work
         rdf:about=""><dc:format>image/svg+xml</dc:format><dc:type
           rdf:resource="http://purl.org/dc/dcmitype/StillImage" /></cc:Work></rdf:RDF></metadata><defs
     id="defs6" /><g
     transform="matrix(1.3333333,0,0,-1.3333333,0,85.333333)"
     id="g10"><g
       transform="scale(0.1)"
       id="g12"><path
         id="path14"
         style="fill:#495672;fill-opacity:1;fill-rule:nonzero;stroke:none"
         d="M 640,320 C 640,143.27 496.73,0 320,0 143.27,0 0,143.27 0,320 0,496.73 143.27,640 320,640 496.73,640 640,496.73 640,320" /><path
         id="path16"
         style="fill:#404a5f;fill-opacity:1;fill-rule:nonzero;stroke:none"
         d="m 184.586,128.234 c -7.645,0.422 -14.695,5.235 -17.602,12.848 l -2.441,6.398 8.672,-2.89 8.879,-13.309 c 0.742,-1.113 1.578,-2.133 2.492,-3.047 m 81.477,29.246 2.476,7.43 35.277,23.535 231.653,88.395 c 2.324,0.887 4.386,2.16 6.144,3.719 1.942,-9.43 -3.179,-19.145 -12.468,-22.688 L 266.063,157.48 m -128.637,62.145 c -1.078,6.34 0.996,12.734 5.344,17.234 -1.989,-3.98 -2.61,-8.558 -1.711,-12.964 -1.434,-1.266 -2.649,-2.707 -3.633,-4.27" /><path
         id="path18"
         style="fill:#7db6d8;fill-opacity:1;fill-rule:nonzero;stroke:none"
         d="m 192.004,157.18 c -4.121,0 -7.883,2.586 -9.348,6.437 l -28.523,74.742 c -0.957,2.496 -0.879,5.215 0.215,7.653 1.09,2.433 3.062,4.301 5.562,5.254 l 336.34,128.347 c 1.152,0.442 2.355,0.66 3.563,0.66 4.125,0 7.882,-2.582 9.347,-6.433 l 28.516,-74.746 c 0.957,-2.5 0.879,-5.215 -0.203,-7.653 -1.094,-2.437 -3.071,-4.3 -5.571,-5.257 L 195.559,157.836 c -1.157,-0.434 -2.344,-0.656 -3.555,-0.656" /><path
         id="path20"
         style="fill:#e1e3cc;fill-opacity:1;fill-rule:nonzero;stroke:none"
         d="m 499.816,390.277 c -2.371,-0.004 -4.781,-0.425 -7.128,-1.32 L 156.344,260.609 c -10.321,-3.937 -15.492,-15.496 -11.555,-25.812 l 28.52,-74.746 c 3.043,-7.973 10.636,-12.875 18.691,-12.875 2.367,0 4.781,0.426 7.125,1.32 L 535.469,276.84 c 10.32,3.937 15.496,15.496 11.558,25.816 l -28.523,74.746 c -3.043,7.973 -10.633,12.875 -18.688,12.875 m 0.004,-20.007 v 0 L 528.34,295.527 191.996,167.184 163.473,241.926 499.82,370.27" /><path
         id="path22"
         style="fill:#404a5f;fill-opacity:1;fill-rule:nonzero;stroke:none"
         d="m 198.746,122.379 c -5.215,0 -10.348,2.035 -14.16,5.855 0.359,-0.019 0.723,-0.027 1.09,-0.027 2.371,0 4.781,0.426 7.125,1.32 l 0.504,0.192 4.379,-4.297 c 1.144,-1.121 2.386,-2.078 3.703,-2.867 -0.875,-0.117 -1.758,-0.176 -2.641,-0.176 m -63.18,79.617 c -2.179,5.887 -1.429,12.426 1.86,17.629 0.215,-1.273 0.558,-2.547 1.039,-3.801 l 2.187,-5.73 -0.375,-0.383 c -2.211,-2.258 -3.781,-4.902 -4.711,-7.715" /><path
         id="path24"
         style="fill:#394051;fill-opacity:1;fill-rule:nonzero;stroke:none"
         d="m 185.676,128.207 c -0.367,0 -0.731,0.008 -1.09,0.027 -0.914,0.914 -1.75,1.934 -2.492,3.047 l -8.879,13.309 7.453,-2.485 12.637,-12.386 -0.504,-0.192 c -2.344,-0.894 -4.754,-1.32 -7.125,-1.32 m 82.863,36.703 2.129,6.387 7.047,7.187 26.101,9.961 -35.277,-23.535 m -127.887,45.184 -2.187,5.73 c -0.481,1.254 -0.824,2.528 -1.039,3.801 0.984,1.563 2.199,3.004 3.633,4.27 0.203,-0.985 0.48,-1.965 0.836,-2.922 -1.094,-3.313 -1.301,-6.852 -0.622,-10.243 l -0.621,-0.636" /><path
         id="path26"
         style="fill:#6594b2;fill-opacity:1;fill-rule:nonzero;stroke:none"
         d="m 327.105,218.738 183.758,122.59 3.938,-10.324 c -1.414,-2.106 -3.258,-3.977 -5.5,-5.473 l -130.52,-87.074 -51.676,-19.719" /><path
         id="path28"
         style="fill:#b7b7a7;fill-opacity:1;fill-rule:nonzero;stroke:none"
         d="m 277.715,178.484 20.695,21.114 28.695,19.14 51.676,19.719 -74.965,-50.012 -26.101,-9.961 m 237.086,152.52 -3.938,10.324 4.766,3.18 c 0.769,0.515 1.496,1.074 2.172,1.672 1.07,-5.242 -0.016,-10.735 -3,-15.176" /><path
         id="path30"
         style="fill:#77caa9;fill-opacity:1;fill-rule:nonzero;stroke:none"
         d="m 205.078,151.352 c -3.359,0 -6.484,1.668 -8.34,4.461 l -44.394,66.546 c -1.485,2.219 -2.012,4.887 -1.492,7.504 0.527,2.621 2.039,4.883 4.253,6.367 l 299.473,199.782 c 1.652,1.101 3.567,1.683 5.539,1.683 3.36,0 6.477,-1.664 8.328,-4.453 l 44.399,-66.547 c 1.48,-2.222 2.011,-4.886 1.492,-7.504 -0.527,-2.625 -2.039,-4.882 -4.258,-6.371 L 210.605,153.035 c -1.652,-1.101 -3.566,-1.683 -5.527,-1.683" /><path
         id="path32"
         style="fill:#e1e3cc;fill-opacity:1;fill-rule:nonzero;stroke:none"
         d="m 460.113,447.695 c -3.816,0 -7.672,-1.086 -11.082,-3.363 L 149.559,244.543 c -9.192,-6.129 -11.668,-18.547 -5.539,-27.734 l 44.398,-66.551 c 3.852,-5.778 10.195,-8.903 16.652,-8.903 3.817,0 7.672,1.09 11.082,3.364 l 299.477,199.789 c 9.187,6.129 11.668,18.547 5.539,27.734 l -44.398,66.551 c -3.856,5.777 -10.196,8.902 -16.657,8.902 m 0.02,-20 v 0 l 44.394,-66.55 -299.472,-199.79 -44.399,66.551 299.477,199.789" /><path
         id="path34"
         style="fill:#404a5f;fill-opacity:1;fill-rule:nonzero;stroke:none"
         d="m 211.684,119.703 c -3.567,0 -7.137,0.949 -10.297,2.852 2.929,0.39 5.816,1.437 8.441,3.187 l 0.813,0.543 5.808,-3.484 c 0.996,-0.598 2.028,-1.098 3.074,-1.504 -2.496,-1.063 -5.168,-1.594 -7.839,-1.594" /><path
         id="path36"
         style="fill:#394051;fill-opacity:1;fill-rule:nonzero;stroke:none"
         d="m 201.387,122.555 c -1.317,0.789 -2.559,1.746 -3.703,2.867 l -4.379,4.297 7.09,2.707 10.246,-6.141 -0.813,-0.543 c -2.625,-1.75 -5.512,-2.797 -8.441,-3.187" /><path
         id="path38"
         style="fill:#343945;fill-opacity:1;fill-rule:nonzero;stroke:none"
         d="m 193.305,129.719 -12.637,12.386 8.055,-2.683 11.672,-6.996 -7.09,-2.707 m 77.363,41.578 1.719,5.156 5.328,2.031 -7.047,-7.187" /><path
         id="path40"
         style="fill:#97978c;fill-opacity:1;fill-rule:nonzero;stroke:none"
         d="m 272.387,176.453 0.582,1.746 4.414,7.367 21.027,14.032 -20.695,-21.114 -5.328,-2.031" /><path
         id="path42"
         style="fill:#62a48d;fill-opacity:1;fill-rule:nonzero;stroke:none"
         d="m 331.066,245.422 149.164,152.144 3.11,-4.66 c -0.727,-3.703 -2.504,-7.242 -5.348,-10.14 L 366.551,269.094 331.066,245.422" /><path
         id="path44"
         style="fill:#b7b7a7;fill-opacity:1;fill-rule:nonzero;stroke:none"
         d="m 277.383,185.566 7.863,13.122 45.82,46.734 35.485,23.672 -68.141,-69.496 -21.027,-14.032 m 205.957,207.34 -3.11,4.66 3.09,3.153 c 0.516,-2.574 0.524,-5.235 0.02,-7.813" /><path
         id="path46"
         style="fill:#404a5f;fill-opacity:1;fill-rule:nonzero;stroke:none"
         d="m 138.324,184.023 c -3.804,5.274 -4.73,11.993 -2.758,17.973 0.536,-1.437 1.243,-2.836 2.129,-4.164 l 3.758,-5.637 -0.496,-0.832 c -1.394,-2.324 -2.258,-4.816 -2.633,-7.34" /><path
         id="path48"
         style="fill:#394051;fill-opacity:1;fill-rule:nonzero;stroke:none"
         d="m 141.453,192.195 -3.758,5.637 c -0.886,1.328 -1.593,2.727 -2.129,4.164 0.93,2.813 2.5,5.457 4.711,7.715 l 0.375,0.383 3.782,-9.91 c -0.004,-0.918 0.05,-1.829 0.171,-2.735 l -3.152,-5.254" /><path
         id="path50"
         style="fill:#343945;fill-opacity:1;fill-rule:nonzero;stroke:none"
         d="m 144.434,200.184 -3.782,9.91 0.621,0.636 c 0.551,-2.738 1.676,-5.382 3.375,-7.738 -0.14,-0.933 -0.21,-1.875 -0.214,-2.808" /><path
         id="path52"
         style="fill:#f3cc70;fill-opacity:1;fill-rule:nonzero;stroke:none"
         d="m 218.008,148.672 c -2.637,0 -5.125,1.016 -7,2.859 l -57.121,56.008 c -1.914,1.875 -2.981,4.375 -3.008,7.047 -0.02,2.664 0.996,5.187 2.859,7.094 l 252.035,257.066 c 1.895,1.934 4.43,2.996 7.137,2.996 2.637,0 5.117,-1.015 7,-2.859 l 57.121,-56 c 1.914,-1.875 2.981,-4.375 3.008,-7.047 0.02,-2.672 -0.996,-5.191 -2.859,-7.098 L 225.148,151.676 c -1.894,-1.942 -4.433,-3.004 -7.14,-3.004" /><path
         id="path54"
         style="fill:#ffffff;fill-opacity:1;fill-rule:nonzero;stroke:none"
         d="m 412.91,491.742 c -5.183,0 -10.363,-2.004 -14.281,-5.996 L 146.602,228.68 c -7.735,-7.887 -7.61,-20.547 0.281,-28.282 l 57.125,-56.007 c 3.89,-3.817 8.945,-5.719 14,-5.719 5.183,0 10.363,2.004 14.281,6 l 252.027,257.062 c 7.735,7.887 7.61,20.551 -0.277,28.286 l -57.129,56.003 c -3.89,3.817 -8.945,5.719 -14,5.719 m 0,-20 v 0 L 470.035,415.738 218.008,158.676 160.883,214.68 412.891,471.742 h 0.019" /><path
         id="path56"
         style="fill:#404a5f;fill-opacity:1;fill-rule:nonzero;stroke:none"
         d="m 226.715,119.953 c -2.418,0 -4.856,0.438 -7.192,1.344 2.348,1 4.543,2.469 6.442,4.406 l 0.965,0.981 7.008,-2.336 c 1.351,-0.45 2.722,-0.75 4.085,-0.903 -3.339,-2.281 -7.293,-3.492 -11.308,-3.492" /><path
         id="path58"
         style="fill:#404a5f;fill-opacity:1;fill-rule:nonzero;stroke:none"
         d="m 144.48,166.441 c -4.867,4.524 -7.109,11.153 -6.156,17.582 0.66,-0.91 1.403,-1.781 2.235,-2.593 l 5.269,-5.168 -0.437,-1.317 c -0.942,-2.828 -1.219,-5.722 -0.911,-8.504" /><path
         id="path60"
         style="fill:#394051;fill-opacity:1;fill-rule:nonzero;stroke:none"
         d="m 219.523,121.297 c -1.046,0.406 -2.078,0.906 -3.074,1.504 l -5.808,3.484 5.828,3.887 10.461,-3.488 -0.965,-0.981 c -1.899,-1.937 -4.094,-3.406 -6.442,-4.406 m -73.695,54.965 -5.269,5.168 c -0.832,0.812 -1.575,1.683 -2.235,2.593 0.375,2.524 1.239,5.016 2.633,7.34 l 0.496,0.832 6.461,-9.683 -2.086,-6.25" /><path
         id="path62"
         style="fill:#343945;fill-opacity:1;fill-rule:nonzero;stroke:none"
         d="m 210.641,126.285 -10.246,6.141 4.343,1.656 11.731,-3.91 -5.828,-3.887 m -62.727,56.227 -6.461,9.683 3.152,5.254 c 0.508,-3.863 2.141,-7.558 4.766,-10.558 l -1.457,-4.379" /><path
         id="path64"
         style="fill:#31333d;fill-opacity:1;fill-rule:nonzero;stroke:none"
         d="m 200.395,132.426 -11.672,6.996 16.015,-5.34 -4.343,-1.656" /><path
         id="path66"
         style="fill:#7d7c76;fill-opacity:1;fill-rule:nonzero;stroke:none"
         d="m 272.969,178.199 1.894,5.688 2.52,1.679 -4.414,-7.367" /><path
         id="path68"
         style="fill:#97978c;fill-opacity:1;fill-rule:nonzero;stroke:none"
         d="m 274.863,183.887 2.129,6.379 8.254,8.422 -7.863,-13.122 -2.52,-1.679" /><path
         id="path70"
         style="fill:#c7a85f;fill-opacity:1;fill-rule:nonzero;stroke:none"
         d="m 316.313,258.941 115.312,192.411 c 0.57,-4.321 -0.262,-8.856 -2.676,-12.883 L 329.293,272.18 316.313,258.941" /><path
         id="path72"
         style="fill:#d4d3d1;fill-opacity:1;fill-rule:nonzero;stroke:none"
         d="m 276.992,190.266 2.301,6.91 37.02,61.765 12.98,13.239 -44.047,-73.492 -8.254,-8.422" /><path
         id="path74"
         style="fill:#e08e4c;fill-opacity:1;fill-rule:nonzero;stroke:none"
         d="m 233.035,148.926 c -1.797,0 -3.562,0.492 -5.113,1.426 l -68.637,41.128 c -2.281,1.372 -3.902,3.555 -4.551,6.141 -0.652,2.594 -0.254,5.277 1.125,7.574 l 185.059,308.789 c 1.824,3.047 5.039,4.864 8.594,4.864 1.797,0 3.562,-0.493 5.117,-1.426 l 68.633,-41.121 c 4.726,-2.832 6.269,-8.992 3.437,-13.723 L 241.641,153.789 c -1.828,-3.047 -5.047,-4.863 -8.606,-4.863" /><path
         id="path76"
         style="fill:#ffffff;fill-opacity:1;fill-rule:nonzero;stroke:none"
         d="m 349.52,528.848 c -6.797,0 -13.426,-3.465 -17.176,-9.719 L 147.281,210.336 c -5.679,-9.477 -2.601,-21.758 6.875,-27.438 l 68.617,-41.125 c 3.223,-1.929 6.766,-2.847 10.262,-2.847 6.801,0 13.426,3.469 17.176,9.722 l 185.062,308.79 c 5.68,9.476 2.602,21.761 -6.875,27.437 L 359.781,526 c -3.222,1.93 -6.765,2.848 -10.261,2.848 m -0.02,-20.004 v 0.004 L 418.117,467.719 233.055,158.93 164.438,200.055 349.48,508.84 l 0.02,0.004" /><path
         id="path78"
         style="fill:#404a5f;fill-opacity:1;fill-rule:nonzero;stroke:none"
         d="m 240.262,123.316 c -0.742,0 -1.489,0.043 -2.239,0.129 2.313,1.578 4.329,3.672 5.864,6.231 l 7.992,13.332 c 6.215,1.711 11.488,6.39 13.68,12.965 l 0.504,1.507 v 0 l -6.829,-20.484 c -2.793,-8.379 -10.597,-13.68 -18.972,-13.68 m -75.719,24.164 -6.504,2.168 c -7.648,2.551 -12.73,9.274 -13.559,16.793 1.004,-0.933 2.125,-1.781 3.352,-2.515 l 13.531,-8.11 3.18,-8.336" /><path
         id="path80"
         style="fill:#394051;fill-opacity:1;fill-rule:nonzero;stroke:none"
         d="m 173.215,144.59 -8.672,2.89 -3.18,8.336 7.266,-4.351 4.586,-6.875 m 92.848,12.89 2.476,7.43 v 0 l -2.476,-7.43 v 0" /><path
         id="path82"
         style="fill:#343945;fill-opacity:1;fill-rule:nonzero;stroke:none"
         d="m 180.668,142.105 -7.453,2.485 -4.586,6.875 6.418,-3.848 5.621,-5.512 m 87.871,22.805 2.129,6.387 v 0 l -2.129,-6.387 v 0" /><path
         id="path84"
         style="fill:#31333d;fill-opacity:1;fill-rule:nonzero;stroke:none"
         d="m 188.723,139.422 -8.055,2.683 -5.621,5.512 13.676,-8.195 m 81.945,31.875 1.719,5.156 v 0 l -1.719,-5.156 v 0" /><path
         id="path86"
         style="fill:#7d7c76;fill-opacity:1;fill-rule:nonzero;stroke:none"
         d="m 272.387,176.453 0.582,1.746 v 0 l -0.582,-1.746 v 0" /><path
         id="path88"
         style="fill:#394051;fill-opacity:1;fill-rule:nonzero;stroke:none"
         d="m 238.023,123.445 c -1.363,0.153 -2.734,0.453 -4.085,0.903 l -7.008,2.336 13.312,13.582 c 1.442,0.55 2.821,1.273 4.11,2.152 0.746,-0.086 1.492,-0.129 2.238,-0.129 1.801,0 3.582,0.246 5.289,0.719 l -7.992,-13.332 c -1.535,-2.559 -3.551,-4.653 -5.864,-6.231" /><path
         id="path90"
         style="fill:#394051;fill-opacity:1;fill-rule:nonzero;stroke:none"
         d="m 161.363,155.816 -13.531,8.11 c -1.227,0.734 -2.348,1.582 -3.352,2.515 -0.308,2.782 -0.031,5.676 0.911,8.504 l 0.437,1.317 12.356,-12.114 3.179,-8.332" /><path
         id="path92"
         style="fill:#343945;fill-opacity:1;fill-rule:nonzero;stroke:none"
         d="m 168.629,151.465 -7.266,4.351 -3.179,8.332 5.726,-5.613 4.719,-7.07" /><path
         id="path94"
         style="fill:#31333d;fill-opacity:1;fill-rule:nonzero;stroke:none"
         d="m 175.047,147.617 -6.418,3.848 -4.719,7.07 11.137,-10.918" /><path
         id="path96"
         style="fill:#343945;fill-opacity:1;fill-rule:nonzero;stroke:none"
         d="m 226.93,126.684 -10.461,3.488 13.48,8.996 c 1.028,-0.16 2.059,-0.242 3.086,-0.242 2.469,0 4.914,0.457 7.207,1.34 L 226.93,126.684 m -68.746,37.464 -12.356,12.114 2.086,6.25 7.621,-11.426 2.649,-6.938" /><path
         id="path98"
         style="fill:#31333d;fill-opacity:1;fill-rule:nonzero;stroke:none"
         d="m 163.91,158.535 -5.726,5.613 -2.649,6.938 8.375,-12.551" /><path
         id="path100"
         style="fill:#31333d;fill-opacity:1;fill-rule:nonzero;stroke:none"
         d="m 216.469,130.172 -11.731,3.91 12.121,4.625 c 0.383,-0.023 0.766,-0.035 1.149,-0.035 2.672,0 5.344,0.535 7.844,1.598 1.339,-0.52 2.714,-0.887 4.097,-1.102 l -13.48,-8.996 m -60.934,40.914 -7.621,11.426 1.457,4.379 c 0.078,-0.09 0.156,-0.176 0.234,-0.262 l 5.93,-15.543" /><path
         id="path102"
         style="fill:#2d2e36;fill-opacity:1;fill-rule:nonzero;stroke:none"
         d="m 204.738,134.082 -16.015,5.34 -13.676,8.195 -11.137,10.918 -8.375,12.551 -5.93,15.543 c 0.379,-0.422 0.782,-0.824 1.2,-1.215 0.832,-7.519 5.914,-14.242 13.562,-16.793 l 6.5,-2.168 2.442,-6.402 c 2.906,-7.613 9.961,-12.426 17.605,-12.844 3.813,-3.82 8.945,-5.852 14.156,-5.852 0.879,0 1.758,0.055 2.633,0.172 2.82,-1.699 5.973,-2.64 9.156,-2.82 l -12.121,-4.625" /><path
         id="path104"
         style="fill:#696663;fill-opacity:1;fill-rule:nonzero;stroke:none"
         d="m 190.914,147.207 c -7.644,0.418 -14.699,5.231 -17.605,12.844 l -2.442,6.402 8.672,-2.89 8.879,-13.305 c 0.742,-1.117 1.582,-2.137 2.496,-3.051 m 82.055,30.992 1.894,5.688 v 0 l -1.894,-5.688 v 0" /><path
         id="path106"
         style="fill:#7d7c76;fill-opacity:1;fill-rule:nonzero;stroke:none"
         d="m 205.07,141.355 c -5.211,0 -10.343,2.032 -14.156,5.852 -0.914,0.914 -1.754,1.934 -2.496,3.051 l -8.879,13.305 7.445,-2.481 17.024,-16.691 c 1.14,-1.118 2.383,-2.075 3.695,-2.864 -0.875,-0.117 -1.754,-0.172 -2.633,-0.172 m 69.793,42.532 2.129,6.379 v 0 l -2.129,-6.379 v 0" /><path
         id="path108"
         style="fill:#aeabaa;fill-opacity:1;fill-rule:nonzero;stroke:none"
         d="m 218.008,138.672 c -0.383,0 -0.766,0.012 -1.149,0.035 -3.183,0.18 -6.336,1.121 -9.156,2.82 -1.312,0.789 -2.555,1.746 -3.695,2.864 l -17.024,16.691 8.055,-2.684 27.734,-16.625 c 1,-0.597 2.028,-1.097 3.079,-1.503 -2.5,-1.063 -5.172,-1.598 -7.844,-1.598 m 58.984,51.594 2.301,6.906 v 0.004 l -2.301,-6.91 v 0" /><path
         id="path110"
         style="fill:#404a5f;fill-opacity:1;fill-rule:nonzero;stroke:none"
         d="m 176.512,268.309 82.722,248.164 c 0.012,0.031 0.024,0.058 0.032,0.09 L 176.512,268.309 v 0" /><path
         id="path112"
         style="fill:#b7b7a7;fill-opacity:1;fill-rule:nonzero;stroke:none"
         d="m 174.035,260.875 2.477,7.434 v 0 l -2.477,-7.434 v 0" /><path
         id="path114"
         style="fill:#b7b7a7;fill-opacity:1;fill-rule:nonzero;stroke:none"
         d="m 171.906,254.492 2.129,6.383 v 0 l -2.125,-6.379 -0.004,-0.004" /><path
         id="path116"
         style="fill:#d4d3d1;fill-opacity:1;fill-rule:nonzero;stroke:none"
         d="m 169.605,247.59 2.301,6.902 0.004,0.004 -2.305,-6.906 v 0" /><path
         id="path118"
         style="fill:#b77744;fill-opacity:1;fill-rule:nonzero;stroke:none"
         d="m 308.516,284.836 64.574,193.715 c -0.004,-0.008 -0.008,-0.02 -0.012,-0.028 L 308.516,284.84 v -0.004" /><path
         id="path120"
         style="fill:#d4d3d1;fill-opacity:1;fill-rule:nonzero;stroke:none"
         d="m 233.035,138.926 c -1.027,0 -2.058,0.082 -3.086,0.242 -1.383,0.215 -2.758,0.582 -4.097,1.102 -1.051,0.406 -2.079,0.906 -3.079,1.503 l -27.734,16.625 45.223,-15.074 c 1.351,-0.453 2.722,-0.75 4.09,-0.906 -1.289,-0.879 -2.668,-1.602 -4.11,-2.152 -2.293,-0.883 -4.738,-1.34 -7.207,-1.34 m -82.23,46.488 c -0.418,0.391 -0.821,0.793 -1.2,1.215 -0.078,0.086 -0.156,0.172 -0.234,0.262 l 20.234,60.699 v 0 l -17.886,-53.668 c -0.946,-2.832 -1.223,-5.727 -0.914,-8.508 m 128.488,11.758 29.223,87.664 v 0.004 l -29.223,-87.664 v -0.004" /><path
         id="path122"
         style="fill:#c84755;fill-opacity:1;fill-rule:nonzero;stroke:none"
         d="m 246.594,152.289 c -1.067,0 -2.129,0.176 -3.164,0.524 l -75.903,25.296 c -2.539,0.844 -4.589,2.621 -5.781,5.016 -1.187,2.387 -1.387,5.098 -0.547,7.633 l 113.84,341.523 c 1.367,4.098 5.188,6.844 9.492,6.844 1.074,0 2.141,-0.176 3.164,-0.516 l 75.899,-25.304 c 2.539,-0.844 4.59,-2.621 5.781,-5.012 1.199,-2.391 1.387,-5.102 0.547,-7.633 L 256.074,159.137 c -1.367,-4.098 -5.176,-6.848 -9.48,-6.848" /><path
         id="path124"
         style="fill:#ffffff;fill-opacity:1;fill-rule:nonzero;stroke:none"
         d="m 284.531,549.125 c -8.375,0 -16.176,-5.301 -18.968,-13.68 L 151.719,193.922 c -3.496,-10.481 2.168,-21.809 12.648,-25.301 l 75.895,-25.297 c 2.097,-0.699 4.23,-1.035 6.328,-1.035 8.371,0 16.176,5.301 18.969,13.684 l 113.843,341.523 c 3.493,10.481 -2.172,21.805 -12.648,25.301 l -75.895,25.297 c -2.097,0.699 -4.23,1.031 -6.328,1.031 m 0.016,-20.008 75.883,-25.297 -113.844,-341.523 -75.895,25.297 113.856,341.523" /><path
         id="path126"
         style="fill:#a43f4a;fill-opacity:1;fill-rule:nonzero;stroke:none"
         d="m 221.051,192.898 c -1.965,0 -3.965,0.313 -5.934,0.969 -9.824,3.274 -15.133,13.895 -11.855,23.719 2.617,7.855 9.933,12.824 17.785,12.824 1.965,0 3.965,-0.312 5.93,-0.969 9.824,-3.273 15.132,-13.89 11.859,-23.714 -2.617,-7.86 -9.938,-12.829 -17.785,-12.829" /><path
         id="path128"
         style="fill:#ffffff;fill-opacity:1;fill-rule:nonzero;stroke:none"
         d="m 242.789,217.586 c -3.277,-9.824 -13.894,-15.137 -23.719,-11.859 -9.824,3.273 -15.132,13.89 -11.855,23.714 3.273,9.825 13.89,15.133 23.715,11.86 9.824,-3.274 15.133,-13.895 11.859,-23.715" /></g></g></svg>