<?xml version="1.0" encoding="UTF-8" standalone="no"?>
<svg
   xmlns:dc="http://purl.org/dc/elements/1.1/"
   xmlns:cc="http://creativecommons.org/ns#"
   xmlns:rdf="http://www.w3.org/1999/02/22-rdf-syntax-ns#"
   xmlns:svg="http://www.w3.org/2000/svg"
   xmlns="http://www.w3.org/2000/svg"
   viewBox="0 0 85.333336 85.333336"
   height="85.333336"
   width="85.333336"
   xml:space="preserve"
   id="svg2"
   version="1.1"><metadata
     id="metadata8"><rdf:RDF><cc:Work
         rdf:about=""><dc:format>image/svg+xml</dc:format><dc:type
           rdf:resource="http://purl.org/dc/dcmitype/StillImage" /></cc:Work></rdf:RDF></metadata><defs
     id="defs6" /><g
     transform="matrix(1.3333333,0,0,-1.3333333,0,85.333333)"
     id="g10"><g
       transform="scale(0.1)"
       id="g12"><path
         id="path14"
         style="fill:#e08e4c;fill-opacity:1;fill-rule:nonzero;stroke:none"
         d="M 640,320 C 640,143.27 496.73,0 320,0 143.27,0 0,143.27 0,320 0,496.73 143.27,640 320,640 496.73,640 640,496.73 640,320" /><path
         id="path16"
         style="fill:#b77744;fill-opacity:1;fill-rule:nonzero;stroke:none"
         d="M 430,110 H 210 c -22.09,0 -40,17.91 -40,40 v 320 0 -300 c 0,-22.09 17.91,-40 40,-40 h 220 c 22.09,0 40,17.91 40,40 v -20 c 0,-22.09 -17.91,-40 -40,-40" /><path
         id="path18"
         style="fill:#495672;fill-opacity:1;fill-rule:nonzero;stroke:none"
         d="m 210,145 c -13.785,0 -25,11.215 -25,25 v 320 c 0,13.785 11.215,25 25,25 h 220 c 13.785,0 25,-11.215 25,-25 V 170 c 0,-13.785 -11.215,-25 -25,-25 H 210" /><path
         id="path20"
         style="fill:#ffffff;fill-opacity:1;fill-rule:nonzero;stroke:none"
         d="M 430,530 H 210 c -22.09,0 -40,-17.91 -40,-40 V 170 c 0,-22.09 17.91,-40 40,-40 h 220 c 22.09,0 40,17.91 40,40 v 320 c 0,22.09 -17.91,40 -40,40 m 0,-30 c 5.516,0 10,-4.484 10,-10 V 170 c 0,-5.516 -4.484,-10 -10,-10 H 210 c -5.516,0 -10,4.484 -10,10 v 320 c 0,5.516 4.484,10 10,10 h 220" /><path
         id="path22"
         style="fill:#6c7990;fill-opacity:1;fill-rule:nonzero;stroke:none"
         d="M 430,160 H 393.723 L 253.234,500 H 430 c 5.516,0 10,-4.484 10,-10 V 170 c 0,-5.516 -4.484,-10 -10,-10" /><path
         id="path24"
         style="fill:#ffffff;fill-opacity:1;fill-rule:nonzero;stroke:none"
         d="M 399.773,145.359 393.723,160 H 430 c 5.516,0 10,4.484 10,10 v 320 c 0,5.516 -4.484,10 -10,10 H 253.234 l -6.199,15 H 450 V 154.645 c -16.781,-2.887 -33.551,-5.832 -50.227,-9.286" /><path
         id="path26"
         style="fill:#ffffff;fill-opacity:1;fill-rule:nonzero;stroke:none"
         d="M 450,140 H 200 l -10,70 h 260 v -70" /><path
         id="path28"
         style="fill:#e1e3cc;fill-opacity:1;fill-rule:nonzero;stroke:none"
         d="m 340,170 c 0,11.047 -8.953,20 -20,20 -11.047,0 -20,-8.953 -20,-20 0,-11.047 8.953,-20 20,-20 11.047,0 20,8.953 20,20" /></g></g></svg>