<?xml version="1.0" encoding="UTF-8" standalone="no"?>
<svg
   xmlns:dc="http://purl.org/dc/elements/1.1/"
   xmlns:cc="http://creativecommons.org/ns#"
   xmlns:rdf="http://www.w3.org/1999/02/22-rdf-syntax-ns#"
   xmlns:svg="http://www.w3.org/2000/svg"
   xmlns="http://www.w3.org/2000/svg"
   viewBox="0 0 85.333336 85.333336"
   height="85.333336"
   width="85.333336"
   xml:space="preserve"
   id="svg2"
   version="1.1"><metadata
     id="metadata8"><rdf:RDF><cc:Work
         rdf:about=""><dc:format>image/svg+xml</dc:format><dc:type
           rdf:resource="http://purl.org/dc/dcmitype/StillImage" /></cc:Work></rdf:RDF></metadata><defs
     id="defs6" /><g
     transform="matrix(1.3333333,0,0,-1.3333333,0,85.333333)"
     id="g10"><g
       transform="scale(0.1)"
       id="g12"><path
         id="path14"
         style="fill:#77caa9;fill-opacity:1;fill-rule:nonzero;stroke:none"
         d="M 640,320 C 640,143.27 496.73,0 320,0 143.27,0 0,143.27 0,320 0,496.73 143.27,640 320,640 496.73,640 640,496.73 640,320" /><path
         id="path16"
         style="fill:#62a48d;fill-opacity:1;fill-rule:nonzero;stroke:none"
         d="m 223.344,177.188 c -5.446,0 -11.067,0.351 -16.84,1.132 -26.883,3.637 -61.453,12.571 -105.231,30.801 L 120,233.66 h 102.449 c 0,0 32.172,26.789 70.762,59.223 l 38.453,-5.891 73.336,62.285 h -45.078 c 29.133,24.821 53.414,45.879 60.91,53.375 15.594,15.594 50.16,27.348 79.563,27.348 6.929,0 13.566,-0.652 19.605,-2.062 10.629,-2.477 14.855,-11.637 -15.145,-41.637 L 310.176,208.551 c 0,0 -35.535,-31.363 -86.832,-31.363" /><path
         id="path18"
         style="fill:#62a48d;fill-opacity:1;fill-rule:nonzero;stroke:none"
         d="M 293.211,292.883 157.5,313.66 l 25.938,35.617 h 176.484 c -21.203,-18.066 -44.977,-38.125 -66.711,-56.394" /><path
         id="path20"
         style="fill:#538777;fill-opacity:1;fill-rule:nonzero;stroke:none"
         d="m 331.664,286.992 -38.453,5.891 c 21.734,18.269 45.508,38.328 66.711,56.394 H 405 l -73.336,-62.285" /><path
         id="path22"
         style="fill:#ffffff;fill-opacity:1;fill-rule:nonzero;stroke:none"
         d="M 504.855,406.301 310.176,228.551 c 0,0 -43.477,-38.371 -103.672,-30.231 -26.883,3.637 -61.453,12.571 -105.231,30.801 L 120,253.66 h 102.449 c 0,0 175.742,146.352 198.383,168.992 19.266,19.266 67.5,32.672 99.168,25.286 10.629,-2.477 14.855,-11.637 -15.145,-41.637" /><path
         id="path24"
         style="fill:#ffffff;fill-opacity:1;fill-rule:nonzero;stroke:none"
         d="M 331.668,306.992 157.5,333.66 l 22.5,40 h 230 l -78.332,-66.668" /></g></g></svg>