<?xml version="1.0" encoding="UTF-8" standalone="no"?>
<svg
   xmlns:dc="http://purl.org/dc/elements/1.1/"
   xmlns:cc="http://creativecommons.org/ns#"
   xmlns:rdf="http://www.w3.org/1999/02/22-rdf-syntax-ns#"
   xmlns:svg="http://www.w3.org/2000/svg"
   xmlns="http://www.w3.org/2000/svg"
   viewBox="0 0 85.333336 85.333336"
   height="85.333336"
   width="85.333336"
   xml:space="preserve"
   id="svg2"
   version="1.1"><metadata
     id="metadata8"><rdf:RDF><cc:Work
         rdf:about=""><dc:format>image/svg+xml</dc:format><dc:type
           rdf:resource="http://purl.org/dc/dcmitype/StillImage" /></cc:Work></rdf:RDF></metadata><defs
     id="defs6" /><g
     transform="matrix(1.3333333,0,0,-1.3333333,0,85.333333)"
     id="g10"><g
       transform="scale(0.1)"
       id="g12"><path
         id="path14"
         style="fill:#495672;fill-opacity:1;fill-rule:nonzero;stroke:none"
         d="M 640,320 C 640,143.27 496.73,0 320,0 143.27,0 0,143.27 0,320 0,496.73 143.27,640 320,640 496.73,640 640,496.73 640,320" /><path
         id="path16"
         style="fill:#404a5f;fill-opacity:1;fill-rule:nonzero;stroke:none"
         d="m 320,80 c -121.504,0 -220,98.496 -220,220 0,121.504 98.496,220 220,220 121.504,0 220,-98.496 220,-220 C 540,178.496 441.504,80 320,80" /><path
         id="path18"
         style="fill:#c84755;fill-opacity:1;fill-rule:nonzero;stroke:none"
         d="m 320,120 c -110.277,0 -200,89.719 -200,200 0,110.281 89.723,200 200,200 110.277,0 200,-89.719 200,-200 0,-110.281 -89.723,-200 -200,-200" /><path
         id="path20"
         style="fill:#ffffff;fill-opacity:1;fill-rule:nonzero;stroke:none"
         d="m 320,540 c -121.504,0 -220,-98.496 -220,-220 0,-121.504 98.496,-220 220,-220 121.504,0 220,98.496 220,220 0,121.504 -98.496,220 -220,220 z m 0,-40 c 99.254,0 180,-80.746 180,-180 0,-99.254 -80.746,-180 -180,-180 -99.254,0 -180,80.746 -180,180 0,99.254 80.746,180 180,180" /><path
         id="path22"
         style="fill:#ffffff;fill-opacity:1;fill-rule:nonzero;stroke:none"
         d="m 320,460 c -77.32,0 -140,-62.68 -140,-140 0,-77.32 62.68,-140 140,-140 77.32,0 140,62.68 140,140 0,77.32 -62.68,140 -140,140 z m 0,-40 c 55.141,0 100,-44.859 100,-100 0,-55.141 -44.859,-100 -100,-100 -55.141,0 -100,44.859 -100,100 0,55.141 44.859,100 100,100" /><path
         id="path24"
         style="fill:#ffffff;fill-opacity:1;fill-rule:nonzero;stroke:none"
         d="m 370,320 c 0,-27.613 -22.387,-50 -50,-50 -27.613,0 -50,22.387 -50,50 0,27.613 22.387,50 50,50 27.613,0 50,-22.387 50,-50" /></g></g></svg>