<?xml version="1.0" encoding="UTF-8" standalone="no"?>
<svg
   xmlns:dc="http://purl.org/dc/elements/1.1/"
   xmlns:cc="http://creativecommons.org/ns#"
   xmlns:rdf="http://www.w3.org/1999/02/22-rdf-syntax-ns#"
   xmlns:svg="http://www.w3.org/2000/svg"
   xmlns="http://www.w3.org/2000/svg"
   viewBox="0 0 85.333336 85.333336"
   height="85.333336"
   width="85.333336"
   xml:space="preserve"
   id="svg2"
   version="1.1"><metadata
     id="metadata8"><rdf:RDF><cc:Work
         rdf:about=""><dc:format>image/svg+xml</dc:format><dc:type
           rdf:resource="http://purl.org/dc/dcmitype/StillImage" /></cc:Work></rdf:RDF></metadata><defs
     id="defs6" /><g
     transform="matrix(1.3333333,0,0,-1.3333333,0,85.333333)"
     id="g10"><g
       transform="scale(0.1)"
       id="g12"><path
         id="path14"
         style="fill:#495672;fill-opacity:1;fill-rule:nonzero;stroke:none"
         d="M 640,320 C 640,143.27 496.73,0 320,0 143.27,0 0,143.27 0,320 0,496.73 143.27,640 320,640 496.73,640 640,496.73 640,320" /><path
         id="path16"
         style="fill:#404a5f;fill-opacity:1;fill-rule:nonzero;stroke:none"
         d="m 180,120 h -20 c -11.047,0 -20,8.953 -20,20 v 23.426 0 V 160 c 0,-11.047 8.953,-20 20,-20 h 20 c 11.047,0 20,8.953 20,20 v 0 -20 c 0,-11.047 -8.953,-20 -20,-20" /><path
         id="path18"
         style="fill:#404a5f;fill-opacity:1;fill-rule:nonzero;stroke:none"
         d="m 480,120 h -20 c -11.047,0 -20,8.953 -20,20 v 20 c 0,-11.047 8.953,-20 20,-20 h 20 c 11.047,0 20,8.953 20,20 v -20 c 0,-11.047 -8.953,-20 -20,-20" /><path
         id="path20"
         style="fill:#e08e4c;fill-opacity:1;fill-rule:nonzero;stroke:none"
         d="m 200,160 c 0,-11.047 -8.953,-20 -20,-20 h -20 c -11.047,0 -20,8.953 -20,20 v 110 c 0,11.047 8.953,20 20,20 h 20 c 11.047,0 20,-8.953 20,-20 V 160" /><path
         id="path22"
         style="fill:#e08e4c;fill-opacity:1;fill-rule:nonzero;stroke:none"
         d="m 500,160 c 0,-11.047 -8.953,-20 -20,-20 h -20 c -11.047,0 -20,8.953 -20,20 v 110 c 0,11.047 8.953,20 20,20 h 20 c 11.047,0 20,-8.953 20,-20 V 160" /><path
         id="path24"
         style="fill:#404a5f;fill-opacity:1;fill-rule:nonzero;stroke:none"
         d="m 180.594,320.168 c -0.832,0.055 -1.621,0.117 -2.352,0.195 -1.086,0.11 -2.047,0.25 -2.855,0.399 l 23.89,83.91 0.032,0.117 c 2.082,7.902 5.711,15.336 9.48,19.539 1.879,2.141 3.672,3.508 5.363,4.356 1.715,0.836 3.344,1.293 5.848,1.316 h 200 c 2.504,-0.023 4.133,-0.48 5.848,-1.316 2.504,-1.235 5.39,-3.801 8.14,-8.075 2.723,-4.191 5.102,-9.863 6.68,-15.742 l 22.238,-84.265 c -0.968,-0.141 -2.152,-0.278 -3.511,-0.387 l -18.868,65.176 C 438.328,393.258 432.219,410 420,410 H 220 c -12.219,0 -18.328,-16.742 -20.527,-24.609 l -18.879,-65.223" /><path
         id="path26"
         style="fill:#f3cc70;fill-opacity:1;fill-rule:nonzero;stroke:none"
         d="m 483.75,320 h -20 c 0,-0.949 -0.102,-1.348 -0.098,-1.352 l 4.352,-1.082 -3.012,3.141 -1.34,-2.059 4.352,-1.082 -3.012,3.141 2.973,-3.102 -2.313,3.633 -0.66,-0.531 2.973,-3.102 -2.313,3.633 1,-1.574 -0.879,1.645 -0.121,-0.071 1,-1.574 -0.879,1.645 -0.168,-0.071 c -1.039,-0.593 -7.242,-1.418 -15.175,-1.293 -3.203,0 -6.715,0.055 -10.43,0.055 H 200 c -3.715,0 -7.27,-0.055 -10.559,-0.055 -4.336,0 -8.218,0.106 -11.199,0.418 -2.23,0.227 -3.937,0.578 -4.875,0.871 l -0.73,0.258 -0.121,0.059 -2.262,-3.887 3.867,2.098 c -0.441,0.906 -1.496,1.777 -1.605,1.789 l -2.262,-3.887 3.867,2.098 -2.676,-1.449 2.996,0.679 -0.32,0.77 -2.676,-1.449 2.996,0.679 -0.066,1.008 h -20 l 19.234,-5.477 25.668,90.149 0.032,0.117 c 2.082,7.902 5.711,15.336 9.48,19.539 1.879,2.141 3.672,3.508 5.363,4.356 1.715,0.836 3.344,1.293 5.848,1.316 h 200 c 2.504,-0.023 4.133,-0.48 5.848,-1.316 2.504,-1.235 5.39,-3.801 8.14,-8.075 2.735,-4.211 5.121,-9.914 6.703,-15.82 l -0.031,0.109 23.75,-90 19.34,5.102 h -20 20 l 19.34,5.105 -23.774,90.079 -0.007,0.027 c -3.317,12.102 -8.641,24.668 -18,35.465 -4.688,5.355 -10.496,10.238 -17.536,13.765 -7.011,3.543 -15.23,5.582 -23.773,5.559 H 220 c -8.543,0.023 -16.762,-2.016 -23.773,-5.559 -10.59,-5.328 -18.274,-13.539 -23.832,-22.156 -5.579,-8.68 -9.239,-17.98 -11.704,-27.074 L 180,410 160.766,415.477 134.375,322.793 V 320 c -0.047,-7.547 1.82,-15.527 6.285,-22.121 3.289,-4.93 7.766,-8.695 12.203,-11.168 6.731,-3.738 13.227,-5.102 19.258,-5.902 6.059,-0.762 11.828,-0.852 17.32,-0.86 3.688,0 7.239,0.051 10.559,0.051 h 240 c 3.316,0 6.816,-0.051 10.43,-0.051 4.781,0.004 9.75,0.078 14.953,0.637 3.902,0.426 7.965,1.117 12.234,2.488 3.196,1.035 6.524,2.481 9.793,4.598 4.903,3.125 9.563,8.051 12.379,13.922 2.871,5.867 3.969,12.211 3.961,18.406 v 2.598 l -0.66,2.507 L 483.75,320" /><path
         id="path28"
         style="fill:#404a5f;fill-opacity:1;fill-rule:nonzero;stroke:none"
         d="M 440,200 H 200 v 60 h 240 v -10 0 -50" /><path
         id="path30"
         style="fill:#b77744;fill-opacity:1;fill-rule:nonzero;stroke:none"
         d="m 200,200 h -40 c -11.031,0 -20,8.969 -20,20 v 40 c 0,9.566 6.746,17.578 15.73,19.543 C 166.707,267.539 182.488,260 200,260 v -60" /><path
         id="path32"
         style="fill:#b77744;fill-opacity:1;fill-rule:nonzero;stroke:none"
         d="m 480,200 h -40 v 60 c 17.512,0 33.293,7.539 44.27,19.543 C 493.254,277.578 500,269.566 500,260 v -40 c 0,-11.031 -8.969,-20 -20,-20" /><path
         id="path34"
         style="fill:#394051;fill-opacity:1;fill-rule:nonzero;stroke:none"
         d="M 440,260 H 200 v 0 10 c 0,3.641 -0.973,7.051 -2.672,9.992 0.586,0.004 1.164,0.008 1.738,0.008 H 440.93 c 0.578,0 1.156,-0.004 1.742,-0.008 C 440.973,277.051 440,273.641 440,270 v -10" /><path
         id="path36"
         style="fill:#97633d;fill-opacity:1;fill-rule:nonzero;stroke:none"
         d="m 200,260 c -17.512,0 -33.293,7.539 -44.27,19.543 1.375,0.301 2.805,0.457 4.27,0.457 h 24.109 c 1.805,-0.039 3.582,-0.051 5.332,-0.051 2.715,0 5.36,0.028 7.887,0.043 C 199.027,277.051 200,273.641 200,270 v -10" /><path
         id="path38"
         style="fill:#97633d;fill-opacity:1;fill-rule:nonzero;stroke:none"
         d="m 440,260 v 0 10 c 0,3.641 0.973,7.051 2.672,9.992 2.508,-0.015 5.101,-0.043 7.758,-0.043 1.715,0 3.449,0.012 5.211,0.051 H 480 c 1.465,0 2.895,-0.156 4.27,-0.457 C 473.293,267.539 457.512,260 440,260" /><path
         id="path40"
         style="fill:#c7a85f;fill-opacity:1;fill-rule:nonzero;stroke:none"
         d="m 450.43,279.949 c -2.657,0 -5.25,0.028 -7.758,0.043 -0.586,0.004 -1.164,0.008 -1.742,0.008 h 14.711 c -1.762,-0.039 -3.496,-0.051 -5.211,-0.051 m -260.989,0 c -1.75,0 -3.527,0.012 -5.332,0.051 h 14.957 c -0.574,0 -1.152,-0.004 -1.738,-0.008 -2.527,-0.015 -5.172,-0.043 -7.887,-0.043" /><path
         id="path42"
         style="fill:#404a5f;fill-opacity:1;fill-rule:nonzero;stroke:none"
         d="M 440,160 H 200 v 0 40 h 240 v -40 m 60,3.426 V 220 v 0 40 0 10 c 0,7.313 -3.926,13.707 -9.781,17.195 1.109,1.696 2.136,3.446 3.074,5.254 2.582,2.614 4.852,5.719 6.496,9.145 2.133,4.355 3.285,8.976 3.734,13.601 C 524.949,306.031 540,284.742 540,260 v -40 c 0,-26.078 -16.719,-48.32 -40,-56.574 m -360,0 C 116.719,171.68 100,193.922 100,220 v 40 c 0,24.051 14.223,44.84 34.695,54.398 0.703,-5.773 2.594,-11.543 5.965,-16.519 2.11,-3.16 4.707,-5.844 7.469,-8.016 0.527,-0.902 1.078,-1.793 1.652,-2.668 C 143.926,283.707 140,277.313 140,270 v -20 0 -86.574 m 312.063,156.508 c -0.536,0 -1.079,0.004 -1.633,0.011 -3.203,0 -6.715,0.055 -10.43,0.055 h 15.684 c -1.145,-0.043 -2.356,-0.066 -3.621,-0.066 m -262.836,0.011 c -1.629,0 -3.192,0.02 -4.661,0.055 L 200,320 c -3.715,0 -7.27,-0.055 -10.559,-0.055 -0.07,0 -0.144,0 -0.214,0" /><path
         id="path44"
         style="fill:#b77744;fill-opacity:1;fill-rule:nonzero;stroke:none"
         d="m 200,160 h -40 c -7.008,0 -13.742,1.207 -20,3.426 V 250 270 c 0,7.313 3.926,13.707 9.781,17.195 1.778,-2.711 3.77,-5.269 5.949,-7.652 C 146.746,277.578 140,269.566 140,260 v -40 c 0,-11.031 8.969,-20 20,-20 h 40 v -40 0 0" /><path
         id="path46"
         style="fill:#b77744;fill-opacity:1;fill-rule:nonzero;stroke:none"
         d="m 480,160 h -40 v 0 40 h 40 c 11.031,0 20,8.969 20,20 V 163.426 C 493.742,161.207 487.008,160 480,160 m 20,100 c 0,9.566 -6.746,17.578 -15.73,19.543 2.179,2.383 4.171,4.941 5.949,7.652 C 496.074,283.707 500,277.313 500,270 v -10" /><path
         id="path48"
         style="fill:#394051;fill-opacity:1;fill-rule:nonzero;stroke:none"
         d="M 440.93,280 H 199.066 c 0.313,0 0.625,0 0.934,0 h 240 c 0.309,0 0.617,0 0.93,0 m -291.149,7.195 c -0.574,0.875 -1.125,1.766 -1.652,2.668 0.93,-0.73 1.879,-1.402 2.836,-2.015 -0.402,-0.203 -0.797,-0.422 -1.184,-0.653 m 340.438,0 c -0.633,0.379 -1.293,0.723 -1.973,1.032 1.75,1.195 3.457,2.613 5.047,4.222 -0.938,-1.808 -1.965,-3.558 -3.074,-5.254" /><path
         id="path50"
         style="fill:#97633d;fill-opacity:1;fill-rule:nonzero;stroke:none"
         d="m 155.73,279.543 c -2.179,2.383 -4.171,4.941 -5.949,7.652 0.387,0.231 0.782,0.45 1.184,0.653 0.633,-0.407 1.265,-0.785 1.898,-1.137 6.731,-3.738 13.227,-5.102 19.258,-5.902 4.129,-0.52 8.121,-0.727 11.988,-0.809 H 160 c -1.465,0 -2.895,-0.156 -4.27,-0.457" /><path
         id="path52"
         style="fill:#97633d;fill-opacity:1;fill-rule:nonzero;stroke:none"
         d="M 484.27,279.543 C 482.895,279.844 481.465,280 480,280 h -24.359 c 3.16,0.07 6.402,0.227 9.742,0.586 3.902,0.426 7.965,1.117 12.234,2.488 3.196,1.035 6.524,2.481 9.793,4.598 0.281,0.18 0.559,0.363 0.836,0.555 0.68,-0.309 1.34,-0.653 1.973,-1.032 -1.778,-2.711 -3.77,-5.269 -5.949,-7.652" /><path
         id="path54"
         style="fill:#c7a85f;fill-opacity:1;fill-rule:nonzero;stroke:none"
         d="M 455.641,280 H 440.93 c -0.313,0 -0.621,0 -0.93,0 H 200 c -0.309,0 -0.621,0 -0.934,0 h -14.957 c -3.867,0.082 -7.859,0.289 -11.988,0.809 -6.031,0.8 -12.527,2.164 -19.258,5.902 -0.633,0.352 -1.265,0.73 -1.898,1.137 -0.957,0.613 -1.906,1.285 -2.836,2.015 -2.762,2.172 -5.359,4.856 -7.469,8.016 -3.371,4.976 -5.262,10.746 -5.965,16.519 7.696,3.594 16.27,5.602 25.305,5.602 h 24.566 c 1.469,-0.035 3.032,-0.055 4.661,-0.055 0.07,0 0.144,0 0.214,0 3.289,0 6.844,0.055 10.559,0.055 h 240 c 3.715,0 7.227,-0.055 10.43,-0.055 0.554,-0.007 1.097,-0.011 1.633,-0.011 1.265,0 2.476,0.023 3.621,0.066 L 480,320 c 8.344,0 16.297,-1.715 23.523,-4.805 -0.449,-4.625 -1.601,-9.246 -3.734,-13.601 -1.644,-3.426 -3.914,-6.531 -6.496,-9.145 -1.59,-1.609 -3.297,-3.027 -5.047,-4.222 -0.277,-0.192 -0.555,-0.375 -0.836,-0.555 -3.269,-2.117 -6.597,-3.563 -9.793,-4.598 -4.269,-1.371 -8.332,-2.062 -12.234,-2.488 -3.34,-0.359 -6.582,-0.516 -9.742,-0.586" /><path
         id="path56"
         style="fill:#f3cc70;fill-opacity:1;fill-rule:nonzero;stroke:none"
         d="m 520,240 c 0,-22.09 -17.91,-40 -40,-40 H 160 c -22.09,0 -40,17.91 -40,40 v 40 c 0,22.09 17.91,40 40,40 h 320 c 22.09,0 40,-17.91 40,-40 v -40" /><path
         id="path58"
         style="fill:#f3cc70;fill-opacity:1;fill-rule:nonzero;stroke:none"
         d="m 520,240 h -20 c -0.012,-5.586 -2.207,-10.457 -5.859,-14.141 C 490.461,222.207 485.586,220.012 480,220 H 160 c -5.586,0.012 -10.461,2.207 -14.141,5.859 -3.652,3.684 -5.847,8.555 -5.859,14.141 v 40 c 0.012,5.586 2.207,10.461 5.859,14.145 3.68,3.648 8.555,5.843 14.141,5.855 h 320 c 5.586,-0.012 10.461,-2.207 14.141,-5.855 3.652,-3.684 5.847,-8.559 5.859,-14.145 v -40 h 20 20 v 40 c -0.012,33.145 -26.855,59.988 -60,60 H 160 c -33.145,-0.012 -59.988,-26.855 -60,-60 v -40 c 0.012,-33.145 26.855,-59.988 60,-60 h 320 c 33.145,0.012 59.988,26.855 60,60 h -20" /><path
         id="path60"
         style="fill:#e08e4c;fill-opacity:1;fill-rule:nonzero;stroke:none"
         d="m 210,250 c 0,-22.09 -17.91,-40 -40,-40 -22.09,0 -40,17.91 -40,40 0,22.09 17.91,40 40,40 22.09,0 40,-17.91 40,-40" /><path
         id="path62"
         style="fill:#f3cc70;fill-opacity:1;fill-rule:nonzero;stroke:none"
         d="m 210,250 h -10 c -0.031,-16.562 -13.437,-29.969 -30,-30 -16.566,0.031 -29.969,13.438 -30,30 0.031,16.566 13.434,29.973 30,30 16.563,-0.027 29.969,-13.434 30,-30 h 10 10 c -0.008,27.617 -22.383,49.992 -50,50 -27.617,-0.008 -49.992,-22.383 -50,-50 0.008,-27.617 22.383,-49.992 50,-50 27.617,0.008 49.992,22.383 50,50 h -10" /><path
         id="path64"
         style="fill:#e08e4c;fill-opacity:1;fill-rule:nonzero;stroke:none"
         d="m 510,250 c 0,-22.09 -17.91,-40 -40,-40 -22.09,0 -40,17.91 -40,40 0,22.09 17.91,40 40,40 22.09,0 40,-17.91 40,-40" /><path
         id="path66"
         style="fill:#f3cc70;fill-opacity:1;fill-rule:nonzero;stroke:none"
         d="m 510,250 h -10 c -0.031,-16.562 -13.437,-29.969 -30,-30 -16.566,0.031 -29.969,13.438 -30,30 0.031,16.566 13.434,29.973 30,30 16.563,-0.027 29.969,-13.434 30,-30 h 10 10 c -0.008,27.617 -22.383,49.992 -50,50 -27.617,-0.008 -49.992,-22.383 -50,-50 0.008,-27.617 22.383,-49.992 50,-50 27.617,0.008 49.992,22.383 50,50 h -10" /><path
         id="path68"
         style="fill:#495672;fill-opacity:1;fill-rule:nonzero;stroke:none"
         d="m 375.625,462.754 c 0,-8.93 1.246,-8.082 -7.684,-8.082 h -97 c -8.929,0 -8.441,-0.848 -8.441,8.082 l 0.355,6.379 c 2.184,8.082 7.239,16.164 16.168,16.164 h 80.836 c 8.93,0 13.985,-8.082 16.168,-16.164 l -0.402,-6.379" /><path
         id="path70"
         style="fill:#f3cc70;fill-opacity:1;fill-rule:nonzero;stroke:none"
         d="m 375.625,462.754 h -20 c 0.004,-2.328 0.066,-4.098 0.059,-4.555 v -0.074 l 14.121,-0.348 -13.442,4.118 c -0.773,-2.707 -0.636,-3.657 -0.679,-3.77 l 14.121,-0.348 -13.442,4.118 17.496,-5.364 -12.836,13.012 c -2.597,-2.523 -4.093,-5.688 -4.66,-7.648 l 17.496,-5.364 -12.836,13.012 12.903,-13.078 -7.039,16.976 c -1.719,-0.699 -3.961,-2.003 -5.864,-3.898 l 12.903,-13.078 -7.039,16.976 6.074,-14.656 -1.426,15.848 c -0.582,-0.078 -2.015,-0.137 -4.648,-1.192 l 6.074,-14.656 -1.426,15.848 0.559,-6.219 -0.18,6.246 -0.379,-0.027 0.559,-6.219 -0.18,6.246 -0.434,-0.004 c -0.718,0 -1.96,0.016 -3.539,0.016 h -97 c -1.601,0 -2.867,-0.02 -3.589,-0.02 l -0.442,0.004 h -0.062 l -0.696,-14.148 5.102,13.121 c -3.051,1.113 -4.262,0.973 -4.406,1.027 l -0.696,-14.148 5.102,13.121 -6.551,-16.848 14.141,11.227 c -2.106,2.75 -5.367,4.824 -7.59,5.621 l -6.551,-16.848 14.141,11.227 L 264.98,457 l 16.836,5.52 c -0.461,1.425 -1.367,3.468 -2.972,5.488 L 264.98,457 l 16.836,5.52 -12.691,-4.161 13.379,0.879 c -0.035,0.184 -0.004,1.102 -0.688,3.282 l -12.691,-4.161 13.379,0.879 -0.578,-0.039 0.582,0.024 -0.004,0.015 -0.578,-0.039 0.582,0.024 -0.012,1.168 c 0,0.601 0.004,1.41 0.004,2.363 h -20 l 19.969,-1.117 0.355,6.379 -19.969,1.117 19.313,-5.211 c 0.254,0.953 0.586,1.828 0.867,2.406 l 0.438,0.758 -0.285,0.211 0.261,-0.234 0.024,0.023 -0.285,0.211 0.261,-0.234 -3.594,3.21 2.102,-4.265 c 0.91,0.445 1.395,0.941 1.492,1.055 l -3.594,3.21 2.102,-4.265 -2.934,5.957 v -6.664 l 2.934,0.707 -2.934,5.957 v -6.664 h 80.836 v 6.668 l -2.976,-5.942 2.976,-0.726 v 6.668 l -2.976,-5.942 2.383,4.754 -3.707,-3.847 1.324,-0.907 2.383,4.754 -3.707,-3.847 1.5,1.562 -1.645,-1.41 0.145,-0.152 1.5,1.562 -1.645,-1.41 0.004,-0.008 c 0.141,-0.137 0.879,-1.5 1.297,-3.156 l 19.312,5.211 -19.961,1.254 -0.402,-6.375 -0.039,-0.625 v -0.633 h 20 l 19.961,-1.254 0.398,6.375 0.207,3.289 -0.855,3.18 c -1.707,6.14 -4.367,12.75 -9.813,19.074 -2.734,3.125 -6.277,6.145 -10.714,8.371 -4.414,2.238 -9.696,3.531 -14.95,3.508 h -80.836 c -5.253,0.023 -10.535,-1.27 -14.949,-3.508 -6.687,-3.375 -11.222,-8.375 -14.308,-13.152 -3.098,-4.84 -4.957,-9.668 -6.219,-14.293 l -0.543,-2.012 -0.473,-8.461 -0.031,-0.555 v -0.562 l -0.004,-2.363 c 0.016,-1.508 -0.031,-3 0.262,-5.571 0.265,-1.898 0.668,-4.675 2.574,-8.347 1.395,-2.711 3.91,-5.696 6.738,-7.625 4.328,-2.965 8.063,-3.594 10.289,-3.918 2.325,-0.289 3.727,-0.262 4.993,-0.278 1.242,0 2.343,0.02 3.589,0.02 h 97 c 1.27,0 2.356,-0.016 3.539,-0.016 1.239,0.016 2.602,-0.023 5.043,0.301 1.813,0.277 4.461,0.754 7.836,2.566 2.493,1.332 5.196,3.61 7.036,6.192 2.828,3.945 3.613,7.57 3.964,9.754 0.332,2.273 0.313,3.621 0.325,4.73 -0.004,1.797 -0.063,2.992 -0.059,4.555 h -20 l 19.961,-1.254 -19.961,1.254" /></g></g></svg>