<?xml version="1.0" encoding="UTF-8" standalone="no"?>
<svg
   xmlns:dc="http://purl.org/dc/elements/1.1/"
   xmlns:cc="http://creativecommons.org/ns#"
   xmlns:rdf="http://www.w3.org/1999/02/22-rdf-syntax-ns#"
   xmlns:svg="http://www.w3.org/2000/svg"
   xmlns="http://www.w3.org/2000/svg"
   viewBox="0 0 85.333336 85.333336"
   height="85.333336"
   width="85.333336"
   xml:space="preserve"
   id="svg2"
   version="1.1"><metadata
     id="metadata8"><rdf:RDF><cc:Work
         rdf:about=""><dc:format>image/svg+xml</dc:format><dc:type
           rdf:resource="http://purl.org/dc/dcmitype/StillImage" /></cc:Work></rdf:RDF></metadata><defs
     id="defs6" /><g
     transform="matrix(1.3333333,0,0,-1.3333333,0,85.333333)"
     id="g10"><g
       transform="scale(0.1)"
       id="g12"><path
         id="path14"
         style="fill:#77caa9;fill-opacity:1;fill-rule:nonzero;stroke:none"
         d="M 640,320 C 640,143.27 496.73,0 320,0 143.27,0 0,143.27 0,320 0,496.73 143.27,640 320,640 496.73,640 640,496.73 640,320" /><path
         id="path16"
         style="fill:#62a48d;fill-opacity:1;fill-rule:nonzero;stroke:none"
         d="m 470.711,109.289 c -10.238,0 -20.473,3.906 -28.285,11.715 L 320,243.434 l 10,10 112.426,-112.43 c 7.812,-7.809 18.047,-11.715 28.285,-11.715 10.238,0 20.473,3.906 28.285,11.715 5.246,5.246 8.731,11.586 10.449,18.285 3.41,-13.25 -0.074,-27.91 -10.449,-38.285 -7.812,-7.809 -18.047,-11.715 -28.285,-11.715 m -193.231,204.762 -67.355,66.527 -0.078,-0.078 -59.109,30.438 -30.438,59.109 28.672,28.672 59.109,-30.438 9.414,-18.285 -4.386,4.332 -29.34,-27.918 103.574,-102.297 -10.063,-10.062" /><path
         id="path18"
         style="fill:#495672;fill-opacity:1;fill-rule:nonzero;stroke:none"
         d="M 344.992,267.367 183.969,426.41 213.309,454.328 374.328,295.289 344.992,267.367" /><path
         id="path20"
         style="fill:#f3cc70;fill-opacity:1;fill-rule:nonzero;stroke:none"
         d="m 498.996,141.004 c -15.621,-15.621 -40.949,-15.621 -56.57,0 L 301.004,282.426 c -15.621,15.621 -15.621,40.949 0,56.57 15.621,15.621 40.949,15.621 56.57,0 L 498.996,197.574 c 15.621,-15.621 15.621,-40.949 0,-56.57" /><path
         id="path22"
         style="fill:#62a48d;fill-opacity:1;fill-rule:nonzero;stroke:none"
         d="m 200,80 c -12.887,0 -25.16,2.5234 -36.473,6.9609 l 64.758,64.7541 c 15.621,15.621 15.621,40.949 0,56.57 C 220.473,216.094 210.238,220 200,220 c -10.238,0 -20.473,-3.906 -28.285,-11.715 L 106.961,143.527 C 102.523,154.84 100,167.113 100,180 c 0,55.227 44.773,100 100,100 12.887,0 25.16,-2.523 36.473,-6.961 l 41.007,41.012 12.93,-12.77 c 0.074,-0.304 0.153,-0.609 0.231,-0.91 -3.282,-13.172 0.066,-27.648 10.363,-37.945 L 320,243.434 293.039,216.473 C 297.477,205.16 300,192.887 300,180 300,124.77 255.227,80 200,80" /><path
         id="path24"
         style="fill:#538777;fill-opacity:1;fill-rule:nonzero;stroke:none"
         d="m 320,243.434 -18.996,18.992 c -10.297,10.297 -13.645,24.773 -10.363,37.945 1.754,-6.574 5.207,-12.785 10.363,-17.945 L 330,253.434 l -10,-10 m -29.59,57.847 -12.93,12.77 10.063,10.062 3.098,-3.062 c -1.723,-6.465 -1.797,-13.274 -0.231,-19.77" /><path
         id="path26"
         style="fill:#62a48d;fill-opacity:1;fill-rule:nonzero;stroke:none"
         d="m 386.57,310 -28.996,28.996 c -7.812,7.809 -18.047,11.715 -28.285,11.715 -3.305,0 -6.609,-0.406 -9.836,-1.223 l -3.285,3.246 30.793,30.793 C 342.523,394.84 340,407.113 340,420 c 0,55.23 44.773,100 100,100 12.887,0 25.16,-2.523 36.473,-6.961 l -64.758,-64.754 c -15.621,-15.621 -15.621,-40.949 0,-56.57 C 419.527,383.906 429.762,380 440,380 c 10.238,0 20.473,3.906 28.285,11.715 l 64.754,64.758 C 537.477,445.16 540,432.887 540,420 540,364.773 495.227,320 440,320 c -12.887,0 -25.16,2.523 -36.473,6.961 L 386.57,310" /><path
         id="path28"
         style="fill:#404a5f;fill-opacity:1;fill-rule:nonzero;stroke:none"
         d="m 290.641,321.051 -3.098,3.062 7.844,7.844 c -2.149,-3.426 -3.731,-7.105 -4.746,-10.906 m 17.402,23.562 8.125,8.121 3.285,-3.246 c -3.976,-1.004 -7.832,-2.629 -11.41,-4.875" /><path
         id="path30"
         style="fill:#c7a85f;fill-opacity:1;fill-rule:nonzero;stroke:none"
         d="m 330,253.434 -28.996,28.992 c -5.156,5.16 -8.609,11.371 -10.363,17.945 -0.078,0.301 -0.157,0.606 -0.231,0.91 -1.566,6.496 -1.492,13.305 0.231,19.77 1.015,3.801 2.597,7.48 4.746,10.906 l 12.656,12.656 c 3.578,2.246 7.434,3.871 11.41,4.875 3.227,0.817 6.531,1.223 9.836,1.223 10.238,0 20.473,-3.906 28.285,-11.715 L 386.57,310 330,253.434" /><path
         id="path32"
         style="fill:#ffffff;fill-opacity:1;fill-rule:nonzero;stroke:none"
         d="M 408.883,352.316 287.688,231.117 231.117,287.688 352.316,408.883 408.883,352.316" /><path
         id="path34"
         style="fill:#495672;fill-opacity:1;fill-rule:nonzero;stroke:none"
         d="m 210.047,400.5 -59.109,30.438 -30.438,59.109 28.672,28.672 59.109,-30.438 30.438,-59.109 -28.672,-28.672" /><path
         id="path36"
         style="fill:#ffffff;fill-opacity:1;fill-rule:nonzero;stroke:none"
         d="m 468.285,411.715 c -15.621,-15.621 -40.949,-15.621 -56.57,0 -15.621,15.621 -15.621,40.949 0,56.57 l 64.758,64.754 C 465.16,537.477 452.887,540 440,540 384.773,540 340,495.23 340,440 c 0,-55.227 44.773,-100 100,-100 55.227,0 100,44.773 100,100 0,12.887 -2.523,25.16 -6.961,36.473 l -64.754,-64.758" /><path
         id="path38"
         style="fill:#ffffff;fill-opacity:1;fill-rule:nonzero;stroke:none"
         d="m 171.715,228.285 c 15.621,15.621 40.949,15.621 56.57,0 15.621,-15.621 15.621,-40.949 0,-56.57 L 163.527,106.961 C 174.84,102.523 187.113,100 200,100 c 55.227,0 100,44.77 100,100 0,55.227 -44.773,100 -100,100 -55.227,0 -100,-44.773 -100,-100 0,-12.887 2.523,-25.16 6.961,-36.473 l 64.754,64.758" /></g></g></svg>