<?xml version="1.0" encoding="UTF-8" standalone="no"?>
<svg
   xmlns:dc="http://purl.org/dc/elements/1.1/"
   xmlns:cc="http://creativecommons.org/ns#"
   xmlns:rdf="http://www.w3.org/1999/02/22-rdf-syntax-ns#"
   xmlns:svg="http://www.w3.org/2000/svg"
   xmlns="http://www.w3.org/2000/svg"
   viewBox="0 0 85.333336 85.333336"
   height="85.333336"
   width="85.333336"
   xml:space="preserve"
   id="svg2"
   version="1.1"><metadata
     id="metadata8"><rdf:RDF><cc:Work
         rdf:about=""><dc:format>image/svg+xml</dc:format><dc:type
           rdf:resource="http://purl.org/dc/dcmitype/StillImage" /></cc:Work></rdf:RDF></metadata><defs
     id="defs6" /><g
     transform="matrix(1.3333333,0,0,-1.3333333,0,85.333333)"
     id="g10"><g
       transform="scale(0.1)"
       id="g12"><path
         id="path14"
         style="fill:#e1e3cc;fill-opacity:1;fill-rule:nonzero;stroke:none"
         d="M 640,320 C 640,143.27 496.73,0 320,0 143.27,0 0,143.27 0,320 0,496.73 143.27,640 320,640 496.73,640 640,496.73 640,320" /><path
         id="path16"
         style="fill:#b7b7a7;fill-opacity:1;fill-rule:nonzero;stroke:none"
         d="M 480,160 H 160 c -22.094,0 -40,17.906 -40,40 v 180 c 0,0.324 0.004,0.645 0.012,0.969 C 120.004,380.645 120,380.324 120,380 V 350 220 c 0,-22.09 17.906,-40 40,-40 h 320 c 22.09,0 40,17.91 40,40 v -20 c 0,-22.094 -17.91,-40 -40,-40" /><path
         id="path18"
         style="fill:#495672;fill-opacity:1;fill-rule:nonzero;stroke:none"
         d="M 380,510 H 260 c -22.094,0 -40,-17.906 -40,-40 V 270 c 0,-22.094 17.906,-40 40,-40 h 120 c 22.09,0 40,17.906 40,40 v 200 c 0,22.094 -17.91,40 -40,40 m 0,-40 V 270 H 260 v 200 h 120" /><path
         id="path20"
         style="fill:#c84755;fill-opacity:1;fill-rule:nonzero;stroke:none"
         d="M 120,350 V 220 c 0,-22.09 17.906,-40 40,-40 h 320 c 22.09,0 40,17.91 40,40 V 350 H 120" /><path
         id="path22"
         style="fill:#f3cc70;fill-opacity:1;fill-rule:nonzero;stroke:none"
         d="m 360,400 h -80 c -22.09,0 -40,-17.906 -40,-40 v -30 c 0,-22.094 17.91,-40 40,-40 h 80 c 22.09,0 40,17.906 40,40 v 30 c 0,22.094 -17.91,40 -40,40 m 0,-40 v -30 h -80 v 30 h 80" /><path
         id="path24"
         style="fill:#b7b7a7;fill-opacity:1;fill-rule:nonzero;stroke:none"
         d="m 519.996,380.582 c -0.312,21.801 -18.062,39.383 -39.93,39.418 21.868,-0.035 39.618,-17.617 39.93,-39.418 m -399.984,0.387 C 120.523,402.613 138.23,420 160,420 c -21.77,0 -39.477,-17.387 -39.988,-39.031" /><path
         id="path26"
         style="fill:#97978c;fill-opacity:1;fill-rule:nonzero;stroke:none"
         d="M 520,350 H 420 v 70 h 60 c 0.02,0 0.043,0 0.066,0 21.868,-0.035 39.618,-17.617 39.93,-39.418 C 520,380.387 520,380.195 520,380 v -30 m -160,0 h -80 v 10 h 80 v -10 m -140,0 H 120 v 30 c 0,0.324 0.004,0.645 0.012,0.969 C 120.523,402.613 138.23,420 160,420 v 0 h 60 v -70 m 160,44.648 C 374.117,398.051 367.285,400 360,400 h -80 c -7.285,0 -14.117,-1.949 -20,-5.352 V 420 h 120 v -25.352" /><path
         id="path28"
         style="fill:#404a5f;fill-opacity:1;fill-rule:nonzero;stroke:none"
         d="m 420,350 h -20 v 10 c 0,14.805 -8.043,27.734 -20,34.648 V 420 h 40 v -70 m -180,0 h -20 v 70 h 40 V 394.648 C 248.043,387.734 240,374.805 240,360 v -10" /><path
         id="path30"
         style="fill:#a43f4a;fill-opacity:1;fill-rule:nonzero;stroke:none"
         d="M 520,330 H 400 v 0 20 h 20 100 v -20 m -160,0 h -80 v 20 h 80 v -20 m -120,0 H 120 v 20 h 100 20 v -20 0" /><path
         id="path32"
         style="fill:#c7a85f;fill-opacity:1;fill-rule:nonzero;stroke:none"
         d="M 400,330 H 240 v 0 30 c 0,14.805 8.043,27.734 20,34.648 5.883,3.403 12.715,5.352 20,5.352 h 80 c 7.285,0 14.117,-1.949 20,-5.352 11.957,-6.914 20,-19.843 20,-34.648 v -10 -20 0 m -120,20 v -20 h 80 v 20 10 h -80 v -10" /><path
         id="path34"
         style="fill:#c84755;fill-opacity:1;fill-rule:nonzero;stroke:none"
         d="m 520,400 c 0,22.094 -17.906,40 -40,40 H 160 c -22.094,0 -40,-17.906 -40,-40 v -50 h 400 v 50" /></g></g></svg>