<?xml version="1.0" encoding="UTF-8" standalone="no"?>
<svg
   xmlns:dc="http://purl.org/dc/elements/1.1/"
   xmlns:cc="http://creativecommons.org/ns#"
   xmlns:rdf="http://www.w3.org/1999/02/22-rdf-syntax-ns#"
   xmlns:svg="http://www.w3.org/2000/svg"
   xmlns="http://www.w3.org/2000/svg"
   viewBox="0 0 85.333336 85.333336"
   height="85.333336"
   width="85.333336"
   xml:space="preserve"
   id="svg2"
   version="1.1"><metadata
     id="metadata8"><rdf:RDF><cc:Work
         rdf:about=""><dc:format>image/svg+xml</dc:format><dc:type
           rdf:resource="http://purl.org/dc/dcmitype/StillImage" /></cc:Work></rdf:RDF></metadata><defs
     id="defs6" /><g
     transform="matrix(1.3333333,0,0,-1.3333333,0,85.333333)"
     id="g10"><g
       transform="scale(0.1)"
       id="g12"><path
         id="path14"
         style="fill:#c84755;fill-opacity:1;fill-rule:nonzero;stroke:none"
         d="M 640,320 C 640,143.27 496.73,0 320,0 143.27,0 0,143.27 0,320 0,496.73 143.27,640 320,640 496.73,640 640,496.73 640,320" /><path
         id="path16"
         style="fill:#a43f4a;fill-opacity:1;fill-rule:nonzero;stroke:none"
         d="m 410.254,190 h -86.438 c 3.664,6.328 6.782,13.016 9.274,20 h 78.648 C 410.602,205.184 410,200.16 410,195 v 0 0 c 0,-1.687 0.125,-3.344 0.254,-5 M 520,241.836 c -0.23,0.223 -0.465,0.445 -0.703,0.664 0.461,2.43 0.703,4.938 0.703,7.5 v -8.164 M 334.285,360 h -5.609 c -10.336,36.906 -19.992,71.703 -24.836,90 H 220 v 20 h 83.84 c 1.246,-4.711 2.812,-10.512 4.625,-17.164 L 309.219,450 h 0.019 c 6.481,-23.695 15.789,-57.035 25.047,-90 M 180,363.023 c 0,49.918 0,101.43 0,106.977 v 0 c 0,-24.93 0,-68.469 0,-106.977 v 0" /><path
         id="path18"
         style="fill:#a43f4a;fill-opacity:1;fill-rule:nonzero;stroke:none"
         d="m 220,170 c -44.113,0 -80,35.891 -80,80 0,3.387 0.211,6.723 0.621,10 4.938,-39.406 38.652,-70 79.379,-70 23.309,0 44.32,10.02 58.953,25.977 3.375,-2.09 7.082,-3.696 11.027,-4.711 C 276.316,186.676 250.07,170 220,170" /><path
         id="path20"
         style="fill:#a43f4a;fill-opacity:1;fill-rule:nonzero;stroke:none"
         d="m 475,170 c -13.785,0 -25,11.215 -25,25 0,3.555 0.746,6.938 2.09,10 3.863,-8.82 12.68,-15 22.91,-15 10.23,0 19.047,6.18 22.91,15 1.344,-3.062 2.09,-6.445 2.09,-10 0,-13.785 -11.215,-25 -25,-25" /><path
         id="path22"
         style="fill:#77caa9;fill-opacity:1;fill-rule:nonzero;stroke:none"
         d="M 320,510 H 200 c -11.047,0 -20,-8.953 -20,-20 0,-11.047 0,-204.379 0,-204.379 l 211.875,17.504 c 0,0 -50,176.875 -51.875,186.875 0,11.047 -8.953,20 -20,20 m -16.16,-40 c 6.629,-25.051 22.285,-81.039 36.355,-131.008 L 220,329.059 V 470 h 83.84" /><path
         id="path24"
         style="fill:#77caa9;fill-opacity:1;fill-rule:nonzero;stroke:none"
         d="m 520,250 c 0,-22.09 -17.91,-40 -40,-40 H 300 c -22.09,0 -40,17.91 -40,40 v 70 c 0,22.09 17.91,40 40,40 h 180 c 22.09,0 40,-17.91 40,-40 v -70" /><path
         id="path26"
         style="fill:#f3cc70;fill-opacity:1;fill-rule:nonzero;stroke:none"
         d="m 220,350 c -44.113,0 -80,-35.887 -80,-80 0,-44.109 35.887,-80 80,-80 44.113,0 80,35.891 80,80 0,44.113 -35.887,80 -80,80" /><path
         id="path28"
         style="fill:#f3cc70;fill-opacity:1;fill-rule:nonzero;stroke:none"
         d="m 475,240 c -13.785,0 -25,-11.215 -25,-25 0,-13.785 11.215,-25 25,-25 13.785,0 25,11.215 25,25 0,13.785 -11.215,25 -25,25" /><path
         id="path30"
         style="fill:#a43f4a;fill-opacity:1;fill-rule:nonzero;stroke:none"
         d="m 220,130 c -66.273,0 -120,53.727 -120,120 0,52.227 33.426,96.535 80,113.023 0,-8.222 0,-16.222 0,-23.757 C 156.105,325.41 140,299.551 140,270 c 0,-3.387 0.211,-6.723 0.621,-10 -0.41,-3.277 -0.621,-6.613 -0.621,-10 v 0 0 c 0,-44.109 35.887,-80 80,-80 30.07,0 56.316,16.676 69.98,41.266 C 293.184,210.438 296.539,210 300,210 h 33.09 c -2.492,-6.984 -5.61,-13.672 -9.274,-20 v 0 0 C 303.059,154.168 264.391,130 220,130 m 43.758,206.945 C 251.176,345.199 236.137,350 220,350 v 0 20 0 c 21.598,0 41.82,-5.75 59.305,-15.766 -6.746,-4.082 -12.184,-10.101 -15.547,-17.289" /><path
         id="path32"
         style="fill:#62a48d;fill-opacity:1;fill-rule:nonzero;stroke:none"
         d="m 180,339.266 c 0,7.535 0,15.535 0,23.757 v 0 c 12.527,4.438 25.953,6.977 40,6.977 v -20 c -14.559,0 -28.227,-3.91 -40,-10.734" /><path
         id="path34"
         style="fill:#62a48d;fill-opacity:1;fill-rule:nonzero;stroke:none"
         d="m 333.09,210 v 0 H 300 c -3.461,0 -6.816,0.438 -10.02,1.266 6.383,11.484 10.02,24.691 10.02,38.734 0,3.387 -0.211,6.723 -0.621,10 0.41,3.277 0.621,6.613 0.621,10 0,27.973 -14.434,52.641 -36.242,66.945 3.363,7.188 8.801,13.207 15.547,17.289 7.14,-4.089 13.832,-8.894 19.965,-14.308 C 324.195,317.938 340,285.852 340,250 c 0,-14.039 -2.449,-27.496 -6.91,-40" /><path
         id="path36"
         style="fill:#c7a85f;fill-opacity:1;fill-rule:nonzero;stroke:none"
         d="m 299.379,260 c -4.938,39.41 -38.652,70 -79.379,70 -40.727,0 -74.441,-30.59 -79.379,-70 v 0 c -0.41,3.277 -0.621,6.613 -0.621,10 0,29.551 16.105,55.41 40,69.266 11.773,6.824 25.441,10.734 40,10.734 v 0 c 16.137,0 31.176,-4.801 43.758,-13.055 C 285.566,322.641 300,297.973 300,270 c 0,-3.387 -0.211,-6.723 -0.621,-10" /><path
         id="path38"
         style="fill:#a43f4a;fill-opacity:1;fill-rule:nonzero;stroke:none"
         d="m 475,130 c -34.211,0 -62.187,26.445 -64.746,60 v 0 c -0.129,1.656 -0.254,3.313 -0.254,5 0,5.16 0.602,10.184 1.738,15 h 38.766 c 0.351,-1.738 0.887,-3.41 1.586,-5 -1.344,-3.062 -2.09,-6.445 -2.09,-10 v 0 0 c 0,-13.785 11.215,-25 25,-25 13.785,0 25,11.215 25,25 v 0 0 c 0,3.555 -0.746,6.938 -2.09,10 1.344,3.063 2.09,6.445 2.09,10 0,0.117 0,0.234 -0.004,0.352 9.887,5.718 17.102,15.546 19.301,27.148 0.238,-0.219 0.473,-0.441 0.703,-0.664 12.309,-11.828 20,-28.418 20,-46.836 0,-35.898 -29.102,-65 -65,-65" /><path
         id="path40"
         style="fill:#62a48d;fill-opacity:1;fill-rule:nonzero;stroke:none"
         d="m 450.504,210 h -38.766 c 6.774,28.668 32.528,50 63.262,50 17.133,0 32.688,-6.664 44.297,-17.5 -2.199,-11.602 -9.414,-21.43 -19.301,-27.148 C 499.809,228.977 488.668,240 475,240 c -13.785,0 -25,-11.215 -25,-25 0,-1.711 0.172,-3.383 0.504,-5" /><path
         id="path42"
         style="fill:#c7a85f;fill-opacity:1;fill-rule:nonzero;stroke:none"
         d="m 497.91,205 c -3.863,8.824 -12.68,15 -22.91,15 -10.23,0 -19.047,-6.176 -22.91,-15 v 0 c -0.699,1.59 -1.235,3.262 -1.586,5 -0.332,1.617 -0.504,3.289 -0.504,5 0,13.785 11.215,25 25,25 13.668,0 24.809,-11.023 24.996,-24.648 C 500,215.234 500,215.117 500,215 c 0,-3.555 -0.746,-6.937 -2.09,-10 v 0" /><path
         id="path44"
         style="fill:#495672;fill-opacity:1;fill-rule:nonzero;stroke:none"
         d="m 220,190 c -44.113,0 -80,35.891 -80,80 0,44.113 35.887,80 80,80 44.113,0 80,-35.887 80,-80 0,-44.109 -35.887,-80 -80,-80 z m 0,200 c -66.273,0 -120,-53.727 -120,-120 0,-66.273 53.727,-120 120,-120 66.273,0 120,53.727 120,120 0,66.273 -53.727,120 -120,120" /><path
         id="path46"
         style="fill:#495672;fill-opacity:1;fill-rule:nonzero;stroke:none"
         d="m 475,190 c -13.785,0 -25,11.215 -25,25 0,13.785 11.215,25 25,25 13.785,0 25,-11.215 25,-25 0,-13.785 -11.215,-25 -25,-25 z m 0,90 c -35.898,0 -65,-29.102 -65,-65 0,-35.898 29.102,-65 65,-65 35.898,0 65,29.102 65,65 0,35.898 -29.102,65 -65,65" /><path
         id="path48"
         style="fill:#a43f4a;fill-opacity:1;fill-rule:nonzero;stroke:none"
         d="m 349.977,452.66 c -5.52,20.016 -9.473,34.66 -9.977,37.34 11.047,0 20,-8.953 20,-20 0,-7.41 -4.031,-13.883 -10.023,-17.34" /><path
         id="path50"
         style="fill:#883840;fill-opacity:1;fill-rule:nonzero;stroke:none"
         d="m 309.238,450 h -0.019 l -0.754,2.836 c 0.254,-0.93 0.512,-1.875 0.773,-2.836" /><path
         id="path52"
         style="fill:#62a48d;fill-opacity:1;fill-rule:nonzero;stroke:none"
         d="m 340,450 h -30.762 c -0.261,0.961 -0.519,1.906 -0.773,2.836 L 303.91,470 340,490 v 0 c 0.504,-2.68 4.457,-17.324 9.977,-37.34 C 347.039,450.969 343.633,450 340,450" /><path
         id="path54"
         style="fill:#77caa9;fill-opacity:1;fill-rule:nonzero;stroke:none"
         d="m 360,490 c 0,-11.047 -8.953,-20 -20,-20 H 200 c -11.047,0 -20,8.953 -20,20 0,11.047 8.953,20 20,20 h 140 c 11.047,0 20,-8.953 20,-20" /></g></g></svg>