<?xml version="1.0" encoding="UTF-8" standalone="no"?>
<svg
   xmlns:dc="http://purl.org/dc/elements/1.1/"
   xmlns:cc="http://creativecommons.org/ns#"
   xmlns:rdf="http://www.w3.org/1999/02/22-rdf-syntax-ns#"
   xmlns:svg="http://www.w3.org/2000/svg"
   xmlns="http://www.w3.org/2000/svg"
   viewBox="0 0 85.333336 85.333336"
   height="85.333336"
   width="85.333336"
   xml:space="preserve"
   id="svg2"
   version="1.1"><metadata
     id="metadata8"><rdf:RDF><cc:Work
         rdf:about=""><dc:format>image/svg+xml</dc:format><dc:type
           rdf:resource="http://purl.org/dc/dcmitype/StillImage" /></cc:Work></rdf:RDF></metadata><defs
     id="defs6" /><g
     transform="matrix(1.3333333,0,0,-1.3333333,0,85.333333)"
     id="g10"><g
       transform="scale(0.1)"
       id="g12"><path
         id="path14"
         style="fill:#7db6d8;fill-opacity:1;fill-rule:nonzero;stroke:none"
         d="M 640,320 C 640,143.27 496.73,0 320,0 143.27,0 0,143.27 0,320 0,496.73 143.27,640 320,640 496.73,640 640,496.73 640,320" /><path
         id="path16"
         style="fill:#6594b2;fill-opacity:1;fill-rule:nonzero;stroke:none"
         d="M 410,70 H 230 c -16.57,0 -30,13.4297 -30,30 v 400 0 -380 c 0,-16.57 13.43,-30 30,-30 h 180 c 16.566,0 30,13.43 30,30 V 100 C 440,83.4297 426.566,70 410,70" /><path
         id="path18"
         style="fill:#495672;fill-opacity:1;fill-rule:nonzero;stroke:none"
         d="M 440,120 C 440,103.43 426.566,90 410,90 H 230 c -16.57,0 -30,13.43 -30,30 v 400 c 0,16.57 13.43,30 30,30 h 180 c 16.566,0 30,-13.43 30,-30 V 120" /><path
         id="path20"
         style="fill:#404a5f;fill-opacity:1;fill-rule:nonzero;stroke:none"
         d="m 320,250 c -27.613,0 -50,22.387 -50,50 0,27.613 22.387,50 50,50 27.613,0 50,-22.387 50,-50 0,-27.613 -22.387,-50 -50,-50" /><path
         id="path22"
         style="fill:#404a5f;fill-opacity:1;fill-rule:nonzero;stroke:none"
         d="m 320,380 c -27.613,0 -50,22.387 -50,50 0,27.613 22.387,50 50,50 27.613,0 50,-22.387 50,-50 0,-27.613 -22.387,-50 -50,-50" /><path
         id="path24"
         style="fill:#404a5f;fill-opacity:1;fill-rule:nonzero;stroke:none"
         d="m 320,120 c -27.613,0 -50,22.387 -50,50 0,27.613 22.387,50 50,50 27.613,0 50,-22.387 50,-50 0,-27.613 -22.387,-50 -50,-50" /><path
         id="path26"
         style="fill:#f3cc70;fill-opacity:1;fill-rule:nonzero;stroke:none"
         d="m 370,320 c 0,-27.613 -22.387,-50 -50,-50 -27.613,0 -50,22.387 -50,50 0,27.613 22.387,50 50,50 27.613,0 50,-22.387 50,-50" /><path
         id="path28"
         style="fill:#c84755;fill-opacity:1;fill-rule:nonzero;stroke:none"
         d="m 370,450 c 0,-27.613 -22.387,-50 -50,-50 -27.613,0 -50,22.387 -50,50 0,27.613 22.387,50 50,50 27.613,0 50,-22.387 50,-50" /><path
         id="path30"
         style="fill:#77caa9;fill-opacity:1;fill-rule:nonzero;stroke:none"
         d="m 370,190 c 0,-27.613 -22.387,-50 -50,-50 -27.613,0 -50,22.387 -50,50 0,27.613 22.387,50 50,50 27.613,0 50,-22.387 50,-50" /></g></g></svg>