<?xml version="1.0" encoding="UTF-8" standalone="no"?>
<svg
   xmlns:dc="http://purl.org/dc/elements/1.1/"
   xmlns:cc="http://creativecommons.org/ns#"
   xmlns:rdf="http://www.w3.org/1999/02/22-rdf-syntax-ns#"
   xmlns:svg="http://www.w3.org/2000/svg"
   xmlns="http://www.w3.org/2000/svg"
   viewBox="0 0 85.333336 85.333336"
   height="85.333336"
   width="85.333336"
   xml:space="preserve"
   id="svg2"
   version="1.1"><metadata
     id="metadata8"><rdf:RDF><cc:Work
         rdf:about=""><dc:format>image/svg+xml</dc:format><dc:type
           rdf:resource="http://purl.org/dc/dcmitype/StillImage" /></cc:Work></rdf:RDF></metadata><defs
     id="defs6" /><g
     transform="matrix(1.3333333,0,0,-1.3333333,0,85.333333)"
     id="g10"><g
       transform="scale(0.1)"
       id="g12"><path
         id="path14"
         style="fill:#c84755;fill-opacity:1;fill-rule:nonzero;stroke:none"
         d="M 640,320 C 640,143.27 496.73,0 320,0 143.27,0 0,143.27 0,320 0,496.73 143.27,640 320,640 496.73,640 640,496.73 640,320" /><path
         id="path16"
         style="fill:#a43f4a;fill-opacity:1;fill-rule:nonzero;stroke:none"
         d="M 440,300 H 200 c -11.031,0 -20,8.969 -20,20 v 120 c 0,11.031 8.969,20 20,20 h 240 c 11.031,0 20,-8.969 20,-20 V 320 c 0,-11.031 -8.969,-20 -20,-20" /><path
         id="path18"
         style="fill:#a43f4a;fill-opacity:1;fill-rule:nonzero;stroke:none"
         d="M 440,140 H 200 c -33.086,0 -60,26.914 -60,60 v 120 120 c 0,33.086 26.914,60 60,60 h 240 c 33.086,0 60,-26.914 60,-60 V 320 200 c 0,-33.086 -26.914,-60 -60,-60 m 0,80 c -11.031,0 -20,-8.969 -20,-20 0,-11.031 8.969,-20 20,-20 11.031,0 20,8.969 20,20 0,11.031 -8.969,20 -20,20 M 180,320 v 0 c 0,-11.031 8.969,-20 20,-20 h 240 c 11.031,0 20,8.969 20,20 v 120 0 c 0,11.031 -8.969,20 -20,20 H 200 c -11.031,0 -20,-8.969 -20,-20 V 320" /><path
         id="path20"
         style="fill:#a43f4a;fill-opacity:1;fill-rule:nonzero;stroke:none"
         d="m 440,180 c -11.031,0 -20,8.969 -20,20 0,11.031 8.969,20 20,20 11.031,0 20,-8.969 20,-20 0,-11.031 -8.969,-20 -20,-20" /><path
         id="path22"
         style="fill:#a43f4a;fill-opacity:1;fill-rule:nonzero;stroke:none"
         d="M 420,80 H 220 c -11.047,0 -20,8.9531 -20,20 0,11.047 8.953,20 20,20 h 200 c 11.047,0 20,-8.953 20,-20 0,-11.0469 -8.953,-20 -20,-20" /><path
         id="path24"
         style="fill:#ffffff;fill-opacity:1;fill-rule:nonzero;stroke:none"
         d="m 480,220 c 0,-22.09 -17.906,-40 -40,-40 H 200 c -22.09,0 -40,17.91 -40,40 v 240 c 0,22.09 17.91,40 40,40 h 240 c 22.094,0 40,-17.91 40,-40 V 220" /><path
         id="path26"
         style="fill:#ffffff;fill-opacity:1;fill-rule:nonzero;stroke:none"
         d="m 480,220 h -20 c -0.012,-5.586 -2.207,-10.457 -5.859,-14.141 C 450.461,202.207 445.586,200.012 440,200 H 200 c -5.586,0.012 -10.461,2.207 -14.141,5.859 -3.652,3.684 -5.847,8.555 -5.859,14.141 v 240 c 0.012,5.586 2.207,10.461 5.859,14.145 3.68,3.648 8.555,5.843 14.141,5.855 h 240 c 5.586,-0.012 10.461,-2.207 14.141,-5.855 3.652,-3.684 5.847,-8.559 5.859,-14.145 V 220 h 20 20 v 240 c -0.012,33.145 -26.855,59.988 -60,60 H 200 c -33.145,-0.012 -59.988,-26.855 -60,-60 V 220 c 0.012,-33.145 26.855,-59.988 60,-60 h 240 c 33.145,0.012 59.988,26.855 60,60 h -20" /><path
         id="path28"
         style="fill:#495672;fill-opacity:1;fill-rule:nonzero;stroke:none"
         d="m 480,340 c 0,-22.09 -17.906,-40 -40,-40 H 200 c -22.09,0 -40,17.91 -40,40 v 120 c 0,22.09 17.91,40 40,40 h 240 c 22.094,0 40,-17.91 40,-40 V 340" /><path
         id="path30"
         style="fill:#ffffff;fill-opacity:1;fill-rule:nonzero;stroke:none"
         d="m 480,340 h -20 c -0.012,-5.586 -2.207,-10.461 -5.859,-14.141 C 450.461,322.207 445.586,320.012 440,320 H 200 c -5.586,0.012 -10.461,2.207 -14.141,5.859 -3.652,3.68 -5.847,8.555 -5.859,14.141 v 120 c 0.012,5.586 2.207,10.461 5.859,14.145 3.68,3.648 8.555,5.843 14.141,5.855 h 240 c 5.586,-0.012 10.461,-2.207 14.141,-5.855 3.652,-3.684 5.847,-8.559 5.859,-14.145 V 340 h 20 20 v 120 c -0.012,33.145 -26.855,59.988 -60,60 H 200 c -33.145,-0.012 -59.988,-26.855 -60,-60 V 340 c 0.012,-33.145 26.855,-59.988 60,-60 h 240 c 33.145,0.012 59.988,26.855 60,60 h -20" /><path
         id="path32"
         style="fill:#e1e3cc;fill-opacity:1;fill-rule:nonzero;stroke:none"
         d="m 200,180 h 240 c 22.094,0 40,17.91 40,40 v 40 H 160 v -40 c 0,-22.09 17.906,-40 40,-40" /><path
         id="path34"
         style="fill:#e1e3cc;fill-opacity:1;fill-rule:nonzero;stroke:none"
         d="m 200,180 v -20 h 240 c 33.145,0.012 59.988,26.855 60,60 v 60 H 140 v -60 c 0.012,-33.145 26.855,-59.988 60,-60 v 20 20 c -5.586,0.012 -10.461,2.207 -14.141,5.859 -3.652,3.684 -5.847,8.555 -5.859,14.141 v 20 h 280 v -20 c -0.012,-5.586 -2.207,-10.457 -5.859,-14.141 C 450.461,202.207 445.586,200.012 440,200 H 200 v -20" /><path
         id="path36"
         style="fill:#e08e4c;fill-opacity:1;fill-rule:nonzero;stroke:none"
         d="m 240,220 c 0,-22.09 -17.91,-40 -40,-40 -22.09,0 -40,17.91 -40,40 0,22.09 17.91,40 40,40 22.09,0 40,-17.91 40,-40" /><path
         id="path38"
         style="fill:#e1e3cc;fill-opacity:1;fill-rule:nonzero;stroke:none"
         d="m 240,220 h -20 c -0.012,-5.586 -2.207,-10.457 -5.859,-14.141 -3.68,-3.652 -8.555,-5.847 -14.141,-5.859 -5.586,0.012 -10.461,2.207 -14.141,5.859 -3.652,3.684 -5.847,8.555 -5.859,14.141 0.012,5.586 2.207,10.461 5.859,14.145 3.68,3.648 8.555,5.843 14.141,5.855 5.586,-0.012 10.461,-2.207 14.141,-5.855 3.652,-3.684 5.847,-8.559 5.859,-14.145 h 20 20 c -0.012,33.145 -26.855,59.988 -60,60 -33.145,-0.012 -59.988,-26.855 -60,-60 0.012,-33.145 26.855,-59.988 60,-60 33.145,0.012 59.988,26.855 60,60 h -20" /><path
         id="path40"
         style="fill:#e08e4c;fill-opacity:1;fill-rule:nonzero;stroke:none"
         d="m 480,220 c 0,-22.09 -17.906,-40 -40,-40 -22.094,0 -40,17.91 -40,40 0,22.09 17.906,40 40,40 22.094,0 40,-17.91 40,-40" /><path
         id="path42"
         style="fill:#e1e3cc;fill-opacity:1;fill-rule:nonzero;stroke:none"
         d="m 480,220 h -20 c -0.012,-5.586 -2.207,-10.457 -5.859,-14.141 -3.68,-3.652 -8.555,-5.847 -14.141,-5.859 -5.586,0.012 -10.461,2.207 -14.141,5.859 -3.652,3.684 -5.847,8.555 -5.859,14.141 0.012,5.586 2.207,10.461 5.859,14.145 3.68,3.648 8.555,5.843 14.141,5.855 5.586,-0.012 10.461,-2.207 14.141,-5.855 3.652,-3.684 5.847,-8.559 5.859,-14.145 h 20 20 c -0.012,33.145 -26.855,59.988 -60,60 -33.145,-0.012 -59.988,-26.855 -60,-60 0.012,-33.145 26.855,-59.988 60,-60 33.145,0.012 59.988,26.855 60,60 h -20" /><path
         id="path44"
         style="fill:#f3cc70;fill-opacity:1;fill-rule:nonzero;stroke:none"
         d="m 440,120 c 0,-11.047 -8.953,-20 -20,-20 H 220 c -11.047,0 -20,8.953 -20,20 0,11.047 8.953,20 20,20 h 200 c 11.047,0 20,-8.953 20,-20" /></g></g></svg>