<?xml version="1.0" encoding="UTF-8" standalone="no"?>
<svg
   xmlns:dc="http://purl.org/dc/elements/1.1/"
   xmlns:cc="http://creativecommons.org/ns#"
   xmlns:rdf="http://www.w3.org/1999/02/22-rdf-syntax-ns#"
   xmlns:svg="http://www.w3.org/2000/svg"
   xmlns="http://www.w3.org/2000/svg"
   viewBox="0 0 85.333336 85.333336"
   height="85.333336"
   width="85.333336"
   xml:space="preserve"
   id="svg2"
   version="1.1"><metadata
     id="metadata8"><rdf:RDF><cc:Work
         rdf:about=""><dc:format>image/svg+xml</dc:format><dc:type
           rdf:resource="http://purl.org/dc/dcmitype/StillImage" /></cc:Work></rdf:RDF></metadata><defs
     id="defs6" /><g
     transform="matrix(1.3333333,0,0,-1.3333333,0,85.333333)"
     id="g10"><g
       transform="scale(0.1)"
       id="g12"><path
         id="path14"
         style="fill:#e1e3cc;fill-opacity:1;fill-rule:nonzero;stroke:none"
         d="M 640,320 C 640,143.27 496.73,0 320,0 143.27,0 0,143.27 0,320 0,496.73 143.27,640 320,640 496.73,640 640,496.73 640,320" /><path
         id="path16"
         style="fill:#b7b7a7;fill-opacity:1;fill-rule:nonzero;stroke:none"
         d="m 425,185.906 c -46.945,0 -85,38.055 -85,85 0,3.141 0.219,6.328 0.637,9.539 5.156,-42.007 40.961,-74.535 84.363,-74.535 43.402,0 79.207,32.528 84.363,74.535 0.414,-3.211 0.637,-6.398 0.637,-9.539 0,-46.945 -38.055,-85 -85,-85" /><path
         id="path18"
         style="fill:#b7b7a7;fill-opacity:1;fill-rule:nonzero;stroke:none"
         d="m 110.016,215.004 c -5.137,0 -10.1371,2.637 -12.9379,7.375 -3.4023,5.773 -2.5,12.887 1.7344,17.625 2.8905,-3.238 7.0005,-5.004 11.2035,-5.008 2.589,0 5.211,0.672 7.605,2.082 l 271.84,160.317 c 0.687,-0.887 1.41,-1.747 2.164,-2.579 -7.434,-8.781 -15.262,-18.765 -22.508,-29.418 L 117.621,217.082 c -2.391,-1.41 -5.019,-2.078 -7.605,-2.078 m 390.875,228.109 c -7.903,3.985 -15.36,6.496 -22.305,6.844 l 29.035,17.121 c 1.367,0.809 2.559,1.801 3.567,2.922 0.64,-0.719 1.222,-1.512 1.734,-2.375 4.207,-7.141 1.836,-16.332 -5.301,-20.543 l -6.73,-3.969" /><path
         id="path20"
         style="fill:#e08e4c;fill-opacity:1;fill-rule:nonzero;stroke:none"
         d="m 117.621,237.078 390,230 c 7.133,4.211 9.508,13.406 5.301,20.543 -4.211,7.137 -13.406,9.508 -20.543,5.301 l -390,-230 c -7.1329,-4.207 -9.5079,-13.406 -5.3009,-20.543 4.2109,-7.133 13.4059,-9.508 20.5429,-5.301" /><path
         id="path22"
         style="fill:#c84755;fill-opacity:1;fill-rule:nonzero;stroke:none"
         d="m 510,290.91 c 0,-46.945 -38.055,-85 -85,-85 -46.945,0 -85,38.055 -85,85 0,61.817 85,139.09 85,139.09 0,0 85,-77.273 85,-139.09" /><path
         id="path24"
         style="fill:#b7b7a7;fill-opacity:1;fill-rule:nonzero;stroke:none"
         d="m 350.176,409.059 c -2.352,0.57 -4.754,1.222 -7.207,1.949 -38.051,11.234 -39.727,37.769 -37.414,52.414 2.312,-13.34 11.289,-28.266 37.414,-35.981 9.551,-2.82 18.351,-4.57 26.144,-4.57 1.688,0 3.325,0.082 4.914,0.254 l -23.851,-14.066" /><path
         id="path26"
         style="fill:#b77744;fill-opacity:1;fill-rule:nonzero;stroke:none"
         d="m 369.113,406.434 c -5.793,0.004 -12.14,0.968 -18.937,2.625 l 23.851,14.066 c 2.082,0.223 4.075,0.598 5.981,1.141 0.086,-5.422 1.133,-10.618 2.976,-15.414 -4.148,-1.672 -8.796,-2.418 -13.871,-2.418" /><path
         id="path28"
         style="fill:#c84755;fill-opacity:1;fill-rule:nonzero;stroke:none"
         d="m 398.172,440 c 5.59,11.18 0,40 -40,30 -49.469,-12.367 -50,20 -50,20 0,0 -19.117,-46.637 34.797,-62.559 C 368.172,420 388.172,420 398.172,440" /><path
         id="path30"
         style="fill:#b7b7a7;fill-opacity:1;fill-rule:nonzero;stroke:none"
         d="m 528.438,348.777 c 0,0 8.078,31.344 -42.895,32.555 -7.668,0.184 -13.828,1.344 -18.727,3.172 -2.836,3.586 -5.664,7.031 -8.441,10.312 2.527,2.789 4.707,5.903 6.477,9.262 5.183,-2.285 11.961,-3.762 20.691,-3.969 50.973,-1.211 42.895,-32.554 42.895,-32.554 0,0 6.16,7.972 8.703,19.441 4.941,-20.558 -8.703,-38.219 -8.703,-38.219" /><path
         id="path32"
         style="fill:#a43f4a;fill-opacity:1;fill-rule:nonzero;stroke:none"
         d="m 466.816,384.504 c -5.019,1.875 -8.711,4.449 -11.336,7.391 1.008,0.929 1.973,1.902 2.895,2.921 2.777,-3.281 5.605,-6.726 8.441,-10.312" /><path
         id="path34"
         style="fill:#c84755;fill-opacity:1;fill-rule:nonzero;stroke:none"
         d="m 454.941,439.652 c -8.355,-9.293 -10.617,-38.562 30.602,-39.543 50.973,-1.211 42.895,-32.554 42.895,-32.554 0,0 30.816,39.886 -16.942,69.55 -22.32,13.864 -41.601,19.176 -56.555,2.547" /><path
         id="path36"
         style="fill:#b7b7a7;fill-opacity:1;fill-rule:nonzero;stroke:none"
         d="m 450.105,404.297 c -1.812,2.016 -3.574,3.937 -5.265,5.762 l 6.254,3.687 c -0.891,-2.871 -1.305,-6.129 -0.989,-9.449 m -50.8,33.73 c -0.219,0.891 -0.489,1.778 -0.817,2.657 2.168,5 2.266,12.937 -1.449,19.578 7.68,6.097 17.395,9.738 27.961,9.738 7.309,0 14.211,-1.742 20.313,-4.836 l -46.008,-27.137" /><path
         id="path38"
         style="fill:#97978c;fill-opacity:1;fill-rule:nonzero;stroke:none"
         d="m 391.625,394.816 c -0.754,0.832 -1.477,1.692 -2.164,2.579 l 9.027,5.324 c -2.23,-2.504 -4.527,-5.149 -6.863,-7.903 m 53.215,15.243 c -4.774,5.132 -9.004,9.441 -12.324,12.73 l 19.113,11.27 c -1.992,-5.133 -2.457,-11.871 0.324,-17.993 -0.32,-0.738 -0.609,-1.511 -0.859,-2.32 l -6.254,-3.687" /><path
         id="path40"
         style="fill:#b77744;fill-opacity:1;fill-rule:nonzero;stroke:none"
         d="m 389.461,397.395 c -2.688,3.453 -4.879,7.304 -6.477,11.457 6.297,2.539 11.442,7.222 15.188,14.714 1.808,3.614 2.445,9.071 1.133,14.461 l 46.008,27.137 c 7.968,-4.039 14.574,-10.379 18.941,-18.144 -3.266,-1.676 -6.371,-4.098 -9.313,-7.368 -1.296,-1.441 -2.449,-3.367 -3.312,-5.593 l -19.113,-11.27 C 427.855,427.406 425,430 425,430 c 0,0 -11.75,-10.68 -26.512,-27.281 l -9.027,-5.324" /><path
         id="path42"
         style="fill:#a43f4a;fill-opacity:1;fill-rule:nonzero;stroke:none"
         d="m 425,380 c -13.238,0 -25.141,5.715 -33.375,14.816 2.336,2.754 4.633,5.399 6.863,7.903 C 413.25,419.32 425,430 425,430 c 0,0 2.855,-2.594 7.516,-7.211 3.32,-3.289 7.55,-7.598 12.324,-12.73 1.691,-1.825 3.453,-3.746 5.265,-5.762 0.403,-4.27 2.016,-8.637 5.375,-12.402 C 447.465,384.508 436.758,380 425,380" /><path
         id="path44"
         style="fill:#97978c;fill-opacity:1;fill-rule:nonzero;stroke:none"
         d="m 395.871,436.004 c 0.817,1.234 1.582,2.562 2.301,3.996 0.109,0.223 0.215,0.449 0.316,0.684 0.328,-0.879 0.598,-1.766 0.817,-2.657 l -3.434,-2.023" /><path
         id="path46"
         style="fill:#97633d;fill-opacity:1;fill-rule:nonzero;stroke:none"
         d="m 382.984,408.852 c -1.843,4.796 -2.89,9.992 -2.976,15.414 6.39,1.828 11.754,5.543 15.863,11.738 l 3.434,2.023 c 1.312,-5.39 0.675,-10.847 -1.133,-14.461 -3.746,-7.492 -8.891,-12.175 -15.188,-14.714" /><path
         id="path48"
         style="fill:#a43f4a;fill-opacity:1;fill-rule:nonzero;stroke:none"
         d="M 380.008,424.266 C 380.004,424.512 380,424.754 380,425 c 0,14.285 6.656,27.02 17.039,35.262 3.715,-6.641 3.617,-14.578 1.449,-19.578 -0.101,-0.235 -0.207,-0.461 -0.316,-0.684 -0.719,-1.434 -1.484,-2.762 -2.301,-3.996 -4.109,-6.195 -9.473,-9.91 -15.863,-11.738" /><path
         id="path50"
         style="fill:#97978c;fill-opacity:1;fill-rule:nonzero;stroke:none"
         d="m 458.375,394.816 c -2.828,3.34 -5.609,6.516 -8.27,9.481 -0.316,3.32 0.098,6.578 0.989,9.449 l 1.558,0.918 c 2.274,-4.144 6.149,-7.918 12.2,-10.586 -1.77,-3.359 -3.95,-6.473 -6.477,-9.262" /><path
         id="path52"
         style="fill:#7d7c76;fill-opacity:1;fill-rule:nonzero;stroke:none"
         d="m 451.094,413.746 c 0.25,0.809 0.539,1.582 0.859,2.32 0.211,-0.468 0.445,-0.937 0.699,-1.402 l -1.558,-0.918" /><path
         id="path54"
         style="fill:#883840;fill-opacity:1;fill-rule:nonzero;stroke:none"
         d="m 455.48,391.895 c -3.359,3.765 -4.972,8.132 -5.375,12.402 2.661,-2.965 5.442,-6.141 8.27,-9.481 -0.922,-1.019 -1.887,-1.992 -2.895,-2.921" /><path
         id="path56"
         style="fill:#a43f4a;fill-opacity:1;fill-rule:nonzero;stroke:none"
         d="m 464.852,404.078 c -6.051,2.668 -9.926,6.442 -12.2,10.586 -0.254,0.465 -0.488,0.934 -0.699,1.402 -2.781,6.122 -2.316,12.86 -0.324,17.993 0.863,2.226 2.016,4.152 3.312,5.593 2.942,3.27 6.047,5.692 9.313,7.368 3.66,-6.508 5.746,-14.024 5.746,-22.02 0,-7.551 -1.859,-14.672 -5.148,-20.922" /><path
         id="path58"
         style="fill:#c84755;fill-opacity:1;fill-rule:nonzero;stroke:none"
         d="m 465,440 c 0,-22.09 -17.91,-40 -40,-40 -22.09,0 -40,17.91 -40,40 0,22.09 17.91,40 40,40 22.09,0 40,-17.91 40,-40" /></g></g></svg>