<?xml version="1.0" encoding="UTF-8" standalone="no"?>
<svg
   xmlns:dc="http://purl.org/dc/elements/1.1/"
   xmlns:cc="http://creativecommons.org/ns#"
   xmlns:rdf="http://www.w3.org/1999/02/22-rdf-syntax-ns#"
   xmlns:svg="http://www.w3.org/2000/svg"
   xmlns="http://www.w3.org/2000/svg"
   viewBox="0 0 85.333336 85.333336"
   height="85.333336"
   width="85.333336"
   xml:space="preserve"
   id="svg2"
   version="1.1"><metadata
     id="metadata8"><rdf:RDF><cc:Work
         rdf:about=""><dc:format>image/svg+xml</dc:format><dc:type
           rdf:resource="http://purl.org/dc/dcmitype/StillImage" /></cc:Work></rdf:RDF></metadata><defs
     id="defs6" /><g
     transform="matrix(1.3333333,0,0,-1.3333333,0,85.333333)"
     id="g10"><g
       transform="scale(0.1)"
       id="g12"><path
         id="path14"
         style="fill:#77caa9;fill-opacity:1;fill-rule:nonzero;stroke:none"
         d="M 0,320 C 0,143.27 143.27,0 320,0 496.73,0 640,143.27 640,320 640,496.73 496.73,640 320,640 143.27,640 0,496.73 0,320" /><path
         id="path16"
         style="fill:#ffffff;fill-opacity:1;fill-rule:nonzero;stroke:none"
         d="m 291.25,195 c -4.855,0 -9.43,2.352 -12.25,6.348 L 176.172,346.926 98.3203,295.02 c -6.9062,-4.598 -16.2109,-2.735 -20.8008,4.16 -4.5937,6.894 -2.7343,16.203 4.1602,20.8 l 90.0003,60 c 6.754,4.5 15.879,2.813 20.57,-3.828 l 97.328,-137.793 107.238,197.547 c 2.422,4.453 6.934,7.395 11.993,7.793 5.062,0.383 9.976,-1.765 13.078,-5.801 l 130,-168.75 c 5.051,-6.558 3.832,-15.972 -2.731,-21.035 -6.562,-5.047 -15.972,-3.836 -21.043,2.739 L 412.188,401.34 304.434,202.844 c -2.477,-4.551 -7.125,-7.512 -12.301,-7.817 L 291.25,195" /><path
         id="path18"
         style="fill:#c84755;fill-opacity:1;fill-rule:nonzero;stroke:none"
         d="m 366.25,408.75 c 0,-24.164 19.59,-43.75 43.75,-43.75 24.164,0 43.75,19.586 43.75,43.75 0,24.164 -19.586,43.75 -43.75,43.75 -24.16,0 -43.75,-19.586 -43.75,-43.75" /><path
         id="path20"
         style="fill:#62a48d;fill-opacity:1;fill-rule:nonzero;stroke:none"
         d="m 291.25,175 c -4.855,0 -9.43,2.355 -12.25,6.348 L 176.172,326.918 98.3203,275.02 c -2.5586,-1.704 -5.4492,-2.516 -8.3086,-2.516 -4.8476,0 -9.6054,2.344 -12.4922,6.676 -3.875,5.812 -3.1601,13.347 1.2969,18.32 2.9024,-3.258 7.0117,-5.004 11.1914,-5.004 2.8594,0 5.75,0.817 8.3125,2.524 L 176.172,346.926 279,201.348 c 2.82,-3.996 7.395,-6.348 12.25,-6.348 l 0.883,0.027 c 5.176,0.305 9.824,3.266 12.301,7.817 l 81.195,149.566 c 2.629,-1.765 5.465,-3.254 8.457,-4.426 l -89.652,-165.14 c -2.477,-4.559 -7.125,-7.512 -12.301,-7.821 L 291.25,175" /><path
         id="path22"
         style="fill:#62a48d;fill-opacity:1;fill-rule:nonzero;stroke:none"
         d="m 540.016,224.992 c -4.493,0 -8.938,2.012 -11.903,5.852 l -93.679,121.609 c 3.406,2.297 6.468,5.059 9.097,8.195 l 84.582,-109.796 c 2.965,-3.844 7.407,-5.852 11.899,-5.852 3.195,0 6.418,1.016 9.144,3.113 0.754,0.586 1.442,1.227 2.055,1.914 l 0.676,-0.871 c 5.051,-6.562 3.832,-15.98 -2.731,-21.043 -2.726,-2.101 -5.945,-3.121 -9.14,-3.121" /><path
         id="path24"
         style="fill:#ffffff;fill-opacity:1;fill-rule:nonzero;stroke:none"
         d="m 291.25,195 c -4.855,0 -9.43,2.352 -12.25,6.348 L 176.172,346.926 98.3203,295.02 c -6.9062,-4.598 -16.2109,-2.735 -20.8008,4.16 -4.5937,6.894 -2.7343,16.203 4.1602,20.8 l 90.0003,60 c 6.754,4.5 15.879,2.813 20.57,-3.828 l 97.328,-137.793 107.238,197.547 c 2.422,4.453 6.934,7.395 11.993,7.793 5.062,0.383 9.976,-1.765 13.078,-5.801 l 130,-168.75 c 5.051,-6.558 3.832,-15.972 -2.731,-21.035 -6.562,-5.047 -15.972,-3.836 -21.043,2.739 L 412.188,401.34 304.434,202.844 c -2.477,-4.551 -7.125,-7.512 -12.301,-7.817 L 291.25,195" /><path
         id="path26"
         style="fill:#62a48d;fill-opacity:1;fill-rule:nonzero;stroke:none"
         d="m 410,345 c -5.617,0 -10.984,1.059 -15.914,2.984 l 9.488,17.485 C 405.672,365.16 407.816,365 410,365 c 4.602,0 9.039,0.711 13.207,2.027 l 11.227,-14.574 C 427.457,347.746 419.051,345 410,345" /><path
         id="path28"
         style="fill:#a43f4a;fill-opacity:1;fill-rule:nonzero;stroke:none"
         d="m 410,365 c -2.184,0 -4.328,0.16 -6.426,0.469 l 8.614,15.863 11.019,-14.305 C 419.039,365.711 414.602,365 410,365" /><path
         id="path30"
         style="fill:#538777;fill-opacity:1;fill-rule:nonzero;stroke:none"
         d="m 394.086,347.984 c -2.992,1.172 -5.828,2.661 -8.457,4.426 l 8.453,15.574 c 3.016,-1.175 6.195,-2.031 9.492,-2.515 l -9.488,-17.485" /><path
         id="path32"
         style="fill:#538777;fill-opacity:1;fill-rule:nonzero;stroke:none"
         d="m 434.434,352.453 -11.227,14.574 c 4.027,1.274 7.801,3.114 11.231,5.426 l 9.093,-11.805 c -2.629,-3.136 -5.691,-5.898 -9.097,-8.195" /><path
         id="path34"
         style="fill:#883840;fill-opacity:1;fill-rule:nonzero;stroke:none"
         d="m 403.574,365.469 c -3.297,0.484 -6.476,1.34 -9.492,2.515 l 18.106,33.356 22.25,-28.887 c -3.43,-2.312 -7.204,-4.152 -11.231,-5.426 l -11.019,14.305 -8.614,-15.863" /><path
         id="path36"
         style="fill:#62a48d;fill-opacity:1;fill-rule:nonzero;stroke:none"
         d="m 366.953,380.895 c -0.461,2.546 -0.703,5.175 -0.703,7.855 0,3.441 0.398,6.789 1.148,10 0.832,-3.562 2.102,-6.961 3.747,-10.133 l -4.192,-7.722" /><path
         id="path38"
         style="fill:#a43f4a;fill-opacity:1;fill-rule:nonzero;stroke:none"
         d="m 371.145,388.617 v 0 c -1.645,3.172 -2.915,6.571 -3.747,10.133 3.219,13.766 12.934,25.031 25.739,30.383 l -21.992,-40.516" /><path
         id="path40"
         style="fill:#62a48d;fill-opacity:1;fill-rule:nonzero;stroke:none"
         d="m 452.824,397.734 -0.355,0.465 c 0.047,0.184 0.09,0.367 0.133,0.551 0.078,-0.336 0.152,-0.676 0.222,-1.016" /><path
         id="path42"
         style="fill:#a43f4a;fill-opacity:1;fill-rule:nonzero;stroke:none"
         d="m 452.469,398.199 -22.856,29.668 c 11.438,-5.746 20.004,-16.355 22.989,-29.117 -0.043,-0.184 -0.086,-0.367 -0.133,-0.551 v 0" /><path
         id="path44"
         style="fill:#d4d3d1;fill-opacity:1;fill-rule:nonzero;stroke:none"
         d="m 385.629,352.41 c -9.617,6.465 -16.531,16.645 -18.676,28.485 l 4.192,7.722 21.992,40.516 c 5.191,2.168 10.886,3.367 16.863,3.367 7.051,0 13.715,-1.668 19.613,-4.633 l 22.856,-29.668 0.355,-0.465 c 0.61,-2.898 0.926,-5.906 0.926,-8.984 0,-10.699 -3.84,-20.5 -10.219,-28.102 l -9.093,11.805 -22.25,28.887 -18.106,-33.356 -8.453,-15.574" /><path
         id="path46"
         style="fill:#495672;fill-opacity:1;fill-rule:nonzero;stroke:none"
         d="m 366.25,408.75 c 0,-24.164 19.59,-43.75 43.75,-43.75 24.164,0 43.75,19.586 43.75,43.75 0,24.164 -19.586,43.75 -43.75,43.75 -24.16,0 -43.75,-19.586 -43.75,-43.75" /></g></g></svg>