<?xml version="1.0" encoding="UTF-8" standalone="no"?>
<svg
   xmlns:dc="http://purl.org/dc/elements/1.1/"
   xmlns:cc="http://creativecommons.org/ns#"
   xmlns:rdf="http://www.w3.org/1999/02/22-rdf-syntax-ns#"
   xmlns:svg="http://www.w3.org/2000/svg"
   xmlns="http://www.w3.org/2000/svg"
   viewBox="0 0 85.333336 85.333336"
   height="85.333336"
   width="85.333336"
   xml:space="preserve"
   id="svg2"
   version="1.1"><metadata
     id="metadata8"><rdf:RDF><cc:Work
         rdf:about=""><dc:format>image/svg+xml</dc:format><dc:type
           rdf:resource="http://purl.org/dc/dcmitype/StillImage" /></cc:Work></rdf:RDF></metadata><defs
     id="defs6" /><g
     transform="matrix(1.3333333,0,0,-1.3333333,0,85.333333)"
     id="g10"><g
       transform="scale(0.1)"
       id="g12"><path
         id="path14"
         style="fill:#77caa9;fill-opacity:1;fill-rule:nonzero;stroke:none"
         d="M 640,320 C 640,143.27 496.73,0 320,0 143.27,0 0,143.27 0,320 0,496.73 143.27,640 320,640 496.73,640 640,496.73 640,320" /><path
         id="path16"
         style="fill:#62a48d;fill-opacity:1;fill-rule:nonzero;stroke:none"
         d="m 320,420 c -11.047,0 -20,8.953 -20,20 v 20 c 0,-11.047 8.953,-20 20,-20 11.047,0 20,8.953 20,20 v 0 -20 c 0,-11.047 -8.953,-20 -20,-20" /><path
         id="path18"
         style="fill:#495672;fill-opacity:1;fill-rule:nonzero;stroke:none"
         d="m 320,440 c -11.047,0 -20,8.953 -20,20 v 40 c 0,11.047 8.953,20 20,20 11.047,0 20,-8.953 20,-20 v -40 c 0,-11.047 -8.953,-20 -20,-20" /><path
         id="path20"
         style="fill:#62a48d;fill-opacity:1;fill-rule:nonzero;stroke:none"
         d="m 360,460 h -20 v 0 40 h 20 c 11.047,0 20,-8.953 20,-20 0,-11.047 -8.953,-20 -20,-20" /><path
         id="path22"
         style="fill:#62a48d;fill-opacity:1;fill-rule:nonzero;stroke:none"
         d="m 300,460 h -20 c -11.047,0 -20,8.953 -20,20 0,11.047 8.953,20 20,20 h 20 v -20 0 -20" /><path
         id="path24"
         style="fill:#404a5f;fill-opacity:1;fill-rule:nonzero;stroke:none"
         d="m 340,460 h -40 v 0 40 h 40 v -40 0 0" /><path
         id="path26"
         style="fill:#495672;fill-opacity:1;fill-rule:nonzero;stroke:none"
         d="m 360,480 h -80 c -11.047,0 -20,8.953 -20,20 0,11.047 8.953,20 20,20 h 80 c 11.047,0 20,-8.953 20,-20 0,-11.047 -8.953,-20 -20,-20" /><path
         id="path28"
         style="fill:#62a48d;fill-opacity:1;fill-rule:nonzero;stroke:none"
         d="m 320,100 c -11.047,0 -20,8.953 -20,20 V 293.945 140 c 0,-11.047 8.953,-20 20,-20 11.047,0 20,8.953 20,20 v -20 c 0,-11.047 -8.953,-20 -20,-20" /><path
         id="path30"
         style="fill:#e1e3cc;fill-opacity:1;fill-rule:nonzero;stroke:none"
         d="m 320,120 c -11.047,0 -20,8.953 -20,20 v 240 c 0,11.047 8.953,20 20,20 11.047,0 20,-8.953 20,-20 V 140 c 0,-11.047 -8.953,-20 -20,-20" /><path
         id="path32"
         style="fill:#62a48d;fill-opacity:1;fill-rule:nonzero;stroke:none"
         d="m 159.98,99.9883 c -3.808,0 -7.664,1.0897 -11.074,3.3707 -9.187,6.129 -11.676,18.543 -5.547,27.735 L 300,366.055 V 360 360 293.945 L 176.641,108.906 c -3.848,-5.781 -10.196,-8.9177 -16.661,-8.9177 M 480.004,100 c -6.457,0 -12.793,3.129 -16.645,8.906 L 340,293.945 v 72.11 L 496.641,131.094 c 6.129,-9.192 3.64,-21.606 -5.547,-27.735 -3.406,-2.273 -7.266,-3.359 -11.074,-3.359 -0.004,0 -0.008,0 -0.016,0" /><path
         id="path34"
         style="fill:#b7b7a7;fill-opacity:1;fill-rule:nonzero;stroke:none"
         d="m 340,293.945 -20,30 -20,-30 v 72.11 l 3.359,5.039 C 307.07,376.66 313.313,380 320,380 c 6.688,0 12.93,-3.34 16.641,-8.906 L 340,366.055 v -72.11" /><path
         id="path36"
         style="fill:#ffffff;fill-opacity:1;fill-rule:nonzero;stroke:none"
         d="m 480.02,120 c -6.465,-0.004 -12.809,3.125 -16.661,8.906 L 320,343.945 176.641,128.906 c -6.118,-9.187 -18.539,-11.695 -27.735,-5.547 -9.187,6.129 -11.676,18.543 -5.547,27.735 l 160,240 C 307.07,396.66 313.313,400 320,400 c 6.688,0 12.93,-3.34 16.641,-8.906 l 160,-240 c 6.129,-9.192 3.64,-21.606 -5.547,-27.735 C 487.688,121.086 483.828,120 480.02,120" /></g></g></svg>