<?xml version="1.0" encoding="UTF-8" standalone="no"?>
<svg
   xmlns:dc="http://purl.org/dc/elements/1.1/"
   xmlns:cc="http://creativecommons.org/ns#"
   xmlns:rdf="http://www.w3.org/1999/02/22-rdf-syntax-ns#"
   xmlns:svg="http://www.w3.org/2000/svg"
   xmlns="http://www.w3.org/2000/svg"
   viewBox="0 0 85.333336 85.333336"
   height="85.333336"
   width="85.333336"
   xml:space="preserve"
   id="svg2"
   version="1.1"><metadata
     id="metadata8"><rdf:RDF><cc:Work
         rdf:about=""><dc:format>image/svg+xml</dc:format><dc:type
           rdf:resource="http://purl.org/dc/dcmitype/StillImage" /></cc:Work></rdf:RDF></metadata><defs
     id="defs6" /><g
     transform="matrix(1.3333333,0,0,-1.3333333,0,85.333333)"
     id="g10"><g
       transform="scale(0.1)"
       id="g12"><path
         id="path14"
         style="fill:#e1e3cc;fill-opacity:1;fill-rule:nonzero;stroke:none"
         d="M 640,320 C 640,143.27 496.73,0 320,0 143.27,0 0,143.27 0,320 0,496.73 143.27,640 320,640 496.73,640 640,496.73 640,320" /><path
         id="path16"
         style="fill:#b7b7a7;fill-opacity:1;fill-rule:nonzero;stroke:none"
         d="m 180,160 c -22.094,0 -40,17.91 -40,40 v 20 c -22.094,0 -40,17.91 -40,40 v 160 c 0,22.094 17.906,40 40,40 h 220 c 22.094,0 40,-17.906 40,-40 V 260 c 0,-22.09 0,-40 0,-40 H 220 v -20 c 0,-22.09 -17.906,-40 -40,-40" /><path
         id="path18"
         style="fill:#b7b7a7;fill-opacity:1;fill-rule:nonzero;stroke:none"
         d="m 460,160 c -22.094,0 -40,17.91 -40,40 v 20 c 0,0 0,3.852 0,10 0,7.332 0,17.984 0,30 v 80 c 0,22.094 0,40 0,40 h 80 c 22.094,0 40,-17.906 40,-40 V 220 c 0,0 -17.906,0 -40,0 v -20 c 0,-22.09 -17.906,-40 -40,-40" /><path
         id="path20"
         style="fill:#e08e4c;fill-opacity:1;fill-rule:nonzero;stroke:none"
         d="m 400,280 c 0,-22.09 0,-40 0,-40 H 140 c -22.09,0 -40,17.91 -40,40 v 160 c 0,22.09 17.91,40 40,40 h 220 c 22.094,0 40,-17.91 40,-40 V 280" /><path
         id="path22"
         style="fill:#c84755;fill-opacity:1;fill-rule:nonzero;stroke:none"
         d="m 540,240 c 0,0 -17.906,0 -40,0 h -80 c 0,0 0,17.91 0,40 v 80 c 0,22.09 0,40 0,40 h 80 c 22.094,0 40,-17.91 40,-40 V 240" /><path
         id="path24"
         style="fill:#495672;fill-opacity:1;fill-rule:nonzero;stroke:none"
         d="m 180,180 c 22.094,0 40,17.91 40,40 h -80 c 0,-22.09 17.906,-40 40,-40" /><path
         id="path26"
         style="fill:#495672;fill-opacity:1;fill-rule:nonzero;stroke:none"
         d="m 460,180 c 22.094,0 40,17.91 40,40 h -80 c 0,-22.09 17.906,-40 40,-40" /></g></g></svg>