<?xml version="1.0" encoding="UTF-8" standalone="no"?>
<svg
   xmlns:dc="http://purl.org/dc/elements/1.1/"
   xmlns:cc="http://creativecommons.org/ns#"
   xmlns:rdf="http://www.w3.org/1999/02/22-rdf-syntax-ns#"
   xmlns:svg="http://www.w3.org/2000/svg"
   xmlns="http://www.w3.org/2000/svg"
   viewBox="0 0 85.333336 85.333336"
   height="85.333336"
   width="85.333336"
   xml:space="preserve"
   id="svg2"
   version="1.1"><metadata
     id="metadata8"><rdf:RDF><cc:Work
         rdf:about=""><dc:format>image/svg+xml</dc:format><dc:type
           rdf:resource="http://purl.org/dc/dcmitype/StillImage" /></cc:Work></rdf:RDF></metadata><defs
     id="defs6" /><g
     transform="matrix(1.3333333,0,0,-1.3333333,0,85.333333)"
     id="g10"><g
       transform="scale(0.1)"
       id="g12"><path
         id="path14"
         style="fill:#f3cc70;fill-opacity:1;fill-rule:nonzero;stroke:none"
         d="M 640,320 C 640,143.27 496.73,0 320,0 143.27,0 0,143.27 0,320 0,496.73 143.27,640 320,640 496.73,640 640,496.73 640,320" /><path
         id="path16"
         style="fill:#c7a85f;fill-opacity:1;fill-rule:nonzero;stroke:none"
         d="M 500,130 H 140 c -11.047,0 -20,8.953 -20,20 v 300 0 -280 c 0,-11.047 8.953,-20 20,-20 h 360 c 11.047,0 20,8.953 20,20 v -20 c 0,-11.047 -8.953,-20 -20,-20" /><path
         id="path18"
         style="fill:#495672;fill-opacity:1;fill-rule:nonzero;stroke:none"
         d="m 520,170 c 0,-11.047 -8.953,-20 -20,-20 H 140 c -11.047,0 -20,8.953 -20,20 v 300 c 0,11.047 8.953,20 20,20 h 360 c 11.047,0 20,-8.953 20,-20 V 170" /><path
         id="path20"
         style="fill:#e1e3cc;fill-opacity:1;fill-rule:nonzero;stroke:none"
         d="m 480,270 c 0,-11.047 -8.953,-20 -20,-20 H 180 c -11.047,0 -20,8.953 -20,20 v 161.25 c 0,11.047 8.953,20 20,20 h 280 c 11.047,0 20,-8.953 20,-20 V 270" /><path
         id="path22"
         style="fill:#404a5f;fill-opacity:1;fill-rule:nonzero;stroke:none"
         d="m 160,431.25 c 0,10.949 8.797,19.844 19.711,20 C 168.797,451.094 160,442.199 160,431.25" /><path
         id="path24"
         style="fill:#b7b7a7;fill-opacity:1;fill-rule:nonzero;stroke:none"
         d="m 160,420 v 11.25 c 0,10.949 8.797,19.844 19.711,20 0.094,0 0.191,0 0.289,0 h 280 c 0.098,0 0.195,0 0.289,0 v 0 c -0.094,0 -0.191,0 -0.289,0 H 255.031 L 261.504,440 H 180 c -11.047,0 -20,-8.953 -20,-20" /><path
         id="path26"
         style="fill:#404a5f;fill-opacity:1;fill-rule:nonzero;stroke:none"
         d="m 180,170 c -11.047,0 -20,8.953 -20,20 0,11.047 8.953,20 20,20 11.047,0 20,-8.953 20,-20 0,-11.047 -8.953,-20 -20,-20" /><path
         id="path28"
         style="fill:#404a5f;fill-opacity:1;fill-rule:nonzero;stroke:none"
         d="m 460,170 c -11.047,0 -20,8.953 -20,20 0,11.047 8.953,20 20,20 11.047,0 20,-8.953 20,-20 0,-11.047 -8.953,-20 -20,-20" /><path
         id="path30"
         style="fill:#77caa9;fill-opacity:1;fill-rule:nonzero;stroke:none"
         d="m 200,200 c 0,-11.047 -8.953,-20 -20,-20 -11.047,0 -20,8.953 -20,20 0,11.047 8.953,20 20,20 11.047,0 20,-8.953 20,-20" /><path
         id="path32"
         style="fill:#77caa9;fill-opacity:1;fill-rule:nonzero;stroke:none"
         d="m 480,200 c 0,-11.047 -8.953,-20 -20,-20 -11.047,0 -20,8.953 -20,20 0,11.047 8.953,20 20,20 11.047,0 20,-8.953 20,-20" /><path
         id="path34"
         style="fill:#f3cc70;fill-opacity:1;fill-rule:nonzero;stroke:none"
         d="m 250,190 c 0,-5.523 -4.477,-10 -10,-10 -5.523,0 -10,4.477 -10,10 v 20 c 0,5.523 4.477,10 10,10 5.523,0 10,-4.477 10,-10 v -20" /><path
         id="path36"
         style="fill:#f3cc70;fill-opacity:1;fill-rule:nonzero;stroke:none"
         d="m 290,190 c 0,-5.523 -4.477,-10 -10,-10 -5.523,0 -10,4.477 -10,10 v 20 c 0,5.523 4.477,10 10,10 5.523,0 10,-4.477 10,-10 v -20" /><path
         id="path38"
         style="fill:#f3cc70;fill-opacity:1;fill-rule:nonzero;stroke:none"
         d="m 370,190 c 0,-5.523 -4.477,-10 -10,-10 -5.523,0 -10,4.477 -10,10 v 20 c 0,5.523 4.477,10 10,10 5.523,0 10,-4.477 10,-10 v -20" /><path
         id="path40"
         style="fill:#f3cc70;fill-opacity:1;fill-rule:nonzero;stroke:none"
         d="m 410,190 c 0,-5.523 -4.477,-10 -10,-10 -5.523,0 -10,4.477 -10,10 v 20 c 0,5.523 4.477,10 10,10 5.523,0 10,-4.477 10,-10 v -20" /><path
         id="path42"
         style="fill:#f3cc70;fill-opacity:1;fill-rule:nonzero;stroke:none"
         d="m 330,190 c 0,-5.523 -4.477,-10 -10,-10 -5.523,0 -10,4.477 -10,10 v 20 c 0,5.523 4.477,10 10,10 5.523,0 10,-4.477 10,-10 v -20" /><path
         id="path44"
         style="fill:#c7a85f;fill-opacity:1;fill-rule:nonzero;stroke:none"
         d="m 250,200 c 0,5.523 -4.477,10 -10,10 -5.523,0 -10,-4.477 -10,-10 v 10 c 0,5.523 4.477,10 10,10 5.523,0 10,-4.477 10,-10 v -10" /><path
         id="path46"
         style="fill:#c7a85f;fill-opacity:1;fill-rule:nonzero;stroke:none"
         d="m 290,200 c 0,5.523 -4.477,10 -10,10 -5.523,0 -10,-4.477 -10,-10 v 10 c 0,5.523 4.477,10 10,10 5.523,0 10,-4.477 10,-10 v -10" /><path
         id="path48"
         style="fill:#c7a85f;fill-opacity:1;fill-rule:nonzero;stroke:none"
         d="m 370,200 c 0,5.523 -4.477,10 -10,10 -5.523,0 -10,-4.477 -10,-10 v 10 c 0,5.523 4.477,10 10,10 5.523,0 10,-4.477 10,-10 v -10" /><path
         id="path50"
         style="fill:#c7a85f;fill-opacity:1;fill-rule:nonzero;stroke:none"
         d="m 410,200 c 0,5.523 -4.477,10 -10,10 -5.523,0 -10,-4.477 -10,-10 v 10 c 0,5.523 4.477,10 10,10 5.523,0 10,-4.477 10,-10 v -10" /><path
         id="path52"
         style="fill:#c7a85f;fill-opacity:1;fill-rule:nonzero;stroke:none"
         d="m 330,200 c 0,5.523 -4.477,10 -10,10 -5.523,0 -10,-4.477 -10,-10 v 10 c 0,5.523 4.477,10 10,10 5.523,0 10,-4.477 10,-10 v -10" /><path
         id="path54"
         style="fill:#e7e9d7;fill-opacity:1;fill-rule:nonzero;stroke:none"
         d="M 460,250 H 370.777 L 261.504,440 H 460 c 11.047,0 20,-8.953 20,-20 V 270 c 0,-11.047 -8.953,-20 -20,-20" /><path
         id="path56"
         style="fill:#646f80;fill-opacity:1;fill-rule:nonzero;stroke:none"
         d="m 480,431.25 c 0,10.949 -8.797,19.844 -19.711,20 10.914,-0.156 19.711,-9.051 19.711,-20" /><path
         id="path58"
         style="fill:#c7c6b8;fill-opacity:1;fill-rule:nonzero;stroke:none"
         d="m 480,420 c 0,11.047 -8.953,20 -20,20 H 261.504 l -6.473,11.25 H 460 c 0.098,0 0.195,0 0.289,0 10.914,-0.156 19.711,-9.051 19.711,-20 v 0 V 420" /></g></g></svg>