<?xml version="1.0" encoding="UTF-8" standalone="no"?>
<svg
   xmlns:dc="http://purl.org/dc/elements/1.1/"
   xmlns:cc="http://creativecommons.org/ns#"
   xmlns:rdf="http://www.w3.org/1999/02/22-rdf-syntax-ns#"
   xmlns:svg="http://www.w3.org/2000/svg"
   xmlns="http://www.w3.org/2000/svg"
   viewBox="0 0 85.333336 85.333336"
   height="85.333336"
   width="85.333336"
   xml:space="preserve"
   id="svg2"
   version="1.1"><metadata
     id="metadata8"><rdf:RDF><cc:Work
         rdf:about=""><dc:format>image/svg+xml</dc:format><dc:type
           rdf:resource="http://purl.org/dc/dcmitype/StillImage" /></cc:Work></rdf:RDF></metadata><defs
     id="defs6" /><g
     transform="matrix(1.3333333,0,0,-1.3333333,0,85.333333)"
     id="g10"><g
       transform="scale(0.1)"
       id="g12"><path
         id="path14"
         style="fill:#7db6d8;fill-opacity:1;fill-rule:nonzero;stroke:none"
         d="M 640,320 C 640,143.27 496.73,0 320,0 143.27,0 0,143.27 0,320 0,496.73 143.27,640 320,640 496.73,640 640,496.73 640,320" /><path
         id="path16"
         style="fill:#6594b2;fill-opacity:1;fill-rule:nonzero;stroke:none"
         d="m 100.02,154.988 c -1.7583,0 -3.5434,0.313 -5.2895,0.969 -7.7539,2.906 -11.6836,11.555 -8.7735,19.313 l 120,320 c 2.191,5.851 7.789,9.73 14.043,9.73 6.254,0 11.852,-3.879 14.043,-9.73 l 120,-320 c 2.91,-7.758 -1.02,-16.407 -8.773,-19.313 -1.739,-0.652 -3.516,-0.961 -5.27,-0.961 -6.07,0 -11.785,3.715 -14.043,9.734 L 278.98,290 H 161.02 L 114.043,164.73 c -2.25,-6.015 -7.949,-9.742 -14.023,-9.742 M 220,447.281 172.27,320 h 95.46 L 220,447.281" /><path
         id="path18"
         style="fill:#6594b2;fill-opacity:1;fill-rule:nonzero;stroke:none"
         d="m 530,155 h -80 c -46.871,0 -85,38.129 -85,85 0,45.605 36.543,80 85,80 h 65 v 10 c 0,15.883 -4.844,27.484 -14.805,35.465 -13.64,10.926 -35.406,14.144 -55.445,14.144 -17.125,0 -32.992,-2.347 -41.457,-4.242 -1.105,-0.25 -2.211,-0.367 -3.297,-0.367 -6.863,0 -13.055,4.738 -14.625,11.711 -1.816,8.074 3.246,16.098 11.324,17.918 1.657,0.379 22.465,4.957 48,4.957 24.641,0 53.684,-4.262 74.196,-20.66 C 536.215,375.078 545,355.254 545,330 V 170 c 0,-8.285 -6.715,-15 -15,-15 m -80,135 c -31.871,0 -55,-21.031 -55,-50 0,-30.328 24.672,-55 55,-55 h 65 v 105 h -65" /><path
         id="path20"
         style="fill:#ffffff;fill-opacity:1;fill-rule:nonzero;stroke:none"
         d="M 114.047,184.734 220,467.281 325.953,184.734 c 2.91,-7.757 11.559,-11.687 19.313,-8.781 7.757,2.91 11.687,11.559 8.781,19.313 l -120,320 C 231.852,521.117 226.25,525 220,525 c -6.25,0 -11.852,-3.883 -14.047,-9.734 l -119.996,-320 c -2.9101,-7.754 1.0196,-16.403 8.7774,-19.313 7.7536,-2.906 16.4026,1.024 19.3126,8.781" /><path
         id="path22"
         style="fill:#ffffff;fill-opacity:1;fill-rule:nonzero;stroke:none"
         d="m 160,310 h 120 c 8.285,0 15,6.715 15,15 0,8.285 -6.715,15 -15,15 H 160 c -8.285,0 -15,-6.715 -15,-15 0,-8.285 6.715,-15 15,-15" /><path
         id="path24"
         style="fill:#ffffff;fill-opacity:1;fill-rule:nonzero;stroke:none"
         d="m 403.305,395.367 0.117,0.028 c 1.687,0.382 20.301,4.246 41.707,4.226 17.371,0.082 36.387,-2.742 49.09,-10.121 6.406,-3.676 11.301,-8.187 14.851,-14.227 3.524,-6.058 5.907,-13.957 5.93,-25.273 0,-100 0,-160 0,-160 h 15 v 15 h -80 c -15.234,0.008 -28.891,6.133 -38.891,16.109 -9.976,10 -16.101,23.657 -16.109,38.891 0.074,15.234 5.898,27.055 15.547,35.855 9.672,8.727 23.516,14.141 39.453,14.145 h 70 c 8.285,0 15,6.715 15,15 0,8.285 -6.715,15 -15,15 h -70 c -22.723,0.004 -43.879,-7.754 -59.539,-21.859 C 374.773,304.105 364.926,283.426 365,260 c 0.012,-46.949 38.051,-84.988 85,-85 h 80 c 3.949,0 7.813,1.602 10.605,4.395 2.793,2.793 4.395,6.656 4.395,10.605 0,0 0,60 0,160 0.023,15.648 -3.508,29.309 -10.035,40.422 -4.867,8.336 -11.317,15.113 -18.496,20.359 -10.797,7.887 -23.09,12.477 -35.348,15.219 -12.277,2.73 -24.633,3.613 -35.992,3.621 -26.52,-0.023 -47.777,-4.859 -48.434,-4.988 -8.082,-1.828 -13.152,-9.86 -11.328,-17.938 1.828,-8.082 9.86,-13.152 17.938,-11.328" /></g></g></svg>