<?xml version="1.0" encoding="UTF-8" standalone="no"?>
<svg
   xmlns:dc="http://purl.org/dc/elements/1.1/"
   xmlns:cc="http://creativecommons.org/ns#"
   xmlns:rdf="http://www.w3.org/1999/02/22-rdf-syntax-ns#"
   xmlns:svg="http://www.w3.org/2000/svg"
   xmlns="http://www.w3.org/2000/svg"
   viewBox="0 0 85.333336 85.333336"
   height="85.333336"
   width="85.333336"
   xml:space="preserve"
   id="svg2"
   version="1.1"><metadata
     id="metadata8"><rdf:RDF><cc:Work
         rdf:about=""><dc:format>image/svg+xml</dc:format><dc:type
           rdf:resource="http://purl.org/dc/dcmitype/StillImage" /></cc:Work></rdf:RDF></metadata><defs
     id="defs6" /><g
     transform="matrix(1.3333333,0,0,-1.3333333,0,85.333333)"
     id="g10"><g
       transform="scale(0.1)"
       id="g12"><path
         id="path14"
         style="fill:#495672;fill-opacity:1;fill-rule:nonzero;stroke:none"
         d="M 640,320 C 640,143.27 496.73,0 320,0 143.27,0 0,143.27 0,320 0,496.73 143.27,640 320,640 496.73,640 640,496.73 640,320" /><path
         id="path16"
         style="fill:#404a5f;fill-opacity:1;fill-rule:nonzero;stroke:none"
         d="m 320,190 c -132.547,0 -240,60 -240,80 0,2.496 2.043,5.828 5.9102,9.711 C 110.098,254.598 205.719,210 320,210 c 114.57,0 210.391,44.828 234.273,69.902 3.75,-3.89 5.727,-7.273 5.727,-9.902 0,-20 -107.453,-80 -240,-80" /><path
         id="path18"
         style="fill:#e1e3cc;fill-opacity:1;fill-rule:nonzero;stroke:none"
         d="m 560,290 c 0,-20 -107.453,-80 -240,-80 -132.547,0 -240,60 -240,80 0,18.121 107.453,80 240,80 132.547,0 240,-60.633 240,-80" /><path
         id="path20"
         style="fill:#404a5f;fill-opacity:1;fill-rule:nonzero;stroke:none"
         d="M 228.656,360.484 C 239.699,400.563 276.41,430 320,430 c 43.523,0 80.191,-29.352 91.293,-69.34 C 383.152,366.395 352.32,370 320,370 c -32.344,0 -63.184,-3.684 -91.344,-9.516" /><path
         id="path22"
         style="fill:#b7b7a7;fill-opacity:1;fill-rule:nonzero;stroke:none"
         d="m 320,280 c -52.32,0 -94.738,2.941 -94.738,55.266 0,8.73 1.183,17.187 3.394,25.218 28.16,5.832 59,9.516 91.344,9.516 32.32,0 63.152,-3.605 91.293,-9.34 2.246,-8.082 3.445,-16.597 3.445,-25.394 C 414.738,282.941 372.32,280 320,280" /><path
         id="path24"
         style="fill:#7db6d8;fill-opacity:1;fill-rule:nonzero;stroke:none"
         d="M 414.738,355.266 C 414.738,302.941 372.32,300 320,300 c -52.32,0 -94.738,2.941 -94.738,55.266 0,52.32 42.418,94.734 94.738,94.734 52.32,0 94.738,-42.414 94.738,-94.734" /></g></g></svg>