<?xml version="1.0" encoding="UTF-8" standalone="no"?>
<svg
   xmlns:dc="http://purl.org/dc/elements/1.1/"
   xmlns:cc="http://creativecommons.org/ns#"
   xmlns:rdf="http://www.w3.org/1999/02/22-rdf-syntax-ns#"
   xmlns:svg="http://www.w3.org/2000/svg"
   xmlns="http://www.w3.org/2000/svg"
   viewBox="0 0 85.333336 85.333336"
   height="85.333336"
   width="85.333336"
   xml:space="preserve"
   id="svg2"
   version="1.1"><metadata
     id="metadata8"><rdf:RDF><cc:Work
         rdf:about=""><dc:format>image/svg+xml</dc:format><dc:type
           rdf:resource="http://purl.org/dc/dcmitype/StillImage" /></cc:Work></rdf:RDF></metadata><defs
     id="defs6" /><g
     transform="matrix(1.3333333,0,0,-1.3333333,0,85.333333)"
     id="g10"><g
       transform="scale(0.1)"
       id="g12"><path
         id="path14"
         style="fill:#7db6d8;fill-opacity:1;fill-rule:nonzero;stroke:none"
         d="M 640,320 C 640,143.27 496.73,0 320,0 143.27,0 0,143.27 0,320 0,496.73 143.27,640 320,640 496.73,640 640,496.73 640,320" /><path
         id="path16"
         style="fill:#6594b2;fill-opacity:1;fill-rule:nonzero;stroke:none"
         d="m 260,80 c -44.109,0 -80,35.891 -80,80 0,2.316 0.395,4.543 1.121,6.613 C 187.508,128.855 220.449,100 260,100 c 44.109,0 80,35.891 80,80 v -20 c 0,-44.109 -35.891,-80 -80,-80" /><path
         id="path18"
         style="fill:#495672;fill-opacity:1;fill-rule:nonzero;stroke:none"
         d="m 260,100 c -44.109,0 -80,35.891 -80,80 0,11.047 8.953,20 20,20 11.047,0 20,-8.953 20,-20 0,-22.062 17.945,-40 40,-40 22.055,0 40,17.938 40,40 v 360 c 0,11.047 8.953,20 20,20 11.047,0 20,-8.953 20,-20 V 180 c 0,-44.109 -35.891,-80 -80,-80" /><path
         id="path20"
         style="fill:#6594b2;fill-opacity:1;fill-rule:nonzero;stroke:none"
         d="m 560,280 c -17.047,11.363 -34.848,15.152 -51.012,15.152 -32.32,0 -58.078,-15.152 -58.078,-15.152 0,10.918 -48.105,28.914 -110.91,32.203 V 519.18 C 463.184,509.012 560,405.809 560,280 m -370.91,0 c 0,0 -26.059,15.152 -58.383,15.152 -16.16,0 -33.8906,-3.789 -50.707,-15.152 0,125.809 96.816,229.012 220,239.18 V 312.203 C 237.195,308.914 189.09,290.918 189.09,280" /><path
         id="path22"
         style="fill:#404a5f;fill-opacity:1;fill-rule:nonzero;stroke:none"
         d="m 340,312.203 c -6.52,0.344 -13.199,0.524 -20,0.524 -6.801,0 -13.48,-0.18 -20,-0.524 V 519.18 c 6.598,0.543 13.262,0.82 20,0.82 6.738,0 13.402,-0.277 20,-0.82 V 312.203" /><path
         id="path24"
         style="fill:#c84755;fill-opacity:1;fill-rule:nonzero;stroke:none"
         d="m 189.09,300 c 0,0 2.726,176.59 130.91,240 C 187.453,540 80,432.547 80,300 c 50.453,34.09 109.09,0 109.09,0" /><path
         id="path26"
         style="fill:#c84755;fill-opacity:1;fill-rule:nonzero;stroke:none"
         d="m 450.91,300 c 0,0 57.953,34.09 109.09,0 0,132.547 -107.453,240 -240,240 128.184,-63.41 130.91,-240 130.91,-240" /><path
         id="path28"
         style="fill:#ffffff;fill-opacity:1;fill-rule:nonzero;stroke:none"
         d="m 189.09,300 c 0,12.051 58.609,32.727 130.91,32.727 72.301,0 130.91,-20.676 130.91,-32.727 0,0 -2.726,176.59 -130.91,240 C 191.816,476.59 189.09,300 189.09,300" /><path
         id="path30"
         style="fill:#495672;fill-opacity:1;fill-rule:nonzero;stroke:none"
         d="m 320,510 c -11.047,0 -20,8.953 -20,20 v 10 c 0,11.047 8.953,20 20,20 11.047,0 20,-8.953 20,-20 v -10 c 0,-11.047 -8.953,-20 -20,-20" /></g></g></svg>