<?xml version="1.0" encoding="UTF-8" standalone="no"?>
<svg
   xmlns:dc="http://purl.org/dc/elements/1.1/"
   xmlns:cc="http://creativecommons.org/ns#"
   xmlns:rdf="http://www.w3.org/1999/02/22-rdf-syntax-ns#"
   xmlns:svg="http://www.w3.org/2000/svg"
   xmlns="http://www.w3.org/2000/svg"
   viewBox="0 0 85.333336 85.333336"
   height="85.333336"
   width="85.333336"
   xml:space="preserve"
   id="svg2"
   version="1.1"><metadata
     id="metadata8"><rdf:RDF><cc:Work
         rdf:about=""><dc:format>image/svg+xml</dc:format><dc:type
           rdf:resource="http://purl.org/dc/dcmitype/StillImage" /></cc:Work></rdf:RDF></metadata><defs
     id="defs6" /><g
     transform="matrix(1.3333333,0,0,-1.3333333,0,85.333333)"
     id="g10"><g
       transform="scale(0.1)"
       id="g12"><path
         id="path14"
         style="fill:#77caa9;fill-opacity:1;fill-rule:nonzero;stroke:none"
         d="M 640,322.445 C 640,145.715 496.73,2.44531 320,2.44531 143.27,2.44531 0,145.715 0,322.445 c 0,176.731 143.27,320 320,320 176.73,0 320,-143.269 320,-320" /><path
         id="path16"
         style="fill:#62a48d;fill-opacity:1;fill-rule:nonzero;stroke:none"
         d="m 320,90 c -71.797,0 -130,58.203 -130,130 0,64.996 47.699,118.852 110,128.473 V 307.762 C 259.969,298.641 230,262.754 230,220 c 0,-49.625 40.375,-90 90,-90 49.625,0 90,40.375 90,90 0,42.754 -29.969,78.641 -70,87.762 v 40.711 C 402.301,338.852 450,284.996 450,220 450,148.203 391.797,90 320,90" /><path
         id="path18"
         style="fill:#62a48d;fill-opacity:1;fill-rule:nonzero;stroke:none"
         d="m 280.02,173.336 c -6.465,0 -12.809,3.125 -16.661,8.906 -6.129,9.192 -3.64,21.606 5.547,27.735 l 32.821,21.878 C 304.848,224.871 311.855,220 320,220 c 11.047,0 20,8.953 20,20 v 17.371 l 8.906,5.938 c 3.407,2.277 7.262,3.367 11.071,3.367 6.464,0 12.812,-3.137 16.664,-8.914 6.129,-9.192 3.64,-21.61 -5.547,-27.735 l -80,-53.332 c -3.406,-2.273 -7.266,-3.359 -11.074,-3.359" /><path
         id="path20"
         style="fill:#495672;fill-opacity:1;fill-rule:nonzero;stroke:none"
         d="m 320,370 c -71.797,0 -130,-58.203 -130,-130 0,-71.797 58.203,-130 130,-130 71.797,0 130,58.203 130,130 0,71.797 -58.203,130 -130,130 z m 0,-40 c 49.625,0 90,-40.375 90,-90 0,-49.625 -40.375,-90 -90,-90 -49.625,0 -90,40.375 -90,90 0,49.625 40.375,90 90,90" /><path
         id="path22"
         style="fill:#e1e3cc;fill-opacity:1;fill-rule:nonzero;stroke:none"
         d="m 340,240 v 255.938 c 0,11.042 -8.953,20 -20,20 -11.047,0 -20,-8.958 -20,-20 V 240 c 0,-11.047 8.953,-20 20,-20 11.047,0 20,8.953 20,20" /><path
         id="path24"
         style="fill:#ffffff;fill-opacity:1;fill-rule:nonzero;stroke:none"
         d="m 291.094,196.691 80,53.336 c 9.191,6.125 11.676,18.543 5.547,27.735 -6.125,9.191 -18.543,11.672 -27.735,5.547 l -80,-53.332 c -9.191,-6.129 -11.676,-18.547 -5.547,-27.739 6.125,-9.187 18.543,-11.672 27.735,-5.547" /><path
         id="path26"
         style="fill:#62a48d;fill-opacity:1;fill-rule:nonzero;stroke:none"
         d="m 300,465.746 c -21.809,2.434 -40.062,10.258 -51.094,17.613 -9.187,6.125 -11.676,18.543 -5.547,27.735 3.852,5.781 10.188,8.914 16.653,8.914 3.777,0 7.597,-1.07 10.988,-3.305 1.105,-0.711 13.492,-8.476 31.535,-11.012 C 300.922,502.809 300,499.48 300,495.938 v -30.192 m 40,2.164 v 28.028 c 0,4.582 -1.539,8.8 -4.133,12.171 10.086,3.008 20.696,8.391 31.328,17.254 3.739,3.117 8.282,4.637 12.793,4.637 5.731,0 11.418,-2.449 15.379,-7.199 7.071,-8.485 5.922,-21.094 -2.562,-28.168 C 375.332,480.074 357.309,471.844 340,467.91" /><path
         id="path28"
         style="fill:#b7b7a7;fill-opacity:1;fill-rule:nonzero;stroke:none"
         d="m 313.699,464.98 c -4.691,0 -9.269,0.27 -13.699,0.766 v 30.192 c 0,3.542 0.922,6.871 2.535,9.753 3.551,-0.496 7.317,-0.793 11.258,-0.793 6.895,0 14.328,0.907 22.074,3.211 2.594,-3.371 4.133,-7.589 4.133,-12.171 V 467.91 c -9.02,-2.051 -17.848,-2.93 -26.301,-2.93" /><path
         id="path30"
         style="fill:#495672;fill-opacity:1;fill-rule:nonzero;stroke:none"
         d="m 248.906,503.359 c 0.891,-0.586 7.719,-5.066 19.059,-9.539 11.328,-4.453 27.258,-8.953 46.219,-8.965 23.64,-0.121 52.086,7.524 78.617,29.782 8.488,7.07 9.633,19.679 2.562,28.164 -7.07,8.488 -19.679,9.637 -28.164,2.562 -19.625,-16.199 -37.332,-20.386 -53.015,-20.508 -12.5,-0.015 -23.664,3.059 -31.563,6.18 -3.937,1.555 -7.047,3.098 -9.055,4.184 -1.003,0.547 -1.734,0.972 -2.156,1.23 l -0.398,0.246 -0.024,0.016 -6.711,-10.293 6.817,10.223 -0.106,0.07 -6.711,-10.293 6.817,10.223 c -9.192,6.129 -21.61,3.644 -27.735,-5.547 -6.129,-9.192 -3.644,-21.61 5.547,-27.735" /></g></g></svg>