<?xml version="1.0" encoding="UTF-8" standalone="no"?>
<svg
   xmlns:dc="http://purl.org/dc/elements/1.1/"
   xmlns:cc="http://creativecommons.org/ns#"
   xmlns:rdf="http://www.w3.org/1999/02/22-rdf-syntax-ns#"
   xmlns:svg="http://www.w3.org/2000/svg"
   xmlns="http://www.w3.org/2000/svg"
   viewBox="0 0 85.333336 85.333336"
   height="85.333336"
   width="85.333336"
   xml:space="preserve"
   id="svg2"
   version="1.1"><metadata
     id="metadata8"><rdf:RDF><cc:Work
         rdf:about=""><dc:format>image/svg+xml</dc:format><dc:type
           rdf:resource="http://purl.org/dc/dcmitype/StillImage" /></cc:Work></rdf:RDF></metadata><defs
     id="defs6" /><g
     transform="matrix(1.3333333,0,0,-1.3333333,0,85.333333)"
     id="g10"><g
       transform="scale(0.1)"
       id="g12"><path
         id="path14"
         style="fill:#7db6d8;fill-opacity:1;fill-rule:nonzero;stroke:none"
         d="M 640,320 C 640,143.27 496.73,0 320,0 143.27,0 0,143.27 0,320 0,496.73 143.27,640 320,640 496.73,640 640,496.73 640,320" /><path
         id="path16"
         style="fill:#6594b2;fill-opacity:1;fill-rule:nonzero;stroke:none"
         d="m 235,381.672 v 20 c 0,46.863 38.129,85 85,85 28.953,0 55.652,-14.543 71.418,-38.891 4.785,-7.39 12.809,-11.418 21.004,-11.414 4.652,0 9.363,1.297 13.562,4.016 4.286,2.769 7.442,6.633 9.336,10.984 4.828,-11.023 1.098,-24.234 -9.336,-30.984 -4.199,-2.719 -8.91,-4.016 -13.562,-4.016 -8.195,-0.004 -16.219,4.024 -21.004,11.414 -15.766,24.348 -42.465,38.891 -71.418,38.891 -46.871,0 -85,-38.137 -85,-85" /><path
         id="path18"
         style="fill:#495672;fill-opacity:1;fill-rule:nonzero;stroke:none"
         d="m 210,303.328 c -13.809,0 -25,11.195 -25,25 v 73.344 c 0,74.441 60.563,135 135,135 45.984,0 88.375,-23.078 113.391,-61.723 7.504,-11.59 4.187,-27.066 -7.407,-34.566 -11.597,-7.5 -27.062,-4.192 -34.566,7.398 -15.766,24.348 -42.465,38.891 -71.418,38.891 -46.871,0 -85,-38.137 -85,-85 v -73.344 c 0,-13.805 -11.191,-25 -25,-25" /><path
         id="path20"
         style="fill:#495672;fill-opacity:1;fill-rule:nonzero;stroke:none"
         d="m 320,320 c -22.094,0 -40,-17.906 -40,-40 0,-14.77 8.094,-27.523 20,-34.453 V 220 c 0,-11.047 8.953,-20 20,-20 11.047,0 20,8.953 20,20 v 25.547 c 11.906,6.93 20,19.683 20,34.453 0,22.094 -17.906,40 -40,40" /><path
         id="path22"
         style="fill:#6594b2;fill-opacity:1;fill-rule:nonzero;stroke:none"
         d="M 470,120 H 170 c -16.57,0 -30,13.43 -30,30 v 190 c 0,16.57 13.43,30 30,30 h 15 v -61.672 c 0,-13.808 11.191,-25 25,-25 13.809,0 25,11.192 25,25 v 20 0 V 370 h 235 c 16.57,0 30,-13.43 30,-30 V 150 c 0,-16.57 -13.43,-30 -30,-30 M 300,220 v -20 c 0,-11.047 8.953,-20 20,-20 11.047,0 20,8.953 20,20 v 25.547 c 11.906,6.93 20,19.683 20,34.453 0,3.465 -0.441,6.828 -1.27,10.035 0.829,3.18 1.27,6.516 1.27,9.965 0,22.094 -17.906,40 -40,40 -22.094,0 -40,-17.906 -40,-40 0,-3.449 0.441,-6.785 1.27,-9.965 -0.829,-3.207 -1.27,-6.57 -1.27,-10.035 0,-14.77 8.094,-27.523 20,-34.453 V 220 v 0" /><path
         id="path24"
         style="fill:#567a95;fill-opacity:1;fill-rule:nonzero;stroke:none"
         d="m 210,283.328 c -13.809,0 -25,11.192 -25,25 V 370 328.328 c 0,-13.805 11.191,-25 25,-25 13.809,0 25,11.195 25,25 v -20 c 0,-13.808 -11.191,-25 -25,-25" /><path
         id="path26"
         style="fill:#404a5f;fill-opacity:1;fill-rule:nonzero;stroke:none"
         d="m 210,303.328 c -13.809,0 -25,11.195 -25,25 V 370 h 50 v -41.672 0 c 0,-13.805 -11.191,-25 -25,-25" /><path
         id="path28"
         style="fill:#404a5f;fill-opacity:1;fill-rule:nonzero;stroke:none"
         d="m 300,220 v 0 5.547 V 220 m -18.73,50.035 c -0.829,3.18 -1.27,6.516 -1.27,9.965 0,22.094 17.906,40 40,40 22.094,0 40,-17.906 40,-40 0,-3.449 -0.441,-6.785 -1.27,-9.965 C 354.277,287.27 338.625,300 320,300 c -18.625,0 -34.277,-12.73 -38.73,-29.965" /><path
         id="path30"
         style="fill:#ffffff;fill-opacity:1;fill-rule:nonzero;stroke:none"
         d="M 340,245.547 V 220 c 0,-11.047 -8.953,-20 -20,-20 -11.047,0 -20,8.953 -20,20 v 25.547 c -11.906,6.93 -20,19.683 -20,34.453 0,22.094 17.906,40 40,40 22.094,0 40,-17.906 40,-40 0,-14.77 -8.094,-27.523 -20,-34.453 z M 470,390 H 170 c -16.57,0 -30,-13.43 -30,-30 V 170 c 0,-16.57 13.43,-30 30,-30 h 300 c 16.57,0 30,13.43 30,30 v 190 c 0,16.57 -13.43,30 -30,30" /></g></g></svg>