<?xml version="1.0" encoding="UTF-8" standalone="no"?>
<svg
   xmlns:dc="http://purl.org/dc/elements/1.1/"
   xmlns:cc="http://creativecommons.org/ns#"
   xmlns:rdf="http://www.w3.org/1999/02/22-rdf-syntax-ns#"
   xmlns:svg="http://www.w3.org/2000/svg"
   xmlns="http://www.w3.org/2000/svg"
   viewBox="0 0 85.333336 85.333336"
   height="85.333336"
   width="85.333336"
   xml:space="preserve"
   id="svg2"
   version="1.1"><metadata
     id="metadata8"><rdf:RDF><cc:Work
         rdf:about=""><dc:format>image/svg+xml</dc:format><dc:type
           rdf:resource="http://purl.org/dc/dcmitype/StillImage" /></cc:Work></rdf:RDF></metadata><defs
     id="defs6" /><g
     transform="matrix(1.3333333,0,0,-1.3333333,0,85.333333)"
     id="g10"><g
       transform="scale(0.1)"
       id="g12"><path
         id="path14"
         style="fill:#77caa9;fill-opacity:1;fill-rule:nonzero;stroke:none"
         d="M 640,320 C 640,143.27 496.73,0 320,0 143.27,0 0,143.27 0,320 0,496.73 143.27,640 320,640 496.73,640 640,496.73 640,320" /><path
         id="path16"
         style="fill:#62a48d;fill-opacity:1;fill-rule:nonzero;stroke:none"
         d="M 480,160 H 380 c -11.047,0 -20,8.953 -20,20 v 55 c 0,8.285 6.715,15 15,15 h 30.613 c 14.715,0 18.828,10.102 9.137,22.449 l -77.133,98.289 C 332.773,376.914 326.387,380 320,380 c -6.387,0 -12.773,-3.086 -17.617,-9.262 L 225.25,272.449 C 215.559,260.102 219.672,250 234.387,250 H 265 c 8.285,0 15,-6.715 15,-15 v -55 c 0,-11.047 -8.953,-20 -20,-20 h -80 c -55.227,0 -100,44.773 -100,100 0,50.09 36.867,91.453 84.922,98.742 C 182.266,428.352 245.02,480 320,480 c 88.363,0 160,-71.637 160,-160 44.184,0 80,-35.816 80,-80 0,-44.184 -35.816,-80 -80,-80" /><path
         id="path18"
         style="fill:#ffffff;fill-opacity:1;fill-rule:nonzero;stroke:none"
         d="M 480,340 C 480,428.363 408.363,500 320,500 245.02,500 182.266,448.352 164.922,378.742 116.867,371.453 80,330.09 80,280 80,224.773 124.773,180 180,180 h 80 c 11.047,0 20,8.953 20,20 v 55 c 0,8.285 -6.715,15 -15,15 h -30.613 c -14.715,0 -18.828,10.102 -9.137,22.449 l 77.133,98.289 c 9.687,12.348 25.547,12.348 35.234,0 L 414.75,292.449 C 424.441,280.102 420.328,270 405.613,270 H 375 c -8.285,0 -15,-6.715 -15,-15 v -55 c 0,-11.047 8.953,-20 20,-20 h 100 c 44.184,0 80,35.816 80,80 0,44.184 -35.816,80 -80,80" /></g></g></svg>