<?xml version="1.0" encoding="UTF-8" standalone="no"?>
<svg
   xmlns:dc="http://purl.org/dc/elements/1.1/"
   xmlns:cc="http://creativecommons.org/ns#"
   xmlns:rdf="http://www.w3.org/1999/02/22-rdf-syntax-ns#"
   xmlns:svg="http://www.w3.org/2000/svg"
   xmlns="http://www.w3.org/2000/svg"
   viewBox="0 0 85.333336 85.333336"
   height="85.333336"
   width="85.333336"
   xml:space="preserve"
   id="svg2"
   version="1.1"><metadata
     id="metadata8"><rdf:RDF><cc:Work
         rdf:about=""><dc:format>image/svg+xml</dc:format><dc:type
           rdf:resource="http://purl.org/dc/dcmitype/StillImage" /></cc:Work></rdf:RDF></metadata><defs
     id="defs6" /><g
     transform="matrix(1.3333333,0,0,-1.3333333,0,85.333333)"
     id="g10"><g
       transform="scale(0.1)"
       id="g12"><path
         id="path14"
         style="fill:#77caa9;fill-opacity:1;fill-rule:nonzero;stroke:none"
         d="M 640,320 C 640,143.27 496.73,0 320,0 143.27,0 0,143.27 0,320 0,496.73 143.27,640 320,640 496.73,640 640,496.73 640,320" /><path
         id="path16"
         style="fill:#495672;fill-opacity:1;fill-rule:nonzero;stroke:none"
         d="m 310,260 h 110 v 80 H 310 Z" /><path
         id="path18"
         style="fill:#62a48d;fill-opacity:1;fill-rule:nonzero;stroke:none"
         d="M 320,120 H 160 c -11.047,0 -20,8.953 -20,20 v 173.645 0 V 160 c 0,-11.047 8.953,-20 20,-20 h 160 c 11.047,0 20,8.953 20,20 v -20 c 0,-11.047 -8.953,-20 -20,-20" /><path
         id="path20"
         style="fill:#62a48d;fill-opacity:1;fill-rule:nonzero;stroke:none"
         d="M 530,160 H 390 c -11.047,0 -20,8.953 -20,20 v 60 h 50 v 100 h -50 v 40 c 0,11.047 8.953,20 20,20 h 140 c 11.047,0 20,-8.953 20,-20 V 180 c 0,-11.047 -8.953,-20 -20,-20" /><path
         id="path22"
         style="fill:#62a48d;fill-opacity:1;fill-rule:nonzero;stroke:none"
         d="m 340,240 h 30 v 20 h -30 z" /><path
         id="path24"
         style="fill:#404a5f;fill-opacity:1;fill-rule:nonzero;stroke:none"
         d="m 370,260 h -30 v 53.645 c 5.414,8.14 9.859,16.98 13.172,26.355 H 370 v -80" /><path
         id="path26"
         style="fill:#538777;fill-opacity:1;fill-rule:nonzero;stroke:none"
         d="m 420,240 h -50 v 20 h 50 v 80 -100" /><path
         id="path28"
         style="fill:#394051;fill-opacity:1;fill-rule:nonzero;stroke:none"
         d="m 370,260 h 50 v 80 h -50 z" /><path
         id="path30"
         style="fill:#495672;fill-opacity:1;fill-rule:nonzero;stroke:none"
         d="m 340,160 c 0,-11.047 -8.953,-20 -20,-20 H 160 c -11.047,0 -20,8.953 -20,20 v 240 c 0,11.047 8.953,20 20,20 h 160 c 11.047,0 20,-8.953 20,-20 V 160" /><path
         id="path32"
         style="fill:#495672;fill-opacity:1;fill-rule:nonzero;stroke:none"
         d="m 550,200 c 0,-11.047 -8.953,-20 -20,-20 H 390 c -11.047,0 -20,8.953 -20,20 v 200 c 0,11.047 8.953,20 20,20 h 140 c 11.047,0 20,-8.953 20,-20 V 200" /><path
         id="path34"
         style="fill:#495672;fill-opacity:1;fill-rule:nonzero;stroke:none"
         d="m 240,490 c -49.625,0 -90,-40.375 -90,-90 0,-49.625 40.375,-90 90,-90 49.625,0 90,40.375 90,90 0,49.625 -40.375,90 -90,90" /><path
         id="path36"
         style="fill:#404a5f;fill-opacity:1;fill-rule:nonzero;stroke:none"
         d="m 185,190 c -13.809,0 -25,11.191 -25,25 0,13.809 11.191,25 25,25 13.809,0 25,-11.191 25,-25 0,-13.809 -11.191,-25 -25,-25" /><path
         id="path38"
         style="fill:#c84755;fill-opacity:1;fill-rule:nonzero;stroke:none"
         d="m 210,235 c 0,-13.809 -11.191,-25 -25,-25 -13.809,0 -25,11.191 -25,25 0,13.809 11.191,25 25,25 13.809,0 25,-11.191 25,-25" /><path
         id="path40"
         style="fill:#62a48d;fill-opacity:1;fill-rule:nonzero;stroke:none"
         d="m 140,313.645 c -12.637,19.003 -20,41.824 -20,66.355 0,66.273 53.727,120 120,120 66.273,0 120,-53.727 120,-120 0,-14.023 -2.406,-27.488 -6.828,-40 H 340 v 60 c 0,8.148 -4.875,15.16 -11.863,18.277 C 319.668,459.168 283.363,490 240,490 196.637,490 160.336,459.168 151.863,418.277 144.875,415.16 140,408.148 140,400 v -20 0 -66.355" /><path
         id="path42"
         style="fill:#394051;fill-opacity:1;fill-rule:nonzero;stroke:none"
         d="M 340,313.645 V 340 h 13.172 C 349.859,330.625 345.414,321.785 340,313.645" /><path
         id="path44"
         style="fill:#404a5f;fill-opacity:1;fill-rule:nonzero;stroke:none"
         d="m 240,260 c -41.742,0 -78.504,21.309 -100,53.645 V 380 400 c 0,8.148 4.875,15.16 11.863,18.277 C 150.641,412.371 150,406.262 150,400 c 0,-3.379 0.188,-6.715 0.551,-10 -0.363,-3.285 -0.551,-6.621 -0.551,-10 0,-49.625 40.375,-90 90,-90 49.625,0 90,40.375 90,90 0,3.379 -0.187,6.715 -0.551,10 0.364,3.285 0.551,6.621 0.551,10 0,6.262 -0.641,12.371 -1.863,18.277 C 335.125,415.16 340,408.148 340,400 V 340 313.645 C 318.504,281.309 281.742,260 240,260" /><path
         id="path46"
         style="fill:#404a5f;fill-opacity:1;fill-rule:nonzero;stroke:none"
         d="m 329.449,390 c -4.992,44.938 -43.203,80 -89.449,80 -46.246,0 -84.457,-35.062 -89.449,-80 -0.363,3.285 -0.551,6.621 -0.551,10 0,6.262 0.641,12.371 1.863,18.277 C 160.336,459.168 196.637,490 240,490 c 43.363,0 79.668,-30.832 88.137,-71.723 C 329.359,412.371 330,406.262 330,400 c 0,-3.379 -0.187,-6.715 -0.551,-10" /><path
         id="path48"
         style="fill:#e1e3cc;fill-opacity:1;fill-rule:nonzero;stroke:none"
         d="m 240,310 c -49.625,0 -90,40.375 -90,90 0,49.625 40.375,90 90,90 49.625,0 90,-40.375 90,-90 0,-49.625 -40.375,-90 -90,-90 z m 0,210 c -66.273,0 -120,-53.727 -120,-120 0,-66.273 53.727,-120 120,-120 66.273,0 120,53.727 120,120 0,66.273 -53.727,120 -120,120" /></g></g></svg>