<?xml version="1.0" encoding="UTF-8" standalone="no"?>
<svg
   xmlns:dc="http://purl.org/dc/elements/1.1/"
   xmlns:cc="http://creativecommons.org/ns#"
   xmlns:rdf="http://www.w3.org/1999/02/22-rdf-syntax-ns#"
   xmlns:svg="http://www.w3.org/2000/svg"
   xmlns="http://www.w3.org/2000/svg"
   viewBox="0 0 85.333336 85.333336"
   height="85.333336"
   width="85.333336"
   xml:space="preserve"
   id="svg2"
   version="1.1"><metadata
     id="metadata8"><rdf:RDF><cc:Work
         rdf:about=""><dc:format>image/svg+xml</dc:format><dc:type
           rdf:resource="http://purl.org/dc/dcmitype/StillImage" /></cc:Work></rdf:RDF></metadata><defs
     id="defs6" /><g
     transform="matrix(1.3333333,0,0,-1.3333333,0,85.333333)"
     id="g10"><g
       transform="scale(0.1)"
       id="g12"><path
         id="path14"
         style="fill:#c84755;fill-opacity:1;fill-rule:nonzero;stroke:none"
         d="M 638.332,320 C 638.332,143.27 495.066,0 318.332,0 141.602,0 -1.66797,143.27 -1.66797,320 c 0,176.73 143.26997,320 319.99997,320 176.734,0 320,-143.27 320,-320" /><path
         id="path16"
         style="fill:#495672;fill-opacity:1;fill-rule:nonzero;stroke:none"
         d="m 160,300 h 40 v 40 h -40 z" /><path
         id="path18"
         style="fill:#495672;fill-opacity:1;fill-rule:nonzero;stroke:none"
         d="m 160,230 h 40 v 40 h -40 z" /><path
         id="path20"
         style="fill:#495672;fill-opacity:1;fill-rule:nonzero;stroke:none"
         d="m 160,160 h 40 v 40 h -40 z" /><path
         id="path22"
         style="fill:#495672;fill-opacity:1;fill-rule:nonzero;stroke:none"
         d="m 160,370 h 40 v 40 h -40 z" /><path
         id="path24"
         style="fill:#495672;fill-opacity:1;fill-rule:nonzero;stroke:none"
         d="m 160,440 h 40 v 40 h -40 z" /><path
         id="path26"
         style="fill:#495672;fill-opacity:1;fill-rule:nonzero;stroke:none"
         d="m 440,300 h 40 v 40 h -40 z" /><path
         id="path28"
         style="fill:#495672;fill-opacity:1;fill-rule:nonzero;stroke:none"
         d="m 440,230 h 40 v 40 h -40 z" /><path
         id="path30"
         style="fill:#495672;fill-opacity:1;fill-rule:nonzero;stroke:none"
         d="m 440,160 h 40 v 40 h -40 z" /><path
         id="path32"
         style="fill:#495672;fill-opacity:1;fill-rule:nonzero;stroke:none"
         d="m 440,370 h 40 v 40 h -40 z" /><path
         id="path34"
         style="fill:#495672;fill-opacity:1;fill-rule:nonzero;stroke:none"
         d="m 440,440 h 40 v 40 h -40 z" /><path
         id="path36"
         style="fill:#495672;fill-opacity:1;fill-rule:nonzero;stroke:none"
         d="M 240,340 H 400 V 480 H 240 Z" /><path
         id="path38"
         style="fill:#495672;fill-opacity:1;fill-rule:nonzero;stroke:none"
         d="M 240,160 H 400 V 300 H 240 Z" /><path
         id="path40"
         style="fill:#a43f4a;fill-opacity:1;fill-rule:nonzero;stroke:none"
         d="M 480,100 H 160 c -22.094,0 -40,17.91 -40,40 v 320 c 0,22.094 17.906,40 40,40 h 320 c 22.094,0 40,-17.906 40,-40 V 140 c 0,-22.09 -17.906,-40 -40,-40 m -40,60 v -20 h 40 v 40 20 h -40 v -40 m -200,0 v -20 h 160 v 140 20 H 240 V 160 m -80,0 v -20 h 40 v 40 20 h -40 v -40 m 280,70 v -20 h 40 v 40 20 h -40 v -40 m -280,0 v -20 h 40 v 40 20 h -40 v -40 m 280,70 v -20 h 40 v 40 20 h -40 v -40 m -280,0 v -20 h 40 v 40 20 h -40 v -40 m 80,40 v -20 h 160 v 140 20 H 240 V 340 m 200,30 v -20 h 40 v 40 20 h -40 v -40 m -280,0 v -20 h 40 v 40 20 h -40 v -40 m 280,70 v -20 h 40 v 40 20 h -40 v -40 m -280,0 v -20 h 40 v 40 20 h -40 v -40" /><path
         id="path42"
         style="fill:#404a5f;fill-opacity:1;fill-rule:nonzero;stroke:none"
         d="m 160,300 v 0 40 h 40 v -20 h -40 v -20" /><path
         id="path44"
         style="fill:#404a5f;fill-opacity:1;fill-rule:nonzero;stroke:none"
         d="m 160,230 v 0 40 h 40 v -20 h -40 v -20" /><path
         id="path46"
         style="fill:#404a5f;fill-opacity:1;fill-rule:nonzero;stroke:none"
         d="m 160,160 v 0 40 h 40 v -20 h -40 v -20" /><path
         id="path48"
         style="fill:#404a5f;fill-opacity:1;fill-rule:nonzero;stroke:none"
         d="m 160,370 v 0 40 h 40 v -20 h -40 v -20" /><path
         id="path50"
         style="fill:#404a5f;fill-opacity:1;fill-rule:nonzero;stroke:none"
         d="m 160,440 v 0 40 h 40 v -20 h -40 v -20" /><path
         id="path52"
         style="fill:#404a5f;fill-opacity:1;fill-rule:nonzero;stroke:none"
         d="m 440,300 v 0 40 h 40 v -20 h -40 v -20" /><path
         id="path54"
         style="fill:#404a5f;fill-opacity:1;fill-rule:nonzero;stroke:none"
         d="m 440,230 v 0 40 h 40 v -20 h -40 v -20" /><path
         id="path56"
         style="fill:#404a5f;fill-opacity:1;fill-rule:nonzero;stroke:none"
         d="m 440,160 v 0 40 h 40 v -20 h -40 v -20" /><path
         id="path58"
         style="fill:#404a5f;fill-opacity:1;fill-rule:nonzero;stroke:none"
         d="m 440,370 v 0 40 h 40 v -20 h -40 v -20" /><path
         id="path60"
         style="fill:#404a5f;fill-opacity:1;fill-rule:nonzero;stroke:none"
         d="m 440,440 v 0 40 h 40 v -20 h -40 v -20" /><path
         id="path62"
         style="fill:#404a5f;fill-opacity:1;fill-rule:nonzero;stroke:none"
         d="m 240,340 v 0 140 H 400 V 460 H 240 V 340" /><path
         id="path64"
         style="fill:#404a5f;fill-opacity:1;fill-rule:nonzero;stroke:none"
         d="m 240,160 v 0 140 H 400 V 280 H 240 V 160" /><path
         id="path66"
         style="fill:#e1e3cc;fill-opacity:1;fill-rule:nonzero;stroke:none"
         d="m 480,440 h -40 v 40 h 40 z m 0,-70 h -40 v 40 h 40 z m 0,-70 h -40 v 40 h 40 z m 0,-70 h -40 v 40 h 40 z m 0,-70 h -40 v 40 h 40 z M 400,340 H 240 v 140 h 160 z m 0,-180 H 240 V 300 H 400 Z M 200,440 h -40 v 40 h 40 z m 0,-70 h -40 v 40 h 40 z m 0,-70 h -40 v 40 h 40 z m 0,-70 h -40 v 40 h 40 z m 0,-70 h -40 v 40 h 40 z M 480,520 H 160 c -22.094,0 -40,-17.906 -40,-40 V 160 c 0,-22.09 17.906,-40 40,-40 h 320 c 22.094,0 40,17.91 40,40 v 320 c 0,22.094 -17.906,40 -40,40" /></g></g></svg>