<?xml version="1.0" encoding="UTF-8" standalone="no"?>
<svg
   xmlns:dc="http://purl.org/dc/elements/1.1/"
   xmlns:cc="http://creativecommons.org/ns#"
   xmlns:rdf="http://www.w3.org/1999/02/22-rdf-syntax-ns#"
   xmlns:svg="http://www.w3.org/2000/svg"
   xmlns="http://www.w3.org/2000/svg"
   viewBox="0 0 85.333336 85.333336"
   height="85.333336"
   width="85.333336"
   xml:space="preserve"
   id="svg2"
   version="1.1"><metadata
     id="metadata8"><rdf:RDF><cc:Work
         rdf:about=""><dc:format>image/svg+xml</dc:format><dc:type
           rdf:resource="http://purl.org/dc/dcmitype/StillImage" /></cc:Work></rdf:RDF></metadata><defs
     id="defs6" /><g
     transform="matrix(1.3333333,0,0,-1.3333333,0,85.333333)"
     id="g10"><g
       transform="scale(0.1)"
       id="g12"><path
         id="path14"
         style="fill:#77caa9;fill-opacity:1;fill-rule:nonzero;stroke:none"
         d="M 640,320 C 640,143.27 496.73,0 320,0 143.27,0 0,143.27 0,320 0,496.73 143.27,640 320,640 496.73,640 640,496.73 640,320" /><path
         id="path16"
         style="fill:#62a48d;fill-opacity:1;fill-rule:nonzero;stroke:none"
         d="M 450,120 H 150 c -11.047,0 -20,8.953 -20,20 v 60 h -20 c -11.0469,0 -20,8.953 -20,20 v 60 c 0,11.047 8.9531,20 20,20 h 20 v 20 c 0,11.043 8.949,19.992 19.992,20 v 0 C 138.949,339.992 130,331.043 130,320 V 160 c 0,-11.047 8.953,-20 20,-20 h 300 c 11.047,0 20,8.953 20,20 v -20 c 0,-11.047 -8.953,-20 -20,-20 m 100,40 c -11.047,0 -40,20 -40,20 h -40 v 100 h 40 c 0,0 28.953,20 40,20 11.047,0 20,-8.953 20,-20 V 180 c 0,-11.047 -8.953,-20 -20,-20" /><path
         id="path18"
         style="fill:#e1e3cc;fill-opacity:1;fill-rule:nonzero;stroke:none"
         d="m 470,160 c 0,-11.047 -8.953,-20 -20,-20 H 150 c -11.047,0 -20,8.953 -20,20 v 160 c 0,11.047 8.953,20 20,20 h 300 c 11.047,0 20,-8.953 20,-20 V 160" /><path
         id="path20"
         style="fill:#e1e3cc;fill-opacity:1;fill-rule:nonzero;stroke:none"
         d="m 530,220 c 0,-11.047 -8.953,-20 -20,-20 H 240 c -11.047,0 -20,8.953 -20,20 v 60 c 0,11.047 8.953,20 20,20 h 270 c 11.047,0 20,-8.953 20,-20 v -60" /><path
         id="path22"
         style="fill:#e1e3cc;fill-opacity:1;fill-rule:nonzero;stroke:none"
         d="m 400,240 c 0,-11.047 -8.953,-20 -20,-20 H 110 c -11.0469,0 -20,8.953 -20,20 v 60 c 0,11.047 8.9531,20 20,20 h 270 c 11.047,0 20,-8.953 20,-20 v -60" /><path
         id="path24"
         style="fill:#e1e3cc;fill-opacity:1;fill-rule:nonzero;stroke:none"
         d="m 570,200 c 0,-11.047 -8.953,-20 -20,-20 -11.047,0 -40,20 -40,20 v 100 c 0,0 28.953,20 40,20 11.047,0 20,-8.953 20,-20 V 200" /><path
         id="path26"
         style="fill:#62a48d;fill-opacity:1;fill-rule:nonzero;stroke:none"
         d="M 149.992,340 C 125.711,358.246 110,387.289 110,420 c 0,55.227 44.773,100 100,100 55.227,0 100,-44.773 100,-100 0,-32.711 -15.707,-61.754 -39.992,-80 H 150 c -0.004,0 -0.008,0 -0.008,0" /><path
         id="path28"
         style="fill:#b7b7a7;fill-opacity:1;fill-rule:nonzero;stroke:none"
         d="m 210,320 c -22.516,0 -43.293,7.441 -60.008,20 0,0 0.004,0 0.008,0 H 270.008 C 253.293,327.441 232.516,320 210,320" /><path
         id="path30"
         style="fill:#62a48d;fill-opacity:1;fill-rule:nonzero;stroke:none"
         d="M 442.918,340 H 337.082 C 320.477,354.66 310,376.105 310,400 c 0,44.184 35.816,80 80,80 44.184,0 80,-35.816 80,-80 0,-23.895 -10.477,-45.34 -27.082,-60" /><path
         id="path32"
         style="fill:#b7b7a7;fill-opacity:1;fill-rule:nonzero;stroke:none"
         d="m 390,320 c -20.289,0 -38.812,7.551 -52.918,20 H 442.918 C 428.813,327.551 410.289,320 390,320" /><path
         id="path34"
         style="fill:#ffffff;fill-opacity:1;fill-rule:nonzero;stroke:none"
         d="m 310,440 c 0,-55.227 -44.773,-100 -100,-100 -55.227,0 -100,44.773 -100,100 0,55.227 44.773,100 100,100 55.227,0 100,-44.773 100,-100" /><path
         id="path36"
         style="fill:#ffffff;fill-opacity:1;fill-rule:nonzero;stroke:none"
         d="m 470,420 c 0,-44.184 -35.816,-80 -80,-80 -44.184,0 -80,35.816 -80,80 0,44.184 35.816,80 80,80 44.184,0 80,-35.816 80,-80" /></g></g></svg>