<?xml version="1.0" encoding="UTF-8" standalone="no"?>
<svg
   xmlns:dc="http://purl.org/dc/elements/1.1/"
   xmlns:cc="http://creativecommons.org/ns#"
   xmlns:rdf="http://www.w3.org/1999/02/22-rdf-syntax-ns#"
   xmlns:svg="http://www.w3.org/2000/svg"
   xmlns="http://www.w3.org/2000/svg"
   viewBox="0 0 85.333336 85.333336"
   height="85.333336"
   width="85.333336"
   xml:space="preserve"
   id="svg2"
   version="1.1"><metadata
     id="metadata8"><rdf:RDF><cc:Work
         rdf:about=""><dc:format>image/svg+xml</dc:format><dc:type
           rdf:resource="http://purl.org/dc/dcmitype/StillImage" /></cc:Work></rdf:RDF></metadata><defs
     id="defs6" /><g
     transform="matrix(1.3333333,0,0,-1.3333333,0,85.333333)"
     id="g10"><g
       transform="scale(0.1)"
       id="g12"><path
         id="path14"
         style="fill:#495672;fill-opacity:1;fill-rule:nonzero;stroke:none"
         d="M 640,320 C 640,143.27 496.73,0 320,0 143.27,0 0,143.27 0,320 0,496.73 143.27,640 320,640 496.73,640 640,496.73 640,320" /><path
         id="path16"
         style="fill:#404a5f;fill-opacity:1;fill-rule:nonzero;stroke:none"
         d="M 178.508,308.988 C 143.988,324.75 120,359.574 120,400 c 0,3.375 0.168,6.711 0.492,10 4.363,-43.934 37.16,-79.504 79.727,-88.043 -0.871,-2.652 -1.664,-5.34 -2.375,-8.059 -6.711,-0.968 -13.184,-2.632 -19.336,-4.91" /><path
         id="path18"
         style="fill:#e08e4c;fill-opacity:1;fill-rule:nonzero;stroke:none"
         d="m 320,420 c 0,-55.227 -44.77,-100 -100,-100 -55.23,0 -100,44.773 -100,100 0,55.227 44.77,100 100,100 55.23,0 100,-44.773 100,-100" /><path
         id="path20"
         style="fill:#404a5f;fill-opacity:1;fill-rule:nonzero;stroke:none"
         d="m 486.668,140 h -275 C 161.039,140 120,179.176 120,227.5 c 0,37.152 24.281,68.816 58.508,81.488 C 191.148,303.219 205.199,300 220,300 c 55.23,0 100,44.773 100,100 0,3.375 -0.168,6.711 -0.492,10 0.258,2.605 0.418,5.242 0.469,7.902 0.007,0.27 0.011,0.536 0.015,0.805 6.539,0.852 13.219,1.293 20.008,1.293 81.004,0 146.668,-62.68 146.668,-140 40.5,0 73.332,-31.34 73.332,-70 0,-38.66 -32.832,-70 -73.332,-70" /><path
         id="path22"
         style="fill:#394051;fill-opacity:1;fill-rule:nonzero;stroke:none"
         d="m 220,300 c -14.801,0 -28.852,3.219 -41.492,8.988 6.152,2.278 12.625,3.942 19.336,4.91 0.711,2.719 1.504,5.407 2.375,8.059 5.972,-1.199 12.136,-1.867 18.441,-1.949 0.004,0 0.004,0 0.004,0 0.078,0 0.156,0 0.234,0 0.004,0 0.012,0 0.016,0 0.074,-0.004 0.152,-0.004 0.227,-0.004 0.007,0 0.011,0 0.019,0 0.074,0 0.149,0 0.223,0 0.008,0 0.012,0 0.019,0 0.075,-0.004 0.145,-0.004 0.219,-0.004 0.008,0 0.02,0 0.027,0 0.036,0 0.071,0 0.106,0 h 0.004 c 0.035,0 0.07,0 0.105,0 0.012,0 0.02,0 0.028,0 0.039,0 0.074,0 0.109,0 v 0 c 0.055,0 0.109,0 0.16,0 51.781,0.082 94.336,39.52 99.348,90 0.324,-3.289 0.492,-6.625 0.492,-10 0,-55.227 -44.77,-100 -100,-100" /><path
         id="path24"
         style="fill:#b77744;fill-opacity:1;fill-rule:nonzero;stroke:none"
         d="m 220,320 c -0.035,0 -0.07,0 -0.109,0 0.039,0 0.074,0 0.109,0 m -0.137,0 c -0.035,0 -0.07,0 -0.105,0 0.035,0 0.07,0 0.105,0 m 0.297,0 c 54.453,0.086 98.703,43.695 99.817,97.902 -0.051,-2.66 -0.211,-5.297 -0.469,-7.902 -5.012,-50.48 -47.567,-89.918 -99.348,-90 m -0.406,0 c -0.035,0 -0.07,0 -0.106,0 0.036,0 0.071,0 0.106,0 m -0.133,0 c -0.074,0 -0.144,0 -0.219,0.004 C 219.477,320 219.551,320 219.621,320 m -0.238,0.004 c -0.074,0 -0.149,0 -0.223,0 0.074,0 0.149,0 0.223,0 m -0.242,0 c -0.075,0 -0.153,0 -0.227,0.004 0.074,-0.004 0.152,-0.004 0.227,-0.004 m -0.243,0.004 c -0.078,0 -0.156,0 -0.234,0 0.078,0 0.156,0 0.234,0 m -0.238,0 c -6.305,0.082 -12.469,0.75 -18.441,1.949 v 0 c 5.972,-1.199 12.136,-1.867 18.441,-1.949" /><path
         id="path26"
         style="fill:#404a5f;fill-opacity:1;fill-rule:nonzero;stroke:none"
         d="m 320,420.105 c 0,0.008 0,0.02 0,0.028 0,-0.012 0,-0.02 0,-0.028" /><path
         id="path28"
         style="fill:#b77744;fill-opacity:1;fill-rule:nonzero;stroke:none"
         d="m 200.219,321.957 c -13.207,2.652 -25.469,7.906 -36.239,15.203 7.477,3.219 15.481,5.528 23.864,6.738 14.777,56.606 65.519,99.579 127.777,105.379 2.82,-9.222 4.367,-19.004 4.379,-29.144 0,-0.008 0,-0.02 0,-0.028 0,-0.035 0,-0.07 0,-0.105 0,-0.43 -0.004,-0.863 -0.008,-1.293 -56.726,-7.402 -103.023,-45.824 -119.773,-96.75" /><path
         id="path30"
         style="fill:#343945;fill-opacity:1;fill-rule:nonzero;stroke:none"
         d="m 219.891,320 c -0.008,0 -0.016,0 -0.028,0 0.008,0 0.024,0 0.028,0 m -0.133,0 h -0.004 0.004 m -0.11,0 c -0.007,0 -0.019,0 -0.027,0 0.008,0 0.02,0 0.027,0 m -0.246,0.004 c -0.007,0 -0.011,0 -0.019,0 0.008,0 0.015,0 0.019,0 m -0.242,0 c -0.008,0 -0.012,0 -0.019,0 0.004,0 0.011,0 0.019,0 m -0.246,0.004 c -0.004,0 -0.012,0 -0.016,0 0.008,0 0.012,0 0.016,0 m -0.25,0 c 0,0 0,0 -0.004,0 h 0.004" /><path
         id="path32"
         style="fill:#97633d;fill-opacity:1;fill-rule:nonzero;stroke:none"
         d="m 220,320 v 0 c -0.035,0 -0.07,0 -0.109,0 -0.004,0 -0.02,0 -0.028,0 -0.035,0 -0.07,0 -0.105,0 h -0.004 c -0.035,0 -0.07,0 -0.106,0 -0.007,0 -0.019,0 -0.027,0 -0.07,0 -0.144,0 -0.219,0.004 -0.004,0 -0.011,0 -0.019,0 -0.074,0 -0.149,0 -0.223,0 -0.008,0 -0.015,0 -0.019,0 -0.075,0 -0.153,0 -0.227,0.004 -0.004,0 -0.008,0 -0.016,0 -0.078,0 -0.156,0 -0.234,0 h -0.004 c -6.305,0.082 -12.469,0.75 -18.441,1.949 16.75,50.926 63.047,89.348 119.773,96.75 -0.004,-0.269 -0.008,-0.535 -0.015,-0.805 -1.114,-54.207 -45.364,-97.816 -99.817,-97.902 -0.051,0 -0.105,0 -0.16,0" /><path
         id="path34"
         style="fill:#ffffff;fill-opacity:1;fill-rule:nonzero;stroke:none"
         d="M 486.668,300 C 486.668,377.32 421.004,440 340,440 271.27,440 213.746,394.809 197.844,333.898 153.793,327.523 120,291.328 120,247.5 120,199.176 161.039,160 211.668,160 h 275 c 40.5,0 73.332,31.34 73.332,70 0,38.66 -32.832,70 -73.332,70" /></g></g></svg>