<?xml version="1.0" encoding="UTF-8" standalone="no"?>
<svg
   xmlns:dc="http://purl.org/dc/elements/1.1/"
   xmlns:cc="http://creativecommons.org/ns#"
   xmlns:rdf="http://www.w3.org/1999/02/22-rdf-syntax-ns#"
   xmlns:svg="http://www.w3.org/2000/svg"
   xmlns="http://www.w3.org/2000/svg"
   viewBox="0 0 85.333336 85.333336"
   height="85.333336"
   width="85.333336"
   xml:space="preserve"
   id="svg2"
   version="1.1"><metadata
     id="metadata8"><rdf:RDF><cc:Work
         rdf:about=""><dc:format>image/svg+xml</dc:format><dc:type
           rdf:resource="http://purl.org/dc/dcmitype/StillImage" /></cc:Work></rdf:RDF></metadata><defs
     id="defs6" /><g
     transform="matrix(1.3333333,0,0,-1.3333333,0,85.333333)"
     id="g10"><g
       transform="scale(0.1)"
       id="g12"><path
         id="path14"
         style="fill:#495672;fill-opacity:1;fill-rule:nonzero;stroke:none"
         d="M 640,320 C 640,143.27 496.73,0 320,0 143.27,0 0,143.27 0,320 0,496.73 143.27,640 320,640 496.73,640 640,496.73 640,320" /><path
         id="path16"
         style="fill:#404a5f;fill-opacity:1;fill-rule:nonzero;stroke:none"
         d="m 215,65 c -8.285,0 -15,6.7148 -15,15 v 400 c 0,8.285 6.715,15 15,15 8.285,0 15,-6.715 15,-15 V 80 c 0,-8.2852 -6.715,-15 -15,-15" /><path
         id="path18"
         style="fill:#404a5f;fill-opacity:1;fill-rule:nonzero;stroke:none"
         d="m 260,183.406 v 273.188 l 35.883,-7.176 60,-12 21.867,-4.375 38.133,-7.625 24.117,-4.82 v -0.004 l 55.883,-11.176 C 509.906,406.613 520,394.301 520,380 V 260 c 0,-14.301 -10.094,-26.613 -24.117,-29.414 L 440,219.406 v -0.004 L 415.883,214.582 380,207.406 v 0 l -24.117,-4.824 -60,-11.996 -35.883,-7.18" /><path
         id="path20"
         style="fill:#e1e3cc;fill-opacity:1;fill-rule:nonzero;stroke:none"
         d="m 230,100 v 400 c 0,8.285 -6.715,15 -15,15 -8.285,0 -15,-6.715 -15,-15 V 100 c 0,-8.2852 6.715,-15 15,-15 8.285,0 15,6.7148 15,15" /><path
         id="path22"
         style="fill:#e08e4c;fill-opacity:1;fill-rule:nonzero;stroke:none"
         d="m 275,458.297 90,-18.004 V 239.707 l -90,-18.004 v 236.594" /><path
         id="path24"
         style="fill:#e08e4c;fill-opacity:1;fill-rule:nonzero;stroke:none"
         d="M 260,476.594 V 203.406 l 35.883,7.176 60,12 24.117,4.824 V 252 428 452.594 l -24.117,4.824 -60,12 z M 290,440 350,428 V 252 l -60,-12 v 200" /><path
         id="path26"
         style="fill:#e08e4c;fill-opacity:1;fill-rule:nonzero;stroke:none"
         d="m 430,252.996 c -3.437,0 -6.809,1.184 -9.512,3.399 -3.476,2.851 -5.488,7.113 -5.488,11.601 v 144.008 c 0,4.488 2.012,8.75 5.488,11.601 2.703,2.215 6.075,3.399 9.512,3.399 0.977,0 1.965,-0.102 2.938,-0.293 l 60,-12.004 C 499.949,413.305 505,407.148 505,400 V 280 c 0,-7.148 -5.051,-13.305 -12.062,-14.707 l -60,-12 c -0.973,-0.195 -1.961,-0.297 -2.938,-0.297" /><path
         id="path28"
         style="fill:#e08e4c;fill-opacity:1;fill-rule:nonzero;stroke:none"
         d="m 430,442 c -6.875,0 -13.609,-2.363 -19.02,-6.801 C 404.031,429.504 400,420.988 400,412 V 268 c 0,-8.988 4.031,-17.504 10.98,-23.199 5.411,-4.438 12.145,-6.801 19.02,-6.801 1.961,0 3.93,0.191 5.883,0.582 l 60,12 C 509.906,253.387 520,265.699 520,280 v 120 c 0,14.301 -10.094,26.613 -24.117,29.418 l -60,12 C 433.93,441.809 431.961,442 430,442 Z m 0,-30 60,-12 V 280 l -60,-12 v 144" /><path
         id="path30"
         style="fill:#ffffff;fill-opacity:1;fill-rule:nonzero;stroke:none"
         d="m 355,442.297 70,-13.996 V 251.699 l -70,-13.996 v 204.594" /><path
         id="path32"
         style="fill:#ffffff;fill-opacity:1;fill-rule:nonzero;stroke:none"
         d="M 340,460.594 V 219.406 l 35.883,7.176 40,8 24.117,4.82 V 264 416 440.598 l -24.117,4.82 -40,8 z M 370,424 410,416 V 264 l -40,-8 v 168" /></g></g></svg>