<?xml version="1.0" encoding="UTF-8" standalone="no"?>
<svg
   xmlns:dc="http://purl.org/dc/elements/1.1/"
   xmlns:cc="http://creativecommons.org/ns#"
   xmlns:rdf="http://www.w3.org/1999/02/22-rdf-syntax-ns#"
   xmlns:svg="http://www.w3.org/2000/svg"
   xmlns="http://www.w3.org/2000/svg"
   viewBox="0 0 85.333336 85.333336"
   height="85.333336"
   width="85.333336"
   xml:space="preserve"
   id="svg2"
   version="1.1"><metadata
     id="metadata8"><rdf:RDF><cc:Work
         rdf:about=""><dc:format>image/svg+xml</dc:format><dc:type
           rdf:resource="http://purl.org/dc/dcmitype/StillImage" /></cc:Work></rdf:RDF></metadata><defs
     id="defs6" /><g
     transform="matrix(1.3333333,0,0,-1.3333333,0,85.333333)"
     id="g10"><g
       transform="scale(0.1)"
       id="g12"><path
         id="path14"
         style="fill:#f3cc70;fill-opacity:1;fill-rule:nonzero;stroke:none"
         d="M 640,320 C 640,143.27 496.73,0 320,0 143.27,0 0,143.27 0,320 0,496.73 143.27,640 320,640 496.73,640 640,496.73 640,320" /><path
         id="path16"
         style="fill:#c7a85f;fill-opacity:1;fill-rule:nonzero;stroke:none"
         d="m 320,60 c -16.566,0 -30,13.4336 -30,30 v 10 c 0,2.156 0.078,4.258 0.227,6.301 C 292.047,91.4766 304.684,80 320,80 c 16.566,0 30,13.4336 30,30 v 10 c 0.016,3 0.414,4.777 0.922,6.281 0.894,2.52 2.437,5 6.422,8.93 2.937,2.883 7.101,6.254 12.109,10.242 7.434,6.043 17.012,13.399 25.625,25.012 4.262,5.793 8.145,12.719 10.817,20.586 1.605,4.691 2.761,9.679 3.429,14.855 0.446,-2.961 0.676,-6.051 0.676,-9.285 0,-38.715 -24.828,-58.586 -41.254,-71.734 C 353.793,112.926 350,108.918 350,100 V 90 C 350,73.4336 336.566,60 320,60 m 23.031,141.785 c -9.855,5.297 -27.304,11.426 -37.968,15.168 C 269.164,229.555 220,246.82 220,293.895 c 0,3.757 0.254,7.332 0.727,10.742 0.511,-3.227 1.293,-6.387 2.324,-9.418 3.781,-11.16 10.672,-19.981 17.914,-26.496 6.394,-5.758 13.191,-10.09 20.058,-13.793 12.028,-6.422 24.481,-11.016 36.461,-15.301 8.969,-3.191 17.653,-6.145 25.356,-9.09 11.551,-4.316 20.855,-9.019 24.82,-12.293 1,-0.793 1.684,-1.449 2.082,-1.891 l 0.25,-0.312 c -0.058,-2.652 -0.441,-4.297 -0.914,-5.703 -0.867,-2.438 -2.34,-4.84 -6.047,-8.555 m -53.945,106.192 c -2.918,1.574 -5.223,3.039 -6.746,4.296 -1,0.79 -1.684,1.45 -2.082,1.891 l -0.246,0.305 c 0.066,2.105 0.386,3.187 0.797,4.25 0.406,0.992 0.996,2.039 2.16,3.476 1.984,2.489 5.965,5.965 11.652,9.961 4.242,3.016 9.348,6.336 14.902,10.246 8.278,5.899 17.86,13.09 26.211,24.207 4.129,5.547 7.832,12.118 10.371,19.524 1.524,4.398 2.618,9.058 3.25,13.867 H 350 v -10 c 0,-40.227 -28.984,-59.879 -48.164,-72.883 -5.461,-3.703 -9.613,-6.644 -12.75,-9.14" /><path
         id="path18"
         style="fill:#495672;fill-opacity:1;fill-rule:nonzero;stroke:none"
         d="m 350,110 v 10 c 0.016,3 0.414,4.777 0.922,6.281 0.894,2.52 2.437,5 6.422,8.93 2.937,2.883 7.101,6.254 12.109,10.242 7.434,6.043 17.012,13.399 25.625,25.012 4.262,5.793 8.145,12.719 10.817,20.586 2.691,7.859 4.117,16.562 4.105,25.57 0.012,6.371 -1.039,12.777 -3.051,18.68 -3.781,11.16 -10.672,19.976 -17.914,26.496 -6.394,5.758 -13.191,10.09 -20.058,13.793 -12.028,6.422 -24.481,11.015 -36.461,15.301 -8.969,3.191 -17.653,6.144 -25.356,9.089 -11.555,4.317 -20.855,9.016 -24.82,12.293 -1,0.79 -1.684,1.45 -2.082,1.891 l -0.5,0.621 -0.024,0.035 -1.843,-1.039 2.035,0.539 -0.192,0.5 -1.843,-1.039 2.035,0.539 -2.461,-0.652 2.523,0.324 -0.062,0.328 -2.461,-0.652 2.523,0.324 -0.742,-0.094 H 280 l -0.012,0.094 -0.742,-0.094 H 280 c 0.023,2.489 0.363,3.668 0.809,4.821 0.406,0.992 0.996,2.039 2.16,3.476 1.984,2.489 5.965,5.965 11.652,9.961 4.242,3.016 9.348,6.336 14.902,10.246 8.278,5.899 17.86,13.09 26.211,24.207 4.129,5.547 7.832,12.118 10.371,19.524 2.559,7.394 3.907,15.539 3.895,23.867 v 50 c 0,16.57 -13.434,30 -30,30 -16.57,0 -30,-13.43 -30,-30 v -50 c -0.023,-2.488 -0.363,-3.668 -0.809,-4.82 -0.406,-0.992 -0.996,-2.039 -2.16,-3.477 -1.984,-2.488 -5.965,-5.965 -11.652,-9.961 -4.242,-3.015 -9.348,-6.34 -14.902,-10.25 -8.278,-5.894 -17.86,-13.086 -26.211,-24.207 -4.129,-5.543 -7.832,-12.113 -10.371,-19.519 -2.559,-7.395 -3.907,-15.539 -3.895,-23.868 -0.012,-6.375 1.039,-12.781 3.051,-18.679 3.781,-11.16 10.672,-19.981 17.914,-26.496 6.394,-5.758 13.191,-10.09 20.058,-13.793 12.028,-6.422 24.481,-11.016 36.461,-15.301 8.969,-3.191 17.653,-6.145 25.356,-9.09 11.551,-4.316 20.855,-9.019 24.82,-12.293 1,-0.793 1.684,-1.449 2.082,-1.891 l 0.5,-0.621 0.024,-0.035 1.843,1.039 -2.035,-0.539 0.192,-0.5 1.843,1.039 -2.035,-0.539 2.461,0.653 -2.523,-0.325 0.062,-0.328 2.461,0.653 -2.523,-0.325 0.73,0.094 H 350 l 0.012,-0.094 0.73,0.094 H 350 c -0.016,-3 -0.414,-4.777 -0.922,-6.281 -0.894,-2.516 -2.437,-5 -6.422,-8.926 -2.937,-2.883 -7.101,-6.254 -12.109,-10.246 -7.434,-6.039 -17.012,-13.395 -25.625,-25.012 -4.262,-5.793 -8.145,-12.718 -10.817,-20.586 C 291.414,137.711 289.988,129.012 290,120 v -10 c 0,-16.5664 13.43,-30 30,-30 16.566,0 30,13.4336 30,30" /><path
         id="path20"
         style="fill:#c7a85f;fill-opacity:1;fill-rule:nonzero;stroke:none"
         d="M 405.613,400 H 350 v 40 c 0,0.031 0,0.066 0,0.098 V 460 c 0,16.57 -13.434,30 -30,30 -16.57,0 -30,-13.43 -30,-30 v -19.926 c 0,-0.023 0,-0.051 0,-0.074 v -30 c -0.023,-2.488 -0.363,-3.668 -0.809,-4.82 -0.406,-0.992 -0.996,-2.039 -2.16,-3.477 -0.418,-0.523 -0.926,-1.094 -1.519,-1.703 h -51.125 c -14.715,0 -18.828,10.879 -9.137,24.176 l 77.133,105.851 c 4.844,6.649 11.23,9.973 17.617,9.973 6.387,0 12.773,-3.324 17.617,-9.973 L 414.75,424.176 C 424.441,410.879 420.328,400 405.613,400" /><path
         id="path22"
         style="fill:#a48c53;fill-opacity:1;fill-rule:nonzero;stroke:none"
         d="m 350,400 h -0.645 c 0.43,3.277 0.649,6.625 0.645,10 v 30.098 c 0,-0.032 0,-0.067 0,-0.098 v -40 m -60,10 v 30 c 0,0.023 0,0.051 0,0.074 V 410 v 0" /><path
         id="path24"
         style="fill:#404a5f;fill-opacity:1;fill-rule:nonzero;stroke:none"
         d="m 349.355,400 h -63.843 c 0.593,0.609 1.101,1.18 1.519,1.703 1.164,1.438 1.754,2.485 2.16,3.477 0.446,1.152 0.786,2.332 0.809,4.82 v 0 30.074 V 460 c 0,16.57 13.43,30 30,30 16.566,0 30,-13.43 30,-30 V 440.098 410 c 0.004,-3.375 -0.215,-6.723 -0.645,-10" /><path
         id="path26"
         style="fill:#495672;fill-opacity:1;fill-rule:nonzero;stroke:none"
         d="m 234.387,420 c -14.715,0 -18.828,10.879 -9.137,24.176 l 77.133,105.851 c 9.687,13.297 25.547,13.297 35.234,0 L 414.75,444.176 C 424.441,430.879 420.328,420 405.613,420 H 234.387" /></g></g></svg>