<?xml version="1.0" encoding="UTF-8" standalone="no"?>
<svg
   xmlns:dc="http://purl.org/dc/elements/1.1/"
   xmlns:cc="http://creativecommons.org/ns#"
   xmlns:rdf="http://www.w3.org/1999/02/22-rdf-syntax-ns#"
   xmlns:svg="http://www.w3.org/2000/svg"
   xmlns="http://www.w3.org/2000/svg"
   viewBox="0 0 85.333336 85.333336"
   height="85.333336"
   width="85.333336"
   xml:space="preserve"
   id="svg2"
   version="1.1"><metadata
     id="metadata8"><rdf:RDF><cc:Work
         rdf:about=""><dc:format>image/svg+xml</dc:format><dc:type
           rdf:resource="http://purl.org/dc/dcmitype/StillImage" /></cc:Work></rdf:RDF></metadata><defs
     id="defs6" /><g
     transform="matrix(1.3333333,0,0,-1.3333333,0,85.333333)"
     id="g10"><g
       transform="scale(0.1)"
       id="g12"><path
         id="path14"
         style="fill:#e1e3cc;fill-opacity:1;fill-rule:nonzero;stroke:none"
         d="M 640,320 C 640,143.27 496.73,0 320,0 143.27,0 0,143.27 0,320 0,496.73 143.27,640 320,640 496.73,640 640,496.73 640,320" /><path
         id="path16"
         style="fill:#b7b7a7;fill-opacity:1;fill-rule:nonzero;stroke:none"
         d="M 420,150 H 220 c -2.652,0 -5.242,0.258 -7.75,0.75 4.848,5.602 10.441,12.055 16.699,19.25 H 420 c 3.023,0 5.969,0.336 8.801,0.973 3.762,-5.149 7.465,-10.36 11.121,-15.668 C 434.055,151.93 427.254,150 420,150 M 182.133,177.078 C 180.75,181.133 180,185.477 180,190 v 200 0 -180 c 0,-9.52 3.328,-18.266 8.883,-25.133 -2.387,-2.754 -4.637,-5.347 -6.75,-7.789" /><path
         id="path18"
         style="fill:#ffffff;fill-opacity:1;fill-rule:nonzero;stroke:none"
         d="m 220,190 c -11.031,0 -20,8.977 -20,20 v 200 c 0,11.023 8.969,20 20,20 h 200 c 11.031,0 20,-8.977 20,-20 V 210 c 0,-11.023 -8.969,-20 -20,-20 H 220" /><path
         id="path20"
         style="fill:#495672;fill-opacity:1;fill-rule:nonzero;stroke:none"
         d="M 420,450 H 220 c -22.09,0 -40,-17.906 -40,-40 V 210 c 0,-22.094 17.91,-40 40,-40 h 200 c 22.09,0 40,17.906 40,40 v 200 c 0,22.094 -17.91,40 -40,40 m 0,-40 V 210 H 220 v 200 h 200" /><path
         id="path22"
         style="fill:#b7b7a7;fill-opacity:1;fill-rule:nonzero;stroke:none"
         d="m 469.98,126.184 c -6.613,0 -13.078,3.269 -16.882,9.246 -4.297,6.742 -8.7,13.375 -13.176,19.875 3.254,1.875 6.219,4.191 8.816,6.871 1.465,-2.238 2.914,-4.481 4.36,-6.746 3.812,-5.977 10.277,-9.246 16.882,-9.246 3.676,0 7.399,1.011 10.727,3.132 2.809,1.789 5.02,4.164 6.578,6.864 5.328,-9.219 2.496,-21.086 -6.57,-26.864 -3.332,-2.121 -7.063,-3.132 -10.735,-3.132" /><path
         id="path24"
         style="fill:#97978c;fill-opacity:1;fill-rule:nonzero;stroke:none"
         d="m 439.922,155.305 c -3.656,5.308 -7.359,10.519 -11.121,15.668 3.961,0.886 7.699,2.367 11.121,4.332 2.973,-4.317 5.922,-8.707 8.816,-13.129 -2.597,-2.68 -5.562,-4.996 -8.816,-6.871" /><path
         id="path26"
         style="fill:#d4d3d1;fill-opacity:1;fill-rule:nonzero;stroke:none"
         d="m 414.398,210 h -16.246 c -22.652,26.918 -46.316,51.207 -69.714,72.855 3.214,3.594 6.46,7.219 9.73,10.864 25.871,-24.696 51.855,-52.61 76.23,-83.719" /><path
         id="path28"
         style="fill:#404a5f;fill-opacity:1;fill-rule:nonzero;stroke:none"
         d="m 428.801,170.973 c -9.914,13.566 -20.18,26.586 -30.649,39.027 h 16.246 c 8.747,-11.16 17.27,-22.711 25.524,-34.695 -3.422,-1.965 -7.16,-3.446 -11.121,-4.332" /><path
         id="path30"
         style="fill:#b7b7a7;fill-opacity:1;fill-rule:nonzero;stroke:none"
         d="m 180,394.34 c -23.379,14.047 -38,21.207 -38.523,21.461 -9.946,4.797 -14.122,16.75 -9.336,26.687 0.218,0.457 0.453,0.903 0.699,1.332 1.937,-3.367 4.875,-6.207 8.64,-8.019 0.524,-0.254 15.231,-7.457 38.739,-21.59 C 180.074,412.828 180,411.422 180,410 v -15.66" /><path
         id="path32"
         style="fill:#d4d3d1;fill-opacity:1;fill-rule:nonzero;stroke:none"
         d="M 298.473,309.344 C 270.305,333.141 243.371,352.949 220,368.777 v 20 c 26.16,-17.714 56.789,-40.422 88.602,-68.121 -3.407,-3.797 -6.782,-7.566 -10.129,-11.312" /><path
         id="path34"
         style="fill:#404a5f;fill-opacity:1;fill-rule:nonzero;stroke:none"
         d="m 220,368.777 c -15.02,10.172 -28.555,18.692 -40,25.563 V 410 c 0,1.422 0.074,2.828 0.219,4.211 11.398,-6.852 24.859,-15.328 39.781,-25.434 v -20" /><path
         id="path36"
         style="fill:#c84755;fill-opacity:1;fill-rule:nonzero;stroke:none"
         d="m 469.98,146.184 c -6.605,0 -13.07,3.269 -16.882,9.246 -118.317,185.664 -309.7,279.441 -311.618,280.371 -9.949,4.797 -14.125,16.75 -9.335,26.687 4.789,9.946 16.707,14.133 26.679,9.36 8.242,-3.965 203.367,-99.336 328,-294.914 5.942,-9.317 3.199,-21.68 -6.117,-27.618 -3.328,-2.121 -7.051,-3.132 -10.727,-3.132" /><path
         id="path38"
         style="fill:#b7b7a7;fill-opacity:1;fill-rule:nonzero;stroke:none"
         d="m 176.172,119.531 c -4.602,0 -9.219,1.574 -12.988,4.793 -8.399,7.192 -9.383,19.809 -2.207,28.203 0.343,0.403 8.023,9.375 21.156,24.551 4.562,-13.375 16.012,-23.558 30.117,-26.328 -12.953,-14.973 -20.527,-23.82 -20.863,-24.219 -3.965,-4.629 -9.571,-7 -15.215,-7" /><path
         id="path40"
         style="fill:#97978c;fill-opacity:1;fill-rule:nonzero;stroke:none"
         d="m 212.25,150.75 c -14.105,2.77 -25.555,12.953 -30.117,26.328 2.113,2.442 4.363,5.035 6.75,7.789 C 196.215,175.797 207.43,170 220,170 h 8.949 c -6.258,-7.195 -11.851,-13.648 -16.699,-19.25" /><path
         id="path42"
         style="fill:#d4d3d1;fill-opacity:1;fill-rule:nonzero;stroke:none"
         d="M 263.898,210 H 220 v 10.594 c 22.141,25.308 49.113,55.918 78.473,88.75 9.871,-8.34 19.894,-17.168 29.965,-26.489 -23.454,-26.23 -45.383,-51.039 -64.54,-72.855" /><path
         id="path44"
         style="fill:#404a5f;fill-opacity:1;fill-rule:nonzero;stroke:none"
         d="M 228.949,170 H 220 c -12.57,0 -23.785,5.797 -31.117,14.867 8.719,10.055 19.219,22.125 31.117,35.727 V 210 h 43.898 c -13.082,-14.902 -24.871,-28.41 -34.949,-40" /><path
         id="path46"
         style="fill:#b7b7a7;fill-opacity:1;fill-rule:nonzero;stroke:none"
         d="m 457.57,423.766 c -4.859,13.257 -16.539,23.226 -30.789,25.66 7.61,8.054 15.149,15.98 22.606,23.75 3.926,4.09 9.179,6.152 14.437,6.152 4.985,0 9.969,-1.848 13.844,-5.566 7.969,-7.649 8.23,-20.317 0.586,-28.282 -6.824,-7.109 -13.731,-14.363 -20.684,-21.714" /><path
         id="path48"
         style="fill:#d4d3d1;fill-opacity:1;fill-rule:nonzero;stroke:none"
         d="m 365.156,323.676 c -9.894,9.449 -19.765,18.445 -29.527,26.976 17.801,19.664 36.059,39.645 54.297,59.348 H 420 v -26.395 c -18.41,-19.878 -36.867,-40.074 -54.844,-59.929" /><path
         id="path50"
         style="fill:#404a5f;fill-opacity:1;fill-rule:nonzero;stroke:none"
         d="M 420,383.605 V 410 h -30.074 c 12.34,13.328 24.679,26.535 36.855,39.426 14.25,-2.434 25.93,-12.403 30.789,-25.66 C 445.16,410.645 432.594,397.199 420,383.605" /><path
         id="path52"
         style="fill:#aeabaa;fill-opacity:1;fill-rule:nonzero;stroke:none"
         d="m 328.438,282.855 c -10.071,9.321 -20.094,18.149 -29.965,26.489 3.347,3.746 6.722,7.515 10.129,11.312 9.773,-8.504 19.664,-17.492 29.566,-26.937 -3.27,-3.645 -6.516,-7.27 -9.73,-10.864" /><path
         id="path54"
         style="fill:#a43f4a;fill-opacity:1;fill-rule:nonzero;stroke:none"
         d="m 338.168,293.719 c -9.902,9.445 -19.793,18.433 -29.566,26.937 8.843,9.86 17.878,19.891 27.027,29.996 9.762,-8.531 19.633,-17.527 29.527,-26.976 -9.144,-10.106 -18.148,-20.102 -26.988,-29.957" /><path
         id="path56"
         style="fill:#c84755;fill-opacity:1;fill-rule:nonzero;stroke:none"
         d="m 176.172,139.531 c -4.602,0 -9.219,1.574 -12.988,4.793 -8.395,7.192 -9.379,19.809 -2.204,28.203 1.579,1.848 159.309,186.118 288.411,320.649 7.636,7.969 20.297,8.242 28.277,0.586 7.969,-7.649 8.23,-20.317 0.578,-28.282 C 349.957,331.785 192.953,148.367 191.383,146.531 c -3.957,-4.629 -9.567,-7 -15.211,-7" /></g></g></svg>