<?xml version="1.0" encoding="UTF-8" standalone="no"?>
<svg
   xmlns:dc="http://purl.org/dc/elements/1.1/"
   xmlns:cc="http://creativecommons.org/ns#"
   xmlns:rdf="http://www.w3.org/1999/02/22-rdf-syntax-ns#"
   xmlns:svg="http://www.w3.org/2000/svg"
   xmlns="http://www.w3.org/2000/svg"
   viewBox="0 0 85.333336 85.333336"
   height="85.333336"
   width="85.333336"
   xml:space="preserve"
   id="svg2"
   version="1.1"><metadata
     id="metadata8"><rdf:RDF><cc:Work
         rdf:about=""><dc:format>image/svg+xml</dc:format><dc:type
           rdf:resource="http://purl.org/dc/dcmitype/StillImage" /></cc:Work></rdf:RDF></metadata><defs
     id="defs6" /><g
     transform="matrix(1.3333333,0,0,-1.3333333,0,85.333333)"
     id="g10"><g
       transform="scale(0.1)"
       id="g12"><path
         id="path14"
         style="fill:#e08e4c;fill-opacity:1;fill-rule:nonzero;stroke:none"
         d="M 640,320 C 640,143.27 496.73,0 320,0 143.27,0 0,143.27 0,320 0,496.73 143.27,640 320,640 496.73,640 640,496.73 640,320" /><path
         id="path16"
         style="fill:#b77744;fill-opacity:1;fill-rule:nonzero;stroke:none"
         d="m 480,113.496 c -6.395,0 -12.797,2.442 -17.676,7.324 l -53.129,53.133 -1.668,2.039 C 377.48,153.5 340.332,140.004 300,140.004 c -99.254,0 -180,80.746 -180,180 0,99.25 80.746,180 180,180 99.254,0 180,-80.75 180,-180 0,-41.094 -13.992,-78.895 -37.258,-109.227 l 1.805,-1.472 53.129,-53.129 c 9.765,-9.762 9.765,-25.594 0,-35.356 -4.879,-4.882 -11.281,-7.324 -17.676,-7.324 M 300,460.004 c -77.32,0 -140,-62.684 -140,-140 0,-77.32 62.68,-140 140,-140 77.32,0 140,62.68 140,140 0,77.316 -62.68,140 -140,140" /><path
         id="path18"
         style="fill:#b77744;fill-opacity:1;fill-rule:nonzero;stroke:none"
         d="M 365,300.004 H 235 c -11.047,0 -20,8.953 -20,20 0,11.043 8.953,20 20,20 h 130 c 11.047,0 20,-8.957 20,-20 0,-11.047 -8.953,-20 -20,-20" /><path
         id="path20"
         style="fill:#495672;fill-opacity:1;fill-rule:nonzero;stroke:none"
         d="m 480,133.496 c -6.395,0 -12.797,2.442 -17.676,7.324 l -53.129,53.129 c -9.765,9.762 -9.765,25.594 0,35.352 9.754,9.765 25.594,9.765 35.352,0 l 53.129,-53.129 c 9.765,-9.762 9.765,-25.59 0,-35.352 -4.879,-4.882 -11.281,-7.324 -17.676,-7.324" /><path
         id="path22"
         style="fill:#495672;fill-opacity:1;fill-rule:nonzero;stroke:none"
         d="m 300,520 c -99.254,0 -180,-80.746 -180,-180 0,-99.254 80.746,-180 180,-180 99.254,0 180,80.746 180,180 0,99.254 -80.746,180 -180,180 z m 0,-40 c 77.32,0 140,-62.68 140,-140 0,-77.32 -62.68,-140 -140,-140 -77.32,0 -140,62.68 -140,140 0,77.32 62.68,140 140,140" /><path
         id="path24"
         style="fill:#ffffff;fill-opacity:1;fill-rule:nonzero;stroke:none"
         d="M 365,320 H 235 c -11.047,0 -20,8.953 -20,20 0,11.047 8.953,20 20,20 h 130 c 11.047,0 20,-8.953 20,-20 0,-11.047 -8.953,-20 -20,-20" /></g></g></svg>